<?xml version="1.0" encoding="UTF-8"?>
<svg id="Layer_1" data-name="Layer 1" xmlns="http://www.w3.org/2000/svg" width="3.125in" height="1.528in" viewBox="0 0 225 110">
  <g>
    <path d="M10.683,56.112v-2.169c-.218-.244-.711-.59-1.802-.722-.564-.068-.999-.2-1.349-.357v2.269c.292,.192,.74,.375,1.444,.46,.782,.094,1.318,.293,1.708,.518Z" fill="#19453b"/>
    <path d="M10.683,59.266v-2.169c-.218-.244-.711-.59-1.802-.722-.564-.068-.999-.2-1.349-.357v2.269c.292,.192,.74,.375,1.444,.46,.782,.094,1.318,.293,1.708,.518Z" fill="#19453b"/>
    <path d="M10.683,65.574v-2.169c-.218-.244-.711-.59-1.802-.722-.564-.068-.999-.2-1.349-.357v2.269c.292,.192,.74,.375,1.444,.46,.782,.094,1.318,.293,1.708,.518Z" fill="#19453b"/>
    <path d="M10.683,52.957v-2.169c-.218-.244-.711-.59-1.802-.722-.564-.068-.999-.2-1.349-.357v2.269c.292,.192,.74,.375,1.444,.46,.782,.094,1.318,.293,1.708,.518Z" fill="#19453b"/>
    <path d="M10.683,62.42v-2.169c-.218-.244-.711-.59-1.802-.722-.564-.068-.999-.2-1.349-.357v2.269c.292,.192,.74,.375,1.444,.46,.782,.094,1.318,.293,1.708,.518Z" fill="#19453b"/>
    <path d="M10.683,68.716v-2.157c-.218-.244-.711-.59-1.802-.722-.564-.068-.999-.2-1.349-.357v2.269c.292,.192,.74,.375,1.444,.46,.771,.093,1.319,.285,1.708,.506Z" fill="#19453b"/>
    <path d="M10.683,49.803v-2.169c-.218-.244-.711-.59-1.802-.722-.564-.068-.999-.2-1.349-.357v2.269c.292,.192,.74,.375,1.444,.46,.782,.094,1.318,.293,1.708,.518Z" fill="#19453b"/>
    <path d="M10.683,43.495v-2.169c-.218-.244-.711-.59-1.802-.722-.564-.068-.999-.2-1.349-.357v2.269c.292,.192,.74,.375,1.444,.46,.782,.094,1.318,.293,1.708,.518Z" fill="#19453b"/>
    <path d="M10.683,46.649v-2.169c-.218-.244-.711-.59-1.802-.722-.564-.068-.999-.2-1.349-.357v2.269c.292,.192,.74,.375,1.444,.46,.782,.094,1.318,.293,1.708,.518Z" fill="#19453b"/>
    <path d="M214.317,53.943v2.169c.39-.225,.926-.424,1.708-.518,.704-.085,1.152-.268,1.444-.46v-2.269c-.35,.157-.786,.288-1.349,.357-1.091,.132-1.584,.478-1.802,.722Z" fill="#19453b"/>
    <path d="M214.317,57.097v2.169c.39-.225,.926-.424,1.708-.518,.704-.085,1.152-.268,1.444-.46v-2.269c-.35,.157-.786,.288-1.349,.357-1.091,.132-1.584,.478-1.802,.722Z" fill="#19453b"/>
    <path d="M214.317,63.405v2.169c.39-.225,.926-.424,1.708-.518,.704-.085,1.152-.268,1.444-.46v-2.269c-.35,.157-.786,.288-1.349,.357-1.091,.132-1.584,.478-1.802,.722Z" fill="#19453b"/>
    <path d="M214.317,50.788v2.169c.39-.225,.926-.424,1.708-.518,.704-.085,1.152-.268,1.444-.46v-2.269c-.35,.157-.786,.288-1.349,.357-1.091,.132-1.584,.478-1.802,.722Z" fill="#19453b"/>
    <path d="M214.317,60.251v2.169c.39-.225,.926-.424,1.708-.518,.704-.085,1.152-.268,1.444-.46v-2.269c-.35,.157-.786,.288-1.349,.357-1.091,.132-1.584,.478-1.802,.722Z" fill="#19453b"/>
    <path d="M214.317,66.56v2.157c.389-.221,.937-.413,1.708-.506,.704-.085,1.152-.268,1.444-.46v-2.269c-.35,.157-.786,.288-1.349,.357-1.091,.132-1.584,.478-1.802,.722Z" fill="#19453b"/>
    <path d="M214.317,47.634v2.169c.39-.225,.926-.424,1.708-.518,.704-.085,1.152-.268,1.444-.46v-2.269c-.35,.157-.786,.288-1.349,.357-1.091,.132-1.584,.478-1.802,.722Z" fill="#19453b"/>
    <path d="M214.317,41.326v2.169c.39-.225,.926-.424,1.708-.518,.704-.085,1.152-.268,1.444-.46v-2.269c-.35,.157-.786,.288-1.349,.357-1.091,.132-1.584,.478-1.802,.722Z" fill="#19453b"/>
    <path d="M216.345,36.744c-.69-.393-1.545-.384-2.227,.023-17.665,10.552-22.886,14.717-24.432,16.657H35.314c-1.546-1.94-6.767-6.106-24.432-16.657-.682-.406-1.537-.416-2.227-.023-.693,.393-1.123,1.134-1.123,1.932v.686c.292,.192,.74,.375,1.444,.46,.782,.094,1.318,.293,1.708,.518v-.018c11.414,6.866,20.026,12.643,21.901,14.677-1.875,2.034-10.488,7.812-21.901,14.677-.227-.243-.741-.557-1.802-.685-.564-.068-.999-.2-1.349-.357v2.689c0,.798,.43,1.539,1.123,1.932,.338,.193,.715,.288,1.093,.288,.393,0,.787-.104,1.136-.312,17.664-10.551,22.884-14.716,24.43-16.656H189.686c1.546,1.94,6.767,6.105,24.43,16.656,.349,.208,.743,.312,1.136,.312,.378,0,.755-.095,1.093-.288,.693-.393,1.123-1.134,1.123-1.932v-2.689c-.35,.157-.786,.288-1.349,.357-1.061,.128-1.575,.443-1.802,.685-11.414-6.866-20.026-12.643-21.901-14.677,1.875-2.034,10.488-7.812,21.901-14.677v.018c.39-.225,.926-.424,1.708-.518,.704-.085,1.152-.268,1.444-.46v-.686c0-.798-.43-1.539-1.123-1.932Z" fill="#19453b"/>
    <path d="M214.317,44.48v2.169c.39-.225,.926-.424,1.708-.518,.704-.085,1.152-.268,1.444-.46v-2.269c-.35,.157-.786,.288-1.349,.357-1.091,.132-1.584,.478-1.802,.722Z" fill="#19453b"/>
  </g>
  <g>
    <path d="M105.879,4.131V48.525h-9.8V23.7l.34-9.614-1.855,9.614-10.109,24.701-10.356-24.701-1.701-9.614,.34,9.614v24.825h-13.726v-1.916l3.926-2.752V8.799l-3.926-2.813v-1.855h19.291l5.194,16.323,.897,7.605,.896-7.605,5.132-16.323h15.457Z" fill="#19453b"/>
    <path d="M129.688,4.1l6.245,5.069v7.018h-9.676v-3.772h-15.458l7.482,2.474v6.709l11.655,.092,5.998,4.731v17.219l-6.121,4.885h-14.777l-6.369-5.101v-7.822h9.615v4.204h7.976v-9.676h-11.965l-5.626-4.668V9.046l5.348-4.946h15.674Z" fill="#19453b"/>
    <path d="M165.306,4.1V43.424l-4.885,5.101h-16.199l-4.947-5.101V8.706l-3.771-2.751v-1.855h13.108V40.363h7.358V4.1h9.336Z" fill="#19453b"/>
  </g>
  <g>
    <path d="M91.683,61.475l-6.399,44.424h-12.737l-3.803-24.98-.865-9.769-.835,9.769-3.71,24.98h-12.83l-5.565-39.756h-.062l-3.926-2.813v-1.855h12.428l3.215,24.453,.835,11.037,.68-11.037,3.926-24.453h11.871l3.71,24.453,.835,11.037,.742-11.037,3.154-24.453h9.336Z" fill="#19453b"/>
    <path d="M113.175,61.506l8.996,44.394h-10.851l-1.577-8.934h-7.667l-1.576,8.934h-10.511l7.698-39.602-4.142-2.936v-1.855h19.631Zm-10.759,27.113h6.925l-2.937-18.549-1.793-.063-2.195,18.612Z" fill="#19453b"/>
    <path d="M151.639,61.506l-10.016,20.311,9.12,20.373,3.431,1.793v1.916h-11.871l-8.378-21.331v21.331h-9.522v-39.726l-3.926-2.813v-1.855h13.448v17.497l7.265-17.497h10.449Z" fill="#19453b"/>
    <path d="M184.048,61.506v1.855l-4.421,7.142h-21.239l7.544,1.978v6.245h12.272v7.945h-12.272v10.047h13.695l4.421,7.266v1.916l-27.948-.062-.062-44.332h28.009Z" fill="#19453b"/>
  </g>
</svg>