<?xml version="1.0" encoding="utf-8"?>
<!-- Generator: Adobe Illustrator 28.3.0, SVG Export Plug-In . SVG Version: 6.00 Build 0)  -->
<svg version="1.1" id="Layer_1" xmlns="http://www.w3.org/2000/svg" xmlns:xlink="http://www.w3.org/1999/xlink" x="0px" y="0px"
	 viewBox="0 0 460 540" enable-background="new 0 0 460 540" xml:space="preserve">
<g>
	<g>
		<g>
			<path fill="#FFFFFF" d="M227.077,84.863l-44.08-1.968c0,0,0.787,14.168-8.658,34.634c-9.446,20.466-33.847,20.859-33.847,20.859
				s-24.401-0.393-33.847-20.859s-8.659-34.634-8.659-34.634l-44.08,1.968c0,0,7.871,107.051-30.305,129.091
				c0,0,2.361,110.199,10.626,158.215c0,0,41.718,3.149,106.264,3.149s106.264-3.149,106.264-3.149
				c8.265-48.015,10.626-158.215,10.626-158.215C219.206,191.914,227.077,84.863,227.077,84.863z"/>
			<path d="M140.492,375.734c-63.823,0-105.878-3.119-106.295-3.15l-0.324-0.024l-0.055-0.32
				c-8.177-47.497-10.609-157.174-10.633-158.276l-0.006-0.246l0.214-0.124C60.91,191.935,53.569,85.962,53.491,84.894l-0.032-0.428
				l44.969-2.007l-0.025,0.459c-0.008,0.141-0.665,14.316,8.62,34.437c9.225,19.985,33.235,20.613,33.477,20.617
				c0.228-0.004,24.237-0.632,33.462-20.618c9.285-20.12,8.628-34.295,8.62-34.436l-0.025-0.459l44.969,2.007l-0.032,0.428
				c-0.078,1.068-7.416,107.042,30.098,128.699l0.214,0.124l-0.006,0.246c-0.023,1.103-2.456,110.78-10.633,158.276l-0.055,0.32
				l-0.324,0.024C246.369,372.615,204.314,375.734,140.492,375.734z M34.584,371.777c4.033,0.29,45.074,3.124,105.908,3.124
				c60.836,0,101.874-2.834,105.907-3.124c7.935-46.513,10.428-151.745,10.561-157.586c-19.713-11.599-26.903-46.075-29.462-73.007
				c-2.583-27.198-1.099-52.362-0.865-55.923l-43.208-1.929c0.031,2.609-0.264,16.076-8.708,34.373
				c-9.446,20.466-33.972,21.097-34.218,21.101c-0.26-0.004-24.786-0.635-34.232-21.101c-8.444-18.296-8.739-31.763-8.708-34.373
				L54.351,85.26c0.233,3.561,1.718,28.725-0.865,55.923c-2.559,26.932-9.749,61.409-29.462,73.007
				C24.156,220.032,26.649,325.264,34.584,371.777z"/>
		</g>
		<path fill="#010101" d="M257.126,225.2l-8.44-6.56c-15.883-12.157-25.803-37.953-29.48-76.669
			c-1.945-20.476-1.644-39.598-1.29-49.174l-0.001-8.336h0.834v8.352c-0.354,9.571-0.654,28.652,1.287,49.08
			c3.654,38.477,13.465,64.076,29.159,76.088l8.443,6.561L257.126,225.2z"/>
		<path fill="#010101" d="M140.357,147.135c-1.228-0.02-30.039-0.772-41.655-25.94c-5.759-12.476-8.011-22.96-8.887-29.559
			l-1.214-8.683l0.824-0.115l1.215,8.686c0.869,6.544,3.104,16.94,8.817,29.322c11.399,24.698,39.707,25.437,40.906,25.457h0.262
			c1.192-0.02,29.5-0.758,40.899-25.457c5.717-12.386,7.95-22.78,8.816-29.319l0.815-8.162l0.828,0.083l-0.816,8.175
			c-0.875,6.609-3.127,17.091-8.888,29.572c-11.616,25.168-40.428,25.92-41.648,25.94H140.357z"/>
		<path fill="#010101" d="M23.826,224.07l-0.449-0.701l8.441-5.409c15.666-11.993,25.477-37.593,29.131-76.068
			c1.941-20.428,1.641-39.509,1.288-49.064l-0.393-8.318l0.832-0.039l0.393,8.322c0.354,9.58,0.655,28.703-1.29,49.178
			c-3.678,38.715-13.597,64.511-29.483,76.67L23.826,224.07z"/>
		<path fill="#010101" d="M140.491,367.402c-49.286,0-85.723-1.885-99.101-2.696l-8.555-0.876l0.084-0.829l8.538,0.875
			c13.354,0.809,49.77,2.693,99.033,2.693c49.265,0,85.681-1.884,99.051-2.695l8.521-0.874l0.084,0.829l-8.538,0.875
			C226.215,365.517,189.778,367.402,140.491,367.402z"/>
	</g>
	<g>
		<g>
			<path fill="#FFFFFF" d="M413.348,219.173l-44.08-1.968c0,0,0.787,14.168-8.658,34.634s-33.847,20.859-33.847,20.859
				s-24.401-0.393-33.847-20.859c-9.446-20.466-8.659-34.634-8.659-34.634l-44.08,1.968c0,0,7.871,107.051-30.305,129.091
				c0,0,2.361,110.199,10.626,158.215c0,0,41.718,3.149,106.264,3.149s106.264-3.149,106.264-3.149
				c8.265-48.015,10.626-158.215,10.626-158.215C405.476,326.223,413.348,219.173,413.348,219.173z"/>
			<path d="M326.763,510.043c-63.823,0-105.878-3.119-106.295-3.15l-0.324-0.024l-0.055-0.32
				c-8.176-47.497-10.608-157.174-10.632-158.276l-0.006-0.246l0.214-0.124c37.513-21.657,30.176-127.631,30.098-128.699
				l-0.032-0.428l44.968-2.007l-0.025,0.459c-0.008,0.141-0.665,14.316,8.621,34.437c9.224,19.985,33.234,20.613,33.476,20.617
				c0.228-0.004,24.238-0.632,33.462-20.617c9.285-20.12,8.628-34.296,8.62-34.437l-0.025-0.459l44.969,2.007l-0.032,0.428
				c-0.078,1.068-7.415,107.042,30.098,128.699l0.214,0.124l-0.006,0.246c-0.023,1.103-2.456,110.78-10.632,158.276l-0.055,0.32
				l-0.324,0.024C432.641,506.924,390.585,510.043,326.763,510.043z M220.854,506.086c4.033,0.29,45.074,3.124,105.908,3.124
				c60.836,0,101.875-2.834,105.908-3.124c7.934-46.513,10.427-151.745,10.56-157.586c-19.712-11.599-26.902-46.075-29.461-73.007
				c-2.584-27.198-1.1-52.362-0.866-55.923l-43.208-1.929c0.031,2.609-0.264,16.076-8.708,34.373
				c-9.445,20.466-33.972,21.097-34.218,21.101c-0.26-0.004-24.786-0.635-34.231-21.101c-8.445-18.296-8.74-31.763-8.709-34.373
				l-43.207,1.929c0.233,3.561,1.718,28.725-0.866,55.923c-2.559,26.932-9.749,61.409-29.461,73.007
				C210.428,354.341,212.921,459.573,220.854,506.086z"/>
		</g>
	</g>
	<g>
		<g>
			<path d="M78.188,243.88l-7.023,9.623l1.066-9.623H68.2l-3.147,5.436c-0.018,0.052-0.169,0.343-0.455,0.871
				c-0.286,0.529-0.594,1.118-0.923,1.769c-0.329,0.65-0.59,1.175-0.78,1.573l1.3-9.649H58.16l-1.847,16.1h6.034l4.967-8.089
				l-0.936,8.089h6.035l11.756-16.1H78.188z"/>
			<polygon points="86.12,243.905 80.268,259.979 86.302,259.979 92.154,243.905 			"/>
			<path d="M108.201,249.913h-9.207l0.729-2.003h12.094l1.456-4.031H97.98c-0.868,0-1.643,0.238-2.328,0.715
				c-0.685,0.477-1.175,1.123-1.469,1.938l-1.717,4.708c-0.243,0.659-0.16,1.274,0.248,1.847c0.407,0.572,0.958,0.858,1.651,0.858
				h9.207l-0.728,2.003H90.749l-1.456,4.031h15.293c0.867,0,1.643-0.234,2.328-0.702c0.685-0.468,1.175-1.109,1.469-1.925
				l1.717-4.734c0.242-0.658,0.16-1.274-0.247-1.846C109.445,250.2,108.894,249.913,108.201,249.913z"/>
			<path d="M120.244,247.911h10.352l1.456-4.031h-13.577c-0.849,0-1.617,0.238-2.301,0.715c-0.685,0.477-1.175,1.123-1.469,1.938
				l-3.902,10.742c-0.242,0.641-0.165,1.253,0.234,1.834c0.399,0.581,0.945,0.871,1.639,0.871H126.2l1.456-4.031h-10.352
				L120.244,247.911z"/>
			<path d="M137.592,243.88c-0.85,0-1.617,0.238-2.302,0.715c-0.685,0.477-1.175,1.123-1.469,1.938l-4.89,13.447h14.695
				c0.849,0,1.617-0.238,2.302-0.715c0.685-0.477,1.175-1.122,1.469-1.938l4.89-13.447H137.592z M141.857,255.948h-5.436l2.94-8.037
				h5.436L141.857,255.948z"/>
			<polygon points="167.372,243.88 164.433,251.943 161.338,243.88 155.278,243.88 149.426,259.979 155.46,259.979 158.398,251.943 
				161.494,259.979 167.554,259.979 173.406,243.88 			"/>
			<path d="M189.454,249.913h-9.207l0.728-2.003h12.094l1.456-4.031h-15.294c-0.867,0-1.643,0.238-2.327,0.715
				c-0.685,0.477-1.175,1.123-1.47,1.938l-1.716,4.708c-0.243,0.659-0.161,1.274,0.247,1.847c0.408,0.572,0.958,0.858,1.652,0.858
				h9.207l-0.728,2.003h-12.094l-1.456,4.031h15.294c0.867,0,1.642-0.234,2.328-0.702c0.685-0.468,1.175-1.109,1.469-1.925
				l1.716-4.734c0.243-0.658,0.161-1.274-0.247-1.846C190.698,250.2,190.147,249.913,189.454,249.913z"/>
			<polygon points="197.516,243.905 191.664,259.979 197.698,259.979 203.551,243.905 			"/>
			<polygon points="218.635,243.88 215.696,251.943 212.601,243.88 206.541,243.88 200.689,259.979 206.723,259.979 
				209.662,251.943 212.757,259.979 218.817,259.979 224.67,243.88 			"/>
		</g>
		<g>
			<path fill="#CE0E2D" d="M195.983,231.668c1.1-1.468,1.461-2.544,1.206-2.707c-0.281-0.19-1.125,0.468-2.36,1.523
				c-1.471,1.256-3.433,2.54-7.031,2.54l-4.662,0.027c-0.208-0.387-0.701-1.123-1.873-1.762c-0.436-0.238-0.795-0.602-0.963-1.07
				c-0.679-1.891-3.082-5.625-3.99-6.699c-1.042-1.232-3.884-2.927-5.818-4.317c-1.423-1.172-2.054-1.814-2.333-2.164
				c0.041,0.358,0.06,0.722,0.08,1.094c-0.021,0.487-0.007,0.991-0.096,1.49c-0.247,2.014-1.085,4.053-2.285,5.784
				c-0.232,0.396-0.529,0.739-0.813,1.089c2.425,2.808,7.545,6.536,7.545,6.536h-1.833l-7.705-4.384
				c-0.081,0.079-0.16,0.16-0.242,0.236c-0.38,0.318-0.754,0.631-1.12,0.938c-1.48,1.21-2.969,2.142-4.241,2.861
				c-1.272,0.719-2.852,1.469-4.612,2.176c-0.396,0.148-0.803,0.296-1.215,0.442c3.205-0.003,35.381-0.031,35.574-0.031
				C192.815,235.271,195.14,232.794,195.983,231.668z M168.833,223.332c1.075-0.045,3.558,2.587,3.558,2.587l3.145,4.334
				L168.833,223.332z"/>
			<path fill="#CE0E2D" d="M156.876,231.665c0.603-0.341,1.258-0.73,1.937-1.171c3.393-2.579,8.545-6.989,8.545-12.686
				c0-2.041-0.837-3.897-2.071-5.402c-0.11-0.103-0.226-0.212-0.356-0.338c-2.692-2.608-9.501-2.701-11.694-2.659l-0.033,0.018
				c-1.195,0.07-3.304,0.359-4.698,1.483c-1.739,1.649-2.48-1.281-0.72-1.9c0.148-0.308,0.302-0.611,0.452-0.917
				c-0.291-0.199-0.567-0.464-0.837-0.696c-0.459-0.418-1.091-0.532-1.746-0.644c-0.649-0.104-1.304-0.168-1.91-0.228
				c-0.669-0.079-1.2-0.28-1.653-0.434c-0.408-0.15-0.886-0.338-1.392-0.561c1.849,2.091,4.113,5.576,6.071,7.601
				c1.07,0.287,2.001-0.25,2.001-0.25s0.94,2.104,2.98,3.161c1.927,0.999,9.198,6.311,10.494,7.715
				c0.71-0.988,1.327-2.033,1.79-3.103c0.308-0.775,0.554-1.557,0.657-2.333c0.092-0.775,0.054-1.533-0.115-2.231
				c0.288,0.655,0.448,1.431,0.454,2.254c-0.004,0.823-0.173,1.673-0.424,2.52c-0.549,1.677-1.472,3.313-2.584,4.754
				c-2.214,2.911-5.046,5.127-7.176,6.502c-1.072,0.683-2.385,1.457-3.887,2.158c-0.227,0.106-0.465,0.207-0.7,0.31
				c0.07-0.013,0.147-0.028,0.222-0.043c0.661-0.241,1.311-0.486,1.934-0.731C154.119,233.096,155.646,232.36,156.876,231.665z"/>
			<path fill="#CE0E2D" d="M145.757,235.186c1.67-0.552,3.275-1.221,4.715-1.926c1.44-0.705,2.704-1.462,3.741-2.123
				c1.607-1.037,3.629-2.548,5.51-4.436c-13.891-4.414-26.923-21.536-26.425-26.441c-7.468,4.32-2.409,7.272-13.375,8.885
				c9.609,16.201,18.966,17.285,18.966,17.285c-12.369-1.04-21.632-15.551-21.632-15.551c-2.815,2.926-10.682-1.392-15.57,2.025
				c5.43,12.158,16.363,15.425,16.363,15.425c-12.857-2.058-17.92-11.715-17.92-11.715c-6.157,2.274-11.627-0.381-17.39,3.311
				c5.312,4.981,10.388,8.788,14.651,11.601c-2.011-2.376-3.562-4.958-4.457-7.28c1.988,3.186,5.074,6.903,8.75,9.659
				c1.829,1.374,3.803,2.488,5.732,3.128c1.928,0.656,3.786,0.784,5.283,0.572l0.001,0.006c1.147-0.292,3.236-0.366,10.354,0.962
				c6.287,1.174,8.905-0.594,9.911-1.759c0,0-3.435-2.78-4.749-4.49c3.16,2.097,6.525,4.124,6.934,4.32
				c0.268,0.139,0.54,0.257,0.811,0.384c2.53-0.314,4.794-0.638,6.836-1C143.788,235.788,144.783,235.509,145.757,235.186z"/>
			<path fill="#CE0E2D" d="M75.504,270.078h-0.025c-0.164-1.777-0.499-4.053-0.738-5.878h-1.209
				c-0.229,1.765-0.566,4.228-0.751,5.933h-0.022c-0.062-1.522-0.31-4.195-0.496-5.933h-1.322l1.103,8.058h1.257
				c0.241-1.737,0.592-3.921,0.779-5.614h0.022c0.172,1.658,0.489,3.808,0.716,5.614h1.268l1.19-8.058h-1.256
				C75.835,266.026,75.599,268.504,75.504,270.078z"/>
			<path fill="#CE0E2D" d="M81.164,264.2l-1.298,8.058h1.264l0.282-2.155h1.24l0.317,2.155h1.299l-1.348-8.058H81.164z
				 M81.569,268.959c0.161-1.189,0.403-2.915,0.438-3.578h0.046c0.092,0.911,0.268,2.209,0.452,3.578H81.569z"/>
			<polygon fill="#CE0E2D" points="86.526,265.353 87.82,265.353 87.82,272.258 89.063,272.258 89.063,265.353 90.365,265.353 
				90.365,264.2 86.526,264.2 			"/>
			<polygon fill="#CE0E2D" points="94.804,268.577 96.575,268.577 96.575,267.434 94.804,267.434 94.804,265.353 96.673,265.353 
				96.673,264.2 93.561,264.2 93.561,272.258 96.688,272.258 96.845,271.115 94.804,271.115 			"/>
			<path fill="#CE0E2D" d="M101.818,264.2h-1.721v8.058h1.243v-3.603h0.289c0.721,0,0.847,0.225,0.847,1.208
				c0,0.585-0.022,1.909,0.085,2.396h1.2c-0.086-0.489-0.074-1.798-0.074-2.476c0-1.093-0.268-1.432-0.739-1.653
				c0.312-0.128,0.82-0.442,0.82-1.681v-0.307C103.769,264.691,103.044,264.2,101.818,264.2z M102.524,266.504
				c0,0.876-0.242,1.124-0.899,1.124h-0.285v-2.402h0.351c0.705,0,0.833,0.379,0.833,1.002V266.504z"/>
			<path fill="#CE0E2D" d="M109.228,267.392c-0.709-0.518-0.816-0.797-0.816-1.367c0-0.534,0.107-0.885,0.51-0.885
				c0.413,0,0.508,0.339,0.508,0.9v0.397h1.232v-0.43c0-0.874-0.23-1.935-1.717-1.936c-1.455-0.002-1.776,1.07-1.776,2.132
				c0,1.193,0.463,1.63,1.33,2.315c0.864,0.682,1.051,0.951,1.051,1.816c0,0.524-0.126,0.982-0.61,0.982
				c-0.472,0-0.652-0.334-0.652-0.933v-0.498h-1.243v0.478c0,1.061,0.364,2.011,1.854,2.011c1.504,0,1.904-1.083,1.904-2.226
				C110.803,268.801,110.434,268.283,109.228,267.392z"/>
			<path fill="#CE0E2D" d="M118.282,264.2h-1.384c-0.444,1.108-1.134,2.843-1.443,3.64h-0.012v-3.64h-1.222v8.058h1.222v-2.543
				l0.519-1.085l1.053,3.628h1.353l-1.555-4.927L118.282,264.2z"/>
			<rect x="121.458" y="264.2" fill="#CE0E2D" width="1.243" height="8.058"/>
			<path fill="#CE0E2D" d="M134.418,267.411l-0.772,1.821l-0.743-1.172c0.88-0.715,1.158-1.172,1.158-2.143
				c0-1.2-0.531-1.814-1.575-1.814c-0.993,0-1.581,0.661-1.581,1.914c0,0.885,0.122,1.311,0.529,1.982
				c-0.68,0.592-1.013,1.078-1.013,2.126c0,1.341,0.552,2.227,1.742,2.227c0.657,0,1.128-0.281,1.534-0.835l0.478,0.741h1.388
				l-1.224-1.931l1.257-2.916H134.418z M132.505,265.108c0.364,0,0.45,0.304,0.45,0.788c0,0.629-0.14,0.922-0.579,1.318
				c-0.271-0.458-0.323-0.75-0.323-1.324C132.053,265.465,132.16,265.108,132.505,265.108z M132.336,271.13
				c-0.446,0-0.703-0.344-0.703-1.113c0-0.566,0.08-0.865,0.344-1.168l1.098,1.703C132.883,270.939,132.703,271.13,132.336,271.13z"
				/>
			<path fill="#CE0E2D" d="M147.298,270.078h-0.025c-0.164-1.777-0.499-4.053-0.738-5.878h-1.209
				c-0.229,1.765-0.566,4.228-0.751,5.933h-0.022c-0.062-1.522-0.31-4.195-0.496-5.933h-1.322l1.103,8.058h1.257
				c0.241-1.737,0.592-3.921,0.779-5.614h0.022c0.172,1.658,0.489,3.808,0.716,5.614h1.268l1.19-8.058h-1.256
				C147.629,266.026,147.393,268.504,147.298,270.078z"/>
			<path fill="#CE0E2D" d="M152.958,264.2l-1.298,8.058h1.264l0.282-2.155h1.24l0.317,2.155h1.299l-1.348-8.058H152.958z
				 M153.363,268.959c0.161-1.189,0.403-2.915,0.438-3.578h0.046c0.092,0.911,0.268,2.209,0.452,3.578H153.363z"/>
			<path fill="#CE0E2D" d="M163.37,264.2h-1.384c-0.444,1.108-1.134,2.843-1.443,3.64h-0.012v-3.64h-1.222v8.058h1.222v-2.543
				l0.519-1.085l1.053,3.628h1.353l-1.555-4.927L163.37,264.2z"/>
			<polygon fill="#CE0E2D" points="167.78,268.577 169.551,268.577 169.551,267.434 167.78,267.434 167.78,265.353 169.649,265.353 
				169.649,264.2 166.537,264.2 166.537,272.258 169.664,272.258 169.821,271.115 167.78,271.115 			"/>
			<path fill="#CE0E2D" d="M175.911,267.95c0.353-0.146,0.748-0.476,0.748-1.619v-0.296c0-1.182-0.536-1.834-1.931-1.834h-1.655
				v8.058h1.764c1.402,0,1.97-0.718,1.97-2.08v-0.611C176.808,268.394,176.27,268.093,175.911,267.95z M174.274,265.226h0.384
				c0.595,0,0.832,0.258,0.832,0.926v0.315c0,0.799-0.207,1.014-0.902,1.014h-0.314V265.226z M175.585,270.145
				c0,0.78-0.179,1.098-0.896,1.098h-0.415v-2.757h0.32c0.792,0,0.992,0.337,0.992,1.123V270.145z"/>
			<path fill="#CE0E2D" d="M182.177,264.082c-1.201,0-1.978,0.704-1.978,2.247v3.793c0,1.504,0.59,2.253,1.899,2.253
				c1.365,0,2.02-0.73,2.02-2.274v-3.763C184.119,264.788,183.399,264.082,182.177,264.082z M182.853,270.252
				c0,0.709-0.216,1.002-0.699,1.002c-0.448,0-0.69-0.315-0.69-0.985v-4.052c0-0.682,0.24-1.002,0.688-1.002
				c0.504,0,0.7,0.353,0.7,0.993V270.252z"/>
			<path fill="#CE0E2D" d="M188.494,264.2l-1.298,8.058h1.264l0.282-2.155h1.24l0.317,2.155h1.299l-1.348-8.058H188.494z
				 M188.899,268.959c0.161-1.189,0.403-2.915,0.438-3.578h0.046c0.092,0.911,0.268,2.209,0.452,3.578H188.899z"/>
			<path fill="#CE0E2D" d="M196.567,264.2h-1.721v8.058h1.243v-3.603h0.289c0.721,0,0.847,0.225,0.847,1.208
				c0,0.585-0.022,1.909,0.085,2.396h1.2c-0.086-0.489-0.074-1.798-0.074-2.476c0-1.093-0.268-1.432-0.739-1.653
				c0.312-0.128,0.82-0.442,0.82-1.681v-0.307C198.517,264.691,197.793,264.2,196.567,264.2z M197.273,266.504
				c0,0.876-0.242,1.124-0.899,1.124h-0.285v-2.402h0.351c0.705,0,0.833,0.379,0.833,1.002V266.504z"/>
			<path fill="#CE0E2D" d="M203.819,264.2h-1.724v8.058h1.721c1.916,0,2.128-1.355,2.128-2.587v-3.09
				C205.944,265.085,205.528,264.2,203.819,264.2z M204.679,269.84c0,0.834-0.125,1.36-0.942,1.36h-0.399v-5.932h0.391
				c0.819,0,0.949,0.474,0.949,1.215V269.84z"/>
			<path fill="#CE0E2D" d="M137.431,203.023c0.505,0.381,1.071,0.774,1.62,1.103c0.161,0.085,0.323,0.167,0.486,0.247
				c1.001,0.492,2.013,0.883,2.756,1.155c0.433,0.149,0.966,0.346,1.515,0.423c0.611,0.076,1.273,0.168,1.941,0.318
				c0.015,0.003,0.029,0.008,0.044,0.011c0.265,0.062,0.529,0.137,0.79,0.233c0.054,0.02,0.109,0.034,0.163,0.056
				c0.332,0.126,0.644,0.356,0.867,0.599c0.252,0.276,0.466,0.55,0.695,0.781c0.053,0.054,0.107,0.104,0.163,0.152
				c0.269,0.133,0.594,0.206,0.989,0.179c0.101-0.007,0.205-0.047,0.308-0.105l-0.303,0.765l0.028,0.007
				c2.659-0.995,5.116-0.791,5.714-0.72c2.13,0.116,3.837,0.372,5.197,0.683c-0.912-0.923-7.807-7.532-9.506-10.461
				c2.662,0.452,4.926,0.46,4.926,0.46c3.648,1.907,7.35,2.796,7.35,2.796c0.41,0.771,0.779,0.83,2.211,1.591
				c0.132,0.07,0.604,0.578,0.706,0.129c0.053-0.234-0.163-0.681-0.844-1.046c-0.414-0.221-0.246-0.243-0.361-0.64
				c0.612-0.477,0.891-0.451,1.477-0.231c0.431,0.162,1.452,1.31,1.664,1.209c0.501-0.24,0.002-1.2-0.389-1.554
				c-1.742-1.58-4.107-1.377-4.107-1.377c-2.539-1.96-5.01-3.157-7.114-3.583c-1.075-0.698-2.166-0.884-3.872-1.463
				c-1.168-0.397-2.256-1.272-3.489-1.228c-2.545,0.09-2.148,0.73-3.353,0.823c-1.467,0.113-1.534-1.502-1.534-1.502
				c0.206-0.596-0.033-2.004-0.174-2.939c-0.088-0.585-0.583-2.146-1.4-3.153c-0.49-0.604-1.097-1.008-1.802-0.882
				c-1.879,0.338-4.06,1.885-3.053,4.61c1.006,2.725,2.825,3.52,2.825,3.52c0.441,1.952-0.295,1.991-0.295,1.991
				c-0.544,0.106-1.034,0.32-1.469,0.582c0,0,0.001-0.004,0.001-0.004s-0.028,0.017-0.07,0.044
				c-0.021,0.014-0.047,0.031-0.078,0.051c-0.065,0.042-0.129,0.086-0.192,0.13c-0.043,0.03-0.091,0.065-0.14,0.101
				c-0.674,0.494-1.855,1.506-2.164,2.731c-0.321,1.27-0.04,2.076,0.409,2.648C136.812,202.532,137.12,202.774,137.431,203.023z
				 M141.008,200.013c0.671,0.317,1.264,0.826,1.805,1.342c0.267,0.264,0.529,0.524,0.783,0.775l0.19,0.186
				c0.045,0.044,0.022,0.02,0.032,0.029l0.002-0.001l0.06,0.009c0.189,0.03,0.362,0.073,0.531,0.119
				c0.672,0.186,1.255,0.414,1.743,0.607c0.487,0.196,1.062,0.445,1.676,0.743c0.307,0.15,0.625,0.312,0.945,0.49
				c0.259,0.127,0.04,0.102,0.341,0.054c0.197-0.037,0.41-0.053,0.622-0.024c0.12,0.015,0.236,0.049,0.348,0.092
				c0.009-0.018,0.018-0.036,0.028-0.054c-0.549-0.499-0.035-1.368,0.911-1.172c1.848,0.548,2.439,3.45,4.919,3.443
				c-2.006,0.724-3.156-1.202-4.781-1.998l-0.211,0.534c0.006,0.01,0.015,0.019,0.021,0.03c0.026,0.046,0.047,0.073,0.084,0.144
				c0.025,0.08,0.03,0.12,0.038,0.174c0.024,0.202,0.017,0.39-0.004,0.577c-0.07,0.669-0.388,1.281-0.831,1.62
				c-0.047,0.036-0.094,0.072-0.144,0.101c0.445-0.404,0.691-1.059,0.697-1.74c0.002-0.154-0.009-0.313-0.036-0.46
				c-0.003-0.014-0.003-0.029-0.006-0.043c-0.018-0.097-0.026-0.089-0.09-0.179c-0.047-0.072-0.103-0.135-0.16-0.197
				c-0.159-0.181-0.356-0.309-0.568-0.378c-0.022-0.002-0.045-0.006-0.067-0.007c0.002-0.004,0.004-0.008,0.006-0.011
				c-0.066-0.017-0.132-0.032-0.2-0.037c-0.156-0.013-0.317,0.006-0.479,0.043l-0.348,0.089l-0.32-0.17
				c-0.315-0.162-0.63-0.311-0.934-0.452c-0.61-0.28-1.178-0.521-1.655-0.713c-0.398-0.158-0.868-0.343-1.378-0.509
				c-0.101-0.033-0.201-0.066-0.305-0.097c-0.157-0.047-0.318-0.09-0.475-0.12l-0.199-0.035c-0.064-0.031-0.141-0.135-0.162-0.149
				l-0.188-0.197c-0.036-0.039-0.075-0.081-0.112-0.12c-0.208-0.224-0.418-0.451-0.635-0.685c-0.503-0.532-1.03-1.051-1.623-1.407
				c-0.263-0.167-0.542-0.283-0.824-0.364c-0.345-0.099-0.693-0.143-1.021-0.126c0.254-0.065,0.542-0.083,0.84-0.061
				C140.247,199.734,140.639,199.826,141.008,200.013z"/>
		</g>
	</g>
	<g>
		<path fill="#CE0E2D" d="M284.947,329.972l5.205-16.594h5.391l2.753,8.31l2.614-8.31h5.367l-5.205,16.594h-5.391l-2.753-8.284
			l-2.614,8.284H284.947z"/>
		<path fill="#CE0E2D" d="M305.12,329.972l4.35-13.859c0.262-0.84,0.697-1.505,1.307-1.998c0.609-0.491,1.3-0.737,2.07-0.737h13.604
			l-5.205,16.594h-5.391l1.318-4.155h-5.367l-1.318,4.155H305.12z M314.397,317.533l-1.296,4.155h5.367l1.296-4.155H314.397z"/>
		<path fill="#CE0E2D" d="M325.294,329.972l5.205-16.594h5.367l2.105,4.745l5.066-4.745h5.367l-5.205,16.594h-5.367
			c0.74-2.395,1.742-5.603,3.008-9.624c-0.078,0.107-0.162,0.21-0.255,0.309s-0.193,0.201-0.301,0.308
			c-0.108,0.107-0.193,0.188-0.255,0.241l-4.303,4.075l-1.596-3.86c-0.016-0.054-0.062-0.178-0.14-0.375s-0.139-0.38-0.185-0.55
			c-0.046-0.169-0.069-0.344-0.069-0.522l-3.077,9.999H325.294z"/>
		<path fill="#CE0E2D" d="M367.282,317.533h-10.757l-0.648,2.145h8.953l-1.18,3.458h-8.953l-0.764,2.681h10.734l-1.295,4.155
			h-16.125l5.205-16.594h16.125L367.282,317.533z"/>
	</g>
	<g>
		<path d="M322.514,428.823L311.1,438.78h-31.447l-11.171-9.957v-75.402l11.413-10.017H311.1l11.414,10.017V428.823z
			 M304.907,421.174V361.01h-18.82v60.164H304.907z"/>
		<path d="M385.045,428.823l-11.414,9.957h-31.447l-11.171-9.957v-75.402l11.413-10.017h31.205l11.414,10.017V428.823z
			 M367.438,421.174V361.01h-18.82v60.164H367.438z"/>
	</g>
</g>
</svg>
