<svg id="Layer_1" data-name="Layer 1" xmlns="http://www.w3.org/2000/svg" width="1in" height="0.985in" viewBox="0 0 72 70.897">
  <g>
    <path d="M66.852,34.741l-.915.245c.046.669.077,1.341.077,2.021a29.769,29.769,0,0,1-56.5,13.1l-.919.246-.922.248A31.638,31.638,0,0,0,67.875,37.007c0-.846-.043-1.682-.109-2.511Z" fill="#e93825"/>
    <path d="M5.54,37.162l.929-.249A29.81,29.81,0,0,1,33.477,7.366c.91-.084,1.831-.132,2.763-.132a29.637,29.637,0,0,1,9.031,1.4l.009-.026a7.042,7.042,0,0,0,.217-.88,5.693,5.693,0,0,0,.094-.953A31.627,31.627,0,0,0,36.24,5.373c-.213,0-.423.011-.636.016a31.629,31.629,0,0,0-31,31.618c0,.135.009.268.011.4Z" fill="#e93825"/>
    <path d="M62.2,21.979l.69-.185.941-.252a31.7,31.7,0,0,0-3.14-4.6c-.153-.186-.314-.365-.471-.548a6.338,6.338,0,0,1-.337,1.054,5.64,5.64,0,0,1-.471.9,30.038,30.038,0,0,1,2.549,3.7Z" fill="#e93825"/>
    <path d="M51.1,11.224a29.967,29.967,0,0,1,5.6,4.186,3.2,3.2,0,0,0,.641-.673,1.92,1.92,0,0,0,.3-.717c.013-.057.034-.142.064-.239a31.7,31.7,0,0,0-6.7-4.75c.052.378.083.752.1,1.123A10.6,10.6,0,0,1,51.1,11.224Z" fill="#e93825"/>
    <path d="M68.939,22.488a.891.891,0,0,0-.888-.86,1.043,1.043,0,0,0-.266.036l-3.4.911-.93.249-.918.246-.048.013h0l-9.673,2.592c-.115-.168-.233-.333-.353-.5s-.246-.329-.372-.491q-.387-.5-.8-.968a10.937,10.937,0,0,0,.227,1.122c.044.174.094.359.148.551.049.173.1.353.16.542l0,.006h0c.3.985.723,2.2,1.288,3.735a10.623,10.623,0,0,1,.662,2.552,8.323,8.323,0,0,1-.868,5.067s2.1-.554,2.355-.63l.1-.028c.49-.142.881-.237.945-.252l.016,0h0l1.565-.419a1.426,1.426,0,0,1,.154-.241,1.7,1.7,0,0,1,.629-.484,3.994,3.994,0,0,1,1.107-.294c.017-.025.036-.05.056-.076l.064-.16.366-.2.057-.03.06-.024.06-.027a1.948,1.948,0,0,1,.277-.107c.076-.022.151-.042.23-.06a3.021,3.021,0,0,1,.659-.077,2.324,2.324,0,0,1,.267.015,2.064,2.064,0,0,1,1.043.412l1.757-.47,1.168-.313.907-.243.908-.244,1.124-.3a1.362,1.362,0,0,0,.96-1.39ZM58.218,32.015l-.158,1.044-2.13.571-.468.125-.48-.8c.213-.23.433-.493.649-.771a14.027,14.027,0,0,0,1.112-1.657,3.446,3.446,0,0,0,.664-1.991c-.05-.188-.163-.224-.273-.2-.262.071-.622.559-.645,1.431l-1-.089a2.589,2.589,0,0,1,.316-1.352,1.8,1.8,0,0,1,1.069-.921,1.158,1.158,0,0,1,1.471.875,4.029,4.029,0,0,1-.756,2.718,14.6,14.6,0,0,1-.926,1.425Zm3.443-1.7c-.208.718-.7,1.963-1.707,2.232h0a.957.957,0,0,1-.922-.215,1.561,1.561,0,0,1-.421-.764,5.932,5.932,0,0,1,.158-2.893c.207-.719.7-1.964,1.707-2.232a.955.955,0,0,1,.922.215,1.556,1.556,0,0,1,.42.763A5.946,5.946,0,0,1,61.661,30.32ZM64.3,27.39l-.4,2.618-.233,1.547-.981.263.64-4.241a3.844,3.844,0,0,1-.787.519l-.651-.741a4.422,4.422,0,0,0,1.27-1.012,2.54,2.54,0,0,0,.466-.739v0l.911.2Zm2.808,3.177a1.948,1.948,0,0,1-.852.472l-.007,0a1.35,1.35,0,0,1-.959-.063,1.479,1.479,0,0,1-.66-1.617l.254-.068.765-.2s-.037.168-.065.386c-.055.422.181.652.455.614.018,0,.035,0,.054-.007a1.047,1.047,0,0,0,.689-.926,1.637,1.637,0,0,0-.028-.652.909.909,0,0,0-.294-.489.4.4,0,0,0-.357-.067.847.847,0,0,0-.429.306l-.132-.046-.7-.247.2-1.29.228-1.507.177-.047.843-.226h0l1.319-.353-.157,1.044-1.321.354-.11.7-.069.439a1.411,1.411,0,0,1,.194-.069l.007,0C67.683,26.6,68.383,29.351,67.112,30.567Z"/>
    <path d="M13.872,43.783c.395-.106.574-.957.644-1.387l.083-.541a.355.355,0,0,0-.293-.043C13.389,42.058,13.333,43.927,13.872,43.783Z"/>
    <path d="M8.873,45.5a.61.61,0,0,0,.511-.632,1.568,1.568,0,0,0-.457.053C8.33,45.077,8.445,45.611,8.873,45.5Z"/>
    <path d="M8.783,43.229c-.134.346-.258.749-.367,1.141a1.307,1.307,0,0,1,.706-.169C9.011,43.88,8.875,43.533,8.783,43.229Z"/>
    <path d="M9.022,49.055l9.52-2.551h0c.093.173.192.343.29.513s.2.342.3.51a19.715,19.715,0,0,0,3.391,4.143h0a20.588,20.588,0,0,0,1.893,1.566c.027.019.052.041.079.06.156.114.321.217.481.326a19.6,19.6,0,0,0,8.742,3.3,20.15,20.15,0,0,0,2.52.163c.309,0,.616-.009.921-.023l.21-.01c.3-.017.6-.039.895-.069.037,0,.073-.008.109-.012q.407-.043.807-.1l.192-.028q.433-.068.862-.154l.16-.034.086-.02h0q.336-.072.669-.156l.158-.039q.418-.108.831-.236l.181-.057q.375-.119.746-.252l.1-.037c.269-.1.536-.2.8-.315l.186-.079c.264-.113.526-.23.784-.354l.008,0c.26-.125.516-.258.77-.394l.176-.1q.373-.2.738-.424l.087-.054q.331-.2.654-.42c.052-.034.105-.069.156-.1.232-.158.461-.32.686-.488l.125-.095c.2-.151.4-.3.59-.463l.124-.1c.215-.179.427-.362.634-.55.047-.041.092-.084.138-.126.188-.173.374-.349.556-.53l.078-.076c.134-.135.267-.272.4-.411l0,0c.063-.066.127-.13.188-.2l.134-.148c.189-.21.376-.423.556-.642l.006-.006c.182-.221.357-.447.53-.675l.119-.159c.168-.227.333-.457.492-.691.019-.028.036-.056.055-.084a20.108,20.108,0,0,0,1.892-3.553c.5-.272,1-.546,1.5-.828.634-.36,1.268-.723,1.87-1.134.621-.423,1.2-.91,1.834-1.313a1.4,1.4,0,0,1,.584-.288c.167,0,.28.177.46.184A.9.9,0,0,0,61.609,41a12.838,12.838,0,0,0,1.091-.911c.046.106.091.211.137.316a.178.178,0,0,0,.183.033h0a3.049,3.049,0,0,0,.535-.3,1.1,1.1,0,0,0,.446-.716,1.85,1.85,0,0,0-.09-.608,4.536,4.536,0,0,0-.2-.53c-.08-.179-.164-.353-.237-.513-.122-.27-.241-.543-.364-.813s-.251-.539-.391-.8c-.051-.094-.1-.184-.156-.268l-.021-.034a1.557,1.557,0,0,0-.2-.253,1.011,1.011,0,0,0-.246-.178l-.011-.006a1.012,1.012,0,0,0-.334-.095,1.453,1.453,0,0,0-.238,0c-.025,0-.049,0-.073,0a2.157,2.157,0,0,0-.245.038c-.055.013-.108.027-.161.042s-.151.066-.237.1l0,0a.189.189,0,0,0-.049.032.262.262,0,0,0-.055.071l-.007.014h0l.069.158.08.185c-.265.03-.565.048-.861.086a3,3,0,0,0-.834.21.574.574,0,0,0-.214.162c-.115.144-.053.285-.117.427a.206.206,0,0,1-.05.056.628.628,0,0,1-.127.088,4.579,4.579,0,0,1-1.113.333c-.285.065-.573.121-.859.179l-.349.074c-.169.037-.339.077-.506.123-.151.041-.3.088-.451.132-.325.095-.647.194-.969.3-.9.292-1.783.614-2.665.938a.971.971,0,0,0-.334.172.982.982,0,0,0-.1.1q-.15.177-.309.346-.343.369-.722.7-.361.322-.749.612t-.8.544c-.159.1-.32.193-.484.283s-.33.177-.5.259a11.3,11.3,0,0,1-1.563.622,10.97,10.97,0,0,1-1.639.379c.71.684,1.409,1.384,2.107,2.084l.7.7h0l.42.421.42.421.173.173a4.822,4.822,0,0,0,.553.554c.076.055.036.06.123.056a.68.68,0,0,0,.184-.081c.122-.052.245-.1.368-.148a18.038,18.038,0,0,0,1.758-.828l.637-.327a18.264,18.264,0,0,1-2.458,3.3q-1.12-1.123-2.243-2.248l-.054-.054c-.592-.59-1.184-1.181-1.786-1.762-.552-.532-1.064-1.111-1.631-1.626a2.85,2.85,0,0,0-.518-.468.673.673,0,0,0-.251-.046s-.473.029-.641.022a10.564,10.564,0,0,1-1.754-.217,11.181,11.181,0,0,1-2.141-.681c-.2-.088-.408-.181-.607-.282-.061-.031-.119-.066-.179-.1-.238-.126-.47-.261-.7-.4a11.155,11.155,0,0,1-4.513-5.494c-1.308-1.137-2.622-2.294-4.032-3.3-.194-.139-.395-.269-.6-.4-.219-.139-.439-.276-.659-.414-.2-.124-.393-.251-.583-.385l-.05-.036a3.127,3.127,0,0,1-.457-.369.277.277,0,0,1-.1-.339c.092-.4-.158-.579-.457-.767-.378-.239-.773-.454-1.17-.66l.291-.3c.03-.031-.109-.145-.109-.145h0a2.138,2.138,0,0,0-.87-.49c-.534-.116-.924.229-1.3.574-.477.434-.925.91-1.369,1.377-.384.4-.978.941-.827,1.557a1.745,1.745,0,0,0,.55.912c.115.074.1.042.2-.064l.2-.207c.059.11.12.218.179.328.094.172.192.343.291.512.071.121.14.243.215.362.031.048.062.1.094.146a.685.685,0,0,0,.349.306c.163.05.319-.062.466-.026.164.04.306.263.4.384.519.653.914,1.391,1.4,2.062s1.048,1.333,1.6,1.979q2.014,2.377,4.146,4.655l.035.035c.152.161.311.314.473.464l.494.458a8.073,8.073,0,0,1,.583.587,6.648,6.648,0,0,1,1.467,2.613c.145.538.215,1.082.413,1.607a6.583,6.583,0,0,0,.707,1.354,12.48,12.48,0,0,0,1.75,2.014c.874.845,1.733,1.706,2.6,2.559-.391.056-.787.1-1.187.127-.588-.57-1.152-1.167-1.753-1.723A16.055,16.055,0,0,1,33.8,51.1a7.972,7.972,0,0,1-.895-1.626,19.032,19.032,0,0,1-.485-1.841,5.188,5.188,0,0,0-.7-1.466,6.76,6.76,0,0,0-.427-.566c-.114-.137-.146-.084-.3-.011l-.361.165q-1.521.691-3.039,1.386-2.362,1.08-4.719,2.169a18.213,18.213,0,0,1-1.8-2.3c-.11-.166-.219-.333-.324-.5s-.2-.339-.3-.51a18.067,18.067,0,0,1-2.386-8.987,18.26,18.26,0,0,1,.119-2.05c.023-.2.048-.41.078-.612s.068-.414.106-.619A18.2,18.2,0,0,1,35.675,18.841c.322-.328.66-.645,1.007-.954.315-.28.637-.554.961-.822l.019-.016.02-.015.063-.048c-.5-.036-1-.062-1.5-.062A20.089,20.089,0,0,0,16.348,34.265c-.027.2-.056.407-.077.612s-.035.4-.05.6L6.494,38.087l-.924.248-.925.248-1.426.382a1.362,1.362,0,0,0-.96,1.39l.8,9.164a.891.891,0,0,0,.888.86,1.043,1.043,0,0,0,.266-.036l2.978-.8.919-.246Zm-1-3.168c-.054.073-.117.135-.176.2a2.493,2.493,0,0,1-.787.576,3.245,3.245,0,0,1-.55.2,2.265,2.265,0,0,1-.349.061A1.681,1.681,0,0,1,4.3,45.638a1.78,1.78,0,0,1,.948-2.1c.012-.006.022-.014.034-.02a.627.627,0,0,1-.048-.042,1.728,1.728,0,0,1-.348-2.09,1.646,1.646,0,0,1,.853-.675,2.342,2.342,0,0,1,.249-.085,1.4,1.4,0,0,1,.675-.023,1.582,1.582,0,0,1,1.016,1.848l-.7.188-.357.1c.071-.457-.046-1.211-.454-1.1a.433.433,0,0,0-.273.229.981.981,0,0,0,.187,1.047,1.02,1.02,0,0,0,.718.337l-.1.95a1.878,1.878,0,0,0-.34-.005,1.775,1.775,0,0,0-.318.05,1.058,1.058,0,0,0-.551.336.794.794,0,0,0,.344,1.289.989.989,0,0,0,.531-.007,2.116,2.116,0,0,0,.4-.153,1.832,1.832,0,0,0,.764-.712,1.958,1.958,0,0,0,.152-.308l-.2-.041a8.18,8.18,0,0,1,.877-2.2l1-.267a7.53,7.53,0,0,0,.694,2.273c.015.057.027.115.037.171.255-.052.457-.391.548-.819h0c.01-.083.022-.165.031-.244l.275-1.807-.556.149.128-.851.556-.149.157-1.032.989-.265s-.067.439-.157,1.033l.617-.166s-.121.8-.129.851l-.616.165c-.159,1.039-.35,2.3-.365,2.41-.043.336.1.556.37.485s.471-.352.605-.759a2.361,2.361,0,0,1,1.491-2.7,1,1,0,0,1,.707.043l.322-2.125.989-.265c-.157,1.04-.617,4.079-.635,4.193-.059.393.088.657.355.585.355-.095.571-.514.7-1.117l.362.074h0l.457.094a3.491,3.491,0,0,1-.226.709h0a2.2,2.2,0,0,1-1.42,1.311.8.8,0,0,1-.826-.189,1.209,1.209,0,0,1-.8.625,1,1,0,0,1-1.048-.27,2.131,2.131,0,0,1-1.2.872.848.848,0,0,1-.954-.3,1.71,1.71,0,0,1-.669.348.928.928,0,0,1-.185.029,1.334,1.334,0,0,1-.869.641A.976.976,0,0,1,8.021,45.887Z"/>
    <path d="M60.576,27.429a.254.254,0,0,0-.054.009c-.267.071-.61.463-.868,1.624l-.005.022-.015.067c-.036.172-.071.36-.1.566l0,.014c-.212,1.375.056,1.848.325,1.839a.252.252,0,0,0,.054-.008c.267-.072.61-.463.868-1.624l0-.022.014-.068c.037-.171.071-.36.1-.565l0-.014C61.112,27.894,60.845,27.42,60.576,27.429Z"/>
    <path d="M44.784,44.679c-.13-.133-.277-.291-.445-.453C44.507,44.388,44.654,44.546,44.784,44.679Z"/>
    <path d="M45.527,2.62c.059.111.116.223.172.335a11.78,11.78,0,0,1,.6,1.4,7.9,7.9,0,0,1,.3,1.124,7.033,7.033,0,0,1,.1.8,6.761,6.761,0,0,1,0,.831l0,.05a7.125,7.125,0,0,1-.107.853c0,.03-.014.062-.02.093a8.213,8.213,0,0,1-.219.855L46.341,9c-.117.357-.232.72-.365,1.09-.069.192-.143.387-.224.583-.092.221-.193.443-.308.668s-.242.453-.388.682c-.073.115-.15.23-.231.346a8.974,8.974,0,0,1-.881,1.059c-.1.107-.21.213-.322.32-.588.561-1.22,1.1-1.876,1.622-.438.35-.886.693-1.339,1.035-.339.256-.681.511-1.023.765l-.341.254-.681.51-.063.053c-.34.283-.679.573-1.009.871-.3.277-.6.56-.886.852q-.152.156-.3.316c-.194.212-.38.429-.554.651a7.022,7.022,0,0,0-1.325,2.5,9.5,9.5,0,0,0,.112,4.729q.136.526.316,1.063c.039.117.082.235.124.354.022.061.042.123.065.185.043.116.089.234.134.352q.1.265.213.534c.029.07.056.14.086.211.155.371.431,1.042.4.961-.013-.028-.03-.058-.045-.087-.026-.054-.052-.108-.084-.164-.021-.036-.047-.074-.07-.111s-.061-.1-.1-.152-.06-.082-.09-.123-.072-.1-.112-.149-.074-.086-.111-.129-.082-.1-.127-.147l-.032-.033c-.031-.034-.066-.067-.1-.1-.047-.047-.092-.095-.142-.142s-.1-.088-.147-.132l-.1-.087c-.02-.017-.038-.035-.059-.052-.052-.043-.108-.085-.163-.127s-.112-.09-.172-.133-.118-.081-.178-.121l0,0c-.06-.041-.119-.083-.182-.122s-.127-.075-.19-.111-.134-.08-.2-.117-.135-.066-.2-.1-.145-.072-.22-.105-.142-.058-.214-.086-.154-.062-.233-.09-.15-.047-.226-.071-.162-.051-.247-.073-.157-.035-.235-.053-.172-.038-.261-.053-.163-.023-.245-.034-.18-.024-.273-.031-.17-.009-.256-.012c-.114,0-.227-.011-.343-.009a.276.276,0,0,0-.089.017.253.253,0,0,0-.157.254.259.259,0,0,0,.036.113.25.25,0,0,0,.1.087h0a4.854,4.854,0,0,1,.516.315c.016.012.034.023.051.035a4.584,4.584,0,0,1,.427.348c.02.017.039.035.058.053a4.346,4.346,0,0,1,.361.385l.037.045.009.011a4.538,4.538,0,0,1,.307.429l.024.038.011.019a4.744,4.744,0,0,1,.275.517,5.538,5.538,0,0,1,.443,1.589c.019.148.035.3.043.446,0,0,0,.062,0,.16a5.184,5.184,0,0,0,.057.6l0,.013a10.238,10.238,0,0,0,.607,2.074l.035.05a7.775,7.775,0,0,0,.348.744,8.323,8.323,0,0,0,.434.759l.052.075a6.5,6.5,0,0,0,.435.628c.034.048.076.1.115.147.082.1.279.34.368.436l.279.3c.117.139.261.257.378.372l.228.213c.138.115.253.226.39.341a1.913,1.913,0,0,0,.271.2,3.227,3.227,0,0,0,.429.3c.1.061.176.119.275.181.159.094.339.193.5.288.081.036.158.094.239.131l.013.005c.183.095.368.178.554.259a.524.524,0,0,0,.526-.105,5.525,5.525,0,0,0,.659-.62c.059-.066.117-.132.169-.2a4.339,4.339,0,0,0,.645-4.111c-.062-.221-.135-.44-.216-.658s-.179-.455-.281-.679h0a24.039,24.039,0,0,0-1.762-3.061l-.2-.312-.029-.045c-.073-.116-.142-.227-.2-.33s-.121-.207-.192-.334c-.107-.192-.228-.419-.351-.678-.077-.162-.156-.337-.232-.523q-.069-.165-.135-.342c-.023-.063-.045-.129-.068-.2-.053-.153-.1-.309-.151-.473-.007-.023-.012-.048-.019-.072a7.679,7.679,0,0,1-.276-2.712c.015-.168.037-.339.065-.51A7.259,7.259,0,0,1,37.911,22.6c.057-.084.109-.167.17-.251a9.887,9.887,0,0,1,.792-.95,13.346,13.346,0,0,1,2.274-1.893c.22-.148.448-.295.688-.441h0a.343.343,0,0,1,.095-.038l.03,0a.284.284,0,0,1,.065,0l.03,0a.3.3,0,0,1,.06.018l.026.01a.33.33,0,0,1,.07.047l0,0a.374.374,0,0,1,.057.069c.005.008.008.016.012.024a.435.435,0,0,1,.025.059l.007.031a.36.36,0,0,1,0,.066c0,.01,0,.02,0,.03a.328.328,0,0,1-.025.1c-.05.114-.09.23-.132.345a6.4,6.4,0,0,0-.378,1.757,6,6,0,0,0,.011.988,4.828,4.828,0,0,0,.159.87c.055.213.111.417.171.614.049.163.1.319.154.474a15.392,15.392,0,0,0,.714,1.726q.141.293.3.6c.027.054.059.113.087.168.087.168.176.338.271.518s.18.339.276.517l.05.094c.127.235.266.474.412.716s.3.488.455.736.315.5.472.752c.394.631.78,1.271,1.093,1.906.126.254.239.507.337.759a5.632,5.632,0,0,1,.319,1.114c.04.247.067.495.085.743l0,.056q.024.372.014.742h0a7.333,7.333,0,0,1-.061.757l0,.018a6.633,6.633,0,0,1-.142.741c-.046.185-.1.368-.165.549s-.137.365-.219.543a5.85,5.85,0,0,1-1.08,1.587,6.266,6.266,0,0,1-1.027.866,8.883,8.883,0,0,1-3.385,1.317s-.066.016-.075.066c-.006.032.036.051.069.061a10.211,10.211,0,0,0,9.066-2.964q.333-.345.633-.722l.04-.049c.082-.1.161-.21.239-.317.039-.053.078-.1.116-.159.058-.084.114-.17.17-.256h0c.105-.161.207-.324.3-.492a10.2,10.2,0,0,0,.754-1.638c.058-.177.107-.36.151-.545.013-.058.024-.12.035-.181.02-.1.038-.2.054-.3.018-.12.034-.243.047-.37.006-.057.01-.114.014-.171.011-.132.019-.266.022-.406,0-.1,0-.207,0-.312s0-.18,0-.273a9.958,9.958,0,0,0-.658-2.95c-.569-1.547-1.005-2.8-1.321-3.846h0c-.03-.1-.057-.192-.085-.285s-.051-.178-.075-.263c-.054-.192-.1-.375-.147-.552-.067-.267-.125-.521-.171-.758-.03-.154-.055-.3-.076-.444-.007-.046-.015-.094-.021-.14-.024-.185-.041-.36-.051-.528a4.82,4.82,0,0,1,.012-.756c.005-.055.011-.111.018-.165a3.672,3.672,0,0,1,.072-.373c.019-.078.04-.156.064-.232.032-.1.07-.2.111-.3.022-.054.046-.108.071-.162a5.732,5.732,0,0,1,.626-1.008.242.242,0,0,0,.038-.075.1.1,0,0,0,.005-.024.24.24,0,0,0,.007-.052c0-.009,0-.018,0-.028a.252.252,0,0,0-.01-.046l-.01-.026a.338.338,0,0,0-.024-.041l-.015-.021a.241.241,0,0,0-.041-.037l-.014-.012a.256.256,0,0,0-.067-.031l-.017,0a.26.26,0,0,0-.056-.006.252.252,0,0,0-.1.022,5.163,5.163,0,0,0-1.212.784,6.349,6.349,0,0,0-.71.72c-.088.1-.174.208-.255.315-.112.149-.217.3-.317.455-.016.024-.031.049-.046.073-.16.251-.3.506-.434.76-.11.216-.211.431-.3.641-.106.253-.2.5-.271.731A7.284,7.284,0,0,0,47,25.3a3.68,3.68,0,0,1-1.146-3.611c.007-.029.017-.056.024-.084.04-.158.083-.315.133-.47s.11-.311.17-.465c.08-.206.165-.409.257-.611.042-.092.087-.182.13-.273.124-.259.253-.516.385-.77.178-.344.36-.684.532-1.023.086-.17.17-.339.25-.509.221-.459.42-.865.6-1.241s.35-.723.5-1.064A16.329,16.329,0,0,0,49.664,13a8.587,8.587,0,0,0,.325-2.388c0-.251-.007-.5-.026-.757-.008-.106-.023-.213-.034-.319A11.432,11.432,0,0,0,49.748,8.4c-.034-.159-.068-.318-.109-.476a8.8,8.8,0,0,0-.578-1.475,11.838,11.838,0,0,0-1.08-1.707,27.461,27.461,0,0,0-2.049-2.405.257.257,0,0,0-.084-.06.177.177,0,0,0-.031-.008.207.207,0,0,0-.059-.012.231.231,0,0,0-.074.009l-.014.005a.256.256,0,0,0-.055.027l-.019.013a.268.268,0,0,0-.045.044l-.009.01a.225.225,0,0,0-.033.068L45.5,2.45a.247.247,0,0,0,0,.061l0,.024A.259.259,0,0,0,45.527,2.62Z" fill="#e93825"/>
    <polygon points="9.872 30.205 9.225 33.683 13.421 34.463 13.697 32.982 12.26 32.715 12.56 31.1 11.473 30.897 11.173 32.512 10.588 32.404 10.959 30.407 9.872 30.205"/>
    <rect x="11.728" y="26.997" width="1.507" height="4.268" transform="translate(-19.1 31.775) rotate(-71.593)"/>
    <path d="M16.121,26.071l.74-1.459L14.92,24.8a1.4,1.4,0,0,0-.013-.426,1.29,1.29,0,0,0-.749-.869,1.217,1.217,0,0,0-1.081-.049,1.952,1.952,0,0,0-.911.973L11.117,26.5l3.806,1.932.667-1.314-1.262-.642.188-.37Zm-2.412-.565-.263.519-.7-.357.264-.519a.591.591,0,0,1,.243-.279.45.45,0,0,1,.545.277A.607.607,0,0,1,13.709,25.506Z"/>
    <polygon points="19.282 21.532 18.407 20.856 17.114 22.529 16.715 22.221 17.719 20.921 16.91 20.296 15.906 21.596 15.486 21.272 16.732 19.66 15.857 18.984 13.69 21.788 17.068 24.397 19.282 21.532"/>
    <polygon points="21.048 17.812 22.315 18.851 23.56 17.85 21.833 13.762 20.613 14.743 22.156 17.435 19.741 15.444 18.734 16.254 20.198 19.035 17.877 16.943 16.612 17.96 20.229 20.529 21.519 19.491 20.771 18.035 20.217 17.077 20.233 17.065 21.048 17.812"/>
    <path d="M26.487,15.411l.527.65L28.4,15.4l-1.079-1.129L25.3,12.15l-1.632.784.6,4.446,1.1-.528.254-.122-.037-.175-.136-.645.959-.461Zm-1.238-.446-.147-.7-.163-.726.018-.008.471.577.452.558Z"/>
    <polygon points="30.979 10.3 30.558 10.417 26.953 11.416 27.249 12.482 28.538 12.124 28.67 12.6 29.384 15.171 30.835 14.769 29.991 11.721 31.274 11.365 30.979 10.3"/>
    <path d="M40.95,11.574a1.218,1.218,0,0,0-.344-1.026,1.947,1.947,0,0,0-1.236-.5l-2.3-.234-.432,4.246,1.467.149.143-1.409.414.042.608,1.485,1.627.165-.877-1.742a1.37,1.37,0,0,0,.392-.166A1.286,1.286,0,0,0,40.95,11.574Zm-1.66.251a.6.6,0,0,1-.366.05l-.579-.058.08-.785L39,11.09a.6.6,0,0,1,.348.127.451.451,0,0,1-.062.608Z"/>
    <path d="M18.591,57.68l2.048-3.994L19.363,52.4l-4,2.026,1.057,1.064.719-.432.812.817-.442.712Zm-.011-3.489.632-.391.014.013-.391.635-.379.61-.492-.5Z"/>
    <path d="M21.474,58.2l.628.42a2.438,2.438,0,0,0,.909.4,1.293,1.293,0,0,0,.789-.087,1.732,1.732,0,0,0,.914-1.364,1.3,1.3,0,0,0-.221-.763,2.435,2.435,0,0,0-.714-.689L21.9,54.86l-2.375,3.546,1.253.839Zm1.083-1.618.424.284a.632.632,0,0,1,.263.3.46.46,0,0,1-.371.553.628.628,0,0,1-.381-.127l-.425-.284Z"/>
    <path d="M25.986,60.712l.7.288a2.422,2.422,0,0,0,.97.209,1.3,1.3,0,0,0,.756-.241,1.733,1.733,0,0,0,.625-1.52,1.309,1.309,0,0,0-.368-.7,2.468,2.468,0,0,0-.837-.533l-2.094-.86L24.116,61.3l1.394.573Zm.74-1.8.473.194a.633.633,0,0,1,.318.246.461.461,0,0,1-.253.616.625.625,0,0,1-.4-.049l-.473-.194Z"/>
    <path d="M30.391,62.612l1.129.229.027.837,1.509.306-.514-4.459-1.774-.36-2.206,3.907,1.471.3Zm.719-1.524.309-.676.019,0,.027.744.023.718-.685-.14Z"/>
    <path d="M36.94,64.06l1.636-.026L37.5,62.406a1.408,1.408,0,0,0,.369-.21,1.291,1.291,0,0,0,.42-1.068,1.221,1.221,0,0,0-.463-.979,1.949,1.949,0,0,0-1.286-.351l-2.315.038L34.3,64.1l1.475-.024-.023-1.416.415-.006Zm-1.209-2.386-.013-.789.582-.009a.589.589,0,0,1,.36.084.359.359,0,0,1,.125.3.355.355,0,0,1-.115.309.6.6,0,0,1-.358.093Z"/>
    <polygon points="42.317 59.065 38.835 59.721 39.625 63.916 43.184 63.245 42.979 62.158 40.901 62.55 40.808 62.054 42.422 61.75 42.233 60.746 40.619 61.05 40.521 60.529 42.522 60.152 42.317 59.065"/>
    <polygon points="47.558 61.674 47.165 60.64 45.358 61.326 44.236 58.369 42.827 58.903 44.341 62.894 47.558 61.674"/>
    <path d="M50.522,56.15a.636.636,0,0,1,.393-.136.813.813,0,0,1,.49.315l.747-1.17a1.408,1.408,0,0,0-.739-.381,1.676,1.676,0,0,0-.8.069,2.825,2.825,0,0,0-.788.412,2.444,2.444,0,0,0-.785.893,1.78,1.78,0,0,0-.163,1.049,2.829,2.829,0,0,0,1.4,1.921,1.767,1.767,0,0,0,1.048.163,2.445,2.445,0,0,0,1.09-.475,2.865,2.865,0,0,0,.642-.634,1.593,1.593,0,0,0,.294-.755,1.738,1.738,0,0,0-.152-.882l-1.278.509a.713.713,0,0,1,.11.469.541.541,0,0,1-.226.337.687.687,0,0,1-.4.153.631.631,0,0,1-.388-.153,2.222,2.222,0,0,1-.41-.446,2.058,2.058,0,0,1-.3-.532.676.676,0,0,1-.023-.415A.6.6,0,0,1,50.522,56.15Z"/>
    <path d="M55.374,55.944a2.742,2.742,0,0,0,1.568-1.717,1.763,1.763,0,0,0-.053-1.055,2.864,2.864,0,0,0-1.757-1.6,1.761,1.761,0,0,0-1.056.043,2.742,2.742,0,0,0-1.567,1.717,1.777,1.777,0,0,0,.048,1.06,2.834,2.834,0,0,0,1.757,1.605A1.775,1.775,0,0,0,55.374,55.944Zm-1.48-2.157a.674.674,0,0,1-.116-.386.625.625,0,0,1,.484-.53.65.65,0,0,1,.392.083,2.329,2.329,0,0,1,.493.362,2.3,2.3,0,0,1,.4.455.659.659,0,0,1,.12.386.625.625,0,0,1-.484.53.677.677,0,0,1-.4-.082,2.75,2.75,0,0,1-.9-.818Z"/>
    <path d="M57.774,52.409a.64.64,0,0,0,.541.112,1.041,1.041,0,0,0,.657-.973.732.732,0,0,0-.846-.572,1.041,1.041,0,0,0-.658.972A.641.641,0,0,0,57.774,52.409Z"/>
    <path d="M57.433,49.037l.286-.5-.585.018a.533.533,0,0,0,.007-.143.412.412,0,0,0-.219-.3.428.428,0,0,0-.234-.061.485.485,0,0,0-.226.065.474.474,0,0,0-.171.176l-.36.624,1.176.678.233-.405-.385-.222h0Zm-.693-.309-.053.091-.176-.1.053-.091a.222.222,0,0,1,.068-.076.1.1,0,0,1,.14.081A.213.213,0,0,1,56.74,48.728Z"/>
    <path d="M57.938,49.42a1.372,1.372,0,0,0,.2-.661,1.181,1.181,0,0,0-.157-.626,1.416,1.416,0,0,0-1.167-.674,1.187,1.187,0,0,0-.618.178,1.48,1.48,0,0,0-.671,1.16,1.189,1.189,0,0,0,.154.627,1.427,1.427,0,0,0,1.168.674,1.182,1.182,0,0,0,.621-.179A1.379,1.379,0,0,0,57.938,49.42Zm-1.1.3a.958.958,0,0,1-.477-.14A.973.973,0,0,1,56,49.242a.835.835,0,0,1-.114-.443,1.089,1.089,0,0,1,.488-.845.821.821,0,0,1,.441-.123.964.964,0,0,1,.478.142.949.949,0,0,1,.359.342.811.811,0,0,1,.116.444,1.089,1.089,0,0,1-.488.845A.814.814,0,0,1,56.839,49.725Z"/>
    <path d="M49.026,19.619c.348-.31.568-1.3,1.848-1.7a4.15,4.15,0,0,0,2.41-3.432.127.127,0,0,0-.227-.081,3.772,3.772,0,0,1-2.018,1.678c-1.456.494-2.233,2.6-2.245,3.415A.144.144,0,0,0,49.026,19.619Z" fill="#e93825"/>
    <path d="M55.741,17.347a5.523,5.523,0,0,0-3.092,5.278.191.191,0,0,0,.2.188.188.188,0,0,0,.162-.09,8.7,8.7,0,0,1,3.728-3.514,4.025,4.025,0,0,0,1.9-1.786,4.839,4.839,0,0,0,.393-.967,5.493,5.493,0,0,0,.2-1.169,3.387,3.387,0,0,0-.107-1.231.169.169,0,0,0-.153-.124.145.145,0,0,0-.035,0c-.16.034-.135.31-.283.743a2.954,2.954,0,0,1-.479.867,4.529,4.529,0,0,1-.649.667A8.941,8.941,0,0,1,55.741,17.347Z" fill="#e93825"/>
    <polygon points="35.636 9.814 32.104 10.108 32.458 14.361 36.067 14.061 35.975 12.959 33.868 13.134 33.826 12.631 35.463 12.495 35.378 11.477 33.741 11.613 33.697 11.085 35.727 10.916 35.636 9.814"/>
  </g>
</svg>
