<?xml version="1.0" encoding="UTF-8"?>
<svg id="Layer_1" data-name="Layer 1" xmlns="http://www.w3.org/2000/svg" width="3in" height=".469in" viewBox="0 0 216 33.784">
  <path d="M71.53,18.907c-1.219,0-1.875-.555-2.118-1.36,4.54-.404,7.701-3.425,7.701-5.971,0-1.628-1.073-3.047-3.156-3.047-4.627,0-7.834,3.999-8.363,7.677-.904,1.495-1.901,2.417-3.031,2.417-.999,0-1.302-.902-.837-2.032,.159-.387,2-4.582,3.519-8.056h2.302c.079-.182,1.243-2.84,1.243-2.84h-2.304c.867-1.982,1.51-3.451,1.51-3.451h-3.691l-1.51,3.451h-2.075l-1.243,2.84h2.075l-2.643,6.04c-.258,.642-.564,1.324-.804,2.069-.829,1.235-1.736,1.979-2.752,1.979-.999,0-1.266-1.056-.692-2.368,.168-.383,1.855-4.249,3.375-7.723h-3.691l-.355,.812c-.528-.459-1.339-.809-2.425-.809-3.649,0-6.209,2.856-7.248,5.96-.293-.115-.591-.277-.869-.512,.32-1.054,.461-1.842,.461-3.06,0-1.589-1.068-2.391-2.11-2.391-2.443,0-3.576,4.253-1.949,6.217-1.151,2.16-3.108,4.158-4.383,4.158-1.217,0-.964-1.15-.355-2.574,.164-.384,1.881-4.324,3.401-7.798h-3.691l-3.002,6.877-.047-.024c-1.025,1.98-3.558,3.519-5.972,3.519-1.219,0-1.875-.555-2.118-1.36,4.54-.404,7.701-3.425,7.701-5.971,0-1.628-1.073-3.047-3.156-3.047-4.338,0-7.428,3.515-8.234,6.985-1.006,1.9-2.124,3.109-3.419,3.109-.999,0-1.302-.902-.837-2.032,.159-.387,2-4.584,3.52-8.058h-.001c1.417-3.239,2.751-6.288,2.751-6.288h-3.691l-5.395,12.331c-.204,.51-.439,1.046-.648,1.618-1.229,1.431-3.016,2.383-5.293,2.383-4.449,0-4.129-5.937,.381-5.937,.782,0,1.746,.215,2.335,.457l1.232-3.214c-3.72-1.26-2.971-6.209-.697-6.209,1.525,0,1.227,2.734,.554,4.261h3.959c1.463-3.446,.28-7.933-4.187-7.933C3.902,0,3.263,6.731,5.401,9.414,1.991,9.98,0,12.848,0,15.895c0,3.425,2.356,6.343,6.541,6.343,2.185,0,4.025-.501,5.597-1.565,.522,.954,1.511,1.563,2.854,1.563,2.113,0,3.968-.907,5.446-2.317,.782,1.38,2.292,2.317,4.688,2.317,2.353,0,4.442-.584,6.157-1.772,.522,1.089,1.618,1.772,3.288,1.772,3.738,0,6.321-2.582,7.807-5.505,.436,.296,.91,.503,1.424,.643-.044,2.647,1.198,4.861,4.034,4.861,1.581,0,2.687-.64,3.385-1.431,.465,.889,1.421,1.423,2.703,1.431,1.615-.009,3.045-.543,4.271-1.42,.54,.875,1.506,1.422,2.784,1.422,2.031,0,3.824-.84,5.273-2.157,.807,1.293,2.297,2.157,4.601,2.157,4.126,0,7.446-1.79,9.345-5.498l-2.696-1.35c-1.025,1.98-3.558,3.519-5.972,3.519Zm1.806-7.381c.304,0,.574,.245,.562,.613-.028,.794-1.393,2.238-4.141,2.565,.705-1.66,2.127-3.178,3.579-3.178Zm-45.728,0c.304,0,.574,.245,.562,.613-.028,.794-1.393,2.238-4.141,2.565,.705-1.66,2.127-3.178,3.579-3.178Zm24.286,2.61c-.648,1.434-2.064,4.23-3.539,4.23-2.01,0-.072-6.46,3.352-6.46,.423,0,.755,.167,.979,.423l-.791,1.807Z" fill="#fff"/>
  <path d="M136.961,19.147c-2.025-.051,.509-4.832,4.141-7.97l-1.294-2.643h-4.642c.394-.901,.627-1.433,.627-1.433h-3.419s-.407,.883-1.017,2.324c-.905,2.136-1.696,3.779-2.812,5.963h.002c-1.022,1.975-2.167,3.234-3.491,3.234-.999,0-1.267-1.056-.692-2.368,.124-.284,3.349-7.665,3.375-7.723h-3.691s-2.04,4.677-2.908,6.665c-.928,1.943-2.171,3.667-3.584,3.667-.666,0-1.093-.454-.439-1.984,.165-.386,3.646-8.345,3.646-8.345h-3.69s-1.65,3.787-2.766,6.349c-.235,.029-.58,.038-.96,.011,.54-3.371-.595-6.631-3.84-6.631-1.747,0-2.916,.793-3.524,1.9-2.145,1.391-3.404,3.655-3.765,5.848-1.401,2.274-2.939,3.617-4.885,4.736,.741-1.687,1.506-3.429,2.19-4.995L106.25,.453h-4l-5.071,11.535h-.001c-2.089,4.716-3.377,6.433-4.997,6.433-1.266,0-1.368-1.223-.698-2.689l3.885-8.863c.993-2.258,1.068-3.98,.23-5.263-.474-.725-1.442-1.588-3.367-1.588-1.352,0-2.811,.728-4.003,1.997-1.507,1.604-2.87,5.026-2.446,8.509l3.446-1.238c-.203-2.49,1.133-4.205,1.67-4.763,.896-.932,1.793-.602,1.118,.872l-3.535,8.057-.35,.807c-1.575,3.32-1.676,7.998,3.144,7.998,.625,0,1.209-.075,1.758-.206-.121,.317-.199,.52-.208,.54-1.31,.581-2.609,1.155-3.579,1.705-3.382,1.917-4.769,4.449-4.374,6.688,.312,1.768,1.812,2.802,3.436,2.802,3.451,0,4.54-2.825,5.495-5.008,.069-.158,.812-1.842,1.823-4.137,1.451-.684,4.65-2.174,7.126-4.521,.675,1.27,1.885,2.119,3.637,2.119,2.829,0,4.921-1.979,6.074-4.446,.204,.017,.414,.018,.625,.019-.685,2.312,.384,4.427,3.248,4.427,2.077,0,3.305-.748,4.46-1.661,.042,.079,.085,.155,.131,.23,.464,.889,1.421,1.423,2.702,1.431,3.45-.019,6.068-2.411,7.619-5.498h-.003c1.176-2.131,1.73-3.507,2.643-5.328h2.672c-4.726,4.886-4.909,10.827-.28,10.827,2.706,0,5.787-2.166,7.596-5.498l-2.696-1.35c-1.366,2.536-3.166,3.731-4.217,3.76Zm-47.148,10.294c-.411,.907-.74,1.219-1.374,1.219-.493,0-.785-.417-.785-.817,0-.969,.738-1.666,2.6-2.922,.278-.187,.582-.363,.906-.533-.697,1.59-1.19,2.706-1.346,3.053Zm16.85-10.197c-1.555,0-1.8-2.609-.673-4.529,.204,.837,1.303,2.175,3.281,2.647-.627,1.09-1.513,1.882-2.608,1.882Zm3.651-5.347c0,.123-.026,.31-.069,.533-2.511-.55-2.323-3.367-1.139-3.367,.963,0,1.332,1.284,1.208,2.834Z" fill="#fff"/>
  <path d="M187.215,7.612c1.102,0,2.153-.894,2.348-1.995,.194-1.102-.542-1.995-1.644-1.995s-2.153,.894-2.347,1.995c-.194,1.101,.541,1.995,1.643,1.995Z" fill="#fff"/>
  <path d="M213.304,15.388c-1.025,1.98-3.558,3.519-5.972,3.519-1.219,0-1.875-.555-2.118-1.36,4.54-.404,7.701-3.425,7.701-5.971,0-1.628-1.073-3.047-3.156-3.047-4.33,0-7.417,3.502-8.23,6.966-1.358,2.459-3.119,3.625-4.154,3.653-2.025-.051,.509-4.832,4.14-7.97l-1.293-2.643h-4.642c.394-.901,.627-1.433,.627-1.433h-3.419s-.407,.883-1.017,2.324c-.905,2.136-1.696,3.779-2.812,5.963l.017,.008c-1.022,1.97-2.161,3.225-3.483,3.225-.999,0-1.302-.902-.837-2.032,.159-.387,2-4.583,3.52-8.057h-3.691l-2.643,6.041c-.252,.627-.551,1.291-.788,2.016-.839,1.265-1.758,2.032-2.787,2.032-.999,0-1.302-.902-.837-2.032,.159-.387,2-4.582,3.519-8.056h2.302c.079-.182,1.243-2.84,1.243-2.84h-2.304c.867-1.982,1.51-3.451,1.51-3.451h-3.691l-1.51,3.451h-3.538c.867-1.982,1.51-3.451,1.51-3.451h-3.691l-1.51,3.451h-2.075l-1.243,2.84h2.075l-2.643,6.04c-.25,.623-.547,1.283-.784,2.002-.919,1.275-1.998,2.046-2.879,2.046-.637,0-.943-.441-.658-1.091,.072-.164,5.758-13.161,5.758-13.161h.959l-.705-3.939c-3.835,0-7.097,1.353-11.07,6.678-1.298,1.739-2.726,3.85-3.579,5.133h-1.876c-.288,.616-1.392,2.871-1.645,3.386h1.261l-4.272,6.591h4.491l4.089-6.591h3.731c-.412,.937-.882,2.008-1.061,2.424-.908,2.103,.36,4.183,2.814,4.183,1.753,0,3.332-.565,4.674-1.494,.531,.915,1.509,1.494,2.82,1.494,1.649,0,3.141-.556,4.421-1.468,.535,.901,1.508,1.468,2.807,1.468,1.649,0,3.141-.555,4.42-1.468,.535,.901,1.508,1.468,2.807,1.468,3.45,0,6.218-2.412,7.768-5.498l-.018-.009c1.173-2.125,1.727-3.501,2.639-5.319h2.672c-4.726,4.886-4.909,10.827-.28,10.827,1.733,0,3.619-.892,5.227-2.407,.767,1.428,2.29,2.407,4.737,2.407,4.126,0,7.446-1.79,9.345-5.498l-2.696-1.35Zm-4.167-3.862c.304,0,.574,.245,.562,.613-.028,.794-1.393,2.238-4.141,2.565,.705-1.66,2.127-3.178,3.579-3.178Zm-47.438,.717h-2.973c2.644-3.843,4.489-5.925,6.006-6.948l-3.033,6.948Zm9.338,6.379c-.999,0-1.302-.902-.837-2.032,.159-.387,2-4.582,3.519-8.056h3.537l-2.643,6.04c-.251,.626-.55,1.29-.788,2.014-.839,1.267-1.759,2.034-2.788,2.034Z" fill="#fff"/>
</svg>