<?xml version="1.0" encoding="UTF-8"?>
<svg id="Layer_1" data-name="Layer 1" xmlns="http://www.w3.org/2000/svg" width="3.125in" height="1.528in" viewBox="0 0 225 110">
  <g>
    <g>
      <path d="M100.698,22.619h6.532l8.731,25.128h.134l8.665-25.128h6.599v47.458h-6.798v-28.863h-.134l-6.732,20.397h-3.399l-6.665-20.397h-.133v28.863h-6.8V22.619Z" fill="#6f7d81"/>
      <path d="M140.187,33.816c0-7.731,5.866-11.598,11.399-11.598s11.397,3.866,11.397,11.598v25.063c0,7.733-5.865,11.6-11.397,11.6s-11.399-3.867-11.399-11.6v-25.063Zm6.8,25.063c0,3.267,2.133,4.801,4.599,4.801s4.598-1.534,4.598-4.801v-25.063c0-3.264-2.132-4.799-4.598-4.799s-4.599,1.535-4.599,4.799v25.063Z" fill="#6f7d81"/>
      <path d="M171.811,22.619h10.932c8.064,0,11.998,4.732,11.998,13.93,0,5.466-1.534,9.465-5.867,11.866l7.333,21.662h-7.2l-6.332-20.263h-4.065v20.263h-6.799V22.619Zm6.799,21.196h3.866c4.733,0,5.466-2.668,5.466-7.4,0-4.799-.801-7.399-5.799-7.399h-3.532v14.799Z" fill="#6f7d81"/>
      <path d="M203.034,22.619h20.263v6.398h-13.464v13.931h11.731v6.399h-11.731v13.931h13.464v6.8h-20.263V22.619Z" fill="#6f7d81"/>
    </g>
    <g>
      <path d="M85.259,46.73c0,14.667-11.887,26.559-26.555,26.559s-26.558-11.892-26.558-26.559,11.889-26.558,26.558-26.558,26.555,11.891,26.555,26.558Zm-30.89-4.333c-2.392,2.392-2.392,6.275,0,8.667,2.395,2.395,6.275,2.395,8.668,0,2.396-2.393,2.396-6.274,0-8.667-2.391-2.394-6.273-2.395-8.668,0Z" fill="#11b7cf" isolation="isolate"/>
      <path d="M1.405,22.619H7.936l10.265,28.595h.133V22.619h6.8v47.458h-6.4l-10.397-28.528h-.134v28.528H1.405V22.619Z" fill="#6f7d81"/>
    </g>
  </g>
  <g>
    <path d="M1.344,82.744H0v-1.093H3.85v1.093h-1.344v7.016H1.344v-7.016Z" fill="#6f7d81"/>
    <path d="M4.294,83.564c0-.623,.196-1.109,.587-1.458s.845-.524,1.361-.524c.524,0,.979,.173,1.367,.518,.387,.346,.581,.833,.581,1.464v4.282c0,.623-.196,1.109-.586,1.458-.391,.349-.845,.524-1.361,.524-.524,0-.979-.172-1.367-.518-.387-.345-.581-.833-.581-1.464v-4.282Zm1.162,4.282c0,.266,.074,.469,.222,.609,.148,.141,.336,.211,.564,.211s.416-.07,.564-.211c.148-.14,.222-.343,.222-.609v-4.282c0-.266-.074-.469-.222-.609-.148-.141-.336-.211-.564-.211s-.416,.07-.564,.211c-.148,.14-.222,.343-.222,.609v4.282Z" fill="#6f7d81"/>
    <path d="M9.146,83.564c0-.623,.196-1.109,.587-1.458s.845-.524,1.361-.524c.524,0,.979,.173,1.367,.518,.387,.346,.581,.833,.581,1.464v.41h-1.162v-.41c0-.266-.074-.469-.222-.609-.148-.141-.336-.211-.564-.211s-.416,.07-.564,.211c-.148,.14-.222,.343-.222,.609v4.282c0,.266,.074,.469,.222,.609,.148,.141,.336,.211,.564,.211s.416-.07,.564-.211c.148-.14,.222-.343,.222-.609v-1.526h-.923v-1.025h2.084v2.551c0,.623-.196,1.109-.586,1.458-.391,.349-.845,.524-1.361,.524-.524,0-.979-.172-1.367-.518-.387-.345-.581-.833-.581-1.464v-4.282Z" fill="#6f7d81"/>
    <path d="M14.066,81.651h3.463v1.093h-2.301v2.392h2.005v1.093h-2.005v2.369h2.301v1.162h-3.463v-8.109Z" fill="#6f7d81"/>
    <path d="M19.043,82.744h-1.344v-1.093h3.85v1.093h-1.344v7.016h-1.162v-7.016Z" fill="#6f7d81"/>
    <path d="M22.061,81.651h1.162v3.485h1.435v-3.485h1.162v8.109h-1.162v-3.599h-1.435v3.599h-1.162v-8.109Z" fill="#6f7d81"/>
    <path d="M26.913,81.651h3.463v1.093h-2.301v2.392h2.005v1.093h-2.005v2.369h2.301v1.162h-3.463v-8.109Z" fill="#6f7d81"/>
    <path d="M31.128,81.651h1.868c1.367,0,2.05,.793,2.05,2.38,0,.494-.076,.904-.228,1.23-.152,.327-.41,.592-.774,.798l1.253,3.701h-1.227l-1.087-3.462h-.693v3.462h-1.162v-8.109Zm1.162,3.622h.661c.372,0,.621-.101,.746-.302,.125-.201,.188-.522,.188-.962,0-.448-.065-.771-.194-.968-.129-.197-.395-.296-.797-.296h-.604v2.529Z" fill="#6f7d81"/>
    <path d="M42.916,89.76l-1.102,.002-.886-5.263-.895,5.261h-1.093l-1.207-8.109,1.231-.003,.571,5.149,.929-5.148,.901,.002,.946,5.274,.578-5.274h1.232l-1.207,8.11Z" fill="#6f7d81"/>
    <path d="M44.852,81.651h3.463v1.093h-2.301v2.392h2.005v1.093h-2.005v2.369h2.301v1.162h-3.463v-8.109Z" fill="#6f7d81"/>
    <path d="M54.875,87.949c0,.501-.181,.94-.541,1.315-.361,.376-.795,.564-1.304,.564-.524,0-.974-.15-1.35-.45-.376-.3-.564-.788-.564-1.464v-4.465c0-.531,.175-.975,.524-1.333,.349-.357,.805-.535,1.367-.535,.531,0,.976,.182,1.333,.547,.357,.365,.535,.828,.535,1.39v.456h-1.162v-.387c0-.235-.067-.434-.199-.598-.133-.163-.306-.245-.518-.245-.266,0-.452,.082-.558,.245-.106,.164-.159,.397-.159,.701v4.146c0,.258,.053,.461,.159,.609,.106,.148,.288,.222,.547,.222,.19,0,.359-.065,.507-.194,.148-.129,.222-.338,.222-.627v-.398h1.162v.501Z" fill="#6f7d81"/>
    <path d="M57.107,81.651h.968l1.811,8.109h-1.167l-.342-1.741h-1.572l-.342,1.743h-1.167l1.811-8.111Zm.49,2.353l-.594,2.92h1.164l-.571-2.92Z" fill="#6f7d81"/>
    <path d="M60.41,81.651l1.12-.002,1.757,4.885,.016-4.884h1.162v8.109h-1.093l-1.777-4.875-.023,4.875h-1.162v-8.109Z" fill="#6f7d81"/>
    <path d="M67.631,81.651h3.463v1.093h-2.301v2.392h2.005v1.093h-2.005v2.369h2.301v1.162h-3.463v-8.109Z" fill="#6f7d81"/>
    <path d="M71.799,81.651l1.12-.002,1.757,4.885,.016-4.884h1.162v8.109h-1.093l-1.777-4.875-.023,4.875h-1.162v-8.109Z" fill="#6f7d81"/>
    <path d="M76.902,81.651h1.72c.653,0,1.156,.184,1.509,.552,.353,.368,.53,.882,.53,1.543v3.793c0,.736-.184,1.291-.552,1.663-.368,.372-.898,.558-1.589,.558h-1.617v-8.109Zm1.162,7.016h.535c.326,0,.558-.08,.695-.239,.137-.159,.205-.418,.205-.774v-3.907c0-.334-.068-.585-.205-.752-.137-.167-.368-.25-.695-.25h-.535v5.923Z" fill="#6f7d81"/>
    <path d="M83.872,81.651h1.72c.653,0,1.156,.184,1.509,.552,.353,.368,.53,.882,.53,1.543v3.793c0,.736-.184,1.291-.552,1.663-.368,.372-.898,.558-1.589,.558h-1.617v-8.109Zm1.162,7.016h.535c.326,0,.558-.08,.695-.239,.137-.159,.205-.418,.205-.774v-3.907c0-.334-.068-.585-.205-.752-.137-.167-.368-.25-.695-.25h-.535v5.923Z" fill="#6f7d81"/>
    <path d="M88.656,83.564c0-.623,.196-1.109,.587-1.458s.845-.524,1.361-.524c.524,0,.979,.173,1.367,.518,.387,.346,.581,.833,.581,1.464v4.282c0,.623-.196,1.109-.586,1.458-.391,.349-.845,.524-1.361,.524-.524,0-.979-.172-1.367-.518-.387-.345-.581-.833-.581-1.464v-4.282Zm1.162,4.282c0,.266,.074,.469,.222,.609,.148,.141,.336,.211,.564,.211s.416-.07,.564-.211c.148-.14,.222-.343,.222-.609v-4.282c0-.266-.074-.469-.222-.609-.148-.141-.336-.211-.564-.211s-.416,.07-.564,.211c-.148,.14-.222,.343-.222,.609v4.282Z" fill="#6f7d81"/>
    <path d="M93.576,81.651h1.116l1.493,4.294,1.503-4.294h1.128v8.109h-1.162l-.004-4.933-1.172,3.486-.579,.002-1.139-3.486-.022,4.932h-1.162v-8.109Z" fill="#6f7d81"/>
    <path d="M99.909,81.651h3.463v1.093h-2.301v2.392h2.005v1.093h-2.005v2.369h2.301v1.162h-3.463v-8.109Z" fill="#6f7d81"/>
    <path d="M107.882,83.986h-1.162v-.262c0-.296-.065-.534-.194-.712s-.338-.268-.626-.268-.492,.097-.609,.29c-.118,.194-.177,.446-.177,.758,0,.334,.038,.569,.114,.706,.076,.137,.258,.262,.547,.376l.888,.353c.486,.182,.81,.441,.974,.774,.163,.334,.245,.816,.245,1.447,0,.736-.156,1.317-.467,1.743-.312,.425-.824,.638-1.538,.638-.562,0-1.033-.182-1.412-.547-.38-.365-.57-.824-.57-1.378v-.433h1.162v.365c0,.235,.066,.433,.199,.592,.133,.159,.34,.239,.621,.239,.364,0,.596-.093,.695-.279,.099-.186,.148-.495,.148-.928s-.038-.716-.114-.849c-.076-.133-.262-.26-.558-.381l-.831-.342c-.478-.197-.809-.459-.991-.786-.182-.326-.273-.759-.273-1.298,0-.653,.171-1.186,.512-1.6s.835-.621,1.481-.621c.554,0,1.016,.188,1.384,.564,.368,.376,.552,.799,.552,1.27v.57Z" fill="#6f7d81"/>
    <path d="M109.51,82.744h-1.344v-1.093h3.85v1.093h-1.344v7.016h-1.162v-7.016Z" fill="#6f7d81"/>
    <path d="M112.562,81.651h1.162v8.109h-1.162v-8.109Z" fill="#6f7d81"/>
    <path d="M118.542,87.949c0,.501-.181,.94-.541,1.315-.361,.376-.796,.564-1.305,.564-.524,0-.973-.15-1.349-.45-.376-.3-.564-.788-.564-1.464v-4.465c0-.531,.174-.975,.524-1.333,.349-.357,.804-.535,1.367-.535,.531,0,.975,.182,1.332,.547,.357,.365,.536,.828,.536,1.39v.456h-1.162v-.387c0-.235-.067-.434-.2-.598-.133-.163-.306-.245-.518-.245-.266,0-.452,.082-.559,.245-.106,.164-.159,.397-.159,.701v4.146c0,.258,.053,.461,.159,.609,.107,.148,.289,.222,.547,.222,.19,0,.359-.065,.507-.194,.148-.129,.222-.338,.222-.627v-.398h1.162v.501Z" fill="#6f7d81"/>
    <path d="M123.884,89.76h-1.025l-1.652-8.109h1.232l.924,5.661,.952-5.662h1.232l-1.663,8.11Z" fill="#6f7d81"/>
    <path d="M126.276,81.651h1.162v8.109h-1.162v-8.109Z" fill="#6f7d81"/>
    <path d="M128.496,83.564c0-.623,.196-1.109,.587-1.458s.845-.524,1.361-.524c.524,0,.98,.173,1.367,.518,.387,.346,.581,.833,.581,1.464v4.282c0,.623-.196,1.109-.587,1.458s-.845,.524-1.361,.524c-.524,0-.98-.172-1.367-.518-.387-.345-.581-.833-.581-1.464v-4.282Zm1.162,4.282c0,.266,.074,.469,.222,.609,.148,.141,.336,.211,.564,.211s.416-.07,.564-.211c.148-.14,.222-.343,.222-.609v-4.282c0-.266-.074-.469-.222-.609-.148-.141-.336-.211-.564-.211s-.416,.07-.564,.211c-.148,.14-.222,.343-.222,.609v4.282Z" fill="#6f7d81"/>
    <path d="M133.417,81.651h1.162v6.948h2.301v1.162h-3.463v-8.109Z" fill="#6f7d81"/>
    <path d="M137.631,81.651h3.463v1.093h-2.301v2.392h2.005v1.093h-2.005v2.369h2.301v1.162h-3.463v-8.109Z" fill="#6f7d81"/>
    <path d="M141.799,81.651l1.121-.002,1.756,4.885,.016-4.884h1.162v8.109h-1.093l-1.777-4.875-.023,4.875h-1.162v-8.109Z" fill="#6f7d81"/>
    <path d="M150.592,87.949c0,.501-.181,.94-.541,1.315-.361,.376-.796,.564-1.304,.564-.524,0-.974-.15-1.35-.45-.376-.3-.564-.788-.564-1.464v-4.465c0-.531,.175-.975,.524-1.333,.349-.357,.805-.535,1.367-.535,.531,0,.975,.182,1.332,.547s.536,.828,.536,1.39v.456h-1.162v-.387c0-.235-.066-.434-.199-.598-.133-.163-.306-.245-.518-.245-.266,0-.452,.082-.558,.245-.106,.164-.159,.397-.159,.701v4.146c0,.258,.053,.461,.159,.609,.106,.148,.289,.222,.547,.222,.19,0,.359-.065,.507-.194,.148-.129,.222-.338,.222-.627v-.398h1.162v.501Z" fill="#6f7d81"/>
    <path d="M151.537,81.651h3.463v1.093h-2.301v2.392h2.005v1.093h-2.005v2.369h2.301v1.162h-3.463v-8.109Z" fill="#6f7d81"/>
    <path d="M161.048,89.145c-.235,.235-.475,.408-.718,.518-.243,.11-.52,.165-.831,.165-.471,0-.868-.172-1.191-.518-.323-.345-.484-.799-.484-1.361,0-.41,.097-.784,.29-1.122,.194-.338,.469-.667,.826-.985-.221-.311-.393-.621-.518-.928-.125-.308-.188-.621-.188-.94,0-.448,.138-.822,.416-1.122,.277-.3,.666-.45,1.167-.45,.478,0,.854,.141,1.128,.421,.273,.281,.41,.63,.41,1.048,0,.35-.11,.699-.33,1.048s-.505,.68-.854,.991c.03,.053,.176,.292,.438,.718s.473,.752,.632,.98l.626-.854,.729,.501-.866,1.116,.866,1.39h-1.162l-.387-.615Zm-1.333-.228c.167,0,.326-.047,.478-.143,.152-.095,.281-.211,.387-.347l-1.116-1.777c-.198,.197-.35,.395-.456,.592-.106,.197-.159,.414-.159,.649,0,.281,.081,.522,.245,.723,.163,.201,.37,.302,.621,.302Zm-.012-3.747c.205-.197,.372-.395,.501-.592,.129-.197,.194-.425,.194-.683,0-.152-.051-.286-.154-.404-.102-.118-.237-.177-.404-.177s-.306,.067-.416,.199c-.11,.133-.165,.294-.165,.484,0,.167,.04,.348,.119,.541,.08,.194,.188,.404,.325,.632Z" fill="#6f7d81"/>
    <path d="M168.816,83.986h-1.162v-.262c0-.296-.065-.534-.194-.712-.129-.178-.338-.268-.627-.268s-.492,.097-.609,.29c-.118,.194-.177,.446-.177,.758,0,.334,.038,.569,.114,.706,.076,.137,.258,.262,.547,.376l.889,.353c.486,.182,.81,.441,.973,.774,.163,.334,.245,.816,.245,1.447,0,.736-.156,1.317-.467,1.743s-.824,.638-1.537,.638c-.562,0-1.033-.182-1.412-.547-.38-.365-.57-.824-.57-1.378v-.433h1.162v.365c0,.235,.066,.433,.199,.592s.34,.239,.621,.239c.365,0,.596-.093,.695-.279,.099-.186,.148-.495,.148-.928s-.038-.716-.114-.849c-.076-.133-.262-.26-.558-.381l-.832-.342c-.478-.197-.809-.459-.991-.786-.182-.326-.274-.759-.274-1.298,0-.653,.171-1.186,.513-1.6,.342-.414,.835-.621,1.481-.621,.554,0,1.015,.188,1.384,.564,.368,.376,.552,.799,.552,1.27v.57Z" fill="#6f7d81"/>
    <path d="M169.681,81.651h3.463v1.093h-2.301v2.392h2.005v1.093h-2.005v2.369h2.301v1.162h-3.463v-8.109Z" fill="#6f7d81"/>
    <path d="M174.969,85.521l-1.518-3.87,1.235-.002,.877,2.392,.883-2.39h1.232l-1.549,3.867,1.672,4.242-1.225-.002-1.015-2.731-1.003,2.734h-1.232l1.643-4.24Z" fill="#6f7d81"/>
    <path d="M182.084,87.938c0,.532-.182,.98-.547,1.344-.365,.365-.809,.547-1.333,.547s-.968-.182-1.333-.547-.547-.813-.547-1.344v-6.287h1.162v6.173c0,.273,.065,.482,.194,.627,.129,.144,.303,.216,.524,.216,.478,0,.718-.281,.718-.843v-6.173h1.162v6.287Z" fill="#6f7d81"/>
    <path d="M184.464,81.651h.968l1.811,8.109h-1.167l-.343-1.741h-1.572l-.342,1.743h-1.167l1.811-8.111Zm.49,2.353l-.594,2.92h1.164l-.571-2.92Z" fill="#6f7d81"/>
    <path d="M187.813,81.651h1.162v6.948h2.301v1.162h-3.463v-8.109Z" fill="#6f7d81"/>
    <path d="M195.432,81.651h.968l1.811,8.109h-1.167l-.343-1.741h-1.572l-.342,1.743h-1.167l1.811-8.111Zm.49,2.353l-.594,2.92h1.164l-.571-2.92Z" fill="#6f7d81"/>
    <path d="M202.54,83.986h-1.162v-.262c0-.296-.065-.534-.194-.712-.129-.178-.338-.268-.627-.268s-.492,.097-.609,.29c-.118,.194-.177,.446-.177,.758,0,.334,.038,.569,.114,.706,.076,.137,.258,.262,.547,.376l.889,.353c.486,.182,.81,.441,.973,.774,.163,.334,.245,.816,.245,1.447,0,.736-.156,1.317-.467,1.743s-.824,.638-1.537,.638c-.562,0-1.033-.182-1.412-.547-.38-.365-.57-.824-.57-1.378v-.433h1.162v.365c0,.235,.066,.433,.199,.592s.34,.239,.621,.239c.365,0,.596-.093,.695-.279,.099-.186,.148-.495,.148-.928s-.038-.716-.114-.849c-.076-.133-.262-.26-.558-.381l-.832-.342c-.478-.197-.809-.459-.991-.786-.182-.326-.274-.759-.274-1.298,0-.653,.171-1.186,.513-1.6,.342-.414,.835-.621,1.481-.621,.554,0,1.015,.188,1.384,.564,.368,.376,.552,.799,.552,1.27v.57Z" fill="#6f7d81"/>
    <path d="M207.164,83.986h-1.162v-.262c0-.296-.065-.534-.194-.712-.129-.178-.338-.268-.627-.268s-.492,.097-.609,.29c-.118,.194-.177,.446-.177,.758,0,.334,.038,.569,.114,.706,.076,.137,.258,.262,.547,.376l.889,.353c.486,.182,.81,.441,.973,.774,.163,.334,.245,.816,.245,1.447,0,.736-.156,1.317-.467,1.743s-.824,.638-1.537,.638c-.562,0-1.033-.182-1.412-.547-.38-.365-.57-.824-.57-1.378v-.433h1.162v.365c0,.235,.066,.433,.199,.592s.34,.239,.621,.239c.365,0,.596-.093,.695-.279,.099-.186,.148-.495,.148-.928s-.038-.716-.114-.849c-.076-.133-.262-.26-.558-.381l-.832-.342c-.478-.197-.809-.459-.991-.786-.182-.326-.274-.759-.274-1.298,0-.653,.171-1.186,.513-1.6,.342-.414,.835-.621,1.481-.621,.554,0,1.015,.188,1.384,.564,.368,.376,.552,.799,.552,1.27v.57Z" fill="#6f7d81"/>
    <path d="M209.316,81.651h.968l1.811,8.109h-1.167l-.343-1.741h-1.572l-.342,1.743h-1.167l1.811-8.111Zm.49,2.353l-.594,2.92h1.164l-.571-2.92Z" fill="#6f7d81"/>
    <path d="M216.424,87.938c0,.532-.182,.98-.547,1.344-.365,.365-.809,.547-1.333,.547s-.968-.182-1.333-.547-.547-.813-.547-1.344v-6.287h1.162v6.173c0,.273,.065,.482,.194,.627,.129,.144,.303,.216,.524,.216,.478,0,.718-.281,.718-.843v-6.173h1.162v6.287Z" fill="#6f7d81"/>
    <path d="M217.517,81.651h1.162v6.948h2.301v1.162h-3.463v-8.109Z" fill="#6f7d81"/>
    <path d="M222.494,82.744h-1.344v-1.093h3.85v1.093h-1.344v7.016h-1.162v-7.016Z" fill="#6f7d81"/>
  </g>
</svg>