<?xml version="1.0" encoding="utf-8"?>
<!-- Generator: Adobe Illustrator 27.2.0, SVG Export Plug-In . SVG Version: 6.00 Build 0)  -->
<svg version="1.1" id="Layer_1" xmlns="http://www.w3.org/2000/svg" xmlns:xlink="http://www.w3.org/1999/xlink" x="0px" y="0px"
	 viewBox="0 0 483.7 201.1" style="enable-background:new 0 0 483.7 201.1;" xml:space="preserve">
<style type="text/css">
	.st0{fill:#5D9380;}
	.st1{fill:#CA813C;}
	.st2{fill:#BB8A74;}
	.st3{fill:#E93725;}
</style>
<path d="M248.9,107.1L248.9,107.1l0-0.1c-0.1,0.1-0.2,0.2-0.3,0.4c-0.1,0.1-0.1,0.2-0.2,0.3l0.1,0l0.3-0.3c0.1,0.1,0,0.2-0.1,0.3
	s-0.2,0.2-0.3,0.3c-0.1,0.2-0.2,0.2-0.3,0.3l0.1,0c-0.2,0.1-0.4,0.2-0.4,0.1c-0.1,0,0,0,0,0.1l0.1,0c0,0,0,0.1,0.1,0.1l0.1,0.1
	l0.2,0c0.1-0.1,0.3-0.3,0.5-0.6c0.1-0.2,0.2-0.4,0.3-0.5l0,0.1l0.8-0.9c0.1-0.2,0.3-0.4,0.5-0.6l0.2,0.1c-0.4,0.6-0.9,1.2-1.3,1.8
	s-1,1.1-1.4,1.6l0.6,1.4c0.6,0.7,1.1,1.4,1.8,2.3c0.6,0.9,1.1,1.7,1.6,2.3c0.3-0.1,0.4,0,0.2,0.2c0.2,0.2,0.4,0.4,0.6,0.8
	c0.2,0.3,0.4,0.6,0.5,0.8c0.2,0.4,0.5,0.7,0.9,1c0.4,0.3,0.7,0.7,1,1.1l-0.1,0l0.4,0.4c0,0,0,0.1,0.1,0.1s0,0.1,0,0.1l0.4,1.1
	l0.2,1.5l0.1,0l3.5,3.3l0.3,0l-0.1,0.3l0.1,0.1l0,0.1l0.1,0l-0.6,1.2c-0.1,0-0.1,0-0.2,0l0.1,0.2l0-0.1c0.1,0.2,0.3,0.4,0.5,0.7
	c0.2,0.2,0.4,0.4,0.8,0.4c-0.1,0.1-0.1,0.2-0.1,0.3c0,0.1,0,0.2,0.1,0.2c-0.1,0.4-0.2,0.6-0.3,0.6c-0.1,0-0.2,0.1-0.3,0.1l-0.5,0.6
	c-0.4,0.9-0.8,1.4-1.4,1.5c-0.5,0.1-1.1,0-1.6-0.5l-1-0.2l-0.3-0.1c-0.2-0.1-0.4-0.1-0.5-0.2l-1.3-1c-1.4-1.2-2.7-2.3-3.9-3.4
	c-1.2-1.1-2.3-2.2-3.4-3.5l0.1,0c-0.9-0.8-1.6-1.4-2-2c-0.5-0.6-1-1.1-1.5-1.7l-1.5-1.5c-0.1,0-0.1,0-0.1,0.1c0,0,0,0.1-0.1,0.1
	l0.1,0c-0.1,0.2-0.3,0.4-0.6,0.4l0,0.3c-0.1,0.2-0.3,0.3-0.6,0.3l0.1,0.5c-0.1,0.2-0.3,0.4-0.6,0.4c0,0-0.1,0-0.1,0.1l0.1,0.3
	l-0.3-0.3c-0.1,0.1-0.2,0.2-0.3,0.3c-0.1,0.2-0.2,0.3-0.3,0.3l0.1,0l-0.6,0.7l0.3-0.1c-0.1,0.2-0.1,0.4-0.2,0.6s-0.2,0.4-0.3,0.5
	l0,0.2l-0.3,0.1c-0.1,0.1-0.1,0.2-0.1,0.3c0,0.1,0,0.1-0.1,0.3c-0.1,0-0.2,0-0.2,0.1c-0.1,0-0.1,0.1-0.2,0.1c0,0-0.1,0-0.1,0.1
	l0,0.1c-0.3,0.2-0.5,0.4-0.5,0.4c-0.1,0-0.1,0.1-0.1,0.1c-0.1,0.1-0.2,0.2-0.3,0.4c-0.2,0.2-0.3,0.3-0.4,0.4l-0.6,0.5
	c0.1-0.1,0.2-0.1,0.4-0.1l-0.3,0.7c-0.1,0.3-0.3,0.5-0.4,0.7c-0.2,0.4-0.3,0.7-0.4,0.8s-0.2,0.3-0.2,0.5l0.4-0.5
	c-0.1,0.6-0.2,0.9-0.3,1c-0.1,0.1-0.2,0.1-0.3,0.1l-0.1,0.4c-0.3,0.1-0.6,0.4-0.9,0.7c-0.3,0.3-0.5,0.6-0.6,1
	c-0.1,0.2-0.2,0.2-0.2,0.2l-0.1,0c-0.1,0.2-0.2,0.2-0.4,0.3c-0.1,0-0.1,0-0.1,0c0,0,0,0-0.1,0.1l-0.6,0.6c-0.1,0.1-0.2,0.2-0.3,0.2
	s-0.2,0.3-0.3,1l-0.6,0.3l0-0.1l-0.3,0.3l-0.3,0c0.2-0.7,0.6-1.3,1-1.9c0.4-0.6,0.8-1.1,1.2-1.5l0-0.1c-0.1,0.1-0.2,0.2-0.4,0.3
	s-0.2,0.1-0.3,0.2l0-0.1l-0.6,0.8c0,0.1-0.1,0.2-0.3,0.3c-0.1,0.1-0.3,0.2-0.3,0.3c0,0,0,0.1-0.1,0.4h-0.4c0-0.1,0-0.2-0.2-0.2
	c-0.1,0.2-0.2,0.4-0.4,0.7c-0.1,0.3-0.3,0.5-0.4,0.7c-0.2,0.4-0.4,0.8-0.6,1.1c-0.2,0.3-0.5,0.6-1,0.9l-0.2-0.2
	c0.2-0.1,0.3-0.3,0.1-0.4l0.5-0.6c0.4-0.3,0.5-0.7,0.5-1l-1,1.5l-1.5,2c-0.5,0-0.8,0.1-1,0.2c-0.1,0.1-0.2,0.3-0.3,0.4l-0.3,0.3
	l-0.9,1l0-0.1l-0.4,0.4c-0.3,0.1-0.5,0.2-0.7,0.2c-0.2,0.1-0.3,0.1-0.4,0.1c-0.3,0.1-0.6,0-0.8-0.2c-0.1,0-0.2-0.1-0.3-0.1
	c-0.1,0-0.2,0-0.5,0c0-0.1-0.1-0.2-0.1-0.2l-0.3-0.9c0,0,0-0.1,0.1-0.2c0.1-0.1,0.1-0.2,0.1-0.2l0.1-0.7c0.1,0,0.2-0.1,0.2-0.2
	c0-0.1,0-0.2,0-0.3c-0.2,0.3-0.3,0.4-0.3,0.3s0.1-0.3,0.3-0.6s0.4-0.6,0.6-0.9l0.5-0.7c0.1-0.3,0.2-0.6,0.3-0.8
	c0.1-0.2,0.2-0.4,0.3-0.6c0.7-1.1,1.4-2.3,2-3.4c0.6-1.2,1.2-2.3,1.9-3.5c1.1-1.6,2.2-3.3,3.2-4.9c1-1.6,2.1-3.4,3.3-5.3
	c0.2-0.2,0.3-0.4,0.5-0.6c0.2-0.2,0.3-0.3,0.3-0.5c0.4-0.5,0.8-1,1.1-1.5c0.3-0.5,0.6-1.1,0.9-1.6c0.1-0.2,0.3-0.5,0.6-0.9
	c0.2-0.4,0.4-0.7,0.6-0.9l-4.2-6.6l-1.8-3.1c-0.1-0.2-0.2-0.3-0.2-0.4s-0.1-0.2-0.3-0.3c-0.2-0.7-0.5-1.3-0.9-1.8s-0.8-1.1-1.1-1.7
	c-0.3-0.5-0.6-1-1-1.4s-0.7-1-1-1.6c-0.2-0.3-0.4-0.7-0.6-1.1c-0.2-0.4-0.4-0.7-0.6-1l-1.2-2.3l-0.8-2.2l0.1-0.7
	c0.1,0,0.2,0,0.2-0.1c0.1,0,0.1-0.1,0.2-0.1l0.1,0l-0.1-0.5c0-0.1,0-0.2,0.1-0.3c0,0,0-0.1,0.1-0.4c0-0.1,0-0.3,0-0.5
	c0.1-0.2,0.2-0.3,0.3-0.3c0.5,0,1-0.1,1.5-0.2l1.4-0.3c0.7-0.1,1.4-0.3,2.2-0.4c0.8-0.1,1.5-0.2,2.2-0.1l0.6,0.4l0-0.1
	c0.4,0.1,0.8,0.1,1.2,0.1c0.4-0.1,0.7,0.1,0.9,0.4c0,0.1,0,0.2,0,0.2s0.2,0,0.4,0c-0.2,0.2-0.3,0.3-0.2,0.3c0.1,0,0.2,0.1,0.3,0.2
	c0.1,0,0.1,0,0.1,0s0,0.1,0,0.3l0,0.3c0,0.4,0.1,0.6,0.5,0.7c0.3,0.1,0.6,0.3,0.7,0.6c0,0.2,0.1,0.4,0.1,0.5
	c0.1,0.1,0.1,0.3,0.1,0.5c0,0,0,0.1,0.1,0.1c0,0,0,0.1,0.1,0.1c0,0,0,0,0.1,0.1c0.3,0.1,0.4,0.2,0.5,0.2c0.1,0.3,0.2,0.6,0.3,1
	s0.4,0.7,0.6,1.1c0.2,0.6,0.4,1.1,0.7,1.5l3.4,6l2.2,4.2c0.8-0.9,1.5-1.7,2.1-2.5c0.6-0.8,1.2-1.5,1.8-2.2c0.6-0.7,1.2-1.5,1.9-2.3
	c0.7-0.8,1.4-1.6,2.4-2.6c1.4-1.6,2.8-3.3,4.2-4.9c1.4-1.6,2.8-3.3,4.2-4.9l-0.1,0c0.3-0.9,0.9-1.6,1.9-2.1c0,0,0.1,0,0.2-0.1
	c0.1-0.1,0.1-0.1,0.2-0.1c0.3-0.1,0.6-0.2,0.9-0.3c0.1-0.1,0.2-0.2,0.4-0.2c0.2,0,0.4,0,0.7-0.1l1.7,1.9l-0.1,0l0.6,0.8
	c0.1,0.2,0.3,0.4,0.7,0.5c0.1,0.2,0.2,0.4,0.3,0.6c0.1,0.3,0.3,0.4,0.6,0.6c-0.1,0.1-0.1,0.2,0,0.4c0.1,0.1,0.2,0.2,0.3,0.3l0.3,0.6
	c0,0.1,0,0.2,0,0.2c0,0.1,0.1,0.1,0.1,0.2c0,0,0,0.1,0,0.2c0,0.1,0,0.2,0.1,0.3l0,0.9c0,0.2,0,0.4,0.1,0.5s0,0.3,0,0.5l-0.1,0.2
	l-0.1,0.2c-0.1,0.6-0.4,1.1-0.8,1.6c-0.4,0.5-0.9,0.9-1.4,1.2c-0.2,0.3-0.5,0.5-0.9,0.9c-0.4,0.3-0.6,0.5-0.7,0.6
	c-0.1,0-0.2,0.1-0.3,0.3c-0.2,0.2-0.4,0.3-0.4,0.4c-0.1,0.1-0.2,0.2-0.4,0.3l0.1,0l-3.4,3.2c-0.6,0.6-1.1,1.1-1.4,1.4
	c-0.4,0.4-0.7,0.7-1,1c-0.3,0.3-0.5,0.6-0.8,0.9c-0.2,0.3-0.6,0.7-1.1,1.3l-1.4,1.6c-0.4,0.5-0.9,1-1.4,1.6c-0.5,0.5-1.1,1-1.8,1.5
	l-0.5,0.6l-0.4,0.3l0-0.1L248.9,107.1L248.9,107.1z M227.5,132.9l0.1-0.3l0.2-0.3l-0.4,0.3L227.5,132.9L227.5,132.9z M233.7,128.6
	L233.7,128.6L233.7,128.6L233.7,128.6L233.7,128.6z M234.1,126.6l0.3-0.1c0.1,0,0-0.1-0.5-0.1L234.1,126.6L234.1,126.6z M234.5,126
	L234.5,126c0.1,0,0.1,0,0.1-0.1s0,0,0.1,0C234.6,126,234.5,126,234.5,126z M234.8,125.9L234.8,125.9L234.8,125.9
	C234.7,125.9,234.8,125.9,234.8,125.9z M248.2,107.9c0.1,0.1,0.2,0.1,0.2,0c0-0.1,0-0.1,0-0.2L248.2,107.9z M255.3,122.1
	c0,0,0-0.1,0.1-0.1s0.1-0.1,0.2-0.3c-0.2-0.3-0.3-0.6-0.5-0.9c-0.2-0.3-0.4-0.5-0.6-0.7C254.8,120.5,255.1,121.1,255.3,122.1z
	 M255.5,122.2C255.6,122.2,255.6,122.1,255.5,122.2L255.5,122.2L255.5,122.2z"/>
<g>
	<g>
		<g>
			<g>
				<g>
					<path class="st0" d="M313.1,50.4c-1.9,2.5-2.8,4.3,0.7,6.4l13.9,8.2c1.6,0.9,1.4,3.1-0.6,3.6c-2.5,0.6-7.5,1.8-11.4,2.7l10.1,6
						c1.6,0.9,1.4,3.1-0.6,3.6c-4,1.1-18.2,4.3-20,4.7c0.4,2.2,2.6,3.4,4.5,2.2c3-1.9,5.8,0.7,5.3,4c-0.8,5.4-12.8,4.1-11-7.8l1.1-7
						c0.1-0.4,0.6-0.4,0.9-0.1c0.9,1.2,1.9,1.3,3.5,0.9c0.2,0,7.1-1.6,11-2.5l-6.4-3.8l-3.7,0.9c-1.6,0.4-2.6,0.5-4,2.3
						c-0.4,0.5-0.9,0.2-0.8-0.2l1.5-9.9c0-0.2,0.1-0.2,0.2-0.3c0.1,0,0.3,0,0.4,0.1c0.1,0,0.2,0.1,0.3,0.2c0.9,1.2,1.9,1.3,3.6,0.9
						c0.2,0,7.1-1.6,11-2.5l-8.8-5.1c-4.2-2.4-7.6-5-7.1-8.4C307.2,44.7,314.9,47.9,313.1,50.4z"/>
				</g>
			</g>
			<path class="st1" d="M331.4,43.3c3.8,2.1,5.2,7.1,2.9,11.3c-2.3,4.2-7.2,5.9-11,3.8c-3.8-2.1-5.2-7.1-2.9-11.3
				C322.6,42.9,327.6,41.3,331.4,43.3z M328.5,48.7c-3.3-1.8-6.5-2.2-7.1-1c-0.7,1.2,1.5,3.6,4.7,5.4c3.2,1.7,6.5,2.2,7.1,1
				C333.9,52.9,331.8,50.4,328.5,48.7z"/>
			<g>
				<g>
					<path class="st0" d="M358.9,26.5l-6.5,5.5c-0.7,0.6-1.1,0-1-0.5c0.5-3.7-7.1-10.3-9.1-8.4c-0.8,0.7-0.2,2.8,1,5
						c0.5,0.3,0.9,0.8,1.4,1.2l1.9,2.1c1.1,1.2,1.9,1.7,3.8,1.5c0.5,0,0.8,0.5,0.5,0.8l-6.2,5.8c-0.7,0.6-1.1,0.1-1-0.5
						c0.3-3.7-7.1-10.4-9.1-8.5c-0.6,0.6,0.1,2.5,1,4.3c3,3.6,5.6,5.7,7.1,5.4c0.6-0.1,1.1,0.4,0.5,1l-5.6,6.2
						c-0.3,0.3-0.8,0.1-0.8-0.5c0.2-1.9-0.8-3.4-1.8-4.5l-2.5-2.6c-1.1-1.2-1.9-1.7-3.8-1.5c-0.5,0-0.8-0.4-0.5-0.7
						c3-2.8,2.3-6,3.3-7.4c0.5-0.7,0.7,0.1,1,0.5l0.8,1.1c-0.3-1.6-0.3-3,0.7-4c2-1.8,4.8-2,7.4-0.9c-0.9-2-1.5-4.7,0.3-6.4
						c2.9-2.7,7.5-1.9,10.7,1.6l1.9,2.1c1.1,1.2,2.4,1.7,4.2,1.6C359,25.7,359.2,26.3,358.9,26.5z"/>
				</g>
			</g>
			<path class="st2" d="M370.9,17.4c-0.3,2.9-2.2,5.7-5.2,7c-4.4,1.9-9.3,0.2-11.1-3.8c-1.8-4,0.2-8.8,4.9-10.9
				c3.1-1.4,7.3-0.7,8.4,1.9c1.1,2.5-0.5,5.7-3.5,7.1c-1,0.5-2,0.6-3,0.6c1,1.1,2.3,1.8,4.1,1.6c1.6-0.3,3.8-1.8,4.2-3.8
				C370,16.5,371,16.9,370.9,17.4z M359.6,15.5c0.9,2.1,2.5,2.9,3.4,2.5c1.1-0.5,1.1-2.4,0.2-4.3c-0.9-2-2.3-3.2-3.4-2.8
				C359.3,11.2,358.5,13,359.6,15.5z"/>
			<path class="st1" d="M392.6,18.8l-8.5,0.5c-0.9,0.1-0.9-0.6-0.5-1c2.6-2.7,0-12.7-3-12.3c-0.9,0.1-1.6,1.5-2.1,3.2
				c0.2,5.5,1.1,8.7,2.5,9.5c0.5,0.3,0.6,1-0.3,1.1l-8.3,1.3c-0.4,0.1-0.7-0.5-0.3-0.9c1.3-1.3,1.5-2.4,1.3-4l-0.4-3.6
				c-0.2-1.6-0.6-2.5-2.2-3.5c-0.5-0.3-0.4-0.8,0.1-0.9c4.1-0.5,5.5-3.5,7-4c0.9-0.3,0.5,0.5,0.5,1l0,0.9c0.7-1.2,1.7-2.2,3.1-2.4
				c4.6-0.5,8,2.9,8.5,7.5l0.3,2.8c0.2,1.6,0.7,2.6,2.2,3.7C393.1,18.2,393,18.8,392.6,18.8z"/>
			<g>
				<g>
					<path class="st0" d="M402.4,19.7c-0.4-0.1-0.4-0.7,0.1-0.9c1.8-0.7,2.3-0.9,2.7-2.5l1-3.5c0.4-1.5,0.5-2.5-0.7-4
						c-0.3-0.4,0-0.9,0.4-0.8c3.1,0.9,5.3-0.3,6.9-0.7c1.7-0.7,2.6-2.5,2.3-3.9c-0.1-0.6-0.4-1.1-0.9-1.4c0.2,0.6,0.1,1.4-0.3,2.1
						c-0.8,1.5-2.9,2.4-4.6,1.9c-1.6-0.5-2.3-2.1-1.5-3.7c0.7-1.2,2-2,3.3-2.1c3.3-0.3,4.8,1.4,5,2.9c0.3,1.5-0.5,3.4-2,4.6L414,8.3
						c-3.2,7-4.1,11.3-2.9,12.9c0.4,0.5,0.2,1.2-0.7,0.9L402.4,19.7z"/>
				</g>
			</g>
			<path class="st2" d="M429.5,32.7l-7.3-4.4c-0.8-0.5-0.4-1,0.2-1.1c3.6-0.7,7.8-10.3,5.3-11.8c-0.7-0.4-2.1,0.2-3.6,1.3
				c-3.2,4.4-4.4,7.7-3.8,9.2c0.2,0.5-0.1,1.2-0.9,0.7l-7.2-4.3c-0.4-0.2-0.2-0.8,0.3-0.9c1.9-0.2,2.6-0.9,3.4-2.2l1.8-3.1
				c0.8-1.4,1.1-2.3,0.4-4.1c-0.2-0.5,0.2-0.9,0.6-0.6c3.5,2.1,6.4,0.6,8,1.1c0.9,0.3,0.1,0.7-0.2,1.1l-0.6,0.7
				c1.3-0.5,2.7-0.7,3.9,0c4,2.4,4.6,7.1,2.2,11.2l-1.4,2.4c-0.8,1.4-1.1,2.3-0.3,4C430.3,32.6,429.9,32.9,429.5,32.7z"/>
			<g>
				<g>
					<path class="st0" d="M452.4,51.3c-0.2,0.2-3.1,1.6-4.1,2.2c-0.7,0.4-1.2,0.4-1.7-0.2L437,40.6c-0.3-0.3,0.1-0.8,0.6-0.6
						c1.8,0.5,2.7,0.2,4-0.8l12.8-9.7c-1.8-2.4-5.2-1.8-5.8,0.8c-0.7,3.5-4.5,3.7-6.5,1c-3.3-4.4,6-12.1,13.2-2.5l4.4,5.8
						c0.6,0.8,0,1.1-0.5,1c-2-0.5-6.5,2.7-8.9,4.5c-2.3,1.7-6.5,5.1-6.8,7.1l0.8,1.1c1.6,2.1,5.8,2.2,7.7,2.2
						C452.6,50.5,452.8,51,452.4,51.3z"/>
				</g>
			</g>
			<path class="st1" d="M452.6,71.6l-1.5-4.1c-0.8-2.2,0.9-3.7,0.9-3.7c-1.5-0.5-2.8-1.7-3.3-3.3c-1-2.7,0.4-5.7,3-6.6
				c2.6-0.9,5.6,0.5,6.5,3.3c0.6,1.6,0.3,3.3-0.5,4.6l1.2-0.4c2.3-0.8,4.7-2.7,4.2-4.1c-0.2-0.6-1.2-0.3-2.1,0.6
				c-1.7,1.5-4.6-4.2-2.3-5.1c1.7-0.6,4.3,0.8,5.6,4.5c1.5,4.3-0.3,8.7-4.7,10.2l-3.3,1.2c-1.5,0.5-2.3,1.1-2.9,2.9
				C453.4,72,452.8,72.1,452.6,71.6z M454.8,62.6c1.4-0.5,2.3-1.8,1.9-2.9c-0.4-1.1-1.9-1.6-3.3-1.1c-1.4,0.5-2.3,1.8-1.9,2.9
				C451.9,62.6,453.4,63.1,454.8,62.6z"/>
			<path class="st2" d="M470.4,95.4c-1-1.4-2.2-1.8-3.9-2.1l-10-2c-0.9-0.2-1.6-0.5-1.7-1.5l-0.3-2.8c-0.1-1.3,0.3-1.8,1.5-2.3
				l5.6-2.3l0.9-0.3l-6.9-1.4c-0.9-0.2-1.6-0.5-1.7-1.4l-0.3-2.8c-0.1-1.3,0.3-1.9,1.5-2.3c1.1-0.4,4.3-1.7,7.7-3.2
				c9.7-4.4,12.4-6.8,12.3-8.4c-0.2-1.7-4-0.3-5.1-3.5c-1.8-5.2,3.5-6.2,5.3-2.7c3.8,7.3-0.7,15.9-13,21c-2.2,0.9-4.9,2.4-5.1,2.5
				c0,0,5.3,0.8,8.8,0.6c1.6-0.9,2.3-1.7,2.6-2.5c0.3-0.5,1-0.9,1.1,0l0.9,9.2c0,0.4-0.4,0.8-0.9,0.5c-2.9-2.2-11.2,2.6-11.5,2.8
				c0,0,10,1.5,11.8-0.3c0.4-0.3,0.9-0.3,0.9,0.3l0.5,4.9C471.3,95.9,470.8,95.9,470.4,95.4z"/>
		</g>
	</g>
	<path class="st2" d="M352.8,98.7c-8.5-0.5-9.8-1.8-10.3-10.3c0-0.2-0.3-0.2-0.3,0c-0.5,8.5-1.8,9.8-10.3,10.3c-0.2,0-0.2,0.3,0,0.3
		c8.5,0.5,9.8,1.8,10.3,10.3c0,0.2,0.3,0.2,0.3,0c0.5-8.5,1.8-9.8,10.3-10.3C353,99,353,98.7,352.8,98.7z"/>
	<path class="st0" d="M332.3,145.8c-7.2-0.4-8.3-1.5-8.8-8.8c0-0.2-0.3-0.2-0.3,0c-0.4,7.2-1.5,8.3-8.8,8.8c-0.2,0-0.2,0.3,0,0.3
		c7.2,0.4,8.3,1.5,8.8,8.8c0,0.2,0.3,0.2,0.3,0c0.4-7.2,1.5-8.3,8.8-8.8C332.5,146.1,332.5,145.8,332.3,145.8z"/>
	<path class="st1" d="M325.2,112.1c-4.7-0.3-5.5-1-5.8-5.8c0-0.1-0.2-0.1-0.2,0c-0.3,4.7-1,5.5-5.8,5.8c-0.1,0-0.1,0.2,0,0.2
		c4.7,0.3,5.5,1,5.8,5.8c0,0.1,0.2,0.1,0.2,0c0.3-4.7,1-5.5,5.8-5.8C325.3,112.3,325.3,112.1,325.2,112.1z"/>
	<path class="st1" d="M351.3,130.9c-4.7-0.3-5.5-1-5.8-5.8c0-0.1-0.2-0.1-0.2,0c-0.3,4.7-1,5.5-5.8,5.8c-0.1,0-0.1,0.2,0,0.2
		c4.7,0.3,5.5,1,5.8,5.8c0,0.1,0.2,0.1,0.2,0c0.3-4.7,1-5.5,5.8-5.8C351.4,131.1,351.4,130.9,351.3,130.9z"/>
	<path class="st0" d="M474.6,141.5c-8.7-0.5-10-1.8-10.5-10.5c0-0.2-0.3-0.2-0.3,0c-0.5,8.7-1.8,10-10.5,10.5c-0.2,0-0.2,0.3,0,0.3
		c8.7,0.5,10,1.8,10.5,10.5c0,0.2,0.3,0.2,0.3,0c0.5-8.7,1.8-10,10.5-10.5C474.8,141.8,474.8,141.5,474.6,141.5z"/>
	<path class="st0" d="M452.7,106.8c-8.7-0.5-10-1.8-10.5-10.5c0-0.2-0.3-0.2-0.3,0c-0.5,8.7-1.8,10-10.5,10.5c-0.2,0-0.2,0.3,0,0.3
		c8.7,0.5,10,1.8,10.5,10.5c0,0.2,0.3,0.2,0.3,0c0.5-8.7,1.8-10,10.5-10.5C452.9,107.1,452.9,106.8,452.7,106.8z"/>
	<path class="st2" d="M430.8,90c-3.8-0.2-4.4-0.8-4.6-4.6c0-0.1-0.1-0.1-0.1,0c-0.2,3.8-0.8,4.4-4.6,4.6c-0.1,0-0.1,0.1,0,0.1
		c3.8,0.2,4.4,0.8,4.6,4.6c0,0.1,0.1,0.1,0.1,0c0.2-3.8,0.8-4.4,4.6-4.6C430.9,90.1,430.9,90,430.8,90z"/>
	<path class="st2" d="M436.7,130.2c-6.3-0.4-7.2-1.3-7.5-7.5c0-0.2-0.2-0.2-0.2,0c-0.4,6.3-1.3,7.2-7.5,7.5c-0.2,0-0.2,0.2,0,0.2
		c6.3,0.4,7.2,1.3,7.5,7.5c0,0.2,0.2,0.2,0.2,0c0.4-6.3,1.3-7.2,7.5-7.5C436.8,130.4,436.8,130.2,436.7,130.2z"/>
	<path class="st1" d="M470,114.3c-3.5-0.2-4.1-0.7-4.3-4.3c0-0.1-0.1-0.1-0.1,0c-0.2,3.5-0.7,4.1-4.3,4.3c-0.1,0-0.1,0.1,0,0.1
		c3.5,0.2,4.1,0.7,4.3,4.3c0,0.1,0.1,0.1,0.1,0c0.2-3.5,0.7-4.1,4.3-4.3C470,114.4,470,114.3,470,114.3z"/>
	<path class="st1" d="M445.3,150.8c-3.5-0.2-4.1-0.7-4.3-4.3c0-0.1-0.1-0.1-0.1,0c-0.2,3.5-0.7,4.1-4.3,4.3c-0.1,0-0.1,0.1,0,0.1
		c3.5,0.2,4.1,0.7,4.3,4.3c0,0.1,0.1,0.1,0.1,0c0.2-3.5,0.7-4.1,4.3-4.3C445.4,150.9,445.4,150.8,445.3,150.8z"/>
	<path class="st0" d="M367.7,110.6c-3.5-0.2-4.1-0.7-4.3-4.3c0-0.1-0.1-0.1-0.1,0c-0.2,3.5-0.7,4.1-4.3,4.3c-0.1,0-0.1,0.1,0,0.1
		c3.5,0.2,4.1,0.7,4.3,4.3c0,0.1,0.1,0.1,0.1,0c0.2-3.5,0.7-4.1,4.3-4.3C367.8,110.8,367.8,110.6,367.7,110.6z"/>
	<path class="st2" d="M365.1,147.8c-3.5-0.2-4.1-0.7-4.3-4.3c0-0.1-0.1-0.1-0.1,0c-0.2,3.5-0.7,4.1-4.3,4.3c-0.1,0-0.1,0.1,0,0.1
		c3.5,0.2,4.1,0.7,4.3,4.3c0,0.1,0.1,0.1,0.1,0c0.2-3.5,0.7-4.1,4.3-4.3C365.2,147.9,365.2,147.8,365.1,147.8z"/>
	<g>
		<g>
			<path class="st1" d="M372.5,41.1L372.5,41.1L372.5,41.1L372.5,41.1C372.5,41.1,372.5,41.1,372.5,41.1
				C372.5,41.1,372.5,41,372.5,41.1c0-0.2,0.1-0.3,0.2-0.3c0.1-0.1,0.2-0.1,0.3-0.2c0.1-0.1,0.3-0.3,0.3-0.3s0.1-0.2,0.2-0.3
				c0.1-0.2,0-0.5-0.1-0.5c0,0,0.1-0.1,0.1-0.1c0,0,0,0,0,0c-0.1,0-0.3,0.1-0.4,0.1c-0.1,0-0.1,0.1-0.2,0.1c-0.1,0-0.1,0.1-0.1,0.1
				c0,0-0.1,0.1-0.1,0.2c0,0,0,0,0,0c-0.1,0.1-0.2,0.2-0.3,0.3c0,0,0,0,0,0c-0.1,0.2-0.2,0.3-0.2,0.3c0,0,0,0,0,0c0,0,0,0,0,0.1
				c0,0,0,0,0,0c0,0.1,0,0.1,0,0.1l-0.1-0.2l0.2-0.3l0,0c0-0.1,0.1-0.1,0.2-0.2c0.1-0.1,0.2-0.2,0.2-0.3c0.1-0.1,0.1-0.2,0.2-0.4
				c0-0.1,0.1-0.2,0.1-0.4c0-0.1,0-0.1,0-0.2c0-0.1,0-0.1-0.1-0.2c0-0.1-0.1-0.1-0.2-0.1c0,0,0-0.1,0-0.1c0,0,0,0,0,0
				c-0.1,0-0.2,0.1-0.3,0.2c0,0.1-0.1,0.1-0.1,0.2c0,0-0.1,0.1-0.1,0.2c0,0.1,0,0.1,0,0.2c0,0,0,0,0,0c-0.1,0.2-0.3,0.4-0.4,0.6
				c0,0,0,0.1-0.1,0.1L371,41c0,0,0,0.1,0,0.1L372.5,41.1L372.5,41.1z"/>
			<path class="st1" d="M422.6,39.6l-1,0.2c-1.2,2.1-7,12.4-10.7,19c0.1,0.2,0.3,0.5,0.4,0.7c1.6-2.8,3.2-5.6,4.7-8.4
				c2.2-3.8,4.3-7.6,6.5-11.4C422.6,39.7,422.6,39.6,422.6,39.6z"/>
			<path class="st1" d="M437.4,65.4c-0.3-0.1-0.3-0.1-0.3-0.1s-0.5-1.3-0.7-1.6c-1.7-3.6-3.5-7.1-5.3-10.7c-1.2-2.4-2.4-4.8-3.5-7.2
				c-1.1-2.2-2.2-4.5-3.2-6.6c0.1,0,0.3,0,0.3-0.2c0-0.1-0.1-0.3-0.2-0.4c-0.1-0.1-0.1-0.2-0.2-0.3c-0.1-0.2-0.3-0.3-0.5-0.5
				c-0.5-0.3-1.2-0.4-1.8-0.3c0,0-0.1,0-0.1,0l-2.3,0.2c-10.7,0.8-42.5,3.2-42.5,3.2l-0.5,0c0-0.1-0.1-0.3-0.1-0.4
				c-0.1-0.2-0.2-0.4-0.3-0.6c0-0.1,0-0.1-0.1-0.2c0-0.1-0.1-0.1-0.1-0.1c0,0-0.1,0-0.2,0c-0.1,0-0.2,0.1-0.2,0.2c0,0,0,0,0,0
				c-0.1,0.1-0.1,0.3-0.1,0.4c0,0.1,0,0.2,0,0.3c0,0.2,0.1,0.3,0.1,0.5c0.1,0.3,0.4,1.2,0.4,1.9c0,0.1,0,0.3,0,0.4
				c0,0,0-0.2-0.1-0.4c0-0.2-0.1-0.4-0.2-0.6c-0.1-0.4-0.3-0.9-0.5-1.2l-1.1,0.1c0,0,0.1-0.1,0.1-0.1c0-0.1,0-0.1,0-0.2
				c0,0,0.1,0,0.1-0.1c0,0,0,0,0,0c-0.1-0.1-0.2-0.1-0.3,0c-0.1,0-0.1,0-0.2,0c-0.1,0-0.1,0-0.2,0c-0.1,0-0.1,0.1-0.1,0.1
				c-0.2,0-0.5,0.1-0.7,0.1c0,0,0,0,0,0.1c0,0,1.1,0.1,1.1,0.1c0,0-1,0.1-1.1,0.1c0,0-16.3,1.2-17.7,1.3c-0.4,0-0.8,0.3-1,0.6
				c-0.1,0.2-0.3,0.5-0.4,0.8c0,0,0,0.1,0,0.1c0,0.1,0.2,0.1,0.2,0.1l0.4,0.1c-2,3.5-14.7,25.3-14.7,25.3s-0.1,0-0.3,0
				c-0.4,0.1-0.5,0.5-0.4,0.9c0.1,0.3,0.3,0.5,0.6,0.5c0.3,0,0.5,0.1,0.6,0.4c0.3,1,0.7,2,1.4,2.8c1.5,2,3.5,3.3,5.7,4.3
				c0.3,0.1,0.8,0.1,0.9,0.4c0.2,0.3,0,0.7,0,1c0,0.4,0.1,0.6,0.5,0.7l0.6,0.1c1.1,0.1,2.2,0.1,3.4,0.1c2.2,0,4.5,0.1,6.7,0.1
				c0.5,0,0.7-0.2,0.7-0.7c0-0.1,0-0.3,0-0.4c-0.1-0.6-0.1-0.6,0.5-0.8c1.4-0.5,2.8-1.1,4.1-2c1.8-1.3,3.2-2.8,3.9-4.9
				c0.1-0.3,0.4-0.4,0.6-0.4c0.3,0,0.5-0.1,0.6-0.4c0.1-0.3,0.1-0.7-0.2-0.9c-0.3-0.1-0.3-0.2-0.3-0.2s-0.6-1.2-0.8-1.6
				c-2.2-4.4-4.3-8.7-6.5-13.1c-1.6-3.3-5-10.1-5.5-11.2l-0.6,0.3c1.2,2.2,2.2,4.3,3.3,6.6c2.2,4.4,4.3,8.8,6.5,13.1
				c0.9,1.8,2.6,5.3,2.6,5.3l0.3,0.6c0,0-3.2-0.1-4.5-0.1c-2-0.1-4-0.1-6-0.2c-2.5-0.1-5-0.2-7.5-0.2c-2.4-0.1-4.7-0.1-7.1-0.2
				c-0.8,0-2.8-0.1-2.8-0.1l14.6-25l-0.1-0.2l1.3-0.1c0,0,16.1-1.2,16.1-1.2s0.2,0.3,0.3,0.4c0.2,0.3,0.4,0.5,0.7,0.8
				c0.3,0.2,0.6,0.5,0.8,0.7c0.5,0.4,0.9,0.9,1.3,1.4c0.3,0.4,0.6,0.8,0.8,1.2c0.2,1.7,2.8,9.4,4,12.2c1.3,2.8,3.2,6.5,5.2,8.9
				c1,1.2,2,2.4,2.8,3.8c0,0-1.8,1.7-2,1.9c-1.4,1.2-2.2,3.6-1.7,5.3c2,6.8,0.3,16.3,0.4,18.4c0.1,0.5,0.2,1,0.3,1.5
				c0.3,1.4,0.8,2.7,1.1,3.6c0.4,0.9,0.9,2.1,1.6,3.4c0.7,1.2,1.5,2.4,2.1,3.4c-3.8-3.1-4.9-7.8-5-8.1c0.4,5.6,0.9,12.7-0.7,16.6
				c-2.4,5.7-3.9,17.2-4.2,19.7c0,0.3,0.2,0.6,0.5,0.5c1.4-0.1,4.6-0.1,3.2,1.1c-0.9,0.8,0.8,0.6,1.2,0.5c1.4-0.2,2.7-0.7,4.1-0.9
				c0,0,0.1,0,0.3,0c0,0,0,0,0,0c0.2,0,0.3,0,0.5,0c0.2,0,0.5,0,0.7,0c0.2,0,0.4,0,0.5,0c0,0,0,0,0,0c0,0,0,0,0,0c0,0-1,0.2-1.7,0.4
				c0.2,1.8,0.4,4.5,0,6.7c-0.3,1.7-3.2,6.2-6,7.2c-0.6,0.2-1,0.5-1,1.2c0,0.3,0,0.6,0.2,0.8c-0.2,0-0.4,0-0.6,0
				c-1.9,0.1-8,0.4-11.3,1.8c0,0,0.6-0.7,2.4-1.2c-4.1,0.4-6.6,0.9-6.6,1.4c0,1.2,11.8,2.1,26.4,2.1c2.7,0,5.3,0,7.7-0.1
				c0.2,0,9.3-0.4,12.2-2.1c0,0-0.5,1-2.1,1.6c5.3-0.4,8.6-0.9,8.6-1.6c0-0.9-7.1-1.7-17-2c0.1-0.9,0.5-4.6,0.9-5.8
				c0.4-1.3,0-2.9-1.2-3.8c-0.6-0.5-1.2-5.5-1.4-7.4c0-0.3,0.8-1.4,3.1,0.6c2.2,1.9,1-15.5,1.3-18.2c0.1-0.9,0.2-1.1,0.2-2
				c0.1-3.2,0-6.5-0.3-9.7c-0.1,1-0.2,2-0.4,2.9c-0.5,2.1-1.4,4-2.1,5.3c-0.7,1.3-1.9,3-3.5,4.5c-0.4,0.4-0.8,0.7-1.2,1.1
				c-0.4,0.3-0.8,0.7-1.3,0.9c-0.9,0.6-1.8,0.9-2.7,0.9c1.7-0.4,3.1-2,4.5-3.5c1.4-1.5,2.5-3.2,3.2-4.5c0.7-1.2,1.6-3.1,2.2-5
				c0.4-1.2,0.7-2.5,0.9-3.8c0-0.5,0-1.3,0-1.8c-0.3-2.2-0.8-4.4-1.4-6.6c-0.5-1.7-2.5-5.7-2.9-11c-0.3-4.2,1.7-7.2,2.5-8.3
				c0.1-0.2,0.2-0.4,0.3-0.6c0.4-0.7,1.2-1.8,1.9-2.3c-0.5,0.8-1.2,1.9-1.5,2.5c-0.1,0.1-0.1,0.2-0.2,0.4c0.1,1.4,0.6,6.8,0.7,7.9
				c0,0.1,0.1,0.2,0.1,0.3c0.1,0.4,0.3,0.9,0.6,1.4c0.3,0.5,0.6,1,1,1.3c-0.4-0.2-0.9-0.6-1.2-1.1c-0.1-0.1-0.1-0.2-0.2-0.3
				c0.3,1.5,0.6,3,0.9,4.5c0.7,2.8,2.9,10.4,4.1,12.1c0.2,0.3,0.3,0.7,0.4,1c0,0.2,0.1,0.4,0.1,0.5c0,0.2,0,0.4-0.1,0.6
				c0,0.2-0.1,0.4-0.1,0.6c0,0.2,0,0.4,0.1,0.5c0.1,0.4,0.2,0.7,0.3,1c0.1,0.2,0.1,0.4,0.2,0.6c0,0.2,0.1,0.4,0.1,0.6
				c0,0.2,0.1,0.4,0.1,0.6c0.1,0.2,0.1,0.4,0.2,0.6c0,0.1,0,0.1,0.1,0.2c0,0,0,0.1,0.1,0.1c0,0,0.1,0,0.1,0c0.1,0,0.2-0.1,0.2-0.2
				c0,0,0,0,0,0c0.1-0.1,0.1-0.3,0.1-0.4c0-0.1,0-0.2,0-0.2c0-0.2-0.1-0.5-0.1-0.7c0-0.1,0-0.2-0.1-0.3c-0.1-0.3-0.1-0.7-0.1-1
				c0-0.3,0.1-0.8-0.1-1c0.1,0.1,0.3,0.3,0.3,0.5c0,0.2,0,0.3,0,0.4c0.1,0,0.3,0,0.4,0c0.2,0,0.3,0.1,0.5,0.2
				c0.2,0.1,0.3,0.2,0.4,0.4c0,0,0.3,0.3,0.6,0.6c0,0-0.1,0-0.1,0c-0.1,0-0.2,0.1-0.3,0.1c-0.1,0-0.2,0.1-0.2,0.2
				c0,0-0.1,0.1-0.1,0.1c0,0-0.1,0.1-0.1,0.1c0,0,0,0.1,0,0.1c0,0-0.1,0-0.1,0.1c0.1,0.1,0.2,0.1,0.3,0.1c0.1,0,0.1,0,0.2,0
				c0,0,0.1,0,0.1,0c0,0,0.1,0,0.1-0.1c0.2,0,0.4,0,0.6-0.1c0,0,0-0.1-0.1-0.2c0,0,0.2,0.2,0.2,0.2c0,0,0,0.1,0,0.1
				c-0.1,0.1-0.1,0.1-0.2,0.2c-0.1,0.1-0.2,0.1-0.3,0.2c-0.1,0.1-0.2,0.2-0.2,0.2s-0.1,0.2-0.2,0.3c-0.1,0.2,0,0.4,0,0.5
				c0,0,0,0.1-0.1,0.1c0,0,0,0,0,0c0.1,0,0.2,0,0.3-0.1c0.1,0,0.1-0.1,0.2-0.1c0,0,0.1-0.1,0.1-0.1c0,0,0.1-0.1,0.1-0.2
				c0.1-0.1,0.2-0.1,0.3-0.2c0.1-0.2,0.2-0.3,0.2-0.3c0,0,0,0,0-0.1c0-0.1,0-0.1,0-0.1l0,0.2l-0.2,0.2l0,0c0,0.1-0.1,0.1-0.1,0.2
				c-0.1,0.1-0.1,0.2-0.2,0.3c-0.1,0.1-0.1,0.2-0.1,0.3c0,0.1-0.1,0.2-0.1,0.3c0,0.1,0,0.1,0,0.2c0,0.1,0,0.1,0,0.2
				c0,0.1,0.1,0.1,0.1,0.1c0,0,0,0.1,0,0.1c0,0,0,0,0,0c0.1,0,0.2-0.1,0.3-0.2c0-0.1,0.1-0.1,0.1-0.2c0,0,0.1-0.1,0.1-0.1
				c0-0.1,0-0.1,0-0.2c0.1-0.2,0.2-0.3,0.4-0.5c0,0,0,0,0.1-0.1c0,0.1,0.1,0.1,0.1,0.2c0.1,0.2,0.1,0.3,0.2,0.5
				c0.1,0.1,0.2,0.3,0.4,0.3c0,0,0.1,0,0.1,0c0,0,0,0,0.1,0c0,0,0,0,0,0.1c0,0,0,0,0,0.1c0,0,0,0,0,0c0,0,0-0.1,0-0.1
				c0,0,0-0.1,0-0.1c0-0.1,0-0.1,0-0.2c0-0.1,0-0.2-0.1-0.3c0,0,0-0.1,0-0.1c0,0,0,0,0,0c0,0,0,0,0,0l0-0.1
				c-0.1-0.2-0.1-0.4-0.2-0.6c0-0.1-0.1-0.2-0.1-0.3c-0.2-0.6-0.5-1.2-0.9-1.7c0,0,0.5,0.3,1,1.5c0-0.1,0.1-0.1,0.1-0.2
				c0-0.1-0.8-1.9-1.1-2.4c-0.2-0.3-0.3-0.5-0.5-0.7c-0.2-0.2-0.4-0.4-0.6-0.6c-0.4-0.4-0.7-0.8-1-1.3c-0.3-0.5-0.5-1-0.6-1.5
				c0-0.1,0-0.1,0-0.2c0,0,0,0,0,0c0,0,0,0,0,0c-0.4-1.6-1.2-4.8-1.2-6.8c0.1-2,0.2-3.9,0.2-5.9c0-1.4-0.1-2.8-0.4-4.2
				c-0.2-1-0.4-2-0.6-3c-0.3-2.2-0.1-6.5,0.2-7.6c0-0.2,0.1-0.4,0.1-0.5c0-0.2,0.1-0.3,0.1-0.5c0.1-0.2,0.1-0.3,0.2-0.4
				c0.1-0.3,0.2-0.5,0.2-0.8c0.1-0.5,0.1-1,0-1.6c0,0,0-0.1,0-0.1c-0.1-0.6-0.4-1.3-0.9-1.8c-0.4-0.6-1-1-1.6-1.3
				c-0.6-0.3-1.3-0.5-1.9-0.5c0.6-0.1,1.3,0,2,0.3c0.2,0.1,0.3,0.1,0.5,0.2c0,0,0,0,0,0c0.5,0.3,1,0.6,1.3,1.1
				c0.3,0.4,0.6,0.8,0.8,1.2c0.1,0.3,0.2,0.5,0.3,0.8c0,0.1,0,0.2,0,0.3c1.1,0.2,2.2,0,2.2,0c-0.8-0.2-1.7-2.7-1.7-2.7
				c0.6,0.8,2,1.2,2,1.2c-0.7-0.7-1-1.3-1.3-1.8c-0.2-0.6-0.4-1.1-0.7-1.7c-0.4-0.4-0.8-0.7-1.1-0.9c-0.3-0.3-0.8-0.6-1.2-1.1
				c0,0,0-0.1-0.1-0.1c0,0-0.1-0.1-0.1-0.1c-0.3-0.3-0.5-0.7-0.5-1.1c0-0.1,0-0.1,0-0.2c0.1,0.1,0.1,0.2,0.2,0.3
				c0.1,0.2,0.3,0.4,0.5,0.6c0.1,0.1,0.2,0.2,0.3,0.3c0.4,0.3,0.7,0.6,1,0.8c0.1,0,0.1,0.1,0.2,0.1c0.3,0.3,0.8,0.6,1.2,1.1
				c0.2,0.2,0.3,0.5,0.4,0.8c0.1,0.2,0.3,0.3,0.4,0.5c0.1-0.6-0.1-1.4-0.5-2c-0.4-0.6-0.8-1.1-1.2-1.5c-0.1-0.1-0.1-0.1-0.2-0.2
				c0.8,0.4,1.5,0.6,2.2,0.7c-0.5-0.5-1.2-1.1-1.9-1.6c-0.1,0-0.2-0.1-0.3-0.1c-0.5-0.3-0.9-0.6-1.1-0.9c-0.1-0.1-0.3-0.3-0.5-0.5
				c0,0,0,0-0.1-0.1c-0.1-0.1-0.1-0.1-0.2-0.2c0,0,0,0,0-0.1c0-0.1-0.1-0.2-0.1-0.2c0-0.1-0.1-0.2-0.1-0.3c0-0.1-0.1-0.2-0.1-0.3
				c-0.1-0.3-0.1-0.5,0-0.8c0-0.1,0-0.1,0.1-0.2c0,0.2,0.1,0.4,0.1,0.6c0,0,0,0,0,0c0,0.1,0.1,0.2,0.1,0.2c0.1,0.2,0.2,0.3,0.3,0.4
				c0.2,0.3,0.4,0.5,0.6,0.7c0,0,0-0.1-0.1-0.1c0.1,0.1,0.2,0.2,0.3,0.2c0.5,0.5,1.1,0.9,1.7,1c-0.2-0.3-0.4-0.6-0.6-1
				c-0.2-0.3-0.4-0.6-0.6-0.9c-0.1-0.2-0.6-1-0.6-1s1.1,0.4,1.4,0.3c-0.4-0.4-0.8-0.7-1.1-1.1c-0.1-0.1-0.1-0.2-0.2-0.3
				c-0.1-0.1-0.2-0.1-0.3-0.2c-0.2-0.2-0.5-0.3-0.6-0.5c0,0,0,0,0,0c-0.2-0.3-0.4-0.5-0.5-0.8c0,0,0,0,0-0.1c0,0,0-0.1,0-0.1
				c-0.1-0.1-0.1-0.3-0.2-0.4c0,0,0-0.1,0-0.1c-0.1-0.3-0.3-0.7-0.4-1.1c0-0.1-0.1-0.2-0.1-0.4c-0.3-0.7-0.7-1.5-1.1-2
				c0.4,0.3,0.8,0.7,1.1,1.3c0.1,0.2,0.2,0.4,0.3,0.5c0.4,0.7,0.6,1.5,0.9,2c0.1,0.3,0.3,0.6,0.6,0.9c0.1,0.1,0.2,0.3,0.4,0.4
				c0.1,0.1,0.2,0.2,0.3,0.3c0,0,0.1,0.1,0.1,0.1c0,0,0.1,0,0.1,0c0.6,0.2,1.2,0.4,1.7,0.2c-0.5-0.3-0.8-0.7-1.2-1.2
				c-0.1-0.1-0.1-0.2-0.2-0.3c-0.1-0.1-0.1-0.2-0.2-0.3c-0.3-0.5-0.6-1-0.9-1.6c-0.4-0.7-0.7-1.3-1-1.9c-0.1-0.3-0.3-0.6-0.4-0.9
				c0-0.1-0.2-0.4-0.3-0.6c-0.1-0.2-0.2-0.3-0.3-0.5c-0.8-1.1-2.3-2.2-4.1-2.6c-0.9-0.2-1.8-0.3-2.6-0.2c-0.8,0.1-3.4,0.9-4.4,1.8
				c-0.3,0.3-2.7,2.6-3.2,6.2c-0.4,3.6,0.4,7,2,8c2.2,0.9,4.3-0.5,4.3-0.5s-1.7,2-3.2,2.3c-0.2,0.1-2.2,0.3-3.6-0.5
				c-1.4-1.3-2.7-2.8-3.9-4.3c-0.6-0.8-1.1-1.6-1.7-2.5c-0.8-1.2-1.9-2.2-3-3.1c-0.1-0.1-0.2-0.2-0.2-0.3c0.1,0.5,0.1,1,0,1.5
				c-0.3-0.8-0.6-2.1-0.8-2.8c-0.7-1.5-1.2-3.6-1.8-4.6c-0.9-1.5-2.1-3.6-2.8-5c0-0.1-0.1-0.2-0.2-0.4c-0.3-0.6-0.5-1-0.5-1
				c0-0.1-0.1-0.1-0.1-0.2c-0.1-0.2-0.1-0.4-0.1-0.6c0-0.2,0-0.5,0.1-0.7c0-0.2,0-0.4,0-0.6c0-0.2-0.1-0.4-0.1-0.6
				c-0.1-0.3-0.2-0.6-0.3-0.8l42.1-3.2l1.3-0.1l1.2-0.1l0.9-0.1l0.8-0.1c0,0,0.2,0,0.4,0l-0.3,0.2c0.7,1.4,1.3,2.7,2,4.1
				c1.6,3.2,3.2,6.5,4.8,9.7c1.9,3.9,6,12.1,6,12.1s-7.8-0.2-11.2-0.4c-2.6-0.1-5.2-0.1-7.7-0.2c-1.8-0.1-3.7-0.1-5.5-0.2
				c0.1,0.2,0.2,0.3,0.3,0.4l0.8,1.5l1.4,2.3l-1.7-0.4c0.3,0.7,0.6,1.8,0.5,2.4l-0.2,1c0.2,0.2,0.4,0.4,0.6,0.7l0.3,0.2
				c0.6,0.3,1.2,0.6,1.8,0.9c0.6,0.2,0.6,0.2,0.5,0.8c0,0.2,0,0.3,0,0.5c0,0,0,0,0,0l0,0l0,0c0,0.4,0.2,0.6,0.6,0.6
				c2.2,0.1,4.5,0.1,6.7,0.2c1.2,0,2.4,0.1,3.6,0.1c0.8,0,1-0.3,0.9-0.9c0-0.1,0-0.2,0-0.3c-0.1-0.4,0.1-0.6,0.5-0.7
				c0.8-0.2,1.7-0.6,2.4-1c2.5-1.3,4.5-3,5.5-5.7c0.1-0.3,0.3-0.5,0.7-0.5c0.3,0,0.5-0.1,0.6-0.4C437.8,66,437.8,65.6,437.4,65.4z
				 M365.8,71.6c0.5,0,1,0,1.6,0c-0.1,0.3-0.3,0.6-0.4,1l-0.2,0.3l-0.2,0.3c-0.5,0.7-1,1.4-1.7,2c-0.7,0.6-1.4,1.2-2.2,1.5
				c-0.8,0.4-1.6,0.6-2.3,0.7c0.7-0.2,1.4-0.5,2.1-1c0.7-0.4,1.4-1,2-1.6c0.6-0.6,1.1-1.3,1.5-2l0.1-0.3l0.1-0.2l0,0
				c-0.2,0-0.3,0-0.4,0c-2.5,0-7-0.1-9.8-0.7C360.4,71.6,363.7,71.6,365.8,71.6z M405.5,57.8c0.1,0.1,0.2,0.2,0.3,0.3
				c0.3,0.3,0.6,0.7,0.7,1c0.1,0.3,0.2,0.7,0.3,1.1c0.1,0.4,0.3,0.8,0.6,1c-0.1,0-0.3-0.1-0.4-0.1c-0.2-0.2-0.5-0.4-0.6-0.7
				c-0.2-0.4-0.3-0.8-0.4-1.1c-0.1-0.3-0.3-0.6-0.5-1c-0.2-0.3-0.5-0.7-0.8-0.9C405,57.4,405.3,57.6,405.5,57.8z M400.9,151.5
				c0.5-0.2,0.8,0,0.8,0.5c0,0.6-0.1,1.2-0.1,1.7c0,0.5-0.1,1.4-0.1,1.8c-0.8,0-1.2,0-2.1-0.1c-0.6,0.5-1.5,1-2.6,1
				c0.4-0.1,0.7-0.3,1-0.6c0.1-0.1,0.3-0.3,0.4-0.4c0.7-0.8,1.1-1.6,1.1-1.6l0,0C400,152.8,400.6,151.7,400.9,151.5z M398.7,130
				c0.9-1,1.7-2,2.2-2.8c0.5-0.8,1.1-1.9,1.7-3.2c0.5-1.2,1-2.5,1.4-3.6c-0.1,1.1-0.5,2.4-1,3.7c-0.5,1.3-1.1,2.5-1.6,3.3
				c-0.5,0.8-1.3,1.9-2.3,2.8c-1,0.9-2.2,1.7-3.2,2.1C396.7,131.8,397.8,131,398.7,130z M393.6,152.8c0.8-0.7,1.1-1.4,1.1-1.4
				s0.3-1.3,0.5-1.7c0.4-1.3,0.4-2.8-0.8-3.7c-0.3-0.2-0.4-3.9-0.5-6.3c1.7,0.2,2.4,0,2.4,0s0.8-0.4,1.5-0.5c0,0-0.8,0.4-1.4,0.8
				c0.3,1,1.3,4.2,1.3,5.7c0,0.9-0.5,3.1-1.9,5l0,0c0,0-0.6,0.8-1.3,1.4C394.2,152.5,393.9,152.7,393.6,152.8
				C393.6,152.9,393.6,152.8,393.6,152.8z M392,151.7c0.5-0.2,0.8,0,0.8,0.5c0,0.2,0,0.6,0,1.1c0,0-0.1,0-0.1,0.1
				c-0.6,0.2-1,0.5-1,1.2c0,0.3,0,0.6,0.2,0.9c-0.7,0-0.8,0-1.5,0c-1.1,1-2.4,1-2.4,1s0.2-0.1,0.6-0.3c0.3-0.2,0.5-0.4,0.8-0.7
				c0.4-0.4,0.6-0.8,0.6-0.8c0.1-0.1,0.1-0.2,0.2-0.4C390.8,152.8,391.5,152,392,151.7z M435.3,67.2l-0.2,0.3l-0.2,0.3
				c-0.5,0.7-1,1.4-1.7,2c-0.7,0.6-1.4,1.2-2.2,1.5c-0.8,0.4-1.6,0.6-2.3,0.7c0.7-0.2,1.4-0.5,2.1-1c0.7-0.4,1.4-1,2-1.6
				c0.6-0.6,1.1-1.3,1.5-2l0.1-0.3l0.1-0.2l0,0c-0.2,0-0.3,0-0.4,0c-2.5,0-7-0.1-9.8-0.7c4.4,0,7.6,0,9.8-0.1c0.5,0,1,0,1.6,0
				C435.7,66.6,435.5,66.9,435.3,67.2z"/>
		</g>
	</g>
	<g>
		<path class="st2" d="M307.9,175.3l2.6-4.9c0.3-0.7,0.6-1.9-1.1-1.9l0.9-1.8h8.6l0.9,1.8c-1.7,0-1.4,1.2-1.1,1.8l2.6,5
			c0.4,0.7,1.4,1.8,2.8,1.8l-0.9,1.8h-6.4l-0.9-1.8c1.6,0,1.4-1.1,1.1-1.8h-6.7c-0.3,0.7-0.5,1.8,1.1,1.8l-0.9,1.8h-4.8l-0.9-1.8
			C306.5,177.1,307.5,175.9,307.9,175.3z M316.2,173.5l-2.4-4.5l-2.4,4.5H316.2z"/>
		<path class="st1" d="M330,174.9v-6.5h-3.1c-1,0-2,0.3-2.6,1.2l-1.7-0.9l0.9-2.3c0,0,0.8,0.2,3.2,0.2h10.4c2.4,0,3.2-0.2,3.2-0.2
			l0.9,2.3l-1.7,0.9c-0.6-0.9-1.5-1.2-2.5-1.2h-3v6.5c0,0.7,0.3,2.2,2,2.2l-0.9,1.8h-6.2l-0.9-1.8C329.7,177.1,330,175.6,330,174.9z
			"/>
		<path class="st0" d="M354.9,174.9v-4.3c0-0.7-0.3-2.2-2-2.2l0.9-1.8h6.1l0.9,1.8c-1.6,0-2,1.5-2,2.2v4.3c0,0.7,0.3,2.2,2,2.2
			l-0.9,1.8h-6.1l-0.9-1.8C354.6,177.1,354.9,175.6,354.9,174.9z"/>
		<path class="st1" d="M365,174.9v-4.3c0-0.7-0.3-2.2-2-2.2l0.9-1.8h5.6l9.6,7.3v-3.3c0-0.7-0.3-2.2-2-2.2l0.9-1.8h4.4l0.9,1.8
			c-1.6,0-1.9,1.5-2,2.2v4.3c0,0.7,0.3,2.2,2,2.2l-0.9,1.8h-3.7l-11.5-9v5.1c0,0.7,0.3,2.2,2,2.2l-0.9,1.8h-4.4l-0.9-1.8
			C364.7,177.1,364.9,175.6,365,174.9z"/>
		<path class="st0" d="M387.5,174.8v-4.2c0-0.7-0.3-2.1-2-2.1l0.9-1.8h7.2c6.2,0,11.3,1.1,11.3,6.1c0,5.1-5.1,6.2-11.3,6.2h-7.2
			l-0.9-1.8C387.3,177.1,387.5,175.4,387.5,174.8z M393.7,177.1c4.3,0,6.6-0.7,6.6-4.4c0-3.6-2.3-4.3-6.6-4.3h-2.2v8.7H393.7z"/>
		<path class="st1" d="M408.6,174.9v-4.3c0-0.7-0.3-2.2-2-2.2l0.9-1.8h6.1l0.9,1.8c-1.6,0-2,1.5-2,2.2v4.3c0,0.7,0.3,2.2,2,2.2
			l-0.9,1.8h-6.1l-0.9-1.8C408.3,177.1,408.6,175.6,408.6,174.9z"/>
		<path class="st2" d="M419.1,175.3l2.6-4.9c0.3-0.7,0.6-1.9-1.1-1.9l0.9-1.8h8.6l0.9,1.8c-1.7,0-1.4,1.2-1.1,1.8l2.6,5
			c0.4,0.7,1.4,1.8,2.8,1.8l-0.9,1.8h-6.4l-0.9-1.8c1.6,0,1.4-1.1,1.1-1.8h-6.7c-0.3,0.7-0.5,1.8,1.1,1.8l-0.9,1.8h-4.8l-0.9-1.8
			C417.7,177.1,418.7,175.9,419.1,175.3z M427.4,173.5l-2.4-4.5l-2.4,4.5H427.4z"/>
		<path class="st0" d="M439.3,174.9v-4.3c0-0.7-0.3-2.2-2-2.2l0.9-1.8h5.6l9.6,7.3v-3.3c0-0.7-0.3-2.2-2-2.2l0.9-1.8h4.4l0.9,1.8
			c-1.6,0-1.9,1.5-2,2.2v4.3c0,0.7,0.3,2.2,2,2.2l-0.9,1.8H453l-11.5-9v5.1c0,0.7,0.3,2.2,2,2.2l-0.9,1.8h-4.4l-0.9-1.8
			C439,177.1,439.2,175.6,439.3,174.9z"/>
		<path class="st1" d="M462.1,175.3l2.6-4.9c0.3-0.7,0.6-1.9-1.1-1.9l0.9-1.8h8.6l0.9,1.8c-1.7,0-1.4,1.2-1.1,1.8l2.6,5
			c0.4,0.7,1.4,1.8,2.8,1.8l-0.9,1.8h-6.4l-0.9-1.8c1.6,0,1.4-1.1,1.1-1.8h-6.7c-0.3,0.7-0.5,1.8,1.1,1.8l-0.9,1.8h-4.8l-0.9-1.8
			C460.8,177.1,461.7,175.9,462.1,175.3z M470.4,173.5l-2.4-4.5l-2.4,4.5H470.4z"/>
		<path class="st0" d="M302,194.8v-2.5c0-0.6-0.2-2.3-2-2.3l0.9-1.8h6.1l0.9,1.8c-1.6,0-1.9,1.4-2,2.1v3.1c0,2.8,2,3.7,4.5,3.7
			c2.5,0,4.5-0.9,4.5-3.7v-2.9c0-0.6-0.2-2.3-1.9-2.3l0.8-1.8h6.1l0.9,1.8c-1.6,0-1.9,1.4-1.9,2.1v2.7c0,4.5-3.5,6-8.4,6
			C305.4,200.8,302,199.3,302,194.8z"/>
		<path class="st2" d="M324.7,196.5v-4.3c0-0.7-0.3-2.2-2-2.2l0.9-1.8h5.6l9.6,7.3v-3.3c0-0.7-0.3-2.2-2-2.2l0.9-1.8h4.4l0.9,1.8
			c-1.6,0-1.9,1.5-2,2.2v4.3c0,0.7,0.3,2.2,2,2.2l-0.9,1.8h-3.7l-11.5-9v5.1c0,0.7,0.3,2.2,2,2.2l-0.9,1.8h-4.4l-0.9-1.8
			C324.4,198.7,324.6,197.2,324.7,196.5z"/>
		<path class="st1" d="M347.1,196.5v-4.3c0-0.7-0.3-2.2-2-2.2l0.9-1.8h6.1l0.9,1.8c-1.6,0-2,1.5-2,2.2v4.3c0,0.7,0.3,2.2,2,2.2
			l-0.9,1.8h-6.1l-0.9-1.8C346.8,198.7,347.1,197.2,347.1,196.5z"/>
		<path class="st0" d="M359.3,198.7c1.6,0,1.4-1.1,1.1-1.8l-2.5-4.9c-0.4-0.7-1.3-2-2.9-2l0.8-1.8h6.4l0.9,1.8c-1.8,0-1.2,1.6-1,2.1
			l3.1,5.9l3.1-6c0.2-0.5,0.9-2.1-1-2.1c0.7-1.4,0.4-0.8,0.9-1.8h4.8l0.8,1.8c-1.5,0-2.4,1.2-2.8,1.8l-0.3,0.5l-2.4,4.6
			c-0.3,0.7-0.4,1.7,1.2,1.7l-0.9,1.8h-8.6C360.2,200.5,359.9,199.8,359.3,198.7z"/>
		<path class="st2" d="M389.4,200.5h-12.6l-0.9-1.8c1.6,0,2-1.4,2-2.1v-4.4c0-0.7-0.3-2.1-2-2.1l0.9-1.8h11.9c2.4,0,3.2-0.2,3.2-0.2
			l1,2.3l-1.7,0.9c-0.6-0.9-1.7-1.2-2.8-1.2h-6.5v3.1h3.3c0.4,0,1.7-0.2,1.7-1.3l1.9,1v2.5l-1.9,1c0-1.2-1.3-1.3-1.7-1.3h-3.3v3.8
			h5.8c1.5,0,3.4-0.2,4.3-2l1.8,0.8l-1,3.2C392.6,200.7,391.7,200.5,389.4,200.5z"/>
		<path class="st1" d="M397.3,196.5v-4.3c0-0.7-0.3-2.2-2-2.2l0.9-1.8h11.3c6.4,0,6.2,3.8,6.2,3.8s0.1,2.3-2.9,3.4l1.1,2.1
			c0.5,0.6,1.2,1.2,2.5,1.2l-0.9,1.8h-6.4l-0.9-1.8c1.8,0,1.4-1.3,1.1-1.9l-0.5-0.9h-5.6v0.7c0,0.7,0.3,2.2,2,2.2l-0.9,1.8h-6.2
			l-0.9-1.8C397,198.7,397.3,197.2,397.3,196.5z M406.8,194c0,0,2.3,0,2.3-2c0-2-2.3-2-2.3-2h-5.5v4H406.8z"/>
		<path class="st0" d="M419.8,200c-1.3-0.4-1.7,0.5-1.7,0.5l-1.6-0.9v-2.3l1.6-0.8c0,0,1.9,2.3,6.2,2.3c0,0,4,0.2,4-1.6
			c0-1.3-2.7-1.4-5.2-1.7c-2.7-0.4-6.7-0.8-6.7-3.9c0-2.8,3.9-3.7,7.3-3.7c1.5,0,3.4,0.2,4.7,0.5c0.7,0.2,1.1-0.3,1.1-0.3l1.5,0.8
			v1.8l-1.5,0.8c0,0-1.3-1.8-5.8-1.8c0,0-3.8,0-3.8,1.2c0,1,2.6,1.1,4.9,1.5c2.6,0.4,7.2,0.7,7.2,4.3c0,3-4.1,4-7.8,4
			C423.1,200.7,421.1,200.4,419.8,200z"/>
		<path class="st1" d="M436.1,196.5v-4.3c0-0.7-0.3-2.2-2-2.2l0.9-1.8h6.1l0.9,1.8c-1.6,0-2,1.5-2,2.2v4.3c0,0.7,0.3,2.2,2,2.2
			l-0.9,1.8h-6.1l-0.9-1.8C435.8,198.7,436.1,197.2,436.1,196.5z"/>
		<path class="st2" d="M451.3,196.5V190h-3.1c-1,0-2,0.3-2.6,1.2l-1.7-0.9l0.9-2.3c0,0,0.8,0.2,3.2,0.2h10.4c2.4,0,3.2-0.2,3.2-0.2
			l0.9,2.3l-1.7,0.9c-0.6-0.9-1.5-1.2-2.5-1.2h-3v6.5c0,0.7,0.3,2.2,2,2.2l-0.9,1.8h-6.2l-0.9-1.8
			C451,198.7,451.3,197.2,451.3,196.5z"/>
		<path class="st1" d="M472.1,196.5v-1.8l-2.8-2.7c-0.7-0.7-2.5-2-4.8-2l0.9-1.8h7.7l0.9,1.8c-1.7,0-0.8,1.1-0.2,1.6l1.3,1.2
			l1.2-1.1c0.5-0.5,1.6-1.8-0.1-1.8l0.9-1.8h5.7l0.9,1.8c-2.3,0-4.1,1.5-4.8,2.1l-2.6,2.6v1.8c0,0.7,0.3,2.2,2,2.2l-0.9,1.8H471
			l-0.9-1.8C471.8,198.7,472,197.2,472.1,196.5z"/>
	</g>
</g>
<g>
	<g>
		<path class="st3" d="M176.6,104.6l-2.5,0.7c0.1,1.8,0.2,3.6,0.2,5.5c0,44.4-36.1,80.5-80.5,80.5c-31.7,0-59.2-18.4-72.3-45.1
			l-2.5,0.7l-2.5,0.7c13.8,28.9,43.2,48.8,77.3,48.8c47.3,0,85.6-38.3,85.6-85.6c0-2.3-0.1-4.6-0.3-6.8L176.6,104.6z"/>
		<path class="st3" d="M10.8,111.2l2.5-0.7c0.1-41.8,32.2-76.1,73.1-79.9c2.5-0.2,5-0.4,7.5-0.4c8.5,0,16.7,1.3,24.4,3.8l0-0.1
			c0.3-0.8,0.4-1.6,0.6-2.4c0.2-0.9,0.2-1.7,0.3-2.6c-8-2.5-16.5-3.8-25.3-3.8c-0.6,0-1.1,0-1.7,0C45.7,26.2,8.3,64.1,8.3,110.8
			c0,0.4,0,0.7,0,1.1L10.8,111.2z"/>
		<path class="st3" d="M164.1,70.1l1.9-0.5l2.5-0.7c-2.5-4.4-5.3-8.6-8.5-12.4c-0.4-0.5-0.8-1-1.3-1.5c-0.2,0.9-0.5,1.9-0.9,2.8
			c-0.3,0.8-0.8,1.6-1.3,2.4c2.5,3.1,4.8,6.5,6.9,10L164.1,70.1z"/>
		<path class="st3" d="M134,41c5.5,3.2,10.6,7,15.2,11.3c0.8-0.7,1.4-1.3,1.7-1.8c0.6-0.8,0.7-1.5,0.8-1.9c0-0.2,0.1-0.4,0.2-0.6
			c-5.4-5-11.5-9.4-18.1-12.8c0.1,1,0.2,2,0.3,3C134.1,39.1,134.1,40.1,134,41z"/>
		<path d="M182.3,71.5c-0.1-1.4-1.1-2.3-2.4-2.3c-0.2,0-0.5,0-0.7,0.1l-9.2,2.5l-2.5,0.7l-2.5,0.7l-0.1,0v0l-26.2,7
			c-0.3-0.5-0.6-0.9-1-1.3c-0.3-0.4-0.7-0.9-1-1.3c-0.7-0.9-1.4-1.8-2.2-2.6c0.1,0.9,0.3,1.9,0.6,3c0.1,0.5,0.3,1,0.4,1.5
			c0.1,0.5,0.3,1,0.4,1.5c0,0,0,0,0,0v0c0.8,2.7,2,6,3.5,10.1c1,2.5,1.5,4.8,1.8,6.9c0.9,6.8-1.2,11.7-2.3,13.7c0,0,5.7-1.5,6.4-1.7
			c0,0,0.2,0,0.3-0.1c1.3-0.4,2.4-0.6,2.6-0.7c0,0,0,0,0,0l0,0l4.2-1.1c0.1-0.2,0.2-0.4,0.4-0.7c0.5-0.6,1-1,1.7-1.3
			c1-0.4,2-0.7,3-0.8c0-0.1,0.1-0.1,0.2-0.2l0.2-0.4l1-0.5l0.2-0.1l0.2-0.1c0.1,0,0.1,0,0.2-0.1c0.2-0.1,0.4-0.2,0.7-0.3
			c0.2-0.1,0.4-0.1,0.6-0.2c0.6-0.1,1.2-0.2,1.8-0.2c0.2,0,0.5,0,0.7,0c1.2,0.1,2.1,0.6,2.8,1.1l4.8-1.3l3.2-0.8l2.5-0.7l2.5-0.7
			l3-0.8c1.6-0.4,2.7-2.1,2.6-3.8L182.3,71.5z M153.3,97.3l-0.4,2.8l-5.8,1.5l-1.3,0.3l-1.3-2.2c0.6-0.6,1.2-1.3,1.8-2.1
			c1.1-1.4,2.2-3,3-4.5c1.6-2.9,2-4.7,1.8-5.4c-0.1-0.5-0.4-0.6-0.7-0.5c-0.7,0.2-1.7,1.5-1.7,3.9l-2.7-0.2
			c-0.1-1.2,0.2-2.5,0.9-3.7c0.7-1.3,1.7-2.2,2.9-2.5c1.8-0.5,3.5,0.5,4,2.4c0.4,1.7-0.2,4.2-2,7.4c-0.7,1.3-1.6,2.6-2.5,3.9
			L153.3,97.3z M162.6,92.7c-0.6,1.9-1.9,5.3-4.6,6c0,0,0,0,0,0c-0.9,0.2-1.8,0-2.5-0.6c-0.5-0.5-0.9-1.2-1.1-2.1
			c-0.5-2-0.4-5.1,0.4-7.8c0.6-1.9,1.9-5.3,4.6-6c0.9-0.2,1.8,0,2.5,0.6c0.5,0.5,0.9,1.2,1.1,2.1C163.6,86.8,163.4,89.9,162.6,92.7z
			 M169.7,84.8l-1.1,7.1L168,96l-2.7,0.7l1.7-11.5c-0.6,0.5-1.4,1-2.1,1.4l-1.8-2c1.5-0.8,2.6-1.8,3.4-2.7c0.6-0.7,1.1-1.4,1.3-2
			c0,0,0,0,0,0l2.5,0.5L169.7,84.8z M177.3,93.3c-0.6,0.6-1.4,1-2.3,1.3c0,0,0,0,0,0c-1,0.3-1.9,0.2-2.6-0.2
			c-1.4-0.7-2.1-2.4-1.8-4.4l0.7-0.2l2.1-0.6c0,0-0.1,0.5-0.2,1c-0.1,1.1,0.5,1.8,1.2,1.7c0,0,0.1,0,0.1,0c1.1-0.3,1.7-1.4,1.9-2.5
			c0.1-0.6,0.1-1.2-0.1-1.8c-0.1-0.5-0.4-1-0.8-1.3c-0.3-0.2-0.6-0.3-1-0.2c-0.7,0.2-1.2,0.8-1.2,0.8l-0.4-0.1l-1.9-0.7l0.5-3.5
			l0.6-4.1l0.5-0.1l2.3-0.6l0,0l3.6-1l-0.4,2.8l-3.6,1l-0.3,1.9l-0.2,1.2c0.2-0.1,0.3-0.1,0.5-0.2c0,0,0,0,0,0
			C178.9,82.6,180.8,90.1,177.3,93.3z"/>
		<path d="M33.3,129.1c1.1-0.3,1.6-2.6,1.7-3.8l0.2-1.5c-0.2-0.1-0.5-0.2-0.8-0.1C32,124.4,31.9,129.5,33.3,129.1z"/>
		<path d="M19.8,133.7c0.9-0.2,1.4-0.8,1.4-1.7c-0.4,0-0.8,0-1.2,0.1C18.3,132.6,18.7,134,19.8,133.7z"/>
		<path d="M19.6,127.6c-0.4,0.9-0.7,2-1,3.1c0.5-0.4,1.4-0.5,1.9-0.5C20.2,129.4,19.8,128.4,19.6,127.6z"/>
		<path d="M20.2,143.4l25.8-6.9h0c0.3,0.5,0.5,0.9,0.8,1.4c0.3,0.5,0.5,0.9,0.8,1.4c1.3,2.1,2.8,4.2,4.4,6.1
			c1.5,1.8,3.1,3.5,4.8,5.1c0,0,0,0,0,0c1.6,1.5,3.3,2.9,5.1,4.2c0.1,0.1,0.1,0.1,0.2,0.2c0.4,0.3,0.9,0.6,1.3,0.9
			c1.5,1,3,2,4.6,2.8c3.8,2.1,8,3.7,12.3,4.8c2.2,0.6,4.5,1,6.8,1.3c2.2,0.3,4.5,0.4,6.8,0.4c0.8,0,1.7,0,2.5-0.1c0.2,0,0.4,0,0.6,0
			c0.8,0,1.6-0.1,2.4-0.2c0.1,0,0.2,0,0.3,0c0.7-0.1,1.5-0.2,2.2-0.3c0.2,0,0.3,0,0.5-0.1c0.8-0.1,1.6-0.3,2.3-0.4
			c0.1,0,0.3-0.1,0.4-0.1c0.1,0,0.2,0,0.2-0.1c0,0,0,0,0,0c0.6-0.1,1.2-0.3,1.8-0.4c0.1,0,0.3-0.1,0.4-0.1c0.8-0.2,1.5-0.4,2.2-0.6
			c0.2-0.1,0.3-0.1,0.5-0.2c0.7-0.2,1.4-0.4,2-0.7c0.1,0,0.2-0.1,0.3-0.1c0.7-0.3,1.4-0.6,2.2-0.9c0.2-0.1,0.3-0.1,0.5-0.2
			c0.7-0.3,1.4-0.6,2.1-1c0,0,0,0,0,0c0.7-0.3,1.4-0.7,2.1-1.1c0.2-0.1,0.3-0.2,0.5-0.3c0.7-0.4,1.3-0.8,2-1.1
			c0.1,0,0.2-0.1,0.2-0.1c0.6-0.4,1.2-0.7,1.8-1.1c0.1-0.1,0.3-0.2,0.4-0.3c0.6-0.4,1.2-0.9,1.9-1.3c0.1-0.1,0.2-0.2,0.3-0.3
			c0.5-0.4,1.1-0.8,1.6-1.3c0.1-0.1,0.2-0.2,0.3-0.3c0.6-0.5,1.2-1,1.7-1.5c0.1-0.1,0.2-0.2,0.4-0.3c0.5-0.5,1-0.9,1.5-1.4
			c0.1-0.1,0.1-0.1,0.2-0.2c0.4-0.4,0.7-0.7,1.1-1.1c0,0,0,0,0,0c0.2-0.2,0.3-0.4,0.5-0.5c0.1-0.1,0.2-0.3,0.4-0.4
			c0.5-0.6,1-1.1,1.5-1.7c0,0,0,0,0,0c0.5-0.6,1-1.2,1.4-1.8c0.1-0.1,0.2-0.3,0.3-0.4c0.5-0.6,0.9-1.2,1.3-1.9
			c0.1-0.1,0.1-0.2,0.1-0.2c2-3,3.7-6.2,5.1-9.6c1.4-0.7,2.7-1.5,4.1-2.2c1.7-1,3.4-2,5.1-3.1c1.7-1.1,3.2-2.5,5-3.6
			c0.4-0.3,1.1-0.8,1.6-0.8c0.5,0,0.8,0.5,1.2,0.5c0.6,0,1-0.3,1.4-0.7c1-0.8,2-1.6,2.9-2.5c0.1,0.3,0.2,0.6,0.4,0.9
			c0,0,0.2,0.2,0.5,0.1c0,0,0,0,0,0c0.5-0.3,1-0.4,1.4-0.8c0.6-0.5,1.1-1.1,1.2-1.9c0-0.5-0.1-1.1-0.2-1.6c-0.1-0.5-0.3-1-0.5-1.4
			c-0.2-0.5-0.4-1-0.6-1.4c-0.3-0.7-0.7-1.5-1-2.2c-0.3-0.7-0.7-1.5-1.1-2.2c-0.1-0.3-0.3-0.5-0.4-0.7c0,0,0-0.1-0.1-0.1
			c-0.2-0.3-0.3-0.5-0.6-0.7c-0.2-0.2-0.4-0.4-0.7-0.5c0,0,0,0,0,0c-0.3-0.1-0.6-0.2-0.9-0.3c-0.2,0-0.4,0-0.6,0c-0.1,0-0.1,0-0.2,0
			c-0.2,0-0.4,0.1-0.7,0.1c-0.1,0-0.3,0.1-0.4,0.1c-0.2,0-0.4,0.2-0.6,0.3c0,0,0,0,0,0c-0.1,0-0.1,0.1-0.1,0.1
			c-0.1,0.1-0.1,0.1-0.1,0.2c0,0,0,0,0,0l0,0c0.1,0.1,0.1,0.3,0.2,0.4c0.1,0.2,0.1,0.3,0.2,0.5c-0.7,0.1-1.5,0.1-2.3,0.2
			c-0.8,0.1-1.6,0.3-2.3,0.6c-0.2,0.1-0.4,0.2-0.6,0.4c-0.3,0.4-0.1,0.8-0.3,1.2c0,0.1-0.1,0.1-0.1,0.2c-0.1,0.1-0.2,0.2-0.3,0.2
			c-0.9,0.5-2,0.7-3,0.9c-0.8,0.2-1.5,0.3-2.3,0.5c-0.3,0.1-0.6,0.1-0.9,0.2c-0.5,0.1-0.9,0.2-1.4,0.3c-0.4,0.1-0.8,0.2-1.2,0.4
			c-0.9,0.3-1.8,0.5-2.6,0.8c-2.4,0.8-4.8,1.7-7.2,2.5c-0.4,0.1-0.6,0.2-0.9,0.5c-0.1,0.1-0.2,0.2-0.3,0.3c-0.3,0.3-0.6,0.6-0.8,0.9
			c-0.6,0.7-1.3,1.3-2,1.9c-0.7,0.6-1.3,1.1-2,1.7c-0.7,0.5-1.4,1-2.2,1.5c-0.4,0.3-0.9,0.5-1.3,0.8s-0.9,0.5-1.3,0.7
			c-1.4,0.7-2.8,1.2-4.2,1.7c-1.4,0.5-2.9,0.8-4.4,1c1.9,1.9,3.8,3.7,5.7,5.6c0.6,0.6,1.3,1.3,1.9,1.9l0,0c0.4,0.4,0.8,0.8,1.1,1.1
			c0.4,0.4,0.8,0.8,1.1,1.1c0.2,0.2,0.3,0.3,0.5,0.5c0.5,0.5,0.9,1.1,1.5,1.5c0.2,0.1,0.1,0.2,0.3,0.1c0.2,0,0.4-0.2,0.5-0.2
			c0.3-0.1,0.7-0.3,1-0.4c1.6-0.6,3.2-1.4,4.8-2.2c0.6-0.3,1.1-0.6,1.7-0.9c-1.9,3.2-4.1,6.2-6.6,8.9c-2-2-4-4.1-6.1-6.1
			c0,0-0.1-0.1-0.1-0.1c-1.6-1.6-3.2-3.2-4.8-4.8c-1.5-1.4-2.9-3-4.4-4.4c-0.4-0.4-0.9-1-1.4-1.3c-0.2-0.1-0.4-0.1-0.7-0.1
			c0,0-1.3,0.1-1.7,0.1c-1.6-0.1-3.2-0.3-4.7-0.6c-2-0.4-3.9-1-5.8-1.8c-0.6-0.2-1.1-0.5-1.6-0.8c-0.2-0.1-0.3-0.2-0.5-0.3
			c-0.6-0.3-1.3-0.7-1.9-1.1c-3.5-2.2-6.5-5-8.8-8.4c-1.4-2-2.5-4.2-3.4-6.5c-3.5-3.1-7.1-6.2-10.9-8.9c-0.5-0.4-1.1-0.7-1.6-1.1
			c-0.6-0.4-1.2-0.7-1.8-1.1c-0.5-0.3-1.1-0.7-1.6-1c0,0-0.1-0.1-0.1-0.1c-0.4-0.3-0.9-0.6-1.2-1c-0.3-0.3-0.4-0.5-0.3-0.9
			c0.2-1.1-0.4-1.6-1.2-2.1c-1-0.6-2.1-1.2-3.2-1.8c0.3-0.3,0.5-0.5,0.8-0.8c0.1-0.1-0.3-0.4-0.3-0.4l0,0c-0.7-0.6-1.4-1.1-2.4-1.3
			c-1.4-0.3-2.5,0.6-3.5,1.6c-1.3,1.2-2.5,2.5-3.7,3.7c-1,1.1-2.6,2.5-2.2,4.2c0.2,0.8,0.8,2,1.5,2.5c0.3,0.2,0.3,0.1,0.5-0.2
			c0.2-0.2,0.4-0.4,0.5-0.6c0.2,0.3,0.3,0.6,0.5,0.9c0.3,0.5,0.5,0.9,0.8,1.4c0.2,0.3,0.4,0.7,0.6,1c0.1,0.1,0.2,0.3,0.3,0.4
			c0.2,0.4,0.5,0.7,0.9,0.8c0.4,0.1,0.9-0.2,1.3-0.1c0.4,0.1,0.8,0.7,1.1,1c1.4,1.8,2.5,3.8,3.8,5.6c1.4,1.8,2.8,3.6,4.3,5.4
			c3.6,4.3,7.4,8.5,11.2,12.6c0,0,0.1,0.1,0.1,0.1c0.4,0.4,0.8,0.8,1.3,1.3c0.4,0.4,0.9,0.8,1.3,1.2c0.5,0.5,1.1,1,1.6,1.6
			c1.8,2,3.2,4.4,4,7.1c0.4,1.5,0.6,2.9,1.1,4.3c0.5,1.3,1.1,2.5,1.9,3.7c1.3,2,3,3.8,4.7,5.4c2.4,2.3,4.7,4.6,7,6.9
			c-1.1,0.2-2.1,0.3-3.2,0.3c-1.6-1.5-3.1-3.2-4.7-4.7c-2-1.9-4-3.9-5.6-6.2c-1-1.4-1.8-2.8-2.4-4.4c-0.6-1.6-0.8-3.3-1.3-5
			c-0.4-1.4-1.1-2.7-1.9-4c-0.4-0.5-0.7-1-1.2-1.5c-0.3-0.4-0.4-0.2-0.8,0c-0.3,0.1-0.7,0.3-1,0.4c-2.7,1.2-5.5,2.5-8.2,3.8
			c-4.3,1.9-8.5,3.9-12.8,5.9c-1.8-1.9-3.4-4-4.9-6.2c-0.3-0.5-0.6-0.9-0.9-1.4c-0.3-0.5-0.5-0.9-0.8-1.4
			c-4.1-7.2-6.5-15.5-6.5-24.3c0-1.9,0.1-3.7,0.3-5.5c0.1-0.6,0.1-1.1,0.2-1.7c0.1-0.6,0.2-1.1,0.3-1.7
			c4.1-22.4,23.4-39.5,46.8-40.3c0.9-0.9,1.8-1.7,2.7-2.6c0.9-0.8,1.7-1.5,2.6-2.2l0.1,0l0.1,0c0.1,0,0.1-0.1,0.2-0.1
			c-1.3-0.1-2.7-0.2-4.1-0.2c-17.5,0-33.1,8.3-43,21.2c-5.7,7.3-9.5,16.1-10.8,25.8c-0.1,0.5-0.2,1.1-0.2,1.7
			c-0.1,0.5-0.1,1.1-0.1,1.6l-26.3,7.1l-2.5,0.7L8.4,115l-3.9,1c-1.6,0.4-2.7,2.1-2.6,3.8l2.2,24.8c0.1,1.4,1.1,2.3,2.4,2.3
			c0.2,0,0.5,0,0.7-0.1l8.1-2.2l2.5-0.7L20.2,143.4z M17.5,134.8c-0.1,0.2-0.3,0.4-0.5,0.5c-0.6,0.6-1.3,1.2-2.1,1.6
			c-0.5,0.2-0.9,0.4-1.5,0.6c-0.3,0.1-0.6,0.1-0.9,0.2c-2.6,0.3-4.4-1.3-5-3.5c-0.6-2.2,0.3-4.6,2.6-5.7c0,0,0.1,0,0.1-0.1
			c0,0-0.1-0.1-0.1-0.1c-1.3-1.1-2.1-3.7-0.9-5.7c0.5-0.8,1.2-1.4,2.3-1.8c0.2-0.1,0.4-0.2,0.7-0.2c0.7-0.2,1.3-0.2,1.8-0.1
			c2,0.5,3.1,2.8,2.7,5l-1.9,0.5l-1,0.3c0.2-1.2-0.1-3.3-1.2-3c-0.3,0.1-0.6,0.3-0.7,0.6c-0.4,0.8-0.2,2,0.5,2.8
			c0.4,0.5,1.1,0.9,1.9,0.9l-0.3,2.6c-0.3,0-0.6,0-0.9,0c-0.3,0-0.6,0.1-0.9,0.1c-0.7,0.2-1.2,0.5-1.5,0.9c-1,1.2-0.6,3.1,0.9,3.5
			c0.4,0.1,0.9,0.1,1.4,0c0.4-0.1,0.7-0.2,1.1-0.4c0.9-0.5,1.6-1.1,2.1-1.9c0.2-0.3,0.3-0.5,0.4-0.8l-0.5-0.1c0.4-1.3,0.9-3.6,2.4-6
			c0,0,2.5-0.7,2.7-0.7c-0.1,2.2,1.3,4.2,1.9,6.1c0,0.2,0.1,0.3,0.1,0.5c0.7-0.1,1.2-1.1,1.5-2.2l0,0c0-0.2,0.1-0.4,0.1-0.7l0.7-4.9
			l-1.5,0.4l0.3-2.3l1.5-0.4l0.4-2.8l2.7-0.7c0,0-0.2,1.2-0.4,2.8l1.7-0.4c0,0-0.3,2.2-0.3,2.3l-1.7,0.4c-0.4,2.8-0.9,6.2-1,6.5
			c-0.1,0.9,0.3,1.5,1,1.3c0.8-0.2,1.3-1,1.6-2.1c-0.4-2.8,0.8-6.4,4-7.3c0.8-0.2,1.4-0.1,1.9,0.1l0.9-5.7l2.7-0.7
			c-0.4,2.8-1.7,11-1.7,11.3c-0.2,1.1,0.2,1.8,1,1.6c1-0.3,1.5-1.4,1.9-3l1,0.2l0,0l1.2,0.3c-0.1,0.7-0.3,1.3-0.6,1.9l0,0
			c-0.7,1.7-2,3-3.8,3.5c-0.9,0.2-1.7,0-2.2-0.5c-0.4,0.7-1,1.4-2.2,1.7c-1.2,0.3-2.2,0-2.8-0.7c-0.8,1.1-1.9,2-3.2,2.4
			c-1.1,0.3-2-0.1-2.6-0.8c-0.6,0.5-1.2,0.8-1.8,0.9c-0.2,0-0.3,0.1-0.5,0.1c-0.4,0.8-1.2,1.4-2.3,1.7
			C19.1,135.9,18.1,135.5,17.5,134.8z"/>
		<path d="M159.7,84.9c0,0-0.1,0-0.1,0c-0.7,0.2-1.6,1.3-2.3,4.4c0,0,0,0,0,0.1c0,0.1,0,0.1,0,0.2c-0.1,0.5-0.2,1-0.3,1.5
			c0,0,0,0,0,0c-0.6,3.7,0.2,5,0.9,5c0,0,0.1,0,0.1,0c0.7-0.2,1.6-1.3,2.3-4.4c0,0,0,0,0-0.1c0-0.1,0-0.1,0-0.2
			c0.1-0.5,0.2-1,0.3-1.5c0,0,0,0,0,0C161.1,86.1,160.4,84.8,159.7,84.9z"/>
		<path d="M116.9,131.5c-0.4-0.4-0.7-0.8-1.2-1.2C116.2,130.7,116.6,131.2,116.9,131.5z"/>
		<path class="st3" d="M119,17.8c0.2,0.3,0.3,0.6,0.5,0.9c0.6,1.2,1.2,2.5,1.6,3.8c0.3,1,0.6,2,0.8,3c0.1,0.7,0.2,1.4,0.3,2.2
			c0,0.7,0.1,1.5,0,2.2c0,0,0,0.1,0,0.1c0,0.7-0.1,1.5-0.3,2.3c0,0.1,0,0.2-0.1,0.3c-0.2,0.8-0.3,1.5-0.6,2.3c0,0,0,0.1,0,0.1
			c-0.3,1-0.6,1.9-1,2.9c-0.2,0.5-0.4,1-0.6,1.6c-0.2,0.6-0.5,1.2-0.8,1.8c-0.3,0.6-0.7,1.2-1,1.8c-0.2,0.3-0.4,0.6-0.6,0.9
			c-0.7,0.9-1.4,1.9-2.4,2.9c-0.3,0.3-0.6,0.6-0.9,0.9c-1.6,1.5-3.3,3-5.1,4.4c-1.2,0.9-2.4,1.9-3.6,2.8c-0.9,0.7-1.8,1.4-2.8,2.1
			c-0.3,0.2-0.6,0.5-0.9,0.7c-0.6,0.5-1.2,0.9-1.8,1.4c-0.1,0-0.1,0.1-0.2,0.1c-0.9,0.8-1.8,1.5-2.7,2.4c-0.8,0.7-1.6,1.5-2.4,2.3
			c-0.3,0.3-0.5,0.6-0.8,0.9c-0.5,0.6-1,1.2-1.5,1.8c-1.7,2.1-2.9,4.3-3.6,6.8c-1.1,4.4-0.8,8.5,0.3,12.8c0.2,1,0.5,1.9,0.9,2.9
			c0.1,0.3,0.2,0.6,0.3,1c0.1,0.2,0.1,0.3,0.2,0.5c0.1,0.3,0.2,0.6,0.4,1c0.2,0.5,0.4,1,0.6,1.4c0.1,0.2,0.2,0.4,0.2,0.6
			c0.4,1,1.2,2.8,1.1,2.6c0-0.1-0.1-0.2-0.1-0.2c-0.1-0.1-0.1-0.3-0.2-0.4c-0.1-0.1-0.1-0.2-0.2-0.3c-0.1-0.1-0.2-0.3-0.3-0.4
			c-0.1-0.1-0.2-0.2-0.2-0.3c-0.1-0.1-0.2-0.3-0.3-0.4c-0.1-0.1-0.2-0.2-0.3-0.3c-0.1-0.1-0.2-0.3-0.3-0.4c0,0-0.1-0.1-0.1-0.1
			C90.1,93,90,92.9,90,92.8c-0.1-0.1-0.2-0.3-0.4-0.4c-0.1-0.1-0.3-0.2-0.4-0.4c-0.1-0.1-0.2-0.2-0.3-0.2c-0.1,0-0.1-0.1-0.2-0.1
			c-0.1-0.1-0.3-0.2-0.4-0.3c-0.2-0.1-0.3-0.2-0.5-0.4c-0.2-0.1-0.3-0.2-0.5-0.3c0,0,0,0,0,0c-0.2-0.1-0.3-0.2-0.5-0.3
			c-0.2-0.1-0.3-0.2-0.5-0.3c-0.2-0.1-0.4-0.2-0.6-0.3c-0.2-0.1-0.4-0.2-0.5-0.3c-0.2-0.1-0.4-0.2-0.6-0.3c-0.2-0.1-0.4-0.2-0.6-0.2
			c-0.2-0.1-0.4-0.2-0.6-0.2c-0.2-0.1-0.4-0.1-0.6-0.2c-0.2-0.1-0.4-0.1-0.7-0.2c-0.2-0.1-0.4-0.1-0.6-0.1c-0.2-0.1-0.5-0.1-0.7-0.1
			c-0.2,0-0.4-0.1-0.7-0.1c-0.2,0-0.5-0.1-0.7-0.1c-0.2,0-0.5,0-0.7,0c-0.3,0-0.6,0-0.9,0c-0.1,0-0.2,0-0.2,0
			c-0.3,0.1-0.4,0.4-0.4,0.7c0,0.1,0,0.2,0.1,0.3c0.1,0.1,0.1,0.2,0.3,0.2c0,0,0,0,0,0c0.5,0.3,1,0.5,1.4,0.9c0,0,0.1,0.1,0.1,0.1
			c0.4,0.3,0.8,0.6,1.2,0.9c0.1,0,0.1,0.1,0.2,0.1c0.4,0.3,0.7,0.7,1,1c0,0,0.1,0.1,0.1,0.1c0,0,0,0,0,0c0.3,0.4,0.6,0.8,0.8,1.2
			c0,0,0,0.1,0.1,0.1c0,0,0,0,0,0.1c0.3,0.5,0.5,0.9,0.7,1.4c0.6,1.4,1,2.8,1.2,4.3c0.1,0.4,0.1,0.8,0.1,1.2c0,0,0,0.2,0,0.4
			c0,0.4,0.1,1,0.2,1.6c0,0,0,0,0,0c0.4,2,0.9,3.8,1.6,5.6l0.1,0.1c0.3,0.7,0.6,1.4,0.9,2c0.3,0.7,0.8,1.4,1.2,2.1l0.1,0.2
			c0.4,0.6,0.7,1.1,1.2,1.7c0.1,0.1,0.2,0.3,0.3,0.4c0.2,0.3,0.8,0.9,1,1.2c0.2,0.3,0.5,0.5,0.8,0.8c0.3,0.4,0.7,0.7,1,1
			c0.2,0.2,0.4,0.4,0.6,0.6c0.4,0.3,0.7,0.6,1.1,0.9c0.3,0.2,0.5,0.4,0.7,0.5c0.4,0.3,0.7,0.5,1.2,0.8c0.3,0.2,0.5,0.3,0.7,0.5
			c0.4,0.3,0.9,0.5,1.3,0.8c0.2,0.1,0.4,0.3,0.6,0.4c0,0,0,0,0,0c0.5,0.3,1,0.5,1.5,0.7c0.3,0.1,0.8,0.2,1.4-0.3
			c0.4-0.4,1.2-1,1.8-1.7c0.2-0.2,0.3-0.4,0.5-0.5c2.7-3.4,2.8-7.3,1.7-11.1c-0.2-0.6-0.4-1.2-0.6-1.8c-0.2-0.6-0.5-1.2-0.8-1.8
			c0,0,0,0,0,0c-1.4-3.1-3.3-6-4.8-8.3c-0.2-0.3-0.4-0.6-0.5-0.8c0,0-0.1-0.1-0.1-0.1c-0.2-0.3-0.4-0.6-0.6-0.9
			c-0.1-0.3-0.3-0.6-0.5-0.9c-0.3-0.5-0.6-1.1-0.9-1.8c-0.2-0.4-0.4-0.9-0.6-1.4c-0.1-0.3-0.2-0.6-0.4-0.9c-0.1-0.2-0.1-0.3-0.2-0.5
			c-0.1-0.4-0.3-0.8-0.4-1.3c0-0.1,0-0.1-0.1-0.2c-0.6-2.2-1-4.7-0.7-7.3c0-0.5,0.1-0.9,0.2-1.4c0.4-2.5,1.4-5.2,3.2-7.9
			c0.2-0.2,0.3-0.5,0.5-0.7c0.6-0.9,1.3-1.7,2.1-2.6c1.6-1.7,3.7-3.4,6.2-5.1c0.6-0.4,1.2-0.8,1.9-1.2c0,0,0,0,0,0
			c0.1-0.1,0.2-0.1,0.3-0.1c0,0,0.1,0,0.1,0c0.1,0,0.1,0,0.2,0c0,0,0.1,0,0.1,0c0.1,0,0.1,0,0.2,0c0,0,0,0,0.1,0
			c0.1,0,0.1,0.1,0.2,0.1c0,0,0,0,0,0c0.1,0.1,0.1,0.1,0.2,0.2c0,0,0,0,0,0.1c0,0.1,0,0.1,0.1,0.2c0,0,0,0.1,0,0.1
			c0,0.1,0,0.1,0,0.2c0,0,0,0.1,0,0.1c0,0.1,0,0.2-0.1,0.3c-0.1,0.3-0.2,0.6-0.4,0.9c-0.6,1.6-0.9,3.2-1,4.8c-0.1,0.9-0.1,1.8,0,2.7
			c0.1,0.8,0.2,1.6,0.4,2.4c0.1,0.6,0.3,1.1,0.5,1.7c0.1,0.4,0.3,0.9,0.4,1.3c0.5,1.6,1.2,3.1,1.9,4.7c0.3,0.5,0.5,1.1,0.8,1.6
			c0.1,0.1,0.2,0.3,0.2,0.5c0.2,0.5,0.5,0.9,0.7,1.4c0.2,0.4,0.5,0.9,0.7,1.4c0,0.1,0.1,0.2,0.1,0.3c0.3,0.6,0.7,1.3,1.1,1.9
			c0.4,0.7,0.8,1.3,1.2,2c0.4,0.7,0.9,1.4,1.3,2c1.1,1.7,2.1,3.4,3,5.2c0.3,0.7,0.6,1.4,0.9,2.1c0.4,1,0.7,2,0.9,3
			c0.1,0.7,0.2,1.3,0.2,2c0,0.1,0,0.1,0,0.2c0,0.7,0.1,1.3,0,2c0,0,0,0,0,0c0,0.7-0.1,1.4-0.2,2c0,0,0,0,0,0c-0.1,0.7-0.2,1.3-0.4,2
			c-0.1,0.5-0.3,1-0.4,1.5c-0.2,0.5-0.4,1-0.6,1.5c-0.4,0.8-0.8,1.5-1.3,2.3c-0.5,0.7-1,1.4-1.6,2c-0.8,0.8-1.7,1.6-2.8,2.3
			c-2.4,1.6-5.4,2.9-9.2,3.6c0,0-0.2,0-0.2,0.2c0,0.1,0.1,0.1,0.2,0.2c1,0.2,2,0.3,2.9,0.3c8.3,0.5,16.1-2.7,21.6-8.4
			c0.6-0.6,1.2-1.3,1.7-2c0,0,0.1-0.1,0.1-0.1c0.2-0.3,0.4-0.6,0.6-0.9c0.1-0.1,0.2-0.3,0.3-0.4c0.2-0.2,0.3-0.5,0.5-0.7v0
			c0.3-0.4,0.6-0.9,0.8-1.3c0.8-1.4,1.5-2.9,2-4.4c0.2-0.5,0.3-1,0.4-1.5c0-0.2,0.1-0.3,0.1-0.5c0.1-0.3,0.1-0.5,0.1-0.8
			c0-0.3,0.1-0.7,0.1-1c0-0.2,0-0.3,0-0.5c0-0.4,0-0.7,0.1-1.1c0-0.3,0-0.6,0-0.8c0-0.2,0-0.5,0-0.7c-0.1-2.4-0.7-5.1-1.8-8
			c-1.5-4.2-2.7-7.6-3.6-10.4c0,0,0,0,0,0c-0.1-0.3-0.2-0.5-0.2-0.8c-0.1-0.2-0.1-0.5-0.2-0.7c-0.1-0.5-0.3-1-0.4-1.5
			c-0.2-0.7-0.3-1.4-0.5-2.1c-0.1-0.4-0.1-0.8-0.2-1.2c0-0.1,0-0.3-0.1-0.4c-0.1-0.5-0.1-1-0.1-1.4c0-0.7,0-1.4,0-2
			c0-0.2,0-0.3,0-0.4c0-0.3,0.1-0.7,0.2-1c0.1-0.2,0.1-0.4,0.2-0.6c0.1-0.3,0.2-0.5,0.3-0.8c0.1-0.1,0.1-0.3,0.2-0.4
			c0.4-0.9,1-1.8,1.7-2.7c0-0.1,0.1-0.1,0.1-0.2c0,0,0,0,0-0.1c0,0,0-0.1,0-0.1c0,0,0-0.1,0-0.1c0,0,0-0.1,0-0.1c0,0,0,0,0-0.1
			c0,0,0-0.1-0.1-0.1c0,0,0,0,0-0.1c0,0-0.1-0.1-0.1-0.1c0,0,0,0,0,0c-0.1,0-0.1-0.1-0.2-0.1c0,0,0,0,0,0c0,0-0.1,0-0.2,0
			c-0.1,0-0.2,0-0.3,0.1c-1.2,0.6-2.3,1.3-3.3,2.1c-0.7,0.6-1.3,1.3-1.9,1.9c-0.2,0.3-0.5,0.6-0.7,0.9c-0.3,0.4-0.6,0.8-0.9,1.2
			c0,0.1-0.1,0.1-0.1,0.2c-0.4,0.7-0.8,1.4-1.2,2.1c-0.3,0.6-0.6,1.2-0.8,1.7c-0.3,0.7-0.5,1.3-0.7,2c-0.3,0.9-0.5,1.8-0.6,2.5
			c-2.9-2.8-3.9-6.4-3.1-9.8c0-0.1,0-0.2,0.1-0.2c0.1-0.4,0.2-0.9,0.4-1.3c0.1-0.4,0.3-0.8,0.5-1.3c0.2-0.6,0.4-1.1,0.7-1.7
			c0.1-0.2,0.2-0.5,0.4-0.7c0.3-0.7,0.7-1.4,1-2.1c0.5-0.9,1-1.9,1.4-2.8c0.2-0.5,0.5-0.9,0.7-1.4c0.6-1.2,1.1-2.3,1.6-3.4
			c0.5-1,0.9-2,1.4-2.9c0.8-1.8,1.5-3.6,2.2-5.9c0.6-2.1,0.9-4.3,0.9-6.5c0-0.7,0-1.4-0.1-2c0-0.3-0.1-0.6-0.1-0.9
			c-0.1-1-0.3-2.1-0.5-3.1c-0.1-0.4-0.2-0.9-0.3-1.3c-0.4-1.2-0.8-2.4-1.6-4c-0.7-1.3-1.6-2.8-2.9-4.6c-1.4-1.8-3.1-3.9-5.5-6.5
			c-0.1-0.1-0.1-0.1-0.2-0.2c0,0-0.1,0-0.1,0c-0.1,0-0.1,0-0.2,0c-0.1,0-0.1,0-0.2,0c0,0,0,0,0,0c-0.1,0-0.1,0-0.1,0.1c0,0,0,0,0,0
			c0,0-0.1,0.1-0.1,0.1c0,0,0,0,0,0c0,0.1-0.1,0.1-0.1,0.2c0,0,0,0,0,0.1c0,0.1,0,0.1,0,0.2c0,0,0,0,0,0.1
			C118.9,17.6,118.9,17.7,119,17.8z"/>
		<polygon points="22.5,92.4 20.8,101.8 32.1,103.9 32.9,99.9 29,99.2 29.8,94.8 26.8,94.2 26,98.6 24.5,98.3 25.5,92.9 		"/>
		<rect x="27.5" y="83.7" transform="matrix(0.3158 -0.9488 0.9488 0.3158 -64.6493 89.2711)" width="4.1" height="11.5"/>
		<path d="M39.4,81.2l2-3.9l-5.3,0.5c0-0.4,0-0.8,0-1.2c-0.2-1-0.9-1.8-2-2.4c-1-0.5-2-0.5-2.9-0.1c-1,0.4-1.8,1.3-2.5,2.6l-2.8,5.6
			l10.3,5.2L38,84l-3.4-1.7l0.5-1L39.4,81.2z M32.9,79.7l-0.7,1.4l-1.9-1l0.7-1.4c0.2-0.4,0.4-0.6,0.7-0.8c0.2-0.1,0.5-0.1,0.9,0.1
			c0.4,0.2,0.6,0.4,0.6,0.7C33.2,78.9,33.1,79.3,32.9,79.7z"/>
		<polygon points="48,68.9 45.6,67.1 42.1,71.6 41,70.8 43.7,67.3 41.6,65.6 38.8,69.1 37.7,68.2 41.1,63.8 38.7,62 32.8,69.6 
			42,76.7 		"/>
		<polygon points="52.7,58.8 56.2,61.7 59.5,58.9 54.9,47.9 51.6,50.5 55.7,57.8 49.2,52.4 46.5,54.6 50.4,62.2 44.2,56.5 
			40.7,59.2 50.5,66.2 54,63.4 52,59.4 50.5,56.9 50.5,56.8 		"/>
		<path d="M67.5,52.3l1.4,1.8l3.8-1.8l-2.9-3.1l-5.5-5.7l-4.4,2.1l1.6,12l3-1.4l0.7-0.3L65,55.4l-0.4-1.7l2.6-1.2L67.5,52.3z
			 M64.1,51.1l-0.4-1.9l-0.4-2l0,0l1.3,1.6l1.2,1.5L64.1,51.1z"/>
		<polygon points="79.6,38.5 78.5,38.8 68.7,41.5 69.5,44.4 73,43.5 73.4,44.7 75.3,51.7 79.2,50.6 76.9,42.4 80.4,41.4 		"/>
		<path d="M106.6,42c0.1-1.1-0.2-2-0.9-2.8c-0.7-0.7-1.8-1.2-3.3-1.4l-6.2-0.6l-1.2,11.5l4,0.4l0.4-3.8l1.1,0.1l1.6,4l4.4,0.4
			l-2.4-4.7c0.4-0.1,0.8-0.2,1.1-0.4C106,44.1,106.5,43.2,106.6,42z M102.1,42.6c-0.2,0.1-0.6,0.2-1,0.1l-1.6-0.2l0.2-2.1l1.6,0.2
			c0.4,0,0.7,0.2,0.9,0.3c0.2,0.2,0.3,0.5,0.2,0.9C102.5,42.3,102.3,42.5,102.1,42.6z"/>
		<path d="M46.1,166.7l5.5-10.8l-3.5-3.5l-10.8,5.5l2.9,2.9l1.9-1.2l2.2,2.2l-1.2,1.9L46.1,166.7z M46.1,157.2l1.7-1.1l0,0l-1.1,1.7
			l-1,1.6l-1.3-1.3L46.1,157.2z"/>
		<path d="M53.9,168.1l1.7,1.1c0.9,0.6,1.7,0.9,2.5,1.1c0.8,0.1,1.5,0.1,2.1-0.2c0.6-0.3,1.2-0.8,1.7-1.5c0.5-0.7,0.7-1.4,0.8-2.2
			c0-0.7-0.2-1.4-0.6-2.1c-0.4-0.7-1.1-1.3-1.9-1.9l-5.1-3.4l-6.4,9.6l3.4,2.3L53.9,168.1z M56.8,163.7l1.1,0.8
			c0.4,0.2,0.6,0.5,0.7,0.8c0.1,0.3,0,0.6-0.2,1c-0.2,0.3-0.5,0.5-0.8,0.5c-0.3,0-0.7-0.1-1-0.3l-1.1-0.8L56.8,163.7z"/>
		<path d="M66.1,174.9l1.9,0.8c1,0.4,1.8,0.6,2.6,0.6c0.8,0,1.5-0.2,2-0.7c0.6-0.4,1-1,1.4-1.8c0.3-0.8,0.4-1.6,0.3-2.3
			c-0.1-0.7-0.4-1.3-1-1.9c-0.5-0.6-1.3-1-2.3-1.4l-5.7-2.3L61,176.5l3.8,1.5L66.1,174.9z M68.1,170l1.3,0.5
			c0.4,0.2,0.7,0.4,0.9,0.7c0.2,0.3,0.2,0.6,0,1c-0.2,0.4-0.4,0.6-0.7,0.7s-0.7,0-1.1-0.1l-1.3-0.5L68.1,170z"/>
		<path d="M78,180l3.1,0.6l0.1,2.3l4.1,0.8l-1.4-12.1l-4.8-1l-6,10.6l4,0.8L78,180z M80,175.9l0.8-1.8l0.1,0l0.1,2L81,178l-1.9-0.4
			L80,175.9z"/>
		<path d="M95.7,183.9l4.4-0.1l-2.9-4.4c0.4-0.2,0.7-0.3,1-0.6c0.8-0.7,1.2-1.6,1.1-2.9c0-1.1-0.4-2-1.3-2.6c-0.8-0.7-2-1-3.5-0.9
			l-6.3,0.1l0.2,11.5l4-0.1l-0.1-3.8l1.1,0L95.7,183.9z M92.5,177.5l0-2.1l1.6,0c0.4,0,0.8,0.1,1,0.2c0.2,0.2,0.3,0.4,0.3,0.8
			c0,0.4-0.1,0.7-0.3,0.8c-0.2,0.2-0.5,0.2-1,0.3L92.5,177.5z"/>
		<polygon points="110.3,170.4 100.9,172.2 103,183.6 112.6,181.7 112.1,178.8 106.4,179.9 106.2,178.5 110.6,177.7 110,175 
			105.7,175.8 105.4,174.4 110.8,173.4 		"/>
		<polygon points="124.5,177.5 123.4,174.7 118.5,176.5 115.5,168.5 111.7,170 115.7,180.8 		"/>
		<path d="M132.5,162.5c0.3-0.3,0.7-0.4,1.1-0.4c0.4,0,0.8,0.3,1.3,0.9l2-3.2c-0.6-0.6-1.3-0.9-2-1c-0.7-0.1-1.4-0.1-2.2,0.2
			c-0.7,0.2-1.4,0.6-2.1,1.1c-1,0.7-1.7,1.5-2.1,2.4c-0.4,0.9-0.6,1.8-0.4,2.8c0.1,1,0.6,2,1.3,3c0.7,1,1.6,1.7,2.5,2.2
			c0.9,0.4,1.8,0.6,2.8,0.4c1-0.1,2-0.6,2.9-1.3c0.7-0.5,1.3-1.1,1.7-1.7c0.4-0.6,0.7-1.3,0.8-2c0.1-0.7-0.1-1.5-0.4-2.4l-3.5,1.4
			c0.3,0.5,0.4,0.9,0.3,1.3c-0.1,0.4-0.3,0.7-0.6,0.9c-0.4,0.3-0.7,0.4-1.1,0.4c-0.3,0-0.7-0.1-1.1-0.4c-0.4-0.3-0.7-0.7-1.1-1.2
			c-0.4-0.5-0.7-1-0.8-1.4c-0.1-0.4-0.2-0.8-0.1-1.1C131.9,163.1,132.1,162.8,132.5,162.5z"/>
		<path d="M145.6,162c0.9-0.3,1.8-1,2.6-1.8c0.8-0.9,1.4-1.8,1.6-2.8c0.2-1,0.2-1.9-0.1-2.9c-0.3-0.9-1-1.8-1.9-2.7
			c-0.9-0.9-1.9-1.4-2.8-1.7c-1-0.3-1.9-0.2-2.9,0.1c-0.9,0.3-1.8,0.9-2.6,1.9c-0.8,0.9-1.4,1.8-1.6,2.8c-0.2,1-0.2,1.9,0.1,2.9
			c0.3,0.9,1,1.8,1.9,2.7c0.9,0.8,1.9,1.4,2.9,1.6C143.7,162.4,144.7,162.3,145.6,162z M141.6,156.2c-0.2-0.4-0.3-0.7-0.3-1
			c0-0.3,0.2-0.6,0.4-0.9c0.3-0.3,0.6-0.5,0.9-0.5c0.3,0,0.7,0,1.1,0.2s0.8,0.5,1.3,1c0.5,0.4,0.9,0.9,1.1,1.2
			c0.2,0.4,0.3,0.7,0.3,1c0,0.3-0.2,0.6-0.4,0.9s-0.6,0.5-0.9,0.5c-0.3,0-0.7,0-1.1-0.2c-0.4-0.2-0.8-0.5-1.3-1
			C142.2,156.9,141.8,156.5,141.6,156.2z"/>
		<path d="M152.1,152.4c0.5,0.3,1,0.4,1.5,0.3c0.5-0.1,0.9-0.5,1.3-1c0.4-0.6,0.5-1.1,0.5-1.6c-0.1-0.5-0.3-0.9-0.8-1.2
			c-0.5-0.3-1-0.4-1.5-0.3c-0.5,0.1-0.9,0.5-1.3,1c-0.4,0.6-0.5,1.1-0.5,1.6C151.3,151.7,151.6,152.1,152.1,152.4z"/>
		<path d="M151.2,143.3l0.8-1.3l-1.6,0c0-0.1,0-0.3,0-0.4c-0.1-0.3-0.3-0.6-0.6-0.8c-0.2-0.1-0.4-0.2-0.6-0.2
			c-0.2,0-0.4,0.1-0.6,0.2c-0.2,0.1-0.3,0.3-0.5,0.5l-1,1.7l3.2,1.8l0.6-1.1l-1-0.6l0,0L151.2,143.3z M149.3,142.5l-0.1,0.2
			l-0.5-0.3l0.1-0.2c0.1-0.1,0.1-0.2,0.2-0.2c0.1,0,0.1,0,0.2,0s0.1,0.1,0.1,0.2C149.4,142.3,149.3,142.4,149.3,142.5z"/>
		<path d="M152.5,144.3c0.3-0.6,0.5-1.2,0.5-1.8c0-0.6-0.1-1.2-0.4-1.7c-0.3-0.5-0.7-1-1.3-1.3c-0.6-0.3-1.2-0.5-1.8-0.5
			c-0.6,0-1.2,0.2-1.7,0.5c-0.5,0.3-0.9,0.8-1.3,1.4c-0.3,0.6-0.5,1.2-0.5,1.8c0,0.6,0.1,1.2,0.4,1.7c0.3,0.5,0.7,1,1.4,1.3
			c0.6,0.3,1.2,0.5,1.8,0.5c0.6,0,1.2-0.2,1.7-0.5C151.8,145.4,152.2,144.9,152.5,144.3z M149.6,145.2c-0.4,0-0.9-0.1-1.3-0.4
			c-0.4-0.3-0.8-0.6-1-0.9c-0.2-0.4-0.3-0.8-0.3-1.2c0-0.4,0.1-0.9,0.4-1.3c0.3-0.4,0.6-0.8,0.9-1c0.4-0.2,0.8-0.3,1.2-0.3
			c0.4,0,0.9,0.1,1.3,0.4c0.4,0.2,0.8,0.6,1,0.9c0.2,0.4,0.3,0.8,0.3,1.2c0,0.4-0.1,0.9-0.4,1.3c-0.3,0.4-0.6,0.8-0.9,1
			C150.4,145.1,150,145.2,149.6,145.2z"/>
		<path class="st3" d="M128.4,63.7c0.9-0.8,1.5-3.5,5-4.6c4-1.2,6.5-6.5,6.5-9.3c0-0.3-0.4-0.5-0.6-0.2c-1.1,1.3-2,3.4-5.5,4.5
			c-3.9,1.3-6,7-6.1,9.2C127.8,63.7,128.2,63.9,128.4,63.7z"/>
		<path class="st3" d="M146.6,57.6c-7,3.5-8.5,9.9-8.4,14.3c0,0.3,0.3,0.5,0.5,0.5c0.2,0,0.3-0.1,0.4-0.2c1.4-2.3,4.3-6.9,10.1-9.5
			c2.5-1.2,4.1-2.9,5.1-4.8c0.5-0.9,0.8-1.7,1.1-2.6c0.3-1.1,0.5-2.2,0.5-3.2c0.1-1.6-0.1-2.8-0.3-3.3c-0.1-0.2-0.2-0.3-0.4-0.3
			c0,0-0.1,0-0.1,0c-0.4,0.1-0.4,0.8-0.8,2c-0.2,0.7-0.6,1.5-1.3,2.3c-0.4,0.6-1,1.2-1.8,1.8C150.3,55.5,148.7,56.5,146.6,57.6z"/>
		<polygon points="92.2,37.2 82.6,38 83.6,49.5 93.4,48.7 93.1,45.7 87.4,46.2 87.3,44.8 91.7,44.5 91.5,41.7 87.1,42.1 87,40.6 
			92.5,40.2 		"/>
	</g>
</g>
</svg>
