<?xml version="1.0" encoding="UTF-8"?>
<svg id="Layer_1" data-name="Layer 1" xmlns="http://www.w3.org/2000/svg" width="3.125in" height="1.528in" viewBox="0 0 225 110">
  <path d="M37.264,75.757l11.524-39.39-7.054,2.732c-.295,.303-1.552,4.677-1.865,5.676-1.2,3.825-2.124,7.635-3.262,11.509-1.696,5.774-4.573,16.423-6.423,21.893-.026,.076-.106,.305-.14,.38-.141,.222-.203,.375-.347,.59-.64-1.775-2.037-4.417-1.64-5.904,.666-2.502,3.782-11.766,3.9-13.461-1.537,.498-3.026,1.156-4.535,1.74-1.112,.431-1.784,.694-2.388,.962-.119,.374-.17,.767-.394,1.494-.336-.299-.138-.111-.522-.491-.117-.135-.228-.252-.469-.491l-5.596,2.013c.883,2.653,3.619,8.158,3.105,10.157l-2.494,7.719L5.806,47.596,0,49.619l16.433,45.172c7.543-2.641,5.506-.856,7.213-6.224,.405-1.276,.824-3.122,1.323-4.117l2.484,6.639,5.927-2.095c.356-.305,2.532-8.265,3.027-9.892,.391-1.283,.475-2.087,.857-3.346Z" fill="#80141f"/>
  <path d="M123.447,84.731c-2.604-.869-8.072-4.298-9.799-8.498l43.105-15.709-2.083-5.735-43.153,15.709c-1.261-4.638,.547-10.036,2.011-12.726,2.266-4.161,5-6.155,10.304-8.82l-2.083-5.827c-7.055,2.029-12.191,8.632-14.207,12.848-5.857,12.249-.615,27.572,12.161,33.822,3.883,1.9,12.932,3.808,19.318,.809l-2.052-5.681c-6.403,1.465-8.612,1.448-13.522-.191Z" fill="#80141f"/>
  <path d="M97.858,67.158c-2.702-2.483-5.448-3.633-8.276-4.707-7.28-2.766-13.446-1.031-22.118,2.31l16.037,44.167c9.094-2.676,14.438-6.065,18.367-12.333,5.692-9.08,4.9-21.248-4.011-29.437Zm1.587,19.018c-.235,2.048-1.007,4.756-1.778,6.084-1.524,2.627-5.726,7.907-10.477,8.832l-11.835-32.528c4.185-2.545,11.243-1.102,13.924,.043,6.417,2.742,11.058,9.776,10.166,17.569Z" fill="#80141f"/>
  <path d="M71.744,53.726c1.272,.302,6.581,4.321,7.695,5.372l6.919-2.514-9.435-6.829c-1.15-.781-2.351-1.455-3.296-2.405,.131-1.542,10.9-37.134,10.938-38.266-.901-.482-4.873-1.603-5.989-1.591-.141,1.364-.961,3.509-1.338,4.915l-7.01,24.386c-.508,1.83-.824,3.31-1.318,4.908l-1.598,4.964-4.031-10.908-5.804,2.038,9.49,26.126,5.801-2.121c-1.373-3.77-2.543-5.139-1.023-8.074Z" fill="#80141f"/>
  <path d="M224.222,44.817c-1.423-4.672-3.944-6.309-6.888-8.05-4.548-2.689-15.291-3.679-18.29-6.532-3.256-3.097-1.627-7.338,1.394-9.155,4.183-2.517,7.442-1.012,10.318-.343l-2.552-7.177c-2.833-.766-8.061,.533-10.996,2.432-7.1,4.593-7.442,14.129-2.597,18.667,4.561,4.272,13.146,4.917,18.089,6.539,8.134,2.669,8.213,12.714,.454,16.019-4.226,1.8-7.499,1.231-11.028,.747l2.475,6.981c13.225-.203,23.339-7.927,19.621-20.128Z" fill="#80141f"/>
  <path d="M186.3,65.051L162.987,1.072l-5.44,1.988,25.307,69.585,18.5-6.744-1.964-5.443c-2.641,.889-10.383,3.511-13.089,4.593Z" fill="#80141f"/>
  <path d="M49.24,41.138c-.937,3.026-2.739,10.345-3.691,12.994l-11.431,39.553,7.002-2.679,11.966-40.302,5.952,16.345,5.807-2.1-9.481-26.086-6.123,2.276Z" fill="#80141f"/>
  <path d="M89.636,46.441l-4.765,1.9c.389,1.829,3.016,9.67,4.017,10.49,.368,.302,1.217,.71,1.693,1.065,4.741,3.54,4.151,2.561,13.071-.686,1.199-.436,1.518-.296,1.982-1.165,.311-.582,.558-1.429,.802-1.996,.969-2.25,1.538-1.319,.284-4.49l-11.47,4.107c-1.822-1.755-1.404-.153-2.609-3.693l10.55-3.791c-.483-.54-2.067-1.571-2.688-1.946l-8.414-5.77,19.802-7.277-2.073-5.735c-4.276,1.625-11.375,4.062-15.916,5.714-9.805,3.569-6.974,1.244-11.561,8.053,2.606,2.019,5.032,3.408,7.293,5.219Z" fill="#80141f"/>
  <path d="M148.869,35.12l12.377,34.195c-1.635-.044-5.172-1.319-6.456-1.801-1.999-.75-3.79-1.825-5.831-3.024l-6.809,2.447c.987,1.146,5.039,3.795,6.123,4.376,5.426,2.908,15.904,6.438,22.216,5.924l-16.006-44.139-5.613,2.023Z" fill="#80141f"/>
  <polygon points="157.885 31.837 173.925 76.033 179.648 73.975 163.617 29.742 157.885 31.837" fill="#80141f"/>
  <path d="M131.542,41.508l-5.745,2.009c2.109,6.882,5.64,11.752,9.672,17.139l6.242-2.227c-.583-.965-3.548-4.296-5.5-7.43-2.078-3.337-2.987-5.894-4.669-9.492Z" fill="#80141f"/>
  <polygon points="159.866 22.498 156.627 23.677 157.038 24.806 158.126 24.41 159.377 27.847 160.44 27.46 159.189 24.023 160.277 23.627 159.866 22.498" fill="#80141f"/>
  <path d="M155.857,29.128l-.1-.815,1.206-.439,.446,.69,1.115-.406-2.953-4.096-1.165,.424,.365,5.038,1.087-.396Zm.521-2.161l-.754,.274-.22-1.778,.974,1.504Z" fill="#80141f"/>
  <polygon points="151.564 26.798 152.815 30.236 153.879 29.848 152.628 26.411 153.716 26.015 153.305 24.887 150.066 26.066 150.477 27.194 151.564 26.798" fill="#80141f"/>
  <polygon points="163.192 21.288 160.343 22.325 162.005 26.891 164.907 25.835 164.531 24.801 162.697 25.469 162.37 24.57 164.021 23.969 163.682 23.038 162.031 23.639 161.766 22.912 163.547 22.263 163.192 21.288" fill="#80141f"/>
  <path d="M147.857,29.29c.283,.158,.683,.222,1.2,.191,.315-.02,.528,.001,.64,.067,.112,.065,.189,.157,.231,.275,.046,.125,.044,.249-.004,.374-.048,.124-.147,.213-.299,.269-.204,.074-.394,.039-.571-.105-.108-.088-.213-.238-.314-.447l-.98,.452c.197,.449,.463,.782,.797,.999,.334,.217,.794,.219,1.38,.006,.334-.122,.587-.286,.759-.493,.174-.208,.275-.457,.308-.749,.032-.292-.006-.584-.112-.876-.091-.25-.219-.459-.383-.626-.165-.169-.373-.283-.624-.346-.25-.063-.632-.077-1.146-.04-.207,.016-.345,.004-.417-.039-.072-.04-.121-.096-.147-.168-.036-.1-.036-.196,.001-.288,.037-.092,.119-.161,.242-.206,.15-.054,.285-.05,.405,.013,.119,.062,.23,.193,.332,.391l.973-.443c-.217-.458-.48-.753-.79-.886-.31-.134-.685-.12-1.126,.04-.359,.131-.619,.293-.782,.487-.163,.194-.257,.414-.284,.661-.026,.246,.003,.485,.088,.719,.13,.357,.336,.614,.621,.77Z" fill="#80141f"/>
  <path d="M143.885,33.486l-.101-.816,1.207-.439,.446,.69,1.115-.405-2.953-4.096-1.165,.424,.365,5.038,1.087-.396Zm.521-2.161l-.754,.274-.219-1.778,.974,1.504Z" fill="#80141f"/>
  <rect x="129.004" y="33.68" width="1.137" height="4.859" transform="translate(-4.536 46.495) rotate(-20)" fill="#80141f"/>
  <path d="M123.079,41.058l-.1-.816,1.206-.439,.446,.69,1.115-.406-2.953-4.096-1.165,.424,.365,5.038,1.087-.396Zm.52-2.161l-.753,.274-.219-1.778,.973,1.504Z" fill="#80141f"/>
  <path d="M127.165,39.571l-.673-1.85,.094-.034c.097-.035,.197-.032,.3,.01,.076,.034,.183,.127,.32,.282l1.075,1.185,1.204-.438-.998-1.131c-.049-.058-.134-.135-.252-.23-.119-.095-.205-.155-.257-.178-.078-.035-.191-.057-.338-.067,.141-.105,.244-.212,.308-.317,.102-.167,.16-.357,.174-.571,.015-.214-.024-.448-.116-.7-.106-.291-.249-.52-.43-.684-.18-.163-.371-.251-.573-.262-.2-.013-.466,.042-.795,.162l-1.774,.646,1.662,4.566,1.069-.389Zm-.857-3.812c.195-.071,.341-.08,.441-.026,.099,.053,.176,.154,.23,.302,.036,.1,.046,.196,.029,.29-.016,.094-.056,.162-.12,.206-.125,.092-.211,.148-.26,.165l-.45,.164-.339-.931,.469-.17Z" fill="#80141f"/>
  <polygon points="132.034 33.733 131.084 37.071 131.429 38.019 134.697 36.83 134.339 35.848 132.336 36.577 133.296 33.203 132.963 32.29 129.955 33.385 130.31 34.361 132.034 33.733" fill="#80141f"/>
  <polygon points="140.193 34.829 139.281 32.322 141.479 34.362 142.484 33.996 140.822 29.43 139.817 29.796 140.734 32.317 138.525 30.266 137.531 30.628 139.193 35.194 140.193 34.829" fill="#80141f"/>
  <path d="M134.932,35.671c.287,.297,.589,.481,.903,.554,.315,.07,.666,.035,1.054-.106,.383-.139,.668-.35,.855-.634,.187-.283,.286-.621,.298-1.011,.011-.391-.081-.852-.275-1.386-.267-.734-.63-1.25-1.089-1.545-.459-.294-.975-.337-1.549-.128-.56,.204-.92,.57-1.083,1.099-.163,.529-.108,1.166,.164,1.911,.194,.533,.435,.949,.722,1.245Zm.175-2.7c.057-.248,.193-.412,.408-.491,.225-.082,.438-.047,.641,.104,.203,.15,.383,.439,.539,.869,.186,.511,.252,.887,.198,1.13-.053,.242-.196,.406-.424,.489-.223,.081-.436,.044-.639-.109-.202-.154-.387-.462-.555-.922-.169-.464-.226-.822-.168-1.07Z" fill="#80141f"/>
</svg>