<?xml version="1.0" encoding="UTF-8"?>
<svg id="Layer_1" data-name="Layer 1" xmlns="http://www.w3.org/2000/svg" width="2.56in" height="2.521in" viewBox="0 0 184.32 181.496">
  <path d="M93.876,157.623c.202-.153,.3-.417,.293-.791-.006-.364-.112-.622-.319-.773-.207-.151-.515-.223-.922-.217l-1.49,.024,.033,2.02,1.489-.025c.408-.007,.713-.086,.916-.238Z" fill="#fff"/>
  <path d="M147.519,126.052c.238-.413,.361-.823,.37-1.23,.009-.408-.09-.786-.297-1.135-.206-.35-.514-.642-.921-.877-.412-.239-.82-.359-1.223-.361-.404-.003-.78,.102-1.128,.313-.349,.211-.642,.522-.881,.935-.238,.413-.361,.822-.37,1.23-.009,.407,.089,.786,.293,1.133,.204,.349,.513,.642,.924,.88,.407,.235,.813,.355,1.219,.359,.406,.005,.784-.099,1.133-.31,.348-.211,.642-.523,.88-.935Zm-.728-.109l-.598,1.037-3.009-1.737,.922-1.597c.113-.195,.259-.344,.438-.449,.179-.105,.371-.161,.576-.168,.205-.008,.405,.045,.6,.157,.323,.186,.51,.439,.56,.758,.018,.117,0,.242-.018,.367l1.499-.046-.733,1.271-1.222-.161h0l.986,.57Z" fill="#fff"/>
  <path d="M145.208,124.304c-.089-.051-.166-.057-.23-.016-.065,.041-.123,.107-.174,.195l-.135,.234,.451,.261,.135-.234c.052-.088,.079-.171,.083-.248,.003-.076-.04-.14-.129-.191Z" fill="#fff"/>
  <path d="M58.556,147.782c.303-.016,.562-.184,.777-.506,.215-.321,.272-.625,.172-.911-.101-.286-.325-.547-.673-.78l-1.087-.728-1.252,1.871,1.086,.728c.349,.234,.674,.342,.978,.326Z" fill="#fff"/>
  <path d="M69.796,153.518c.294-.076,.515-.293,.661-.65,.146-.357,.143-.666-.013-.926-.155-.262-.427-.472-.815-.631l-1.21-.497-.855,2.083,1.21,.497c.388,.159,.728,.201,1.022,.125Z" fill="#fff"/>
  <polygon points="48.218 139.387 49.218 137.762 49.184 137.727 47.564 138.729 45.987 139.677 47.249 140.948 48.218 139.387" fill="#fff"/>
  <path d="M99.85,28.392l-1.483-.15-.204,2.009,1.483,.15c.406,.041,.718-.002,.937-.129,.218-.128,.346-.378,.383-.752,.037-.362-.038-.631-.225-.805-.188-.174-.485-.282-.891-.323Z" fill="#fff"/>
  <path d="M141.277,139.999c.303-.045,.581-.206,.834-.483,.253-.277,.388-.569,.405-.874,.018-.305-.086-.634-.308-.988-.223-.353-.567-.742-1.032-1.166-.473-.431-.893-.74-1.261-.926-.368-.186-.703-.258-1.005-.212-.302,.045-.581,.205-.834,.483-.253,.277-.388,.569-.405,.874-.017,.305,.082,.634,.297,.988,.216,.354,.559,.746,1.032,1.177,.465,.424,.885,.729,1.261,.916,.376,.185,.714,.257,1.017,.211Z" fill="#fff"/>
  <polygon points="63.889 34.629 63.844 34.65 64.26 36.508 64.638 38.309 66.252 37.534 65.095 36.107 63.889 34.629" fill="#fff"/>
  <path d="M23.271,118.209c1.052-.281,1.806-.863,2.223-1.641,.164-.011,.322-.034,.475-.075,.574-.154,1.17-.428,1.711-.889,.522,.722,1.403,1.048,2.442,.77,1.303-.349,2.319-1.172,3.062-2.234,.645,.679,1.545,.998,2.683,.693,1.084-.29,1.725-.933,2.058-1.602,.482,.524,1.236,.713,2.117,.484,1.739-.476,2.929-1.756,3.635-3.355h0c.252-.572,.447-1.182,.577-1.814l-1.168-.24h0l-.928-.191c-.339,1.543-.89,2.616-1.799,2.86-.685,.184-1.061-.492-.909-1.497,.045-.293,1.223-8.073,1.626-10.735l-2.532,.678-.825,5.441c-.446-.217-1.066-.309-1.811-.109-3.052,.818-4.216,4.251-3.815,6.911-.344,1.042-.836,1.751-1.55,1.942-.685,.184-1.058-.379-.947-1.239,.038-.295,.529-3.51,.934-6.171l1.579-.423c.021-.14,.33-2.177,.33-2.177l-1.58,.423c.231-1.519,.401-2.644,.401-2.644l-2.531,.678-.402,2.644-1.423,.381-.33,2.177,1.424-.381-.703,4.628c-.024,.2-.053,.41-.081,.622h-.007c-.234,1.093-.75,1.962-1.402,2.095-.026-.145-.057-.291-.097-.437-.505-1.884-1.889-3.759-1.776-5.819-.17,.046-2.547,.683-2.547,.683-1.389,2.217-1.878,4.441-2.243,5.637l.507,.104c-.105,.275-.239,.537-.389,.79-.447,.752-1.095,1.389-1.957,1.822-.312,.157-.645,.293-1.013,.391-.522,.14-.974,.126-1.359,.018-1.405-.395-1.841-2.154-.881-3.3,.316-.377,.776-.691,1.412-.861,.249-.067,.535-.107,.814-.126,.32-.023,.631-.019,.87,.011l.255-2.431c-.816-.053-1.421-.398-1.837-.864-.716-.802-.859-1.967-.48-2.68,.152-.286,.383-.502,.699-.586,1.046-.28,1.344,1.65,1.163,2.821l.914-.245,1.8-.483c.293-2.08-.672-4.296-2.601-4.73-.511-.115-1.086-.112-1.728,.06-.229,.061-.435,.138-.637,.216-1.048,.404-1.757,1.017-2.184,1.729-1.101,1.835-.384,4.29,.89,5.351,.042,.035,.08,.076,.123,.108-.031,.014-.056,.035-.087,.049-2.164,1.037-2.979,3.327-2.427,5.387,.562,2.097,2.342,3.56,4.759,3.305,.29-.031,.585-.074,.893-.156,.511-.137,.972-.319,1.408-.523,.79-.37,1.455-.862,2.014-1.475,.153-.168,.314-.326,.451-.513,.54,.677,1.491,1.071,2.738,.737Zm13.352-11.17c.29-.077,.548-.023,.749,.11l-.211,1.385c-.181,1.102-.638,3.281-1.649,3.552-1.379,.369-1.236-4.417,1.111-5.047Zm-14.138,3.629c.235,.777,.584,1.665,.866,2.488-.495-.027-1.307,.096-1.807,.431,.28-1.002,.598-2.033,.941-2.919Zm.367,4.32c.406-.108,.797-.148,1.169-.136-.028,.905-.467,1.393-1.307,1.618-1.096,.294-1.39-1.072,.138-1.482Z" fill="#fff"/>
  <path d="M34.751,63.747c-.325-.165-.603-.191-.833-.079-.23,.112-.437,.35-.623,.714l-.674,1.329,1.801,.915,.674-1.329c.184-.364,.257-.671,.217-.921-.041-.249-.228-.459-.562-.629Z" fill="#fff"/>
  <path d="M149.356,72.42c-.478-1.785-2.027-2.707-3.767-2.241-1.089,.292-2.061,1.129-2.736,2.359-.586,1.066-.863,2.288-.808,3.46l2.566,.229c.06-2.233,.98-3.483,1.653-3.663,.281-.076,.57,.016,.699,.497,.184,.685-.166,2.384-1.699,5.098-.787,1.395-1.8,2.893-2.847,4.242-.553,.712-1.116,1.385-1.661,1.973l1.229,2.039,1.197-.321,5.452-1.461,.404-2.675-3.988,1.069c.877-1.195,1.701-2.459,2.373-3.648,1.71-3.029,2.36-5.37,1.935-6.958Z" fill="#fff"/>
  <path d="M184.286,80.527l-2.053-23.462c-.373-4.257-3.821-7.468-8.022-7.468-.725,0-1.455,.097-2.174,.289l-4.339,1.163c-2.344-4.014-4.973-7.833-7.861-11.348-.303-.368-.616-.728-.928-1.088l-.361-.416c-.346-.402-.743-.74-1.171-1.026-.071-1.087-.254-2.288-.676-3.34-.961-2.391-3.216-3.936-5.744-3.936-.17,0-.36,.014-.548,.031-5.213-4.638-10.965-8.645-17.133-11.909-.32-.169-.653-.295-.99-.4-.352-1.062-.813-2.28-1.538-3.713-.843-1.669-1.917-3.375-3.286-5.214-1.515-2.038-3.37-4.218-5.69-6.684-.58-.612-1.263-1.098-1.988-1.425-.319-.147-.678-.272-1.032-.362-.342-.093-.831-.197-1.472-.217-.046-.001-.111-.002-.158-.002-.611,0-1.215,.087-1.794,.256-.164,.049-.331,.105-.492,.168-.432,.165-.848,.378-1.264,.651-.073,.049-.192,.132-.262,.183-.046,.033-.09,.067-.134,.101-.334,.26-.642,.552-.916,.869-.044,.05-.087,.1-.126,.149-.087,.104-.168,.212-.247,.321-.384,.539-.682,1.134-.878,1.75-.082,.254-.137,.453-.183,.714-.097,.488-.136,.99-.116,1.504,.008,.204,.03,.453,.059,.655,.105,.718,.325,1.403,.671,2.072,.119,.228,.238,.459,.355,.691-6.22-1.393-12.591-2.102-19.021-2.102-.4,0-.795,.013-1.192,.026l-.549,.017c-22.808,.451-44.178,9.669-60.173,25.956C14.919,50.214,6.112,71.661,6.026,94.404c-3.812,1.384-6.351,5.294-5.992,9.407l2.053,23.458c.371,4.26,3.819,7.472,8.022,7.472,.722,0,1.45-.096,2.174-.289l2.959-.793c14.651,29.116,44.872,47.837,77.532,47.837,47.838,0,86.757-38.919,86.757-86.757,0-1.646-.062-3.388-.182-5.276,3.212-1.67,5.261-5.219,4.937-8.936Zm-30.977-35.869c.376-.899,.663-1.807,.862-2.697,.402,.467,.813,.927,1.204,1.403,3.015,3.669,5.7,7.616,8.04,11.782l-2.409,.646-1.766,.473-.614,.165c-1.941-3.323-4.121-6.489-6.525-9.468,.484-.746,.88-1.519,1.208-2.303Zm-4.395-4.859c.656-.842,1.012-1.595,1.226-2.219,.379-1.11,.317-1.817,.726-1.904,.031-.007,.061-.01,.09-.01,.183,0,.314,.129,.39,.318,.198,.495,.363,1.671,.276,3.149-.054,.912-.208,1.938-.507,2.992-.233,.824-.564,1.661-1.004,2.476-.973,1.803-2.498,3.483-4.872,4.574-5.439,2.499-8.185,6.837-9.543,8.994-.101,.16-.258,.232-.415,.232-.248,0-.493-.181-.5-.481-.101-4.172,1.321-10.208,7.916-13.513,2.008-1.006,3.474-1.985,4.555-2.903,.705-.598,1.244-1.17,1.662-1.706Zm-1.177-4.519c-.078,.247-.131,.466-.164,.612-.097,.429-.244,1.055-.774,1.834-.348,.511-.86,1.089-1.64,1.724-4.333-4.107-9.143-7.709-14.343-10.718,.053-.9,.051-1.816,.013-2.739-.039-.95-.118-1.908-.253-2.875,6.25,3.306,12.015,7.401,17.161,12.161Zm-17.078,5.904c3.316-1.125,4.151-3.066,5.167-4.297,.199-.241,.587-.105,.581,.207-.057,2.624-2.413,7.625-6.171,8.787-3.276,1.013-3.84,3.55-4.73,4.343-.229,.204-.599,.008-.595-.3,.03-2.093,2.021-7.477,5.747-8.741ZM116.491,6.273c.004-.017,.006-.034,.011-.05,.02-.062,.048-.121,.086-.173,.007-.009,.015-.017,.023-.025,.034-.042,.073-.08,.116-.113,.015-.012,.031-.022,.047-.033,.044-.028,.091-.051,.141-.069,.013-.004,.024-.011,.037-.015,.061-.017,.125-.024,.189-.023,.05,.001,.1,.017,.15,.031,.027,.008,.054,.009,.08,.02,.075,.034,.148,.083,.215,.154,2.276,2.419,3.968,4.436,5.246,6.156,1.278,1.72,2.144,3.142,2.765,4.372,.746,1.476,1.141,2.674,1.481,3.776,.104,.405,.19,.812,.277,1.219,.206,.967,.359,1.938,.463,2.91,.029,.272,.067,.545,.087,.817,.049,.648,.066,1.294,.066,1.937,0,2.09-.26,4.149-.83,6.114-.639,2.132-1.311,3.824-2.105,5.57-.397,.873-.825,1.76-1.294,2.723s-.981,2.001-1.545,3.178c-.205,.434-.42,.867-.64,1.302-.441,.869-.905,1.74-1.363,2.62-.338,.651-.666,1.308-.984,1.97-.112,.233-.227,.465-.335,.7-.235,.516-.453,1.037-.658,1.563-.154,.394-.303,.79-.434,1.191-.13,.397-.239,.799-.342,1.203-.018,.073-.044,.143-.061,.216-.8,3.171,.152,6.604,2.935,9.244,.123-.679,.326-1.492,.615-2.383,.193-.594,.424-1.223,.694-1.87,.225-.538,.485-1.089,.766-1.643,.33-.65,.701-1.302,1.111-1.946,.039-.062,.077-.124,.117-.186,.257-.394,.525-.785,.813-1.166,.208-.274,.428-.542,.652-.806,.555-.655,1.158-1.278,1.818-1.843,.927-.794,1.959-1.482,3.102-2.005,.085-.039,.17-.054,.251-.057,.05-.002,.098,.004,.145,.014,.014,.003,.029,.002,.043,.006,.061,.018,.119,.045,.172,.079,.013,.009,.023,.021,.036,.03,.038,.029,.073,.06,.104,.096,.015,.017,.026,.036,.039,.054,.023,.033,.044,.068,.061,.105,.01,.022,.018,.044,.025,.067,.013,.038,.021,.077,.026,.117,.003,.024,.006,.047,.006,.071,0,.044-.007,.088-.016,.132-.005,.021-.006,.042-.013,.063-.022,.065-.052,.13-.099,.192-.661,.876-1.195,1.712-1.601,2.579-.065,.138-.126,.277-.184,.416-.105,.253-.202,.508-.284,.77-.061,.195-.115,.393-.164,.594-.075,.309-.138,.625-.183,.953-.019,.139-.033,.281-.047,.424-.058,.602-.07,1.241-.031,1.934,.025,.429,.068,.879,.131,1.352,.016,.117,.036,.239,.054,.359,.055,.366,.117,.741,.194,1.136,.118,.607,.267,1.256,.439,1.942,.114,.452,.238,.921,.375,1.412,.062,.219,.127,.446,.194,.674,.07,.239,.141,.481,.216,.729h0c.809,2.675,1.927,5.887,3.383,9.846,1.026,2.727,1.555,5.24,1.683,7.553,.011,.239,.012,.467,.015,.699,.005,.268,.01,.536,.005,.799-.009,.357-.03,.702-.056,1.04-.011,.146-.022,.292-.037,.436-.033,.326-.074,.642-.121,.948-.04,.257-.085,.512-.136,.764-.03,.155-.059,.313-.091,.462-.111,.476-.237,.943-.385,1.396-.525,1.47-1.173,2.871-1.931,4.192-.247,.43-.509,.848-.778,1.261h0c-.143,.22-.286,.44-.435,.655-.096,.138-.198,.27-.296,.406-.199,.275-.403,.546-.613,.812-.034,.043-.068,.085-.101,.127-.512,.642-1.052,1.258-1.62,1.847-5.191,5.379-12.599,8.426-20.43,7.915-.922-.06-1.849-.164-2.78-.325-.085-.027-.191-.076-.176-.156,.023-.13,.192-.17,.192-.17,3.564-.671,6.418-1.846,8.665-3.371,.994-.674,1.867-1.418,2.629-2.217,.584-.613,1.103-1.258,1.559-1.93,.465-.686,.866-1.399,1.206-2.135,.21-.455,.397-.918,.562-1.388,.162-.463,.303-.932,.423-1.407,.157-.624,.277-1.257,.363-1.896l.007-.046c.085-.641,.139-1.288,.157-1.937v-.003c.018-.632,.004-1.266-.037-1.9-.003-.048-.006-.095-.009-.143-.045-.636-.116-1.27-.217-1.902-.157-.935-.442-1.889-.817-2.854-.25-.643-.541-1.291-.862-1.941-.802-1.625-1.789-3.265-2.798-4.88-.403-.646-.81-1.288-1.209-1.924-.399-.636-.791-1.265-1.164-1.885-.374-.62-.729-1.232-1.056-1.832-.045-.084-.084-.158-.129-.241-.245-.457-.481-.899-.706-1.323-.243-.46-.471-.897-.693-1.326-.073-.141-.153-.292-.224-.43-.271-.531-.526-1.044-.767-1.545-.722-1.504-1.314-2.907-1.829-4.416-.136-.398-.269-.797-.395-1.214-.152-.505-.297-1.027-.438-1.572-.193-.677-.332-1.428-.407-2.228-.076-.801-.088-1.651-.028-2.528,.1-1.465,.418-3,.967-4.499,.108-.295,.211-.592,.338-.883,.037-.086,.056-.171,.066-.254,.003-.026,.001-.051,.002-.077,.001-.057-.002-.113-.013-.168-.005-.027-.011-.053-.019-.079-.016-.053-.037-.103-.063-.152-.011-.02-.019-.041-.032-.061-.041-.065-.089-.125-.146-.176l-.01-.007c-.054-.048-.114-.087-.179-.119-.021-.011-.044-.018-.066-.027-.05-.02-.1-.035-.153-.045-.026-.005-.052-.008-.079-.01-.054-.004-.11,0-.166,.007-.026,.004-.051,.004-.077,.011-.081,.02-.162,.049-.242,.098h0c-.614,.374-1.199,.751-1.762,1.13-2.36,1.588-4.279,3.214-5.822,4.848-.764,.81-1.437,1.621-2.026,2.432-.156,.214-.291,.428-.435,.642-1.725,2.556-2.656,5.09-3.042,7.495-.071,.44-.129,.877-.165,1.308-.215,2.534,.134,4.891,.705,6.943,.017,.06,.031,.123,.048,.183,.12,.419,.252,.82,.388,1.212,.058,.167,.114,.336,.174,.498,.112,.302,.227,.593,.344,.876,.196,.475,.396,.924,.594,1.339,.316,.662,.625,1.244,.898,1.734,.182,.327,.349,.613,.491,.855,.158,.265,.335,.549,.522,.845,.024,.038,.048,.077,.073,.116,.161,.255,.333,.522,.51,.798,1.377,2.141,3.172,4.878,4.511,7.838v.002c.26,.572,.501,1.151,.719,1.737,.208,.558,.394,1.12,.553,1.685,1.016,3.605,.942,7.316-1.651,10.524-.133,.178-.282,.349-.432,.517-.595,.671-1.269,1.252-1.687,1.586-.55,.462-1.096,.358-1.347,.27-.476-.208-.95-.422-1.419-.663l-.031-.015c-.207-.094-.406-.242-.613-.335-.406-.242-.866-.495-1.272-.736-.254-.159-.45-.307-.703-.465-.406-.242-.758-.475-1.099-.762-.253-.158-.451-.307-.694-.519-.351-.295-.645-.579-1-.875-.194-.181-.389-.362-.583-.543-.299-.295-.669-.598-.967-.955-.239-.256-.479-.515-.715-.771-.228-.247-.731-.856-.942-1.118-.101-.125-.208-.252-.293-.375-.411-.525-.768-1.038-1.115-1.607l-.133-.193c-.391-.634-.782-1.266-1.11-1.944-.337-.623-.619-1.237-.892-1.904l-.089-.128c-.7-1.691-1.217-3.461-1.555-5.309l-.007-.034c-.095-.587-.131-1.158-.145-1.528-.01-.251-.01-.411-.01-.411-.022-.381-.062-.761-.111-1.141-.18-1.401-.548-2.779-1.135-4.068-.206-.454-.441-.895-.703-1.324l-.029-.048c-.02-.033-.039-.066-.06-.099-.239-.378-.502-.744-.787-1.097l-.023-.028c-.032-.039-.063-.078-.095-.116-.285-.342-.592-.671-.923-.985-.049-.046-.1-.091-.15-.137-.341-.312-.703-.611-1.094-.891-.042-.03-.088-.058-.131-.088-.414-.288-.85-.561-1.321-.808h-.002c-.11-.059-.192-.137-.248-.225-.056-.089-.086-.188-.093-.289-.018-.268,.131-.545,.403-.649,.068-.026,.144-.041,.226-.043,.298-.006,.587,.011,.878,.022,.22,.008,.441,.012,.657,.03,.236,.019,.466,.052,.697,.081,.21,.027,.423,.05,.629,.085,.226,.039,.445,.09,.666,.138,.202,.044,.406,.084,.604,.135,.215,.056,.423,.123,.632,.188,.193,.059,.389,.114,.577,.18,.204,.071,.399,.152,.597,.231,.184,.073,.37,.142,.549,.22,.192,.085,.376,.178,.562,.269,.173,.084,.349,.165,.516,.254,.179,.095,.349,.198,.523,.298,.163,.094,.33,.186,.487,.284,.161,.101,.312,.208,.467,.312l.011,.008c.153,.103,.31,.204,.457,.311,.153,.111,.295,.226,.441,.34,.139,.109,.284,.215,.417,.326,.052,.043,.098,.088,.149,.132,.087,.074,.169,.149,.253,.223,.126,.112,.257,.223,.376,.337,.127,.121,.242,.243,.362,.366,.083,.085,.172,.169,.252,.254,.027,.028,.055,.057,.081,.085,.116,.126,.218,.251,.326,.377,.094,.11,.195,.22,.283,.329,.103,.129,.192,.256,.287,.383,.077,.104,.161,.21,.232,.313,.091,.132,.167,.261,.247,.391,.059,.095,.126,.192,.179,.284,.082,.144,.148,.281,.216,.42,.036,.073,.081,.15,.114,.222,.094,.207-.613-1.51-1.011-2.459-.076-.182-.146-.36-.22-.541-.188-.458-.37-.914-.544-1.367-.116-.301-.234-.603-.344-.902-.058-.159-.11-.315-.166-.474-.108-.302-.217-.606-.318-.906-.306-.915-.577-1.821-.808-2.721-1.042-4.051-1.286-7.986-.287-12.106,.613-2.299,1.83-4.424,3.392-6.408,.446-.567,.921-1.122,1.418-1.667,.248-.272,.502-.542,.761-.809,.724-.747,1.486-1.472,2.269-2.181,.843-.764,1.71-1.506,2.582-2.23,.054-.045,.108-.091,.162-.135,.578-.436,1.159-.871,1.742-1.306,.291-.217,.582-.434,.873-.65,.875-.652,1.751-1.304,2.62-1.959,1.159-.874,2.306-1.754,3.426-2.648,1.68-1.342,3.299-2.717,4.803-4.152,.289-.274,.564-.548,.826-.82,.885-.918,1.625-1.822,2.254-2.712,.21-.297,.407-.592,.593-.886,.372-.588,.7-1.169,.993-1.745,.293-.576,.552-1.146,.787-1.711,.209-.502,.398-1,.575-1.493,.339-.945,.634-1.875,.934-2.791l.04-.122c.238-.751,.419-1.478,.561-2.188,.016-.079,.038-.16,.052-.239,.14-.749,.227-1.475,.273-2.183,.003-.043,.007-.086,.01-.129,.041-.729,.036-1.437-.01-2.126-.047-.698-.136-1.377-.26-2.04-.186-.994-.452-1.95-.773-2.877-.429-1.236-.958-2.42-1.535-3.572-.144-.288-.291-.574-.44-.858-.039-.074-.058-.148-.068-.219-.003-.021-.003-.041-.004-.061-.002-.053,.002-.105,.014-.155Zm-11.802,30.83l-4.167-.423-1.555-3.802-1.059-.108-.366,3.607-3.755-.381,1.104-10.87,5.896,.599c1.416,.144,2.472,.57,3.165,1.278,.693,.709,.987,1.584,.882,2.627-.122,1.197-.584,2.06-1.387,2.588-.29,.191-.634,.322-1.003,.426l2.246,4.46Zm-13.542-23.308c.543-.011,1.082-.041,1.627-.041,8.334,0,16.373,1.262,23.94,3.6-.009,.788-.091,1.6-.242,2.44-.13,.727-.309,1.473-.556,2.252l-.022,.066c-7.296-2.328-15.062-3.595-23.12-3.595-2.386,0-4.743,.125-7.074,.34C47.057,22.433,16.684,54.964,16.56,94.496l-2.378,.637-2.366,.634c-.004-.344-.026-.684-.026-1.029C11.79,50.558,47.174,14.665,91.147,13.795Zm-4.769,15.935l4.19-.349,.217,2.607-4.19,.349,.107,1.287,5.394-.449,.235,2.821-9.239,.769-.906-10.889,9.041-.753,.235,2.822-5.197,.432,.113,1.353Zm-7.44,8.078l-3.716,1.031-1.826-6.583-.338-1.218-3.302,.916-.757-2.728,9.228-2.559,1.078-.299,.756,2.728-3.286,.911,2.163,7.801Zm-13.445,4.573l.095,.45-.65,.312-2.812,1.351-1.538-11.383,4.178-2.007,5.178,5.417,2.762,2.889-3.551,1.707-1.35-1.666-.203,.097-2.456,1.18,.347,1.652Zm-12.32,3.788l1.914,3.728-3.303,2.656-9.259-6.575,3.238-2.604,5.942,5.355-3.749-7.119,2.58-2.075,6.181,5.098-3.949-6.893,3.122-2.511,4.421,10.465-3.186,2.562-3.244-2.66-2.088-1.911-.039,.031,1.418,2.45Zm-13.263,23.245l-1.709,3.366-9.742-4.948,2.684-5.284c.645-1.27,1.423-2.1,2.333-2.492,.911-.392,1.834-.35,2.768,.125,1.073,.545,1.711,1.287,1.915,2.226,.073,.339,.072,.707,.035,1.089l4.969-.488-1.896,3.735-4.107,.081-.482,.949,3.232,1.641Zm-11.309,13.818l.768-4.134,2.784,.517-.768,4.134,3.678,.684-.706,3.793-10.742-1.998,1.656-8.903,2.784,.517-.951,5.111,1.498,.278Zm-2.444-8.552l1.218-3.66,10.368,3.45-1.218,3.66-10.368-3.45Zm8.889-18.902l5.546-7.179,2.241,1.731-3.189,4.126,1.075,.83,2.571-3.328,2.069,1.599-2.571,3.328,1.022,.789,3.309-4.284,2.24,1.731-5.668,7.336-8.645-6.68ZM10.79,128.877c-.232,.062-.46,.092-.68,.092-1.196,0-2.157-.879-2.273-2.2l-2.053-23.461c-.137-1.565,.963-3.158,2.458-3.558l3.65-.978,2.367-.634,2.366-.634,24.902-6.672c.039-.517,.074-1.035,.128-1.547,.055-.525,.128-1.045,.199-1.565,1.243-9.099,4.863-17.436,10.219-24.371,9.402-12.173,24.132-20.021,40.703-20.021,1.298,0,2.579,.064,3.853,.159-.054,.041-.108,.081-.162,.121l-.051,.039-.049,.041c-.829,.685-1.651,1.387-2.458,2.104-.889,.79-1.753,1.603-2.58,2.442-22.147,.682-40.439,16.901-44.322,38.106-.096,.526-.192,1.052-.27,1.584-.077,.519-.14,1.042-.2,1.566-.195,1.724-.304,3.474-.304,5.25,0,8.365,2.229,16.214,6.108,23.005,.251,.439,.501,.878,.766,1.307,.268,.436,.546,.864,.828,1.29,1.379,2.085,2.918,4.054,4.605,5.886,4.024-1.857,8.051-3.708,12.081-5.551,2.592-1.186,5.185-2.369,7.779-3.55,.308-.141,.616-.281,.924-.421,.409-.186,.489-.323,.781,.027,.388,.464,.756,.947,1.095,1.449,.779,1.154,1.402,2.414,1.786,3.754,.452,1.578,.63,3.173,1.242,4.714,.586,1.475,1.38,2.863,2.29,4.161,1.529,2.181,3.399,4.071,5.31,5.913,1.538,1.423,2.984,2.95,4.489,4.41,1.022-.077,2.037-.183,3.04-.325-2.217-2.185-4.416-4.387-6.655-6.55-1.639-1.584-3.21-3.255-4.48-5.156-.726-1.088-1.35-2.242-1.81-3.467-.505-1.344-.684-2.737-1.057-4.113-.68-2.506-2.051-4.752-3.755-6.692-.468-.533-.976-1.021-1.491-1.502-.421-.392-.843-.782-1.265-1.173-.415-.384-.822-.776-1.212-1.188-.029-.03-.06-.058-.089-.089-3.627-3.889-7.176-7.859-10.614-11.917-1.401-1.654-2.803-3.317-4.084-5.067-1.257-1.718-2.268-3.607-3.595-5.278-.247-.31-.612-.88-1.031-.983-.377-.093-.774,.195-1.192,.066-.401-.125-.664-.441-.893-.782-.083-.124-.163-.251-.241-.375-.192-.303-.369-.616-.551-.926-.254-.434-.504-.87-.745-1.312-.152-.28-.308-.558-.457-.839-.17,.176-.339,.353-.51,.529-.262,.272-.214,.353-.508,.165-.657-.422-1.231-1.611-1.408-2.335-.386-1.577,1.135-2.954,2.116-3.986,1.138-1.195,2.285-2.415,3.506-3.526,.97-.882,1.969-1.765,3.336-1.469,.903,.196,1.54,.716,2.226,1.255h-.002s.356,.292,.279,.372c-.248,.258-.496,.515-.744,.772,1.015,.529,2.026,1.078,2.994,1.689,.765,.482,1.406,.948,1.169,1.965-.101,.435-.067,.537,.251,.867,.346,.359,.763,.657,1.171,.945,.043,.03,.085,.062,.127,.092,.487,.344,.989,.667,1.493,.986,.562,.355,1.126,.705,1.688,1.061,.517,.327,1.03,.66,1.527,1.016,3.61,2.586,6.975,5.547,10.321,8.459,.825,2.161,1.911,4.222,3.225,6.123,2.203,3.18,5.057,5.888,8.33,7.941,.583,.366,1.177,.712,1.786,1.034,.154,.082,.303,.172,.459,.251,.51,.258,1.029,.496,1.554,.722,1.764,.762,3.602,1.349,5.482,1.744,1.476,.31,2.981,.495,4.488,.555,.431,.017,1.642-.057,1.642-.057,.248,.009,.476,.039,.642,.117,.454,.214,.952,.859,1.326,1.198,1.451,1.319,2.763,2.8,4.176,4.164,1.541,1.485,3.056,3,4.572,4.511,.046,.046,.092,.092,.138,.138,1.919,1.914,3.829,3.836,5.742,5.755,2.402-2.565,4.515-5.401,6.293-8.457-.544,.279-1.087,.559-1.632,.837-1.483,.758-2.944,1.525-4.5,2.12-.316,.12-.63,.246-.941,.378-.14,.059-.323,.199-.471,.207-.223,.011-.12-.002-.317-.141-.515-.367-.966-.969-1.414-1.418-.148-.148-.296-.296-.443-.444-.358-.359-.717-.718-1.075-1.077-.359-.359-.717-.719-1.076-1.078h0c-.595-.595-1.19-1.192-1.785-1.788-1.786-1.791-3.574-3.582-5.394-5.335,1.422-.215,2.825-.54,4.196-.969,1.371-.429,2.709-.962,4.001-1.592,.43-.21,.856-.431,1.275-.662,.419-.231,.833-.473,1.24-.725,.702-.435,1.385-.9,2.047-1.393,.662-.494,1.302-1.016,1.919-1.565,.644-.574,1.261-1.176,1.849-1.806,.27-.289,.533-.584,.791-.884,.085-.1,.166-.181,.246-.25,.241-.207,.481-.303,.853-.439,2.259-.829,4.531-1.653,6.824-2.402,.823-.268,1.649-.522,2.479-.764,.385-.113,.768-.234,1.155-.34,.429-.117,.862-.218,1.297-.314,.297-.065,.594-.129,.892-.19,.734-.149,1.469-.291,2.199-.458,.94-.215,1.988-.398,2.85-.853,.111-.059,.228-.134,.325-.225,.047-.044,.1-.084,.127-.142,.166-.365,.006-.726,.3-1.093,.148-.184,.337-.321,.549-.416,.633-.287,1.378-.438,2.135-.536,.757-.098,1.525-.144,2.204-.22-.068-.158-.137-.316-.206-.474-.059-.135-.117-.27-.176-.406h0s.006-.014,.017-.035c.023-.043,.069-.118,.141-.182,.036-.032,.078-.061,.126-.081l.004-.005c.222-.088,.46-.213,.606-.256,.137-.04,.274-.077,.413-.108,.202-.045,.415-.076,.627-.098,.062-.006,.124-.008,.187-.012,.205-.012,.412-.019,.61,.003,.325,.036,.606,.119,.855,.241,.01,.005,.019,.012,.029,.017,.236,.12,.443,.272,.628,.454,.193,.19,.364,.409,.523,.649,.018,.028,.035,.058,.053,.087,.138,.216,.269,.445,.399,.685,.358,.668,.686,1.355,1.002,2.047,.316,.693,.621,1.391,.933,2.081,.186,.411,.401,.855,.605,1.314,.196,.442,.38,.898,.517,1.358,.156,.522,.253,1.047,.23,1.554-.063,.749-.585,1.377-1.144,1.834-.422,.343-.91,.513-1.368,.755-.005,.002-.007,0-.012,.002-.238,.12-.468-.084-.469-.085-.117-.269-.233-.538-.35-.807-.892,.818-1.816,1.615-2.792,2.331-.408,.3-.841,.644-1.369,.626-.46-.016-.75-.475-1.178-.469-.497,.007-1.102,.488-1.495,.737-1.63,1.03-3.103,2.277-4.693,3.361-1.541,1.051-3.166,1.982-4.787,2.902-1.273,.722-2.557,1.425-3.844,2.12-1.314,3.206-2.937,6.253-4.843,9.096-.048,.071-.093,.144-.142,.215-.406,.6-.828,1.188-1.258,1.769-.101,.137-.204,.273-.306,.408-.442,.584-.891,1.162-1.356,1.726l-.014,.017c-.462,.559-.939,1.105-1.424,1.644-.114,.126-.227,.253-.342,.378-.157,.171-.322,.336-.481,.505l.008,.008c-.335,.355-.673,.706-1.018,1.052-.066,.066-.134,.13-.201,.196-.465,.461-.94,.913-1.423,1.356-.117,.108-.234,.217-.352,.323-.532,.48-1.073,.95-1.625,1.407-.105,.087-.212,.171-.317,.257-.496,.405-1,.801-1.511,1.187-.106,.08-.211,.163-.318,.243-.576,.429-1.162,.845-1.757,1.249-.132,.09-.266,.178-.399,.266-.552,.368-1.11,.728-1.677,1.075-.074,.046-.147,.093-.222,.139-.621,.376-1.252,.736-1.889,1.086-.15,.082-.3,.163-.451,.244-.649,.348-1.304,.688-1.97,1.009l-.02,.009c-.66,.318-1.331,.617-2.007,.907-.159,.068-.317,.136-.476,.202-.675,.282-1.357,.553-2.046,.807-.088,.032-.177,.062-.265,.093-.631,.228-1.268,.442-1.909,.646-.154,.049-.308,.099-.463,.147-.703,.216-1.412,.418-2.128,.604-.134,.035-.269,.066-.403,.1-.567,.143-1.138,.275-1.713,.399l-.003-.003c-.073,.016-.145,.035-.219,.05-.137,.029-.274,.06-.412,.088-.73,.147-1.466,.278-2.207,.394-.163,.025-.326,.048-.489,.072-.685,.101-1.374,.189-2.067,.263-.093,.01-.185,.023-.278,.032-.759,.076-1.524,.132-2.292,.174-.179,.01-.358,.018-.537,.026-.782,.035-1.567,.06-2.358,.06-2.186,0-4.336-.152-6.451-.417-2.176-.273-4.315-.665-6.398-1.201-4.107-1.057-8.015-2.608-11.657-4.587-1.494-.812-2.926-1.717-4.325-2.67-.41-.279-.831-.544-1.233-.834-.068-.05-.132-.105-.2-.155-1.695-1.241-3.317-2.577-4.848-4.01h0c-1.619-1.515-3.148-3.124-4.56-4.835-1.503-1.822-2.878-3.753-4.123-5.773-.265-.43-.516-.868-.769-1.306-.251-.436-.504-.87-.743-1.313h0l-24.371,6.53-2.331,.625-2.353,.631-7.623,2.043Zm102.718-15.66c.432,.415,.808,.821,1.139,1.162-.332-.341-.708-.746-1.139-1.162Zm15.29,32.385c.135,.4,.388,.854,.76,1.363,.364,.498,.714,.879,1.048,1.14,.335,.262,.666,.392,.994,.392s.67-.13,1.026-.391c.321-.235,.514-.522,.579-.864,.065-.341-.029-.741-.281-1.199l3.271-1.303c.34,.804,.471,1.556,.389,2.258-.082,.703-.333,1.347-.751,1.932-.419,.587-.968,1.127-1.645,1.622-.926,.677-1.856,1.083-2.79,1.217-.933,.136-1.827-.004-2.683-.418-.856-.414-1.636-1.101-2.338-2.065-.703-.962-1.121-1.913-1.255-2.855-.134-.941,.006-1.835,.418-2.684,.413-.847,1.082-1.61,2.009-2.287,.651-.476,1.323-.826,2.018-1.054,.695-.228,1.38-.287,2.053-.178,.674,.108,1.305,.434,1.892,.976l-1.912,2.996c-.495-.527-.913-.796-1.254-.806-.342-.009-.678,.106-1.008,.346-.303,.222-.502,.487-.597,.796-.096,.309-.076,.664,.059,1.063Zm7.546-3.82c-.881-.804-1.48-1.654-1.797-2.549-.319-.896-.359-1.8-.124-2.713,.236-.913,.741-1.794,1.515-2.641,.781-.856,1.614-1.441,2.497-1.755,.884-.314,1.785-.351,2.703-.111,.917,.24,1.815,.761,2.696,1.565,.88,.804,1.481,1.651,1.803,2.542,.321,.892,.366,1.793,.134,2.701-.232,.909-.739,1.792-1.52,2.648-.774,.847-1.605,1.43-2.493,1.748-.888,.318-1.793,.36-2.713,.124-.921-.236-1.821-.755-2.702-1.559Zm9.176-13.531c-.572,.004-1.141-.158-1.709-.486-.574-.331-1-.745-1.279-1.24s-.41-1.03-.395-1.604c.016-.573,.184-1.136,.502-1.688,.321-.557,.727-.985,1.214-1.283,.488-.298,1.016-.45,1.583-.457,.569-.006,1.139,.157,1.714,.488,.568,.329,.993,.741,1.274,1.238,.281,.496,.416,1.031,.401,1.602-.014,.572-.183,1.135-.504,1.693-.319,.552-.723,.978-1.212,1.278-.489,.3-1.02,.454-1.59,.458Zm2.055,3.235c.365-.539,.774-.868,1.228-.988,.454-.12,.914-.022,1.38,.293,.467,.316,.729,.707,.787,1.172,.058,.466-.095,.968-.46,1.508-.359,.53-.767,.857-1.223,.981-.456,.124-.919,.029-1.385-.287-.466-.315-.728-.708-.783-1.178-.054-.47,.097-.97,.456-1.501Zm-43.591,24.801l4.132-.778,.484,2.571-4.132,.778,.239,1.27,5.32-1.002,.524,2.782-9.111,1.717-2.022-10.738,8.915-1.679,.524,2.783-5.124,.965,.251,1.333Zm5.654-5.495l3.607-1.369,2.871,7.57,4.628-1.756,1.004,2.647-8.235,3.123-3.875-10.216Zm-18.067,13.25l-3.774,.061-.177-10.925,5.926-.096c1.424-.023,2.521,.277,3.293,.899,.771,.622,1.166,1.458,1.183,2.506,.019,1.203-.339,2.114-1.074,2.733-.265,.223-.591,.394-.946,.54l2.753,4.166-4.188,.068-1.99-3.593-1.064,.017,.059,3.625Zm-47.702-23.092l-1.841,1.107-2.707-2.726,10.249-5.186,3.267,3.289-5.244,10.225-2.777-2.795,1.131-1.822-2.078-2.093Zm12.191-.509l4.814,3.223c.817,.547,1.426,1.135,1.829,1.763,.402,.628,.591,1.279,.566,1.952-.027,.673-.269,1.353-.73,2.042-.46,.688-.997,1.172-1.61,1.452-.612,.281-1.286,.354-2.02,.221-.735-.133-1.51-.473-2.326-1.02l-1.609-1.077-1.787,2.668-3.206-2.146,6.08-9.078Zm9.829,6.379l5.36,2.202c.908,.374,1.622,.828,2.143,1.364,.519,.535,.833,1.136,.942,1.801,.108,.665,.005,1.38-.309,2.146-.315,.766-.745,1.347-1.29,1.743s-1.19,.603-1.936,.618c-.747,.016-1.574-.163-2.482-.536l-1.792-.736-1.22,2.971-3.568-1.465,4.152-10.107Zm12.876,4.64l4.543,.922,1.314,11.416-3.861-.784-.071-2.143-2.891-.587-.917,1.943-3.764-.765,5.646-10.003Zm14.009,24.262c-32.271,0-60.126-18.879-73.142-46.191l2.361-.633,2.352-.63c12.428,25.26,38.427,42.69,68.429,42.69,42.028,0,76.221-34.192,76.221-76.221,0-1.741-.08-3.463-.195-5.175l2.34-.627,2.342-.628c.167,2.124,.277,4.263,.277,6.43,0,44.727-36.258,80.985-80.985,80.985Zm83.304-91.135l-2.877,.771-2.324,.623-2.321,.622-2.991,.802-4.496,1.205c-.682-.518-1.552-.932-2.67-1.056-.222-.024-.452-.037-.684-.037-.539,0-1.107,.066-1.689,.196-.201,.045-.394,.097-.588,.153-.286,.084-.521,.19-.709,.275-.05,.023-.102,.048-.153,.068l-.154,.061-.146,.078-.937,.5-.162,.409c-.052,.066-.1,.13-.144,.194-.933,.128-1.92,.338-2.835,.754-.638,.288-1.181,.706-1.609,1.239-.167,.208-.29,.414-.396,.617l-4.006,1.073h0l-.04,.01c-.164,.039-1.166,.281-2.419,.644l-.246,.071c-.66,.195-6.028,1.615-6.028,1.615,1.05-1.89,3.046-6.506,2.22-12.973-.257-2.011-.772-4.19-1.695-6.531-1.445-3.929-2.527-7.041-3.297-9.563h0l-.005-.015c-.148-.485-.283-.944-.408-1.387-.14-.493-.267-.966-.379-1.41-.273-1.086-.465-2.033-.583-2.874,.711,.804,1.395,1.632,2.054,2.48,.323,.415,.642,.832,.952,1.257,.306,.419,.61,.841,.903,1.27l24.764-6.636h0l.121-.032,2.352-.63,2.379-.637,8.698-2.331c.232-.062,.46-.092,.68-.092,1.196,0,2.157,.879,2.273,2.2l2.053,23.461c.137,1.565-.963,3.158-2.457,3.558Z" fill="#fff"/>
  <path d="M157.178,68.257c-.647-.591-1.485-.786-2.36-.551-2.567,.688-3.839,3.874-4.37,5.714-.752,2.608-.91,5.517-.403,7.408,.229,.853,.591,1.51,1.077,1.954,.647,.589,1.485,.786,2.36,.551h0c2.567-.688,3.839-3.876,4.37-5.714,.751-2.609,.91-5.518,.403-7.409-.228-.852-.591-1.51-1.077-1.952Zm-1.272,6.671l-.006,.035c-.083,.526-.171,1.008-.264,1.448l-.037,.172c-.005,.019-.009,.037-.012,.057-.661,2.972-1.539,3.974-2.223,4.158-.046,.012-.091,.02-.138,.021-.688,.024-1.373-1.188-.831-4.709,.002-.012,.003-.023,.006-.034,.082-.527,.17-1.009,.263-1.45,.012-.057,.026-.115,.037-.171,.005-.018,.009-.038,.013-.056,.66-2.972,1.539-3.976,2.221-4.159,.046-.012,.092-.02,.138-.021,.689-.024,1.373,1.189,.832,4.709Z" fill="#fff"/>
  <path d="M169.351,69.139l-.017,.006c-.165,.045-.331,.104-.495,.177l.175-1.123,.281-1.804,3.382-.906,.403-2.673-3.378,.905v-.004l-2.156,.578-.454,.122-.584,3.858-.5,3.303,1.791,.63,.337,.119s.415-.601,1.097-.785c.364-.098,.667-.011,.914,.172,.382,.282,.632,.796,.754,1.251,.132,.493,.157,1.087,.07,1.669-.159,1.065-.708,2.088-1.764,2.371-.047,.013-.092,.013-.138,.019-.702,.098-1.304-.493-1.164-1.573,.071-.557,.166-.988,.166-.988l-1.958,.525-.652,.175c-.276,1.875,.378,3.487,1.69,4.139,.662,.329,1.489,.416,2.455,.161l.018-.004c.893-.239,1.612-.666,2.181-1.21,3.256-3.113,1.463-10.161-2.455-9.111Z" fill="#fff"/>
  <path d="M162.897,65.546c-.191,.537-.603,1.204-1.191,1.891-.779,.91-1.873,1.856-3.253,2.59l1.668,1.897c.727-.354,1.404-.812,2.015-1.329l-1.64,10.857,2.511-.673,.598-3.959,1.013-6.703,.614-4.065-2.333-.512-.002,.005Z" fill="#fff"/>
  <polygon points="80.55 156.57 80.48 154.664 80.432 154.655 79.641 156.386 78.855 158.05 80.61 158.407 80.55 156.57" fill="#fff"/>
</svg>