<?xml version="1.0" encoding="UTF-8"?>
<svg id="Layer_1" data-name="Layer 1" xmlns="http://www.w3.org/2000/svg" width="253" height="27.818" viewBox="0 0 253 27.818">
  <path d="M16.503,8.925h-2.826l1.316-3.015c.597-1.21,1.356-2.232,3.083-3.052l-1.881-2.857c-.792,.259-1.82,.393-2.898,.531-2.022,.259-4.315,.555-6.463,1.772-2.18,1.234-3.763,3.167-4.817,5.876l2.997,2.417c1.335-4.491,3.839-5.644,6.676-6.169l-1.965,4.498h-2.229l-1.462,3.348h2.229l-1.056,2.414-.03,.077c-.924,2.185-1.904,2.753-2.711,2.753-.817,0-1.311-.171-1.829-1.432L0,18.799c.782,2.067,2.567,2.804,4.234,2.804,4.069,0,5.747-4.118,6.296-5.473l1.684-3.856h2.826l1.462-3.348Z" fill="#fff"/>
  <path d="M20.762,7.147c1.089,0,2.128-.884,2.321-1.973,.192-1.089-.536-1.973-1.625-1.973s-2.128,.884-2.32,1.973c-.193,1.089,.534,1.973,1.624,1.973Z" fill="#fff"/>
  <path d="M106.739,18.55c-2.002-.05,.503-4.777,4.093-7.88l-1.279-2.612h-4.587c.388-.891,.619-1.419,.619-1.419h-3.38s-.402,.874-1.003,2.299c-.889,2.095-1.707,3.766-2.798,5.9-1.014,1.953-3.514,3.473-5.898,3.473-1.207,0-1.854-.548-2.094-1.345,4.488-.4,7.613-3.385,7.613-5.903,0-1.61-1.061-3.012-3.12-3.012-4.536,0-7.671,3.884-8.234,7.494-.903,1.516-1.897,2.483-3.03,2.483-.987,0-1.287-.891-.829-2.007,.158-.383,1.977-4.532,3.479-7.964h2.276c.079-.182,1.229-2.807,1.229-2.807h-2.278c.857-1.96,1.493-3.412,1.493-3.412h-3.647l-1.493,3.412h-2.051l-1.229,2.807h2.051l-2.612,5.97c-.254,.632-.555,1.303-.792,2.036-.82,1.223-1.717,1.965-2.721,1.965-.988,0-1.252-1.042-.684-2.34,.165-.38,1.834-4.202,3.336-7.634h-3.649l-.351,.8c-.523-.454-1.323-.8-2.397-.8-3.579,0-6.088,2.781-7.13,5.822-.24-.108-.479-.242-.706-.433,.318-1.042,.457-1.822,.457-3.026,0-1.57-1.056-2.363-2.086-2.363-2.415,0-3.537,4.206-1.928,6.145-1.138,2.135-3.073,4.111-4.333,4.111-1.203,0-.953-1.136-.351-2.545,.163-.38,1.861-4.276,3.363-7.708h-3.649l-2.694,6.169c-.898,2.057-2.449,4.226-3.948,4.226-.765,0-.891-.645-.304-1.96,.052-.118,3.703-8.438,3.703-8.438h-3.647l-2.891,6.612c-.028,.063-.047,.107-.073,.166h-.002c-1.012,1.955-3.516,3.478-5.903,3.478-1.207,0-1.854-.548-2.094-1.345,4.488-.4,7.613-3.385,7.613-5.903,0-1.61-1.061-3.012-3.12-3.012-4.274,0-7.32,3.45-8.129,6.868-1.343,2.439-3.086,3.6-4.111,3.63-2.002-.05,.503-4.777,4.093-7.88l-1.279-2.612h-4.587c.388-.891,.619-1.419,.619-1.419h-3.38s-.402,.874-1.003,2.299c-.896,2.111-1.677,3.735-2.782,5.893l.018,.009c-1.011,1.947-2.137,3.188-3.444,3.188-.987,0-1.288-.891-.827-2.007,.156-.383,1.977-4.532,3.479-7.967h-3.649l-2.614,5.974c-.499,1.244-1.19,2.636-1.19,4.36,0,1.862,1.232,3.214,3.236,3.214,3.41,0,6.147-2.383,7.68-5.436l-.019-.009c1.159-2.099,1.708-3.46,2.609-5.259h2.642c-4.671,4.831-4.853,10.704-.277,10.704,1.717,0,3.585-.891,5.178-2.396,.757,1.416,2.247,2.396,4.67,2.396,2.251,0,4.223-.595,5.886-1.694,.554,.998,1.617,1.694,3.08,1.694,1.777,0,3.162-.632,4.175-1.372,.575,.854,1.59,1.372,3.039,1.372,3.696,0,6.249-2.552,7.718-5.443,.378,.257,.804,.41,1.242,.547-.071,2.654,1.133,4.896,3.966,4.896,1.563,0,2.657-.635,3.347-1.415,.459,.877,1.405,1.405,2.671,1.415,1.618-.01,3.043-.559,4.265-1.446,.534,.868,1.442,1.446,2.709,1.446,2.008,0,3.775-.84,5.208-2.143,.796,1.284,2.27,2.143,4.553,2.143,4.055,0,7.316-1.756,9.199-5.38l.008,.004c1.163-2.104,1.754-3.526,2.657-5.328h2.642c-4.671,4.831-4.853,10.704-.277,10.704,2.674,0,5.722-2.141,7.51-5.436l-2.666-1.335c-1.35,2.508-3.13,3.688-4.169,3.718Zm-12.45-7.537c.299,0,.566,.242,.555,.608-.027,.783-1.377,2.212-4.093,2.535,.696-1.641,2.101-3.143,3.538-3.143Zm-51.858,0c.299,0,.566,.242,.555,.608-.027,.783-1.377,2.212-4.093,2.535,.696-1.641,2.101-3.143,3.538-3.143Zm30.664,2.582c-.642,1.419-2.041,4.182-3.5,4.182-1.987,0-.071-6.387,3.313-6.387,.419,0,.746,.165,.968,.42l-.782,1.785Z" fill="#fff"/>
  <path d="M208.926,18.029c-.987,0-1.286-.891-.827-2.007,.156-.383,1.977-4.532,3.479-7.967h-.002c1.402-3.204,2.72-6.216,2.72-6.216h-3.647l-5.333,12.19c-.105,.262-.22,.535-.334,.811l-.016-.008c-1.012,1.957-3.516,3.479-5.903,3.479-1.207,0-1.854-.548-2.094-1.345,4.488-.4,7.613-3.385,7.613-5.903,0-1.61-1.061-3.012-3.12-3.012-4.274,0-7.32,3.45-8.129,6.868-1.343,2.439-3.086,3.6-4.111,3.63-2.002-.05,.503-4.777,4.093-7.88l-1.279-2.612h-4.587c.388-.891,.619-1.419,.619-1.419h-3.38s-.402,.874-1.003,2.299c-.889,2.096-1.71,3.772-2.802,5.908-1.009,1.944-2.135,3.182-3.44,3.182-.988,0-1.252-1.042-.684-2.34,.165-.38,1.834-4.202,3.336-7.634h-3.649l-.351,.8c-.523-.454-1.323-.8-2.397-.8-3.97,0-6.64,3.42-7.431,6.823-.836,1.598-2.111,2.365-3.193,2.401,.812-1.587,1.208-3.335,1.208-4.727,0-2.531-.931-4.498-3.172-4.498-.703,0-1.34,.319-1.908,.81l.355-.81h-3.649c-.336,.767-1.556,3.556-2.975,6.8-.834,1.616-2.119,2.388-3.207,2.425,.812-1.587,1.209-3.335,1.209-4.727,0-2.531-.931-4.498-3.172-4.498-.703,0-1.34,.319-1.908,.81l.355-.81h-3.649c-.338,.772-1.572,3.594-3.004,6.866-1.011,1.9-2.419,3.111-3.518,3.111-.63,0-.931-.437-.651-1.079,.072-.165,5.693-13.013,5.693-13.013h.948l-.698-3.893c-3.79,0-7.014,1.338-10.942,6.602-1.284,1.718-2.696,3.805-3.538,5.073h-1.854c-.286,.608-1.377,2.837-1.627,3.348h1.247l-4.224,6.515h4.441l4.042-6.515h3.688c-.407,.924-.872,1.987-1.049,2.397-.898,2.078,.355,4.135,2.782,4.135,.886,0,1.728-.147,2.516-.412-1.596,3.648-2.9,6.628-2.9,6.628h3.649l3.253-7.436c.491,.723,1.343,1.22,2.567,1.22,1.829,0,3.311-.713,4.463-1.785,.62,.272,1.249,.464,1.861,.464,.285,0,.581-.024,.881-.063-1.785,4.081-3.325,7.6-3.325,7.6h3.649l3.252-7.436c.491,.723,1.343,1.22,2.567,1.22,1.829,0,3.311-.713,4.463-1.785,.62,.272,1.249,.464,1.861,.464,1.067,0,2.259-.252,3.396-1.04,.567,1.398,1.713,2.361,3.561,2.361,1.563,0,2.657-.635,3.347-1.415,.459,.877,1.405,1.405,2.671,1.415,3.396-.02,5.971-2.364,7.507-5.398h.002c1.163-2.104,1.744-3.504,2.647-5.306h2.642c-4.671,4.831-4.853,10.704-.277,10.704,1.717,0,3.585-.891,5.178-2.396,.757,1.416,2.247,2.396,4.67,2.396,2.32,0,4.338-.641,6.03-1.808,.47,1.09,1.493,1.808,2.938,1.808,3.41,0,6.145-2.383,7.678-5.436l-2.664-1.335c-1.012,1.953-2.14,3.197-3.449,3.197Zm-8.078-7.016c.299,0,.566,.242,.555,.608-.027,.783-1.377,2.212-4.093,2.535,.696-1.641,2.101-3.143,3.538-3.143Zm-66.812,.709h-2.938c2.614-3.799,4.437-5.856,5.937-6.868l-2.999,6.868Zm9.509,7.033c-1.002,0-.864-.965,.187-.965,.301,0,.667,.138,1.082,.35-.412,.383-.844,.615-1.269,.615Zm2.898-3.126c-.62-.323-1.341-.561-2.237-.561-.405,0-.78,.047-1.124,.131l.642-1.466c.645-1.459,1.407-2.484,2.451-2.484,.528,0,1.002,.454,1.002,1.351,0,.864-.284,1.983-.733,3.029Zm10.45,3.126c-1.002,0-.864-.965,.187-.965,.301,0,.667,.138,1.082,.35-.412,.383-.844,.615-1.269,.615Zm2.898-3.126c-.62-.323-1.341-.561-2.235-.561-.407,0-.782,.047-1.126,.131l.642-1.466c.645-1.459,1.407-2.484,2.451-2.484,.528,0,1.002,.454,1.002,1.351,0,.864-.284,1.983-.733,3.029Zm14.23-2.034c-.642,1.419-2.041,4.182-3.5,4.182-1.987,0-.071-6.387,3.313-6.387,.419,0,.746,.165,.968,.42l-.782,1.785Z" fill="#fff"/>
  <path d="M247.025,17.165l.213-2.837c-.23,.034-.602,.044-1.007,.017,.534-3.331-.588-6.555-3.797-6.555-1.726,0-2.883,.783-3.483,1.879-2.01,1.302-3.224,3.379-3.65,5.438-1.084,1.423-3.214,2.755-5.63,2.755-2.987,0-3.891-1.926-3.891-3.984,0-4.901,4.474-10.257,7.444-10.257,.886,0,1.153,1.98-1.911,2.941l2.572,2.578c2.447-1.143,3.78-2.75,3.78-5.217,0-2.071-1.291-3.923-4.142-3.923-6.491,0-11.667,7.547-11.667,14.566,0,4.014,2.278,7.036,6.829,7.036,2.488,0,4.95-.919,6.882-2.532,.611,1.489,1.858,2.532,3.78,2.532,2.797,0,4.866-1.957,6.006-4.397,.536,.047,1.091,.037,1.671-.04Zm-7.402,1.479c-1.536,0-1.78-2.578-.666-4.478,.202,.827,1.289,2.151,3.244,2.619-.62,1.076-1.496,1.859-2.578,1.859Zm3.609-5.285c0,.121-.025,.306-.069,.524-2.481-.541-2.296-3.328-1.124-3.328,.951,0,1.316,1.271,1.193,2.804Z" fill="#fff"/>
  <path d="M248.344,17.642c-1.089,0-2.128,.884-2.32,1.973-.193,1.089,.535,1.973,1.624,1.973s2.128-.884,2.321-1.973c.192-1.089-.536-1.973-1.625-1.973Z" fill="#fff"/>
  <path d="M246.523,1.123c-1.352,1.267-1.524,3.521-.442,5,.441,.515,.711,.59,.898,.59,1.038,0,1.461-1.05,1.601-1.396l.228-.523c.176,.148,.259,.543,.324,.776,.108,.386,.209,.807,.412,1.199-.478,.024-.96-.054-1.402-.236-.331,.311-.718,.474-1.164,.474h-.001c2.415,1.738,6.12-.023,6.021-3.17-.008-3.283-4.127-5.072-6.475-2.716Zm2.792,2.854c-.043,0-.093-.005-.144-.014l.668-1.53c.027-.061,.059-.123,.097-.182,.233,.096,.44,.297,.44,.655,0,.496-.348,1.071-1.061,1.071Zm1.252,2.574c-.305-.315-.473-.82-.599-1.219-.065-.206-.135-.394-.219-.561,.377-.051,.719-.238,.988-.527,.511-.546,.679-1.36,.41-1.981-.251-.579-.827-.911-1.579-.911-.759,0-1.466,.315-1.938,.863-.331,.384-.694,1.056-.542,2.075l.874-.349c-.038-.547,.138-1.382,.963-1.665l-1.178,2.693c-.109,.258-.218,.455-.325,.587-.156,.193-.468,.178-.603-.031-.289-.447-.467-1.03-.504-1.688,.03-4.102,6.126-4.108,6.132,0-.097,1.419-.892,2.321-1.88,2.712Z" fill="#fff"/>
</svg>