<?xml version="1.0" encoding="UTF-8"?>
<svg id="Layer_1" data-name="Layer 1" xmlns="http://www.w3.org/2000/svg" width="200" height="60.377" viewBox="0 0 200 60.377">
  <path d="M13.603,23.228l.893-3.702c.437-1.5,1.097-2.817,2.9-4.099l-2.717-2.876c-.85,.453-1.996,.81-3.195,1.186-2.253,.703-4.807,1.5-7.012,3.318-2.235,1.843-3.651,4.365-4.305,7.664l3.898,2.154c.62-5.387,3.241-7.203,6.368-8.372l-1.333,5.521-2.54,.448-.995,4.11,2.54-.448-.716,2.964-.019,.091c-.614,2.677-1.618,3.522-2.538,3.683-.931,.164-1.526,.067-2.371-1.266L0,37.228c1.306,2.197,3.487,2.68,5.389,2.345,4.635-.818,5.719-5.851,6.076-7.503l1.143-4.732,3.222-.569,.993-4.107-3.219,.566Z"/>
  <path d="M21.334,19.773c1.242-.22,2.248-1.435,2.248-2.715-.003-1.28-1.009-2.138-2.248-1.918-1.242,.217-2.248,1.43-2.248,2.712s1.006,2.141,2.248,1.921Z"/>
  <path d="M56.379,30.581c2.028-.357,3.477-1.355,4.483-2.404,.829,.858,2.09,1.245,3.742,.952,4.212-.74,6.607-4.163,7.702-7.75,.493,.22,1.011,.34,1.549,.406,.462,3.019,2.283,5.309,5.498,4.742,1.781-.314,2.9-1.253,3.53-2.283,.697,.909,1.883,1.32,3.329,1.076,1.821-.331,3.32-1.229,4.528-2.465,.783,.887,1.983,1.318,3.431,1.062,2.29-.403,4.135-1.718,5.507-3.494,1.166,1.304,3.018,1.989,5.623,1.53,4.63-.815,8.005-3.479,9.417-8.004h.003c.901-2.636,1.294-4.346,1.962-6.578l3.01-.531c-4.354,6.443-3.38,13.171,1.835,12.254,3.047-.539,6.089-3.589,7.466-7.702l-3.305-.987c-1.035,3.128-2.827,4.831-4.005,5.073-2.291,.346-.386-5.545,3.082-9.802l-1.982-2.72-5.231,.92c.266-1.092,.424-1.736,.424-1.736l-3.852,.679s-.282,1.076-.681,2.819c-.595,2.573-1.197,4.624-2.014,7.287-.764,2.431-3.31,4.667-6.028,5.147-1.373,.241-2.221-.255-2.658-1.113,5.035-1.357,7.997-5.389,7.49-8.257-.322-1.835-1.813-3.222-4.161-2.806-5.166,.91-7.957,5.96-7.877,10.186-.727,1.916-1.665,3.222-2.958,3.45-1.127,.199-1.647-.756-1.347-2.122,.099-.467,1.341-5.561,2.363-9.775l2.594-.456c.054-.223,.834-3.447,.834-3.447l-2.594,.456c.582-2.406,1.017-4.187,1.017-4.187l-4.161,.732-1.014,4.187-2.336,.413-.837,3.447,2.339-.413-1.779,7.331c-.16,.76-.367,1.574-.49,2.444-.692,1.578-1.568,2.619-2.721,2.822-1.127,.199-1.636-.939-1.25-2.53,.11-.464,1.245-5.153,2.267-9.373l-4.158,.735-.239,.984c-.687-.41-1.669-.646-2.892-.429-4.082,.72-6.382,4.397-6.958,8.073-.3-.076-.605-.181-.907-.358,.148-1.25,.153-2.167-.089-3.538-.317-1.789-1.679-2.481-2.854-2.275-2.752,.486-3.184,5.505-.96,7.393-.869,2.661-2.677,5.303-4.112,5.556-1.371,.241-1.314-1.105-.912-2.83,.11-.464,1.261-5.244,2.283-9.461l-4.158,.732-1.829,7.573c-.612,2.524-1.942,5.309-3.651,5.612-.872,.153-1.145-.558-.74-2.176,.035-.142,2.527-10.357,2.527-10.357l-4.158,.732-1.969,8.115c-.019,.08-.034,.135-.052,.209l-.007-.002c-.762,2.433-3.31,4.673-6.03,5.153-1.373,.241-2.224-.255-2.658-1.116,5.035-1.355,7.997-5.387,7.492-8.254-.325-1.835-1.816-3.222-4.163-2.809-4.862,.858-7.639,5.388-7.884,9.441-1.04,3.066-2.802,4.747-3.968,4.986-2.291,.343-.386-5.545,3.082-9.802l-1.982-2.72-5.231,.92c.266-1.092,.424-1.738,.424-1.738l-3.852,.681s-.282,1.076-.681,2.819c-.598,2.586-1.162,4.593-1.985,7.278l.015,.005c-.761,2.425-1.793,4.065-3.285,4.328-1.124,.199-1.644-.759-1.347-2.125,.102-.467,1.344-5.561,2.363-9.775l-4.158,.732-1.779,7.331c-.317,1.518-.824,3.243-.477,5.21,.373,2.119,2.049,3.412,4.332,3.01,3.887-.684,6.527-3.949,7.659-7.736l-.016-.005c.899-2.631,1.25-4.29,1.918-6.519l3.01-.531c-4.354,6.443-3.38,13.171,1.835,12.254,1.96-.347,3.911-1.743,5.426-3.782,1.146,1.466,3.043,2.287,5.809,1.799,2.565-.452,4.727-1.49,6.402-3.077,.835,1.003,2.176,1.565,3.824,1.274ZM105.969,9.397c.341-.062,.695,.161,.754,.577,.126,.901-1.124,2.801-4.155,3.715,.467-2.012,1.765-4.005,3.401-4.292Zm-24.307,4.727c.475-.083,.883,.038,1.183,.282l-.531,2.194c-.445,1.744-1.483,5.175-3.147,5.467-2.264,.4-1.363-7.262,2.495-7.943Zm-34.838,5.7c.341-.059,.695,.164,.751,.579,.129,.901-1.124,2.798-4.153,3.713,.464-2.009,1.762-4.002,3.401-4.292Z"/>
  <path d="M155.622,34.137c-1.127,.197-1.647-.758-1.347-2.123,.102-.468,1.341-5.561,2.363-9.779,.952-3.931,1.848-7.632,1.848-7.632l-4.158,.734-3.627,14.966c-.068,.321-.144,.656-.219,.996l-.028-.008c-.762,2.433-3.31,4.673-6.03,5.153-1.373,.241-2.224-.255-2.656-1.113,5.035-1.357,7.997-5.388,7.49-8.257-.322-1.834-1.816-3.22-4.161-2.806-4.861,.857-7.639,5.385-7.884,9.438-1.043,3.066-2.802,4.748-3.968,4.987-2.291,.345-.386-5.546,3.082-9.801l-1.982-2.723-5.231,.923c.266-1.093,.424-1.738,.424-1.738l-3.852,.679s-.284,1.076-.684,2.819c-.591,2.57-1.198,4.636-2.013,7.29-.761,2.425-1.796,4.064-3.285,4.326-1.127,.199-1.639-.938-1.253-2.528,.113-.465,1.247-5.156,2.269-9.373l-4.158,.734-.239,.984c-.687-.412-1.671-.645-2.894-.431-4.51,.795-6.866,5.203-7.097,9.23-.625,2.017-1.939,3.159-3.175,3.421,.606-1.972,.708-4.043,.427-5.631-.507-2.884-1.964-4.936-4.517-4.485-.802,.141-1.462,.629-2.012,1.304l.244-.993c-1.309,.231-2.838,.5-4.158,.734-.229,.939-1.056,4.35-2.019,8.321l-.007-.002c-.625,2.029-1.942,3.175-3.182,3.438,.606-1.973,.706-4.044,.427-5.631-.51-2.885-1.964-4.936-4.517-4.487-.802,.141-1.462,.63-2.012,1.305l.241-.993c-1.306,.231-2.838,.5-4.158,.732-.228,.941-1.057,4.361-2.022,8.34-.764,2.42-2.149,4.116-3.418,4.34-.716,.126-1.148-.31-.958-1.099,.048-.2,3.874-15.972,3.874-15.972l1.081-.19-1.577-4.297c-4.322,.762-7.726,2.935-11.146,9.724-1.116,2.217-2.307,4.878-3.013,6.494l-2.111,.372c-.204,.751-.998,3.51-1.183,4.142l1.422-.251-3.503,8.274,5.059-.892,3.3-8.238,4.201-.74c-.276,1.137-.593,2.437-.714,2.941-.604,2.548,1.237,4.639,4.002,4.153,1.015-.179,1.949-.517,2.798-.981-1.086,4.48-1.974,8.141-1.974,8.141l4.158-.734,2.213-9.127c.706,.723,1.776,1.119,3.171,.872,2.084-.368,3.629-1.477,4.727-2.928,.762,.186,1.516,.276,2.213,.153,.33-.058,.668-.148,1.007-.255-1.215,5.012-2.263,9.334-2.263,9.334l4.158-.734,2.21-9.127c.706,.724,1.776,1.119,3.173,.873,2.084-.368,3.627-1.477,4.727-2.929,.759,.188,1.516,.276,2.21,.153,1.222-.215,2.535-.744,3.676-1.88,.926,1.484,2.428,2.356,4.538,1.984,1.781-.314,2.9-1.254,3.528-2.286,.7,.911,1.886,1.321,3.329,1.076,3.877-.704,6.344-3.909,7.482-7.684h0c.904-2.635,1.284-4.32,1.952-6.554l3.013-.53c-4.354,6.441-3.38,13.171,1.835,12.251,1.96-.346,3.912-1.741,5.426-3.781,1.146,1.466,3.043,2.287,5.809,1.8,2.639-.465,4.85-1.55,6.542-3.215,.76,1.116,2.065,1.697,3.686,1.411,3.887-.685,6.527-3.951,7.659-7.736l-3.302-.986c-.762,2.429-1.797,4.073-3.289,4.338Zm-86.692,7.876l-3.348,.59c2.216-4.855,3.879-7.567,5.387-9.021l-2.039,8.431Zm12.262,6.101c-1.14,.201-1.18-.93,.019-1.14,.341-.062,.789,.024,1.304,.181-.392,.52-.84,.873-1.322,.959Zm2.675-4.145c-.773-.244-1.642-.374-2.664-.193-.464,.08-.88,.209-1.253,.377l.435-1.801c.44-1.789,1.105-3.113,2.294-3.322,.601-.106,1.231,.317,1.411,1.337,.174,.986,.078,2.316-.223,3.603Zm12.549,1.459c-1.14,.201-1.18-.928,.019-1.14,.341-.06,.789,.025,1.304,.182-.392,.52-.84,.872-1.322,.958Zm2.675-4.145c-.773-.243-1.642-.373-2.661-.193-.464,.082-.883,.211-1.255,.378l.437-1.803c.44-1.788,1.103-3.112,2.294-3.322,.598-.106,1.231,.317,1.411,1.337,.174,.986,.075,2.318-.225,3.603Zm15.824-5.181c-.445,1.744-1.486,5.176-3.147,5.468-2.264,.4-1.363-7.264,2.492-7.943,.477-.085,.883,.038,1.186,.282l-.531,2.193Zm30.079-8.336c.343-.062,.695,.161,.754,.578,.126,.9-1.124,2.799-4.155,3.714,.464-2.012,1.765-4.005,3.401-4.292Z"/>
  <path d="M195.818,22.214c-.258,.086-.679,.172-1.145,.221-.062-3.906-1.988-7.353-5.644-6.708-1.966,.346-3.128,1.473-3.592,2.841-2.052,1.91-3.015,4.557-3.066,7.011-.975,1.813-3.166,3.712-5.872,4.19-3.407,.601-4.823-1.41-5.236-3.754-.984-5.588,3.037-12.588,6.422-13.185,1.009-.177,1.711,2.021-1.585,3.737l3.447,2.42c2.562-1.795,3.756-3.892,3.259-6.705-.416-2.359-2.259-4.212-5.507-3.639-7.398,1.305-11.779,10.946-10.368,18.947,.807,4.572,4.008,7.558,9.198,6.643,2.839-.501,5.462-2.047,7.339-4.278,.996,1.578,2.628,2.52,4.821,2.133,3.187-.562,5.15-3.207,5.961-6.215,.62-.058,1.253-.177,1.897-.384l-.327-3.275Zm-7.812,6.449c-1.752,.308-2.548-2.581-1.658-4.968,.394,.901,1.899,2.192,4.22,2.331-.491,1.352-1.328,2.42-2.562,2.637Zm1.124-9.703c1.086-.19,1.757,1.183,1.926,2.952,.024,.139,.032,.355,.03,.616-2.94-.121-3.289-3.332-1.956-3.568Z"/>
  <path d="M197.755,25.769c-1.242,.219-2.251,1.434-2.248,2.713,0,1.281,1.006,2.142,2.248,1.922,1.242-.219,2.248-1.435,2.245-2.715,0-1.28-1.006-2.139-2.245-1.921Z"/>
</svg>