<?xml version="1.0" encoding="UTF-8"?>
<svg id="Layer_1" data-name="Layer 1" xmlns="http://www.w3.org/2000/svg" width="3.125in" height="1.528in" viewBox="0 0 225 110">
  <g>
    <path d="M3.631,57.382v-2.543c-.256-.286-.834-.692-2.114-.847-.628-.076-1.117-.22-1.517-.392v2.674c.343,.21,.851,.406,1.628,.5,.917,.11,1.546,.344,2.003,.608" fill="#802745"/>
    <path d="M3.631,61.082v-2.544c-.256-.286-.834-.692-2.114-.846-.628-.076-1.117-.22-1.517-.393v2.675c.343,.21,.851,.406,1.628,.5,.917,.11,1.546,.344,2.003,.608" fill="#802745"/>
    <path d="M3.631,53.684v-2.543c-.256-.286-.834-.692-2.114-.847-.628-.076-1.117-.22-1.517-.392v2.674c.343,.21,.851,.406,1.628,.5,.917,.11,1.546,.344,2.003,.608" fill="#802745"/>
    <path d="M3.631,64.467v-2.23c-.256-.286-.834-.692-2.114-.847-.628-.076-1.117-.22-1.517-.392v2.674c.343,.21,.851,.406,1.628,.5,.917,.11,1.554,.122,2.003,.294" fill="#802745"/>
    <path d="M3.631,46.286v-2.543c-.256-.287-.834-.692-2.114-.847-.628-.076-1.117-.22-1.517-.392v2.674c.343,.21,.851,.406,1.628,.5,.917,.11,1.546,.344,2.003,.608" fill="#802745"/>
    <path d="M3.631,49.985v-2.543c-.256-.287-.834-.692-2.114-.847-.628-.076-1.117-.22-1.517-.392v2.674c.343,.21,.851,.406,1.628,.5,.917,.11,1.546,.344,2.003,.608" fill="#802745"/>
    <path d="M221.369,54.839v2.543c.457-.264,1.086-.497,2.003-.608,.777-.094,1.285-.29,1.628-.5v-2.674c-.4,.173-.889,.316-1.517,.392-1.28,.155-1.858,.56-2.114,.847" fill="#802745"/>
    <path d="M221.369,58.538v2.544c.457-.265,1.086-.498,2.003-.608,.777-.094,1.285-.29,1.628-.5v-2.674c-.4,.173-.889,.316-1.517,.393-1.28,.154-1.858,.56-2.114,.846" fill="#802745"/>
    <path d="M221.369,51.14v2.543c.457-.264,1.086-.497,2.003-.608,.777-.094,1.285-.29,1.628-.5v-2.674c-.4,.173-.889,.316-1.517,.392-1.28,.155-1.858,.56-2.114,.847" fill="#802745"/>
    <path d="M221.369,62.237v2.23c.448-.173,1.086-.184,2.003-.295,.777-.094,1.285-.29,1.628-.5v-2.674c-.4,.172-.889,.316-1.517,.392-1.28,.155-1.858,.56-2.114,.847" fill="#802745"/>
    <path d="M223.184,36.343c-.092-.045-.172-.075-.245-.075-.107,0-.198,.065-.291,.243-.117,.223-.238,.433-.363,.638-1.467,2.41-3.501,3.63-5.763,4.35-.813,.259-1.633,.44-2.458,.57-.954,.15-1.914,.232-2.878,.273-.801,.034-1.603,.069-2.403,.124-.114,.007-.265,.091-.329,.206-1.485,2.709-3.497,4.588-5.671,6.199-2.413,1.787-4.957,3.109-7.578,4.163H29.795c-2.62-1.054-5.165-2.376-7.577-4.163-2.175-1.611-4.187-3.49-5.672-6.199-.063-.115-.215-.198-.329-.206-.801-.055-1.602-.089-2.403-.124-.964-.041-1.924-.123-2.878-.273-.825-.13-1.645-.312-2.458-.57-2.262-.721-4.296-1.941-5.762-4.35-.125-.205-.247-.415-.363-.638-.093-.179-.185-.243-.291-.243-.073,0-.153,.03-.245,.075-.594,.288-1.2,.499-1.816,.643v4.536l.303,.136c.382,.171,.815,.433,1.322,.494,2.606,.6,2.32,1.359,2.936,1.692,.856,.464,1.786,.856,2.794,1.178,1.216,.387,2.505,.658,3.944,.828,.742,.088,1.521,.151,2.356,.187,.21,.009,.421,.018,.634,.028,1.188,1.755,2.518,3.122,3.787,4.225,.674,.586,1.332,1.101,1.941,1.552,.811,.601,1.649,1.164,2.518,1.697,.781,.479,1.585,.934,2.423,1.364-2.25,1.103-4.659,2.541-6.959,4.446-1.361,1.127-2.508,2.305-3.473,3.568-.3-.008-.59-.012-.871-.012-.531,0-1.04,.02-1.539,.05-2.345,.14-4.375,.607-6.284,1.452-.752,.333-1.465,.721-2.136,1.165-.432-.25-1.49-.423-2.176-.505-.58-.07-1.086-.204-1.52-.391v7.489c.549,.117,1.095,.272,1.637,.475,.084,.031,.158,.05,.227,.05,.136,0,.25-.073,.363-.264,.035-.06,.074-.114,.11-.173,1.311-2.154,3.004-3.586,4.991-4.465,1.49-.66,3.004-.981,4.533-1.11,.597-.051,1.195-.075,1.795-.075,.77,0,1.541,.034,2.314,.086,.021,.002,.043,.003,.066,.003,.191,0,.43-.052,.521-.203,1.063-1.748,2.373-3.109,3.8-4.291,2.839-2.352,5.905-3.969,9.079-5.23H195.564c3.174,1.261,6.24,2.878,9.079,5.23,1.427,1.182,2.737,2.543,3.8,4.291,.092,.15,.331,.203,.521,.203,.023,0,.045,0,.067-.003,.773-.052,1.544-.086,2.314-.086,.6,0,1.198,.024,1.795,.075,1.529,.13,3.043,.451,4.534,1.11,1.987,.879,3.68,2.311,4.991,4.465,.036,.059,.075,.113,.11,.173,.112,.191,.225,.264,.363,.264,.069,0,.143-.018,.227-.05,.542-.203,1.089-.357,1.637-.475v-7.489c-.435,.187-.94,.321-1.52,.391-.686,.082-1.744,.255-2.176,.505-.672-.444-1.384-.832-2.137-1.165-1.909-.845-3.939-1.312-6.284-1.452-.5-.03-1.008-.05-1.54-.05-.28,0-.57,.004-.87,.012-.964-1.262-2.112-2.44-3.473-3.568-2.299-1.905-4.708-3.343-6.959-4.446,.838-.43,1.643-.885,2.423-1.364,.869-.533,1.707-1.096,2.518-1.697,.609-.451,1.267-.966,1.941-1.552,1.269-1.103,2.599-2.47,3.787-4.225,.212-.01,.424-.019,.634-.028,.835-.036,1.615-.098,2.356-.187,1.439-.17,2.728-.441,3.944-.828,1.008-.321,1.938-.713,2.794-1.178,.616-.333,.33-1.092,2.937-1.692,.507-.061,.94-.323,1.322-.494l.303-.136v-4.536c-.616-.144-1.222-.355-1.816-.643" fill="#802745"/>
    <path d="M221.369,43.742v2.543c.457-.264,1.086-.498,2.003-.608,.777-.094,1.285-.29,1.628-.5v-2.674c-.4,.172-.889,.316-1.517,.392-1.28,.155-1.858,.56-2.114,.847" fill="#802745"/>
    <path d="M221.369,47.441v2.543c.457-.264,1.086-.498,2.003-.608,.777-.094,1.285-.29,1.628-.5v-2.674c-.4,.172-.889,.316-1.517,.392-1.28,.155-1.858,.56-2.114,.847" fill="#802745"/>
  </g>
  <g>
    <path d="M95.94,65.055l-7.948,33.407h2.001l1.343-5.399h16.799l1.261,5.399h2.083l-7.92-33.407h-7.618Zm-4.22,26.199l5.535-24.226h4.906l5.728,24.226h-16.169Z" fill="#d1b987"/>
    <polygon points="79.327 44.452 81.328 44.452 81.328 13.046 93.797 13.046 93.797 11.237 66.748 11.237 66.748 13.046 79.327 13.046 79.327 44.452" fill="#d1b987"/>
    <path d="M116.249,11.319h-7.619l-7.948,33.407h2.001l1.343-5.399h16.799l1.261,5.399h2.082l-7.92-33.407Zm-11.839,26.199l5.535-24.226h4.906l5.728,24.226h-16.169Z" fill="#d1b987"/>
    <polygon points="142.643 44.452 144.644 44.452 144.644 13.046 157.113 13.046 157.113 11.237 130.065 11.237 130.065 13.046 142.643 13.046 142.643 44.452" fill="#d1b987"/>
    <path d="M56.25,44.095v-9.29c0-1.151-.475-1.982-1.425-2.494l-15.813-9.784c-1.005-.566-1.507-1.361-1.507-2.384l.027-6.659c2.1-.439,4.65-.621,7.646-.548,3.16,.073,5.618,.265,7.372,.575,1.497,.256,2.713,.621,3.645,1.096v-2.713c-3.417-.566-7.116-.85-11.099-.85s-7.135,.292-9.454,.877v8.852c0,1.206,.529,2.128,1.589,2.768l15.539,9.702c1.059,.621,1.589,1.471,1.589,2.548l.027,6.742c-2.339,.421-4.997,.594-7.975,.521-2.905-.055-5.262-.237-7.071-.548-1.48-.274-2.713-.648-3.699-1.124v2.74c3.434,.567,7.052,.85,10.852,.85,3.983,0,7.235-.292,9.756-.877Z" fill="#d1b987"/>
    <path d="M61.927,87.938v-22.609h-1.946v22.526c-3.855,2.777-7.664,4.687-11.428,5.728l-1.672-28.254h-1.836l1.672,31.324c6.065-1.991,10.779-4.375,14.141-7.153,3.38,2.85,8.056,5.225,14.031,7.125l1.672-31.296h-1.891l-1.643,28.227c-4.733-1.626-8.432-3.499-11.099-5.618Z" fill="#d1b987"/>
    <path d="M168.679,12.224l-.028,32.118c2.539,.585,5.801,.877,9.784,.877s7.655-.283,11.072-.849l.082-2.741c-.968,.475-2.202,.841-3.7,1.096-1.754,.311-4.211,.502-7.372,.575-2.978,.074-5.637-.1-7.975-.52v-13.812h18.526v-1.891h-18.526V13.813c2.338-.438,5.006-.621,8.002-.548,3.142,.073,5.599,.265,7.372,.575,1.497,.256,2.731,.621,3.699,1.096l-.082-2.713c-3.417-.566-7.107-.85-11.072-.85s-7.244,.284-9.783,.85Z" fill="#d1b987"/>
    <path d="M159.933,65.959l-.027,32.119c2.539,.585,5.8,.877,9.784,.877,3.964,0,7.655-.283,11.071-.849l.082-2.741c-.968,.475-2.202,.841-3.699,1.096-1.754,.311-4.211,.502-7.372,.575-2.978,.073-5.637-.1-7.975-.521v-13.812h18.526v-1.891h-18.526v-13.264c2.339-.438,5.006-.621,8.003-.548,3.142,.073,5.599,.265,7.372,.576,1.498,.256,2.731,.621,3.7,1.096l-.082-2.713c-3.417-.566-7.108-.849-11.072-.849s-7.245,.284-9.783,.849Z" fill="#d1b987"/>
    <polygon points="144.749 65.11 142.885 65.11 133.704 81.58 127.319 81.58 127.319 65.11 125.429 65.11 125.429 98.133 127.319 98.133 127.319 83.471 133.704 83.471 142.858 98.133 144.749 98.133 135.13 82.512 144.749 65.11" fill="#d1b987"/>
    <path d="M60.882,46.535l1.754-.411-1.452-1.042c-1.059-.804-1.608-1.845-1.644-3.124v.028s-.01-2.832-.028-8.496c0-1.279-.429-2.11-1.287-2.494l-17.429-10.798v-3.809c1.571-.219,3.736-.274,6.495-.164,2.759,.128,5.015,.475,6.769,1.041,2.192,.731,3.553,1.37,4.083,1.919l1.37,1.123V9.264l-.685-.109c-4.33-.822-8.697-1.233-13.099-1.233-5.189,0-10.095,.512-14.717,1.534l-1.727,.411,1.425,1.069c1.059,.786,1.617,1.818,1.672,3.097,0-.018-.01,2.586-.027,7.81,0,1.644,.612,2.805,1.836,3.481l16.936,10.578v3.727c-1.608,.219-3.892,.265-6.852,.137-2.12-.091-4.257-.438-6.413-1.041-2.065-.585-3.91-1.589-5.535-3.015l.027,11.017,.658,.137c4.256,.822,8.54,1.234,12.852,1.234,5.847,0,10.853-.521,15.018-1.562Zm-25.24-5.152c.987,.475,2.22,.849,3.699,1.124,1.809,.311,4.166,.493,7.071,.548,2.977,.073,5.635-.1,7.975-.521l-.027-6.742c0-1.078-.53-1.927-1.589-2.548l-15.539-9.702c-1.06-.639-1.589-1.562-1.589-2.768V11.922c2.319-.585,5.471-.877,9.454-.877s7.682,.284,11.099,.85v2.713c-.932-.475-2.148-.84-3.645-1.096-1.754-.31-4.211-.502-7.372-.575-2.996-.073-5.546,.109-7.646,.548l-.027,6.659c0,1.024,.502,1.818,1.507,2.384l15.813,9.784c.95,.512,1.425,1.343,1.425,2.494v9.29c-2.522,.585-5.773,.877-9.756,.877-3.8,0-7.418-.283-10.852-.85v-2.74Z" fill="#802745"/>
    <path d="M76.066,42.999c-.037,1.242-.658,2.393-1.864,3.453l-1.398,1.178h15.21l-1.617-1.206c-1.188-.877-1.8-2.019-1.836-3.425V15.978h11.428v-7.701l-31.488-.027v7.728h11.565v27.021Zm-9.318-29.954v-1.809h27.048v1.809h-12.469v31.406h-2.001V13.046h-12.579Z" fill="#802745"/>
    <path d="M118.907,8.195h-16.744l1.26,1.206c.256,.201,.548,.603,.877,1.206,.549,.986,.713,1.973,.494,2.959-2.74,13.063-5.18,23.148-7.317,30.255-.274,.841-.969,1.644-2.083,2.412l-2.028,1.398h12.031l1.398-5.481h10.605l1.041,5.481h9.756l-9.29-39.436Zm1.918,31.132h-16.799l-1.343,5.399h-2.001l7.948-33.407h7.619l7.92,33.407h-2.082l-1.261-5.399Z" fill="#802745"/>
    <path d="M109.945,13.292l-5.535,24.226h16.169l-5.728-24.226h-4.906Zm-1.644,21.595l4.028-17.895,4.303,17.895h-8.331Z" fill="#802745"/>
    <path d="M139.382,42.999c-.037,1.242-.658,2.393-1.863,3.453l-1.398,1.178h15.21l-1.617-1.206c-1.188-.877-1.8-2.019-1.836-3.425V15.978h11.428v-7.701l-31.488-.027v7.728h11.565v27.021Zm-9.317-29.954v-1.809h27.048v1.809h-12.469v31.406h-2.001V13.046h-12.578Z" fill="#802745"/>
    <path d="M164.048,9.785l-1.727,.411,1.425,1.069c1.096,.804,1.644,1.827,1.644,3.069-.018,17.649-.018,26.957,0,27.925,.018,1.188-.539,2.202-1.672,3.042l-1.425,1.069,1.726,.411c4.422,1.042,9.437,1.562,15.046,1.562,4.585,0,9.088-.411,13.511-1.233v-11.209c-.658,1.242-2.384,2.265-5.18,3.069-2.083,.603-4.34,.95-6.769,1.041-2.942,.128-5.216,.082-6.824-.137v-7.646h16.333c.42-.018,.749,.073,.987,.274l1.453,1.096v-11.126l-1.617,1.151c-.165,.146-.457,.219-.877,.219h-16.278v-7.153c1.625-.219,3.909-.265,6.851-.137,3.07,.128,5.326,.475,6.77,1.041,2.686,1.06,4.402,2.074,5.152,3.042V9.456c-4.239-.822-8.742-1.233-13.511-1.233-5.81,0-10.816,.521-15.018,1.562Zm25.569,5.152c-.969-.475-2.202-.84-3.699-1.096-1.773-.311-4.23-.502-7.372-.575-2.996-.073-5.664,.109-8.002,.548v13.264h18.526v1.891h-18.526v13.812c2.338,.421,4.997,.594,7.975,.52,3.161-.073,5.618-.265,7.372-.575,1.498-.256,2.732-.621,3.7-1.096l-.082,2.741c-3.417,.567-7.108,.849-11.072,.849s-7.245-.292-9.784-.877l.028-32.118c2.539-.566,5.8-.85,9.783-.85s7.655,.284,11.072,.85l.082,2.713Z" fill="#802745"/>
    <path d="M71.327,62.013l-1.096,26.254c-1.699-.603-3.334-1.334-4.905-2.192v-24.061h-8.633l-.027,24.116c-1.316,1.096-3.078,1.854-5.289,2.274l-1.178-26.391h-12.168l2.001,1.507c1.078,.804,1.635,1.836,1.672,3.097,0,.018,.557,11.702,1.672,35.051,7.015-2.265,12.843-4.988,17.484-8.167,5.371,3.033,11.171,5.81,17.401,8.331l1.672-39.819h-8.605Zm5.234,3.316l-1.672,31.296c-5.975-1.9-10.651-4.275-14.031-7.125-3.362,2.777-8.076,5.161-14.141,7.153l-1.672-31.324h1.836l1.672,28.254c3.763-1.041,7.573-2.95,11.428-5.728v-22.526h1.946v22.609c2.667,2.12,6.366,3.992,11.099,5.618l1.643-28.227h1.891Z" fill="#802745"/>
    <path d="M97.255,67.028l-5.535,24.226h16.169l-5.728-24.226h-4.906Zm-1.644,21.595l4.028-17.895,4.303,17.895h-8.331Z" fill="#802745"/>
    <path d="M89.472,61.931l1.261,1.206c.255,.201,.548,.603,.876,1.206,.549,.986,.713,1.973,.494,2.959-2.74,13.063-5.18,23.148-7.317,30.255-.274,.841-.968,1.644-2.082,2.412l-2.029,1.398h12.031l1.398-5.481h10.605l1.041,5.481h9.756l-9.29-39.435h-16.745Zm19.923,36.531l-1.261-5.399h-16.799l-1.343,5.399h-2.001l7.948-33.407h7.618l7.92,33.407h-2.083Z" fill="#802745"/>
    <path d="M148.01,96.763l-9.18-14.114v-.137l9.18-16.114c1.48-2.302,2.622-3.8,3.426-4.495l-10.496,.028-9.153,16.415h-1.233v-16.388l-12.058,.027,2.22,1.809c.895,.749,1.379,1.635,1.452,2.658v30.31c.036,1.041-.539,2.074-1.726,3.096l-1.699,1.452,11.812,.055v-14.552h1.233l9.153,14.552,10.743-.055c-.713-.603-1.937-2.119-3.672-4.549Zm-5.152,1.37l-9.153-14.662h-6.385v14.662h-1.89v-33.023h1.89v16.47h6.385l9.18-16.47h1.864l-9.619,17.402,9.619,15.621h-1.891Z" fill="#802745"/>
    <path d="M155.302,63.52l-1.727,.411,1.425,1.069c1.096,.804,1.644,1.827,1.644,3.069-.018,17.648-.018,26.957,0,27.925,.018,1.188-.539,2.202-1.672,3.042l-1.425,1.069,1.726,.411c4.422,1.041,9.436,1.562,15.046,1.562,4.585,0,9.088-.411,13.51-1.233v-11.208c-.658,1.242-2.384,2.265-5.18,3.069-2.083,.603-4.339,.95-6.769,1.042-2.942,.128-5.216,.082-6.824-.137v-7.646h16.333c.421-.018,.75,.073,.987,.274l1.452,1.096v-11.126l-1.617,1.151c-.165,.146-.457,.219-.877,.219h-16.278v-7.153c1.625-.219,3.909-.265,6.851-.137,3.069,.128,5.325,.475,6.769,1.041,2.686,1.06,4.403,2.074,5.152,3.042v-11.181c-4.239-.822-8.742-1.233-13.51-1.233-5.81,0-10.816,.521-15.018,1.562Zm25.569,5.152c-.969-.475-2.202-.84-3.7-1.096-1.772-.311-4.23-.502-7.372-.576-2.997-.073-5.664,.11-8.003,.548v13.264h18.526v1.891h-18.526v13.812c2.339,.421,4.997,.594,7.975,.521,3.16-.073,5.618-.265,7.372-.575,1.498-.256,2.731-.621,3.699-1.096l-.082,2.741c-3.417,.566-7.108,.849-11.071,.849-3.984,0-7.245-.292-9.784-.877l.027-32.119c2.539-.566,5.8-.849,9.783-.849s7.655,.284,11.072,.849l.082,2.713Z" fill="#802745"/>
  </g>
</svg>