<?xml version="1.0" encoding="utf-8"?>
<!-- Generator: Adobe Illustrator 26.3.1, SVG Export Plug-In . SVG Version: 6.00 Build 0)  -->
<svg version="1.1" id="Layer_1" xmlns="http://www.w3.org/2000/svg" xmlns:xlink="http://www.w3.org/1999/xlink" x="0px" y="0px"
	 viewBox="0 0 512 512" style="enable-background:new 0 0 512 512;" xml:space="preserve">
<style type="text/css">
	.st0{fill:#E93825;}
</style>
<path class="st0" d="M256,80c17.7,0,32,14.3,32,32s-14.3,32-32,32s-32-14.3-32-32S238.3,80,256,80z M256,408c-30.9,0-56-25.1-56-56
	s25.1-56,56-56c10.3,0,19.9,2.8,28.2,7.6l110.2-75.4c11-7.5,25.9-4.7,33.4,6.2c7.5,11,4.7,25.9-6.2,33.4l-110.3,75.4
	c0.5,2.9,0.7,5.8,0.7,8.8C312,382.9,286.9,408,256,408L256,408z M352,128c17.7,0,32,14.3,32,32s-14.3,32-32,32s-32-14.3-32-32
	S334.3,128,352,128z M112,288c-17.7,0-32-14.3-32-32s14.3-32,32-32s32,14.3,32,32S129.7,288,112,288z M160,128c17.7,0,32,14.3,32,32
	s-14.3,32-32,32s-32-14.3-32-32S142.3,128,160,128z M256,512C114.6,512,0,397.4,0,256S114.6,0,256,0s256,114.6,256,256
	S397.4,512,256,512z M464,256c0-114.9-93.1-208-208-208S48,141.1,48,256s93.1,208,208,208S464,370.9,464,256z"/>
</svg>
