<?xml version="1.0" encoding="utf-8"?>
<!-- Generator: Adobe Illustrator 27.2.0, SVG Export Plug-In . SVG Version: 6.00 Build 0)  -->
<svg version="1.1" id="Layer_1" xmlns="http://www.w3.org/2000/svg" xmlns:xlink="http://www.w3.org/1999/xlink" x="0px" y="0px"
	 viewBox="0 0 225 178.1" style="enable-background:new 0 0 225 178.1;" xml:space="preserve">
<style type="text/css">
	.st0{fill:none;}
	.st1{fill:#FEBE10;}
	.st2{fill:#FFFFFF;}
	.st3{fill:#0B2E62;}
</style>
<g>
	<path class="st0" d="M174.6,145.6c-0.3,0.4-0.7,0.7-1,1.1C174,146.3,174.3,146,174.6,145.6z"/>
	<path class="st0" d="M176,144.1c-0.3,0.4-0.6,0.7-1,1.1C175.3,144.9,175.6,144.5,176,144.1z"/>
	<path class="st0" d="M79.8,166.5c-7.4-3.1-14.2-7.3-20.4-12.3C65.6,159.2,72.5,163.4,79.8,166.5c10.3,4.4,21.3,6.6,32.7,6.6h0.1
		h-0.1C101.2,173.1,90.2,170.8,79.8,166.5z"/>
	<path class="st0" d="M53.3,149.1c-2.2,1.4-4.6,2.2-7.2,2.4c-0.4,0-0.8,0-1.2,0c-4.9,0-7.9-2-9.6-3.7c-2.1-2.1-3.3-5-3.5-8.1
		c-0.2-3.2,0.8-6.4,2.8-8.9c0.3-0.4,0.6-0.7,0.9-1.1c-0.4,0.4-0.7,0.7-1,1.1c-2,2.5-3,5.7-2.8,8.9c0.2,3.1,1.4,5.9,3.5,8.1
		c1.7,1.7,4.6,3.7,9.4,3.7h0.2c0.4,0,0.8,0,1.2,0C48.7,151.3,51.1,150.5,53.3,149.1c0.3,0.2,0.6,0.4,0.9,0.5
		c-0.1-0.1-0.1-0.1-0.2-0.2C53.8,149.3,53.6,149.2,53.3,149.1z"/>
	<path class="st0" d="M177.2,142.6c-0.3,0.4-0.6,0.7-0.9,1.1C176.6,143.3,176.9,143,177.2,142.6z"/>
	<path class="st0" d="M59,153.7c-0.3-0.2-0.5-0.4-0.8-0.7C58.4,153.3,58.7,153.5,59,153.7z"/>
	<path class="st0" d="M35.1,56.4c4.2-10,10.3-19,18-26.7C45.4,37.4,39.3,46.4,35.1,56.4z"/>
	<path class="st0" d="M35.1,121.8c-4.1-9.7-6.3-20-6.6-30.5C28.8,101.8,31,112.1,35.1,121.8c0.8,2,1.8,4.1,2.8,6l0,0
		C36.9,125.8,36,123.8,35.1,121.8z"/>
	<path class="st0" d="M57.2,152.3c-0.1,0-0.1-0.1-0.2-0.2C57.1,152.2,57.2,152.2,57.2,152.3z"/>
	<path class="st0" d="M36,129.3C36,129.2,36.1,129.2,36,129.3C36.1,129.2,36,129.3,36,129.3z"/>
	<path class="st0" d="M173.3,147.1c-0.5,0.5-0.9,0.9-1.4,1.4C172.4,148,172.8,147.5,173.3,147.1z"/>
	<path class="st0" d="M188.4,125L188.4,125C188.5,125,188.5,125,188.4,125L188.4,125z"/>
	<path class="st0" d="M189.9,121.8c4.4-10.3,6.6-21.3,6.6-32.7C196.5,100.4,194.3,111.4,189.9,121.8z"/>
	<path class="st0" d="M184.2,134.9c-0.1,0.1-0.2,0.2-0.2,0.2C184,135,184.1,135,184.2,134.9z"/>
	<path class="st0" d="M189.9,121.8c-0.2,0.6-0.5,1.1-0.7,1.7C189.4,122.9,189.7,122.4,189.9,121.8z"/>
	<path class="st0" d="M178.5,141c-0.3,0.4-0.6,0.7-0.9,1.1C177.9,141.8,178.2,141.4,178.5,141z"/>
	<path class="st0" d="M181.3,137.2c0.1-0.1,0.1-0.2,0.2-0.3c0.9-0.6,1.6-1.1,2.3-1.7c-0.7,0.6-1.4,1.1-2.2,1.7
		C181.5,137,181.4,137.1,181.3,137.2z"/>
	<path class="st0" d="M179.7,139.5c-0.3,0.4-0.6,0.7-0.8,1.1C179.1,140.3,179.4,139.9,179.7,139.5z"/>
	<path class="st0" d="M180.7,138.1c-0.2,0.3-0.4,0.6-0.7,0.9C180.3,138.6,180.5,138.4,180.7,138.1z"/>
	<path class="st0" d="M145.2,166.5L145.2,166.5c10-4.2,19-10.3,26.7-18l0,0C164.2,156.2,155.2,162.2,145.2,166.5L145.2,166.5z"/>
	<g>
		<path class="st1" d="M189.9,56.4c-4.2-10-10.3-19-18-26.7s-16.7-13.8-26.7-18c-10.3-4.4-21.3-6.6-32.7-6.6s-22.3,2.2-32.7,6.6
			c-10,4.2-19,10.3-26.7,18s-13.8,16.7-18,26.7c-4.4,10.3-6.6,21.3-6.6,32.7c0,0.7,0,1.4,0,2.2c0.3,10.6,2.4,20.8,6.6,30.5
			c0.9,2,1.8,4,2.8,6l0,0l0,0c-0.7,0.4-1.3,0.8-1.8,1.3c0,0-0.1,0-0.1,0.1c-0.2,0.2-0.4,0.4-0.5,0.5c-0.3,0.3-0.6,0.7-0.9,1.1
			c-2,2.5-3,5.7-2.8,8.9c0.2,3.1,1.5,5.9,3.5,8.1c1.7,1.7,4.8,3.7,9.6,3.7c0.4,0,0.8,0,1.2,0c2.6-0.2,5.1-1,7.2-2.4
			c0.2,0.1,0.5,0.2,0.7,0.3c0.1,0.1,0.1,0.1,0.2,0.2l0,0c0.9,0.9,1.8,1.7,2.8,2.5c0.1,0,0.1,0.1,0.2,0.2c0.3,0.3,0.6,0.6,1,0.8
			c0.3,0.2,0.5,0.4,0.8,0.7c0.2,0.1,0.3,0.2,0.5,0.4c6.2,5.1,13.1,9.2,20.4,12.3c10.3,4.4,21.3,6.6,32.7,6.6h0.1
			c11.3,0,22.3-2.2,32.6-6.6l0,0c10-4.2,19-10.3,26.7-18l0,0c0.5-0.5,0.9-0.9,1.4-1.4c0.1-0.1,0.2-0.2,0.4-0.4
			c0.4-0.4,0.7-0.7,1-1.1c0.1-0.1,0.2-0.3,0.4-0.4c0.3-0.4,0.7-0.7,1-1.1c0.1-0.1,0.2-0.3,0.3-0.4c0.3-0.4,0.6-0.7,0.9-1.1
			c0.1-0.1,0.2-0.3,0.3-0.4c0.3-0.4,0.6-0.7,0.9-1.1c0.1-0.2,0.2-0.3,0.4-0.4c0.3-0.4,0.6-0.7,0.8-1.1c0.2-0.2,0.3-0.4,0.4-0.6
			c0.2-0.3,0.4-0.6,0.7-0.9c0.2-0.3,0.4-0.6,0.6-0.8c0.1-0.1,0.1-0.2,0.2-0.3c0.8-0.5,1.6-1.1,2.2-1.7c0,0,0.1-0.1,0.2-0.1
			c0.1-0.1,0.2-0.2,0.2-0.2c1.6-1.6,2.6-3.3,3.3-4.9c0.4-0.9,0.7-2.5,0.8-2.8c0-0.1,0-0.2,0-0.4c0-0.2,0.1-0.9,0.1-1.8l0,0l0,0l0,0
			c0.2-0.5,0.5-1,0.7-1.5c0.2-0.6,0.5-1.1,0.7-1.7c4.4-10.3,6.6-21.3,6.6-32.7C196.5,77.8,194.3,66.8,189.9,56.4z M53.6,89.1
			c0-15.7,6.1-30.5,17.3-41.6s25.9-17.3,41.6-17.3s30.5,6.1,41.6,17.3c11.1,11.1,17.3,25.9,17.3,41.6c0,3.8-0.4,7.5-1.1,11.2
			c-0.8,0.2-1.6,0.4-2.4,0.7c-0.1-0.2-0.2-0.4-0.4-0.6c-1.6-2.2-4.1-3.5-6.8-3.5c-1.4,0-2.8,0.4-4,1.1c-0.2,0.1-0.3,0.2-0.4,0.3
			c-0.9-0.4-1.9-0.5-2.9-0.5c-1.4,0-2.8,0.4-4,1.1c-1.7,0.9-2.8,2.7-3,4.6c-0.7-0.1-1.4-0.2-2-0.2c-0.4,0-0.7,0-1,0.1
			c-2.1,0.2-4.3,1.1-6.3,2.6c-1.3-0.9-2.8-1.3-4.5-1.3c-0.2,0-0.5,0-0.7,0c-1.2,0.1-2.5,0.5-3.7,1.1c-0.8-0.3-1.7-0.4-2.6-0.4
			c-0.2,0-0.5,0-0.7,0c-0.9,0.1-1.9,0.4-2.8,0.7c-0.3,0-0.6,0-0.9,0c-1.1,0-2.2,0.2-3.2,0.7c-0.7-0.2-1.5-0.3-2.3-0.3
			c-0.3,0-0.6,0-0.9,0c-2.6,0.3-5.3,1.7-7.8,3.8c-0.8-0.7-1.7-1.2-2.7-1.5c0-0.1-0.1-0.1-0.1-0.2c-1.4-1.9-3.7-3.1-6.1-3
			c-1.8,0-3.5,0.7-4.7,1.9c0,0,0,0-0.1,0.1c-1.4-4-5.2-6.6-10-6.6c-0.4,0-0.7,0-1.1,0c-3.4,0.1-6.8,1.4-9.9,3.8
			c-2.4-1.2-5.2-1.8-8.3-1.8c-2.7,0-5.6,0.6-8.4,1.5C54.3,99.6,53.6,94.4,53.6,89.1z M185.5,126.5c0,0-0.4,1.6-0.7,2.4
			c-0.7,1.8-2.1,3.8-4.5,5.4c-2.8,1.8-6.8,3.1-13,3.2c-1.5,0-3.1,0-4.8-0.2c-3.2-0.2-6.2-0.4-9.1-0.6c-0.7,0-1.4,0-2.1-0.1
			c-1.4,0-2.8-0.1-4-0.1c-1.7,0-3.3,0-4.8,0c-5.3,0.1-10.4,0.4-15.5,1c-0.1,0-0.2,0-0.3,0c-0.3,0-0.6,0-0.9-0.2
			c-1.2,1.1-2.9,1.9-4.7,2.1c-0.3,0-0.7,0-1,0.1c-1.3,0-2.5-0.2-3.6-0.7c-0.4,0.2-0.7,0.4-1.2,0.5c-4,0.7-8.2,1.6-12.7,2.5
			c-3.4,0.7-7,1.4-11,2.2c-1.5,0.3-3,0.6-4.6,0.9c-0.7,0.2-1.5,0.3-2.3,0.4c-1,0.2-2,0.4-3,0.6c-1.2,0.2-2.3,0.3-3.3,0.4
			c-5.4,0.1-9.3-2.5-11-7.2c-0.1-0.4-0.2-0.7-0.4-1.1c-2.4,5.4-5.1,9.2-9.4,9.3c-0.9,0-1.7-0.2-2.6-0.5c-0.7-0.3-1.4-0.6-2-1.1
			c-0.5,0.4-1,0.8-1.5,1.1c-1.7,1.1-3.6,1.7-5.7,1.8c-0.4,0-0.7,0-1,0c-6.6,0.1-9.9-4.6-10.2-9c-0.2-2.5,0.6-5,2.2-7
			c0.7-0.9,1.6-1.7,2.6-2.3c0.7-0.4,1.5-0.8,2.3-1c0.7-0.2,1.5-0.4,2.3-0.5c0.2,0,0.4,0,0.6,0c-1.3-1-2.4-2.7-2.9-5.2
			c-0.6-2.6,0.3-5.3,2.4-8.1c2.1-2.7,5.3-5,8.8-6.8c0.4-0.2,0.8-0.4,1.3-0.6c0.8-0.4,1.6-0.6,2.4-0.9c2.5-0.9,5.1-1.4,7.5-1.4
			c2.7,0,5.1,0.5,7.2,1.6c0.5,0.2,0.9,0.6,1.1,1.1c3.2-3,6.6-4.6,10-4.6c0.3,0,0.6,0,0.9,0c4.1,0,7.1,2.4,7.5,6.2c0.1,1,0,2-0.4,2.9
			c0.9-0.5,2-0.9,2.9-0.9c0.4,0,0.8,0,1.1,0.1c-0.2-1,0.1-2,0.8-2.7c0.7-0.7,1.7-1.1,2.8-1.1c1.5,0,2.8,0.7,3.7,1.8
			c0.2,0.2,0.4,0.6,0.5,0.9c2.2,0.4,3.6,1.8,4.4,3.5c2.3-2.9,5.4-5,8.3-5.3c0.2,0,0.4,0,0.6,0c0.9,0,1.7,0.2,2.4,0.5
			c0.9-0.6,2-0.9,3-0.9c0.5,0,0.9,0,1.3,0.2c0.8-0.5,1.8-0.8,2.7-0.9c0.2,0,0.4,0,0.5,0c1.1,0,2,0.3,2.9,0.8l0.1-0.1
			c0.8-0.7,2.3-1.4,3.5-1.5c0.2,0,0.4,0,0.5,0c1.8,0,3.4,0.9,4.3,2.3l0,0c2.1-2,4.4-3.3,6.7-3.6c0.2,0,0.5,0,0.7,0
			c1.2,0,2.4,0.3,3.3,0.8c0.5-0.4,1-0.8,1.6-1.1c0.1-0.4,0.2-0.7,0.2-0.8c-0.6-1.3,0-2.9,1.3-3.7c0.8-0.5,1.7-0.7,2.6-0.7
			c1.3,0,2.5,0.4,3.5,1.2c0.2-0.6,0.7-1,1.3-1.4c0.8-0.5,1.7-0.7,2.6-0.7c1.8,0,3.4,0.8,4.4,2.2c0.4,0.6,0.7,1.2,0.9,1.8
			c0.3,0.2,0.6,0.5,0.8,0.8c0.9-0.6,1.8-1.1,2.8-1.4c0.6-0.2,1.2-0.4,1.8-0.4c0.2,0,0.5,0,0.7,0c0,0,0.1,0,0.2,0
			c0.5,0,0.9,0.1,1.4,0.2c2.5,0.6,4.3,2.5,4.6,5.2c0.1,0.6,0.1,1.1,0,1.7c2.8,0.4,5,2.8,5.3,6.2c0.1,0.9,0.1,1.8-0.1,2.8
			c0.2,0.1,0.3,0.2,0.5,0.4c0.5,0.5,0.9,1.3,1.1,2.2l0,0c0.3,1.1,0.3,2.6,0.2,3.6C185.5,126,185.5,126.5,185.5,126.5z M103.2,144.7
			c4.4-0.9,8.7-1.7,12.6-2.5c0.3,0,0.6-0.1,0.8-0.2c1.1,0.4,2.3,0.5,3.5,0.5c0.4,0,0.9,0,1.3-0.1c1.9-0.2,3.7-0.9,5.2-1.9h0.1
			c0.2,0,0.4,0,0.6,0c5-0.6,10-0.9,15.2-1c0.2,0,0.3,0,0.5,0c-9.1,5.5-19.6,8.5-30.5,8.5c-5.3,0-10.5-0.7-15.5-2
			C99.2,145.5,101.3,145.1,103.2,144.7z M112.5,170.5c-20.7,0-39.6-7.7-54-20.5c3.8-0.3,6.5-2.8,8.5-5.9c2.6,3.3,6.6,5,11.4,4.9
			c1.2,0,2.5-0.2,3.8-0.4c2.4-0.4,4.7-0.9,6.9-1.3c0.9-0.2,1.8-0.4,2.6-0.5c0.4,0.1,0.7,0.2,1,0.4c6.2,2.1,12.8,3.2,19.7,3.2
			s13.5-1.1,19.7-3.2c0.9-0.3,1.9-0.7,2.8-1c0.9-0.4,1.8-0.7,2.8-1.2c0.9-0.4,1.8-0.8,2.7-1.3c2.5-1.3,4.9-2.7,7.2-4.3
			c0.7,0,1.5,0,2.3,0c3.9,0.1,7.9,0.3,12.4,0.7c1.8,0.1,3.5,0.2,5.1,0.2c3.8,0,6.9-0.6,9.4-1.3C161.9,158.2,138.7,170.5,112.5,170.5
			z M187.9,120c-0.3-0.8-0.6-1.6-1.1-2.1c0-0.7,0-1.3-0.1-2c-0.4-3.6-2.5-6.6-5.3-8c-0.5-3.9-3.3-6.8-7-7.6
			c-0.4-0.1-0.9-0.2-1.4-0.2V100c0.2-1,0.4-2,0.5-3.1c0.3-2.6,0.5-5.2,0.5-7.8c0-33.9-27.5-61.4-61.4-61.4c-2.6,0-5.3,0.2-7.8,0.5
			c-1,0.1-2,0.3-3.1,0.5s-2,0.4-3,0.6s-2,0.5-2.9,0.7c-1,0.3-1.9,0.6-2.9,0.9c-0.9,0.3-1.9,0.7-2.8,1c-0.9,0.4-1.8,0.7-2.8,1.2
			s-1.8,0.8-2.7,1.3c-0.4,0.2-0.9,0.5-1.3,0.7c-1.3,0.7-2.6,1.5-3.8,2.3c-9.1,5.9-16.6,14.1-21.6,23.8c-0.4,0.9-0.9,1.8-1.3,2.7
			c-0.4,0.9-0.8,1.8-1.2,2.8c-0.4,0.9-0.7,1.9-1,2.8c-2.1,6.2-3.2,12.8-3.2,19.7c0,2.6,0.2,5.3,0.5,7.8c0.1,1,0.3,2,0.5,3.1
			c0.2,1,0.4,2,0.6,3c0.2,0.8,0.4,1.7,0.6,2.4c-0.4,0.2-0.9,0.4-1.3,0.6c-4,1.9-7.7,4.6-10.1,7.7c-2.6,3.3-3.7,6.8-3,10.1
			c-5-10.5-7.8-22.3-7.8-34.8c0-45,36.4-81.4,81.4-81.4S194,44.1,194,89.1C193.9,100,191.8,110.5,187.9,120z"/>
		<polygon class="st1" points="97.7,98.6 108.2,74.1 108.2,68.1 104.6,76.4 94.8,98.8 		"/>
		<path class="st1" d="M127.9,57.3l-0.1-8.5l2.1-6.1l-1.9-0.6v0.1l-2.5,7v10.6C125.7,59.5,126.6,58.3,127.9,57.3z"/>
		<polygon class="st1" points="96.1,68.1 96.6,67 89.9,51.5 86.9,51.3 95.2,70.3 		"/>
		<path class="st1" d="M84.5,98.1L84.5,98.1L84.5,98.1z"/>
		<polygon class="st1" points="87.2,98 85.7,92.8 85.7,77.4 85.4,76.8 84.7,75.2 82.9,70.7 82.9,92.8 84.5,98.1 		"/>
		<path class="st1" d="M122.6,88.7c5.3-2.4,10.4-6.1,12.5-10.1c3.6,0.4,7.3-0.6,10.5-2.3c2.9-1.5,6.2-4.9,5.7-8.7
			c-1.2-4.3-7-3.1-10-1.4c-3.2,1.9-4.8,5.5-6.4,8.7c0.6,0,1.5,0,2.4-0.1c0.6-1,1.1-2,1.8-2.9c1.1-1.5,2.4-2.8,4-3.6
			c1-0.5,2-0.8,3.3-0.8h0.5c0.4,0,0.8,0.1,1.1,0.3c0.2,0.1,0.2,0.2,0.3,0.3c0.4-0.7,0.6-1.3,0.6-1.3c-0.3,3-2.2,4.7-2.5,5l0,0
			c-0.5,0.5-1,0.9-1.6,1.3c-1.2,0.7-2.6,1.3-3.9,1.7c-0.9,0.2-1.7,0.4-2.6,0.5l0,0c-0.2,0-0.3,0-0.5,0l0,0c-0.2,0-0.5,0-0.7,0
			c-1.9,0.1-2.8-0.3-2.9-0.4C124,72,126.1,61.5,135,57.5c1.6,0,6.4,0.4,8.5,1.2c0.2,0.4,0.4,0.9,1.1,0.7c0.3-0.2,2.6-0.6,2.4-1.1
			c-0.4-0.1-7.1-15.3-8.1-14c-0.4,0.3-3,0.6-2.3,1.4c-0.2,2-1.6,7.3-2.6,9.2c-5.7,2.4-11.3,8.1-9.7,14.6c0.2,0.4,0.3,0.8,0.5,1.2
			v0.1c0,0.1,0.1,0.2,0.1,0.4c0.2,0.3,0.3,0.6,0.4,0.9l0.1,0.2v12.4c0.9-0.9,1.8-1.7,2.3-2.3v-6.1c-1.3-1.3-1.8-2.9-1.9-3.1
			c1.7,2.5,4.4,4.3,7.4,5C131.4,81.8,125.9,86.7,122.6,88.7z M137.2,51c0.2-0.9,0.6-1.7,0.9-2.5l4.2,8c-0.5,0-1-0.1-1.5-0.2
			c-0.8-0.1-1.7-0.3-2.5-0.5c-0.7-0.2-1.4-0.4-1.9-0.5C136.5,54.3,136.8,52.4,137.2,51z"/>
		<path class="st1" d="M107.1,101.8c0.5,0.4,1.8,0.4,3.7,0c1-0.6,2.2-1.3,3.4-1.9c0.5-0.3,1-0.6,1.6-0.8c2-1,4.2-2,6.4-2.8
			c1.2-0.5,2.4-0.9,3.6-1.3c3.2-1.1,6.3-2,8.7-2.6c1.3-0.3,2.8-0.7,4.4-1c2.3-0.5,4.9-1,7.6-1.3c5-2,9.1-3.9,11.2-5.2
			c2.6-1.5,4.2-3.1,4.5-4.3c-20.4,3.8-49.1,17.7-55.4,20.9C106.9,101.6,107,101.7,107.1,101.8z"/>
		<path class="st1" d="M106.4,98.7c0,0-0.3,0.4-0.4,0.9c0,0.2,0,0.5,0,0.8c0,0.2,0.1,0.3,0.2,0.5l0,0c0.9-0.4,1.7-0.9,2.6-1.3
			c13.3-6.8,24.4-11.4,32.9-14.5c5.6-2,10.1-3.3,13.4-4.2c0,0,0,0,0.1,0s0.2,0,0.3-0.1c0.1,0,0.1,0,0.2,0c0.1,0,0.2,0,0.2-0.1
			c0.1,0,0.2,0,0.3-0.1h0.1c0.2,0,0.3,0,0.4-0.1l0,0c1.3-0.3,2.4-0.6,3.2-0.7c0,0,0,0,0.1,0c0.6-0.1,1.1-0.2,1.7-0.3l0,0
			c0,0,0,0,0.1,0c-0.1-0.1-0.1-0.2-0.2-0.2c-1.9-1.8-9.6-1.4-24,4.5c-2.4,1-4.8,2-7.2,3.1c-1.8,0.8-3.5,1.6-5.2,2.4
			c-0.1,0-0.2,0.1-0.2,0.1C115,93.9,107.1,98.3,106.4,98.7L106.4,98.7z"/>
	</g>
	<g>
		<path class="st2" d="M142.6,139.5c-5.2,0.1-10.2,0.4-15.2,1c-0.2,0-0.4,0-0.6,0h-0.1c-1.5,1.1-3.3,1.7-5.2,1.9
			c-0.4,0-0.8,0.1-1.3,0.1c-1.2,0-2.4-0.2-3.5-0.5c-0.3,0.1-0.6,0.2-0.8,0.2c-4,0.7-8.2,1.6-12.6,2.5c-2,0.4-4,0.8-6.2,1.3
			c5,1.3,10.2,2,15.5,2c10.9,0,21.4-2.9,30.5-8.5C142.9,139.5,142.7,139.5,142.6,139.5z"/>
		<polygon class="st2" points="84.7,75.2 85.4,76.8 84.8,75.2 82.9,70.7 		"/>
		<polygon class="st2" points="74.8,76.4 74.8,76.4 76.6,57 83.9,53.6 74.1,55.8 74.9,58.5 		"/>
		<path class="st2" d="M140.8,56.4c0.6,0.1,1.1,0.1,1.5,0.2l-4.2-8c-0.3,0.8-0.6,1.7-0.9,2.5c-0.4,1.4-0.7,3.3-0.9,4.4
			c0.6,0.2,1.2,0.4,1.9,0.5C139.1,56.1,139.9,56.3,140.8,56.4z"/>
		<path class="st2" d="M173.4,96.9c-0.1,1-0.3,2-0.5,3.1C173.1,99,173.3,98,173.4,96.9z"/>
		<path class="st2" d="M53.6,89.1c0,5.3,0.7,10.5,2,15.5c2.8-0.9,5.7-1.5,8.4-1.5c3.1,0,5.8,0.6,8.3,1.8c3.1-2.4,6.5-3.7,9.9-3.8
			c0.4,0,0.7,0,1.1,0c4.8,0,8.6,2.6,10,6.6c0,0,0,0,0.1-0.1c1.2-1.2,2.9-1.8,4.7-1.9c2.4,0,4.7,1.1,6.1,3c0,0,0.1,0.1,0.1,0.2
			c1,0.4,1.9,0.9,2.7,1.5c2.4-2.1,5.2-3.5,7.8-3.8c0.3,0,0.6,0,0.9,0c0.8,0,1.5,0.1,2.3,0.3c1-0.4,2.1-0.7,3.2-0.7
			c0.3,0,0.6,0,0.9,0c0.9-0.4,1.9-0.7,2.8-0.7c0.2,0,0.5,0,0.7,0c0.9,0,1.8,0.1,2.6,0.4c1.1-0.6,2.4-1,3.7-1.1c0.2,0,0.5,0,0.7,0
			c1.7,0,3.2,0.4,4.5,1.3c2-1.4,4.2-2.3,6.3-2.6c0.3,0,0.7-0.1,1-0.1c0.7,0,1.4,0.1,2,0.2c0.2-1.8,1.3-3.6,3-4.6
			c1.2-0.7,2.6-1.1,4-1.1c1,0,2,0.2,2.9,0.5c0.2-0.1,0.3-0.2,0.4-0.3c1.2-0.7,2.6-1.1,4-1.1c2.7,0,5.3,1.3,6.8,3.5
			c0.1,0.2,0.2,0.4,0.4,0.6c0.8-0.3,1.6-0.6,2.4-0.7c0.7-3.7,1.1-7.4,1.1-11.2c0-15.7-6.1-30.5-17.3-41.6
			c-11.1-11.1-25.9-17.3-41.6-17.3s-30.5,6-41.6,17.1C59.8,58.6,53.6,73.3,53.6,89.1z M139.3,96.7l-1.8,0.8c0.8-0.1,2.1-0.1,2.1-0.1
			c0.6,0.7,0.9,0.6,1.6,1.8c-10.1,1.7-12.4,0.1-22.5,2.8c0.9-1.1,2.1-1.8,2.3-1.9c-2.4,0.6-5.7,1.6-7.7,2
			c14-7.9,28.4-11.3,44.9-11.4C148.9,93.3,141.4,95.7,139.3,96.7z M157.7,84.9c-2.1,1.2-6.2,3.1-11.2,5.2c-2.7,0.4-5.3,0.9-7.6,1.3
			c-1.6,0.4-3.1,0.7-4.4,1c-2.4,0.6-5.4,1.5-8.7,2.6c-1.2,0.4-2.4,0.9-3.6,1.3c-2.2,0.8-4.4,1.8-6.4,2.8c-0.6,0.2-1.1,0.5-1.6,0.8
			c-1.2,0.6-2.4,1.3-3.4,1.9c-1.9,0.3-3.2,0.3-3.7,0c-0.1-0.1-0.2-0.2-0.4-0.3c6.3-3.1,35-17.1,55.4-20.9
			C161.8,81.8,160.3,83.4,157.7,84.9z M161.8,79.1c0.1,0.1,0.1,0.2,0.2,0.2c0,0,0,0-0.1,0c0.3,0.4,0.3,0.8,0.2,1.3
			c-20.4,3.8-49.1,17.8-55.4,20.9c-0.2-0.2-0.4-0.4-0.5-0.5c0,0,0,0,0.1,0c-0.1-0.2-0.2-0.3-0.2-0.5c-0.1-0.3-0.1-0.6,0-0.8
			c0.1-0.6,0.4-0.9,0.4-0.9l0,0c0.7-0.4,8.6-4.8,18.8-9.6c0.1,0,0.2-0.1,0.2-0.1c1.7-0.8,3.4-1.6,5.2-2.4c2.4-1.1,4.8-2.1,7.2-3.1
			C152.2,77.7,159.9,77.3,161.8,79.1z M71.8,54.6l15.1-3.4l0,0l2.9,0.2L96.6,67l-0.4,1.1l-0.9,2.2v0.1l0.9-2.3l0.4-1.1l7.9-19.7
			L128,42v0.1l1.9,0.6l-2.1,6.1l0.1,8.5c-1.4,1.1-2.2,2.2-2.5,2.6V60c-1.9,2.9-2.4,6.5-1.2,9.7c-1.5-6.5,4-12.3,9.7-14.6
			c1-1.9,2.4-7.2,2.6-9.2c-0.7-0.8,1.9-1.1,2.3-1.4c0.9-1.3,7.6,13.9,8.1,14c0.1,0.6-2.1,0.9-2.4,1.1c-0.7,0.3-0.8-0.2-1.1-0.7
			c-2-0.7-6.8-1.2-8.5-1.2c-8.9,4-11,14.5-0.8,17.4c0.1,0,1,0.4,2.9,0.4c0.2,0,0.4,0,0.7,0l0,0c0.2,0,0.3,0,0.5,0l0,0
			c0.9-0.1,1.7-0.2,2.6-0.5c1.4-0.4,2.8-0.9,3.9-1.7c0.6-0.4,1.1-0.8,1.6-1.3l0,0c0.3-0.2,2.2-2,2.5-5c0,0-0.2,0.6-0.6,1.3
			c-0.1-0.1-0.2-0.2-0.3-0.3c-0.3-0.2-0.7-0.2-1.1-0.3h-0.5c-1.2,0-2.3,0.3-3.3,0.8c-1.6,0.8-2.9,2.1-4,3.6
			c-0.7,0.9-1.3,1.9-1.8,2.9c-0.8,0.1-1.7,0.1-2.4,0.1c1.5-3.2,3.1-6.8,6.4-8.7c2.9-1.7,8.8-2.9,10,1.4c0.5,3.7-2.8,7.2-5.7,8.7
			c-3.1,1.7-6.9,2.7-10.5,2.3c-2.1,4-7.2,7.7-12.5,10.1c3.3-2,8.8-6.9,10.5-10.4c-2.9-0.7-5.7-2.5-7.4-5c0.1,0.2,0.6,1.8,1.9,3.1
			v6.1c-0.5,0.6-1.3,1.4-2.3,2.3v0c-2,1.8-4.6,4-6.1,5.2c-4.6,2.3-10.5,5.5-12.2,6.4l1.1-3V68v0.1v6L97.7,98.6l-2.9,0.2l0,0h-0.4
			l-8.8-21.3v15.4l1.5,5.1l-2.6,0.2l0,0l0,0l0,0l0,0l-12.8-0.8l1.5-4.9V59.2L71.8,54.6z"/>
		<path class="st2" d="M104.7,28.2c-1,0.1-2,0.3-3.1,0.5C102.7,28.5,103.7,28.3,104.7,28.2z"/>
		<path class="st2" d="M152.8,119.6c1.3-0.1,2.1-1.7,2.9-3.8c0.1-0.2,0.2-0.4,0.3-0.7c0-0.1,0.1-0.3,0.2-0.4l2-5.3
			c-1.1,0.1-1.2,0.4-1.3,0.6c-0.2-0.2-0.2-0.5-0.2-0.8c-0.4,0.3-0.9,0.5-1.6,0.6l-2.7,7.2c-0.1,0.4-0.5,1.2-0.4,1.9
			C152,119.3,152.2,119.7,152.8,119.6z"/>
		<path class="st2" d="M87.6,117.5c-2.1,0.2-5.4,6-5.1,9c0.1,0.9,0.5,1.1,1,1.1c2.1-0.2,5.1-6.9,4.8-9.3
			C88.3,117.7,88,117.5,87.6,117.5z"/>
		<path class="st2" d="M115.4,114.3c-2.1,0.3-5.4,6-5.1,9c0.1,0.9,0.5,1.1,0.9,1.1c2.1-0.3,5.1-6.9,4.8-9.3
			C116,114.6,115.7,114.3,115.4,114.3z"/>
		<path class="st2" d="M145,111.7c0-0.5-0.3-0.8-0.8-0.7c-1.8,0.2-3.7,2.8-4.2,5.5C142.4,116.6,145.3,113.8,145,111.7z"/>
		<path class="st2" d="M185.3,121.5c-0.2-0.9-0.6-1.7-1.1-2.2c-0.2-0.2-0.3-0.3-0.5-0.4c0.2-0.9,0.2-1.8,0.1-2.8
			c-0.4-3.3-2.5-5.7-5.3-6.2c0.1-0.6,0.1-1.1,0-1.7c-0.3-2.7-2.2-4.6-4.6-5.2c-0.4-0.1-0.9-0.2-1.4-0.2c0,0-0.1,0-0.2,0
			c-0.2,0-0.5,0-0.7,0c-0.6,0.1-1.2,0.2-1.8,0.4c-0.9,0.3-1.8,0.8-2.8,1.4c-0.2-0.3-0.5-0.6-0.8-0.8c-0.2-0.7-0.5-1.3-0.9-1.8
			c-1-1.4-2.7-2.3-4.4-2.2c-0.9,0-1.8,0.2-2.6,0.7c-0.6,0.4-1,0.8-1.3,1.4c-1-0.8-2.2-1.2-3.5-1.2c-0.9,0-1.8,0.2-2.6,0.7
			c-1.3,0.7-1.8,2.3-1.3,3.7c0,0.1-0.1,0.4-0.2,0.8c-0.6,0.2-1.1,0.6-1.6,1.1c-0.9-0.6-2.1-0.8-3.3-0.8c-0.2,0-0.5,0-0.7,0
			c-2.3,0.3-4.6,1.5-6.7,3.6l0,0c-0.9-1.5-2.4-2.4-4.3-2.3c-0.2,0-0.4,0-0.5,0c-1.2,0.1-2.7,0.7-3.5,1.5l-0.1,0.1
			c-0.8-0.6-1.8-0.8-2.9-0.8c-0.2,0-0.4,0-0.5,0c-0.9,0-1.8,0.4-2.7,0.9c-0.4-0.1-0.9-0.2-1.3-0.2c-1.1,0-2.1,0.4-3,0.9
			c-0.7-0.4-1.6-0.5-2.4-0.5c-0.2,0-0.4,0-0.6,0c-2.9,0.4-6,2.4-8.3,5.3c-0.8-1.7-2.3-3.1-4.4-3.5c-0.2-0.4-0.4-0.7-0.5-0.9
			c-0.8-1.1-2.2-1.8-3.7-1.8c-1.1,0-2,0.4-2.8,1.1c-0.7,0.7-1,1.7-0.8,2.7c-0.4-0.1-0.7-0.1-1.1-0.1c-1,0-2,0.4-2.9,0.9
			c0.4-0.9,0.5-1.9,0.4-2.9c-0.4-3.8-3.5-6.3-7.5-6.2c-0.3,0-0.6,0-0.9,0c-3.4,0-6.8,1.7-10,4.6c-0.2-0.4-0.6-0.8-1.1-1.1
			c-2-1.1-4.4-1.6-7.2-1.6c-2.4,0-5,0.5-7.5,1.4c-0.8,0.3-1.6,0.6-2.4,0.9c-0.4,0.2-0.9,0.4-1.3,0.6c-3.5,1.7-6.7,4.1-8.8,6.8
			c-2.2,2.7-3,5.5-2.4,8.1c0.4,2.5,1.5,4.1,2.9,5.2c-0.2,0-0.4,0-0.6,0c-0.8,0.1-1.5,0.2-2.3,0.5c-0.8,0.2-1.6,0.6-2.3,1
			c-1,0.6-1.9,1.4-2.6,2.3c-1.6,2-2.4,4.4-2.2,7c0.3,4.4,3.6,9.1,10.2,9c0.3,0,0.6,0,1,0c2.1-0.2,4-0.8,5.7-1.8
			c0.5-0.3,1-0.7,1.5-1.1c0.7,0.5,1.3,0.8,2,1.1c0.9,0.4,1.7,0.5,2.6,0.5c4.2-0.1,7-3.9,9.4-9.3c0.1,0.4,0.2,0.7,0.4,1.1
			c1.7,4.8,5.5,7.3,11,7.2c1.1,0,2.2-0.2,3.3-0.4c1-0.2,2-0.4,3-0.6c0.8-0.2,1.6-0.3,2.3-0.4c1.6-0.3,3.1-0.6,4.6-0.9
			c4-0.7,7.6-1.5,11-2.2c4.4-0.9,8.7-1.8,12.7-2.5c0.4-0.1,0.8-0.3,1.2-0.5c1.1,0.5,2.3,0.7,3.6,0.7c0.3,0,0.7,0,1-0.1
			c1.8-0.2,3.5-1,4.7-2.1c0.3,0.1,0.6,0.2,0.9,0.2c0.1,0,0.2,0,0.3,0c5.1-0.6,10.2-0.9,15.5-1c1.6,0,3.2,0,4.8,0c1.3,0,2.7,0,4,0.1
			c0.7,0,1.4,0,2.1,0.1c2.9,0.1,5.9,0.3,9.1,0.6c1.7,0.1,3.3,0.2,4.8,0.2c6.1-0.1,10.2-1.4,13-3.2c2.4-1.6,3.8-3.6,4.5-5.4
			c0.3-0.7,0.7-2.4,0.7-2.4s0.1-0.6,0.1-1.4C185.6,124.1,185.6,122.7,185.3,121.5L185.3,121.5z M122.7,116.2
			c0.9-2.6,1.1-3.6,0.7-4.3c0.4-0.4,1.3-0.7,1.8-0.7c1.5-0.2,2.3,0.7,2.4,1.8c0.1,0.8-0.3,1.6-0.7,2.7l-1.9,5.1
			c-0.1,0.3-0.3,0.8-0.2,1.2c0,0.5,0.5,0.8,0.9,0.7c1-0.1,1.7-1.5,2.5-3.4c0.6-1.4,0.9-2.4,1.5-3.9c1.1-2.6,1.1-3.6,0.7-4.3
			c0.4-0.4,1.3-0.7,1.8-0.7c1.5-0.2,2.3,0.7,2.4,1.8c0,0.8-0.3,1.6-0.7,2.7L132,120c-0.1,0.3-0.3,0.9-0.3,1.3c0,0.5,0.3,0.7,0.8,0.7
			c1.2-0.2,2.1-2.2,3-4.8c1.1-3.9,4.9-7.7,8.3-8.1c1.8-0.2,3.5,0.7,3.7,2.8c0.4,3.2-3.1,6.2-6.7,6.6c-0.4,0-0.7,0-1.1,0
			c0.2,1.8,1.7,2.4,3.3,2.2c2-0.2,4.3-1.8,5.6-5.2l2-5.3c-1.1,0.1-1.2,0.4-1.3,0.6c-0.6-0.9-0.1-2.4,2.1-2.6c1.1-2.6,1-3.6,0.7-4.3
			c2.2-1.2,4.7,0.9,3.6,3.9c1.1-0.1,1.2-0.4,1.3-0.6c0.2,0.2,0.2,0.6,0.2,0.8c0.4-0.3,0.9-0.5,1.6-0.6c1.1-2.6,1-3.6,0.7-4.3
			c2.2-1.2,4.7,0.8,3.5,3.7c1.1-0.1,1.2-0.4,1.3-0.6c0.6,0.9,0,2.4-2.1,2.6l-2.7,7.2c-0.1,0.4-0.5,1.2-0.4,1.9
			c0,0.5,0.3,0.9,0.9,0.8c1.5-0.2,2.4-2.3,3.3-4.8c0.8-2.7,2.9-5.4,5.2-6.9c1-0.6,2-1.1,3-1.2l0,0h0.1c0.5,0,0.9,0,1.3,0.1
			c1.3,0.3,2.2,1.1,2.4,2.7c0.3,2.9-2.5,5.6-5.7,6.4c-0.4,0.1-0.7,0.2-1,0.2c-0.2,0-0.4,0-0.6,0c-0.2,0-0.4,0-0.5,0
			c0,0.3,0.1,0.6,0.2,0.8l0,0c0.2,0.6,0.4,1.2,0.7,1.7c1,1.4,2.6,2.1,4.3,1.9c2.6-0.3,3.5-1.9,3.4-3.1c-0.1-0.4-0.4-0.6-0.7-0.6
			c-0.2,0-0.4,0.2-0.4,0.4c-0.8-0.6-0.7-3.1,2-3.4c2-0.2,3.5,1.3,3.7,3.6c0.4,3.6-1.8,7.7-7.4,8.3c-2.7,0.3-5.5-0.6-7.5-2.4
			c-0.4-0.3-0.7-0.7-1-1.1l0,0c-0.6-0.7-1.1-1.7-1.4-2.6c0-0.1-0.1-0.2-0.1-0.2c-1.1,2.5-2.6,4.2-4.9,4.5c-1.9,0.2-3.1-0.6-3.6-1.7
			c-1,1.5-2.2,2.4-3.8,2.6c-2.1,0.2-3.3-0.7-3.7-2.2c-1.5,1.8-3.4,3-5.9,3.3c-2.8,0.3-5-0.9-5.9-3.3c-1.1,2.5-2.5,4.3-4.6,4.6
			c-1.6,0.2-2.7-0.6-3.2-1.7c-0.9,1.4-2.1,2.3-3.5,2.5c-2.2,0.2-3.6-1.1-3.8-2.9c-0.2-1.6,1.1-4.6,1.8-6.4L122.7,116.2z M86.8,142.1
			c-1.3,0.2-2.7,0.5-4.1,0.7c-0.5,0.1-1,0.2-1.5,0.3c-0.2,0-0.4,0.1-0.6,0.1c-7.5,1.1-10.6-2.8-11.1-8.3c0-0.6-0.1-1.3,0-2
			c0-1.1,0.1-2.2,0.3-3.3c1.1-7.6,5.3-16,9.1-19c-4.9,2.2-8.1,9.7-10.9,17c-0.4,0.9-0.7,1.8-1,2.7c-0.2,0.5-0.4,1-0.6,1.5
			c-3.3,8.5-6.4,15.5-11.9,11.4c3.7-0.8,5-9.8,6.4-18.1c0.1-0.7,0.2-1.3,0.4-1.9c0.2-1.2,0.5-2.4,0.7-3.6c0.9-3.9,2-7.1,3.7-8.3
			c-2.1,1.3-3.5,3.7-4.7,6.7c-0.4,1-0.7,2.1-1.1,3.2l0,0c-0.2,0.6-0.4,1.2-0.5,1.8c-2,7.4-3.5,15.9-8,20.2c-0.6,0.6-1.3,1.1-2,1.5
			c-1.1,0.6-2.4,1-3.9,1.1c-9,0.8-10.5-9.4-4.7-12.9c0.7-0.4,1.5-0.7,2.4-0.9c0.3-0.1,0.7-0.1,1-0.2c2.4-0.3,4,1.1,3.8,2.2
			c-0.9-0.7-2.3-0.2-2.9,0.9c-0.2,0.4-0.4,0.8-0.3,1.3c0.2,1.4,1.1,2,2.4,1.9c0.1,0,0.2,0,0.2,0c2.4-0.4,3.8-3.7,6.8-11.8
			c1.1-2.9,2-5.4,2.9-7.4c0.2-0.6,0.5-1.1,0.7-1.6c0.5-1,1-1.9,1.5-2.7c1-1.5,2-2.7,3-3.4c-1.4,0.1-2.8,0.4-4.2,0.9
			c-0.8,0.3-1.6,0.7-2.3,1.1c-0.4,0.2-0.8,0.5-1.2,0.7c-2.4,1.8-4.1,4.1-3.8,6.4c0.1,1.7,1.8,1.3,1.4-0.1c5.5,4-6.5,11.7-7.9,2.8
			c-0.9-3.9,3.6-8.6,9.4-11.6c0.4-0.2,0.8-0.4,1.3-0.6c0.8-0.4,1.6-0.7,2.4-0.9c4.3-1.5,8.9-1.8,12.3,0c-2.9,1.3-4.4,7.7-5.1,13.4
			c-0.2,1.3-0.2,2.6-0.3,3.8c0,0.4,0,0.7,0,1c0.1-0.3,0.2-0.5,0.2-0.8c0.3-0.9,0.6-1.9,1-2.9c3.6-9.4,9.9-17.9,16.8-17.9
			c3.1-0.4,5.2,1.1,5.4,3.6c0.3,2.4-2.3,3.9-3.4,3.2c1.1-0.6,1-3-0.9-2.8c-4.6-0.3-16.4,27.6-0.9,25.1c11.3-1.8,19.9-4,29.2-5.9
			c0.3,2.3,1,4.3,2.2,5.8c0.2,0.3,0.5,0.6,0.7,0.8C106.6,138.1,98,140,86.8,142.1z M120.7,136.8c-6,0.7-8.1-6.5-6.5-12.5
			c-1.2,2.5-2.9,4.1-4.5,4.3c-1.7,0.2-3.1-0.8-3.6-2.6c-1.1,1.9-2.4,3.2-4.2,3.4c-2.2,0.2-3.4-1.3-3.5-2.9c-0.4-3.1,2.4-7.3,2.2-9.2
			c-0.1-0.8-0.6-1.3-1.5-1.2l-0.5,0.1c-0.6,1.6-1.4,3.7-1.9,5.2c-1.9,5-3.1,8.9-6.6,9.3c-2.3,0.3-3.5-1.6-3.6-3.7
			c-1,2.3-2.7,4.4-4.7,4.6c-1.8,0.2-3.4-0.9-3.7-3.3c-0.7-5.7,4.6-12.4,9.4-12.9c1.4-0.2,2.4,0.6,2.7,1.5c0.7-1.3,2.9-2.5,4.1-1.7
			c-1.7,1.9-3.6,7.9-3.3,10.5c0,0.5,0.2,0.8,0.7,0.7c1.1-0.1,2.2-2.6,3-4.9c2.1-6.3,3-9,2.5-10.1c0.6-0.6,3.1-0.3,2,2.6l1.1-0.1
			c1.7-0.2,3.8,0.7,4.1,3.5c0.2,2.1-1.8,5.2-1.7,6.8c0,0.5,0.3,0.8,0.8,0.7c0.9-0.1,1.8-2,2.8-4.2c1.5-4.4,5.5-8.3,8.8-8.7
			c1.3-0.2,2.4,0.5,2.7,1.5c1.6-2.3,3.6-2.2,4.1-1.7c-3.2,3.6-6.8,20.2-1.3,19.5c0.9-0.1,1.3-0.7,1.2-1.3c0-0.4-0.3-0.8-0.6-0.9
			c0.2-0.3,0.6-0.6,1.1-0.7c1-0.1,2.5,0.5,2.8,2.7C125.6,134.4,123.3,136.5,120.7,136.8z M162.7,134.5c-2.2-0.2-4.3-0.3-6.3-0.4
			c-0.6,0-1.3-0.1-1.9-0.1c-1.3-0.1-2.5-0.1-3.7-0.2c-9.4-0.3-16.9,0.1-24.2,0.9c0.5-1.1,0.7-2.2,0.6-3.5c-0.2-1.6-0.9-2.8-1.8-3.5
			c8.7-1.1,18.9-1.6,32.5-1.2c1,0,2.1,0.1,3.2,0.1c0.6,0,1.1,0,1.7,0.1c1.2,0,2.5,0.1,3.8,0.2c16.6,0.9,15.5-5.7,15.6-5.6
			C182.9,122.2,186.2,136.3,162.7,134.5z"/>
		<path class="st2" d="M171,112.1c1.2-1,2-2.4,1.9-3.5c0-0.3-0.2-0.6-0.4-0.7c-0.1,0-0.3-0.1-0.4,0c-0.4,0-0.8,0.2-1.1,0.4
			c-1.4,0.9-2.6,2.9-3.1,5c0.4,0,0.9,0,1.3-0.2C169.8,112.9,170.4,112.5,171,112.1z"/>
		<polygon class="st2" points="108,50.5 108,50.5 121.8,45.1 121.5,45.2 106.3,49 101.3,61.5 101.2,61.6 		"/>
		<path class="st2" d="M125.8,98.4c-0.6,0.2-1,0.6-1.4,0.9l-0.1,0.1c0.9-0.3,2-0.7,3.1-1s2.2-0.6,3-0.8c0.8-0.2,1.9-0.4,3.1-0.6
			c0.6-0.1,1.1-0.2,1.7-0.4c0.6-0.1,1.1-0.2,1.5-0.4c0,0-0.1,0-0.2,0c-0.4,0-0.9,0-1.4,0c-0.6,0-1.2,0-1.8,0.1c-0.2,0-0.5,0-0.8,0.1
			c0.1,0,0.2,0,0.2-0.1c0.2,0,0.4-0.1,0.6-0.2c1.5-0.4,3.7-1,5.9-1.6s4.5-1.1,6.3-1.6c-0.1,0-0.1,0-0.2,0c-1.8,0-4.1,0.3-6.3,0.7
			c-2.3,0.4-4.5,0.9-6.1,1.4c-1.6,0.4-3.7,1.1-5.9,1.9c-2,0.7-4,1.7-5.5,2.6c-0.1,0.1-0.3,0.2-0.4,0.2c1.2-0.4,2.7-0.8,4.2-1.3
			C125.7,98.5,125.8,98.5,125.8,98.4z"/>
		<polygon class="st2" points="37.1,94.2 40.4,94.8 41,94.8 40.4,95 36.2,97 36.5,99.6 41.1,100.5 41.7,100.5 41.1,100.6 38,102 
			36.8,102 37.3,106.1 38.4,105.3 47.1,101.1 46.9,99.1 41.3,97.9 40.8,97.9 41.3,97.7 46.5,95.3 46.2,93.2 36.8,91.3 35.5,90.8 
			35.9,94.5 		"/>
		<path class="st2" d="M44.9,89.1l1.1,0.8l0.3-4L45.1,86l-0.9-0.3l-0.1-0.2l0.2-2.8l0.2-0.2l0.9-0.2l1.2,0.3l0.3-4.2L45.7,79
			l-8.4,1.8l-0.9-0.3L36,86.4l1-0.2L44.9,89.1z M38.6,83.6l3.3-0.6l0.1,0.2l-0.1,1.5l-0.2,0.2l-3.1-1.1l-0.5-0.1L38.6,83.6z"/>
		<polygon class="st2" points="39.7,74.5 40,73.2 40.2,73.1 46.2,74.6 47.6,75.5 48.7,71.1 47.1,71.3 41,69.8 40.9,69.6 41.2,68.3 
			42.1,66.7 39,67.1 37.1,74.5 39.7,76.3 		"/>
		<polygon class="st2" points="49,66.1 49.9,66.9 52.8,60 50.6,57.7 50.4,59.5 49.2,62.2 48.9,62.4 47.6,61.8 47.5,61.6 48,60.6 
			48.8,59.5 45.9,58.3 45.8,59.6 45.3,60.6 45.1,60.8 44.2,60.4 44.1,60.2 45.2,57.5 46.2,56.2 43.2,56.2 40.4,62.8 41.6,62.9 		"/>
		<path class="st2" d="M53.7,55.7l0.7,1l2.3-3.5L55.5,53l-1.8-1.2v-0.2l0.5-0.8l0.3-0.2l3.5,0.7l2.2-3.2h-1.7l-3-0.6l-0.3-2L52.8,44
			L50,44.8L45.8,51l1.2,0.3L53.7,55.7z M50.7,47.9l0.6-0.4H52l0.3,0.2l0.3,0.6L52.5,49l-0.8,1.2l-0.2,0.1l-1.5-1v-0.2L50.7,47.9z"/>
		<polygon class="st2" points="59.5,42 61.7,40.4 62.2,40.4 62.7,40.8 62.8,41.3 62.6,41.8 60.9,43.6 59.3,44.5 62.3,45.8 
			65.8,42.1 66,39.1 63.9,37.1 61.7,37.3 59.5,38.9 59,38.9 58.8,38.7 58.7,38.2 58.9,37.7 60.6,35.9 62,35.2 59.2,34.1 55.8,37.6 
			55.7,40.5 57.4,42.2 		"/>
		<polygon class="st2" points="69.1,37.3 69.4,38.5 72.7,36.1 71.7,35.4 70.1,33.2 70,32.8 70.3,31.7 70.5,31.5 73.8,33.6 
			74.7,34.6 78.3,32.1 76.7,31.5 71.3,28.3 72.3,24 71.8,24 68.8,26.2 69,27.1 68.3,30.3 68.2,30.7 66.9,28.9 66.6,27.7 63.3,30.2 
			64.3,30.9 		"/>
		<polygon class="st2" points="80.5,29.7 80.6,31 84.4,29 83.5,28.2 79.9,21 79.7,19.8 76,21.7 76.9,22.6 		"/>
		<path class="st2" d="M92.8,23.8l2.4,1.3l3.3-0.7l0.7-1l1.1,0.6l3.8-0.8l-2.4-1.3l-0.8-0.9l1.8-3.7l-0.4-0.2l-2.7,0.6v1.1l-0.2,0.5
			l-2.6-2.8l0.1-0.2l1.5-0.3l2.1,0.2l-1.7-2.5l-4.6,1l-1.5,2l1.6,1.8l-2.2,2.9L92.8,23.8z M95.6,20.6L96,20l1.8,1.9l-0.5,0.3
			l-0.7,0.2L96,22.3l-0.4-0.4L95.5,21L95.6,20.6z"/>
		<polygon class="st2" points="115.3,22.8 117.3,23 119.6,17.8 119.8,17.3 119.8,17.8 121.1,23.4 123.1,23.6 127.1,14.7 128.1,13.7 
			124.3,13.3 124.3,14.4 123,17.6 122.8,18.2 122.8,17.6 121.8,13 119.2,12.7 117.3,17 117.2,17.6 117.1,17 116.4,13.7 116.7,12.5 
			112.6,12.1 113.1,13.4 		"/>
		<path class="st2" d="M126.4,24l3.8,1.2l0.2-1.2l0.5-0.8l0.2-0.1l2.7,0.8l0.1,0.2V25l-0.5,1.1l4,1.2l-0.3-1.3l0.1-8.6l0.5-0.8
			l-5.6-1.7v1l-4.7,7.2L126.4,24z M134,18.3l0.2-0.5l-0.1,0.5l-0.1,3.3l-0.2,0.1l-1.5-0.5l-0.1-0.2L134,18.3z"/>
		<polygon class="st2" points="143.2,29 144.5,26.6 144.8,26.4 145.9,26.2 146.1,26.3 145.7,30.2 145.2,31.4 149,33.4 148.8,31.7 
			149.3,25.5 153.6,24.5 153.5,24.1 150.2,22.3 149.5,23 146.3,23.7 145.9,23.8 147,22 147.9,21.1 144.2,19.2 144.1,20.5 
			140.3,27.5 139.3,28.4 143,30.3 		"/>
		<polygon class="st2" points="150.8,34.8 156.6,39.5 159.5,37.9 157.7,37.2 155.5,35.4 155.4,35 156.2,33.9 156.5,33.9 157.3,34.7 
			158.1,35.8 160.1,33.3 158.8,32.8 157.9,32.1 157.9,31.9 158.5,31 158.7,31 161,32.8 161.9,34.1 162.8,31.3 157.2,26.7 
			156.8,27.9 151.8,34.2 		"/>
		<path class="st2" d="M159.1,41.7l5.1,5.7l2.8,0.4l1.9-1.7v-1.9l1.7,0.2l1.5-1.3v-2.5l-5.1-5.7l-0.6,1.1l-6,5.3L159.1,41.7z
			 M166.5,40l1-0.9h0.2l1,1.1l0.2,0.6l-0.2,0.5l-0.2,0.2l-0.5,0.1l-0.5-0.2l-1-1.1V40L166.5,40z M163.4,42.8l1.2-1.1h0.2l0.9,1
			l0.2,0.7l-0.2,0.5l-0.4,0.4l-0.5,0.1l-0.7-0.3l-0.9-1v-0.3H163.4z"/>
		<path class="st2" d="M168.2,53.1l2.7,4.6l2.8,0.9l5.6-3.3l0.5-2.9l-2.7-4.6l-2.8-0.9l-5.6,3.3L168.2,53.1z M171.8,52.5l3.3-2h0.7
			l0.6,0.4l0.4,0.7l0.1,0.7l-0.4,0.6l-3.3,2h-0.7l-0.6-0.4l-0.4-0.7l-0.1-0.7L171.8,52.5z"/>
		<path class="st2" d="M173,61.4l1.3,3.7l1.1-0.6h0.9l0.2,0.1l0.9,2.7l-0.1,0.2l-0.7,0.6l-1.2,0.2l1.5,4l0.9-1.1l6.9-5l1-0.1l-2-5.5
			l-0.8,0.6l-8.6,0.5L173,61.4z M178.9,64.3l3.3-0.3l0.5-0.1l-0.5,0.2l-2.7,1.9l-0.2-0.1l-0.5-1.5L178.9,64.3z"/>
		<path class="st2" d="M177.3,74.3l0.6,4.1l1.1-0.6l2.1-0.3l0.2,0.2l0.2,0.9l-0.1,0.4l-3.1,1.8l0.6,3.8l1.3-1.1l2.6-1.6l1.5,1.3
			l2.9-0.4l1.6-2.5l-1.1-7.4l-1.1,0.6l-7.9,1.2L177.3,74.3z M183.8,77.1l1.8-0.3l0.2,0.2l0.2,1.5l-0.2,0.7l-0.6,0.4h-0.4l-0.6-0.2
			l-0.4-0.6l-0.2-1.5L183.8,77.1z"/>
		<path class="st2" d="M188.1,87.8l-8-0.3l-1.2-0.5l-0.3,7.5l2,2.4l6.2,0.3l2.2-2.3l0.3-7.5L188.1,87.8z M186.8,92.5l-0.4,0.9
			l-0.7,0.4l-3.5-0.2l-0.7-0.5l-0.4-0.9v-1l0.2-0.2l5.3,0.2l0.2,0.2L186.8,92.5z"/>
		<polygon class="st2" points="85.4,152.6 83.2,158.2 82.6,158.9 87.8,160.9 89.4,159.1 88,159 86,158.2 85.9,158 86.3,157 
			86.4,157 87.2,157.3 88,157.9 88.8,155.7 87.8,155.6 87,155.3 87,155.2 87.2,154.5 87.4,154.4 89.4,155.2 90.3,155.9 90.3,153.6 
			85.4,151.7 		"/>
		<polygon class="st2" points="95.9,157.2 96.3,157.1 98.1,157.6 99,158.1 98.8,155.9 95.3,155.1 93.3,156.1 92.9,157.8 93.8,159.1 
			95.7,159.9 95.9,160.2 95.8,160.7 95.5,160.9 95.1,161 93.3,160.6 92.1,159.9 92.4,162.3 96.1,163.1 98.1,162.2 98.6,160.1 
			97.6,158.8 95.8,158 95.6,157.7 95.6,157.5 		"/>
		<polygon class="st2" points="102.3,156.6 101.2,158.7 102.6,158.4 103.6,158.5 103.7,158.7 103.2,163.3 102.7,164.4 106.1,164.7 
			105.8,163.5 106.2,158.9 106.4,158.9 107.4,159 108.6,159.4 108,157.2 		"/>
		<polygon class="st2" points="110.5,162.5 109.9,163.1 109.9,164.4 110.5,165 112.2,165 112.8,164.4 112.8,163.1 112.2,162.6 		"/>
		<polygon class="st2" points="124,162.2 123.6,162.3 126.2,159.3 125.9,157.4 124.1,156.3 120.5,156.9 120,159.2 121.8,158.3 
			122.9,158.2 123.5,158.3 123.8,158.7 123.8,159 123.6,159.6 120.4,163.3 121.4,164.5 126.6,163.7 127.1,161.3 125.8,161.9 		"/>
		<path class="st2" d="M133.5,154l-3.4,1l-1.2,1.8l1.4,4.6l2,0.9l3.4-1l1.2-1.8l-1.4-4.6L133.5,154z M134.2,159.8l-0.4,0.4l-0.5,0.2
			l-0.6-0.1l-0.4-0.4l-0.9-2.9l0.1-0.5l0.4-0.4l0.5-0.2l0.6,0.1l0.4,0.4l0.9,2.9L134.2,159.8z"/>
		<path class="st2" d="M142.4,150.4l-3.3,1.5l-0.9,2l2,4.4l2.1,0.6l3.3-1.5l0.9-2l-2-4.4L142.4,150.4z M143.9,156.1l-0.4,0.4
			l-0.5,0.2h-0.6l-0.4-0.3l-1.3-2.8v-0.5l0.4-0.4l0.5-0.2h0.6l0.4,0.3l1.3,2.8V156.1z"/>
		<polygon class="st2" points="152,147.9 150.3,149 149.9,149.6 149.3,148.8 149.4,148.6 152.1,146.9 152,144.8 146.6,148.2 
			148.8,151.6 150.7,151.3 150.7,150.8 151,150.3 151.4,150.1 152,150 152.4,150.2 152.6,150.5 152.7,151.2 152.3,151.7 
			151.1,152.5 149.2,153 151.1,154.5 154.5,152.3 155.2,150.1 154,148.2 		"/>
	</g>
	<g>
		<polygon class="st3" points="179.6,66.1 182.3,64.2 182.7,63.9 182.2,64 178.9,64.3 178.9,64.5 179.4,65.9 		"/>
		<polygon class="st3" points="96,22.3 96.6,22.4 97.3,22.3 97.8,22 96,20 95.6,20.6 95.5,21 95.7,21.9 		"/>
		<polygon class="st3" points="142.2,152.5 141.7,152.5 141.2,152.7 140.8,153.1 140.8,153.6 142,156.4 142.5,156.7 143,156.7 
			143.5,156.5 143.9,156.1 143.9,155.6 142.7,152.8 		"/>
		<path class="st3" d="M162.3,140.2c-4.4-0.4-8.5-0.6-12.4-0.7c-0.8,0-1.5,0-2.3,0c-2.3,1.6-4.7,3-7.2,4.3c-0.9,0.4-1.8,0.9-2.7,1.3
			s-1.8,0.8-2.8,1.2c-0.9,0.4-1.9,0.7-2.8,1c-6.2,2.1-12.8,3.2-19.7,3.2s-13.5-1.1-19.7-3.2c-0.4-0.1-0.7-0.2-1-0.4
			c-0.9,0.2-1.7,0.3-2.6,0.5c-2.2,0.4-4.5,0.8-6.9,1.3c-1.3,0.2-2.6,0.4-3.8,0.4c-4.9,0.1-8.8-1.7-11.4-4.9c-2,3.1-4.8,5.5-8.5,5.9
			c14.4,12.7,33.3,20.5,54,20.5c26.1,0,49.4-12.3,64.3-31.5c-2.6,0.8-5.7,1.3-9.4,1.3C165.8,140.4,164.1,140.3,162.3,140.2z
			 M90.3,155.9l-0.9-0.7l-2-0.8l-0.1,0.1l-0.3,0.7l0.1,0.2l0.8,0.3l1,0.1l-0.8,2.2l-0.8-0.6l-0.8-0.3h-0.2l-0.4,1l0.1,0.2l2,0.8
			l1.4,0.1l-1.6,1.8l-5.2-2l0.6-0.7l2.1-5.5v-0.9l5,1.9L90.3,155.9L90.3,155.9z M95.8,158l1.8,0.8l0.9,1.3l-0.5,2.1l-2,1l-3.7-0.9
			l-0.3-2.4l1.2,0.7L95,161l0.4-0.1l0.3-0.3l0.1-0.4l-0.2-0.4l-1.8-0.8l-0.9-1.2l0.4-1.8l2-1l3.5,0.8l0.3,2.2l-1-0.6l-1.8-0.4
			l-0.4,0.1l-0.3,0.3v0.2L95.8,158z M107.4,159l-1-0.1l-0.2,0.1l-0.5,4.6l0.3,1.2l-3.4-0.4l0.6-1.1l0.5-4.6l-0.1-0.1l-1-0.1
			l-1.4,0.2l1.1-2.1l5.7,0.6l0.6,2.3L107.4,159z M112.8,164.4l-0.6,0.6h-1.7l-0.6-0.6v-1.3l0.6-0.6h1.7l0.6,0.6V164.4z M126.6,163.7
			l-5.2,0.8l-1-1.2l3.2-3.7l0.2-0.6v-0.3l-0.3-0.4l-0.6-0.2l-1.1,0.2l-1.7,0.8l0.5-2.3l3.6-0.6l1.8,1.1l0.3,1.9l-2.5,2.9l0.3-0.1
			l1.9-0.3l1.3-0.6L126.6,163.7z M135.7,161.4l-3.4,1l-2-0.9l-1.4-4.6l1.2-1.8l3.4-1l2,0.9l1.4,4.6L135.7,161.4z M145.6,157.4
			l-3.3,1.5l-2.1-0.6l-2-4.4l0.9-2l3.3-1.5l2.1,0.6l2,4.4L145.6,157.4z M154.5,152.3l-3.4,2.2l-1.9-1.4l1.9-0.6l1.1-0.7l0.4-0.6
			v-0.6l-0.2-0.3L152,150l-0.6,0.1l-0.4,0.3l-0.3,0.5v0.5l-1.9,0.3l-2.2-3.4l5.4-3.4v2.1l-2.7,1.7v0.2l0.6,0.9l0.4-0.6l1.7-1.1
			l2,0.3l1.2,1.8L154.5,152.3z"/>
		<polygon class="st3" points="51.5,50.4 51.7,50.3 52.5,49.1 52.6,48.3 52.3,47.7 52,47.5 51.3,47.5 50.7,47.9 49.9,49.1 50,49.4 
					"/>
		<polygon class="st3" points="172,54.5 172.6,55 173.2,55 176.5,53 176.9,52.4 176.8,51.7 176.4,50.9 175.8,50.5 175.1,50.5 
			171.8,52.5 171.5,53.1 171.5,53.8 		"/>
		<polygon class="st3" points="164.9,44.5 165.4,44.4 165.8,44 166,43.5 165.8,42.8 164.9,41.8 164.6,41.8 163.4,42.8 163.4,43.2 
			164.3,44.2 		"/>
		<polygon class="st3" points="133.9,21.7 134.1,21.6 134.2,18.3 134.3,17.8 134,18.3 132.3,21 132.4,21.2 		"/>
		<polygon class="st3" points="168,41.6 168.5,41.5 168.7,41.3 168.9,40.9 168.7,40.3 167.7,39.2 167.5,39.2 166.5,40 166.5,40.3 
			167.5,41.4 		"/>
		<polygon class="st3" points="133.1,156 132.6,155.9 132.1,156.1 131.7,156.5 131.5,157 132.4,159.9 132.8,160.3 133.3,160.4 
			133.8,160.2 134.2,159.8 134.3,159.3 133.5,156.4 		"/>
		<path class="st3" d="M112.5,7.7c-45,0-81.4,36.4-81.4,81.4c0,12.4,2.8,24.2,7.8,34.8c-0.6-3.3,0.4-6.8,3-10.1
			c2.5-3.1,6.1-5.8,10.1-7.7c0.4-0.2,0.9-0.4,1.3-0.6c-0.2-0.8-0.4-1.6-0.6-2.4c-0.2-1-0.4-2-0.6-3c-0.2-1-0.4-2-0.5-3.1
			c-0.3-2.6-0.5-5.2-0.5-7.8c0-6.9,1.1-13.5,3.2-19.7c0.3-0.9,0.7-1.9,1-2.8c0.4-0.9,0.7-1.8,1.2-2.8c0.4-0.9,0.8-1.8,1.3-2.7
			c5-9.7,12.5-17.9,21.6-23.8c1.3-0.8,2.5-1.6,3.8-2.3c0.4-0.2,0.9-0.5,1.3-0.7c0.9-0.4,1.8-0.9,2.7-1.3s1.8-0.8,2.8-1.2
			c0.9-0.4,1.9-0.7,2.8-1s1.9-0.6,2.9-0.9s2-0.5,2.9-0.7s2-0.4,3-0.6s2-0.4,3.1-0.5c2.6-0.3,5.2-0.5,7.8-0.5
			c33.9,0,61.4,27.5,61.4,61.4c0,2.6-0.2,5.3-0.5,7.8c-0.1,1-0.3,2-0.5,3.1v0.1c0.5,0,0.9,0.1,1.4,0.2c3.7,0.8,6.5,3.7,7,7.6
			c2.9,1.4,4.9,4.4,5.3,8c0.1,0.7,0.1,1.3,0.1,2c0.5,0.6,0.8,1.3,1.1,2.1c3.9-9.5,6.1-20,6.1-30.9C193.9,44.1,157.5,7.7,112.5,7.7z
			 M177.2,47.9l2.7,4.6l-0.5,2.9l-5.6,3.3l-2.8-0.9l-2.7-4.6l0.5-2.9l5.6-3.3L177.2,47.9z M166.9,34.8l5.1,5.7V43l-1.5,1.3l-1.7-0.2
			V46l-1.9,1.7l-2.8-0.4l-5.1-5.7l1.2-0.5l6-5.3L166.9,34.8z M157.2,26.7l5.7,4.5l-0.9,2.9l-0.9-1.3l-2.3-1.8h-0.2l-0.6,0.8V32
			l0.9,0.7l1.3,0.5l-1.9,2.4l-0.8-1.1l-0.9-0.7h-0.2l-0.9,1.1l0.1,0.4l2.3,1.8l1.7,0.7l-2.8,1.6l-5.9-4.7L152,34l5-6.3L157.2,26.7z
			 M140.3,27.5l3.8-7.1l0.2-1.3L148,21l-1,1l-1,1.9l0.4-0.2l3.2-0.7l0.7-0.6l3.3,1.7l0.2,0.4l-4.3,1l-0.6,6.3l0.2,1.7l-3.8-2
			l0.5-1.3l0.4-3.9l-0.2-0.1l-1.1,0.2l-0.3,0.2l-1.3,2.4l-0.2,1.3l-3.7-1.9L140.3,27.5z M132.2,14.9l5.6,1.7l-0.5,0.8l-0.1,8.6
			l0.3,1.3l-4-1.2L134,25v-0.9l-0.1-0.2l-2.7-0.8l-0.2,0.1l-0.5,0.8l-0.2,1.2l-3.8-1.2l1-0.9l4.7-7.2V14.9z M116.7,12.5l-0.3,1.2
			l0.7,3.3v0.6l0.2-0.6l1.9-4.3l2.6,0.3l1,4.6v0.6l0.2-0.6l1.3-3.1v-1.2l3.8,0.4l-0.9,1.1l-4,8.8l-2-0.2l-1.3-5.5v-0.5l-0.1,0.5
			l-2.3,5.2l-2-0.2l-2.2-9.4l-0.6-1.3L116.7,12.5z M92.8,16.6l1.5-2l4.6-1l1.7,2.5L98.4,16l-1.5,0.3l-0.1,0.2l2.6,2.8l0.2-0.5v-1.1
			l2.7-0.6l0.4,0.2l-1.8,3.7l0.8,0.9l2.4,1.3l-3.8,0.8l-1.1-0.6l-0.7,1l-3.3,0.7l-2.4-1.3l-0.6-2.5l2.2-2.9L92.8,16.6z M79.7,19.8
			l0.2,1.3l3.6,7.1l0.9,0.9L80.6,31l-0.2-1.3l-3.6-7.1L76,21.7L79.7,19.8z M66.6,27.7l0.4,1.2l1.3,1.7v-0.4L69,27l-0.2-0.9l3-2.2
			h0.5l-1,4.3l5.4,3.2l1.6,0.6l-3.5,2.5l-0.9-1l-3.3-2.1l-0.2,0.2L70,32.8v0.4l1.6,2.2l1.1,0.7l-3.3,2.5L69,37.4L64.2,31l-1.1-0.7
			L66.6,27.7z M55.8,37.6l3.3-3.5l2.8,1.1l-1.4,0.7l-1.7,1.8l-0.2,0.5l0.2,0.5l0.2,0.2h0.5l2.2-1.6l2.2-0.2l2.1,2L65.8,42l-3.5,3.7
			l-3-1.3l1.6-0.9l1.7-1.8l0.2-0.5l-0.2-0.5l-0.4-0.4h-0.6L59.5,42l-2,0.2l-1.8-1.7L55.8,37.6z M49.9,44.8l2.8-0.8l2.4,1.6l0.3,2
			l3,0.6h1.7L58,51.4l-3.5-0.7l-0.3,0.2l-0.5,0.8v0.2l1.8,1.2l1.2,0.3l-2.3,3.5l-0.7-1L47,51.3L45.8,51L49.9,44.8z M36.3,80.4
			l0.9,0.3l8.4-1.8l1.2-0.6l-0.3,4.2l-1.2-0.3l-0.9,0.2l-0.2,0.2L44,85.4l0.1,0.2l0.9,0.3l1.2-0.1l-0.3,4L44.8,89l-8-3l-1,0.2
			L36.3,80.4z M38.4,105.3l-1.1,0.8l-0.5-4.1H38l3.1-1.4l0.6-0.2h-0.6l-4.6-0.9L36.2,97l4.2-2l0.6-0.2h-0.6l-3.3-0.6L36,94.5
			l-0.5-3.8l1.3,0.5l9.5,2l0.2,2l-5.2,2.4l-0.5,0.2h0.5l5.6,1.1l0.2,2L38.4,105.3z M47.6,75.5l-1.4-0.9l-6.1-1.5L40,73.2l-0.3,1.3
			l0.1,1.8l-2.6-1.8l1.8-7.4l3.1-0.4l-0.9,1.7l-0.3,1.3l0.1,0.2l6.1,1.5l1.7-0.2L47.6,75.5z M41.6,62.9l-1.3-0.1l2.8-6.7l3,0.1
			l-1,1.2L44,60.1l0.1,0.2l0.9,0.4l0.2-0.1l0.4-1l0.2-1.3l2.9,1.2L48,60.6l-0.4,1l0.1,0.2l1.3,0.6l0.3-0.2l1.1-2.7l0.2-1.9l2.2,2.4
			l-2.9,6.9L49,66.1L41.6,62.9z M175.5,68.3l1.2-0.2l0.7-0.6l0.1-0.2l-0.9-2.7l-0.2-0.1h-0.9l-1.1,0.6l-1.3-3.7l1.3,0.2l8.6-0.5
			l0.8-0.6l2,5.5l-1,0.1l-6.9,5l-0.9,1.1L175.5,68.3z M181.3,77.7l-0.2-0.2l-2.1,0.3l-1.1,0.6l-0.6-4.1l1.2,0.2l7.9-1.2l1.1-0.6
			l1.1,7.4l-1.6,2.5l-2.9,0.4l-1.5-1.3l-2.6,1.6l-1.3,1.1l-0.6-3.8l3.1-1.8l0.1-0.4L181.3,77.7z M186.8,97.2l-6.2-0.3l-2-2.4
			l0.3-7.5l1.2,0.5l8,0.3l1.2-0.4l-0.3,7.5L186.8,97.2z"/>
		<polygon class="st3" points="41.7,84.9 41.9,84.7 42,83.2 41.9,83 38.6,83.6 38.1,83.6 38.6,83.8 		"/>
		<polygon class="st3" points="181.4,91 181.1,91.2 181.1,92.3 181.4,93.1 182.2,93.6 185.6,93.8 186.4,93.4 186.8,92.5 186.8,91.4 
			186.6,91.2 		"/>
		<polygon class="st3" points="184.3,79.4 184.9,79.6 185.3,79.6 185.8,79.2 186,78.5 185.8,77 185.7,76.8 183.8,77.1 183.7,77.3 
			183.9,78.8 		"/>
		<path class="st3" d="M120.7,136.8c2.6-0.3,4.9-2.4,4.6-5.3c-0.2-2.2-1.8-2.8-2.8-2.7c-0.5,0-0.9,0.4-1.1,0.7
			c0.3,0.1,0.6,0.6,0.6,0.9c0.1,0.6-0.3,1.2-1.2,1.3c-5.6,0.6-1.9-15.9,1.3-19.5c-0.5-0.5-2.6-0.6-4.1,1.7c-0.4-1.1-1.4-1.7-2.7-1.5
			c-3.3,0.4-7.3,4.3-8.8,8.7c-0.9,2.3-1.8,4.1-2.8,4.2c-0.5,0.1-0.8-0.3-0.8-0.7c-0.2-1.7,1.9-4.8,1.7-6.8c-0.3-2.9-2.4-3.7-4.1-3.5
			l-1.1,0.1c1-2.8-1.4-3.1-2-2.6c0.5,1-0.4,3.8-2.5,10.1c-0.8,2.3-1.9,4.8-3,4.9c-0.5,0-0.7-0.3-0.7-0.7c-0.3-2.6,1.7-8.6,3.3-10.5
			c-1.2-0.9-3.4,0.4-4.1,1.7c-0.4-1-1.3-1.7-2.7-1.5c-4.8,0.6-10,7.2-9.4,12.9c0.3,2.5,1.8,3.5,3.7,3.3c2-0.2,3.7-2.3,4.7-4.6
			c0,2.1,1.3,3.9,3.6,3.7c3.4-0.4,4.6-4.3,6.6-9.3c0.6-1.6,1.3-3.7,1.9-5.2l0.5-0.1c0.9-0.1,1.4,0.4,1.5,1.2c0.2,1.9-2.6,6-2.2,9.2
			c0.2,1.6,1.4,3.1,3.5,2.9c1.8-0.2,3.1-1.5,4.2-3.4c0.5,1.7,1.9,2.8,3.6,2.6c1.6-0.2,3.3-1.8,4.5-4.3
			C112.6,130.3,114.7,137.5,120.7,136.8z M83.5,127.5c-0.5,0-0.9-0.2-1-1.1c-0.4-2.9,3-8.7,5.1-9c0.4,0,0.6,0.2,0.7,0.7
			C88.6,120.6,85.7,127.3,83.5,127.5z M111.3,124.4c-0.5,0-0.9-0.2-0.9-1.1c-0.4-3,3-8.7,5.1-9c0.4,0,0.6,0.2,0.7,0.7
			C116.3,117.5,113.4,124.1,111.3,124.4z"/>
		<path class="st3" d="M159.6,103.1c0.4,0.7,0.4,1.7-0.7,4.3c-0.7,0.1-1.3,0.3-1.6,0.6c0-0.3,0-0.6-0.2-0.8
			c-0.2,0.2-0.3,0.5-1.3,0.6c1.1-3-1.4-5-3.6-3.9c0.4,0.7,0.4,1.7-0.7,4.3c-2.2,0.2-2.7,1.8-2.1,2.6c0.1-0.2,0.3-0.5,1.3-0.6l-2,5.3
			c-1.3,3.3-3.6,4.9-5.6,5.2c-1.6,0.2-3.1-0.5-3.3-2.2c0.4,0,0.7,0,1.1,0c3.6-0.4,7.1-3.4,6.7-6.6c-0.2-2-1.9-2.9-3.7-2.8
			c-3.4,0.4-7.2,4.2-8.3,8.1c-0.9,2.5-1.8,4.6-3,4.8c-0.5,0-0.7-0.2-0.8-0.7c0-0.4,0.2-0.9,0.3-1.3l1.9-5.1c0.4-1.1,0.7-1.8,0.7-2.7
			c-0.1-1.1-0.9-2-2.4-1.8c-0.5,0-1.4,0.4-1.8,0.7c0.4,0.7,0.4,1.7-0.7,4.3c-0.6,1.5-0.9,2.5-1.5,3.9c-0.8,1.9-1.5,3.3-2.5,3.4
			c-0.5,0-0.9-0.3-0.9-0.7c0-0.4,0.1-0.9,0.2-1.2l1.9-5.1c0.4-1.1,0.7-1.8,0.7-2.7c-0.1-1.1-0.9-2-2.4-1.8c-0.5,0-1.4,0.4-1.8,0.7
			c0.4,0.7,0.2,1.7-0.7,4.3l-0.5,1.4c-0.7,1.9-2,4.8-1.8,6.4c0.2,1.8,1.6,3.1,3.8,2.9c1.5-0.2,2.6-1.1,3.5-2.5
			c0.5,1.1,1.6,1.9,3.2,1.7c2.1-0.2,3.5-2,4.6-4.6c0.9,2.5,3.1,3.7,5.9,3.3c2.5-0.3,4.4-1.5,5.9-3.3c0.4,1.5,1.6,2.4,3.7,2.2
			c1.7-0.2,2.8-1.1,3.8-2.6c0.5,1.2,1.7,2,3.6,1.7c2.3-0.3,3.7-2,4.9-4.5c0,0.1,0,0.2,0.1,0.2c0.3,1,0.8,1.8,1.4,2.6l0,0
			c0.3,0.4,0.6,0.7,1,1.1c2,1.8,4.8,2.7,7.5,2.4c5.6-0.6,7.8-4.7,7.4-8.3c-0.3-2.3-1.7-3.9-3.7-3.6c-2.6,0.3-2.8,2.8-2,3.4
			c0-0.2,0.2-0.3,0.4-0.4c0.4,0,0.6,0.2,0.7,0.6c0.1,1.2-0.7,2.8-3.4,3.1c-1.7,0.2-3.3-0.5-4.3-1.9c-0.3-0.5-0.6-1-0.7-1.7l0,0
			c-0.1-0.2-0.1-0.5-0.2-0.8c0.2,0,0.4,0,0.5,0c0.2,0,0.4,0,0.6,0c0.4,0,0.7-0.1,1-0.2c3.2-0.8,6-3.5,5.7-6.4
			c-0.2-1.5-1.1-2.4-2.4-2.7c-0.4-0.1-0.9-0.1-1.3-0.1h-0.1l0,0c-1,0.1-2,0.6-3,1.2c-2.4,1.5-4.4,4.2-5.2,6.9
			c-0.9,2.5-1.8,4.6-3.3,4.8c-0.6,0.1-0.8-0.3-0.9-0.8c-0.1-0.7,0.3-1.5,0.4-1.9l2.7-7.2c2.1-0.2,2.7-1.7,2.1-2.6
			c-0.2,0.2-0.3,0.5-1.3,0.6C164.3,103.9,161.8,101.9,159.6,103.1z M144.2,111c0.5-0.1,0.8,0.2,0.8,0.7c0.2,2.1-2.6,4.9-5.1,4.8
			C140.5,113.8,142.4,111.2,144.2,111z M156.2,114.7c0,0.1-0.1,0.3-0.2,0.4c-0.1,0.2-0.2,0.5-0.3,0.7c-0.8,2.1-1.6,3.7-2.9,3.8
			c-0.6,0.1-0.8-0.3-0.9-0.8c-0.1-0.7,0.3-1.5,0.4-1.9l2.7-7.2c0.7-0.1,1.2-0.3,1.6-0.6c0,0.3,0.1,0.6,0.2,0.8
			c0.1-0.2,0.3-0.5,1.3-0.6L156.2,114.7z M170.9,108.3c0.4-0.2,0.8-0.4,1.1-0.4c0.2,0,0.3,0,0.4,0c0.2,0.1,0.4,0.4,0.4,0.7
			c0.1,1.2-0.7,2.6-1.9,3.5c-0.6,0.5-1.3,0.9-1.9,1.1c-0.4,0.1-0.9,0.2-1.3,0.2C168.2,111.2,169.5,109.1,170.9,108.3z"/>
		<path class="st3" d="M166.5,127c-1.3-0.1-2.6-0.1-3.8-0.2c-0.6,0-1.1,0-1.7-0.1c-1.1,0-2.1-0.1-3.2-0.1
			c-13.6-0.4-23.8,0.1-32.5,1.2c0.9,0.7,1.6,1.8,1.8,3.5c0.2,1.3-0.1,2.4-0.6,3.5c7.2-0.9,14.8-1.2,24.2-0.9c1.2,0,2.4,0.1,3.7,0.2
			c0.6,0,1.3,0.1,1.9,0.1c2,0.1,4.1,0.2,6.3,0.4c23.6,1.8,20.2-12.3,19.5-13.1C182,121.3,183.2,128,166.5,127z"/>
		<path class="st3" d="M66.4,131.8c0.2-0.5,0.4-0.9,0.6-1.5c0.4-0.9,0.7-1.8,1-2.7c2.8-7.4,5.9-14.8,10.9-17
			c-3.7,2.9-7.9,11.4-9.1,19c-0.2,1.1-0.3,2.3-0.3,3.3c0,0.7,0,1.3,0,2c0.5,5.5,3.5,9.4,11.1,8.3c0.2,0,0.4,0,0.6-0.1
			c0.5-0.1,1-0.2,1.5-0.3c1.4-0.2,2.8-0.5,4.1-0.7c11.2-2.1,19.8-4,27.9-5.5c-0.2-0.2-0.5-0.5-0.7-0.8c-1.2-1.5-1.9-3.5-2.2-5.8
			c-9.2,1.8-17.9,4-29.2,5.9c-15.4,2.5-3.7-25.4,0.9-25.1c1.9-0.2,1.9,2.3,0.9,2.8c1.1,0.6,3.7-0.8,3.4-3.2
			c-0.3-2.4-2.3-3.9-5.4-3.6c-6.9,0-13.3,8.5-16.8,17.9c-0.4,0.9-0.7,1.9-1,2.9c-0.1,0.3-0.2,0.5-0.2,0.8c0-0.3,0-0.7,0-1
			c0.1-1.2,0.2-2.5,0.3-3.8c0.6-5.7,2.1-12.1,5.1-13.4c-3.4-1.8-8-1.5-12.3,0c-0.8,0.3-1.6,0.6-2.4,0.9c-0.4,0.2-0.9,0.4-1.3,0.6
			c-5.8,2.9-10.3,7.7-9.4,11.6c1.4,8.9,13.5,1.1,7.9-2.8c0.4,1.4-1.3,1.8-1.4,0.1c-0.3-2.3,1.4-4.6,3.8-6.4c0.4-0.3,0.8-0.5,1.2-0.7
			c0.7-0.4,1.5-0.8,2.3-1.1c1.4-0.5,2.8-0.9,4.2-0.9c-1.1,0.8-2,1.9-3,3.4c-0.5,0.8-1,1.7-1.5,2.7c-0.2,0.5-0.5,1-0.7,1.6
			c-0.9,2-1.9,4.4-2.9,7.4c-3,8.1-4.4,11.3-6.8,11.8c-0.1,0-0.2,0-0.2,0c-1.2,0.2-2.2-0.5-2.4-1.9c0-0.5,0.1-0.9,0.3-1.3
			c0.6-1,2-1.5,2.9-0.9c0.2-1.2-1.5-2.5-3.8-2.2c-0.4,0-0.7,0.1-1,0.2c-0.9,0.2-1.7,0.5-2.4,0.9c-5.7,3.5-4.3,13.6,4.7,12.9
			c1.5-0.1,2.8-0.5,3.9-1.1c0.7-0.4,1.4-0.9,2-1.5c4.5-4.2,6-12.9,8-20.2c0.2-0.6,0.4-1.2,0.5-1.8l0,0c0.4-1.1,0.7-2.2,1.1-3.2
			c1.1-3,2.6-5.4,4.7-6.7c-1.7,1.2-2.8,4.4-3.7,8.3c-0.3,1.1-0.5,2.3-0.7,3.6c-0.1,0.6-0.2,1.3-0.4,1.9c-1.5,8.3-2.8,17.3-6.4,18.1
			C60,147.2,63.2,140.3,66.4,131.8z"/>
		<path class="st3" d="M158.1,90.8c-16.5,0.2-30.9,3.6-44.9,11.4c2-0.4,5.3-1.4,7.7-2c-0.2,0.1-1.4,0.8-2.3,1.9
			c10.1-2.7,12.4-1.1,22.5-2.8c-0.7-1.3-1.1-1.1-1.6-1.8c0,0-1.3,0-2.1,0.1l1.8-0.8C141.4,95.7,148.9,93.3,158.1,90.8z M133.5,96.1
			c-0.2,0-0.4,0.1-0.6,0.2c-0.1,0-0.2,0-0.2,0.1c0.3,0,0.6-0.1,0.8-0.1c0.6-0.1,1.2-0.1,1.8-0.1s1,0,1.4,0c0,0,0.1,0,0.2,0
			c-0.5,0.1-1,0.2-1.5,0.4c-0.6,0.1-1.1,0.2-1.7,0.4c-1.1,0.2-2.2,0.5-3.1,0.6c-0.8,0.2-1.9,0.5-3,0.8c-1.1,0.3-2.2,0.7-3.1,1
			l0.1-0.1c0.4-0.3,0.8-0.6,1.4-0.9c-0.1,0-0.2,0-0.3,0.1c-1.5,0.5-3,0.9-4.2,1.3c0.1-0.1,0.3-0.2,0.4-0.2c1.5-0.9,3.5-1.8,5.5-2.6
			c2.2-0.8,4.3-1.5,5.9-1.9c1.6-0.4,3.8-1,6.1-1.4c2.2-0.4,4.5-0.7,6.3-0.7c0.1,0,0.2,0,0.2,0c-1.8,0.5-4.1,1.1-6.3,1.6
			C137.2,95.1,135,95.7,133.5,96.1z"/>
		<path class="st3" d="M71.7,97.4l12.8,0.8l0,0l0,0l0,0l-1.6-5.3V70.7l1.8,4.5l0.6,1.6l0.3,0.7l8.8,21.3h0.4l0,0l9.8-22.4l3.6-8.3
			V68v25.6l-1.1,3c1.7-0.9,7.6-4,12.2-6.4c1.4-1.2,4-3.4,6.1-5.2V72.4l-0.1-0.2c-0.2-0.3-0.3-0.6-0.4-0.9c0-0.1-0.1-0.2-0.1-0.4
			v-0.1c-0.2-0.4-0.4-0.8-0.5-1.2c-1.1-3.1-0.7-6.8,1.2-9.7V49.2l2.5-7v-0.1V42l-23.5,5.3L96.6,67l-0.4,1l-0.9,2.3v-0.1l-8.3-19l0,0
			l-15.1,3.4l1.4,4.6v33.2L71.7,97.4z M101.3,61.5l5-12.5l15.2-3.8l0.3-0.1L108,50.5l0,0l0,0l-6.8,11.1L101.3,61.5z M83.9,53.6
			L76.6,57l-1.8,19.4l0,0l0.1-17.9l-0.8-2.7L83.9,53.6z"/>
		<path class="st3" d="M161.9,79.3c-0.6,0.1-1.1,0.2-1.7,0.3c0,0,0,0-0.1,0c-0.8,0.2-1.9,0.4-3.2,0.7l0,0c-0.1,0-0.2,0.1-0.4,0.1
			h-0.1c-0.1,0-0.2,0-0.3,0.1c-0.1,0-0.2,0-0.2,0.1c-0.1,0-0.1,0-0.2,0c-0.1,0-0.2,0-0.3,0.1c0,0,0,0-0.1,0
			c-3.3,0.9-7.9,2.2-13.4,4.2c-8.6,3.1-19.7,7.7-32.9,14.5c-0.9,0.4-1.7,0.9-2.6,1.3l0,0c0,0,0,0-0.1,0c0.1,0.2,0.3,0.4,0.5,0.5
			c6.3-3.1,35-17.1,55.4-20.9C162.2,80.1,162.2,79.7,161.9,79.3L161.9,79.3z"/>
		<path class="st3" d="M192.4,55.3C188,45,181.8,35.7,173.8,27.7s-17.2-14.2-27.6-18.6c-10.7-4.4-22-6.7-33.7-6.7S89.4,4.7,78.7,9.2
			c-10.3,4.4-19.6,10.6-27.6,18.6S36.9,45,32.5,55.4c-4.5,10.7-6.8,22.1-6.8,33.8s2.3,23.1,6.8,33.8c0.6,1.4,1.2,2.8,1.9,4.1
			c-0.8,0.7-1.5,1.4-2.2,2.2c-2.4,3.1-3.7,6.9-3.4,10.8c0.2,3.7,1.8,7.2,4.3,9.8c2,2,5.7,4.5,11.3,4.5h0.3c0.4,0,0.9,0,1.4-0.1
			c2.5-0.2,4.8-0.8,7-1.9c7.5,7,16.1,12.7,25.6,16.6c10.7,4.5,22.1,6.8,33.8,6.8s23.1-2.3,33.8-6.8c10.3-4.4,19.6-10.6,27.6-18.6
			c3.5-3.5,6.8-7.4,9.6-11.4c3-2,5.2-4.7,6.5-7.9c0.4-1.1,0.8-2.6,0.9-3.3c0-0.2,0.1-0.4,0.1-0.6s0.1-0.7,0.1-1.5
			c0.5-1,0.9-1.9,1.3-2.8c4.5-10.7,6.8-22.1,6.8-33.8S196.9,65.9,192.4,55.3z M189.9,121.8c-0.2,0.6-0.5,1.1-0.7,1.7
			c-0.2,0.5-0.4,1-0.7,1.5l0,0l0,0c0,0.9-0.1,1.7-0.1,1.8c0,0.1,0,0.2,0,0.4c-0.1,0.3-0.4,1.9-0.8,2.8c-0.6,1.6-1.7,3.3-3.3,4.9
			c-0.1,0.1-0.2,0.2-0.2,0.2s-0.1,0.1-0.2,0.1c-0.7,0.6-1.4,1.2-2.3,1.7c-0.1,0.1-0.1,0.2-0.2,0.3c-0.2,0.3-0.4,0.6-0.6,0.8
			c-0.2,0.3-0.4,0.6-0.7,0.9c-0.2,0.2-0.3,0.4-0.4,0.6c-0.3,0.4-0.6,0.7-0.8,1.1c-0.1,0.2-0.2,0.3-0.4,0.4c-0.3,0.4-0.6,0.7-0.9,1.1
			c-0.1,0.1-0.2,0.3-0.3,0.4c-0.3,0.4-0.6,0.7-0.9,1.1c-0.1,0.1-0.2,0.3-0.3,0.4c-0.3,0.4-0.6,0.7-1,1.1c-0.1,0.1-0.2,0.3-0.4,0.4
			c-0.3,0.4-0.7,0.7-1,1.1c-0.1,0.1-0.2,0.2-0.4,0.4c-0.5,0.5-0.9,0.9-1.4,1.4l0,0l0,0c-7.7,7.7-16.7,13.8-26.7,18l0,0
			c-10.3,4.4-21.3,6.6-32.6,6.6h-0.1c-11.3,0-22.3-2.2-32.7-6.6c-7.4-3.1-14.3-7.3-20.4-12.3c-0.2-0.1-0.3-0.2-0.5-0.4
			c-0.3-0.2-0.5-0.4-0.8-0.7s-0.6-0.6-1-0.8c-0.1,0-0.1-0.1-0.2-0.2c-0.9-0.8-1.8-1.7-2.8-2.5l0,0c-0.4-0.1-0.7-0.3-1-0.4
			c-2.2,1.4-4.6,2.2-7.2,2.4c-0.4,0-0.8,0-1.2,0h-0.2c-4.8,0-7.7-2-9.4-3.7c-2.1-2.1-3.4-5-3.5-8.1c-0.2-3.3,0.8-6.4,2.8-8.9
			c0.3-0.4,0.7-0.8,1-1.1c0.2-0.2,0.4-0.4,0.5-0.5c0,0,0.1,0,0.1-0.1c0.6-0.5,1.2-0.9,1.8-1.3l0,0c-1-2-2-4-2.9-6
			c-4.1-9.7-6.3-20-6.5-30.5c0-0.7,0-1.4,0-2.2c0-11.3,2.2-22.3,6.6-32.7c4.3-10,10.3-19,18.1-26.7c7.7-7.7,16.7-13.8,26.7-18
			c10.3-4.4,21.3-6.6,32.7-6.6s22.3,2.2,32.7,6.6c10,4.2,19,10.3,26.7,18s13.8,16.7,18,26.7c4.4,10.3,6.6,21.3,6.6,32.7
			C196.5,100.4,194.3,111.4,189.9,121.8z"/>
	</g>
</g>
</svg>
