<?xml version="1.0" encoding="utf-8"?>
<!-- Generator: Adobe Illustrator 27.0.0, SVG Export Plug-In . SVG Version: 6.00 Build 0)  -->
<svg version="1.1" id="Layer_1" xmlns="http://www.w3.org/2000/svg" xmlns:xlink="http://www.w3.org/1999/xlink" x="0px" y="0px"
	 viewBox="0 0 107.165 54.444" style="enable-background:new 0 0 107.165 54.444;" xml:space="preserve">
<style type="text/css">
	.st0{fill:#E93825;}
</style>
<g>
	<path class="st0" d="M49.304,27.219c-0.116-0.653-0.683-0.984-1.218-0.871c-2.558,0.542-4.496,3.749-5.119,6.935
		C47.685,31.682,49.551,28.628,49.304,27.219z"/>
	<path class="st0" d="M102.389,1.922L97.31,26.594c0,0-0.993,0.521-2.816,1.117c-1.823,0.596-4.364,0.485-6.249-0.288
		c-1.529,5.706-5.114,11.217-11.7,12.612c-2.583,0.547-4.586,0.005-5.934-1.3c-1.527,1.704-3.754,3.352-6.923,4.024
		c-2.558,0.542-4.696-0.245-6.065-1.758c-2.547,2.576-5.911,4.294-9.913,5.141c-16.173,3.426-14.74-22.11,0.351-25.306
		c3.669-0.777,6.09,1.323,6.697,4.191c0.95,4.485-3.49,10.988-11.337,13.394c0.729,1.327,2.09,2.06,4.238,1.606
		c4.253-0.901,8.142-4.559,9.209-8.428l0.004,0.001c0.023-0.109,0.044-0.209,0.068-0.326l2.658-12.869l6.501-1.378
		c0,0-3.366,16.202-3.414,16.429c-0.55,2.565-0.081,3.669,1.282,3.381c2.672-0.567,4.615-5.019,5.441-9.022l2.471-12.011
		l6.501-1.377c-1.381,6.687-2.935,14.268-3.081,15.006c-0.541,2.735-0.558,4.856,1.586,4.401c2.246-0.476,4.948-4.725,6.17-8.96
		c-3.599-2.852-3.19-10.767,1.114-11.679c1.836-0.389,4.017,0.625,4.61,3.424c0.454,2.143,0.499,3.586,0.329,5.562
		c0.951,0.51,1.921,0.661,2.757,0.664l4.698-22.826C96.438,0.015,96.315,0,96.19,0H10.975C4.914,0,0,4.914,0,10.975v32.494
		c0,5.385,3.882,9.856,8.998,10.788l7.028-34.145c-0.564-0.356-1.084-0.393-1.512-0.302c-3.251,0.688-3.421,4.803-2.04,7.824
		L6.85,31.103c-2.628-5.82-1.699-9.967-0.456-12.42c1.385-2.733,3.909-4.724,6.753-5.327c4.699-0.995,8.896,1.807,11.229,7.497
		c1.067,2.602,1.918,5.552,2.609,8.607c1.99-8.62,4.984-16.487,8.294-20.799l5.233,4.016c-4.494,5.855-9.441,23.138-9.424,36.991
		l-6.636,1.405c-0.5-5.52-1.943-14.272-4.115-21.703l-5.107,25.074H96.19c6.061,0,10.975-4.914,10.975-10.975V10.975
		C107.164,7.215,105.271,3.899,102.389,1.922z M93.562,36.824c-1.941,0.411-3.57-0.888-3.639-2.902
		c-0.069-2.012,1.449-3.979,3.39-4.39c1.942-0.411,3.57,0.889,3.639,2.901C97.022,34.447,95.505,36.413,93.562,36.824z"/>
</g>
</svg>
