<?xml version="1.0" encoding="utf-8"?>
<!-- Generator: Adobe Illustrator 27.0.0, SVG Export Plug-In . SVG Version: 6.00 Build 0)  -->
<svg version="1.1" id="Layer_1" xmlns="http://www.w3.org/2000/svg" xmlns:xlink="http://www.w3.org/1999/xlink" x="0px" y="0px"
	 viewBox="0 0 225 110.016" style="enable-background:new 0 0 225 110.016;" xml:space="preserve">
<style type="text/css">
	.st0{fill:#8D734A;}
	.st1{fill:#1A1A1A;}
	.st2{fill:#FFFFFF;}
	.st3{fill-rule:evenodd;clip-rule:evenodd;fill:#FFFFFF;}
</style>
<g>
	<g>
		<polygon class="st0" points="11.055,27.778 11.055,82.525 27.227,66.916 40.878,79.55 24.548,95.308 78.377,95.308 62.083,79.748 
			75.685,66.63 91.616,82.008 91.615,28.234 75.685,43.441 62.206,30.44 78.441,14.72 24.71,14.716 40.935,30.378 27.466,43.503 		
			"/>
		<path class="st1" d="M95.605,91.356v-72.84l-19.92,19.431l-7.783-7.508l20.319-19.686H14.909L35.256,30.39l-7.813,7.615
			L7.097,18.516v73.327l20.188-19.486l7.835,7.252L14.762,99.261h73.478L67.792,79.732l7.893-7.606
			C75.685,72.126,95.605,91.356,95.605,91.356z M78.377,95.308H24.548l16.329-15.76L27.226,66.916L11.055,82.525V27.778
			l16.411,15.724l13.469-13.125L24.708,14.72h53.733L62.206,30.44l13.478,13.001l15.93-15.207v53.774l-15.93-15.377L62.083,79.749
			L78.377,95.308L78.377,95.308z"/>
		<polygon class="st2" points="44.62,20.651 46.807,23.955 44.569,27.549 49.052,27.57 51.29,31.075 53.351,27.57 57.923,27.572 
			55.625,23.955 57.585,20.651 53.687,20.651 51.29,17.241 49.052,20.651 		"/>
		<path class="st2" d="M67.581,55.942c-0.104-0.594,0.055-0.663,0.11-0.78c0.061-0.116,2.516-2.022,0.072-2.932
			c-0.45-0.078-2.458-0.185-3.226,1.297c-0.287,0.485-0.127,1.01-0.139,1.458c-0.011,0.464-0.365,1.042-0.897,1.189
			c-2.926,0.624-4.005,1.821-5.06,2.569c-1.312,1.074-4.829,2.962-7.872,4.531c-2.799-1.529-5.595-3.065-6.207-3.452
			c-1.272-0.794-2.343-1.551-4.89-2.484c-0.522-0.14-0.857-0.702-0.873-1.15c-0.008-0.439,0.142-0.948-0.136-1.428
			c-0.746-1.443-2.685-1.334-3.123-1.257c-2.354,0.903,0.022,2.755,0.076,2.862c0.055,0.107,0.21,0.178,0.11,0.756
			c-0.098,0.579-2.15,0.818-1.623,1.836c0.587,1.125,2.184,1.714,2.786,1.219c0.401-0.21,0.777-0.555,1.406-0.678
			c0.631-0.126,3.743,1.503,4.109,1.706c0.147,0.078,2.81,1.534,5.962,3.292c-1.444,0.729-2.498,1.255-2.67,1.365
			c-0.564,0.372-3.423,2.237-3.857,2.23c-0.852-0.024-1.409-0.463-2.141-0.418c-1.261,0.086-3.008,1.36-3.008,2.663
			c0,1.18,2.448,0.525,2.989,1.119c0.536,0.594-0.164,1.095-0.229,1.836c-0.069,0.749,0.707,1.45,2.007,1.358
			c0.988-0.077,2.008-0.487,2.008-2.161c0-0.493-0.63-0.549-0.437-1.078c0.195-0.526,0.094-0.618,0.69-1.421
			c0.265-0.354,3.356-2.234,6.853-4.258c4.047,2.275,8.136,4.632,8.426,5.022c0.581,0.781,0.483,0.865,0.672,1.382
			c0.186,0.511-0.42,0.569-0.42,1.05c0.004,1.628,0.991,2.027,1.947,2.099c1.255,0.083,2.005-0.602,1.936-1.32
			c-0.067-0.733-0.746-1.21-0.225-1.789c0.519-0.588,2.881,0.046,2.877-1.106c-0.004-1.264-1.692-2.507-2.912-2.582
			c-0.7-0.039-1.235,0.385-2.063,0.409c-0.418,0.013-3.184-1.808-3.725-2.163c-0.218-0.136-2.033-1.127-4.22-2.317
			c3.72-2.115,7.311-4.063,8.015-4.271c1.525-0.447,3.594-1.891,4.246-1.766c0.655,0.129,1.043,0.485,1.457,0.7
			c0.631,0.503,2.28-0.107,2.884-1.264C69.809,56.775,67.678,56.535,67.581,55.942L67.581,55.942z"/>
		<path class="st3" d="M61.127,47.405h-0.012l0.008-0.109l-0.004-0.293l0.019-0.053c0.007-1.513-0.778-2.821-1.968-3.771
			c-0.525-0.432-1.193-1.098-1.193-1.885c0.078,0.818,0.85,1.151,1.454,1.597c1.069,0.88,1.821,1.888,1.944,3.26
			c3.235-11.056-6.188-12.381-9.931-12.597v-0.022c0,0-0.273-0.015-0.738-0.007c-0.464-0.008-0.738,0.007-0.738,0.007v0.022
			c-3.741,0.216-13.163,1.55-9.927,12.598c0.116-1.412,0.894-2.451,2-3.337c0.595-0.425,1.33-0.749,1.41-1.559
			c-0.008,0.84-0.759,1.518-1.3,1.973c-1.171,0.965-1.745,2.617-1.872,3.721l0.015,0.053l-0.004,0.255l0.007,0.108h-0.007
			l-0.035,2.893c0,0-1.694,2.477,0.576,3.796c0,0,0.414,1.527,1.858,1.119c0,0,4.086-2.562,3.22,0.038c0,0-0.404,0.548-0.101,1.205
			l0.407,0.23l0.136,0.456c0.271-0.517,0.417-0.603,0.534-0.603l0.273,0.496l0.215,0.439l0.568-0.534l0.219,0.05l0.155,0.083
			l0.329,0.402l0.368-0.29l0.345,0.167l0.575-0.556c0.266,0,0.522,0.201,0.776,0.61c0.252-0.409,0.508-0.61,0.778-0.61l0.683,0.502
			l0.345-0.17l0.323,0.347l0.265-0.402l0.15-0.083l0.223-0.05l0.653,0.534l0.128-0.439l0.27-0.496c0.115,0,0.375,0.095,0.641,0.612
			l0.027-0.465l0.406-0.23c0.304-0.657-0.099-1.205-0.099-1.205c-0.867-2.6,3.222-0.038,3.222-0.038
			c1.442,0.408,1.861-1.119,1.861-1.119c2.266-1.319,0.576-3.796,0.576-3.796l-0.035-2.854L61.127,47.405z M45.864,51.146
			c-1.918,0.186-5.691,0.719-3.476-4.412c0,0,1.079-1.621,2.755-0.124c0,0,3.768,0.718,3.711,2.622
			C48.854,49.233,47.781,50.969,45.864,51.146z M52.677,54.596c0,0-1.133,0.616-1.921-0.88c-0.786,1.497-1.914,0.88-1.914,0.88
			c-1.462-1.057,0.554-3.125,0.882-4.236c0.309-1.073,0.991-1.018,1.032-1.011c0.046-0.007,0.73-0.062,1.039,1.011
			C52.123,51.471,54.138,53.539,52.677,54.596L52.677,54.596z M56.241,50.93c-1.924,0.116-3.259-1.427-3.259-1.427
			c-0.349-1.875,3.265-3.171,3.265-3.171c1.425-1.728,2.736-0.301,2.736-0.301C61.967,50.767,58.157,50.814,56.241,50.93
			L56.241,50.93z"/>
		<g>
			<path class="st3" d="M46.141,57.837c0.004-0.58-0.203-0.657-0.355-0.657c0.15-0.281-0.85,1.118-0.41,1.684l0.534,0.046
				C46.075,58.432,46.14,58.086,46.141,57.837L46.141,57.837z"/>
			<path class="st3" d="M50.831,59.857c0-0.423-0.047-1.11-0.021-1.482l-0.02-0.266l0.003-0.021l0.004-0.012
				c-0.21-0.366-0.412-0.511-0.59-0.511l-0.511,0.405c-0.332,0.55-0.498,1.137-0.559,1.45l-0.021,0.106
				C49.15,59.564,49.945,60.355,50.831,59.857L50.831,59.857z"/>
			<path class="st3" d="M48.96,59.558c-0.005-0.602,0.596-1.528,0.596-1.528l0.031-0.177l-0.31-0.154l-0.751,0.547l-0.515,0.786
				c0.394-0.801,0.494-1.173,0.494-1.343l-0.082-0.139L48.4,57.56l-0.372-0.125l-0.772,0.733l-0.205,0.327l0.068-0.688l-0.013-0.323
				l-0.161-0.371c-0.166,0-0.418,0.393-0.637,0.795l-0.335,0.702l-0.062,0.124c0,0,0.29,0.417,0.91,0.332
				c0,0,0.287,0.533,0.958,0.286c0,0,0.335,0.657,1.196,0.333l-0.012-0.124L48.96,59.558z"/>
			<path class="st3" d="M52.592,59.42c-0.063-0.313-0.229-0.9-0.56-1.45l-0.507-0.405c-0.181,0-0.38,0.144-0.592,0.511l0.006,0.012
				v0.021l-0.016,0.266c0.022,0.372,0.061,1.06,0.061,1.482c0.877,0.49,1.581-0.274,1.63-0.332L52.592,59.42L52.592,59.42z"/>
			<path class="st3" d="M55.404,57.551c0,0.248,0.073,0.594,0.257,1.074L55.61,58.5l-0.327-0.7c-0.21-0.404-0.456-0.795-0.616-0.795
				l-0.156,0.372L54.498,57.7l0.063,0.687l-0.189-0.327l-0.874-0.663l-0.227,0.056l-0.018-0.009l-0.077,0.139
				c0,0.17,0.09,0.542,0.468,1.343l-0.49-0.785l-0.728-0.547l-0.297,0.154l0.036,0.176c0,0,0.571,0.927,0.571,1.529l-0.017,0.124
				c0.829,0.332,1.149-0.334,1.149-0.334c0.649,0.247,0.921-0.286,0.921-0.286c0.604,0.086,0.873-0.33,0.873-0.33l0.604-0.046
				c0.318-0.372-0.467-1.685-0.467-1.685C55.638,56.895,55.405,56.966,55.404,57.551L55.404,57.551z"/>
		</g>
	</g>
	<path class="st2" d="M27.472,53.452c0,0.512-0.115,0.999-0.347,1.46c-0.233,0.461-0.566,0.874-0.999,1.24
		c-0.433,0.365-0.962,0.672-1.587,0.918c-0.623,0.246-1.33,0.41-2.122,0.494c0.005,0.27,0.026,0.499,0.063,0.687
		c0.034,0.189,0.109,0.344,0.224,0.461c0.115,0.12,0.281,0.209,0.503,0.27c0.221,0.061,0.516,0.094,0.887,0.101v0.883h-5.626v-0.883
		c0.358-0.007,0.649-0.037,0.866-0.092c0.219-0.055,0.388-0.139,0.503-0.256c0.118-0.113,0.198-0.266,0.239-0.456
		c0.04-0.188,0.065-0.426,0.069-0.716c-0.869-0.083-1.619-0.261-2.254-0.538c-0.635-0.274-1.16-0.602-1.573-0.984
		c-0.416-0.38-0.724-0.797-0.927-1.248c-0.2-0.452-0.301-0.901-0.301-1.349c0-0.499,0.112-0.978,0.339-1.436
		c0.226-0.457,0.554-0.869,0.984-1.234c0.43-0.364,0.959-0.672,1.587-0.922c0.628-0.249,1.343-0.413,2.144-0.49
		c0-0.333-0.038-0.599-0.115-0.797c-0.078-0.199-0.186-0.352-0.33-0.461c-0.147-0.109-0.323-0.18-0.529-0.216
		c-0.207-0.035-0.44-0.055-0.703-0.062v-0.884h5.626v0.884c-0.361,0.013-0.649,0.047-0.866,0.1c-0.219,0.054-0.388,0.141-0.508,0.26
		c-0.12,0.119-0.2,0.273-0.241,0.461c-0.041,0.189-0.063,0.427-0.063,0.716c0.97,0.096,1.781,0.294,2.429,0.595
		c0.649,0.302,1.167,0.65,1.554,1.047c0.387,0.397,0.661,0.813,0.824,1.249c0.164,0.436,0.245,0.835,0.245,1.2L27.472,53.452z
		 M17.739,53.432c0,0.249,0.024,0.537,0.07,0.86c0.046,0.323,0.151,0.638,0.315,0.946c0.163,0.307,0.404,0.587,0.723,0.84
		c0.32,0.252,0.75,0.438,1.297,0.552v-6.357c-0.482,0.097-0.876,0.249-1.186,0.461c-0.31,0.212-0.556,0.46-0.735,0.745
		c-0.181,0.285-0.305,0.595-0.378,0.931c-0.07,0.336-0.107,0.676-0.107,1.023L17.739,53.432z M24.824,53.432
		c0-0.352-0.038-0.696-0.116-1.032c-0.077-0.336-0.206-0.646-0.392-0.931c-0.185-0.285-0.433-0.531-0.74-0.74
		c-0.308-0.208-0.692-0.36-1.157-0.456v6.366c0.375-0.082,0.698-0.2,0.965-0.349c0.267-0.151,0.491-0.32,0.666-0.51
		c0.178-0.188,0.318-0.389,0.422-0.601c0.103-0.211,0.183-0.423,0.233-0.633c0.053-0.211,0.084-0.413,0.099-0.605
		c0.014-0.192,0.022-0.362,0.022-0.509L24.824,53.432z"/>
	<path class="st2" d="M80.047,57.053c-0.402,0.543-0.604,0.957-0.604,1.239c0,0.191,0.052,0.34,0.158,0.445
		c0.106,0.107,0.276,0.16,0.512,0.16h2.28c0.159,0,0.327-0.008,0.508-0.025c0.18-0.016,0.361-0.058,0.539-0.124
		c0.18-0.067,0.359-0.17,0.537-0.303c0.177-0.134,0.341-0.322,0.496-0.563c0.151-0.24,0.286-0.538,0.403-0.897
		c0.118-0.359,0.213-0.795,0.282-1.307h0.769l-0.089,4.283h-9.815v-0.883c0.172-0.007,0.34-0.025,0.498-0.059
		c0.158-0.031,0.304-0.073,0.443-0.124c0.147-0.058,0.293-0.14,0.444-0.246c0.15-0.105,0.316-0.251,0.496-0.436
		c0.177-0.186,0.378-0.415,0.597-0.687c0.216-0.273,0.467-0.601,0.743-0.985l1.972-2.718l-2.675-4.13
		c-0.201-0.307-0.375-0.565-0.52-0.773c-0.144-0.208-0.264-0.366-0.355-0.475c-0.094-0.115-0.188-0.211-0.287-0.289
		c-0.098-0.077-0.211-0.141-0.338-0.192c-0.127-0.051-0.277-0.088-0.443-0.111c-0.166-0.022-0.358-0.033-0.575-0.033v-0.884h9.583
		l0.15,3.38h-0.754c-0.175-0.755-0.37-1.29-0.589-1.604c-0.115-0.167-0.228-0.296-0.344-0.389c-0.112-0.093-0.245-0.164-0.397-0.212
		c-0.149-0.048-0.324-0.078-0.522-0.091c-0.2-0.013-0.438-0.02-0.717-0.02h-1.357c-0.141,0-0.238,0.025-0.286,0.077
		c-0.051,0.052-0.075,0.122-0.075,0.211c0,0.052,0.005,0.103,0.012,0.154c0.009,0.052,0.031,0.117,0.065,0.197
		c0.037,0.081,0.086,0.18,0.151,0.298c0.067,0.119,0.156,0.264,0.272,0.438l2.094,3.227l-3.264,4.448L80.047,57.053z"/>
	<path class="st2" d="M57.907,90.894h-6.157V90.01h0.498c0.425,0,0.715-0.03,0.871-0.091c0.156-0.06,0.233-0.169,0.233-0.321
		c0-0.225-0.223-0.705-0.672-1.44l-2.379-3.947l-1.407,1.45v2.814c0,0.571,0.111,0.969,0.334,1.196
		c0.224,0.227,0.649,0.341,1.277,0.341v0.884h-5.545v-0.884c0.474,0,0.823-0.057,1.048-0.172c0.227-0.115,0.376-0.278,0.442-0.49
		c0.068-0.211,0.104-0.502,0.104-0.874v-8.182c0-0.371-0.034-0.661-0.097-0.869c-0.063-0.208-0.209-0.371-0.44-0.49
		c-0.233-0.119-0.585-0.177-1.058-0.177v-0.884h5.545v0.884c-0.683,0-1.121,0.115-1.318,0.346c-0.194,0.23-0.293,0.628-0.293,1.191
		v3.918l3.452-3.544c0.238-0.243,0.413-0.453,0.522-0.629c0.111-0.175,0.164-0.374,0.164-0.59c0-0.461-0.374-0.691-1.119-0.691
		v-0.884h5.061v0.884c-0.393,0.038-0.712,0.092-0.96,0.163c-0.249,0.071-0.49,0.186-0.724,0.346
		c-0.235,0.161-0.491,0.372-0.769,0.633c-0.276,0.263-0.717,0.701-1.315,1.315l-1.162,1.181l3.271,5.474
		c0.349,0.582,0.635,1.017,0.86,1.301c0.223,0.285,0.463,0.491,0.719,0.619c0.257,0.128,0.594,0.202,1.015,0.221L57.907,90.894
		L57.907,90.894z"/>
</g>
<g>
	<path class="st1" d="M110.139,31.904c-0.006,0.567-0.015,1.081-0.025,1.531c-0.003,0.067-0.007,0.157-0.224,0.224l-2.387,0.719
		l0.123,1.337l0.319-0.008c1.458-0.035,2.881-0.052,4.27-0.052c1.366,0,2.883,0.017,4.547,0.052l0.364,0.008l-0.063-1.346
		l-2.605-0.794c-0.19-0.06-0.209-0.141-0.212-0.219c-0.012-0.436-0.02-0.928-0.026-1.477c-0.006-0.553-0.008-1.172-0.008-1.86
		v-4.537c0.781,0.077,1.523,0.116,2.212,0.116c2.957,0,5.295-0.718,6.95-2.134c1.669-1.43,2.516-3.455,2.516-6.02
		c0-2.206-0.744-3.896-2.212-5.023c-1.441-1.106-3.573-1.667-6.339-1.667c-0.711,0-1.526,0.024-2.425,0.069
		c-2.147,0.116-4.599,0.079-7.034,0l-0.367-0.012l0.06,1.347l2.358,0.743c0.111,0.038,0.178,0.097,0.186,0.273
		c0.01,0.379,0.02,0.802,0.025,1.271c0.006,0.469,0.009,0.997,0.009,1.582v13.99C110.149,30.706,110.146,31.335,110.139,31.904
		L110.139,31.904z M114.211,23.38V12.953c0.663-0.067,1.33-0.101,1.988-0.101c1.863,0,3.234,0.431,4.078,1.281
		c0.844,0.851,1.273,2.182,1.273,3.958c0,1.855-0.452,3.241-1.34,4.121c-0.889,0.88-2.222,1.326-3.96,1.326
		C115.582,23.536,114.898,23.483,114.211,23.38L114.211,23.38z"/>
	<path class="st1" d="M129.608,33.435c-0.003,0.067-0.007,0.157-0.224,0.224l-2.387,0.719l0.123,1.337l0.319-0.008
		c2.963-0.069,5.637-0.069,8.368,0l0.374,0.009l-0.092-1.347l-2.147-0.677c-0.126-0.035-0.193-0.088-0.2-0.266
		c-0.024-0.917-0.035-2.053-0.035-3.406v-6.301h11.875v6.301c0,1.353-0.012,2.488-0.035,3.402c-0.007,0.183-0.076,0.237-0.209,0.273
		l-2.213,0.687l0.124,1.334l0.32-0.008c2.627-0.069,5.33-0.069,8.349,0l0.366,0.008l-0.064-1.346l-2.315-0.709
		c-0.218-0.067-0.222-0.157-0.225-0.215c-0.022-0.93-0.035-2.071-0.035-3.424v-13.99c0-1.145,0.012-2.096,0.035-2.849
		c0.007-0.181,0.073-0.238,0.174-0.273l2.437-0.756l-0.126-1.337l-0.319,0.01c-2.824,0.093-5.581,0.093-8.344,0l-0.369-0.012
		l0.064,1.347l2.163,0.683c0.155,0.037,0.183,0.097,0.187,0.212c0.022,0.825,0.035,1.795,0.035,2.906v5.505h-11.875V15.96
		c0-1.112,0.01-2.081,0.035-2.903c0.004-0.12,0.032-0.178,0.208-0.221l2.237-0.689l-0.155-1.335l-0.314,0.01
		c-2.637,0.092-5.413,0.095-8.343,0l-0.367-0.012l0.06,1.347l2.358,0.743c0.111,0.038,0.178,0.097,0.186,0.275
		c0.022,0.756,0.035,1.707,0.035,2.852v13.99c0,1.354-0.012,2.494-0.035,3.417H129.608z"/>
	<path class="st1" d="M157.443,31.904c-0.006,0.567-0.015,1.081-0.024,1.518c-0.01,0.116-0.048,0.187-0.225,0.237l-2.387,0.719
		l0.123,1.337l0.319-0.008c2.892-0.067,5.555-0.069,8.54,0l0.366,0.008l-0.064-1.344l-2.191-0.68
		c-0.342-0.089-0.348-0.215-0.349-0.265c-0.012-0.458-0.02-0.968-0.026-1.528c-0.006-0.563-0.008-1.189-0.008-1.878V15.96
		c0-0.562,0.003-1.081,0.008-1.556c0.007-0.475,0.015-0.913,0.025-1.299c0.012-0.141,0.057-0.197,0.206-0.234l2.406-0.719
		l-0.124-1.338l-0.32,0.009c-2.881,0.092-5.602,0.092-8.533,0l-0.367-0.012l0.06,1.347l2.358,0.743
		c0.111,0.038,0.178,0.097,0.186,0.273c0.01,0.379,0.02,0.802,0.025,1.271s0.009,0.997,0.009,1.582v13.99
		c0,0.689-0.004,1.317-0.009,1.885L157.443,31.904z"/>
	<path class="st1" d="M129.278,67.192l0.369,0.013l-0.06-1.351l-1.805-0.556c-0.468-0.135-0.85-0.325-1.135-0.563
		c-0.304-0.254-0.616-0.592-0.93-1.006l-7.677-10.122l6.709-7.382c0.424-0.47,0.834-0.886,1.211-1.237
		c0.349-0.322,0.767-0.565,1.242-0.719l2.005-0.635l-0.126-1.337l-0.322,0.012c-1.164,0.047-2.437,0.069-3.781,0.069
		c-1.402,0-2.681-0.022-3.799-0.069l-0.37-0.015l0.061,1.414l1.657,0.445c0.212,0.054,0.212,0.116,0.212,0.136
		c0,0.079-0.041,0.312-0.426,0.796c-0.332,0.417-0.765,0.927-1.3,1.528l-6.804,7.582v-6.75c0-0.562,0.003-1.084,0.008-1.565
		c0.007-0.482,0.015-0.929,0.025-1.325c0.012-0.141,0.059-0.197,0.209-0.234l2.237-0.689l-0.155-1.335l-0.314,0.01
		c-2.669,0.093-5.426,0.093-8.343,0l-0.367-0.012l0.06,1.347l2.358,0.743c0.111,0.038,0.178,0.097,0.186,0.273
		c0.01,0.379,0.02,0.802,0.025,1.271c0.006,0.469,0.009,0.997,0.009,1.582v13.99c0,0.689-0.004,1.317-0.009,1.885
		c-0.006,0.567-0.015,1.081-0.025,1.531c-0.003,0.067-0.007,0.157-0.224,0.224l-2.387,0.719l0.123,1.337l0.319-0.008
		c2.892-0.067,5.615-0.07,8.368,0l0.374,0.009l-0.092-1.347l-2.136-0.674c-0.151-0.048-0.206-0.12-0.212-0.27
		c-0.012-0.458-0.02-0.968-0.026-1.528c-0.006-0.563-0.008-1.189-0.008-1.878v-6.494l5.546,7.354
		c1.704,2.264,2.766,3.817,3.156,4.619l0.096,0.199l0.221-0.007c0.401-0.012,0.802-0.02,1.201-0.026
		c0.401-0.006,0.796-0.008,1.186-0.008c1.473,0,2.704,0.017,3.661,0.052V67.192z"/>
	<path class="st1" d="M144.691,41.91l-2.241,0.326l-8.889,21.223c-0.243,0.582-0.462,1.012-0.654,1.278
		c-0.161,0.225-0.427,0.397-0.788,0.51l-2.013,0.619l0.153,1.333l0.313-0.008c1.273-0.035,2.426-0.052,3.458-0.052
		s2.365,0.017,3.996,0.052l0.364,0.008l-0.061-1.385l-1.833-0.531c-0.215-0.067-0.317-0.135-0.367-0.18
		c-0.041-0.037-0.05-0.121-0.05-0.186c0-0.121,0.032-0.355,0.186-0.78c0.139-0.379,0.328-0.889,0.567-1.527l1.726-4.39h7.841
		l1.54,4.395c0.218,0.617,0.386,1.112,0.506,1.485c0.11,0.337,0.165,0.606,0.165,0.8c0,0.126-0.025,0.194-0.048,0.217
		c-0.028,0.028-0.117,0.101-0.345,0.18l-1.908,0.563l0.124,1.337l0.317-0.007c1.78-0.035,3.323-0.052,4.634-0.052
		c1.285,0,2.679,0.017,4.183,0.052l0.366,0.008l-0.064-1.347l-1.849-0.551c-0.373-0.118-0.659-0.294-0.851-0.525
		c-0.142-0.169-0.385-0.57-0.724-1.508l-7.658-21.097L144.691,41.91L144.691,41.91z M145.588,55.969h-6.125l3.226-8.191
		L145.588,55.969L145.588,55.969z"/>
	<path class="st1" d="M157.855,42.308l-0.367-0.012l0.06,1.347l2.358,0.743c0.111,0.038,0.178,0.097,0.186,0.273
		c0.01,0.379,0.02,0.802,0.025,1.271s0.009,0.997,0.009,1.582v13.99c0,0.689-0.004,1.317-0.009,1.885
		c-0.006,0.567-0.015,1.081-0.025,1.531c-0.003,0.067-0.007,0.157-0.224,0.224l-2.387,0.719l0.123,1.337l0.319-0.008
		c1.458-0.035,2.881-0.052,4.27-0.052c1.366,0,2.883,0.017,4.547,0.052l0.364,0.008l-0.063-1.346l-2.605-0.794
		c-0.19-0.06-0.209-0.141-0.212-0.219c-0.012-0.436-0.02-0.928-0.026-1.477c-0.006-0.553-0.008-1.172-0.008-1.86v-4.537
		c0.781,0.077,1.523,0.116,2.212,0.116c2.957,0,5.295-0.718,6.95-2.134c1.669-1.43,2.516-3.455,2.516-6.02
		c0-2.206-0.744-3.896-2.212-5.023c-1.441-1.106-3.573-1.667-6.339-1.667c-0.711,0-1.526,0.024-2.425,0.069
		C162.741,42.423,160.291,42.384,157.855,42.308L157.855,42.308z M164.188,54.865V44.438c0.663-0.067,1.33-0.101,1.988-0.101
		c1.863,0,3.234,0.431,4.078,1.281c0.844,0.851,1.273,2.182,1.273,3.958c0,1.855-0.452,3.241-1.34,4.121
		c-0.889,0.88-2.222,1.326-3.96,1.326C165.559,55.021,164.874,54.968,164.188,54.865L164.188,54.865z"/>
	<path class="st1" d="M179.61,63.389c-0.006,0.567-0.015,1.081-0.025,1.531c-0.003,0.067-0.007,0.157-0.224,0.224l-2.387,0.719
		l0.123,1.337l0.319-0.008c1.458-0.035,2.881-0.052,4.27-0.052c1.366,0,2.883,0.017,4.547,0.052l0.364,0.008l-0.063-1.346
		l-2.605-0.794c-0.19-0.06-0.209-0.141-0.212-0.219c-0.012-0.436-0.02-0.928-0.026-1.477c-0.006-0.553-0.008-1.172-0.008-1.86
		v-4.537c0.781,0.077,1.523,0.116,2.212,0.116c2.957,0,5.295-0.718,6.95-2.134c1.669-1.43,2.516-3.455,2.516-6.02
		c0-2.206-0.744-3.896-2.212-5.023c-1.441-1.106-3.573-1.667-6.339-1.667c-0.711,0-1.526,0.024-2.425,0.069
		c-2.149,0.116-4.597,0.077-7.034,0l-0.367-0.012l0.06,1.347l2.358,0.743c0.111,0.038,0.178,0.097,0.186,0.273
		c0.01,0.379,0.02,0.802,0.025,1.271s0.009,0.997,0.009,1.582v13.99C179.621,62.191,179.617,62.82,179.61,63.389L179.61,63.389z
		 M183.682,54.865V44.438c0.663-0.067,1.33-0.101,1.988-0.101c1.863,0,3.234,0.431,4.078,1.281c0.844,0.851,1.273,2.182,1.273,3.958
		c0,1.855-0.452,3.241-1.34,4.121c-0.889,0.88-2.222,1.326-3.96,1.326C185.054,55.021,184.369,54.968,183.682,54.865L183.682,54.865
		z"/>
	<path class="st1" d="M217.839,65.852l-1.849-0.551c-0.373-0.118-0.659-0.294-0.851-0.525c-0.142-0.169-0.385-0.57-0.724-1.508
		l-7.658-21.097l-0.096-0.261l-2.241,0.326l-8.889,21.223c-0.243,0.582-0.462,1.012-0.654,1.278
		c-0.161,0.225-0.427,0.397-0.788,0.51l-2.013,0.619l0.153,1.333l0.313-0.008c1.273-0.035,2.426-0.052,3.458-0.052
		s2.365,0.017,3.996,0.052l0.364,0.008l-0.061-1.385l-1.833-0.531c-0.215-0.067-0.317-0.135-0.367-0.18
		c-0.041-0.037-0.05-0.121-0.05-0.186c0-0.121,0.032-0.355,0.186-0.78c0.139-0.379,0.328-0.889,0.567-1.527l1.726-4.39h7.841
		l1.54,4.395c0.218,0.617,0.386,1.112,0.506,1.485c0.11,0.337,0.165,0.606,0.165,0.8c0,0.126-0.025,0.194-0.048,0.217
		c-0.028,0.028-0.117,0.101-0.345,0.18l-1.908,0.563l0.124,1.337l0.317-0.007c1.78-0.035,3.323-0.052,4.634-0.052
		c1.285,0,2.679,0.017,4.183,0.052l0.366,0.008L217.839,65.852L217.839,65.852z M207.558,55.969h-6.125l3.226-8.191L207.558,55.969
		L207.558,55.969z"/>
	<path class="st1" d="M121.207,87.044c-0.623-0.532-1.328-1.002-2.092-1.397c-0.756-0.389-1.54-0.76-2.329-1.103
		c-0.721-0.32-1.418-0.646-2.093-0.977c-0.651-0.319-1.242-0.689-1.758-1.097c-0.499-0.398-0.9-0.864-1.192-1.385
		c-0.287-0.509-0.431-1.113-0.431-1.798c0-1.211,0.402-2.129,1.229-2.803c1.375-1.121,3.655-1.391,6.463-0.498l1.153,4.419
		l1.232-0.217l1.093-5.795l-0.316-0.322l-0.1-0.022c-2.005-0.436-3.951-0.655-5.782-0.655c-2.637,0-4.792,0.597-6.403,1.774
		c-1.643,1.201-2.476,2.918-2.476,5.105c0,1.081,0.197,2.045,0.585,2.864c0.388,0.816,0.912,1.514,1.559,2.076
		c0.632,0.55,1.347,1.037,2.125,1.45c0.756,0.402,1.555,0.784,2.365,1.131c0.709,0.32,1.398,0.645,2.061,0.971
		c0.641,0.314,1.221,0.671,1.727,1.06c0.483,0.372,0.873,0.82,1.161,1.335c0.279,0.503,0.423,1.101,0.423,1.775
		c0,1.305-0.429,2.279-1.31,2.976c-0.894,0.707-2.172,1.065-3.799,1.065c-1.17,0-2.331-0.215-3.453-0.639l-1.241-5.029l-1.333,0.208
		l-0.903,6.256l0.26,0.342l0.111,0.031c2.235,0.627,4.31,0.945,6.164,0.945c2.903,0,5.214-0.632,6.872-1.878
		c1.687-1.269,2.542-3.124,2.542-5.514c0-1.014-0.194-1.917-0.579-2.685C122.359,88.251,121.844,87.589,121.207,87.044
		L121.207,87.044z"/>
	<path class="st1" d="M131.881,77.373c0.007-0.475,0.015-0.913,0.025-1.299c0.012-0.141,0.057-0.197,0.206-0.234l2.406-0.719
		l-0.124-1.338l-0.32,0.009c-2.881,0.092-5.602,0.093-8.533,0l-0.367-0.012l0.06,1.347l2.358,0.743
		c0.111,0.038,0.178,0.097,0.186,0.273c0.01,0.379,0.02,0.802,0.025,1.271c0.006,0.469,0.009,0.997,0.009,1.582v13.99
		c0,0.689-0.004,1.317-0.009,1.885c-0.006,0.567-0.015,1.081-0.024,1.518c-0.01,0.116-0.048,0.187-0.225,0.237l-2.387,0.719
		l0.123,1.337l0.319-0.008c2.892-0.067,5.555-0.07,8.54,0l0.366,0.008l-0.064-1.344l-2.191-0.68
		c-0.342-0.089-0.348-0.215-0.349-0.265c-0.012-0.458-0.02-0.968-0.026-1.528c-0.006-0.563-0.008-1.189-0.008-1.878V78.928
		c0-0.562,0.003-1.081,0.008-1.556L131.881,77.373z"/>
	<path class="st1" d="M158.57,87.317c-2.551,0.069-5.255,0.069-8.246,0l-0.366-0.008l0.064,1.344l2.369,0.744
		c0.107,0.032,0.167,0.084,0.173,0.253c0.01,0.389,0.02,0.818,0.025,1.287c0.006,0.469,0.009,0.992,0.009,1.566v4.34
		c-0.854,0.202-1.731,0.304-2.609,0.304c-2.861,0-5.165-0.99-6.848-2.943c-1.697-1.967-2.557-4.67-2.557-8.031
		c0-3.33,0.785-5.97,2.336-7.848c2.172-2.623,5.684-3.428,10.136-2.308l1.217,4.62l1.232-0.186l1.144-5.956l-0.269-0.358
		l-0.121-0.028c-2.052-0.475-4.04-0.717-5.908-0.717c-4.358,0-7.847,1.195-10.367,3.551c-2.526,2.361-3.807,5.663-3.807,9.813
		c0,3.913,1.242,7.01,3.692,9.207c2.44,2.187,5.757,3.294,9.861,3.294c1.985,0,4.189-0.288,6.548-0.854l0.107-0.025l0.259-0.301
		v-5.647c0-0.55,0.003-1.064,0.008-1.539c0.006-0.475,0.015-0.943,0.025-1.381c0.009-0.11,0.048-0.186,0.203-0.237l2.157-0.632
		l-0.156-1.337l-0.312,0.008L158.57,87.317z"/>
	<path class="st1" d="M186.97,76.149c0.007-0.18,0.073-0.238,0.174-0.273l2.438-0.756l-0.124-1.337l-0.32,0.01
		c-1.434,0.047-2.574,0.069-3.422,0.069c-0.876,0-1.858-0.022-2.918-0.069l-0.237-0.009l-7.765,18.397l-7.781-18.397l-0.237,0.009
		c-1.049,0.047-2.084,0.069-3.073,0.069c-0.859,0-2.027-0.022-3.507-0.069l-0.369-0.012l0.064,1.347l2.355,0.743
		c0.111,0.038,0.178,0.096,0.186,0.275c0.022,0.756,0.035,1.707,0.035,2.852v13.99c0,1.354-0.012,2.494-0.035,3.417
		c-0.003,0.067-0.007,0.157-0.224,0.224l-2.387,0.719l0.124,1.335l0.319-0.007c1.479-0.035,2.668-0.052,3.562-0.052
		c0.917,0,2.058,0.017,3.424,0.052l0.366,0.009l-0.064-1.346l-2.169-0.679c-0.124-0.034-0.192-0.089-0.199-0.284
		c-0.024-0.905-0.035-2.036-0.035-3.389V79.731l8.05,19.055l1.711-0.187l7.979-18.869v13.256c0,1.353-0.01,2.483-0.035,3.387
		c-0.007,0.217-0.091,0.26-0.189,0.288l-2.249,0.686l0.124,1.335l0.32-0.008c2.659-0.069,5.345-0.067,8.349,0l0.366,0.008
		l-0.064-1.346l-2.302-0.709c-0.233-0.069-0.237-0.162-0.24-0.215c-0.022-0.93-0.034-2.071-0.034-3.424v-13.99
		c0-1.145,0.01-2.096,0.034-2.849L186.97,76.149z"/>
	<path class="st1" d="M214.686,96.785c-0.373-0.118-0.659-0.294-0.851-0.525c-0.142-0.169-0.385-0.57-0.724-1.508l-7.658-21.097
		l-0.096-0.261l-2.241,0.326l-8.889,21.223c-0.243,0.582-0.462,1.012-0.654,1.278c-0.161,0.225-0.427,0.397-0.788,0.51l-2.013,0.619
		l0.153,1.333l0.313-0.008c1.273-0.035,2.426-0.052,3.458-0.052c1.032,0,2.365,0.017,3.996,0.052l0.364,0.008l-0.061-1.385
		l-1.833-0.531c-0.215-0.067-0.317-0.135-0.367-0.18c-0.041-0.037-0.05-0.121-0.05-0.186c0-0.121,0.032-0.355,0.186-0.78
		c0.139-0.379,0.328-0.889,0.567-1.527l1.726-4.39h7.841l1.54,4.395c0.218,0.617,0.386,1.112,0.506,1.485
		c0.11,0.337,0.165,0.606,0.165,0.8c0,0.126-0.025,0.194-0.048,0.217c-0.028,0.028-0.117,0.101-0.345,0.18l-1.909,0.563l0.124,1.337
		l0.317-0.007c1.78-0.035,3.323-0.052,4.634-0.052c1.285,0,2.679,0.017,4.183,0.052l0.366,0.008l-0.064-1.347L214.686,96.785
		L214.686,96.785z M206.253,87.454h-6.125l3.226-8.191L206.253,87.454L206.253,87.454z"/>
</g>
</svg>
