<?xml version="1.0" encoding="UTF-8"?>
<svg id="Layer_1" data-name="Layer 1" xmlns="http://www.w3.org/2000/svg" width="3.125in" height="1.528in" viewBox="0 0 225 110">
  <g>
    <path d="M30.547,39.649v-.225c0-3.834-1.22-7.024-3.53-9.227-2.618-2.497-6.536-3.817-11.33-3.817H0v39.698H8.896v-12.937h5.098l7.611,12.937h10.186l-8.843-14.711c3.508-1.526,7.598-4.79,7.598-11.719m-8.953,.169v.056c0,3.595-2.451,5.743-6.556,5.743h-6.142v-11.543h5.965c4.404,0,6.733,1.986,6.733,5.744Zm134.534-13.663l-14.93,39.923h8.978l3.008-8.549h13.975l3.068,8.549h9.212l-14.929-39.923h-8.381Zm8.32,23.85h-8.553l4.304-12.153,4.249,12.153Zm40.966-4.226l11.9-19.399h-9.899l-7.034,12.583-6.92-12.583h-10.131l11.778,19.511-12.312,20.187h9.897l7.508-13.317,7.45,13.317h10.132l-12.371-20.299ZM48.86,58.387v-8.451h15.929v-7.694h-15.929v-8.169h18.112v-7.693h-26.948v39.698h16.717l4.061-7.692h-11.942ZM125.094,26.38l-8.985,12.864-9.103-12.864h-.102l-9.135,17.303v22.395h8.659v-24.581l9.357,12.183,.049,.081h.375l9.465-12.376v24.694h8.719V26.38h-9.299Z" fill="#dc1d2e"/>
    <polygon points="86.819 26.38 65.863 66.079 76.666 66.079 97.627 26.38 86.819 26.38" fill="#004e9b"/>
    <path d="M222.07,25.014c1.633,0,2.93,1.298,2.93,2.92,0,1.648-1.297,2.933-2.943,2.933-1.631,0-2.956-1.285-2.956-2.933,0-1.622,1.325-2.92,2.956-2.92h.013Zm-.013,.454c-1.313,0-2.386,1.105-2.386,2.466,0,1.388,1.072,2.48,2.398,2.48,1.326,.01,2.387-1.092,2.387-2.468s-1.06-2.478-2.387-2.478h-.013Zm-.558,4.166h-.528v-3.258c.276-.041,.541-.078,.939-.078,.504,0,.836,.105,1.035,.247,.199,.142,.306,.361,.306,.672,0,.43-.29,.691-.65,.793v.027c.293,.052,.49,.309,.556,.792,.081,.505,.159,.702,.212,.805h-.558c-.078-.102-.158-.403-.225-.831-.079-.416-.29-.57-.715-.57h-.372v1.402Zm0-1.804h.384c.439,0,.81-.156,.81-.556,0-.288-.211-.572-.81-.572-.171,0-.29,.014-.384,.026v1.103Z" fill="#dc1d2e"/>
  </g>
  <g>
    <path d="M35.66,76.43h3.971c.648,0,1.197,.08,1.645,.24s.812,.384,1.092,.672c.496,.48,.744,1.133,.744,1.956v.024c0,.647-.156,1.184-.469,1.607-.311,.425-.73,.748-1.26,.973l2.004,2.928h-2.688l-1.691-2.544h-1.02v2.544h-2.328v-8.4Zm3.863,4.032c.4,0,.709-.09,.924-.27,.217-.181,.324-.422,.324-.727v-.023c0-.336-.111-.586-.336-.75s-.531-.246-.924-.246h-1.523v2.016h1.535Z" fill="#004e9b"/>
    <path d="M47.414,84.986c-.512,0-.98-.082-1.404-.246s-.789-.392-1.098-.685c-.309-.292-.547-.646-.719-1.062-.174-.416-.26-.876-.26-1.38v-.024c0-.472,.08-.914,.24-1.326,.16-.411,.387-.771,.678-1.08,.293-.308,.639-.55,1.039-.726s.84-.264,1.32-.264c.559,0,1.045,.096,1.457,.288,.412,.191,.752,.449,1.02,.773,.27,.324,.469,.7,.602,1.128,.131,.429,.197,.882,.197,1.362v.228c0,.08-.004,.16-.012,.24h-4.344c.088,.36,.254,.628,.498,.805,.244,.176,.545,.264,.906,.264,.271,0,.521-.052,.75-.156,.227-.104,.457-.271,.689-.504l1.26,1.044c-.312,.4-.697,.72-1.158,.96-.459,.24-1.014,.36-1.662,.36Zm.936-3.937c-.039-.359-.16-.646-.359-.857s-.455-.318-.768-.318c-.305,0-.553,.106-.744,.318s-.32,.498-.385,.857h2.256Z" fill="#004e9b"/>
    <path d="M53.318,84.974c-.312,0-.6-.044-.863-.132-.266-.088-.494-.216-.691-.384-.195-.168-.35-.376-.461-.624-.113-.248-.168-.536-.168-.864v-.023c0-.336,.061-.632,.186-.889,.123-.256,.295-.468,.516-.636s.486-.296,.799-.384c.311-.088,.66-.132,1.043-.132,.305,0,.594,.026,.871,.078,.275,.052,.506,.109,.689,.174v-.108c0-.336-.105-.596-.318-.779-.211-.185-.537-.276-.979-.276-.344,0-.656,.032-.936,.096-.279,.064-.564,.152-.852,.265l-.469-1.608c.369-.152,.758-.274,1.17-.366s.898-.138,1.459-.138c.584,0,1.078,.068,1.482,.204,.402,.136,.732,.332,.99,.588,.246,.24,.426,.53,.533,.87s.162,.737,.162,1.193v3.732h-2.256v-.672c-.225,.248-.49,.446-.799,.594-.307,.148-.678,.222-1.109,.222Zm.816-1.428c.336,0,.607-.096,.814-.288,.209-.191,.312-.451,.312-.779v-.301c-.111-.048-.246-.088-.402-.12-.154-.031-.316-.048-.484-.048-.336,0-.596,.074-.775,.223-.18,.147-.27,.342-.27,.582v.023c0,.225,.076,.398,.229,.522s.344,.186,.576,.186Z" fill="#004e9b"/>
    <path d="M58.828,76.07h2.291v8.76h-2.291v-8.76Z" fill="#004e9b"/>
    <path d="M65.836,76.43h6.744v1.98h-4.453v1.271h4.033v1.837h-4.033v1.331h4.512v1.98h-6.803v-8.4Z" fill="#004e9b"/>
    <path d="M76.498,84.974c-.553,0-1.09-.077-1.609-.233s-1.008-.398-1.463-.727l.852-1.38c.375,.248,.758,.435,1.146,.559,.387,.124,.75,.186,1.086,.186,.383,0,.576-.116,.576-.348v-.024c0-.128-.09-.228-.266-.3s-.436-.156-.779-.252c-.32-.08-.619-.174-.9-.282-.279-.107-.523-.24-.732-.396-.207-.156-.371-.347-.49-.57-.121-.224-.182-.5-.182-.828v-.023c0-.345,.066-.65,.199-.918,.131-.269,.314-.492,.545-.673,.232-.18,.506-.317,.822-.414,.316-.096,.662-.144,1.039-.144,.479,0,.951,.066,1.416,.198,.463,.132,.883,.317,1.26,.558l-.781,1.44c-.336-.185-.676-.33-1.02-.438-.344-.107-.645-.162-.9-.162-.176,0-.307,.03-.395,.09-.088,.061-.133,.135-.133,.223v.023c0,.129,.09,.23,.27,.307s.443,.166,.787,.27c.32,.088,.619,.187,.9,.294,.279,.108,.523,.24,.73,.396,.209,.156,.373,.346,.492,.569,.121,.225,.18,.492,.18,.805v.023c0,.36-.062,.675-.191,.942-.127,.268-.309,.494-.539,.678-.232,.185-.514,.322-.84,.414-.328,.092-.689,.138-1.08,.138Z" fill="#004e9b"/>
    <path d="M82.711,84.962c-.691,0-1.23-.164-1.615-.492-.387-.327-.58-.88-.58-1.655v-2.641h-.768v-1.836h.768v-1.644h2.293v1.644h1.512v1.836h-1.512v2.196c0,.232,.051,.398,.156,.498,.104,.1,.26,.15,.467,.15,.152,0,.301-.021,.445-.061,.143-.04,.283-.092,.42-.156v1.788c-.209,.112-.445,.202-.709,.271-.264,.067-.557,.102-.877,.102Z" fill="#004e9b"/>
    <path d="M87.266,84.974c-.311,0-.6-.044-.863-.132s-.494-.216-.689-.384c-.197-.168-.35-.376-.463-.624-.111-.248-.168-.536-.168-.864v-.023c0-.336,.062-.632,.186-.889,.125-.256,.297-.468,.518-.636,.219-.168,.484-.296,.797-.384s.66-.132,1.045-.132c.303,0,.594,.026,.869,.078s.506,.109,.689,.174v-.108c0-.336-.105-.596-.316-.779-.213-.185-.539-.276-.979-.276-.344,0-.656,.032-.936,.096-.281,.064-.564,.152-.854,.265l-.467-1.608c.367-.152,.758-.274,1.17-.366s.898-.138,1.457-.138c.584,0,1.078,.068,1.482,.204s.734,.332,.99,.588c.248,.24,.426,.53,.533,.87,.109,.34,.162,.737,.162,1.193v3.732h-2.256v-.672c-.223,.248-.49,.446-.797,.594-.309,.148-.678,.222-1.111,.222Zm.816-1.428c.336,0,.607-.096,.816-.288,.207-.191,.312-.451,.312-.779v-.301c-.113-.048-.246-.088-.402-.12-.156-.031-.318-.048-.486-.048-.336,0-.594,.074-.773,.223-.18,.147-.27,.342-.27,.582v.023c0,.225,.074,.398,.227,.522s.344,.186,.576,.186Z" fill="#004e9b"/>
    <path d="M95.227,84.962c-.691,0-1.23-.164-1.615-.492-.387-.327-.58-.88-.58-1.655v-2.641h-.768v-1.836h.768v-1.644h2.293v1.644h1.512v1.836h-1.512v2.196c0,.232,.051,.398,.156,.498,.104,.1,.26,.15,.467,.15,.152,0,.301-.021,.445-.061,.143-.04,.283-.092,.42-.156v1.788c-.209,.112-.445,.202-.709,.271-.264,.067-.557,.102-.877,.102Z" fill="#004e9b"/>
    <path d="M101.08,84.986c-.512,0-.98-.082-1.404-.246s-.791-.392-1.098-.685c-.309-.292-.549-.646-.721-1.062s-.258-.876-.258-1.38v-.024c0-.472,.08-.914,.24-1.326,.16-.411,.385-.771,.678-1.08,.291-.308,.639-.55,1.037-.726,.4-.176,.84-.264,1.32-.264,.561,0,1.047,.096,1.459,.288,.412,.191,.752,.449,1.02,.773s.469,.7,.6,1.128c.133,.429,.199,.882,.199,1.362v.228c0,.08-.006,.16-.014,.24h-4.344c.088,.36,.254,.628,.498,.805,.244,.176,.547,.264,.906,.264,.271,0,.521-.052,.75-.156,.229-.104,.459-.271,.689-.504l1.262,1.044c-.312,.4-.699,.72-1.158,.96-.461,.24-1.016,.36-1.662,.36Zm.936-3.937c-.041-.359-.16-.646-.359-.857-.201-.212-.457-.318-.77-.318-.303,0-.551,.106-.744,.318-.191,.212-.318,.498-.383,.857h2.256Z" fill="#004e9b"/>
    <path d="M108.58,76.43h3.6c.527,0,1.008,.066,1.439,.198s.801,.324,1.104,.576c.305,.252,.539,.562,.703,.93,.164,.368,.246,.784,.246,1.248v.024c0,.496-.09,.932-.27,1.308-.182,.376-.432,.692-.75,.948-.32,.256-.703,.448-1.146,.576-.445,.128-.926,.191-1.447,.191h-1.15v2.4h-2.328v-8.4Zm3.432,4.177c.416,0,.742-.099,.979-.296,.234-.197,.354-.465,.354-.803v-.023c0-.362-.119-.638-.354-.827-.236-.188-.566-.283-.99-.283h-1.092v2.232h1.104Z" fill="#004e9b"/>
    <path d="M116.539,78.338h2.291v1.309c.184-.44,.436-.792,.756-1.057,.32-.264,.752-.384,1.297-.359v2.399h-.193c-.6,0-1.059,.176-1.379,.528-.32,.352-.48,.904-.48,1.656v2.016h-2.291v-6.492Z" fill="#004e9b"/>
    <path d="M125.023,84.986c-.52,0-.998-.088-1.434-.265-.436-.176-.814-.418-1.133-.726-.32-.308-.568-.666-.744-1.074-.178-.408-.266-.844-.266-1.308v-.024c0-.464,.092-.901,.271-1.313s.43-.772,.75-1.08c.318-.308,.699-.552,1.139-.732,.441-.18,.92-.27,1.441-.27s.998,.09,1.434,.27c.436,.181,.814,.422,1.133,.727,.32,.304,.568,.659,.744,1.067s.266,.845,.266,1.309v.023c0,.464-.092,.902-.271,1.314s-.43,.771-.75,1.08c-.32,.308-.699,.552-1.139,.731-.441,.181-.92,.271-1.441,.271Zm.025-1.944c.207,0,.395-.038,.562-.113s.311-.178,.428-.309c.115-.132,.205-.284,.27-.459,.062-.174,.096-.356,.096-.547v-.024c0-.198-.035-.385-.102-.559-.068-.175-.164-.328-.289-.459-.123-.131-.27-.235-.438-.315-.168-.079-.352-.119-.553-.119-.207,0-.395,.038-.562,.113s-.311,.179-.428,.31c-.115,.131-.205,.284-.27,.458-.064,.175-.096,.357-.096,.548v.023c0,.198,.033,.385,.102,.56s.164,.327,.289,.458c.123,.131,.27,.236,.438,.315,.168,.08,.352,.119,.553,.119Z" fill="#004e9b"/>
    <path d="M129.936,80.162h-.756v-1.788h.756v-.144c0-.752,.184-1.312,.553-1.681,.199-.199,.436-.344,.707-.432s.6-.132,.984-.132c.352,0,.643,.016,.869,.048,.229,.032,.436,.076,.619,.132v1.608c-.137-.04-.273-.072-.408-.097-.137-.023-.285-.036-.443-.036-.434,0-.648,.204-.648,.612v.156h1.488v1.752h-1.453v4.668h-2.268v-4.668Z" fill="#004e9b"/>
    <path d="M137.611,84.986c-.512,0-.98-.082-1.404-.246s-.791-.392-1.098-.685c-.309-.292-.549-.646-.721-1.062s-.258-.876-.258-1.38v-.024c0-.472,.08-.914,.24-1.326,.16-.411,.385-.771,.678-1.08,.291-.308,.639-.55,1.037-.726,.4-.176,.84-.264,1.32-.264,.561,0,1.047,.096,1.459,.288,.412,.191,.752,.449,1.02,.773s.469,.7,.6,1.128c.133,.429,.199,.882,.199,1.362v.228c0,.08-.006,.16-.014,.24h-4.344c.088,.36,.254,.628,.498,.805,.244,.176,.547,.264,.906,.264,.271,0,.521-.052,.75-.156,.229-.104,.459-.271,.689-.504l1.262,1.044c-.312,.4-.699,.72-1.158,.96-.461,.24-1.016,.36-1.662,.36Zm.936-3.937c-.041-.359-.16-.646-.359-.857-.201-.212-.457-.318-.77-.318-.303,0-.551,.106-.744,.318-.191,.212-.318,.498-.383,.857h2.256Z" fill="#004e9b"/>
    <path d="M144.277,84.974c-.553,0-1.088-.077-1.607-.233-.521-.156-1.008-.398-1.465-.727l.852-1.38c.377,.248,.758,.435,1.146,.559s.75,.186,1.086,.186c.385,0,.576-.116,.576-.348v-.024c0-.128-.088-.228-.264-.3s-.436-.156-.779-.252c-.32-.08-.621-.174-.9-.282-.281-.107-.525-.24-.732-.396-.209-.156-.371-.347-.492-.57-.119-.224-.18-.5-.18-.828v-.023c0-.345,.066-.65,.197-.918,.133-.269,.314-.492,.547-.673,.232-.18,.506-.317,.822-.414,.314-.096,.662-.144,1.037-.144,.48,0,.953,.066,1.416,.198,.465,.132,.885,.317,1.26,.558l-.779,1.44c-.336-.185-.676-.33-1.02-.438-.344-.107-.645-.162-.9-.162-.176,0-.309,.03-.396,.09-.088,.061-.131,.135-.131,.223v.023c0,.129,.09,.23,.27,.307s.441,.166,.785,.27c.32,.088,.621,.187,.9,.294,.279,.108,.523,.24,.732,.396,.207,.156,.371,.346,.492,.569,.119,.225,.18,.492,.18,.805v.023c0,.36-.064,.675-.191,.942-.129,.268-.309,.494-.541,.678-.232,.185-.512,.322-.84,.414s-.688,.138-1.08,.138Z" fill="#004e9b"/>
    <path d="M150.508,84.974c-.553,0-1.09-.077-1.609-.233s-1.008-.398-1.463-.727l.852-1.38c.375,.248,.758,.435,1.146,.559,.387,.124,.75,.186,1.086,.186,.383,0,.576-.116,.576-.348v-.024c0-.128-.09-.228-.266-.3s-.436-.156-.779-.252c-.32-.08-.619-.174-.9-.282-.279-.107-.523-.24-.732-.396-.207-.156-.371-.347-.49-.57-.121-.224-.182-.5-.182-.828v-.023c0-.345,.066-.65,.199-.918,.131-.269,.314-.492,.545-.673,.232-.18,.506-.317,.822-.414,.316-.096,.662-.144,1.039-.144,.479,0,.951,.066,1.416,.198,.463,.132,.883,.317,1.26,.558l-.781,1.44c-.336-.185-.676-.33-1.02-.438-.344-.107-.645-.162-.9-.162-.176,0-.307,.03-.395,.09-.088,.061-.133,.135-.133,.223v.023c0,.129,.09,.23,.27,.307s.443,.166,.787,.27c.32,.088,.619,.187,.9,.294,.279,.108,.523,.24,.73,.396,.209,.156,.373,.346,.492,.569,.121,.225,.18,.492,.18,.805v.023c0,.36-.062,.675-.191,.942-.127,.268-.309,.494-.539,.678-.232,.185-.514,.322-.84,.414-.328,.092-.689,.138-1.08,.138Z" fill="#004e9b"/>
    <path d="M154.188,76.07h2.387v1.68h-2.387v-1.68Zm.047,2.268h2.293v6.492h-2.293v-6.492Z" fill="#004e9b"/>
    <path d="M161.133,84.986c-.52,0-.998-.088-1.434-.265-.436-.176-.814-.418-1.133-.726-.32-.308-.568-.666-.744-1.074-.178-.408-.266-.844-.266-1.308v-.024c0-.464,.092-.901,.271-1.313s.43-.772,.75-1.08c.318-.308,.699-.552,1.139-.732,.441-.18,.92-.27,1.441-.27s.998,.09,1.434,.27c.436,.181,.814,.422,1.133,.727,.32,.304,.568,.659,.744,1.067s.266,.845,.266,1.309v.023c0,.464-.092,.902-.271,1.314s-.43,.771-.75,1.08c-.32,.308-.699,.552-1.139,.731-.441,.181-.92,.271-1.441,.271Zm.025-1.944c.207,0,.395-.038,.562-.113s.311-.178,.428-.309c.115-.132,.205-.284,.27-.459,.062-.174,.096-.356,.096-.547v-.024c0-.198-.035-.385-.102-.559-.068-.175-.164-.328-.289-.459-.123-.131-.27-.235-.438-.315-.168-.079-.352-.119-.553-.119-.207,0-.395,.038-.562,.113s-.311,.179-.428,.31c-.115,.131-.205,.284-.27,.458-.064,.175-.096,.357-.096,.548v.023c0,.198,.033,.385,.102,.56s.164,.327,.289,.458c.123,.131,.27,.236,.438,.315,.168,.08,.352,.119,.553,.119Z" fill="#004e9b"/>
    <path d="M165.773,78.338h2.293v.912c.102-.136,.217-.268,.344-.396,.125-.128,.268-.24,.426-.336,.158-.097,.332-.175,.521-.234,.189-.061,.398-.09,.629-.09,.699,0,1.244,.212,1.635,.636,.389,.424,.584,1.008,.584,1.752v4.248h-2.291v-3.516c0-.36-.084-.632-.25-.816-.166-.184-.383-.276-.65-.276-.277,0-.504,.093-.682,.276-.178,.185-.266,.456-.266,.816v3.516h-2.293v-6.492Z" fill="#004e9b"/>
    <path d="M175.348,84.974c-.311,0-.6-.044-.863-.132s-.494-.216-.689-.384c-.197-.168-.35-.376-.463-.624-.111-.248-.168-.536-.168-.864v-.023c0-.336,.062-.632,.186-.889,.125-.256,.297-.468,.518-.636,.219-.168,.484-.296,.797-.384s.66-.132,1.045-.132c.303,0,.594,.026,.869,.078s.506,.109,.689,.174v-.108c0-.336-.105-.596-.316-.779-.213-.185-.539-.276-.979-.276-.344,0-.656,.032-.936,.096-.281,.064-.564,.152-.854,.265l-.467-1.608c.367-.152,.758-.274,1.17-.366s.898-.138,1.457-.138c.584,0,1.078,.068,1.482,.204s.734,.332,.99,.588c.248,.24,.426,.53,.533,.87,.109,.34,.162,.737,.162,1.193v3.732h-2.256v-.672c-.223,.248-.49,.446-.797,.594-.309,.148-.678,.222-1.111,.222Zm.816-1.428c.336,0,.607-.096,.816-.288,.207-.191,.312-.451,.312-.779v-.301c-.113-.048-.246-.088-.402-.12-.156-.031-.318-.048-.486-.048-.336,0-.594,.074-.773,.223-.18,.147-.27,.342-.27,.582v.023c0,.225,.074,.398,.227,.522s.344,.186,.576,.186Z" fill="#004e9b"/>
    <path d="M180.857,76.07h2.293v8.76h-2.293v-8.76Z" fill="#004e9b"/>
    <path d="M187.109,84.974c-.553,0-1.09-.077-1.609-.233s-1.008-.398-1.463-.727l.852-1.38c.375,.248,.758,.435,1.146,.559,.387,.124,.75,.186,1.086,.186,.383,0,.576-.116,.576-.348v-.024c0-.128-.09-.228-.266-.3s-.436-.156-.779-.252c-.32-.08-.619-.174-.9-.282-.279-.107-.523-.24-.732-.396-.207-.156-.371-.347-.49-.57-.121-.224-.182-.5-.182-.828v-.023c0-.345,.066-.65,.199-.918,.131-.269,.314-.492,.545-.673,.232-.18,.506-.317,.822-.414,.316-.096,.662-.144,1.039-.144,.479,0,.951,.066,1.416,.198,.463,.132,.883,.317,1.26,.558l-.781,1.44c-.336-.185-.676-.33-1.02-.438-.344-.107-.645-.162-.9-.162-.176,0-.307,.03-.395,.09-.088,.061-.133,.135-.133,.223v.023c0,.129,.09,.23,.27,.307s.443,.166,.787,.27c.32,.088,.619,.187,.9,.294,.279,.108,.523,.24,.73,.396,.209,.156,.373,.346,.492,.569,.121,.225,.18,.492,.18,.805v.023c0,.36-.062,.675-.191,.942-.127,.268-.309,.494-.539,.678-.232,.185-.514,.322-.84,.414-.328,.092-.689,.138-1.08,.138Z" fill="#004e9b"/>
  </g>
</svg>