<?xml version="1.0" encoding="utf-8"?>
<!-- Generator: Adobe Illustrator 27.2.0, SVG Export Plug-In . SVG Version: 6.00 Build 0)  -->
<svg version="1.1" id="Layer_1" xmlns="http://www.w3.org/2000/svg" xmlns:xlink="http://www.w3.org/1999/xlink" x="0px" y="0px"
	 viewBox="0 0 225 141" style="enable-background:new 0 0 225 141;" xml:space="preserve">
<style type="text/css">
	.st0{fill:#DEB66A;}
	.st1{fill:#231F20;}
</style>
<g>
	<g>
		<path class="st0" d="M120.9,24.6h-17.7l0.1-0.8c0-0.6,0.5-5.8,3.6-5.8h10.5c3,0,3.5,5.2,3.6,5.8L120.9,24.6z M104.7,23.1h14.5
			c-0.2-1.5-0.9-3.7-2-3.7h-10.5C105.6,19.4,105,21.6,104.7,23.1z"/>
		<path class="st0" d="M117.6,19.4h-11.2l-0.2-0.3c-0.8-1-4.5-5.9-4.8-7.7c-0.2-1.1,0-2.7,1-3.8c0.8-0.9,1.8-1.3,3.2-1.3
			c2.5,0,5.3,2.7,6.5,3.9c1.2-1.3,3.9-3.9,6.5-3.9c1.3,0,2.4,0.5,3.2,1.3c1,1.1,1.2,2.7,1,3.8c-0.3,1.8-4.1,6.7-4.8,7.7L117.6,19.4z
			 M107.1,18h9.8c1.7-2.2,4.1-5.7,4.3-6.7c0.1-0.7,0-1.9-0.7-2.6c-0.5-0.5-1.2-0.8-2-0.8c-2.1,0-5,2.9-5.9,4l-0.6,0.7l-0.6-0.7
			c-0.9-1.1-3.8-4-5.9-4c-0.9,0-1.6,0.3-2,0.8c-0.7,0.8-0.8,1.9-0.7,2.6C102.9,12.2,105.3,15.7,107.1,18z"/>
		<path class="st0" d="M112,9.6l-0.6-0.7c-0.2-0.2-1.7-2.1-1.7-3.6c0-1.8,0.9-3,2.3-3c1.3,0,2.3,1.2,2.3,3c0,1.4-1.5,3.4-1.7,3.6
			L112,9.6z M112,3.7c-0.5,0-0.8,0.8-0.8,1.5c0,0.5,0.4,1.2,0.8,1.9c0.4-0.7,0.8-1.4,0.8-1.9C112.8,4.5,112.5,3.7,112,3.7z"/>
	</g>
	<g>
		<path class="st1" d="M37,97.5c0-3,0-3.5,0-4.1c0-0.6-0.2-1-0.8-1.1c-0.2,0-0.5-0.1-0.7-0.1c-0.1,0-0.2,0-0.2-0.1
			c0-0.1,0.1-0.2,0.3-0.2c0.9,0,2.1,0.1,2.2,0.1c0.2,0,1.7-0.1,2.3-0.1c1.2,0,2.5,0.1,3.5,0.8c0.5,0.3,1.3,1.3,1.3,2.6
			c0,1.4-0.6,2.8-2.3,4.4c1.6,2,2.9,3.7,4,4.9c1,1.1,1.9,1.3,2.3,1.4c0.4,0.1,0.6,0.1,0.7,0.1c0.1,0,0.2,0.1,0.2,0.1
			c0,0.1-0.1,0.2-0.5,0.2H48c-1.1,0-1.6-0.1-2.1-0.4c-0.8-0.4-1.5-1.4-2.6-2.8c-0.8-1-1.7-2.3-2.1-2.8c-0.1-0.1-0.1-0.1-0.2-0.1
			l-2.4,0c-0.1,0-0.1,0.1-0.1,0.2v0.5c0,1.8,0,3.3,0.1,4.1c0.1,0.6,0.2,1,0.7,1c0.3,0,0.7,0.1,0.9,0.1c0.1,0,0.2,0.1,0.2,0.1
			c0,0.1-0.1,0.2-0.3,0.2c-1.1,0-2.3-0.1-2.4-0.1c0,0-1.2,0.1-1.8,0.1c-0.2,0-0.3,0-0.3-0.2c0-0.1,0-0.1,0.2-0.1
			c0.2,0,0.4,0,0.6-0.1c0.4-0.1,0.5-0.5,0.6-1c0.1-0.8,0.1-2.3,0.1-4.1V97.5z M38.5,99.1c0,0.1,0,0.2,0.1,0.2c0.3,0.2,1.2,0.3,2,0.3
			c0.5,0,1-0.1,1.4-0.4c0.7-0.5,1.2-1.5,1.2-2.9c0-2.4-1.3-3.8-3.3-3.8c-0.6,0-1.1,0.1-1.3,0.1c-0.1,0-0.2,0.1-0.2,0.2V99.1z"/>
		<path class="st1" d="M57.9,91.7c4.3,0,7.5,2.7,7.5,7.1c0,4.3-3,7.8-7.7,7.8c-5.3,0-7.4-4.1-7.4-7.5C50.3,96,52.6,91.7,57.9,91.7z
			 M58.3,105.9c1.7,0,5.3-1,5.3-6.5c0-4.6-2.8-7-5.8-7c-3.2,0-5.6,2.1-5.6,6.3C52.1,103,54.8,105.9,58.3,105.9z"/>
		<path class="st1" d="M72.8,101.4c0-1-0.2-1.4-0.4-2c-0.1-0.3-2.7-4.5-3.4-5.5c-0.5-0.7-1-1.2-1.3-1.4c-0.3-0.2-0.7-0.3-0.8-0.3
			c-0.1,0-0.2,0-0.2-0.1c0-0.1,0.1-0.1,0.2-0.1c0.4,0,1.8,0.1,1.9,0.1c0.1,0,0.9-0.1,1.6-0.1c0.2,0,0.2,0.1,0.2,0.1
			c0,0.1-0.1,0.1-0.3,0.2c-0.2,0.1-0.2,0.2-0.2,0.3c0,0.2,0.1,0.5,0.2,0.7c0.3,0.6,3.2,5.5,3.5,6c0.4-0.8,2.8-5,3.2-5.6
			c0.2-0.4,0.3-0.7,0.3-1c0-0.3-0.1-0.5-0.3-0.5c-0.2-0.1-0.3-0.1-0.3-0.2c0-0.1,0.1-0.1,0.3-0.1c0.5,0,1.1,0.1,1.3,0.1
			c0.1,0,1.5-0.1,1.9-0.1c0.1,0,0.2,0,0.2,0.1c0,0.1-0.1,0.2-0.2,0.2c-0.2,0-0.6,0.1-0.9,0.3c-0.4,0.2-0.6,0.5-1,1
			c-0.6,0.8-3.3,5.2-3.7,6.1c-0.3,0.7-0.3,1.3-0.3,1.9v1.6c0,0.3,0,1.1,0.1,1.9c0,0.6,0.2,1,0.8,1c0.3,0,0.7,0.1,0.9,0.1
			c0.1,0,0.2,0.1,0.2,0.1c0,0.1-0.1,0.2-0.3,0.2c-1.1,0-2.3-0.1-2.4-0.1s-1.3,0.1-1.9,0.1c-0.2,0-0.3,0-0.3-0.2c0-0.1,0-0.1,0.2-0.1
			c0.2,0,0.4,0,0.6-0.1c0.4-0.1,0.6-0.5,0.6-1c0.1-0.8,0.1-1.6,0.1-1.9V101.4z"/>
		<path class="st1" d="M85.8,92.4c0.2-0.6,0.3-0.7,0.4-0.7s0.2,0.1,0.4,0.7c0.3,0.7,3.3,8.6,4.5,11.5c0.7,1.7,1.2,2,1.7,2.1
			c0.3,0.1,0.6,0.1,0.8,0.1c0.1,0,0.2,0,0.2,0.1c0,0.1-0.2,0.2-0.4,0.2c-0.3,0-1.7,0-3,0c-0.4,0-0.6,0-0.6-0.1
			c0-0.1,0.1-0.1,0.1-0.1c0.1,0,0.2-0.2,0.1-0.5l-1.8-4.7c0-0.1-0.1-0.1-0.2-0.1H84c-0.1,0-0.2,0.1-0.2,0.2l-1.2,3.4
			c-0.2,0.5-0.3,0.9-0.3,1.3c0,0.4,0.4,0.6,0.7,0.6h0.2c0.1,0,0.2,0,0.2,0.1c0,0.1-0.1,0.2-0.3,0.2c-0.5,0-1.3-0.1-1.5-0.1
			c-0.2,0-1.3,0.1-2.2,0.1c-0.2,0-0.4,0-0.4-0.2c0-0.1,0.1-0.1,0.2-0.1c0.1,0,0.4,0,0.6,0c0.9-0.1,1.3-0.8,1.6-1.8L85.8,92.4z
			 M87.8,100c0.1,0,0.1-0.1,0.1-0.1l-1.8-5.1c-0.1-0.3-0.2-0.3-0.3,0l-1.7,5.1c0,0.1,0,0.1,0.1,0.1H87.8z"/>
		<path class="st1" d="M98.9,100.9c0,2.8,0.1,4,0.4,4.4c0.3,0.3,0.8,0.4,2.3,0.4c1,0,1.9,0,2.3-0.6c0.2-0.3,0.4-0.8,0.5-1.1
			c0-0.2,0.1-0.2,0.2-0.2c0.1,0,0.1,0.1,0.1,0.3c0,0.2-0.1,1.4-0.3,1.9c-0.1,0.4-0.2,0.5-1.2,0.5c-1.4,0-2.4,0-3.2-0.1
			c-0.8,0-1.4-0.1-2-0.1c-0.1,0-0.4,0-0.8,0c-0.4,0-0.8,0-1.1,0c-0.2,0-0.3,0-0.3-0.2c0-0.1,0-0.1,0.2-0.1c0.2,0,0.4,0,0.6-0.1
			c0.4-0.1,0.5-0.5,0.6-1c0.1-0.8,0.1-2.3,0.1-4.1v-3.4c0-3,0-3.5,0-4.1c0-0.6-0.2-1-0.8-1.1c-0.2,0-0.5-0.1-0.7-0.1
			c-0.1,0-0.2,0-0.2-0.1c0-0.1,0.1-0.2,0.3-0.2c0.9,0,2.1,0.1,2.2,0.1c0.1,0,1.5-0.1,2.1-0.1c0.2,0,0.3,0,0.3,0.2
			c0,0.1-0.1,0.1-0.2,0.1c-0.1,0-0.4,0-0.6,0.1c-0.6,0.1-0.7,0.4-0.7,1.1c0,0.6,0,1.1,0,4.1V100.9z"/>
		<path class="st1" d="M128,100.8c0,1.8,0,3.3,0.1,4.1c0.1,0.6,0.2,1,0.7,1c0.3,0,0.7,0.1,0.9,0.1c0.1,0,0.2,0.1,0.2,0.1
			c0,0.1-0.1,0.2-0.3,0.2c-1.1,0-2.3-0.1-2.4-0.1c-0.1,0-1.3,0.1-1.9,0.1c-0.2,0-0.3,0-0.3-0.2c0-0.1,0-0.1,0.2-0.1
			c0.2,0,0.4,0,0.6-0.1c0.4-0.1,0.5-0.5,0.6-1c0.1-0.8,0.1-2.3,0.1-4.1v-2c0-0.1-0.1-0.1-0.1-0.1h-8.1c-0.1,0-0.1,0-0.1,0.1v2
			c0,1.8,0,3.3,0.1,4.1c0.1,0.6,0.2,1,0.7,1c0.3,0,0.7,0.1,0.9,0.1c0.1,0,0.2,0.1,0.2,0.1c0,0.1-0.1,0.2-0.3,0.2
			c-1.1,0-2.3-0.1-2.4-0.1c-0.1,0-1.3,0.1-1.9,0.1c-0.2,0-0.3,0-0.3-0.2c0-0.1,0-0.1,0.2-0.1c0.2,0,0.4,0,0.6-0.1
			c0.4-0.1,0.5-0.5,0.6-1c0.1-0.8,0.1-2.3,0.1-4.1v-3.4c0-3,0-3.5,0-4.1c0-0.6-0.2-1-0.8-1.1c-0.2,0-0.5-0.1-0.7-0.1
			c-0.1,0-0.2,0-0.2-0.1c0-0.1,0.1-0.2,0.3-0.2c0.9,0,2.1,0.1,2.2,0.1c0.1,0,1.3-0.1,1.9-0.1c0.2,0,0.3,0,0.3,0.2
			c0,0.1-0.1,0.1-0.2,0.1c-0.1,0-0.2,0-0.5,0.1c-0.5,0.1-0.7,0.4-0.7,1.1c0,0.6,0,1.1,0,4.1v0.4c0,0.1,0.1,0.1,0.1,0.1h8.1
			c0.1,0,0.1,0,0.1-0.1v-0.4c0-3,0-3.5,0-4.1c0-0.6-0.2-1-0.8-1.1c-0.2,0-0.5-0.1-0.7-0.1c-0.1,0-0.2,0-0.2-0.1
			c0-0.1,0.1-0.2,0.3-0.2c0.9,0,2.1,0.1,2.2,0.1c0.1,0,1.3-0.1,1.9-0.1c0.2,0,0.3,0,0.3,0.2c0,0.1-0.1,0.1-0.2,0.1
			c-0.1,0-0.2,0-0.5,0.1c-0.5,0.1-0.7,0.4-0.7,1.1c0,0.6,0,1.1,0,4.1V100.8z"/>
		<path class="st1" d="M140.5,91.7c4.3,0,7.5,2.7,7.5,7.1c0,4.3-3,7.8-7.7,7.8c-5.3,0-7.4-4.1-7.4-7.5
			C132.9,96,135.2,91.7,140.5,91.7z M140.9,105.9c1.7,0,5.3-1,5.3-6.5c0-4.6-2.8-7-5.8-7c-3.2,0-5.6,2.1-5.6,6.3
			C134.8,103,137.5,105.9,140.9,105.9z"/>
		<path class="st1" d="M152.4,97.5c0-3,0-3.5,0-4.1c0-0.6-0.2-1-0.8-1.1c-0.2,0-0.5-0.1-0.7-0.1c-0.1,0-0.2,0-0.2-0.1
			c0-0.1,0.1-0.2,0.3-0.2c0.9,0,2,0.1,2.2,0.1c0.2,0,1.3-0.1,1.9-0.1c0.2,0,0.3,0,0.3,0.2c0,0.1-0.1,0.1-0.2,0.1
			c-0.1,0-0.2,0-0.5,0.1c-0.5,0.1-0.7,0.4-0.7,1.1c0,0.6,0,1.1,0,4.1v2.7c0,2.7,0.6,3.9,1.4,4.7c0.9,0.9,1.8,1,2.9,1
			c1.2,0,2.3-0.6,3-1.4c0.9-1.1,1.1-2.7,1.1-4.7v-2.4c0-3,0-3.5,0-4.1c0-0.6-0.2-1-0.8-1.1c-0.2,0-0.5-0.1-0.7-0.1
			c-0.1,0-0.2,0-0.2-0.1c0-0.1,0.1-0.2,0.3-0.2c0.9,0,1.9,0.1,2,0.1c0.1,0,1-0.1,1.6-0.1c0.2,0,0.3,0,0.3,0.2c0,0.1-0.1,0.1-0.2,0.1
			c-0.1,0-0.2,0-0.5,0.1c-0.5,0.1-0.7,0.4-0.7,1.1c0,0.6,0,1.1,0,4.1v2c0,2.1-0.2,4.3-1.8,5.7c-1.4,1.2-2.8,1.4-4,1.4
			c-0.7,0-2.6-0.1-4-1.4c-0.9-0.9-1.7-2.2-1.7-5V97.5z"/>
		<path class="st1" d="M168.9,106.1c-0.3-0.1-0.3-0.2-0.3-0.7c0-1,0.1-1.7,0.1-2c0-0.2,0.1-0.3,0.2-0.3c0.1,0,0.1,0.1,0.1,0.2
			c0,0.2,0,0.4,0.1,0.7c0.3,1.4,1.6,1.9,2.8,1.9c1.8,0,2.7-1.3,2.7-2.5c0-1.3-0.6-2.1-2.2-3.4l-0.9-0.7c-2-1.7-2.5-2.8-2.5-4.1
			c0-2,1.5-3.4,4-3.4c0.7,0,1.3,0.1,1.8,0.2c0.4,0.1,0.5,0.1,0.7,0.1c0.2,0,0.2,0,0.2,0.1c0,0.1-0.1,0.7-0.1,2c0,0.3,0,0.4-0.1,0.4
			c-0.1,0-0.1-0.1-0.2-0.2c0-0.2-0.1-0.7-0.2-1c-0.1-0.2-0.6-1-2.4-1c-1.3,0-2.4,0.8-2.4,2.2c0,1.1,0.5,1.8,2.3,3.2l0.5,0.4
			c2.3,1.8,2.8,3,2.8,4.5c0,0.8-0.3,2.2-1.6,3.2c-0.8,0.6-1.9,0.8-2.9,0.8C170.6,106.6,169.7,106.5,168.9,106.1z"/>
		<path class="st1" d="M181.9,97.5c0-3,0-3.5,0-4.1c0-0.6-0.2-1-0.8-1.1c-0.2,0-0.5-0.1-0.7-0.1c-0.1,0-0.2,0-0.2-0.1
			c0-0.1,0.1-0.2,0.3-0.2c0.4,0,1,0,1.4,0l0.8,0c0.1,0,4,0,4.4,0c0.4,0,0.7-0.1,0.8-0.1c0.1,0,0.2-0.1,0.3-0.1
			c0.1,0,0.1,0.1,0.1,0.2c0,0.1-0.1,0.4-0.2,0.9c0,0.2-0.1,1-0.1,1.3c0,0.1-0.1,0.2-0.1,0.2c-0.1,0-0.2-0.1-0.2-0.2
			c0-0.1,0-0.5-0.1-0.7c-0.1-0.3-0.3-0.5-1.4-0.6c-0.3,0-2.4-0.1-2.6-0.1c-0.1,0-0.1,0.1-0.1,0.2v5.3c0,0.1,0,0.2,0.1,0.2
			c0.2,0,2.6,0,3.1,0c0.5,0,0.7-0.1,0.9-0.3c0.1-0.2,0.2-0.2,0.3-0.2c0.1,0,0.1,0,0.1,0.2s-0.1,0.4-0.2,1.1c0,0.4-0.1,1.1-0.1,1.2
			c0,0.2,0,0.4-0.1,0.4c-0.1,0-0.1-0.1-0.1-0.2c0-0.2,0-0.4-0.1-0.6c-0.1-0.3-0.2-0.6-1-0.7c-0.5-0.1-2.4-0.1-2.7-0.1
			c-0.1,0-0.1,0.1-0.1,0.1v1.7c0,0.6,0,2.9,0,3.3c0.1,1.3,0.3,1.6,2.2,1.6c0.5,0,1.3,0,1.8-0.2c0.5-0.2,0.7-0.6,0.9-1.4
			c0-0.2,0.1-0.3,0.2-0.3c0.1,0,0.1,0.2,0.1,0.3c0,0.2-0.2,1.4-0.2,1.8c-0.1,0.5-0.3,0.5-1,0.5c-1.4,0-2.5,0-3.2-0.1
			c-0.7,0-1.2-0.1-1.5-0.1c0,0-0.4,0-0.8,0c-0.4,0-0.8,0-1.1,0c-0.2,0-0.3,0-0.3-0.2c0-0.1,0-0.1,0.2-0.1c0.2,0,0.4,0,0.6-0.1
			c0.4-0.1,0.5-0.5,0.6-1c0.1-0.8,0.1-2.3,0.1-4.1V97.5z"/>
	</g>
	<g>
		<path class="st1" d="M53.5,122c0-1.4,0-1.6,0-1.9c0-0.3-0.1-0.4-0.4-0.5c-0.1,0-0.2,0-0.3,0c0,0-0.1,0-0.1-0.1
			c0-0.1,0-0.1,0.1-0.1c0.4,0,1,0,1,0c0.1,0,0.8,0,1.1,0c0.6,0,1.2,0.1,1.6,0.4c0.2,0.2,0.6,0.6,0.6,1.2c0,0.7-0.3,1.3-1.1,2.1
			c0.7,0.9,1.3,1.7,1.9,2.3c0.5,0.5,0.9,0.6,1.1,0.6c0.2,0,0.3,0,0.4,0c0,0,0.1,0,0.1,0.1c0,0.1-0.1,0.1-0.2,0.1h-0.6
			c-0.5,0-0.7,0-1-0.2c-0.4-0.2-0.7-0.6-1.2-1.3c-0.4-0.5-0.8-1.1-1-1.3c0,0-0.1-0.1-0.1-0.1l-1.1,0c0,0-0.1,0-0.1,0.1v0.2
			c0,0.9,0,1.6,0,1.9c0,0.3,0.1,0.5,0.4,0.5c0.1,0,0.3,0,0.4,0c0.1,0,0.1,0,0.1,0.1c0,0,0,0.1-0.1,0.1c-0.5,0-1.1,0-1.1,0
			c0,0-0.6,0-0.8,0c-0.1,0-0.1,0-0.1-0.1c0,0,0-0.1,0.1-0.1c0.1,0,0.2,0,0.3,0c0.2,0,0.2-0.2,0.3-0.5c0-0.4,0-1.1,0-1.9V122z
			 M54.2,122.7c0,0,0,0.1,0.1,0.1c0.1,0.1,0.5,0.1,0.9,0.1c0.2,0,0.5,0,0.7-0.2c0.3-0.2,0.5-0.7,0.5-1.4c0-1.1-0.6-1.8-1.6-1.8
			c-0.3,0-0.5,0-0.6,0.1c0,0-0.1,0.1-0.1,0.1V122.7z"/>
		<path class="st1" d="M67.5,122c0-1.4,0-1.6,0-1.9c0-0.3-0.1-0.4-0.4-0.5c-0.1,0-0.2,0-0.3,0c0,0-0.1,0-0.1-0.1
			c0-0.1,0-0.1,0.1-0.1c0.2,0,0.4,0,0.6,0l0.4,0c0.1,0,1.9,0,2.1,0c0.2,0,0.3,0,0.4,0c0,0,0.1,0,0.1,0c0,0,0,0,0,0.1
			c0,0.1,0,0.2-0.1,0.4c0,0.1,0,0.5,0,0.6c0,0,0,0.1-0.1,0.1c-0.1,0-0.1,0-0.1-0.1c0-0.1,0-0.2-0.1-0.3c-0.1-0.1-0.2-0.2-0.6-0.3
			c-0.2,0-1.1,0-1.2,0c0,0-0.1,0-0.1,0.1v2.5c0,0.1,0,0.1,0.1,0.1c0.1,0,1.2,0,1.4,0c0.2,0,0.3,0,0.4-0.1c0.1-0.1,0.1-0.1,0.1-0.1
			c0,0,0,0,0,0.1c0,0.1,0,0.2-0.1,0.5c0,0.2,0,0.5,0,0.6c0,0.1,0,0.2-0.1,0.2c0,0-0.1,0-0.1-0.1c0-0.1,0-0.2,0-0.3
			c0-0.1-0.1-0.3-0.5-0.3c-0.2,0-1.1,0-1.3,0c0,0-0.1,0-0.1,0.1v0.8c0,0.3,0,1.3,0,1.5c0,0.6,0.2,0.7,1,0.7c0.2,0,0.6,0,0.9-0.1
			c0.2-0.1,0.3-0.3,0.4-0.6c0-0.1,0-0.1,0.1-0.1c0.1,0,0.1,0.1,0.1,0.1c0,0.1-0.1,0.7-0.1,0.9c-0.1,0.2-0.1,0.2-0.5,0.2
			c-0.7,0-1.2,0-1.5,0c-0.4,0-0.6,0-0.7,0c0,0-0.2,0-0.4,0c-0.2,0-0.4,0-0.5,0c-0.1,0-0.1,0-0.1-0.1c0,0,0-0.1,0.1-0.1
			c0.1,0,0.2,0,0.3,0c0.2,0,0.2-0.2,0.3-0.5c0-0.4,0-1.1,0-1.9V122z"/>
		<path class="st1" d="M80.2,125.3c-0.9-0.8-1.1-1.8-1.1-2.6c0-0.6,0.2-1.6,1-2.4c0.5-0.5,1.4-1,2.7-1c0.4,0,0.9,0,1.3,0.1
			c0.3,0.1,0.6,0.1,0.9,0.1c0.1,0,0.1,0,0.1,0.1c0,0.1,0,0.2,0,0.5c0,0.3,0,0.8,0,0.9c0,0.1,0,0.2-0.1,0.2c-0.1,0-0.1-0.1-0.1-0.2
			c0-0.3-0.1-0.7-0.4-0.9c-0.3-0.3-1-0.5-1.8-0.5c-1.2,0-1.8,0.3-2.1,0.7c-0.7,0.6-0.8,1.4-0.8,2.3c0,1.7,1.3,3.3,3.2,3.3
			c0.7,0,1.2-0.1,1.6-0.4c0.2-0.2,0.3-0.6,0.3-0.7c0-0.1,0-0.1,0.1-0.1c0,0,0.1,0.1,0.1,0.1c0,0.1-0.1,0.8-0.2,1.1
			C85,126,85,126,84.8,126c-0.4,0.1-1,0.2-1.6,0.2C81.8,126.2,80.9,125.9,80.2,125.3z"/>
		<path class="st1" d="M97,119.3c2,0,3.5,1.3,3.5,3.3c0,2-1.4,3.6-3.6,3.6c-2.5,0-3.5-1.9-3.5-3.5C93.4,121.3,94.5,119.3,97,119.3z
			 M97.2,125.9c0.8,0,2.5-0.5,2.5-3.1c0-2.1-1.3-3.3-2.7-3.3c-1.5,0-2.6,1-2.6,2.9C94.3,124.6,95.6,125.9,97.2,125.9z"/>
		<path class="st1" d="M109.6,122c0-1.4,0-1.6,0-1.9c0-0.3-0.1-0.4-0.4-0.5c-0.1,0-0.2,0-0.3,0c0,0-0.1,0-0.1-0.1
			c0-0.1,0-0.1,0.1-0.1c0.4,0,1,0,1,0c0.1,0,0.8,0,1.1,0c0.6,0,1.2,0.1,1.6,0.4c0.2,0.2,0.6,0.6,0.6,1.2c0,0.7-0.3,1.3-1.1,2.1
			c0.7,0.9,1.3,1.7,1.9,2.3c0.5,0.5,0.9,0.6,1.1,0.6c0.2,0,0.3,0,0.4,0c0,0,0.1,0,0.1,0.1c0,0.1-0.1,0.1-0.2,0.1h-0.6
			c-0.5,0-0.7,0-1-0.2c-0.4-0.2-0.7-0.6-1.2-1.3c-0.4-0.5-0.8-1.1-1-1.3c0,0-0.1-0.1-0.1-0.1l-1.1,0c0,0-0.1,0-0.1,0.1v0.2
			c0,0.9,0,1.6,0,1.9c0,0.3,0.1,0.5,0.4,0.5c0.1,0,0.3,0,0.4,0c0.1,0,0.1,0,0.1,0.1c0,0,0,0.1-0.1,0.1c-0.5,0-1.1,0-1.1,0
			c0,0-0.6,0-0.8,0c-0.1,0-0.1,0-0.1-0.1c0,0,0-0.1,0.1-0.1c0.1,0,0.2,0,0.3,0c0.2,0,0.2-0.2,0.3-0.5c0-0.4,0-1.1,0-1.9V122z
			 M110.3,122.7c0,0,0,0.1,0.1,0.1c0.1,0.1,0.5,0.1,0.9,0.1c0.2,0,0.5,0,0.7-0.2c0.3-0.2,0.5-0.7,0.5-1.4c0-1.1-0.6-1.8-1.6-1.8
			c-0.3,0-0.5,0-0.6,0.1c0,0-0.1,0.1-0.1,0.1V122.7z"/>
		<path class="st1" d="M123.6,122c0-1.4,0-1.6,0-1.9c0-0.3-0.1-0.4-0.4-0.5c-0.1,0-0.2,0-0.3,0c0,0-0.1,0-0.1-0.1
			c0-0.1,0-0.1,0.1-0.1c0.4,0,1,0,1,0c0.1,0,0.7,0,1.2,0c0.9,0,2.5-0.1,3.6,1c0.4,0.5,0.9,1.2,0.9,2.3c0,1.1-0.5,2-1,2.5
			c-0.4,0.4-1.2,1-2.7,1c-0.4,0-0.9,0-1.2-0.1c-0.4,0-0.7-0.1-0.7-0.1c0,0-0.2,0-0.4,0c-0.2,0-0.4,0-0.5,0c-0.1,0-0.1,0-0.1-0.1
			c0,0,0-0.1,0.1-0.1c0.1,0,0.2,0,0.3,0c0.2,0,0.2-0.2,0.3-0.5c0-0.4,0-1.1,0-1.9V122z M124.3,122.9c0,0.9,0,1.8,0,1.9
			c0,0.2,0,0.6,0.1,0.7c0.1,0.2,0.5,0.4,1.5,0.4c0.8,0,1.6-0.3,2.1-0.8c0.5-0.5,0.7-1.3,0.7-2.1c0-1.1-0.5-1.9-0.9-2.2
			c-0.8-0.9-1.9-1-2.9-1c-0.2,0-0.5,0-0.6,0.1c-0.1,0-0.1,0.1-0.1,0.2c0,0.3,0,1.2,0,1.9V122.9z"/>
		<path class="st1" d="M139.7,123.5c0,0.9,0,1.6,0,1.9c0,0.3,0.1,0.5,0.4,0.5c0.1,0,0.3,0,0.4,0c0.1,0,0.1,0,0.1,0.1
			c0,0,0,0.1-0.1,0.1c-0.5,0-1.1,0-1.1,0c0,0-0.6,0-0.9,0c-0.1,0-0.1,0-0.1-0.1c0,0,0-0.1,0.1-0.1c0.1,0,0.2,0,0.3,0
			c0.2,0,0.2-0.2,0.3-0.5c0-0.4,0-1.1,0-1.9V122c0-1.4,0-1.6,0-1.9c0-0.3-0.1-0.5-0.3-0.5c-0.1,0-0.2,0-0.3,0c0,0-0.1,0-0.1-0.1
			c0-0.1,0-0.1,0.1-0.1c0.3,0,0.9,0,0.9,0c0,0,0.6,0,0.9,0c0.1,0,0.1,0,0.1,0.1c0,0,0,0.1-0.1,0.1c-0.1,0-0.1,0-0.2,0
			c-0.2,0-0.3,0.2-0.3,0.5c0,0.3,0,0.5,0,1.9V123.5z"/>
		<path class="st1" d="M150.3,124.9c0,0.7,0.1,1,0.4,1c0.2,0,0.4,0.1,0.4,0.1c0,0,0.1,0,0.1,0.1c0,0.1-0.1,0.1-0.2,0.1
			c-0.5,0-0.9,0-1,0c-0.1,0-0.5,0-0.9,0c-0.1,0-0.1,0-0.1-0.1c0,0,0-0.1,0.1-0.1c0.1,0,0.2,0,0.4-0.1c0.2-0.1,0.3-0.3,0.3-1.1l0-5.1
			c0-0.3,0-0.4,0.1-0.4s0.2,0.2,0.3,0.3c0.1,0.2,1.5,1.6,2.9,3.1c0.9,0.9,1.9,2,2.2,2.3l-0.1-4.5c0-0.6-0.1-0.8-0.4-0.8
			c-0.2,0-0.4,0-0.4,0c-0.1,0-0.1,0-0.1-0.1c0-0.1,0.1-0.1,0.2-0.1c0.4,0,0.8,0,0.9,0c0.1,0,0.4,0,0.8,0c0.1,0,0.2,0,0.2,0.1
			c0,0,0,0.1-0.1,0.1c0,0-0.1,0-0.2,0c-0.3,0.1-0.3,0.3-0.3,0.8l0,5.2c0,0.6,0,0.6-0.1,0.6c-0.1,0-0.2-0.1-0.7-0.6
			c-0.1-0.1-1.4-1.4-2.3-2.4c-1-1.1-2.1-2.2-2.3-2.6L150.3,124.9z"/>
		<path class="st1" d="M169.9,123.8c0-0.7,0-0.8-0.4-0.9c-0.1,0-0.2,0-0.3,0c0,0-0.1,0-0.1-0.1c0-0.1,0-0.1,0.1-0.1c0.4,0,1,0,1,0
			s0.6,0,0.9,0c0.1,0,0.1,0,0.1,0.1c0,0,0,0.1-0.1,0.1c-0.1,0-0.1,0-0.2,0c-0.2,0-0.3,0.2-0.3,0.5c0,0.3,0,0.6,0,0.9v1
			c0,0.4,0,0.4-0.1,0.5c-0.6,0.3-1.4,0.4-1.9,0.4c-0.7,0-2-0.1-3-1c-0.5-0.5-1.1-1.4-1.1-2.5c0-1.4,0.7-2.4,1.5-2.9
			c0.8-0.5,1.7-0.6,2.4-0.6c0.6,0,1.2,0.1,1.4,0.2c0.2,0,0.5,0.1,0.7,0.1c0.1,0,0.1,0,0.1,0.1c0,0.1-0.1,0.4-0.1,1.3
			c0,0.1,0,0.2-0.1,0.2c0,0-0.1-0.1-0.1-0.1c0-0.1-0.1-0.4-0.2-0.6c-0.2-0.3-1-0.7-2.1-0.7c-0.6,0-1.2,0.1-1.9,0.6
			c-0.5,0.4-0.9,1.2-0.9,2.3c0,1.3,0.6,2.2,1,2.5c0.7,0.7,1.5,1,2.4,1c0.3,0,0.8-0.1,1-0.2c0.1-0.1,0.2-0.2,0.2-0.3V123.8z"/>
	</g>
	<g>
		<g>
			<path class="st1" d="M128.1,54.7c0,5.2,0,9.4,0.3,11.7c0.2,1.6,0.5,2.7,2.1,3c0.8,0.1,2,0.2,2.4,0.2c0.3,0,0.4,0.2,0.4,0.3
				c0,0.3-0.3,0.4-0.9,0.4c-3,0-6.4-0.2-6.7-0.2c-0.3,0-3.7,0.2-5.3,0.2c-0.6,0-0.9-0.1-0.9-0.4c0-0.2,0.1-0.3,0.4-0.3
				c0.5,0,1.1-0.1,1.6-0.2c1.1-0.2,1.4-1.4,1.6-3c0.3-2.3,0.3-6.5,0.3-11.7V49c0-0.2-0.2-0.3-0.3-0.3h-23c-0.2,0-0.3,0.1-0.3,0.3
				v5.6c0,5.2,0,9.4,0.3,11.7c0.2,1.6,0.5,2.7,2.1,3c0.8,0.1,2,0.2,2.4,0.2c0.3,0,0.4,0.2,0.4,0.3c0,0.3-0.3,0.4-0.9,0.4
				c-3,0-6.4-0.2-6.7-0.2c-0.3,0-3.7,0.2-5.3,0.2c-0.6,0-0.9-0.1-0.9-0.4c0-0.2,0.1-0.3,0.4-0.3c0.5,0,1.1-0.1,1.6-0.2
				c1.1-0.2,1.4-1.4,1.6-3c0.3-2.3,0.3-6.5,0.3-11.7v-9.5c0-8.4,0-9.9-0.1-11.6c-0.1-1.8-0.5-2.7-2.3-3.1c-0.4-0.1-1.4-0.2-1.8-0.2
				c-0.2,0-0.4-0.1-0.4-0.3c0-0.3,0.3-0.4,0.9-0.4c2.4,0,5.9,0.2,6.1,0.2c0.3,0,3.7-0.2,5.3-0.2c0.6,0,0.9,0.1,0.9,0.4
				c0,0.2-0.2,0.3-0.4,0.3c-0.4,0-0.7,0.1-1.4,0.2c-1.5,0.3-1.9,1.2-2,3.1c-0.1,1.7-0.1,3.2-0.1,11.6v1.1c0,0.3,0.2,0.3,0.3,0.3h23
				c0.2,0,0.3-0.1,0.3-0.3v-1.1c0-8.4,0-9.9-0.1-11.6c-0.1-1.8-0.5-2.7-2.3-3.1c-0.4-0.1-1.4-0.2-1.8-0.2c-0.2,0-0.4-0.1-0.4-0.3
				c0-0.3,0.3-0.4,0.9-0.4c2.4,0,5.8,0.2,6.1,0.2c0.3,0,3.7-0.2,5.3-0.2c0.6,0,0.9,0.1,0.9,0.4c0,0.2-0.2,0.3-0.4,0.3
				c-0.4,0-0.7,0.1-1.4,0.2c-1.5,0.3-1.9,1.2-2,3.1c-0.1,1.7-0.1,3.2-0.1,11.6V54.7z"/>
		</g>
		<g>
			<path class="st1" d="M140.5,42.6c0-11,0-13-0.1-15.3c-0.1-2.4-0.7-3.5-3.1-4c-0.6-0.1-1.8-0.2-2.4-0.2c-0.3,0-0.6-0.1-0.6-0.4
				c0-0.4,0.4-0.6,1.1-0.6c3.2,0,7.7,0.2,8.1,0.2c0.8,0,6.2-0.2,8.4-0.2c4.5,0,9.3,0.4,13,3.1c1.8,1.3,4.9,4.7,4.9,9.6
				c0,5.2-2.2,10.5-8.6,16.3c5.8,7.4,10.7,13.7,14.8,18.1c3.8,4,6.9,4.8,8.7,5.1c1.4,0.2,2.4,0.2,2.8,0.2c0.4,0,0.6,0.2,0.6,0.4
				c0,0.4-0.4,0.6-1.7,0.6h-5.1c-4,0-5.8-0.4-7.6-1.3c-3.1-1.6-5.6-5.1-9.6-10.4c-3-3.9-6.3-8.6-7.8-10.5c-0.3-0.3-0.5-0.4-0.9-0.4
				l-8.8-0.1c-0.4,0-0.5,0.2-0.5,0.6V55c0,6.8,0,12.4,0.4,15.3c0.2,2.1,0.6,3.6,2.8,3.9c1,0.1,2.6,0.3,3.2,0.3
				c0.4,0,0.6,0.2,0.6,0.4c0,0.4-0.4,0.6-1.1,0.6c-3.9,0-8.4-0.2-8.8-0.2c-0.1,0-4.6,0.2-6.7,0.2c-0.8,0-1.1-0.1-1.1-0.6
				c0-0.2,0.1-0.4,0.6-0.4c0.6,0,1.5-0.1,2.1-0.3c1.4-0.3,1.8-1.8,2.1-3.9c0.4-3,0.4-8.6,0.4-15.3V42.6z M146.2,48.7
				c0,0.4,0.1,0.6,0.5,0.8c1.1,0.6,4.3,1.1,7.5,1.1c1.7,0,3.7-0.2,5.3-1.3c2.5-1.7,4.3-5.5,4.3-10.9c0-8.8-4.7-14.1-12.3-14.1
				c-2.1,0-4.1,0.2-4.8,0.4c-0.4,0.1-0.6,0.4-0.6,0.8V48.7z"/>
		</g>
		<g>
			<path class="st1" d="M83.5,55c0,6.8,0,12.4,0.4,15.3c0.3,2.1,0.6,3.6,2.1,3.9c0.6,0.1,1.5,0.3,2.1,0.3c0.4,0,0.6,0.2,0.6,0.4
				c0,0.4-0.4,0.6-1.1,0.6c-2.1,0-6.6-0.2-6.7-0.2c-0.4,0-4.8,0.2-8.8,0.2c-0.8,0-1.1-0.2-1.1-0.6c0-0.2,0.1-0.4,0.6-0.4
				c0.6,0,2.2-0.1,3.2-0.3c2.1-0.3,2.6-1.8,2.8-3.9c0.4-3,0.4-8.6,0.4-15.3v-1.7c0-0.4-0.1-0.6-0.5-0.6l-8.8,0.1
				c-0.4,0-0.6,0.1-0.9,0.4c-1.4,1.8-4.8,6.6-7.8,10.5c-4.1,5.3-6.6,8.8-9.6,10.4c-1.9,1-3.6,1.3-7.6,1.3h-5.1
				c-1.3,0-1.7-0.1-1.7-0.6c0-0.2,0.3-0.4,0.6-0.4c0.4,0,1.4,0,2.8-0.2c1.8-0.3,4.8-1.1,8.7-5.1c4.1-4.4,9-10.7,14.8-18.1
				c-6.4-5.9-8.6-11.1-8.6-16.3c0-4.9,3.1-8.3,4.9-9.6c3.8-2.7,8.5-3.1,13-3.1c2.2,0,7.6,0.2,8.4,0.2c0.4,0,4.8-0.2,8.1-0.2
				c0.8,0,1.1,0.1,1.1,0.6c0,0.3-0.3,0.4-0.6,0.4c-0.6,0-1.9,0.1-2.4,0.2c-2.4,0.5-2.9,1.6-3.1,4c-0.1,2.3-0.1,4.2-0.1,15.3V55z
				 M77.8,25.6c0-0.4-0.2-0.7-0.6-0.8c-0.7-0.2-2.6-0.4-4.8-0.4c-7.6,0-12.3,5.3-12.3,14.1c0,5.4,1.9,9.2,4.3,10.9
				c1.6,1.1,3.6,1.3,5.3,1.3c3.1,0,6.4-0.5,7.5-1.1c0.4-0.2,0.5-0.5,0.5-0.8V25.6z"/>
		</g>
	</g>
	<rect x="35.3" y="84.5" class="st0" width="153.4" height="1"/>
	<rect x="35.3" y="112.7" class="st0" width="153.4" height="1"/>
</g>
</svg>
