<?xml version="1.0" encoding="UTF-8"?>
<svg id="Layer_1" data-name="Layer 1" xmlns="http://www.w3.org/2000/svg" width="3.125in" height="1.528in" viewBox="0 0 225 110">
  <g>
    <path d="M0,43.977V21.506H5.841l10.788,13.738v-13.738h5.812v22.47h-5.812L5.841,30.238v13.739H0Z" fill="#088543"/>
    <path d="M26.403,32.741c0-1.669,.308-3.223,.924-4.664,.616-1.44,1.47-2.697,2.563-3.769,1.092-1.073,2.399-1.912,3.919-2.519,1.519-.606,3.193-.909,5.022-.909,1.807,0,3.476,.303,5.007,.909,1.529,.607,2.846,1.446,3.949,2.519,1.103,1.073,1.962,2.329,2.577,3.769,.616,1.441,.924,2.995,.924,4.664s-.308,3.224-.924,4.664c-.616,1.441-1.475,2.697-2.577,3.77s-2.419,1.913-3.949,2.518c-1.531,.606-3.199,.909-5.007,.909-1.828,0-3.502-.303-5.022-.909-1.52-.605-2.827-1.445-3.919-2.518-1.093-1.073-1.947-2.329-2.563-3.77-.616-1.44-.924-2.995-.924-4.664Zm6.109,0c0,.894,.169,1.719,.507,2.473,.338,.755,.794,1.411,1.371,1.967,.576,.556,1.247,.989,2.011,1.296,.765,.308,1.575,.462,2.429,.462s1.663-.154,2.429-.462c.765-.308,1.44-.74,2.027-1.296,.585-.556,1.047-1.212,1.385-1.967,.338-.755,.507-1.58,.507-2.473s-.169-1.719-.507-2.474c-.338-.755-.8-1.41-1.385-1.967-.587-.556-1.262-.988-2.027-1.296-.765-.308-1.575-.462-2.429-.462s-1.665,.154-2.429,.462-1.435,.74-2.011,1.296c-.577,.556-1.033,1.212-1.371,1.967-.338,.755-.507,1.58-.507,2.474Z" fill="#088543"/>
    <path d="M73.669,43.977h-7.272l-5.573-8.643v8.643h-5.841V21.506h9.09c1.252,0,2.344,.184,3.278,.551s1.704,.869,2.31,1.505c.605,.636,1.062,1.371,1.371,2.205,.308,.835,.462,1.728,.462,2.682,0,1.709-.412,3.095-1.237,4.158-.825,1.063-2.042,1.783-3.651,2.16l7.063,9.209Zm-12.845-12.427h1.103c1.152,0,2.036-.239,2.652-.716,.616-.476,.924-1.162,.924-2.056s-.308-1.58-.924-2.057-1.5-.715-2.652-.715h-1.103v5.543Z" fill="#088543"/>
    <path d="M84.666,26.453v17.523h-5.841V26.453h-4.798v-4.947h15.437v4.947h-4.798Z" fill="#088543"/>
    <path d="M97.898,30.178h8.434v-8.672h5.841v22.47h-5.841v-9.269h-8.434v9.269h-5.841V21.506h5.841v8.672Z" fill="#088543"/>
    <path d="M135.537,26.453v17.523h-5.841V26.453h-4.798v-4.947h15.437v4.947h-4.798Z" fill="#088543"/>
    <path d="M155.712,26.453h-6.944v3.755h6.557v4.947h-6.557v3.874h6.944v4.947h-12.785V21.506h12.785v4.947Z" fill="#088543"/>
    <path d="M166.352,31.996l-7.004-10.49h7.212l3.04,5.811,3.755-5.811h7.212l-7.42,10.49,8.374,11.981h-7.123l-4.5-7.331-5.275,7.331h-7.063l8.792-11.981Z" fill="#088543"/>
    <path d="M197.643,40.073h-8.344l-1.341,3.904h-6.229l8.553-22.47h6.377l8.553,22.47h-6.229l-1.341-3.904Zm-1.55-4.44l-2.623-7.48-2.622,7.48h5.245Z" fill="#088543"/>
    <path d="M220.113,27.258c-.636-.517-1.271-.899-1.907-1.147-.636-.248-1.252-.373-1.848-.373-.755,0-1.371,.179-1.848,.536-.477,.358-.715,.825-.715,1.401,0,.398,.119,.726,.358,.983,.238,.259,.551,.482,.938,.671,.388,.189,.824,.353,1.312,.492,.486,.139,.968,.288,1.445,.447,1.908,.636,3.303,1.486,4.187,2.548,.884,1.063,1.326,2.449,1.326,4.157,0,1.153-.193,2.196-.581,3.129-.388,.934-.954,1.733-1.699,2.399-.745,.666-1.659,1.183-2.742,1.55-1.083,.368-2.31,.551-3.68,.551-2.842,0-5.474-.844-7.898-2.533l2.504-4.709c.874,.775,1.738,1.351,2.593,1.728,.854,.378,1.699,.566,2.533,.566,.954,0,1.664-.218,2.131-.656,.466-.437,.7-.933,.7-1.49,0-.337-.06-.63-.179-.879-.119-.248-.318-.477-.596-.685-.278-.209-.641-.402-1.088-.581-.447-.179-.989-.378-1.624-.597-.755-.238-1.495-.501-2.22-.789-.726-.288-1.371-.67-1.937-1.147-.566-.477-1.023-1.077-1.371-1.803-.348-.725-.522-1.644-.522-2.757s.184-2.121,.551-3.025c.367-.904,.884-1.678,1.55-2.324,.665-.645,1.48-1.147,2.444-1.505,.964-.357,2.042-.536,3.234-.536,1.113,0,2.275,.154,3.487,.462,1.212,.308,2.374,.76,3.487,1.356l-2.325,4.56Z" fill="#088543"/>
  </g>
  <g>
    <g>
      <path d="M95.044,81.539c-.839,2.592-3.66,4.651-6.176,4.651H42.588l10.217-30.192h13.419l-8.997,26.532h3.049c1.296,0,2.669-.991,3.05-2.288l8.234-24.245h13.419l-8.997,26.532h3.05c1.22,0,2.668-.991,3.049-2.288l8.234-24.245h13.343l-8.616,25.541Z" fill="#fff"/>
      <path d="M103.659,55.998l-8.616,25.541c-.839,2.592-3.66,4.651-6.176,4.651H42.588l10.216-30.192h13.419l-8.997,26.532h3.049c1.296,0,2.669-.991,3.05-2.288l8.234-24.245h13.419l-8.997,26.532h3.05c1.22,0,2.668-.991,3.049-2.288l8.234-24.245h13.343m4.081-2.93H50.703l-.674,1.991-10.216,30.192-1.309,3.869h50.364c3.814,0,7.752-2.934,8.964-6.679l8.604-25.507,1.304-3.867h0Z" fill="#088543"/>
    </g>
    <g>
      <path d="M133.391,86.19h-9.454c-2.592,0-3.965-2.059-3.049-4.651l1.601-4.727h-6.328l-3.202,9.378h-14.105l8.616-25.541c.915-2.593,3.66-4.651,6.252-4.651h25.313c2.516,0,3.888,2.058,3.05,4.651l-8.692,25.541Zm-7.395-26.532h-1.754c-1.22,0-2.668,1.067-3.05,2.287l-3.736,10.979h6.328l3.736-10.979c.382-1.22-.305-2.287-1.524-2.287Z" fill="#fff"/>
      <path d="M139.033,55.998c2.516,0,3.888,2.058,3.05,4.651l-8.692,25.541h-9.454c-2.592,0-3.965-2.059-3.049-4.651l1.601-4.727h-6.328l-3.202,9.378h-14.105l8.616-25.541c.915-2.593,3.66-4.651,6.252-4.651h25.313m-21.576,16.926h6.328l3.736-10.979c.382-1.22-.305-2.287-1.524-2.287h-1.754c-1.22,0-2.668,1.067-3.05,2.287l-3.736,10.979m21.576-19.856h-25.313c-3.811,0-7.686,2.84-9.015,6.606l-8.629,25.58-1.304,3.867h20.281l.677-1.983,2.525-7.395h.146l-.29,.857c-.758,2.146-.528,4.348,.644,6.005,1.131,1.599,3.019,2.516,5.181,2.516h11.552l.676-1.986,8.692-25.541c.723-2.236,.446-4.435-.747-6.074-1.133-1.558-2.984-2.451-5.077-2.451h0Zm-15.06,9.801c.04-.059,.12-.132,.203-.192l-2.489,7.316h-.138l2.417-7.105,.007-.019h0Z" fill="#088543"/>
    </g>
    <g>
      <path d="M172.426,69.264h1.982c2.516,0,3.888,2.059,3.049,4.651l-4.193,12.275h-9.454c-2.592,0-3.965-2.059-3.049-4.651l2.135-6.328c.457-1.22-.229-2.288-1.525-2.288h-4.041l-4.499,13.267h-14.105l10.217-30.192h14.105l-4.498,13.266h.305l11.436-13.266h14.562l-12.428,13.266Z" fill="#fff"/>
      <path d="M184.853,55.998l-12.428,13.266h1.982c2.516,0,3.888,2.059,3.049,4.651l-4.193,12.275h-9.454c-2.592,0-3.965-2.059-3.049-4.651l2.135-6.328c.457-1.22-.229-2.288-1.525-2.288h-4.041l-4.499,13.267h-14.105l10.217-30.192h14.105l-4.498,13.266h.305l11.436-13.266h14.562m6.76-2.93h-22.665l-.877,1.017-2.112,2.45,1.175-3.467h-20.294l-.674,1.991-10.217,30.192-1.309,3.869h20.29l.675-1.989,3.824-11.277h.156l-1.602,4.749c-.757,2.143-.527,4.345,.645,6.002,1.131,1.599,3.019,2.516,5.181,2.516h11.549l.677-1.983,4.193-12.275c.725-2.238,.448-4.437-.745-6.077-.377-.519-.834-.964-1.353-1.327l8.86-9.457,4.622-4.934h0Z" fill="#088543"/>
    </g>
    <g>
      <path d="M220.228,65.375h-14.105l1.143-3.431c.382-1.296-.305-2.287-1.524-2.287h-1.754c-1.22,0-2.668,1.067-3.05,2.287l-2.516,7.319h11.665l-1.22,3.66h-11.665l-2.44,7.319c-.457,1.296,.229,2.288,1.525,2.288h1.677c1.296,0,2.668-.991,3.126-2.288l1.143-3.431h14.105l-1.601,4.727c-.839,2.592-3.66,4.651-6.176,4.651h-25.313c-2.592,0-3.965-2.059-3.05-4.651l7.015-20.89c.915-2.593,3.66-4.651,6.252-4.651h25.313c2.516,0,3.888,2.058,3.05,4.651l-1.601,4.727Z" fill="#fff"/>
      <path d="M218.779,55.998c2.516,0,3.888,2.058,3.05,4.651l-1.601,4.727h-14.105l1.143-3.431c.382-1.296-.305-2.287-1.524-2.287h-1.754c-1.22,0-2.668,1.067-3.05,2.287l-2.516,7.319h11.665l-1.22,3.66h-11.665l-2.44,7.319c-.457,1.296,.229,2.288,1.525,2.288h1.677c1.296,0,2.668-.991,3.126-2.288l1.143-3.431h14.105l-1.601,4.727c-.839,2.592-3.66,4.651-6.176,4.651h-25.313c-2.592,0-3.965-2.059-3.05-4.651l7.015-20.89c.915-2.593,3.66-4.651,6.252-4.651h25.313m0-2.93h-25.313c-3.811,0-7.686,2.84-9.015,6.606l-7.029,20.933c-.756,2.14-.525,4.341,.647,5.998,1.131,1.599,3.019,2.516,5.181,2.516h25.313c3.814,0,7.752-2.934,8.964-6.679l1.588-4.69,1.311-3.87h-8.788l.011-.032,1.22-3.66,.628-1.885h8.833l.674-1.99,1.601-4.727c.722-2.232,.445-4.431-.748-6.07-1.133-1.558-2.984-2.451-5.077-2.451h0Zm-15.06,9.801c.042-.062,.13-.141,.218-.202l-.594,1.783-.628,1.885h-.187l1.181-3.437,.01-.028h0Zm-4.404,12.985h.151l-.011,.032-1.13,3.392c-.032,.076-.131,.176-.233,.246l1.223-3.669h0Z" fill="#088543"/>
    </g>
  </g>
</svg>