<?xml version="1.0" encoding="utf-8"?>
<!-- Generator: Adobe Illustrator 27.0.0, SVG Export Plug-In . SVG Version: 6.00 Build 0)  -->
<svg version="1.1" id="Layer_1" xmlns="http://www.w3.org/2000/svg" xmlns:xlink="http://www.w3.org/1999/xlink" x="0px" y="0px"
	 viewBox="0 0 225 110.016" style="enable-background:new 0 0 225 110.016;" xml:space="preserve">
<style type="text/css">
	.st0{fill:#B3242A;}
</style>
<g>
	<g>
		<path d="M33.294,73.789l-8.927,12.234l1.355-12.234h-5.126l-4.001,6.91c-0.023,0.066-0.215,0.435-0.579,1.108
			c-0.363,0.673-0.756,1.422-1.173,2.249c-0.419,0.826-0.75,1.493-0.991,1.999l1.653-12.267H7.834L5.486,94.256h7.671l6.315-10.284
			l-1.19,10.284h7.671l14.945-20.467C40.898,73.789,33.294,73.789,33.294,73.789z"/>
		<polygon points="43.378,73.822 35.939,94.256 43.609,94.256 51.05,73.822 		"/>
		<path d="M71.45,81.46H59.744l0.926-2.546h15.374l1.852-5.125H58.455c-1.103,0-2.088,0.303-2.96,0.91
			c-0.872,0.606-1.493,1.428-1.868,2.464l-2.182,5.985c-0.309,0.837-0.204,1.62,0.314,2.348c0.517,0.727,1.217,1.092,2.1,1.092
			h11.705l-0.925,2.546H49.263l-1.852,5.125h19.442c1.102,0,2.088-0.298,2.96-0.893c0.871-0.594,1.493-1.41,1.868-2.447l2.182-6.018
			c0.308-0.836,0.204-1.62-0.314-2.348C73.031,81.824,72.331,81.46,71.45,81.46z"/>
		<path d="M86.759,78.914h13.16l1.852-5.125H84.51c-1.079,0-2.055,0.303-2.926,0.91c-0.872,0.606-1.494,1.428-1.868,2.464
			l-4.96,13.655c-0.308,0.816-0.209,1.593,0.298,2.331c0.508,0.739,1.201,1.108,2.083,1.108h17.194l1.852-5.125h-13.16
			L86.759,78.914z"/>
		<path d="M108.813,73.789c-1.08,0-2.056,0.303-2.927,0.91c-0.872,0.606-1.493,1.428-1.868,2.464l-6.217,17.095h18.682
			c1.079,0,2.055-0.303,2.927-0.91c0.871-0.606,1.493-1.427,1.868-2.464l6.217-17.095C127.495,73.789,108.813,73.789,108.813,73.789
			z M114.236,89.131h-6.91l3.737-10.218h6.91L114.236,89.131z"/>
		<polygon points="146.672,73.789 142.936,84.04 139.002,73.789 131.297,73.789 123.858,94.256 131.528,94.256 135.264,84.04 
			139.2,94.256 146.904,94.256 154.343,73.789 		"/>
		<path d="M174.744,81.46h-11.705l0.925-2.546h15.375l1.852-5.125h-19.443c-1.102,0-2.088,0.303-2.959,0.91
			c-0.872,0.606-1.494,1.428-1.869,2.464l-2.181,5.985c-0.309,0.837-0.205,1.62,0.314,2.348c0.518,0.727,1.218,1.092,2.1,1.092
			h11.705l-0.925,2.546h-15.376l-1.852,5.125h19.443c1.102,0,2.088-0.298,2.959-0.893c0.871-0.594,1.493-1.41,1.868-2.447
			l2.181-6.018c0.309-0.836,0.205-1.62-0.314-2.348C176.326,81.824,175.626,81.46,174.744,81.46z"/>
		<polygon points="184.994,73.822 177.554,94.256 185.224,94.256 192.666,73.822 		"/>
		<polygon points="211.842,73.789 208.106,84.04 204.172,73.789 196.467,73.789 189.028,94.256 196.698,94.256 200.436,84.04 
			204.37,94.256 212.074,94.256 219.514,73.789 		"/>
	</g>
	<g>
		<path class="st0" d="M183.044,58.265c1.398-1.866,1.858-3.234,1.533-3.442c-0.358-0.242-1.43,0.596-3,1.936
			c-1.87,1.597-4.365,3.229-8.939,3.229l-5.927,0.034c-0.264-0.492-0.891-1.428-2.381-2.239c-0.555-0.302-1.01-0.765-1.224-1.36
			c-0.863-2.404-3.918-7.151-5.072-8.516c-1.324-1.566-4.938-3.722-7.396-5.488c-1.809-1.49-2.612-2.307-2.966-2.751
			c0.053,0.455,0.075,0.918,0.101,1.392c-0.027,0.619-0.009,1.259-0.122,1.894c-0.314,2.56-1.379,5.152-2.905,7.354
			c-0.296,0.503-0.673,0.939-1.034,1.385c3.083,3.57,9.592,8.309,9.592,8.309h-2.33l-9.795-5.574c-0.102,0.1-0.204,0.204-0.308,0.3
			c-0.483,0.404-0.958,0.802-1.424,1.192c-1.882,1.538-3.775,2.722-5.392,3.637c-1.617,0.914-3.626,1.867-5.863,2.766
			c-0.503,0.189-1.02,0.376-1.545,0.561c4.074-0.003,44.979-0.039,45.224-0.039C179.017,62.846,181.973,59.696,183.044,58.265z
			 M148.53,47.667c1.367-0.057,4.523,3.288,4.523,3.288l3.998,5.509L148.53,47.667z"/>
		<path class="st0" d="M133.329,58.261c0.766-0.433,1.598-0.928,2.463-1.489c4.313-3.279,10.863-8.885,10.863-16.128
			c0-2.595-1.064-4.955-2.633-6.868c-0.14-0.13-0.287-0.27-0.453-0.429c-3.422-3.316-12.079-3.433-14.867-3.381l-0.042,0.023
			c-1.519,0.089-4.2,0.457-5.973,1.886c-2.21,2.097-3.153-1.628-0.916-2.415c0.188-0.391,0.384-0.776,0.575-1.166
			c-0.37-0.253-0.721-0.589-1.064-0.885c-0.584-0.531-1.386-0.676-2.22-0.819c-0.825-0.131-1.658-0.214-2.427-0.289
			c-0.85-0.101-1.525-0.356-2.102-0.551c-0.518-0.19-1.127-0.43-1.77-0.713c2.351,2.658,5.228,7.089,7.718,9.662
			c1.36,0.365,2.544-0.318,2.544-0.318s1.195,2.675,3.789,4.019c2.45,1.27,11.694,8.024,13.341,9.808
			c0.903-1.256,1.687-2.585,2.276-3.945c0.392-0.985,0.704-1.979,0.834-2.966c0.117-0.986,0.069-1.949-0.146-2.837
			c0.367,0.833,0.57,1.819,0.577,2.865c-0.005,1.046-0.22,2.127-0.54,3.203c-0.698,2.133-1.871,4.212-3.285,6.044
			c-2.815,3.7-6.414,6.517-9.123,8.266c-1.363,0.868-3.032,1.853-4.941,2.744c-0.288,0.134-0.591,0.264-0.889,0.394
			c0.089-0.017,0.187-0.036,0.282-0.055c0.841-0.306,1.668-0.617,2.459-0.928C129.824,60.08,131.766,59.144,133.329,58.261z"/>
		<path class="st0" d="M119.193,62.737c2.124-0.702,4.163-1.553,5.993-2.448c1.831-0.896,3.438-1.859,4.756-2.698
			c2.043-1.318,4.614-3.24,7.004-5.639c-17.659-5.611-34.227-27.379-33.594-33.614c-9.494,5.492-3.063,9.246-17.003,11.295
			c12.216,20.595,24.112,21.974,24.112,21.974c-15.724-1.322-27.501-19.77-27.501-19.77c-3.578,3.719-13.58-1.77-19.793,2.574
			C70.071,49.867,83.97,54.02,83.97,54.02c-16.345-2.616-22.781-14.893-22.781-14.893c-7.827,2.892-14.781-0.485-22.108,4.209
			c6.753,6.331,13.206,11.173,18.626,14.748c-2.557-3.021-4.528-6.303-5.667-9.255c2.527,4.051,6.451,8.775,11.124,12.279
			c2.325,1.746,4.834,3.163,7.288,3.976c2.45,0.833,4.813,0.997,6.716,0.727l0.001,0.007c1.458-0.371,4.114-0.466,13.163,1.223
			c7.993,1.492,11.321-0.755,12.6-2.236c0,0-4.367-3.535-6.037-5.708c4.017,2.665,8.295,5.243,8.816,5.493
			c0.341,0.176,0.686,0.328,1.031,0.488c3.215-0.399,6.095-0.812,8.69-1.272C116.691,63.502,117.956,63.148,119.193,62.737z"/>
		<path class="st0" d="M29.882,107.094h-0.032c-0.208-2.26-0.634-5.153-0.938-7.472h-1.536c-0.291,2.244-0.72,5.374-0.954,7.543
			h-0.029c-0.079-1.934-0.394-5.333-0.631-7.543h-1.68l1.403,10.243h1.598c0.306-2.208,0.753-4.985,0.991-7.138h0.029
			c0.219,2.108,0.621,4.841,0.91,7.138h1.612l1.514-10.243h-1.596C30.303,101.943,30.002,105.094,29.882,107.094z"/>
		<path class="st0" d="M37.077,99.622l-1.65,10.243h1.607l0.358-2.74h1.577l0.403,2.74h1.651l-1.713-10.243H37.077z M37.593,105.672
			c0.205-1.511,0.513-3.705,0.556-4.549h0.058c0.117,1.158,0.34,2.809,0.575,4.549H37.593z"/>
		<polygon class="st0" points="43.895,101.088 45.54,101.088 45.54,109.865 47.12,109.865 47.12,101.088 48.774,101.088 
			48.774,99.622 43.895,99.622 		"/>
		<polygon class="st0" points="54.418,105.186 56.669,105.186 56.669,103.733 54.418,103.733 54.418,101.088 56.794,101.088 
			56.794,99.622 52.837,99.622 52.837,109.865 56.812,109.865 57.012,108.412 54.418,108.412 		"/>
		<path class="st0" d="M63.335,99.622h-2.189v10.243h1.58v-4.581h0.367c0.917,0,1.077,0.286,1.077,1.535
			c0,0.744-0.029,2.426,0.108,3.046h1.526c-0.11-0.621-0.094-2.285-0.094-3.147c0-1.391-0.341-1.821-0.939-2.101
			c0.397-0.162,1.043-0.562,1.043-2.136v-0.391C65.814,100.246,64.894,99.622,63.335,99.622z M64.232,102.552
			c0,1.115-0.308,1.429-1.143,1.429h-0.363v-3.054h0.447c0.895,0,1.059,0.482,1.059,1.274v0.352H64.232z"/>
		<path class="st0" d="M72.754,103.68c-0.9-0.66-1.038-1.013-1.038-1.737c0-0.679,0.135-1.125,0.648-1.125
			c0.525,0,0.645,0.431,0.645,1.144v0.505h1.566v-0.547c0-1.111-0.293-2.46-2.182-2.461c-1.85-0.002-2.257,1.361-2.257,2.711
			c0,1.516,0.589,2.073,1.691,2.942c1.099,0.867,1.336,1.209,1.336,2.31c0,0.666-0.159,1.249-0.775,1.249
			c-0.6,0-0.829-0.424-0.829-1.187v-0.633h-1.58v0.608c0,1.349,0.462,2.556,2.357,2.556c1.912,0,2.42-1.377,2.42-2.83
			C74.757,105.47,74.288,104.813,72.754,103.68z"/>
		<path class="st0" d="M84.264,99.622h-1.76c-0.563,1.409-1.441,3.614-1.834,4.628h-0.013v-4.628h-1.554v10.243h1.554v-3.233
			l0.66-1.38l1.338,4.613h1.72l-1.977-6.263L84.264,99.622z"/>
		<rect x="88.304" y="99.622" class="st0" width="1.58" height="10.243"/>
		<path class="st0" d="M104.778,103.704l-0.981,2.316l-0.944-1.49c1.12-0.909,1.472-1.49,1.472-2.724
			c0-1.526-0.675-2.307-2.002-2.307c-1.262,0-2.01,0.841-2.01,2.433c0,1.125,0.155,1.667,0.672,2.52
			c-0.864,0.753-1.288,1.371-1.288,2.702c0,1.705,0.702,2.831,2.215,2.831c0.834,0,1.434-0.358,1.95-1.061l0.608,0.943h1.765
			l-1.556-2.455l1.598-3.706h-1.499V103.704z M102.347,100.776c0.463,0,0.572,0.386,0.572,1.002c0,0.8-0.179,1.171-0.736,1.676
			c-0.344-0.582-0.41-0.953-0.41-1.684C101.772,101.23,101.908,100.776,102.347,100.776z M102.131,108.431
			c-0.568,0-0.893-0.437-0.893-1.415c0-0.72,0.101-1.1,0.436-1.485l1.396,2.164C102.827,108.188,102.599,108.431,102.131,108.431z"
			/>
		<path class="st0" d="M121.152,107.094h-0.032c-0.208-2.26-0.634-5.153-0.938-7.472h-1.536c-0.291,2.244-0.72,5.374-0.954,7.543
			h-0.029c-0.079-1.934-0.394-5.333-0.631-7.543h-1.68l1.403,10.243h1.598c0.306-2.208,0.753-4.985,0.991-7.138h0.029
			c0.219,2.108,0.621,4.841,0.91,7.138h1.612l1.514-10.243h-1.596C121.574,101.943,121.273,105.094,121.152,107.094z"/>
		<path class="st0" d="M128.349,99.622l-1.65,10.243h1.607l0.358-2.74h1.577l0.403,2.74h1.651l-1.713-10.243H128.349z
			 M128.864,105.672c0.205-1.511,0.513-3.705,0.556-4.549h0.058c0.117,1.158,0.34,2.809,0.575,4.549H128.864z"/>
		<path class="st0" d="M141.584,99.622h-1.76c-0.563,1.409-1.441,3.614-1.834,4.628h-0.014v-4.628h-1.554v10.243h1.554v-3.233
			l0.66-1.38l1.338,4.613h1.72l-1.977-6.263L141.584,99.622z"/>
		<polygon class="st0" points="147.191,105.186 149.442,105.186 149.442,103.733 147.191,103.733 147.191,101.088 149.567,101.088 
			149.567,99.622 145.611,99.622 145.611,109.865 149.585,109.865 149.786,108.412 147.191,108.412 		"/>
		<path class="st0" d="M157.527,104.389c0.449-0.186,0.951-0.606,0.951-2.058v-0.376c0-1.502-0.682-2.332-2.455-2.332h-2.104v10.243
			h2.242c1.782,0,2.505-0.913,2.505-2.645v-0.777C158.668,104.954,157.984,104.571,157.527,104.389z M155.446,100.927h0.489
			c0.756,0,1.058,0.328,1.058,1.178v0.4c0,1.016-0.264,1.289-1.147,1.289h-0.399v-2.867H155.446z M157.113,107.179
			c0,0.991-0.227,1.396-1.139,1.396h-0.527v-3.505h0.406c1.007,0,1.26,0.428,1.26,1.428V107.179z"/>
		<path class="st0" d="M165.493,99.472c-1.526,0-2.514,0.895-2.514,2.858v4.822c0,1.913,0.75,2.864,2.415,2.864
			c1.735,0,2.568-0.928,2.568-2.891v-4.784C167.962,100.369,167.047,99.472,165.493,99.472z M166.354,107.315
			c0,0.9-0.275,1.275-0.888,1.275c-0.57,0-0.877-0.4-0.877-1.252v-5.152c0-0.867,0.305-1.275,0.876-1.275
			c0.641,0,0.89,0.449,0.89,1.262v5.141H166.354z"/>
		<path class="st0" d="M173.523,99.622l-1.65,10.243h1.607l0.358-2.74h1.577l0.403,2.74h1.651l-1.713-10.243H173.523z
			 M174.038,105.672c0.205-1.511,0.513-3.705,0.556-4.549h0.058c0.117,1.158,0.34,2.809,0.575,4.549H174.038z"/>
		<path class="st0" d="M183.787,99.622h-2.189v10.243h1.58v-4.581h0.367c0.917,0,1.077,0.286,1.077,1.535
			c0,0.744-0.029,2.426,0.108,3.046h1.526c-0.11-0.621-0.094-2.285-0.094-3.147c0-1.391-0.341-1.821-0.939-2.101
			c0.397-0.162,1.043-0.562,1.043-2.136v-0.391C186.267,100.246,185.345,99.622,183.787,99.622z M184.684,102.552
			c0,1.115-0.308,1.429-1.143,1.429h-0.363v-3.054h0.447c0.895,0,1.059,0.482,1.059,1.274v0.352H184.684z"/>
		<path class="st0" d="M193.006,99.622h-2.192v10.243h2.189c2.436,0,2.705-1.722,2.705-3.289v-3.928
			C195.709,100.748,195.179,99.622,193.006,99.622z M194.099,106.792c0,1.061-0.159,1.73-1.197,1.73h-0.507v-7.541h0.497
			c1.041,0,1.207,0.603,1.207,1.545V106.792z"/>
		<path class="st0" d="M108.61,21.849c0.642,0.484,1.362,0.984,2.059,1.402c0.205,0.109,0.41,0.213,0.617,0.314
			c1.272,0.625,2.559,1.123,3.504,1.468c0.551,0.19,1.228,0.44,1.926,0.539c0.777,0.096,1.618,0.213,2.468,0.404
			c0.019,0.004,0.037,0.01,0.056,0.014c0.336,0.079,0.673,0.175,1.005,0.296c0.069,0.025,0.139,0.043,0.207,0.071
			c0.422,0.161,0.819,0.452,1.102,0.762c0.319,0.352,0.592,0.699,0.883,0.993c0.067,0.068,0.136,0.132,0.207,0.193
			c0.342,0.169,0.755,0.263,1.257,0.228c0.128-0.009,0.261-0.059,0.391-0.133l-0.385,0.972l0.036,0.009
			c3.381-1.265,6.504-1.005,7.264-0.916c2.708,0.148,4.879,0.474,6.607,0.868c-1.159-1.172-9.925-9.576-12.085-13.298
			c3.384,0.574,6.262,0.585,6.262,0.585c4.638,2.424,9.344,3.554,9.344,3.554c0.522,0.98,0.99,1.056,2.811,2.022
			c0.167,0.089,0.767,0.734,0.897,0.163c0.067-0.298-0.208-0.866-1.073-1.33c-0.526-0.281-0.313-0.309-0.459-0.813
			c0.779-0.606,1.132-0.574,1.879-0.294c0.548,0.206,1.845,1.666,2.115,1.536c0.637-0.305,0.003-1.525-0.494-1.976
			c-2.215-2.009-5.221-1.75-5.221-1.75c-3.229-2.493-6.37-4.013-9.043-4.555c-1.366-0.887-2.753-1.124-4.923-1.86
			c-1.485-0.505-2.868-1.617-4.435-1.562c-3.235,0.115-2.73,0.928-4.263,1.046c-1.865,0.144-1.951-1.91-1.951-1.91
			c0.263-0.758-0.042-2.547-0.221-3.736c-0.112-0.743-0.741-2.728-1.78-4.008c-0.623-0.768-1.395-1.282-2.291-1.121
			c-2.389,0.429-5.161,2.396-3.882,5.861c1.28,3.464,3.592,4.475,3.592,4.475c0.56,2.482-0.375,2.531-0.375,2.531
			c-0.692,0.134-1.314,0.406-1.867,0.74c0-0.001,0.001-0.005,0.001-0.005s-0.035,0.022-0.089,0.056
			c-0.027,0.018-0.06,0.039-0.099,0.064c-0.083,0.054-0.163,0.11-0.244,0.165c-0.055,0.038-0.116,0.083-0.179,0.128
			c-0.857,0.628-2.358,1.915-2.752,3.473c-0.408,1.615-0.052,2.639,0.52,3.366C107.823,21.225,108.214,21.532,108.61,21.849z
			 M113.157,18.022c0.853,0.403,1.608,1.05,2.294,1.706c0.34,0.336,0.672,0.666,0.996,0.985l0.241,0.237
			c0.057,0.056,0.028,0.026,0.04,0.036l0.003-0.001l0.075,0.011c0.24,0.038,0.461,0.093,0.675,0.152
			c0.854,0.236,1.595,0.526,2.217,0.772c0.618,0.249,1.349,0.566,2.131,0.944c0.391,0.191,0.794,0.396,1.201,0.623
			c0.33,0.161,0.052,0.129,0.434,0.068c0.25-0.047,0.521-0.067,0.791-0.03c0.153,0.019,0.3,0.062,0.442,0.118
			c0.011-0.023,0.024-0.047,0.035-0.068c-0.698-0.635-0.044-1.739,1.158-1.49c2.35,0.697,3.101,4.386,6.253,4.377
			c-2.549,0.92-4.012-1.528-6.078-2.54l-0.269,0.679c0.008,0.013,0.019,0.025,0.026,0.038c0.033,0.059,0.06,0.093,0.106,0.183
			c0.032,0.102,0.038,0.152,0.048,0.222c0.031,0.256,0.022,0.496-0.005,0.733c-0.089,0.851-0.494,1.628-1.057,2.059
			c-0.06,0.045-0.12,0.091-0.183,0.129c0.566-0.514,0.879-1.346,0.886-2.212c0.003-0.196-0.011-0.398-0.047-0.585
			c-0.003-0.018-0.004-0.037-0.007-0.054c-0.023-0.123-0.033-0.113-0.115-0.228c-0.06-0.092-0.131-0.172-0.203-0.251
			c-0.203-0.23-0.453-0.393-0.723-0.481c-0.028-0.003-0.057-0.007-0.085-0.008c0.002-0.005,0.005-0.009,0.007-0.014
			c-0.084-0.022-0.167-0.04-0.254-0.048c-0.199-0.017-0.402,0.007-0.608,0.055l-0.441,0.113l-0.407-0.217
			c-0.401-0.206-0.801-0.396-1.188-0.575c-0.775-0.356-1.498-0.662-2.105-0.907c-0.507-0.202-1.103-0.435-1.751-0.647
			c-0.128-0.042-0.255-0.085-0.388-0.124c-0.2-0.06-0.405-0.115-0.605-0.152l-0.253-0.043c-0.082-0.039-0.18-0.172-0.206-0.189
			l-0.239-0.25c-0.047-0.05-0.095-0.102-0.142-0.153c-0.265-0.285-0.531-0.574-0.807-0.871c-0.639-0.676-1.31-1.336-2.064-1.79
			c-0.334-0.212-0.69-0.36-1.047-0.462c-0.438-0.126-0.881-0.182-1.299-0.16c0.323-0.083,0.69-0.104,1.068-0.078
			C112.189,17.667,112.687,17.785,113.157,18.022z"/>
	</g>
</g>
</svg>
