<?xml version="1.0" encoding="utf-8"?>
<!-- Generator: Adobe Illustrator 27.2.0, SVG Export Plug-In . SVG Version: 6.00 Build 0)  -->
<svg version="1.1" id="Layer_1" xmlns="http://www.w3.org/2000/svg" xmlns:xlink="http://www.w3.org/1999/xlink" x="0px" y="0px"
	 viewBox="0 0 225 178.1" style="enable-background:new 0 0 225 178.1;" xml:space="preserve">
<style type="text/css">
	.st0{fill:#5D9380;}
	.st1{fill:#CA813C;}
	.st2{fill:#BB8A74;}
</style>
<g>
	<g>
		<g>
			<g>
				<g>
					<path class="st0" d="M42.6,44.5c-1.7,2.2-2.4,3.8,0.6,5.6l12.3,7.3c1.5,0.8,1.3,2.8-0.5,3.2c-2.2,0.5-6.7,1.6-10.2,2.4l9,5.3
						c1.5,0.8,1.3,2.7-0.5,3.2c-3.6,0.9-16.1,3.8-17.8,4.2c0.4,1.9,2.3,3,4,2c2.7-1.7,5.1,0.6,4.7,3.5c-0.8,4.8-11.4,3.7-9.8-6.9
						l1-6.2c0.1-0.4,0.5-0.4,0.8-0.1c0.8,1.1,1.7,1.1,3.2,0.8c0.2,0,6.3-1.4,9.7-2.2l-5.7-3.4l-3.3,0.8c-1.4,0.3-2.3,0.5-3.6,2
						c-0.4,0.5-0.8,0.2-0.7-0.2l1.4-8.8c0-0.2,0.1-0.2,0.2-0.3c0.1,0,0.2,0,0.3,0.1c0.1,0,0.2,0.1,0.2,0.2c0.8,1.1,1.7,1.1,3.2,0.8
						c0.2,0,6.3-1.4,9.7-2.2L43,51.3c-3.7-2.2-6.8-4.4-6.3-7.4C37.4,39.4,44.3,42.3,42.6,44.5z"/>
				</g>
			</g>
			<path class="st1" d="M58.9,38.2c3.4,1.8,4.6,6.3,2.6,10c-2,3.7-6.4,5.2-9.8,3.4c-3.4-1.8-4.6-6.3-2.6-10
				C51.1,37.9,55.5,36.4,58.9,38.2z M56.3,43c-2.9-1.6-5.7-2-6.3-0.9c-0.6,1.1,1.3,3.2,4.2,4.8c2.9,1.6,5.7,2,6.3,0.9
				C61.1,46.7,59.2,44.6,56.3,43z"/>
			<g>
				<g>
					<path class="st0" d="M83.3,23.3l-5.8,4.9c-0.6,0.5-1,0-0.9-0.5c0.4-3.3-6.3-9.1-8.1-7.4c-0.7,0.7-0.2,2.4,0.9,4.4
						c0.4,0.3,0.8,0.7,1.2,1.1l1.7,1.8c1,1,1.7,1.5,3.4,1.3c0.5,0,0.7,0.4,0.4,0.7l-5.5,5.2c-0.6,0.5-1,0.1-0.9-0.4
						c0.3-3.3-6.3-9.2-8.1-7.5c-0.6,0.5,0.1,2.2,0.9,3.8c2.6,3.2,5,5.1,6.3,4.8c0.5-0.1,1,0.3,0.4,0.9l-5,5.5
						c-0.3,0.3-0.7,0.1-0.7-0.4c0.2-1.7-0.7-3-1.6-4l-2.2-2.3c-1-1-1.7-1.5-3.4-1.3c-0.5,0-0.7-0.4-0.4-0.7c2.7-2.5,2.1-5.3,2.9-6.6
						c0.5-0.7,0.6,0,0.9,0.5l0.7,1c-0.3-1.4-0.3-2.7,0.6-3.6c1.8-1.6,4.3-1.8,6.6-0.8c-0.8-1.8-1.3-4.2,0.3-5.7
						c2.6-2.4,6.7-1.7,9.5,1.4l1.7,1.8c1,1,2.1,1.5,3.7,1.4C83.4,22.6,83.6,23.1,83.3,23.3z"/>
				</g>
			</g>
			<path class="st2" d="M94,15.2c-0.2,2.6-1.9,5-4.6,6.2c-3.9,1.7-8.2,0.2-9.8-3.4s0.2-7.8,4.4-9.7c2.7-1.2,6.5-0.7,7.5,1.6
				c1,2.3-0.4,5.1-3.1,6.3c-0.9,0.4-1.8,0.5-2.7,0.6c0.9,1,2.1,1.6,3.6,1.4c1.4-0.2,3.4-1.6,3.8-3.3C93.2,14.4,94.1,14.8,94,15.2z
				 M84,13.5c0.8,1.8,2.2,2.6,3,2.2c0.9-0.4,1-2.1,0.2-3.8c-0.8-1.7-2.1-2.9-3-2.5C83.7,9.7,83,11.3,84,13.5z"/>
			<path class="st1" d="M113.2,16.4l-7.6,0.5c-0.8,0.1-0.8-0.6-0.4-0.9c2.3-2.4,0-11.2-2.6-10.9c-0.8,0.1-1.4,1.3-1.9,2.8
				c0.2,4.9,1,7.7,2.2,8.4c0.5,0.2,0.6,0.9-0.2,1l-7.3,1.2c-0.4,0.1-0.6-0.4-0.3-0.8c1.2-1.2,1.3-2.2,1.2-3.6L95.9,11
				c-0.2-1.4-0.5-2.2-1.9-3.1c-0.4-0.3-0.3-0.7,0.1-0.8c3.6-0.4,4.9-3.1,6.3-3.5c0.8-0.2,0.5,0.4,0.5,0.9l0,0.8
				c0.6-1.1,1.5-2,2.7-2.1c4.1-0.5,7.1,2.5,7.6,6.7l0.3,2.5c0.2,1.4,0.6,2.3,2,3.3C113.7,15.9,113.6,16.4,113.2,16.4z"/>
			<g>
				<g>
					<path class="st0" d="M121.9,17.3c-0.4-0.1-0.4-0.6,0.1-0.8c1.6-0.6,2-0.8,2.4-2.2l0.9-3.1c0.4-1.4,0.4-2.2-0.6-3.6
						c-0.3-0.4,0-0.8,0.4-0.7c2.7,0.8,4.7-0.2,6.1-0.7c1.5-0.6,2.3-2.2,2.1-3.4c-0.1-0.5-0.4-0.9-0.8-1.3c0.2,0.6,0.1,1.2-0.2,1.9
						c-0.8,1.4-2.6,2.2-4.1,1.7c-1.5-0.4-2.1-1.9-1.3-3.3c0.6-1.1,1.7-1.8,3-1.8c2.9-0.3,4.2,1.3,4.5,2.6c0.2,1.4-0.4,3.1-1.8,4.1
						l-0.2,0.4c-2.9,6.2-3.6,10-2.6,11.4c0.3,0.4,0.1,1-0.6,0.8L121.9,17.3z"/>
				</g>
			</g>
			<path class="st2" d="M146.1,28.8l-6.5-3.9c-0.7-0.4-0.3-0.9,0.2-1c3.2-0.7,7-9.1,4.7-10.5c-0.7-0.4-1.9,0.2-3.2,1.1
				c-2.8,3.9-3.9,6.9-3.4,8.2c0.2,0.5-0.1,1-0.8,0.6l-6.4-3.8c-0.3-0.2-0.2-0.7,0.3-0.8c1.7-0.2,2.3-0.8,3-2l1.6-2.8
				c0.7-1.2,0.9-2,0.3-3.6c-0.2-0.5,0.2-0.8,0.5-0.6c3.1,1.9,5.7,0.5,7.1,1c0.8,0.3,0.1,0.6-0.2,1l-0.5,0.6c1.2-0.5,2.4-0.6,3.5,0
				c3.5,2.1,4.1,6.3,1.9,9.9l-1.3,2.2c-0.7,1.2-0.9,2-0.3,3.6C146.8,28.7,146.4,29,146.1,28.8z"/>
			<g>
				<g>
					<path class="st0" d="M166.4,45.3c-0.2,0.2-2.8,1.4-3.7,2c-0.7,0.4-1.1,0.4-1.5-0.2l-8.6-11.3c-0.2-0.3,0.1-0.7,0.6-0.6
						c1.6,0.4,2.4,0.1,3.5-0.7l11.4-8.6c-1.6-2.2-4.6-1.6-5.1,0.7c-0.6,3.1-4,3.2-5.8,0.9c-2.9-3.9,5.3-10.7,11.8-2.2l3.9,5.2
						c0.5,0.7,0,1-0.5,0.9c-1.8-0.5-5.8,2.4-7.9,4c-2,1.5-5.8,4.5-6,6.3l0.7,1c1.4,1.9,5.2,2,6.8,2
						C166.5,44.6,166.7,45.1,166.4,45.3z"/>
				</g>
			</g>
			<path class="st1" d="M166.6,63.4l-1.3-3.7c-0.7-1.9,0.8-3.3,0.8-3.3c-1.3-0.4-2.5-1.5-3-2.9c-0.8-2.4,0.4-5.1,2.7-5.9
				c2.3-0.8,4.9,0.5,5.8,2.9c0.5,1.4,0.3,3-0.5,4.1l1.1-0.4c2.1-0.7,4.2-2.4,3.7-3.7c-0.2-0.5-1.1-0.2-1.8,0.5
				c-1.5,1.4-4.1-3.8-2-4.5c1.5-0.5,3.8,0.7,5,4c1.4,3.8-0.3,7.7-4.2,9.1l-2.9,1c-1.3,0.5-2,1-2.5,2.5
				C167.3,63.7,166.7,63.8,166.6,63.4z M168.6,55.4c1.3-0.4,2-1.6,1.7-2.6c-0.3-1-1.7-1.4-2.9-1s-2,1.6-1.7,2.6
				C166,55.4,167.3,55.8,168.6,55.4z"/>
			<path class="st2" d="M182.4,84.5c-0.9-1.3-2-1.6-3.4-1.9l-8.9-1.8c-0.8-0.2-1.5-0.5-1.5-1.3l-0.2-2.5c-0.1-1.2,0.3-1.6,1.3-2.1
				l4.9-2l0.8-0.3l-6.2-1.3c-0.8-0.2-1.5-0.4-1.5-1.3l-0.2-2.5c-0.1-1.2,0.3-1.7,1.3-2.1c1-0.4,3.8-1.5,6.8-2.9
				c8.7-3.9,11-6.1,10.9-7.4c-0.1-1.5-3.5-0.3-4.5-3.1c-1.6-4.6,3.1-5.5,4.7-2.4c3.4,6.5-0.6,14.1-11.5,18.6
				c-1.9,0.8-4.4,2.1-4.5,2.2c0,0,4.7,0.7,7.9,0.5c1.4-0.8,2-1.5,2.3-2.2c0.3-0.5,0.9-0.8,1,0l0.8,8.2c0,0.4-0.4,0.7-0.8,0.5
				c-2.6-1.9-9.9,2.3-10.2,2.5c0,0,8.9,1.4,10.5-0.2c0.3-0.3,0.8-0.2,0.8,0.3l0.4,4.4C183.2,84.9,182.7,85,182.4,84.5z"/>
		</g>
	</g>
	<path class="st2" d="M77.9,87.4c-7.6-0.4-8.7-1.6-9.2-9.2c0-0.2-0.3-0.2-0.3,0c-0.4,7.6-1.6,8.7-9.2,9.2c-0.2,0-0.2,0.3,0,0.3
		c7.6,0.4,8.7,1.6,9.2,9.2c0,0.2,0.3,0.2,0.3,0c0.4-7.6,1.6-8.7,9.2-9.2C78.1,87.7,78.1,87.4,77.9,87.4z"/>
	<path class="st0" d="M59.7,129.3c-6.4-0.4-7.4-1.4-7.8-7.8c0-0.2-0.3-0.2-0.3,0c-0.4,6.4-1.4,7.4-7.8,7.8c-0.2,0-0.2,0.3,0,0.3
		c6.4,0.4,7.4,1.4,7.8,7.8c0,0.2,0.3,0.2,0.3,0c0.4-6.4,1.4-7.4,7.8-7.8C59.9,129.5,59.9,129.3,59.7,129.3z"/>
	<path class="st1" d="M53.4,99.3c-4.2-0.2-4.9-0.9-5.1-5.1c0-0.1-0.2-0.1-0.2,0c-0.2,4.2-0.9,4.9-5.1,5.1c-0.1,0-0.1,0.2,0,0.2
		c4.2,0.2,4.9,0.9,5.1,5.1c0,0.1,0.2,0.1,0.2,0c0.2-4.2,0.9-4.9,5.1-5.1C53.5,99.5,53.5,99.4,53.4,99.3z"/>
	<path class="st1" d="M76.6,116.1c-4.2-0.2-4.9-0.9-5.1-5.1c0-0.1-0.2-0.1-0.2,0c-0.2,4.2-0.9,4.9-5.1,5.1c-0.1,0-0.1,0.2,0,0.2
		c4.2,0.2,4.9,0.9,5.1,5.1c0,0.1,0.2,0.1,0.2,0c0.2-4.2,0.9-4.9,5.1-5.1C76.7,116.2,76.7,116.1,76.6,116.1z"/>
	<path class="st0" d="M186.1,125.4c-7.7-0.4-8.9-1.6-9.3-9.3c0-0.2-0.3-0.2-0.3,0c-0.4,7.7-1.6,8.9-9.3,9.3c-0.2,0-0.2,0.3,0,0.3
		c7.7,0.4,8.9,1.6,9.3,9.3c0,0.2,0.3,0.2,0.3,0c0.4-7.7,1.6-8.9,9.3-9.3C186.3,125.7,186.3,125.4,186.1,125.4z"/>
	<path class="st0" d="M166.7,94.6c-7.7-0.4-8.9-1.6-9.3-9.3c0-0.2-0.3-0.2-0.3,0c-0.4,7.7-1.6,8.9-9.3,9.3c-0.2,0-0.2,0.3,0,0.3
		c7.7,0.4,8.9,1.6,9.3,9.3c0,0.2,0.3,0.2,0.3,0c0.4-7.7,1.6-8.9,9.3-9.3C166.9,94.9,166.9,94.7,166.7,94.6z"/>
	<path class="st2" d="M147.2,79.7c-3.4-0.2-3.9-0.7-4.1-4.1c0-0.1-0.1-0.1-0.1,0c-0.2,3.4-0.7,3.9-4.1,4.1c-0.1,0-0.1,0.1,0,0.1
		c3.4,0.2,3.9,0.7,4.1,4.1c0,0.1,0.1,0.1,0.1,0c0.2-3.4,0.7-3.9,4.1-4.1C147.3,79.8,147.3,79.7,147.2,79.7z"/>
	<path class="st2" d="M152.4,115.4c-5.6-0.3-6.4-1.1-6.7-6.7c0-0.1-0.2-0.1-0.2,0c-0.3,5.6-1.1,6.4-6.7,6.7c-0.1,0-0.1,0.2,0,0.2
		c5.6,0.3,6.4,1.1,6.7,6.7c0,0.1,0.2,0.1,0.2,0c0.3-5.6,1.1-6.4,6.7-6.7C152.5,115.6,152.5,115.4,152.4,115.4z"/>
	<path class="st1" d="M182,101.3c-3.1-0.2-3.6-0.6-3.8-3.8c0-0.1-0.1-0.1-0.1,0c-0.2,3.1-0.6,3.6-3.8,3.8c-0.1,0-0.1,0.1,0,0.1
		c3.1,0.2,3.6,0.6,3.8,3.8c0,0.1,0.1,0.1,0.1,0c0.2-3.1,0.6-3.6,3.8-3.8C182.1,101.4,182.1,101.3,182,101.3z"/>
	<path class="st1" d="M160.1,133.7c-3.1-0.2-3.6-0.6-3.8-3.8c0-0.1-0.1-0.1-0.1,0c-0.2,3.1-0.6,3.6-3.8,3.8c-0.1,0-0.1,0.1,0,0.1
		c3.1,0.2,3.6,0.6,3.8,3.8c0,0.1,0.1,0.1,0.1,0c0.2-3.1,0.6-3.6,3.8-3.8C160.2,133.8,160.2,133.7,160.1,133.7z"/>
	<path class="st0" d="M91.2,98c-3.1-0.2-3.6-0.6-3.8-3.8c0-0.1-0.1-0.1-0.1,0c-0.2,3.1-0.6,3.6-3.8,3.8c-0.1,0-0.1,0.1,0,0.1
		c3.1,0.2,3.6,0.6,3.8,3.8c0,0.1,0.1,0.1,0.1,0c0.2-3.1,0.6-3.6,3.8-3.8C91.2,98.1,91.2,98,91.2,98z"/>
	<path class="st2" d="M88.8,131.1c-3.1-0.2-3.6-0.6-3.8-3.8c0-0.1-0.1-0.1-0.1,0c-0.2,3.1-0.6,3.6-3.8,3.8c-0.1,0-0.1,0.1,0,0.1
		c3.1,0.2,3.6,0.6,3.8,3.8c0,0.1,0.1,0.1,0.1,0c0.2-3.1,0.6-3.6,3.8-3.8C88.9,131.2,88.9,131.1,88.8,131.1z"/>
	<g>
		<g>
			<path class="st1" d="M95.4,36.2L95.4,36.2L95.4,36.2L95.4,36.2L95.4,36.2C95.4,36.2,95.4,36.2,95.4,36.2c0-0.2,0.1-0.2,0.2-0.3
				c0.1-0.1,0.2-0.1,0.3-0.2c0.1-0.1,0.2-0.3,0.2-0.3s0.1-0.2,0.2-0.3c0.1-0.2,0-0.4-0.1-0.5c0,0,0.1-0.1,0.1-0.1c0,0,0,0,0,0
				c-0.1,0-0.2,0-0.3,0.1c-0.1,0-0.1,0.1-0.2,0.1c0,0-0.1,0.1-0.1,0.1c0,0-0.1,0.1-0.1,0.2c0,0,0,0,0,0c-0.1,0.1-0.2,0.1-0.3,0.2
				l0,0c-0.1,0.2-0.2,0.3-0.2,0.3c0,0,0,0,0,0c0,0,0,0,0,0.1c0,0,0,0,0,0c0,0.1,0,0.1,0,0.1L95,35.7l0.2-0.2l0,0
				c0-0.1,0.1-0.1,0.1-0.2c0.1-0.1,0.1-0.2,0.2-0.3c0.1-0.1,0.1-0.2,0.1-0.3c0-0.1,0-0.2,0-0.3c0-0.1,0-0.1,0-0.2s0-0.1,0-0.2
				c0-0.1-0.1-0.1-0.1-0.1c0,0,0-0.1,0-0.1c0,0,0,0,0,0c-0.1,0-0.2,0.1-0.3,0.2c0,0.1-0.1,0.1-0.1,0.2c0,0-0.1,0.1-0.1,0.1
				c0,0.1,0,0.1,0,0.2c0,0,0,0,0,0c-0.1,0.2-0.2,0.3-0.4,0.5c0,0,0,0-0.1,0.1l-0.5,1.1c0,0,0,0,0,0.1L95.4,36.2L95.4,36.2z"/>
			<path class="st1" d="M139.9,34.9l-0.9,0.2c-1.1,1.9-6.2,11-9.5,16.9c0.1,0.2,0.3,0.4,0.4,0.6c1.4-2.5,2.8-5,4.2-7.4
				c1.9-3.4,3.8-6.7,5.7-10.1C139.9,35,139.9,35,139.9,34.9z"/>
			<path class="st1" d="M153.1,57.9c-0.3-0.1-0.3-0.1-0.3-0.1s-0.5-1.1-0.7-1.5c-1.6-3.2-3.1-6.3-4.7-9.5c-1.1-2.1-2.1-4.3-3.2-6.4
				c-0.9-1.9-1.9-4-2.9-5.9c0.1,0,0.2,0,0.3-0.1c0-0.1-0.1-0.3-0.1-0.4c-0.1-0.1-0.1-0.2-0.2-0.3c-0.1-0.2-0.3-0.3-0.4-0.4
				c-0.5-0.3-1.1-0.3-1.6-0.3c0,0-0.1,0-0.1,0l-2,0.2c-9.5,0.7-37.8,2.8-37.8,2.8l-0.4,0c0-0.1-0.1-0.2-0.1-0.3
				c-0.1-0.2-0.2-0.4-0.3-0.6c0-0.1,0-0.1-0.1-0.2c0,0-0.1-0.1-0.1-0.1c0,0-0.1,0-0.1,0c-0.1,0-0.2,0.1-0.2,0.2c0,0,0,0,0,0
				c-0.1,0.1-0.1,0.3-0.1,0.4c0,0.1,0,0.2,0,0.2c0,0.1,0.1,0.3,0.1,0.4c0.1,0.3,0.3,1,0.3,1.6c0,0.1,0,0.2,0,0.4c0,0,0-0.1-0.1-0.3
				c0-0.2-0.1-0.3-0.2-0.5c-0.1-0.4-0.3-0.8-0.4-1.1l-1,0.1c0,0,0.1-0.1,0.1-0.1c0,0,0-0.1,0-0.1c0,0,0.1,0,0.1,0c0,0,0,0,0,0
				c-0.1-0.1-0.2,0-0.3,0c-0.1,0-0.1,0-0.2,0c-0.1,0-0.1,0-0.1,0c-0.1,0-0.1,0-0.1,0.1c-0.2,0-0.5,0.1-0.6,0.1c0,0,0,0,0,0.1
				c0,0,1,0,1,0c0,0-0.9,0.1-0.9,0.1c0,0-14.5,1.1-15.7,1.2c-0.4,0-0.7,0.2-0.9,0.6c-0.1,0.2-0.3,0.4-0.4,0.7c0,0,0,0.1,0,0.1
				c0,0.1,0.2,0.1,0.2,0.1l0.4,0.1c-1.8,3.1-13,22.5-13,22.5s-0.1,0-0.3,0c-0.3,0.1-0.5,0.4-0.4,0.8c0.1,0.3,0.2,0.4,0.5,0.4
				c0.2,0,0.4,0.1,0.5,0.3c0.2,0.9,0.7,1.7,1.2,2.5c1.3,1.8,3.1,2.9,5.1,3.8c0.3,0.1,0.7,0.1,0.8,0.4c0.2,0.3,0,0.6,0,0.9
				c0,0.4,0.1,0.5,0.5,0.6l0.5,0c1,0.1,2,0.1,3,0.1c2,0,4,0.1,6,0.1c0.4,0,0.6-0.2,0.6-0.6c0-0.1,0-0.3,0-0.4
				c-0.1-0.5-0.1-0.5,0.4-0.7c1.3-0.4,2.5-1,3.6-1.8c1.6-1.1,2.8-2.5,3.5-4.3c0.1-0.3,0.3-0.3,0.6-0.3c0.3,0,0.5-0.1,0.5-0.4
				c0-0.3,0.1-0.6-0.2-0.8c-0.3-0.1-0.3-0.1-0.3-0.1s-0.5-1.1-0.7-1.4c-1.9-3.9-3.8-7.8-5.8-11.7c-1.5-3-4.4-9-4.9-10l-0.6,0.3
				c1,2,1.9,3.8,2.9,5.9c1.9,3.9,3.8,7.8,5.8,11.7c0.8,1.6,2.3,4.7,2.3,4.7l0.2,0.5c0,0-2.8-0.1-4-0.1c-1.8,0-3.5-0.1-5.3-0.1
				c-2.2-0.1-4.5-0.1-6.7-0.2c-2.1-0.1-4.2-0.1-6.3-0.2c-0.7,0-2.5-0.1-2.5-0.1l13-22.2l-0.1-0.2l1.1-0.1l14.3-1.1
				c0,0,0.2,0.3,0.3,0.4c0.2,0.2,0.4,0.5,0.6,0.7c0.2,0.2,0.5,0.4,0.7,0.6c0.4,0.4,0.8,0.8,1.1,1.2c0.3,0.4,0.6,0.7,0.7,1.1
				c0.2,1.5,2.4,8.4,3.6,10.8c1.2,2.5,2.8,5.8,4.7,7.9c0.9,1.1,1.8,2.2,2.5,3.4c0,0-1.6,1.5-1.8,1.7c-1.3,1-2,3.2-1.5,4.7
				c1.8,6.1,0.3,14.5,0.3,16.3c0.1,0.4,0.2,0.9,0.3,1.3c0.3,1.2,0.7,2.4,1,3.2c0.3,0.8,0.8,1.9,1.4,3c0.6,1.1,1.3,2.1,1.9,3
				c-3.3-2.8-4.4-7-4.5-7.2c0.3,5,0.8,11.3-0.6,14.7c-2.1,5.1-3.4,15.2-3.7,17.5c0,0.3,0.2,0.5,0.5,0.5c1.2-0.1,4.1-0.1,2.8,1
				c-0.8,0.7,0.7,0.5,1.1,0.5c1.2-0.2,2.4-0.6,3.7-0.8c0,0,0.1,0,0.3,0c0,0,0,0,0,0c0.1,0,0.3,0,0.4,0c0.2,0,0.4,0,0.6,0
				c0.2,0,0.3,0,0.5,0c0,0,0,0,0,0h0c0,0-0.9,0.2-1.5,0.4c0.2,1.6,0.4,4,0,5.9c-0.3,1.5-2.9,5.5-5.3,6.4c-0.5,0.2-0.9,0.5-0.9,1.1
				c0,0.3,0,0.5,0.2,0.8c-0.2,0-0.3,0-0.5,0c-1.7,0.1-7.1,0.4-10,1.6c0,0,0.5-0.6,2.1-1.1c-3.6,0.3-5.8,0.8-5.8,1.2
				c0,1,10.5,1.9,23.4,1.9c2.4,0,4.7,0,6.9-0.1c0.2,0,8.2-0.3,10.8-1.9c0,0-0.5,0.8-1.9,1.5c4.7-0.3,7.7-0.8,7.7-1.4
				c0-0.8-6.3-1.5-15.1-1.8c0.1-0.8,0.4-4.1,0.8-5.2c0.4-1.1,0-2.6-1-3.4c-0.6-0.4-1.1-4.9-1.2-6.6c0-0.3,0.7-1.2,2.7,0.5
				c2,1.7,0.9-13.8,1.1-16.1c0.1-0.8,0.2-1,0.2-1.7c0.1-2.9,0-5.7-0.3-8.6c-0.1,0.9-0.2,1.7-0.4,2.6c-0.4,1.9-1.2,3.6-1.9,4.7
				c-0.7,1.2-1.7,2.7-3.1,4c-0.3,0.3-0.7,0.7-1.1,0.9c-0.4,0.3-0.7,0.6-1.1,0.8c-0.8,0.5-1.6,0.8-2.4,0.8c1.5-0.4,2.8-1.8,4-3.1
				c1.2-1.4,2.2-2.8,2.8-4c0.6-1.1,1.4-2.7,1.9-4.5c0.3-1.1,0.6-2.3,0.8-3.3c0-0.4,0-1.1,0-1.6c-0.3-2-0.7-3.9-1.3-5.8
				c-0.4-1.5-2.2-5.1-2.6-9.8c-0.3-3.7,1.5-6.4,2.3-7.3c0.1-0.2,0.2-0.4,0.3-0.5c0.3-0.6,1-1.6,1.7-2.1c-0.4,0.7-1.1,1.7-1.4,2.3
				c-0.1,0.1-0.1,0.2-0.2,0.3c0.1,1.2,0.5,6.1,0.6,7c0,0.1,0.1,0.2,0.1,0.3c0.1,0.3,0.3,0.8,0.5,1.2c0.2,0.4,0.5,0.8,0.8,1.1
				c-0.4-0.2-0.8-0.5-1.1-1c-0.1-0.1-0.1-0.2-0.1-0.2c0.2,1.3,0.5,2.7,0.8,4c0.6,2.5,2.6,9.2,3.6,10.8c0.2,0.3,0.3,0.6,0.4,0.9
				c0,0.2,0.1,0.3,0.1,0.5c0,0.2,0,0.4-0.1,0.5c0,0.2-0.1,0.3,0,0.5c0,0.2,0,0.3,0.1,0.5c0.1,0.3,0.2,0.6,0.3,0.9
				c0.1,0.2,0.1,0.3,0.1,0.5c0,0.2,0.1,0.3,0.1,0.5c0,0.2,0.1,0.3,0.1,0.5c0.1,0.2,0.1,0.3,0.2,0.5c0,0.1,0,0.1,0,0.2
				c0,0,0,0.1,0.1,0.1c0,0,0.1,0,0.1,0c0.1,0,0.2-0.1,0.1-0.2c0,0,0,0,0,0c0.1-0.1,0.1-0.2,0.1-0.3c0-0.1,0-0.1,0-0.2
				c0-0.2-0.1-0.4-0.1-0.6c0-0.1,0-0.2-0.1-0.3c-0.1-0.3-0.1-0.6-0.1-0.8c0-0.3,0.1-0.7-0.1-0.9c0.1,0.1,0.2,0.3,0.3,0.4
				c0,0.1,0,0.3,0,0.4c0.1,0,0.2,0,0.4,0c0.2,0,0.3,0.1,0.4,0.2c0.1,0.1,0.3,0.2,0.4,0.3c0,0,0.3,0.3,0.6,0.6c0,0-0.1,0-0.1,0
				c-0.1,0-0.2,0-0.2,0.1c-0.1,0-0.2,0.1-0.2,0.1c0,0-0.1,0.1-0.1,0.1c0,0-0.1,0.1-0.1,0.1c0,0,0,0.1,0,0.1c0,0-0.1,0-0.1,0.1
				c0.1,0.1,0.2,0.1,0.2,0c0.1,0,0.1,0,0.2,0c0,0,0.1,0,0.1,0c0,0,0.1,0,0.1-0.1c0.1,0,0.4,0,0.5-0.1c0,0,0-0.1-0.1-0.2
				c0,0,0.2,0.2,0.2,0.2c0,0,0,0,0,0.1c0,0.1-0.1,0.1-0.2,0.2c-0.1,0-0.2,0.1-0.2,0.2c-0.1,0.1-0.2,0.2-0.2,0.2s-0.1,0.2-0.2,0.2
				c-0.1,0.2,0,0.4,0,0.4c0,0,0,0-0.1,0.1c0,0,0,0,0,0c0.1,0,0.2,0,0.3-0.1c0.1,0,0.1-0.1,0.2-0.1c0,0,0.1,0,0.1-0.1
				c0,0,0.1-0.1,0.1-0.1c0.1,0,0.2-0.1,0.3-0.2c0.1-0.1,0.2-0.2,0.2-0.3c0,0,0,0,0-0.1c0-0.1,0-0.1,0-0.1l0,0.2l-0.2,0.2l0,0
				c0,0.1-0.1,0.1-0.1,0.2c-0.1,0.1-0.1,0.1-0.2,0.2c-0.1,0.1-0.1,0.2-0.1,0.3c0,0.1,0,0.2-0.1,0.3c0,0,0,0.1,0,0.1c0,0,0,0.1,0,0.1
				c0,0,0.1,0.1,0.1,0.1c0,0,0,0.1,0,0.1c0,0,0,0,0,0c0.1,0,0.2-0.1,0.2-0.2c0,0,0.1-0.1,0.1-0.1c0,0,0.1-0.1,0.1-0.1
				c0,0,0-0.1,0-0.2c0.1-0.1,0.2-0.3,0.3-0.4c0,0,0,0,0-0.1c0,0.1,0,0.1,0.1,0.2c0.1,0.1,0.1,0.3,0.2,0.4c0.1,0.1,0.2,0.2,0.3,0.3
				c0,0,0.1,0,0.1,0c0,0,0,0,0,0c0,0,0,0,0,0c0,0,0,0,0,0.1c0,0,0,0,0,0c0,0,0-0.1,0-0.1c0,0,0,0,0-0.1c0-0.1,0-0.1,0-0.1
				c0-0.1,0-0.2-0.1-0.3c0,0,0,0,0-0.1c0,0,0,0,0,0s0,0,0,0l0,0c-0.1-0.2-0.1-0.3-0.2-0.5c0-0.1-0.1-0.2-0.1-0.3
				c-0.2-0.5-0.4-1-0.8-1.5c0,0,0.4,0.3,0.8,1.3c0-0.1,0.1-0.1,0.1-0.2c0-0.1-0.7-1.7-1-2.1c-0.1-0.2-0.3-0.4-0.5-0.6
				c-0.2-0.2-0.4-0.4-0.6-0.6c-0.3-0.3-0.6-0.7-0.9-1.2c-0.2-0.4-0.4-0.9-0.5-1.3c0-0.1,0-0.1,0-0.2c0,0,0,0,0,0c0,0,0,0,0,0
				c-0.4-1.4-1.1-4.2-1.1-6.1c0.1-1.8,0.2-3.5,0.2-5.3c0-1.3-0.1-2.5-0.4-3.7c-0.2-0.9-0.4-1.8-0.5-2.7c-0.3-2-0.1-5.8,0.2-6.7
				c0-0.2,0.1-0.3,0.1-0.5s0.1-0.3,0.1-0.4c0.1-0.2,0.1-0.3,0.2-0.4c0.1-0.2,0.2-0.5,0.2-0.7c0.1-0.4,0.1-0.9,0-1.4c0,0,0-0.1,0-0.1
				c-0.1-0.6-0.4-1.1-0.8-1.6c-0.4-0.5-0.9-0.9-1.5-1.2c-0.6-0.3-1.1-0.4-1.7-0.5c0.5,0,1.2,0,1.8,0.3c0.2,0.1,0.3,0.1,0.4,0.2
				c0,0,0,0,0,0c0.4,0.2,0.8,0.6,1.2,0.9c0.3,0.3,0.5,0.7,0.7,1.1c0.1,0.2,0.2,0.5,0.2,0.7c0,0.1,0,0.2,0,0.3c0.9,0.2,1.9,0,1.9,0
				c-0.7-0.2-1.5-2.4-1.5-2.4c0.6,0.8,1.8,1.1,1.8,1.1c-0.6-0.6-0.9-1.1-1.1-1.6c-0.2-0.5-0.3-1-0.6-1.5c-0.3-0.3-0.7-0.6-1-0.8
				c-0.3-0.2-0.7-0.5-1.1-1c0,0,0-0.1-0.1-0.1c0,0-0.1-0.1-0.1-0.1c-0.2-0.3-0.4-0.7-0.5-1c0-0.1,0-0.1,0-0.2
				c0.1,0.1,0.1,0.2,0.2,0.3c0.1,0.2,0.3,0.4,0.5,0.5c0.1,0.1,0.2,0.2,0.3,0.3c0.3,0.3,0.6,0.5,0.9,0.7c0.1,0,0.1,0.1,0.2,0.1
				c0.3,0.2,0.7,0.6,1,1c0.2,0.2,0.3,0.5,0.4,0.7c0.1,0.1,0.3,0.3,0.4,0.4c0.1-0.5-0.1-1.2-0.4-1.8c-0.3-0.6-0.7-1-1.1-1.3
				c-0.1-0.1-0.1-0.1-0.2-0.2c0.7,0.3,1.4,0.5,2,0.6c-0.5-0.5-1.1-0.9-1.6-1.4c-0.1,0-0.2-0.1-0.2-0.1c-0.4-0.2-0.8-0.5-1-0.8
				c-0.1-0.1-0.3-0.3-0.4-0.5c0,0,0,0-0.1-0.1c0-0.1-0.1-0.1-0.1-0.2c0,0,0,0,0-0.1c0-0.1-0.1-0.1-0.1-0.2c0-0.1-0.1-0.1-0.1-0.2
				c0-0.1-0.1-0.2-0.1-0.3c-0.1-0.2-0.1-0.5,0-0.7c0-0.1,0-0.1,0.1-0.2c0,0.2,0.1,0.3,0.1,0.5c0,0,0,0,0,0c0,0.1,0.1,0.1,0.1,0.2
				c0.1,0.1,0.2,0.3,0.3,0.4c0.2,0.2,0.4,0.5,0.5,0.6c0,0,0-0.1-0.1-0.1c0.1,0.1,0.1,0.1,0.2,0.2c0.5,0.4,1,0.8,1.5,0.9
				c-0.2-0.3-0.3-0.6-0.5-0.9c-0.2-0.3-0.3-0.5-0.5-0.8c-0.1-0.1-0.5-0.9-0.5-0.9s1,0.3,1.2,0.3c-0.3-0.4-0.7-0.6-1-1
				c-0.1-0.1-0.1-0.2-0.2-0.3c-0.1-0.1-0.2-0.1-0.3-0.2c-0.2-0.1-0.4-0.3-0.6-0.5c0,0,0,0,0,0c-0.2-0.2-0.3-0.5-0.4-0.7
				c0,0,0,0,0-0.1c0,0,0-0.1,0-0.1c-0.1-0.1-0.1-0.2-0.1-0.3c0,0,0-0.1,0-0.1c-0.1-0.3-0.2-0.6-0.4-1c0-0.1-0.1-0.2-0.1-0.3
				c-0.3-0.7-0.6-1.3-0.9-1.8c0.4,0.2,0.7,0.7,1,1.1c0.1,0.2,0.2,0.3,0.3,0.5c0.3,0.7,0.5,1.3,0.8,1.8c0.1,0.2,0.3,0.5,0.5,0.8
				c0.1,0.1,0.2,0.2,0.4,0.3c0.1,0.1,0.2,0.2,0.3,0.2c0,0,0.1,0.1,0.1,0.1c0,0,0.1,0,0.1,0c0.5,0.2,1.1,0.3,1.5,0.2
				c-0.4-0.3-0.7-0.6-1-1.1c-0.1-0.1-0.1-0.2-0.2-0.3c-0.1-0.1-0.1-0.2-0.2-0.3c-0.3-0.4-0.6-0.9-0.8-1.4c-0.3-0.6-0.6-1.2-0.9-1.7
				c-0.1-0.3-0.3-0.5-0.4-0.8c0-0.1-0.2-0.3-0.3-0.5c-0.1-0.1-0.2-0.3-0.3-0.4c-0.7-1-2-1.9-3.6-2.3c-0.8-0.2-1.6-0.3-2.3-0.2
				c-0.7,0.1-3,0.8-3.9,1.6c-0.3,0.3-2.4,2.3-2.8,5.5s0.4,6.2,1.7,7.1c2,0.8,3.8-0.4,3.8-0.4s-1.5,1.7-2.8,2.1
				c-0.2,0.1-2,0.2-3.2-0.5c-1.3-1.2-2.4-2.5-3.5-3.9c-0.5-0.7-1-1.5-1.5-2.2c-0.7-1.1-1.7-1.9-2.6-2.8c-0.1-0.1-0.1-0.1-0.2-0.2
				c0.1,0.5,0.1,0.9,0,1.3c-0.2-0.7-0.5-1.9-0.7-2.5c-0.6-1.4-1-3.2-1.6-4.1c-0.8-1.3-1.8-3.2-2.5-4.4c0-0.1-0.1-0.2-0.2-0.3
				c-0.3-0.6-0.5-0.9-0.5-0.9c0-0.1-0.1-0.1-0.1-0.2c-0.1-0.2-0.1-0.4-0.1-0.5c0-0.2,0-0.4,0-0.6c0-0.2,0-0.4,0-0.6
				c0-0.2-0.1-0.4-0.1-0.5c-0.1-0.3-0.2-0.5-0.3-0.7l37.4-2.9l1.1-0.1l1.1-0.1l0.8-0.1l0.7,0c0,0,0.2,0,0.4,0l-0.3,0.1
				c0.6,1.2,1.2,2.4,1.8,3.7c1.4,2.9,2.8,5.8,4.3,8.6c1.7,3.4,5.3,10.8,5.3,10.8s-6.9-0.2-10-0.3c-2.3-0.1-4.6-0.1-6.9-0.2
				c-1.6,0-3.2-0.1-4.9-0.1c0.1,0.1,0.2,0.3,0.2,0.4l0.7,1.3l1.3,2l-1.5-0.4c0.3,0.7,0.6,1.6,0.5,2.1l-0.2,0.9
				c0.1,0.2,0.3,0.4,0.5,0.6l0.2,0.2c0.5,0.3,1.1,0.5,1.6,0.8c0.5,0.2,0.5,0.2,0.4,0.7c0,0.2,0,0.3,0,0.5c0,0,0,0,0,0l0,0l0,0
				c0,0.4,0.2,0.5,0.6,0.5c2,0.1,4,0.1,5.9,0.2c1.1,0,2.1,0.1,3.2,0.1c0.7,0,0.9-0.3,0.8-0.8c0-0.1,0-0.2,0-0.2
				c-0.1-0.4,0.1-0.5,0.4-0.6c0.8-0.2,1.5-0.5,2.2-0.9c2.2-1.1,4-2.7,4.9-5.1c0.1-0.3,0.2-0.5,0.6-0.4c0.3,0,0.5-0.1,0.5-0.4
				C153.4,58.4,153.4,58,153.1,57.9z M89.5,63.3c0.4,0,0.9,0,1.4,0c-0.1,0.3-0.2,0.6-0.4,0.9l-0.2,0.3l-0.1,0.2
				c-0.4,0.6-0.9,1.3-1.5,1.8c-0.6,0.6-1.3,1-2,1.4c-0.7,0.3-1.4,0.5-2.1,0.6c0.6-0.2,1.3-0.5,1.9-0.9c0.6-0.4,1.2-0.9,1.8-1.5
				c0.5-0.6,1-1.2,1.3-1.8l0.1-0.2l0.1-0.2l0,0c-0.1,0-0.3,0-0.4,0c-2.2,0-6.2-0.1-8.7-0.6C84.7,63.4,87.6,63.3,89.5,63.3z
				 M124.8,51.1c0.1,0.1,0.2,0.2,0.3,0.2c0.3,0.3,0.5,0.6,0.6,0.9c0.1,0.3,0.2,0.7,0.3,1c0.1,0.3,0.2,0.7,0.5,0.9
				c-0.1,0-0.2,0-0.4-0.1c-0.2-0.1-0.4-0.4-0.5-0.6c-0.2-0.4-0.2-0.7-0.4-1c-0.1-0.2-0.3-0.5-0.5-0.8c-0.2-0.3-0.5-0.6-0.7-0.8
				C124.3,50.8,124.5,50.9,124.8,51.1z M120.7,134.4c0.4-0.2,0.7,0,0.7,0.4c0,0.5-0.1,1-0.1,1.5c0,0.5-0.1,1.3-0.1,1.6
				c-0.7,0-1.1,0-1.8-0.1c-0.5,0.4-1.3,0.9-2.3,0.9c0.3-0.1,0.7-0.3,0.9-0.5c0.1-0.1,0.2-0.2,0.4-0.3c0.6-0.7,1-1.4,1-1.4l0,0
				C119.8,135.5,120.4,134.5,120.7,134.4z M118.7,115.2c0.8-0.9,1.5-1.8,2-2.5c0.4-0.7,1-1.7,1.5-2.8c0.5-1.1,0.9-2.2,1.2-3.2
				c-0.1,1-0.4,2.2-0.9,3.3c-0.4,1.1-1,2.2-1.5,2.9c-0.5,0.7-1.2,1.7-2.1,2.5c-0.9,0.8-2,1.5-2.8,1.9
				C116.9,116.8,117.9,116.1,118.7,115.2z M114.2,135.5c0.7-0.6,1-1.2,1-1.2s0.3-1.1,0.4-1.5c0.4-1.1,0.4-2.4-0.7-3.3
				c-0.3-0.2-0.4-3.4-0.4-5.6c1.5,0.2,2.1,0,2.1,0s0.7-0.4,1.3-0.4c0,0-0.7,0.4-1.2,0.8c0.3,0.9,1.2,3.7,1.2,5.1
				c0,0.8-0.5,2.7-1.7,4.4l0,0c0,0-0.5,0.7-1.2,1.3C114.7,135.2,114.4,135.4,114.2,135.5C114.1,135.6,114.2,135.5,114.2,135.5z
				 M112.7,134.6c0.4-0.2,0.7,0,0.7,0.4c0,0.2,0,0.5,0,1c0,0-0.1,0-0.1,0.1c-0.5,0.2-0.9,0.5-0.9,1.1c0,0.3,0,0.6,0.2,0.8
				c-0.6,0-0.7,0-1.3,0c-0.9,0.9-2.1,0.9-2.1,0.9s0.2-0.1,0.5-0.3c0.3-0.2,0.5-0.4,0.7-0.6c0.3-0.4,0.5-0.7,0.6-0.7
				c0.1-0.1,0.1-0.2,0.2-0.3C111.7,135.5,112.3,134.8,112.7,134.6z M151.2,59.5l-0.2,0.3l-0.1,0.2c-0.4,0.6-0.9,1.3-1.5,1.8
				c-0.6,0.6-1.3,1-2,1.4c-0.7,0.3-1.4,0.5-2.1,0.6c0.6-0.2,1.3-0.5,1.9-0.9c0.6-0.4,1.2-0.9,1.8-1.5c0.5-0.6,1-1.2,1.3-1.8l0.1-0.2
				l0.1-0.2l0,0c-0.1,0-0.3,0-0.4,0c-2.2,0-6.2-0.1-8.7-0.6c3.9,0,6.8,0,8.7,0c0.4,0,0.9,0,1.4,0C151.5,58.9,151.4,59.2,151.2,59.5z
				"/>
		</g>
	</g>
	<g>
		<path class="st2" d="M38,155.4l2.3-4.4c0.3-0.6,0.5-1.7-1-1.7l0.8-1.6h7.7l0.8,1.6c-1.5,0-1.3,1-1,1.6l2.4,4.5
			c0.4,0.6,1.2,1.6,2.5,1.6l-0.8,1.6H46l-0.8-1.6c1.4,0,1.2-1,1-1.6h-5.9c-0.3,0.6-0.4,1.6,1,1.6l-0.8,1.6h-4.2l-0.8-1.6
			C36.8,157.1,37.6,156,38,155.4z M45.4,153.9l-2.1-4l-2.1,4H45.4z"/>
		<path class="st1" d="M57.7,155.1v-5.8h-2.8c-0.9,0-1.8,0.3-2.3,1l-1.5-0.8l0.8-2.1c0,0,0.7,0.2,2.8,0.2H64c2.1,0,2.8-0.2,2.8-0.2
			l0.8,2.1l-1.5,0.8c-0.5-0.8-1.4-1-2.3-1h-2.6v5.8c0,0.6,0.3,1.9,1.7,1.9l-0.8,1.6h-5.5l-0.8-1.6C57.4,157.1,57.7,155.7,57.7,155.1
			z"/>
		<path class="st0" d="M79.8,155.1v-3.8c0-0.6-0.3-1.9-1.7-1.9l0.8-1.6h5.5l0.8,1.6c-1.5,0-1.7,1.3-1.7,1.9v3.8
			c0,0.6,0.3,1.9,1.7,1.9l-0.8,1.6h-5.5l-0.8-1.6C79.5,157.1,79.8,155.7,79.8,155.1z"/>
		<path class="st1" d="M88.7,155.1v-3.8c0-0.6-0.3-1.9-1.7-1.9l0.8-1.6h5l8.5,6.5v-2.9c0-0.6-0.3-1.9-1.7-1.9l0.8-1.6h3.9l0.8,1.6
			c-1.5,0-1.7,1.3-1.7,1.9v3.8c0,0.6,0.3,1.9,1.7,1.9l-0.8,1.6h-3.3l-10.2-8v4.5c0,0.6,0.3,1.9,1.7,1.9l-0.8,1.6h-3.9l-0.8-1.6
			C88.5,157.1,88.7,155.8,88.7,155.1z"/>
		<path class="st0" d="M108.8,155v-3.8c0-0.6-0.3-1.9-1.7-1.9l0.8-1.6h6.4c5.5,0,10.1,1,10.1,5.5c0,4.5-4.6,5.5-10.1,5.5h-6.4
			l-0.8-1.6C108.6,157.1,108.7,155.6,108.8,155z M114.2,157.1c3.9,0,5.9-0.7,5.9-3.9c0-3.2-2-3.9-5.9-3.9h-1.9v7.7H114.2z"/>
		<path class="st1" d="M127.5,155.1v-3.8c0-0.6-0.3-1.9-1.7-1.9l0.8-1.6h5.5l0.8,1.6c-1.5,0-1.7,1.3-1.7,1.9v3.8
			c0,0.6,0.3,1.9,1.7,1.9l-0.8,1.6h-5.5l-0.8-1.6C127.2,157.1,127.5,155.7,127.5,155.1z"/>
		<path class="st2" d="M136.8,155.4l2.3-4.4c0.3-0.6,0.5-1.7-1-1.7l0.8-1.6h7.7l0.8,1.6c-1.5,0-1.3,1-1,1.6l2.4,4.5
			c0.4,0.6,1.2,1.6,2.5,1.6l-0.8,1.6h-5.7l-0.8-1.6c1.4,0,1.2-1,1-1.6h-5.9c-0.3,0.6-0.4,1.6,1,1.6l-0.8,1.6h-4.2l-0.8-1.6
			C135.6,157.1,136.4,156,136.8,155.4z M144.2,153.9l-2.1-4l-2.1,4H144.2z"/>
		<path class="st0" d="M154.7,155.1v-3.8c0-0.6-0.3-1.9-1.7-1.9l0.8-1.6h5l8.5,6.5v-2.9c0-0.6-0.3-1.9-1.7-1.9l0.8-1.6h3.9l0.8,1.6
			c-1.5,0-1.7,1.3-1.7,1.9v3.8c0,0.6,0.3,1.9,1.7,1.9l-0.8,1.6h-3.3l-10.2-8v4.5c0,0.6,0.3,1.9,1.7,1.9l-0.8,1.6h-3.9l-0.8-1.6
			C154.5,157.1,154.7,155.8,154.7,155.1z"/>
		<path class="st1" d="M175.1,155.4l2.3-4.4c0.3-0.6,0.5-1.7-1-1.7l0.8-1.6h7.7l0.8,1.6c-1.5,0-1.3,1-1,1.6l2.4,4.5
			c0.4,0.6,1.2,1.6,2.5,1.6l-0.8,1.6h-5.7l-0.8-1.6c1.4,0,1.2-1,1-1.6h-5.9c-0.3,0.6-0.4,1.6,1,1.6l-0.8,1.6h-4.2l-0.8-1.6
			C173.8,157.1,174.7,156,175.1,155.4z M182.4,153.9l-2.1-4l-2.1,4H182.4z"/>
		<path class="st0" d="M32.8,172.8v-2.2c0-0.5-0.2-2.1-1.8-2.1l0.8-1.6h5.5l0.8,1.6c-1.4,0-1.7,1.3-1.7,1.9v2.7c0,2.4,1.7,3.3,4,3.3
			c2.3,0,4-0.8,4-3.3v-2.5c0-0.5-0.2-2.1-1.7-2.1l0.8-1.6h5.4l0.8,1.6c-1.4,0-1.7,1.3-1.7,1.9v2.4c0,4-3.1,5.4-7.5,5.4
			C35.8,178.1,32.8,176.8,32.8,172.8z"/>
		<path class="st2" d="M52.9,174.3v-3.8c0-0.6-0.3-1.9-1.7-1.9l0.8-1.6h5l8.5,6.5v-2.9c0-0.6-0.3-1.9-1.7-1.9l0.8-1.6h3.9l0.8,1.6
			c-1.5,0-1.7,1.3-1.7,1.9v3.8c0,0.6,0.3,1.9,1.7,1.9l-0.8,1.6h-3.3l-10.2-8v4.5c0,0.6,0.3,1.9,1.7,1.9l-0.8,1.6H52l-0.8-1.6
			C52.6,176.3,52.9,174.9,52.9,174.3z"/>
		<path class="st1" d="M72.9,174.3v-3.8c0-0.6-0.3-1.9-1.7-1.9l0.8-1.6h5.5l0.8,1.6c-1.5,0-1.7,1.3-1.7,1.9v3.8
			c0,0.6,0.3,1.9,1.7,1.9l-0.8,1.6h-5.5l-0.8-1.6C72.6,176.2,72.9,174.9,72.9,174.3z"/>
		<path class="st0" d="M83.7,176.2c1.5,0,1.3-1,1-1.6l-2.3-4.4c-0.3-0.6-1.2-1.7-2.6-1.7l0.8-1.6h5.7l0.8,1.6
			c-1.6,0-1.1,1.5-0.8,1.9l2.8,5.3l2.8-5.3c0.2-0.5,0.8-1.9-0.9-1.9c0.6-1.3,0.3-0.7,0.8-1.6h4.2l0.8,1.6c-1.3,0-2.1,1-2.5,1.6
			l-0.2,0.4l-2.2,4.1c-0.2,0.6-0.3,1.5,1.1,1.5l-0.8,1.6h-7.6C84.5,177.9,84.2,177.2,83.7,176.2z"/>
		<path class="st2" d="M110.4,177.9H99.2l-0.8-1.6c1.4,0,1.7-1.3,1.7-1.9v-3.9c0-0.6-0.3-1.9-1.7-1.9l0.8-1.6h10.6
			c2.1,0,2.8-0.2,2.8-0.2l0.8,2.1l-1.5,0.8c-0.6-0.8-1.5-1-2.4-1h-5.8v2.8h2.9c0.4,0,1.5-0.1,1.5-1.2l1.7,0.8v2.2l-1.7,0.8
			c0-1-1.2-1.2-1.5-1.2h-2.9v3.4h5.1c1.3,0,3-0.1,3.9-1.8l1.6,0.8l-0.9,2.8C113.3,178.1,112.5,177.9,110.4,177.9z"/>
		<path class="st1" d="M117.5,174.3v-3.8c0-0.6-0.3-1.9-1.7-1.9l0.8-1.6h10c5.7,0,5.6,3.4,5.6,3.4s0.1,2.1-2.5,3l1,1.9
			c0.4,0.5,1.1,1,2.2,1l-0.8,1.6h-5.7l-0.8-1.6c1.6,0,1.3-1.2,0.9-1.7l-0.4-0.8h-5v0.6c0,0.6,0.3,1.9,1.7,1.9l-0.8,1.6h-5.5
			l-0.8-1.6C117.2,176.3,117.5,174.9,117.5,174.3z M125.9,172.1c0,0,2,0,2-1.8s-2-1.8-2-1.8H121v3.6L125.9,172.1L125.9,172.1z"/>
		<path class="st0" d="M137.4,177.4c-1.2-0.3-1.5,0.5-1.5,0.5l-1.4-0.8v-2l1.4-0.7c0,0,1.7,2,5.6,2c0,0,3.5,0.2,3.5-1.4
			c0-1.1-2.4-1.2-4.6-1.5c-2.4-0.4-6-0.7-6-3.5c0-2.5,3.5-3.3,6.5-3.3c1.4,0,3,0.2,4.2,0.5c0.6,0.2,1-0.3,1-0.3l1.4,0.7v1.6
			l-1.4,0.7c0,0-1.1-1.6-5.2-1.6c0,0-3.3,0-3.3,1c0,0.8,2.3,1,4.4,1.3c2.3,0.4,6.4,0.6,6.4,3.8c0,2.7-3.7,3.5-6.9,3.5
			C140.3,178.1,138.6,177.8,137.4,177.4z"/>
		<path class="st1" d="M152,174.3v-3.8c0-0.6-0.3-1.9-1.7-1.9l0.8-1.6h5.5l0.8,1.6c-1.5,0-1.7,1.3-1.7,1.9v3.8
			c0,0.6,0.3,1.9,1.7,1.9l-0.8,1.6H151l-0.8-1.6C151.7,176.2,152,174.9,152,174.3z"/>
		<path class="st2" d="M165.4,174.3v-5.8h-2.8c-0.9,0-1.8,0.3-2.3,1l-1.5-0.8l0.8-2.1c0,0,0.7,0.2,2.8,0.2h9.3
			c2.1,0,2.8-0.2,2.8-0.2l0.8,2.1l-1.5,0.8c-0.5-0.8-1.4-1-2.3-1H169v5.8c0,0.6,0.3,1.9,1.7,1.9l-0.8,1.6h-5.5l-0.8-1.6
			C165.2,176.2,165.4,174.9,165.4,174.3z"/>
		<path class="st1" d="M183.9,174.3v-1.6l-2.5-2.4c-0.7-0.6-2.2-1.7-4.3-1.7l0.8-1.6h6.8l0.8,1.6c-1.5,0-0.7,1-0.2,1.5l1.2,1.1l1-1
			c0.5-0.5,1.4-1.6-0.1-1.6l0.8-1.6h5.1l0.8,1.6c-2,0-3.7,1.3-4.3,1.8l-2.3,2.3v1.6c0,0.6,0.3,1.9,1.7,1.9l-0.8,1.6h-5.5l-0.8-1.6
			C183.6,176.2,183.9,174.9,183.9,174.3z"/>
	</g>
</g>
</svg>
