<?xml version="1.0" encoding="utf-8"?>
<!-- Generator: Adobe Illustrator 27.2.0, SVG Export Plug-In . SVG Version: 6.00 Build 0)  -->
<svg version="1.1" id="Layer_1" xmlns="http://www.w3.org/2000/svg" xmlns:xlink="http://www.w3.org/1999/xlink" x="0px" y="0px"
	 viewBox="0 0 80 80" enable-background="new 0 0 80 80" xml:space="preserve">
<path fill="#E93825" d="M50,0c-2.766,0-5,2.234-5,5s2.234,5,5,5h12.922L31.469,41.469c-1.953,1.953-1.953,5.125,0,7.078
	s5.125,1.953,7.078,0L70,17.078V30c0,2.766,2.234,5,5,5s5-2.234,5-5V5c0-2.766-2.234-5-5-5H50z M12.5,5C5.594,5,0,10.594,0,17.5v50
	C0,74.406,5.594,80,12.5,80h50C69.406,80,75,74.406,75,67.5V50c0-2.766-2.234-5-5-5s-5,2.234-5,5v17.5c0,1.375-1.125,2.5-2.5,2.5
	h-50c-1.375,0-2.5-1.125-2.5-2.5v-50c0-1.375,1.125-2.5,2.5-2.5H30c2.766,0,5-2.234,5-5s-2.234-5-5-5H12.5z"/>
</svg>
