<?xml version="1.0" encoding="utf-8"?>
<!-- Generator: Adobe Illustrator 26.3.1, SVG Export Plug-In . SVG Version: 6.00 Build 0)  -->
<svg version="1.1" id="Layer_1" xmlns="http://www.w3.org/2000/svg" xmlns:xlink="http://www.w3.org/1999/xlink" x="0px" y="0px"
	 viewBox="0 0 576 512" style="enable-background:new 0 0 576 512;" xml:space="preserve">
<style type="text/css">
	.st0{fill:#E93825;}
</style>
<path class="st0" d="M121.1,32H280v32.6c-16.7-2.4-34.3,2.8-47.2,15.4H131.1l30.5,160h314l45-160h-81.4
	c-12.9-12.7-30.5-17.8-47.2-15.4V32h149.8c20.3,0,36.5,20.2,30.8,40.7l-54,192c-3.9,13.8-16.5,23.3-30.8,23.3H170.7l9.2,48H488
	c13.3,0,24,10.7,24,24s-10.7,24-24,24H159.1c-10.6,0-20.5-8.2-22.7-19.5L76.1,48H24C10.8,48,0,37.2,0,24S10.8,0,24,0h72
	c11.5,0,21.4,8.2,23.6,19.5L121.1,32z M128,464c0-26.5,21.5-48,48-48s48,21.5,48,48s-21.5,48-48,48S128,490.5,128,464z M512,464
	c0,26.5-21.5,48-48,48s-48-21.5-48-48s21.5-48,48-48S512,437.5,512,464z M360,126.1l23-23.1c9.4-9.3,24.6-9.3,33.1,0
	c10.2,9.4,10.2,24.6,0,33.1l-64,64c-8.5,10.2-23.7,10.2-33.1,0l-64-64c-9.3-8.5-9.3-23.7,0-33.1c9.4-9.3,24.6-9.3,33.1,0l23.9,23.1
	V24c0-13.2,10.7-24,24-24s24,10.8,24,24V126.1z"/>
</svg>
