<?xml version="1.0" encoding="utf-8"?>
<!-- Generator: Adobe Illustrator 26.3.1, SVG Export Plug-In . SVG Version: 6.00 Build 0)  -->
<svg version="1.1" id="Layer_1" xmlns="http://www.w3.org/2000/svg" xmlns:xlink="http://www.w3.org/1999/xlink" x="0px" y="0px"
	 viewBox="0 0 576 512" style="enable-background:new 0 0 576 512;" xml:space="preserve">
<style type="text/css">
	.st0{fill:#E93825;}
</style>
<path class="st0" d="M41.4,9.4c12.5-12.5,32.8-12.5,45.3,0L168,90.7l53.1-53.1c28.1-28.1,73.7-28.1,101.8,0L474.3,189
	c28.2,28.1,28.2,73.7,0,101.8L283.9,481.4c-37.5,37.5-98.3,37.5-135.8,0L30.6,363.9c-37.5-37.5-37.5-98.3,0-135.8l92.1-93L41.4,54.6
	C28.9,42.1,28.9,21.9,41.4,9.4L41.4,9.4z M217.4,230.6L168,181.3l-92.1,92.1c-4.2,4.2-7,9.2-8.4,14.6h319.2l42.4-42.3
	c3.1-3.2,3.1-8.2,0-11.4L277.7,82.9c-3.2-3.1-8.2-3.1-11.4,0l-53,53.1l49.3,49.4c12.5,12.5,12.5,32.7,0,45.2
	S229.9,243.1,217.4,230.6L217.4,230.6z M448,448c0-25.2,32.6-79.6,51.2-108.7c6.1-9.4,19.5-9.4,25.6,0
	C543.4,368.4,576,422.8,576,448c0,35.3-28.7,64-64,64S448,483.3,448,448L448,448z"/>
</svg>
