<?xml version="1.0" encoding="UTF-8"?>
<svg id="Layer_1" data-name="Layer 1" xmlns="http://www.w3.org/2000/svg" width="3.125in" height="1.528in" viewBox="0 0 225 110">
  <g>
    <path d="M63.989,94.141c.347-.632,.748-1.207,1.211-1.691,.558-.568,.823-1.076,.61-1.874-.02-.076-.049-.152-.085-.223-.011-.023-.027-.041-.039-.062-.028-.047-.057-.091-.092-.13-.019-.021-.043-.036-.065-.054-.006-.005-.014-.008-.021-.013-.031-.022-.061-.044-.096-.059-.028-.011-.058-.017-.089-.022-.065-.011-.131-.019-.21,.002-.136,.037-.249,.108-.349,.196-.076,.068-.14,.148-.204,.228-.02,.024-.043,.045-.062,.069-.203,.262-.4,.556-.591,.877-.381,.641-.735,1.385-1.055,2.175-.281,.692-.532,1.419-.758,2.142-.289,.925-.536,1.841-.72,2.668-.082,.368-.153,.719-.211,1.044h-.073l-.12-.384-.028-.102c-.018-.068-.036-.136-.055-.204-.318-1.189-.356-2.418-.471-3.662-.011-.079-.026-.157-.035-.236s-.015-.16-.035-.236h0c-.028-.105-.08-.213-.142-.318-.008-.013-.014-.027-.023-.04-.063-.099-.141-.191-.227-.276-.015-.015-.03-.03-.046-.044-.089-.08-.186-.149-.289-.201-.017-.009-.035-.015-.052-.023-.108-.047-.221-.079-.335-.08-.066,0-.132,.004-.199,.022-.098,.026-.179,.074-.246,.136-.201,.186-.28,.501-.337,.748-.239,1.047-.478,2.077-.771,3.091-.293,1.014-.641,2.014-1.096,3.001h0l-.111-.007c.009-.713-.165-1.431-.346-2.111l-.092-.34c-.091-.34-.174-.653-.242-.956-.136-.605-.214-1.167-.183-1.809,.016-.321,.059-.661,.136-1.037,.017-.101,.039-.2,.05-.298,.013-.105,.014-.208-.014-.313-.026-.097-.08-.156-.144-.198-.021-.014-.047-.02-.072-.029-.05-.019-.101-.033-.158-.036-.027-.001-.055-.001-.083,0-.1,.006-.203,.021-.292,.045-.391,.105-.535,.452-.679,.8-.069,.171-.152,.355-.242,.541-.119,.247-.253,.5-.409,.747-.457,.722-1.068,1.377-1.822,1.578-.116,.031-.232,.047-.343,.047-.009,0-.016-.003-.025-.003-.028,0-.052-.008-.08-.011-.085-.008-.166-.025-.242-.054-.033-.012-.064-.028-.095-.045-.067-.035-.126-.081-.181-.135-.024-.024-.049-.044-.071-.072-.053-.069-.095-.152-.128-.245-.009-.026-.026-.045-.033-.074-.113-.425,.047-.745,.221-1.015,.131-.202,.269-.376,.305-.543,.012-.056,.013-.111-.002-.166-.018-.067-.054-.108-.096-.139-.013-.009-.027-.015-.041-.021-.035-.016-.073-.026-.114-.028-.016,0-.031-.003-.047-.003-.055,.002-.112,.01-.166,.025h0c-.161,.043-.322,.123-.474,.22-.152,.097-.294,.213-.418,.328-.743,.649-1.174,1.582-1.023,2.557,.014,.09,.026,.18,.05,.271,.053,.198,.133,.38,.226,.55,.016,.029,.03,.059,.047,.088,.095,.157,.207,.298,.333,.419,.024,.023,.05,.044,.076,.066,.136,.117,.283,.217,.447,.284,.012,.005,.025,.006,.037,.011,.16,.061,.334,.092,.517,.099,.032,.001,.063,.006,.096,.006,.146-.003,.296-.02,.453-.062,.242-.065,.472-.166,.686-.296,.643-.389,1.148-1.032,1.418-1.706-.015,.66,.1,1.33,.256,1.996,.078,.333,.166,.665,.252,.995,.087,.329,.172,.656,.244,.978,.127,.576,.242,1.128,.299,1.682,.048,.47,.039,.945-.026,1.433-.012,.087-.01,.172-.027,.261-.021,.125-.046,.236-.058,.344-.012,.108-.011,.212,.018,.323,.023,.084,.064,.137,.113,.178,.013,.01,.026,.02,.04,.028,.048,.028,.102,.044,.162,.046,.007,0,.012,.003,.019,.003,.053,0,.109-.009,.167-.024,.596-.16,1.083-.722,1.478-1.383,.437-.732,.76-1.585,.976-2.169,.438-1.156,.93-2.308,1.286-3.496,.056,.551,.151,1.107,.297,1.651,.187,.701,.565,1.73,1.08,2.457,.171,.242,.358,.451,.558,.602l.004,.002c.077,.057,.159,.113,.243,.165,.027,.017,.055,.03,.082,.046,.062,.035,.125,.067,.189,.095,.034,.015,.069,.027,.104,.039,.062,.021,.124,.037,.187,.048,.036,.006,.072,.012,.108,.015,.093,.006,.186,.005,.279-.02,.115-.031,.206-.08,.279-.144,.145-.127,.215-.31,.245-.511,.015-.1,.02-.205,.019-.31,.016-.823,.016-1.644,.108-2.452,.065-.605,.165-1.254,.298-1.915,.083-.413,.176-.83,.289-1.247,.098-.361,.206-.722,.328-1.077,.242-.71,.534-1.399,.881-2.031Z" fill="#fff"/>
    <path d="M118.654,84.821c-.043-.012-.085-.03-.13-.029l-.051,.014c-.051,.014-.103,.041-.15,.079s-.089,.085-.12,.139c-.087,.187-.179,.393-.276,.598-.193,.41-.4,.817-.601,1.065-.1,.124-.198,.208-.292,.233h0c-.01,.003-.02,.004-.03,.004-.005,0-.006-.011-.011-.012-.044-.007-.08-.036-.097-.101-.025-.093-.02-.276,.003-.503,.023-.228,.063-.501,.11-.776,.094-.551,.213-1.111,.263-1.334,.333-1.473,.672-2.929,.908-4.431,.051-.287,.06-.527-.013-.799-.015-.055-.039-.117-.07-.183-.01-.022-.025-.046-.037-.069-.023-.045-.047-.089-.076-.136-.017-.028-.038-.055-.057-.083-.029-.043-.059-.086-.092-.129-.022-.028-.046-.055-.07-.083-.034-.041-.069-.081-.106-.119-.026-.027-.054-.052-.081-.078-.037-.035-.075-.069-.114-.1-.029-.023-.059-.044-.09-.065-.039-.027-.079-.052-.119-.073-.031-.017-.062-.031-.093-.044-.04-.017-.08-.029-.12-.038-.031-.007-.061-.013-.092-.016h-.002c-.06-.006-.12-.008-.178,.008-.03,.008-.051,.03-.078,.044-.163,.085-.262,.258-.321,.439-.023,.07-.041,.14-.056,.203-.168,.7-.298,1.404-.424,2.107-.126,.703-.248,1.405-.398,2.101-.087-.109-.192-.178-.302-.228-.035-.016-.073-.024-.109-.035-.08-.024-.162-.041-.246-.045-.039-.002-.078-.003-.117-.001-.136,.006-.273,.024-.403,.059h0c-.491,.131-.91,.387-1.276,.713-.244,.217-.464,.466-.665,.731-.302,.396-.564,.827-.802,1.239-.093,.161-.286,.495-.504,.906-.218,.411-.46,.9-.653,1.37-.003,.008-.003,.015-.006,.023-.263,.566-.726,1.521-1.017,1.599-.019,.005-.036,.007-.052,.007-.024,0-.039-.014-.057-.024-.01-.005-.023-.006-.032-.013-.027-.026-.047-.06-.057-.099-.023-.085-.025-.157-.021-.213-.002-.416,.146-1.036,.322-1.686,.294-1.082,.666-2.246,.549-2.682-.022-.083-.061-.158-.108-.225-.015-.021-.035-.038-.052-.057-.036-.041-.075-.08-.119-.111-.024-.017-.051-.03-.077-.043-.045-.023-.091-.041-.14-.053-.029-.007-.059-.013-.089-.016-.072-.007-.146-.009-.221,.011-.34,.091-.608,.331-.876,.571-.268,.24-.536,.481-.876,.572-.051,.014-.095,.015-.144,.015h-.052c.059-.152,.095-.307,.105-.465,.01-.157-.005-.317-.048-.479v-.002c-.025-.089-.06-.167-.102-.236-.013-.022-.03-.039-.045-.059-.033-.043-.068-.082-.109-.114-.021-.017-.045-.03-.068-.043-.042-.024-.089-.04-.138-.052-.027-.006-.054-.013-.083-.015-.076-.006-.156-.004-.245,.02-.174,.047-.331,.147-.465,.281-.134,.134-.245,.303-.329,.487-.084,.184-.14,.384-.164,.58s-.016,.389,.03,.559c.072,.272,.256,.55,.565,.613-.396,.959-.814,1.876-1.202,2.768-.071,.153-.153,.326-.239,.502-.13,.263-.271,.532-.408,.741-.091,.14-.18,.254-.263,.323-.041,.035-.081,.058-.118,.068-.011,.003-.021,.004-.031,.004-.005,0-.006-.011-.011-.012-.044-.007-.08-.037-.097-.101h0c-.014-.051-.015-.123-.016-.196,.06-.945,.281-1.871,.484-2.801,.068-.31,.134-.62,.192-.932,.026-.143,.039-.279,.038-.41-.001-.132-.017-.259-.051-.387-.015-.057-.04-.121-.07-.187-.01-.021-.023-.043-.034-.065-.024-.047-.048-.093-.077-.141-.016-.027-.036-.053-.054-.08-.029-.043-.058-.087-.091-.129-.022-.029-.046-.056-.07-.084-.033-.039-.066-.078-.102-.115-.026-.027-.054-.052-.081-.078-.036-.034-.073-.066-.111-.096-.029-.023-.059-.044-.089-.064-.038-.026-.077-.05-.116-.07-.031-.017-.062-.031-.093-.043-.039-.016-.078-.028-.118-.037-.031-.007-.062-.013-.093-.016-.06-.005-.12-.006-.178,.009h0c-.198,.053-.331,.253-.423,.504-.062,.168-.105,.359-.138,.545-.049,.279-.074,.548-.098,.712-.087-.108-.192-.177-.303-.226-.036-.016-.074-.023-.111-.034-.081-.023-.163-.04-.248-.044-.039-.002-.079-.002-.118,0-.14,.006-.281,.025-.414,.06h0c-.168,.045-.327,.104-.478,.174-.151,.071-.294,.153-.43,.245-.272,.184-.514,.408-.735,.655-.221,.247-.419,.517-.602,.794-.183,.277-.351,.561-.509,.836-.061,.105-.182,.341-.326,.632-.24,.484-.545,1.119-.749,1.549-.005,.009-.003,.013-.008,.022-.139,.279-.313,.684-.772,.807-.063,.017-.119,.022-.167,.022-.016,0-.032,0-.046-.002,.127-.444,.235-.942,.28-1.446,.022-.252,.029-.505,.015-.754-.002-.039-.014-.074-.017-.113-.018-.209-.042-.417-.095-.614-.044-.166-.105-.311-.173-.446-.014-.027-.026-.054-.041-.079-.071-.125-.153-.234-.246-.326-.017-.017-.037-.031-.055-.047-.095-.083-.199-.152-.314-.2-.01-.004-.018-.01-.027-.014-.123-.047-.26-.068-.405-.073-.032-.001-.064-.002-.097-.001-.132,.004-.27,.019-.42,.059-.306,.082-.592,.22-.858,.398-.798,.533-1.414,1.422-1.83,2.216-.422,.801-.782,1.638-1.144,2.459-.156,.313-.349,.618-.652,.698-.034,.009-.061,.016-.081,.016-.01,0-.018-.002-.025-.006,.355-.987,.699-2.7,.421-3.737-.025-.095-.061-.189-.103-.277-.013-.028-.032-.05-.047-.076-.033-.057-.069-.111-.111-.158-.023-.026-.052-.044-.078-.065-.044-.035-.091-.064-.144-.085-.034-.013-.071-.02-.108-.026-.081-.013-.165-.021-.265,.005-.816,.218-1.283,1.399-1.451,2.136-.073,.338-.117,.683-.122,1.026s.032,.684,.121,1.014c.075,.279,.212,.536,.398,.768,.052,.065,.088,.137,.152,.196h0c-.053,.123-.116,.259-.189,.394-.146,.271-.332,.545-.565,.73-.116,.093-.244,.163-.385,.201h0c-.065,.017-.125,.026-.18,.026l-.009-.003c-.088-.002-.159-.03-.22-.076-.014-.011-.026-.023-.038-.036-.055-.057-.102-.128-.129-.229-.025-.094-.034-.178-.033-.261s.012-.162,.025-.248c.139-.875,.314-1.737,.502-2.6,.188-.863,.389-1.728,.582-2.607,.061-.281,.128-.558,.19-.839,.062-.28,.118-.564,.158-.857,.05-.287,.059-.526-.014-.798-.015-.057-.04-.121-.071-.187-.01-.022-.024-.045-.036-.067-.024-.046-.048-.091-.077-.138-.017-.027-.037-.054-.056-.082-.029-.043-.058-.085-.091-.127-.022-.029-.047-.056-.071-.084-.034-.039-.067-.078-.104-.116-.026-.027-.054-.051-.081-.077-.037-.034-.074-.067-.112-.097-.029-.023-.059-.044-.089-.064-.038-.026-.077-.05-.116-.071-.031-.016-.061-.031-.092-.043-.039-.016-.078-.028-.117-.037-.031-.007-.062-.013-.092-.016-.059-.005-.117-.007-.173,.008-.29,.077-.399,.416-.475,.674-.458,1.762-.893,3.455-1.484,5.13-.197,.558-.411,1.114-.65,1.669-.097,.243-.33,.839-.546,1.314-.067,.132-.135,.263-.203,.381-.435,.825-1.177,1.862-2.043,2.095-.061,.016-.118,.024-.17,.024-.019,0-.033-.009-.051-.011-.029-.003-.055-.009-.081-.017-.043-.013-.082-.031-.118-.055-.021-.014-.042-.027-.061-.044-.035-.032-.064-.071-.091-.113-.012-.019-.027-.035-.038-.056-.035-.066-.064-.138-.085-.217-.022-.085-.041-.154-.038-.209,1.146-.888,3.091-2.812,2.659-4.426-.05-.185-.129-.329-.221-.454-.028-.037-.061-.067-.092-.099-.075-.077-.157-.141-.249-.19-.039-.021-.077-.043-.119-.058-.117-.043-.242-.069-.376-.076-.021-.001-.04-.008-.061-.008-.171-.002-.352,.022-.539,.073-1.115,.298-1.957,1.356-2.619,2.517-.265,.465-.501,.946-.714,1.402-.107,.228-.208,.45-.304,.66l-.206,.456c-.004,.012-.007,.027-.011,.039-.256,.567-.603,1.235-.902,1.315-.018,.005-.036,.007-.053,.007-.02,0-.036-.013-.053-.02-.012-.005-.025-.005-.036-.013-.034-.025-.062-.06-.077-.116-.035-.132-.049-.263-.052-.395-.006-.264,.031-.528,.026-.791-.003-.132-.017-.264-.052-.395-.037-.138-.108-.235-.192-.316-.021-.02-.043-.04-.067-.057-.085-.062-.179-.11-.285-.136-.007-.002-.014-.006-.021-.008-.108-.024-.224-.025-.34-.021-.159,.006-.32,.026-.461,.064,.188-.323,.413-.638,.77-.734,.088-.024,.165-.033,.235-.033,.027,0,.047,.008,.072,.01,.026,.003,.052,.006,.076,.011,.07,.015,.135,.035,.195,.06,.07,.029,.139,.056,.21,.076,.019,.005,.04,.006,.059,.01,.072,.013,.148,.018,.243-.007,.663-.177,1.073-1.162,.901-1.807-.032-.12-.083-.215-.141-.296-.018-.025-.039-.044-.059-.066-.047-.05-.098-.092-.155-.124-.026-.015-.052-.029-.079-.04-.067-.026-.139-.042-.214-.049-.021-.002-.04-.008-.061-.009-.104-.002-.214,.011-.328,.041-1.19,.318-2.505,2.546-3.055,3.622,.371-1.538,.713-3.05,.964-4.628,.026-.144,.041-.275,.04-.405,0-.13-.016-.257-.053-.393-.015-.055-.039-.118-.07-.183-.01-.021-.024-.043-.035-.065-.024-.046-.048-.092-.078-.139-.017-.028-.038-.056-.058-.084-.029-.043-.058-.085-.091-.128-.023-.029-.048-.057-.072-.085-.034-.04-.068-.08-.105-.117-.027-.028-.055-.053-.083-.079-.037-.035-.075-.068-.114-.099-.03-.024-.06-.045-.091-.066-.039-.027-.078-.051-.117-.072-.032-.017-.064-.032-.096-.045-.04-.016-.079-.028-.119-.038-.032-.008-.063-.014-.095-.016-.06-.005-.12-.007-.178,.008-.289,.077-.394,.433-.454,.686-.359,1.462-.713,2.912-1.178,4.336-.155,.475-.322,.946-.506,1.415-.128,.338-.271,.674-.421,1.011-.15,.337-.307,.676-.464,1.018l-.008,.012c-.268,.562-.799,1.779-1.139,1.87-.01,.003-.02,.004-.03,.004-.005,0-.006-.011-.011-.012-.044-.007-.08-.036-.097-.101-.014-.051-.015-.123-.016-.196h0c.02-.315,.058-.628,.107-.94,.098-.623,.241-1.242,.377-1.861,.068-.31,.134-.62,.192-.932,.051-.286,.055-.542-.013-.798-.015-.057-.04-.121-.07-.187-.01-.021-.024-.044-.035-.066-.023-.046-.047-.092-.076-.139-.017-.027-.037-.055-.055-.082-.029-.043-.057-.085-.09-.127-.022-.029-.046-.056-.07-.084-.033-.04-.067-.079-.102-.116-.026-.027-.053-.052-.08-.077-.036-.034-.073-.067-.111-.097-.029-.023-.059-.044-.089-.064-.038-.026-.077-.05-.116-.071-.031-.016-.062-.031-.093-.043-.04-.016-.079-.028-.119-.037-.031-.007-.062-.013-.093-.016-.06-.005-.121-.006-.179,.009-.526,.141-.592,1.324-.658,1.76-.086-.108-.191-.176-.303-.226-.036-.016-.074-.023-.112-.034-.08-.023-.162-.04-.247-.044-.039-.002-.079-.002-.119,0-.14,.006-.282,.025-.414,.06-1.342,.359-2.12,1.605-2.754,2.704-.163,.28-.749,1.493-1.075,2.181-.119,.232-.121,.361-.089,.48l.004,.017,.006,.018c.029,.087,.077,.139,.13,.177,.012,.009,.025,.018,.038,.025,.055,.028,.114,.044,.178,.045,.045,0,.09-.004,.135-.011h0c-.033,.181-.047,.353-.041,.521,.006,.167,.031,.329,.074,.491,.042,.157,.103,.3,.174,.429,.023,.041,.053,.072,.078,.109,.056,.082,.117,.157,.187,.219,.038,.033,.081,.059,.123,.086,.073,.046,.153,.082,.24,.106,.051,.014,.104,.026,.16,.032,.135,.014,.277,.016,.439-.028h0c.242-.065,.472-.18,.689-.328,.542-.372,1-.954,1.36-1.49,.072-.107,.14-.212,.204-.314,.003,.145,.021,.284,.058,.42v.002c.041,.151,.102,.276,.173,.385,.022,.034,.05,.06,.075,.091,.056,.067,.118,.126,.187,.172,.035,.023,.071,.043,.108,.061,.076,.036,.159,.058,.247,.072,.039,.006,.075,.017,.116,.018,.132,.006,.272-.005,.424-.046,1.207-.323,2.117-1.958,2.655-3.165,.008-.011,.017-.017,.024-.029l.999-2.253,.091,.067c-.253,1.234-.544,2.459-.813,3.696-.019,.133-.056,.269-.019,.406,.029,.108,.099,.175,.179,.225,.022,.014,.046,.024,.071,.034,.071,.029,.148,.046,.228,.049,.02,0,.04,.006,.06,.005,.087-.002,.173-.013,.247-.032,.446-.119,.78-.465,1.006-.853,.075-.129,.138-.264,.19-.396l.454-1.16c.014-.033,.032-.082,.055-.143,.112-.303,.319-.891,.526-1.229,.083-.135,.165-.23,.242-.251h0c.021-.006,.04-.009,.058-.009,.017,0,.028,.011,.042,.016,.01,.004,.023,.005,.031,.012,.029,.022,.052,.055,.066,.11,.009,.034,.006,.09,.006,.161-.021,.361-.071,.721-.09,1.081-.01,.18-.012,.361,0,.542,.012,.181,.039,.363,.088,.545,.032,.12,.088,.216,.155,.298,.02,.025,.045,.045,.068,.067,.053,.05,.111,.093,.176,.126,.03,.015,.059,.03,.091,.041,.075,.027,.155,.043,.238,.05,.024,.002,.047,.009,.072,.009,.115,.002,.233-.011,.35-.042,.289-.077,.567-.261,.79-.448,.637-.574,1.263-1.479,1.735-2.447,.014,.144,.038,.288,.077,.432,.052,.196,.128,.358,.212,.504,.021,.035,.042,.07,.064,.103,.091,.133,.191,.251,.308,.34,.006,.005,.014,.007,.02,.012,.114,.083,.242,.142,.376,.188,.034,.012,.068,.023,.104,.032,.144,.037,.295,.061,.455,.062,.011,0,.022-.002,.033-.002,.227-.002,.467-.036,.717-.103,1.342-.359,2.381-1.311,3.137-2.568,.29-.479,.509-.956,.685-1.387l.002-.007c.107-.245,.216-.506,.32-.758,.104-.253,.202-.497,.287-.709l.073,.072c-.068,.205-.134,.418-.191,.637-.17,.655-.259,1.356-.085,2.006,.059,.221,.151,.402,.258,.56,.033,.049,.074,.086,.112,.129,.085,.097,.177,.18,.281,.246,.051,.032,.103,.061,.158,.086,.115,.051,.24,.083,.372,.101,.054,.007,.104,.022,.16,.024,.195,.007,.402-.011,.622-.07,1.139-.304,1.984-1.369,2.53-2.389,.145-.002,.286-.021,.438-.062,.213-.057,.4-.139,.571-.251s.324-.253,.468-.428c.062-.072,.116-.145,.167-.222,.015,.14,.031,.279,.067,.414,.048,.179,.119,.341,.2,.492,.015,.027,.028,.056,.044,.082,.084,.139,.182,.263,.293,.369,.021,.02,.044,.037,.066,.056,.121,.102,.252,.191,.399,.249l.007,.002c.145,.056,.306,.081,.475,.087,.034,.001,.066,.005,.101,.004,.139-.004,.282-.019,.433-.06h0c.293-.078,.564-.2,.814-.355,.5-.31,.914-.752,1.246-1.249,.166-.248,.311-.51,.435-.775,.081-.003,.153-.023,.228-.034,.074-.011,.151-.013,.228-.034,.144-.039,.28-.088,.407-.148,.381-.18,.686-.455,.915-.812-.042,.312-.033,.602,.043,.886,.042,.157,.103,.3,.174,.429,.023,.041,.053,.072,.078,.109,.056,.082,.117,.157,.188,.219,.038,.033,.081,.059,.123,.086,.073,.046,.153,.082,.24,.106,.051,.014,.104,.026,.16,.032,.135,.014,.277,.016,.439-.028,.121-.032,.239-.077,.354-.133,.23-.111,.447-.264,.65-.442,.305-.267,.578-.592,.817-.918,.159-.218,.304-.436,.431-.638h0c.003,.145,.021,.285,.058,.421,.041,.152,.102,.277,.174,.387,.022,.034,.05,.06,.075,.09,.056,.068,.118,.126,.188,.173,.035,.023,.071,.043,.108,.061,.076,.036,.159,.058,.247,.072,.039,.006,.075,.017,.116,.018,.132,.006,.272-.005,.424-.046,.475-.127,.904-.457,1.282-.884,.504-.569,.918-1.31,1.231-1.974,.078-.166,.15-.327,.216-.479,.071-.15,.148-.318,.229-.499,.081-.181,.166-.374,.252-.575,.267-.637,.613-1.385,.908-2.12,.072,0,.157-.024,.226-.042,.153-.041,.279-.111,.432-.152,.033-.009,.077-.018,.12-.018,.007,0,.013,.004,.02,.005,.011,0,.017,.004,.028,.006,.05,.01,.095,.033,.112,.096,.018,.066,.008,.162-.021,.283-.059,.242-.197,.582-.357,.972-.401,.975-.939,2.26-.715,3.099,.046,.171,.115,.309,.197,.43,.025,.037,.056,.066,.085,.099,.064,.074,.135,.138,.214,.188,.038,.024,.077,.046,.119,.065,.088,.039,.185,.063,.286,.077,.039,.005,.076,.016,.117,.018,.15,.005,.308-.01,.479-.056,.195-.052,.372-.122,.534-.214,.162-.091,.31-.204,.446-.34,.156-.157,.306-.332,.45-.52,.144-.188,.281-.389,.411-.596,.26-.414,.491-.853,.686-1.267-.022,.159-.031,.312-.024,.462,.007,.15,.028,.295,.067,.44l.002,.004c.042,.156,.102,.297,.173,.426,.023,.041,.053,.073,.078,.11,.056,.082,.116,.157,.186,.219,.038,.034,.081,.059,.123,.086,.072,.046,.151,.082,.236,.106,.051,.015,.103,.026,.159,.032,.132,.014,.27,.017,.429-.026h0c.251-.067,.486-.184,.706-.333s.424-.332,.613-.532c.284-.299,.533-.637,.747-.958,.072-.107,.139-.212,.203-.313h0c.003,.145,.021,.285,.058,.421,.041,.151,.101,.275,.172,.383,.022,.034,.049,.059,.074,.089,.056,.066,.118,.124,.187,.169,.034,.022,.069,.042,.105,.059,.077,.035,.162,.057,.251,.07,.036,.005,.07,.015,.108,.017,.133,.005,.275-.008,.428-.049h0c.484-.13,.94-.5,1.345-.974,.676-.79,1.211-1.866,1.506-2.593,.053-.143,.106-.284,.07-.42-.028-.101-.081-.163-.145-.201-.026-.015-.056-.013-.085-.02Zm-36.261,7.073c.02-.006,.039-.008,.058-.008,.025,0,.042,.016,.063,.025,.014,.006,.028,.006,.04,.016,.037,.03,.068,.074,.085,.137,.25,.935-.864,2.69-1.538,3.307,.059-.598,.68-3.313,1.292-3.476Zm-14.472,5.265c-.014,.09-.032,.185-.053,.284-.042,.198-.098,.413-.165,.633-.1,.33-.224,.674-.363,.997s-.29,.625-.445,.872c-.207,.329-.421,.561-.616,.613-.019,.005-.038,.008-.056,.008-.025,0-.043-.017-.064-.027-.014-.006-.03-.007-.042-.017-.038-.033-.07-.08-.089-.151-.191-.713,.666-3.911,1.43-4.116,.056-.015,.106-.022,.152-.022,.039,0,.064,.024,.097,.035,.024,.008,.052,.012,.073,.026,.067,.048,.121,.119,.152,.234,.012,.047,.02,.103,.023,.166,.006,.127-.007,.286-.034,.466Zm27.726-7.244c-.013,.173-.034,.347-.058,.511-.024,.164-.053,.318-.08,.453h0c-.071-.054-.141-.084-.212-.104-.02-.006-.04-.008-.061-.011-.069-.01-.138-.012-.211,.008-.102,.027-.185,.074-.251,.134-.198,.18-.239,.485-.161,.778,.078,.29,.252,.534,.498,.705-.063,.172-.157,.415-.286,.63s-.294,.4-.498,.454c-.034,.009-.066,.013-.095,.013-.007,0-.01-.007-.017-.007-.069-.005-.126-.03-.172-.073-.009-.008-.015-.017-.022-.027-.043-.05-.077-.111-.096-.181-.034-.128-.049-.278-.051-.439-.005-.485,.11-1.076,.189-1.492,.11-.613,.468-2.475,1.147-2.657,.025-.007,.048-.01,.07-.01,.017,0,.029,.009,.045,.013,.018,.004,.035,.007,.051,.014,.024,.012,.045,.028,.065,.047,.012,.012,.025,.021,.036,.034,.02,.025,.036,.053,.051,.082,.007,.013,.015,.024,.021,.038,.019,.044,.035,.089,.047,.133,.071,.264,.076,.608,.05,.955Zm6.553-2.173c-.018,.234-.073,.527-.156,.845-.304,1.165-.978,2.662-1.516,2.806-.019,.005-.038,.008-.056,.008-.025,0-.043-.017-.064-.027-.014-.006-.029-.007-.042-.017-.038-.033-.07-.08-.089-.151-.036-.134-.035-.355-.004-.627,.03-.272,.09-.596,.172-.935,.054-.226,.118-.458,.19-.687,.036-.114,.073-.228,.113-.338,.078-.222,.163-.434,.252-.627,.044-.096,.09-.188,.136-.272,.092-.17,.188-.314,.284-.423,.096-.108,.193-.181,.289-.206,.056-.015,.107-.023,.153-.023,.039,0,.064,.024,.097,.035,.024,.008,.052,.012,.073,.026,.067,.048,.12,.119,.151,.234h0c.012,.047,.02,.103,.023,.167,.003,.064,.001,.135-.005,.213Zm12.982-2.929c-.043,.2-.099,.415-.165,.634-.067,.219-.144,.444-.228,.664-.085,.22-.177,.434-.274,.635-.194,.401-.406,.743-.612,.95-.103,.104-.205,.173-.303,.199-.019,.005-.038,.008-.056,.008-.025,0-.043-.017-.064-.027-.014-.006-.029-.007-.042-.017-.038-.032-.069-.08-.088-.15h0c-.024-.09-.032-.217-.026-.372s.025-.336,.056-.536c.031-.199,.074-.415,.127-.639,.053-.223,.115-.453,.186-.68s.148-.45,.232-.659c.084-.209,.173-.405,.267-.576,.187-.343,.388-.589,.589-.656l.051-.013c.044-.012,.085-.018,.122-.018,.038,0,.062,.023,.093,.035,.022,.008,.047,.011,.065,.025,.059,.045,.106,.111,.133,.211l.009,.033c.046,.206,.015,.548-.071,.949Z" fill="#fff"/>
    <path d="M144.767,72.454c.006-.012,.012-.025,.018-.037,.349-.635,.753-1.212,1.218-1.698,.14-.143,.262-.281,.363-.422,.201-.281,.317-.569,.324-.909,.004-.17-.02-.352-.074-.553v-.002c-.021-.075-.049-.151-.084-.222-.011-.022-.026-.04-.039-.062-.028-.047-.058-.092-.093-.131-.019-.021-.043-.036-.065-.054-.036-.029-.075-.054-.119-.072-.028-.011-.058-.017-.089-.022-.065-.011-.132-.02-.211,.002-.273,.073-.454,.285-.619,.494-.761,.978-1.433,2.421-1.988,3.944-.041,.113-.087,.222-.127,.336-.288,.823-.54,1.663-.749,2.46-.209,.797-.376,1.551-.495,2.205l-.073,.002-.122-.388-.028-.103c-.018-.068-.037-.136-.054-.205-.24-.897-.32-1.815-.393-2.745-.024-.31-.048-.622-.077-.934-.012-.083-.027-.165-.038-.248-.01-.076-.015-.154-.034-.227-.028-.105-.08-.215-.143-.321-.008-.013-.014-.027-.022-.04-.063-.099-.142-.193-.228-.278-.015-.015-.03-.029-.045-.044-.089-.081-.187-.15-.29-.202-.017-.009-.035-.015-.053-.023-.108-.047-.221-.079-.336-.081-.066,0-.133,.004-.199,.022-.392,.105-.51,.557-.586,.888-.053,.231-.108,.458-.162,.687-.433,1.86-.902,3.666-1.719,5.431l-.112-.007c.003-.179-.006-.358-.024-.537-.036-.358-.106-.715-.19-1.064-.042-.175-.087-.348-.132-.519l-.091-.342c-.242-.907-.409-1.637-.415-2.461-.003-.417,.023-.852,.128-1.359,.036-.211,.093-.408,.038-.614-.026-.098-.08-.158-.146-.2-.021-.014-.047-.02-.072-.029-.05-.019-.102-.034-.16-.036-.028-.001-.055-.001-.084,0-.1,.006-.203,.021-.293,.045-.392,.105-.537,.454-.682,.804-.229,.568-.579,1.251-1.037,1.819-.401,.498-.885,.907-1.451,1.058-.116,.031-.233,.047-.344,.047-.009,0-.016-.003-.025-.003-.028,0-.053-.008-.08-.011-.086-.008-.167-.026-.244-.054-.033-.013-.064-.028-.095-.045-.067-.036-.127-.081-.182-.136-.024-.024-.049-.044-.071-.072-.062-.08-.112-.174-.146-.286-.004-.013-.012-.021-.015-.034-.228-.854,.645-1.288,.527-1.732-.018-.068-.055-.109-.097-.14-.013-.009-.027-.015-.041-.022-.035-.016-.073-.026-.114-.028-.016,0-.031-.004-.047-.003-.055,.002-.112,.01-.167,.025-.162,.043-.324,.123-.476,.221s-.295,.214-.42,.329c-.204,.178-.385,.377-.538,.592-.229,.323-.393,.683-.473,1.063-.006,.03-.007,.06-.012,.09-.062,.353-.056,.721,.043,1.094,.024,.09,.07,.165,.102,.25,.039,.103,.073,.21,.124,.304,.016,.029,.031,.06,.048,.089,.095,.158,.208,.299,.335,.421,.024,.023,.05,.044,.076,.066,.136,.117,.285,.218,.45,.286,.012,.005,.026,.007,.038,.011,.161,.062,.336,.093,.519,.099,.031,.001,.06,.006,.092,.006h.003c.146-.003,.296-.02,.453-.061,.973-.26,1.754-1.108,2.117-2.009-.031,1.325,.463,2.693,.753,3.988,.127,.579,.243,1.134,.3,1.69,.057,.557,.055,1.115-.053,1.702-.044,.249-.101,.447-.041,.669,.023,.085,.065,.138,.114,.179,.013,.011,.026,.02,.04,.028,.049,.028,.103,.045,.164,.047,.006,0,.011,.003,.017,.003,.053,0,.109-.009,.166-.024,1.263-.337,2.054-2.45,2.469-3.568,.442-1.16,.937-2.318,1.296-3.511,.056,.553,.15,1.113,.297,1.659,.063,.235,.146,.507,.25,.791s.225,.583,.365,.87c.139,.288,.296,.565,.468,.808,.172,.243,.359,.453,.56,.605l.003,.002c.077,.057,.159,.114,.244,.166,.027,.017,.055,.03,.082,.046,.062,.035,.126,.068,.191,.096,.034,.015,.069,.026,.104,.039,.062,.022,.125,.037,.189,.048,.036,.006,.072,.012,.109,.015,.093,.006,.186,.005,.28-.02h0c.231-.061,.368-.199,.447-.373,.079-.175,.101-.386,.099-.596,.008-.414,.013-.827,.027-1.237,.014-.411,.037-.819,.085-1.225,.008-.076,.022-.158,.031-.236,.004-.037,.008-.075,.015-.113,.154-1.235,.429-2.606,.876-3.911,.24-.7,.528-1.378,.868-2.003Z" fill="#fff"/>
    <path d="M185.986,67.063h0c-.023-.087-.077-.148-.142-.191-.02-.013-.046-.014-.069-.023-.066-.023-.135-.042-.217-.02-.103,.027-.174,.101-.237,.209-.023,.05-.053,.115-.089,.191-.071,.153-.163,.349-.266,.554-.258,.513-.583,1.078-.808,1.138-.012,.003-.023,.005-.032,.005-.019,0-.029-.013-.042-.021-.007-.005-.017-.005-.023-.011-.019-.022-.032-.05-.04-.082-.018-.067-.025-.158-.017-.197,.017-.453,.081-.899,.163-1.346,.082-.447,.182-.894,.272-1.348,.051-.288,.09-.555,.017-.828-.016-.06-.043-.124-.078-.189-.011-.022-.028-.044-.041-.066-.027-.045-.054-.089-.088-.135-.019-.026-.043-.052-.064-.078-.034-.041-.068-.082-.105-.122-.025-.027-.053-.052-.08-.078-.038-.037-.077-.073-.118-.108-.03-.025-.061-.048-.092-.072-.029-.022-.058-.042-.088-.061-.013-.009-.025-.018-.038-.027-.033-.021-.066-.04-.099-.058-.043-.024-.085-.045-.128-.063-.034-.015-.067-.028-.101-.039-.043-.014-.085-.024-.126-.032-.032-.006-.065-.012-.096-.014-.064-.004-.127-.004-.185,.012-.222,.059-.343,.22-.448,.448-.041,.088-.076,.176-.115,.264-.042,.094-.082,.187-.122,.281-.236,.544-.461,1.087-.697,1.644-.253,.605-.49,1.144-.742,1.706l-.01,.013c-.261,.599-.687,1.536-1.046,1.632-.018,.005-.036,.007-.053,.007-.021,0-.036-.013-.054-.02-.012-.005-.025-.005-.036-.013-.034-.025-.063-.061-.077-.117-.07-.264-.054-.529-.038-.794s.032-.53-.038-.794c-.037-.138-.109-.236-.192-.317-.021-.021-.044-.04-.068-.058-.084-.062-.178-.109-.283-.135-.009-.002-.016-.007-.025-.009-.109-.024-.226-.026-.342-.022-.159,.006-.32,.026-.461,.064h0c.094-.162,.198-.322,.323-.454,.062-.066,.13-.125,.205-.173,.075-.048,.156-.086,.246-.11,.088-.024,.166-.033,.235-.033,.027,0,.048,.008,.073,.01,.026,.003,.052,.006,.076,.011,.071,.015,.136,.036,.196,.061,.07,.03,.139,.057,.212,.077,.019,.005,.04,.006,.06,.01,.073,.013,.149,.019,.243-.007,.666-.178,1.079-1.166,.906-1.816-.013-.049-.04-.078-.057-.12-.026-.062-.049-.128-.084-.177-.018-.025-.04-.044-.06-.066-.047-.05-.098-.092-.155-.124-.026-.015-.052-.029-.08-.04-.067-.027-.139-.042-.215-.049-.021-.002-.04-.008-.061-.009-.105-.002-.215,.011-.328,.041h0c-.299,.08-.606,.279-.907,.551-.15,.136-.299,.289-.445,.455-.059,.067-.114,.142-.171,.212-.371,.453-.718,.963-1.005,1.439-.221,.367-.407,.709-.546,.979h0c.172-.707,.334-1.409,.487-2.115,.182-.836,.349-1.676,.486-2.535,.026-.144,.041-.276,.04-.407,0-.13-.017-.259-.053-.396-.015-.056-.039-.118-.07-.184-.01-.021-.024-.044-.035-.065-.024-.046-.048-.092-.078-.14-.017-.028-.038-.055-.057-.083-.029-.043-.059-.087-.092-.129-.023-.029-.047-.057-.071-.085-.034-.04-.069-.081-.106-.119-.027-.028-.055-.053-.082-.079-.037-.035-.075-.069-.115-.1-.03-.024-.06-.045-.09-.066-.039-.027-.079-.052-.119-.074-.032-.017-.063-.032-.095-.045-.04-.017-.08-.029-.12-.039-.032-.008-.063-.014-.095-.016-.061-.005-.121-.007-.179,.008-.29,.077-.395,.435-.456,.689-.383,1.55-.764,3.084-1.272,4.59-.134,.397-.271,.793-.426,1.186-.15,.397-.32,.79-.498,1.185-.178,.395-.365,.792-.549,1.198v.004c-.127,.227-.262,.421-.5,.532-.123-.324-.276-.627-.448-.917s-.36-.569-.553-.847c-.061-.094-.127-.186-.185-.283s-.108-.198-.137-.309c-.069-.256,.036-.412,.326-.489,.103-.027,.211-.033,.319-.039,.108-.006,.216-.012,.319-.04,.213-.057,.382-.198,.482-.378,.063-.112,.088-.241,.092-.373,.003-.079,.006-.159-.015-.239-.036-.136-.096-.239-.165-.328-.021-.027-.045-.048-.068-.07-.057-.055-.12-.1-.189-.134-.028-.013-.055-.029-.085-.039-.097-.033-.199-.054-.309-.055h-.009c-.126-.001-.257,.018-.389,.053-.803,.214-1.431,.873-1.91,1.52-.01,.014-.023,.028-.034,.042-.08,.113-.163,.238-.248,.373-.171,.27-.351,.58-.53,.905s-.357,.667-.525,1.003c-.084,.168-.165,.333-.242,.495-.154,.323-.293,.627-.405,.891-.003,.008-.005,.018-.008,.026-.062,.135-.142,.306-.23,.487s-.186,.372-.286,.549c-.085,.15-.17,.285-.253,.399-.019,.026-.038,.054-.057,.077-.092,.115-.179,.196-.254,.216-.019,.005-.036,.007-.052,.007-.025,0-.039-.015-.057-.025-.01-.006-.024-.006-.032-.014-.028-.026-.047-.06-.058-.099-.022-.085-.024-.158-.02-.214-.004-.975,.815-3.066,.894-4.043,.011-.14,.008-.256-.016-.344v-.002c-.022-.077-.059-.145-.101-.209l-.007-.015c-.015-.021-.035-.038-.052-.057-.037-.041-.075-.08-.12-.111-.024-.017-.051-.03-.077-.043-.045-.023-.091-.041-.14-.054-.03-.007-.06-.013-.09-.016-.073-.007-.146-.009-.222,.011-.171,.046-.324,.129-.468,.23-.149,.106-.289,.231-.429,.356-.13,.116-.259,.232-.397,.33-.144,.102-.296,.185-.467,.23-.069,.018-.124,.015-.197,.016,.05-.129,.074-.261,.089-.393,.021-.182,.018-.367-.032-.555-.024-.091-.06-.169-.102-.24-.013-.022-.03-.039-.045-.058-.033-.043-.068-.083-.109-.114-.022-.017-.045-.03-.069-.043-.043-.024-.089-.04-.138-.052-.027-.006-.054-.013-.083-.015-.077-.006-.157-.004-.247,.02h0c-.263,.07-.485,.261-.652,.508-.17,.252-.279,.563-.313,.865-.021,.19-.014,.377,.03,.542,.036,.136,.101,.275,.194,.387s.217,.198,.372,.23c-.208,.502-.422,.993-.635,1.474s-.424,.955-.625,1.421c-.064,.126-.13,.252-.196,.365-.109,.207-.238,.428-.383,.646s-.307,.433-.482,.63c-.175,.196-.364,.374-.563,.518-.199,.143-.409,.252-.627,.31-.061,.016-.117,.024-.17,.024-.019,0-.034-.009-.052-.011-.029-.003-.055-.009-.081-.017-.043-.013-.082-.031-.119-.055-.021-.014-.043-.027-.062-.045-.035-.032-.064-.071-.091-.113-.013-.019-.027-.036-.038-.057-.035-.066-.064-.139-.085-.218-.022-.085-.041-.153-.038-.208,.144-.112,.301-.239,.464-.381,.652-.566,1.404-1.348,1.859-2.18,.227-.416,.38-.844,.409-1.264,.014-.21-.003-.417-.057-.62-.05-.186-.129-.331-.222-.456-.028-.038-.061-.067-.093-.1-.075-.077-.158-.142-.25-.191-.04-.021-.078-.043-.121-.059-.116-.043-.241-.069-.374-.076-.022-.001-.042-.009-.065-.009-.171-.002-.353,.022-.54,.072-.224,.06-.437,.15-.64,.266-.812,.462-1.46,1.328-1.993,2.261-.4,.7-.735,1.437-1.026,2.071l-.207,.458c-.005,.015-.009,.033-.013,.049-.039,.082-.081,.168-.125,.255-.088,.175-.184,.358-.287,.531-.257,.435-.553,.816-.853,.896-.024,.006-.046,.01-.067,.01-.021,0-.036-.013-.054-.019-.013-.005-.027-.006-.037-.013-.035-.024-.063-.06-.078-.115h0c-.034-.129,.036-.655,.144-1.294,.036-.213,.076-.439,.117-.667,.042-.228,.085-.457,.127-.679s.084-.434,.122-.627c.057-.29,.106-.537,.14-.706l.028-.141,1.042-.278c.081-.022,.158-.063,.227-.118,.206-.165,.335-.453,.266-.709-.022-.083-.074-.147-.136-.197-.011-.009-.021-.019-.032-.027-.063-.042-.137-.066-.215-.069-.043-.002-.087-.002-.131,.009l-.786,.21c.046-.204,.098-.423,.123-.645,.005-.045,.003-.09,.006-.135,.011-.177,.008-.354-.038-.524-.023-.086-.077-.19-.146-.297l-.017-.028c-.068-.102-.155-.205-.249-.302-.013-.013-.025-.027-.039-.04-.095-.092-.197-.172-.301-.236-.017-.01-.034-.021-.051-.03-.104-.057-.208-.091-.307-.096-.045-.002-.09-.006-.132,.005-.188,.05-.249,.231-.333,.4-.173,.503-.332,.998-.493,1.49-.117,.357-.233,.712-.363,1.062l-.564,.151c-.196,.052-.385,.116-.524,.229-.139,.113-.229,.274-.228,.521-.003,.056,.006,.09,.02,.142,.025,.092,.077,.151,.138,.198,.015,.011,.031,.022,.047,.031,.065,.035,.139,.058,.22,.058h.003c.063,0,.128-.009,.192-.026l.222-.059c-.377,.975-.821,1.92-1.223,2.82-.278,.59-.783,1.721-1.113,1.809-.011,.003-.021,.004-.03,.004-.005,0-.006-.011-.011-.012-.044-.007-.08-.036-.097-.102-.014-.051-.015-.123-.017-.197,.021-.317,.06-.631,.109-.944,.05-.313,.111-.625,.176-.936,.131-.623,.281-1.243,.398-1.869,.025-.144,.039-.28,.038-.413-.001-.132-.017-.261-.051-.388-.015-.058-.04-.121-.07-.188-.01-.022-.024-.045-.036-.068-.023-.046-.047-.091-.075-.139-.017-.028-.037-.055-.056-.083-.029-.043-.057-.086-.09-.128-.022-.029-.047-.057-.071-.085-.033-.039-.066-.078-.101-.114-.027-.028-.055-.054-.083-.08-.036-.034-.072-.066-.11-.096-.029-.023-.059-.044-.09-.065-.038-.026-.077-.05-.116-.071-.031-.017-.062-.031-.093-.044-.039-.016-.079-.028-.118-.037-.031-.007-.063-.013-.094-.016-.06-.005-.121-.006-.179,.009-.331,.088-.481,.586-.564,1.053-.049,.281-.074,.551-.099,.715h0c-.087-.109-.193-.177-.305-.227-.036-.016-.074-.023-.112-.034-.081-.023-.163-.041-.249-.044-.04-.002-.079-.002-.119,0-.14,.006-.282,.025-.415,.06-.506,.135-.933,.395-1.301,.726-.246,.221-.466,.472-.668,.739-.302,.4-.562,.835-.801,1.248-.102,.176-.37,.718-.637,1.268-.16,.33-.32,.664-.443,.923-.05,.096-.069,.166-.084,.233-.003,.014-.016,.037-.018,.05-.003,.022,.004,.038,.003,.058-.001,.049-.003,.098,.008,.14l.005,.018,.005,.017c.03,.088,.078,.14,.131,.179,.012,.009,.025,.018,.038,.025,.055,.028,.115,.045,.178,.045,.045,0,.091-.004,.137-.012h0c-.067,.366-.054,.691,.033,1.015,.042,.158,.103,.302,.175,.432,.023,.041,.053,.073,.078,.11,.056,.082,.117,.158,.188,.22,.038,.034,.082,.059,.124,.086,.074,.047,.154,.082,.241,.107,.052,.015,.104,.026,.161,.032,.135,.014,.277,.016,.44-.028h0c.244-.065,.475-.18,.692-.33,.109-.075,.214-.158,.317-.247,.204-.179,.395-.383,.57-.597,.088-.107,.172-.216,.252-.325,.16-.218,.306-.438,.434-.641h0c.001,.146,.021,.287,.057,.423,.041,.153,.102,.278,.174,.389,.023,.034,.051,.061,.076,.091,.057,.068,.118,.127,.188,.173,.035,.023,.071,.044,.109,.062,.076,.036,.159,.059,.247,.072,.039,.006,.076,.017,.116,.018,.133,.006,.273-.005,.426-.046,1.196-.319,2.105-1.92,2.649-3.128,.078-.173,.148-.337,.21-.489l.003-.011,.004-.015c.249-.571,.478-1.139,.685-1.713l.077,.016c-.277,.879-.856,2.551-.624,3.422,.044,.167,.111,.297,.187,.409,.023,.034,.051,.061,.077,.09,.062,.07,.13,.128,.207,.172,.033,.019,.065,.039,.101,.054,.097,.039,.202,.062,.316,.069,.02,.001,.037,.008,.057,.008,.148,.002,.307-.02,.478-.065,.521-.139,1.012-.476,1.451-.913,.219-.219,.426-.462,.617-.719,.095-.128,.187-.26,.274-.393s.17-.268,.248-.403c.056-.091,.098-.184,.147-.276,.048-.092,.102-.184,.147-.276h0c.014,.139,.038,.279,.075,.418,.052,.197,.128,.359,.213,.506,.021,.036,.042,.071,.064,.104,.091,.134,.192,.252,.309,.342,.007,.005,.014,.008,.021,.012,.114,.084,.242,.143,.377,.189,.034,.012,.068,.023,.104,.032,.145,.038,.296,.062,.458,.062,.011,0,.023-.002,.035-.002,.227-.002,.467-.036,.716-.102h.001c.842-.225,1.552-.7,2.161-1.319,.367-.373,.707-.785,.993-1.26,.174-.286,.316-.567,.445-.842,.153-.316,.357-.767,.557-1.236,.269-.638,.617-1.39,.914-2.128,.073-.001,.158-.024,.226-.042,.153-.041,.282-.112,.435-.153h0c.033-.009,.076-.017,.118-.017,.007,0,.013,.004,.02,.005,.011,0,.018,.004,.029,.006,.05,.01,.095,.033,.112,.096h0c.018,.066,.008,.163-.021,.285-.038,.156-.115,.363-.204,.588-.118,.3-.262,.639-.407,1.007-.338,.859-.649,1.82-.469,2.495,.046,.171,.115,.311,.197,.432,.025,.038,.057,.067,.085,.1,.064,.074,.135,.139,.214,.189,.038,.024,.078,.047,.119,.065,.088,.039,.185,.063,.287,.077,.04,.005,.077,.017,.119,.018,.15,.005,.309-.01,.48-.055,.392-.105,.711-.282,.986-.556,.376-.377,.722-.865,1.023-1.375,.301-.51,.557-1.041,.754-1.505,.044-.091,.092-.192,.141-.299,.098-.213,.202-.444,.293-.64,.045-.098,.087-.187,.123-.262,.411-.859,.753-1.499,1.285-2.245h0c-.027,.062-.042,.143-.047,.239-.015,.287,.057,.705,.149,1.133,.031,.143,.063,.287,.096,.427,.065,.281,.128,.549,.17,.767,.021,.109,.037,.206,.044,.287-.169,.018-.342,.036-.516,.062-.174,.026-.348,.058-.519,.104-.184,.049-.355,.122-.506,.217-.075,.047-.145,.1-.209,.158-.127,.116-.229,.252-.298,.405-.102,.23-.128,.5-.048,.801,.046,.174,.121,.314,.208,.439,.024,.035,.051,.066,.078,.098,.076,.088,.16,.164,.254,.225,.027,.018,.051,.039,.078,.055,.123,.068,.256,.119,.398,.153,.031,.007,.065,.01,.097,.016,.117,.022,.238,.035,.362,.038,.046,.001,.092,.003,.138,.001,.096-.002,.193-.01,.289-.022,.043-.005,.087-.008,.13-.014,.138-.021,.274-.049,.405-.083,.137-.036,.268-.082,.394-.136,.377-.162,.702-.401,.95-.705,.165-.203,.297-.435,.387-.693,.09-.258,.139-.542,.14-.849,.121-.059,.24-.128,.356-.216,.116-.088,.229-.196,.338-.335,.041-.05,.074-.113,.112-.17,.037-.057,.078-.109,.112-.17,.004-.006,.009-.009,.013-.015l1.006-2.263h0l.09,.067c-.255,1.239-.549,2.47-.821,3.714-.02,.133-.055,.271-.019,.407,.029,.109,.099,.176,.18,.226,.023,.014,.047,.025,.071,.035,.071,.029,.148,.046,.229,.05,.02,0,.04,.006,.06,.005,.087-.002,.174-.013,.248-.033,.597-.159,.996-.723,1.202-1.254l.458-1.165c.083-.201,.334-.971,.584-1.378,.083-.136,.166-.231,.243-.251h0c.021-.006,.041-.009,.059-.009,.017,0,.028,.011,.042,.016,.011,.004,.023,.005,.032,.012,.029,.022,.052,.055,.067,.11,.009,.034,.006,.09,.007,.163-.044,.725-.2,1.443-.004,2.177,.032,.121,.089,.217,.155,.3,.02,.026,.045,.045,.068,.067,.053,.051,.111,.094,.176,.126,.03,.015,.06,.03,.091,.041,.075,.027,.154,.043,.237,.05,.025,.002,.048,.009,.073,.01,.115,.002,.233-.01,.351-.042,.145-.039,.288-.104,.422-.184,.134-.079,.26-.173,.372-.267,.089-.08,.177-.183,.266-.276,.26-.27,.517-.573,.758-.924,.269-.391,.51-.825,.726-1.269,.044-.089,.094-.176,.134-.266,.005-.008,.012-.013,.017-.022,.366-.756,.582-1.381,.894-2.069l.069,.056c-.054,.207-.123,.467-.192,.755-.069,.287-.139,.601-.195,.913-.108,.601-.163,1.193-.074,1.587,.003,.015,.003,.035,.007,.049,.04,.151,.097,.274,.161,.382,.02,.033,.045,.059,.067,.088,.051,.066,.108,.123,.172,.167,.031,.021,.062,.042,.096,.058,.072,.035,.153,.056,.239,.068,.033,.004,.062,.014,.096,.016,.128,.004,.267-.01,.423-.051h0c.179-.048,.365-.125,.539-.224,.175-.099,.339-.221,.476-.358,.73-.762,1.385-1.942,1.832-2.94,.048-.095,.076-.18,.087-.259,.011-.078,.005-.15-.013-.218Zm-26.775,7.039c.072-.397,.214-1.011,.394-1.595,.094-.304,.201-.588,.313-.84,.075-.171,.153-.316,.233-.436,.028-.042,.055-.099,.084-.134,.076-.091,.153-.152,.23-.173,.02-.005,.039-.008,.057-.008,.025,0,.043,.016,.064,.026,.014,.006,.028,.007,.04,.016,.038,.031,.068,.075,.085,.138,.094,.352-.005,.82-.201,1.3s-.489,.972-.784,1.373c-.196,.267-.393,.494-.563,.649h0c.007-.075,.024-.184,.048-.316Zm-12.128,4.764c-.019,.005-.038,.008-.056,.008-.025,0-.043-.017-.065-.027-.014-.006-.03-.007-.042-.018-.038-.033-.07-.081-.089-.152-.144-.539,.306-2.48,.864-3.504,.186-.341,.384-.58,.576-.631,.056-.015,.106-.022,.152-.022,.04,0,.065,.024,.098,.035,.025,.009,.053,.012,.074,.027,.067,.048,.122,.12,.152,.236,.2,.751-.879,3.838-1.665,4.048Zm23.243-5.786c-.119,.171-.285,.303-.516,.365-.05,.013-.102,.02-.152,.02-.005,0-.009-.004-.014-.004-.09-.002-.173-.027-.246-.07-.016-.009-.028-.02-.042-.031-.07-.053-.129-.119-.154-.211h0c-.065-.244,.048-.4,.224-.494,.059-.031,.124-.056,.193-.074,.244-.065,.479-.077,.71-.091,.077-.004,.156-.009,.232-.015h0c-.042,.221-.114,.433-.233,.604Z" fill="#fff"/>
    <path d="M183.035,62.271c.025,.034,.057,.06,.086,.091,.061,.066,.127,.126,.201,.173,.04,.025,.081,.045,.124,.065,.076,.035,.157,.061,.241,.077,.046,.009,.092,.019,.139,.022,.125,.009,.254,.006,.384-.029,.41-.109,.776-.399,1.011-.77,.117-.186,.202-.392,.243-.606,.041-.214,.037-.436-.021-.654-.037-.139-.102-.259-.181-.366-.025-.034-.058-.06-.086-.091-.061-.065-.127-.125-.201-.173-.04-.026-.083-.046-.126-.066-.076-.035-.156-.062-.239-.079-.047-.01-.094-.02-.143-.023-.04-.003-.082,.007-.123,.009-.086,.003-.171-.005-.258,.018-.102,.027-.202,.066-.298,.115-.19,.097-.363,.233-.51,.395l-.003,.003c-.147,.164-.267,.353-.349,.556-.122,.305-.159,.639-.074,.96,.038,.143,.104,.265,.183,.373Z" fill="#fff"/>
    <path d="M130.864,81.529c-.017-.013-.04-.014-.059-.022-.054-.023-.112-.044-.184-.025-.132,.035-.235,.116-.359,.379-.25,.527-.761,1.477-1.736,1.735-.156,.041-.311,.059-.467,.059l-.016-.002c-.171-.001-.344-.021-.525-.055,.069-.191,.128-.378,.174-.564,.139-.557,.164-1.098,.01-1.682-.076-.286-.234-.579-.452-.745-.073-.055-.152-.096-.238-.118h.001c.148-.039,.296-.058,.446-.068,.069-.005,.139-.005,.209-.006,.061-.001,.121-.005,.182-.005h.091c.094,0,.19-.004,.285-.006,.068-.002,.136-.001,.204-.006,.156-.011,.312-.031,.47-.073,.122-.032,.234-.076,.337-.129,.308-.16,.534-.407,.693-.7,.166-.305,.26-.661,.303-1.02,.012-.1,.022-.201,.026-.301,0-.071-.006-.158-.023-.224-.015-.057-.043-.108-.078-.15-.006-.007-.011-.016-.018-.022-.037-.037-.086-.059-.143-.063-.028-.002-.056-.005-.089,.004-.165,.044-.211,.177-.269,.341-.094,.262-.222,.605-.935,.794-.612,.163-1.243,.187-1.886,.234-.141,.003-.295,.025-.444,.065-.794,.21-1.288,.891-1.363,1.672-.003,.054-.003,.125,.011,.175,.016,.061,.045,.112,.082,.149,.012,.011,.03,.012,.044,.02,.039,.022,.079,.042,.138,.026,.15-.04,.204-.302,.518-.385,.069-.018,.134-.027,.195-.027,.034,0,.06,.017,.092,.022,.041,.007,.081,.014,.118,.028,.058,.023,.11,.054,.159,.093,.03,.023,.06,.043,.087,.071,.048,.051,.088,.111,.126,.175,.017,.029,.037,.053,.053,.084,.048,.098,.088,.203,.117,.312,.077,.29,.111,.586,.102,.878s-.061,.581-.157,.854c-1.168-.594-2.252-1.812-3.006-2.852,.564-.481,1.421-1.28,1.693-2.11,.091-.277,.116-.557,.044-.83h0c-.04-.153-.1-.276-.168-.386-.018-.03-.038-.057-.058-.084-.063-.085-.134-.158-.213-.217-.014-.011-.026-.025-.041-.034-.095-.063-.2-.107-.311-.139-.028-.008-.058-.013-.088-.02-.094-.02-.191-.032-.292-.035-.025,0-.049-.003-.074-.003-.212,.002-.434,.035-.658,.094-1.704,.452-2.347,2.305-1.93,3.877,.057,.215,.127,.409,.196,.604-1.135,1.062-2.115,2.314-1.677,3.969,.05,.187,.116,.358,.191,.521,.024,.051,.052,.097,.078,.146,.057,.107,.119,.21,.187,.305,.035,.049,.072,.096,.11,.142,.072,.087,.148,.167,.229,.242,.04,.037,.079,.076,.121,.111,.102,.083,.21,.156,.323,.221,.026,.015,.05,.035,.077,.049,.142,.075,.292,.136,.448,.184,.043,.013,.089,.02,.133,.031,.116,.029,.235,.054,.357,.068,.059,.007,.119,.01,.18,.013,.087,.005,.177,.002,.267,0,.256-.008,.518-.035,.786-.106h0c.252-.067,.501-.148,.744-.244,.728-.288,1.4-.709,1.956-1.268,.167,.063,.34,.114,.515,.156,.05,.012,.101,.021,.151,.031,.139,.027,.279,.043,.42,.049,.048,.002,.095,.007,.143,.006,.167-.003,.335-.019,.501-.063,.397-.105,.74-.291,1.039-.533,.299-.241,.556-.538,.78-.864,.449-.653,.772-1.425,1.059-2.112,.08-.163,.123-.334,.075-.516-.02-.077-.064-.135-.118-.177Zm-7.825-3.812c.081-.109,.192-.191,.341-.231,.051-.014,.098-.02,.142-.02,.023,0,.04,.012,.062,.015,.029,.005,.057,.01,.082,.02,.04,.016,.076,.037,.109,.064,.02,.016,.041,.03,.059,.049,.032,.035,.059,.077,.084,.121,.011,.02,.025,.036,.035,.057,.032,.067,.058,.139,.078,.212,.206,.778-.181,1.323-.734,1.842-.15-.297-.294-.578-.378-.892-.031-.116-.055-.255-.064-.403-.018-.294,.022-.617,.184-.835Zm1.549,7.597c-.2,.053-.392,.073-.579,.078-.021,0-.044,.009-.065,.009-.026,0-.048-.012-.074-.013-.224-.008-.44-.038-.639-.109l-.01-.005c-.197-.072-.374-.181-.539-.309-.031-.024-.062-.045-.091-.071-.154-.134-.29-.292-.407-.473-.023-.035-.042-.072-.063-.109-.113-.196-.21-.408-.273-.646-.162-.612-.021-1.217,.316-1.749,.736,1.24,1.832,2.366,3.093,3.112-.215,.128-.438,.222-.669,.284Z" fill="#fff"/>
  </g>
  <g>
    <path d="M102.181,87.361c-.031-.115-.084-.186-.151-.234-.021-.015-.048-.018-.073-.026-.033-.011-.057-.035-.097-.035-.046,0-.097,.008-.153,.023-.096,.026-.193,.098-.289,.206-.096,.108-.192,.253-.284,.423-.046,.085-.092,.176-.136,.272-.089,.193-.174,.405-.252,.627-.039,.111-.077,.224-.113,.338-.071,.229-.135,.461-.19,.687-.082,.339-.141,.662-.172,.935-.03,.272-.031,.493,.004,.627,.019,.071,.051,.119,.089,.151,.012,.01,.028,.011,.042,.017,.021,.01,.04,.027,.064,.027,.018,0,.037-.003,.056-.008,.537-.144,1.212-1.641,1.516-2.806,.083-.318,.138-.611,.156-.845,.006-.078,.008-.149,.005-.213-.003-.064-.011-.12-.023-.166h0Z" fill="#a32035"/>
    <path d="M159.163,74.418c.081-.074,.169-.167,.26-.271,.098-.113,.2-.239,.302-.377,.295-.401,.588-.893,.784-1.373,.098-.24,.172-.477,.209-.698,.037-.221,.039-.426-.008-.602-.017-.064-.048-.108-.085-.138-.012-.009-.027-.01-.04-.016-.021-.009-.039-.026-.064-.026-.018,0-.037,.003-.057,.008-.077,.02-.154,.081-.23,.173-.028,.034-.056,.091-.084,.134-.08,.12-.157,.265-.233,.436-.111,.253-.218,.536-.313,.84-.09,.292-.171,.591-.238,.867-.067,.276-.12,.529-.156,.728-.024,.133-.04,.241-.048,.316h0Z" fill="#a32035"/>
    <path d="M194.466,53.58s1.251-8.255,8.172-31.116c.021-.074-.031-.149-.114-.145l-6.389,.196c-.156,.006-.282,.12-.303,.273l-.313,2.335s-3.94-5.691-12.581,1.195c0,0-5.691,3.794-10.256,23.749l-.845,3.549s-.386,1.686-1.543,1.3c0,0-.427,.105-.145-1.652,.281-1.757,2.502-11.066,2.502-11.066,0,0,2.064-7.694,2.314-12.963,.249-5.27-6.608-4.04-6.608-4.04,0,0-2.596,.246-5.473,2.669l-.041-1.702c0-.078-.073-.137-.146-.133l-.302,.022c-.26,.019-.532,.038-.792,.058-.375,.027-.75,.054-1.126,.081-.427,.031-.865,.063-1.292,.094-.438,.031-.875,.062-1.303,.094-.386,.028-.771,.055-1.157,.083-.365,.026-.719,.052-1.084,.077-.125,.008-.208,.049-.261,.161-.031,.054-.052,.112-.073,.168-.084,.222-.145,.453-.208,.682-.105,.436-.199,.877-.292,1.319-.063,.321-.126,.643-.178,.965-.667,3.605-4.128,16.91-4.128,16.91,0,0-2.064,8.993-4.774,10.867-2.72,1.873-1.271-3.186-1.271-3.186l6.16-26.606s.052-.185-.104-.247c-.418-.162-1.939-.194-6.963,.359-.084,.009-.25,.029-.303,.123,0,0-.229,.234-.469,3.28,0,0-4.524-5.905-11.341,.468-6.556,6.136-10.069,27.263-10.069,27.263-.125,.556-.406,1.539-1.022,1.732-.239,.078-.531,.027-.729-.133-.229-.176-.354-.463-.386-.749-.084-.821,.104-1.789,.219-2.622,.167-1.126,.323-2.249,.531-3.369,1.198-6.712,4.148-23.351,4.148-23.351l-7.098,1.125s-2.283,11.592-5.44,26.243c0,0-1.418,5.995-3.012,5.292-1.595-.702,6.556-42.578,6.556-42.578,0,0,3.377-14.568,1.73-17.659-1.636-3.092-6.411-4.451-10.768-.797-4.356,3.654-8.39,14.099-5.857,23.186,0,0,1.126,5.106,3.794,9.602-1.636-.489-2.815-.353-3.512-.199-7.651,1.702-10.559,18.159-11.852,24.51-.656,3.268-1.887,8.245-2.689,8.198-.302-.018-.427-.808-.427-1.616,0,0-.177-3.724,3.263-16.278,3.471-12.699-3.096-11.711-3.096-11.711,0,0-3.982-.468-8.339,4.357,0,0,.428-1.874,.563-2.156,.145-.28-.094-.703-1.877-.046-1.772,.656-5.107,.984-5.107,.984,0,0-.281-.234-.885,2.857-.605,3.092-3.836,15.037-5.295,18.878-1.449,3.841-4.211,10.352-6.692,10.727,0,0,2.2-3.092,4.075-11.242,1.866-8.151,3.982-19.112,3.982-19.112,0,0,2.762-15.902,16.605-34.17,0,0-42.09,13.139-49.261,37.098,0,0-3.794,11.734,8.996,14.333,0,0,4.534,1.02,10.538-4.251,0,0-4.315,16.266-10.851,21.044-6.536,4.778-11.205,1.089-11.205,1.089,0,0-3.408-2.389-.605-9.064,0,0-11.153,1.465-7.129,13.549,4.023,12.056,24.422,2.716,26.142,.573,0,0,.521-.246-.814,3.268,0,0,4.149,1.089,12.539-8.326l-.469,2.217c-.062,.285,.156,.556,.448,.547,.209-.005,.417-.014,.626-.024,2.053-.103,3.94-.418,5.608-.835,.114-.014,.427-.07,.709-.319,.198-.172,.343-.398,.417-.661l7.14-26.22s.595-2.6,1.928-3.583c1.345-.984,2.147-1.231,2.147-1.231,0,0,2.106-1.054,1.303,2.355-.814,3.407-4.608,20.445-4.608,20.445,0,0-2.355,8.01,7.068,5.622,0,0,4.033-1.159,5.649-3.97,0,0,4.711,6.077,11.81-2.073,0,0,5.055,5.058,11.027-2.003,0,0,4.357,5.832,11.946-2.248,0,0,6.994,6.077,13.529-2.249,0,0,2.773,5.446,8.568-.562-.208,.503-.458,1.339-.073,1.862,.208,.277,.688,.604,3.461,.222,.98-.135,2.095-.304,3.711-.749,0,0,.239-.07,.365-.515,.854-3.312,6.233-24.02,7.014-25.377,0,0,1.366-3.864,3.305-4.919,1.928-1.054,3.262-.809,2.772,1.827-.49,2.635-3.273,15.103-4.284,18.97-1.022,3.865-1.375,7.554,3.086,8.116,4.461,.562,7.692-2.563,8.463-3.794,0,0,3.548,3.035,8.304,1.682-.131,.422-.162,.872-.045,1.307,.112,.422,.352,.772,.668,1.025-.655,.183-.909,.732-.992,.914-.082,.179-.162,.358-.24,.537-.288-.452-.766-.716-1.337-.716-.173,0-.352,.025-.533,.073-.397,.106-.785,.339-1.152,.65,.041-.232,.081-.466,.119-.701,.054-.302,.095-.69-.032-1.16-.178-.669-1.033-1.867-2.101-1.867-.119,0-.237,.015-.35,.045-.806,.215-1.003,1.045-1.068,1.318l-.04,.162c-.402,1.627-2.185,3.334-2.998,3.334-.197,0-.401,.028-.608,.083-.865,.23-4.062,1.703-4.748,1.703-.129,0-.258,.017-.384,.051-.391,.104-.7,.313-.957,.525-.246-.543-.728-.87-1.313-.87-.139,0-.281,.019-.423,.057-.57,.152-1.065,.605-1.356,1.243-.146,.319-.23,.658-.251,.987-.337-.261-.763-.402-1.249-.402-.238,0-.489,.035-.746,.103-.666,.177-1.234,.549-1.731,1.025-.379,.06-.758,.12-1.137,.179-.124-.051-.253-.089-.392-.099-.009-.148-.031-.298-.072-.448-.178-.665-1.051-1.671-1.963-1.671h0c-.111,0-.221,.014-.326,.042-.546,.146-.754,.583-.853,.793l-.025,.053-.025,.05-.018,.052c-.124,.359-.239,.715-.353,1.068-.095,.294-.188,.575-.283,.856-.615,.099-1.23,.198-1.845,.3-.321-.263-.695-.456-1.108-.456-.12,0-.239,.015-.353,.046-.44,.117-.708,.426-.89,.792-.889,.15-1.776,.309-2.663,.463,.23-.351,.469-.677,.725-.943,.561-.57,1.169-1.399,.822-2.697-.199-.75-.73-1.217-1.386-1.217-.119,0-.241,.016-.36,.048-.565,.151-.893,.567-1.07,.791-.927,1.19-1.696,2.927-2.287,4.645-.113,.02-.226,.04-.339,.06-.013-.096-.022-.19-.052-.302-.212-.796-1.002-1.623-1.956-1.623-.138,0-.276,.018-.409,.053-.903,.241-1.119,1.172-1.2,1.522-.084,.366-.166,.705-.249,1.052-.303,.056-.607,.113-.91,.17,.008-.318,.036-.648,.114-1.028l.022-.12c.042-.222,.1-.527,.005-.885-.15-.561-.624-.909-1.237-.909-.174,0-.358,.027-.564,.081-.801,.214-1.084,.896-1.253,1.303-.409,1.015-1.125,2.166-1.918,2.378-.045,.012-.087,.018-.124,.018-.036,0-.052-.006-.052-.006-.004-.094,.016-.16,.21-.448,.194-.287,.486-.721,.337-1.283-.137-.507-.57-.832-1.104-.832-.13,0-.268,.019-.409,.057-.523,.14-.973,.485-1.258,.75-.796,.693-1.253,1.598-1.325,2.544-.969,.187-1.938,.373-2.907,.562-.411-.347-.939-.549-1.561-.549-.306,0-.633,.046-.972,.136-.805,.213-1.481,.673-1.985,1.309-1.044,.207-2.088,.416-3.132,.627-.341-.319-.758-.561-1.213-.561h0c-.113,0-.225,.015-.333,.043-.595,.159-.837,.671-.946,1.016-9.595,1.956-19.164,4.032-28.701,6.232-6.924,1.595-13.875,3.273-20.61,5.567-.253-.377-.623-.605-1.057-.605-.113,0-.228,.015-.342,.046-.545,.146-.861,.55-1.031,.767-.205,.264-.4,.563-.59,.876-1.383,.517-2.759,1.055-4.118,1.638-.856,.367-1.733,.755-2.617,1.158-.008-.058,0-.109-.017-.17-.139-.522-.586-.849-1.163-.849-.168,0-.347,.026-.547,.08-.763,.204-1.036,.862-1.199,1.255-.205,.512-.489,1.057-.821,1.503-.458,.238-.913,.484-1.367,.735,.019-.08,.074-.179,.197-.362,.186-.276,.468-.694,.326-1.224-.127-.472-.533-.776-1.034-.776-.124,0-.256,.018-.391,.055-.507,.136-.945,.473-1.223,.731-1.085,.947-1.539,2.292-1.201,3.586-4.477,2.965-8.323,6.736-10.058,11.742,0,0,5.459-3.754,15.385-5.267v.004l-.022,.119c-.045,.239-.1,.538-.005,.894,.137,.509,.563,.837,1.085,.837,.121,0,.247-.017,.375-.051,1.002-.269,1.712-1.234,2.222-2.231,.931-.077,1.899-.128,2.893-.159,.332,.235,.791,.497,1.336,.497,.143,0,.285-.018,.421-.055,.217-.058,.508-.188,.741-.464,6.476,.077,14.113,1.222,22.786,4.333,0,0,2.668-9.135,33.24-17.917,30.562-8.782,51.221-14.334,51.221-14.334,0,0,5.959-1.439,12.543-4.276,.155,.035,.296,.048,.397,.048,.193,0,.398-.029,.612-.086,.516-.137,1.026-.43,1.4-.804,.121-.126,.227-.275,.34-.413,6.773-3.281,13.432-8.005,14.362-14.142,0,0,1.053-6.042-4.92-2.951ZM49.416,43.227c.031,.098,.052,.196,.073,.295,.156,.78,.229,1.58,.188,2.376-.041,.881-.188,1.756-.552,2.563-.584,1.266-1.866,2.745-3.419,2.576-.803-.087-1.345-.634-1.532-.831-1.772-1.801-.885-5.179-.604-5.988,.666-1.927,1.73-3.428,1.73-3.428,5.524-9.696,19.908-17.237,19.908-17.237-9.558,11.242-9.892,21.501-9.892,21.501-2.762-3.654-5.9-1.828-5.9-1.828Zm54.097,1.863c-.25,2.455-.761,4.876-1.178,7.306-.605,3.546-1.115,7.39-2.533,10.721-.375,.878-1.594,2.117-2.48,1.056-.595-.705-.563-1.735-.595-2.601-.041-1.013-.01-2.028,.074-3.039,.145-2.019,.49-4.019,.854-6.007,.49-2.584,1.043-5.301,2.022-7.754,.657-1.64,1.877-2.436,1.877-2.436,.562-.368,1.501-.556,1.897,.121,.427,.732,.145,1.851,.063,2.632Zm3.992-36.713s1.636-2.717,2.48-1.031c.845,1.686-3.471,19.627-3.471,19.627,0,0-3.46-9.93,.99-18.596Zm27.027,50.073c-3.231,1.451-3.325-3.463-3.325-3.466-.084-4.275,.844-8.621,2.429-12.581,.458-1.159,1.47-3.894,2.835-5.434,.875-.985,1.897-1.483,3.023-.77,.615,.394,1.094,1.406,.98,2.156-.01,.101-2.721,18.646-5.942,20.094Zm49.255,1.533c.096-.049,.195-.088,.298-.115,.087-.023,.172-.015,.258-.018l.034-.021h.008c.028-.001,.054,.01,.081,.012,.05,.004,.095,.013,.143,.023,.084,.017,.162,.043,.239,.079,.044,.02,.085,.04,.126,.066,.075,.048,.14,.107,.201,.173,.029,.031,.061,.056,.086,.091,.079,.107,.144,.228,.181,.366,.058,.218,.061,.44,.021,.654-.041,.214-.125,.42-.243,.606-.235,.371-.601,.661-1.011,.77-.103,.028-.207,.041-.308,.041-.026,0-.05-.01-.076-.012-.048-.003-.093-.013-.139-.022-.084-.017-.164-.042-.241-.077-.043-.02-.084-.039-.124-.065-.075-.048-.14-.107-.201-.173-.029-.031-.06-.056-.086-.091-.079-.108-.145-.23-.183-.373-.085-.32-.049-.655,.074-.96,.082-.203,.201-.393,.349-.556l.003-.003c.147-.162,.32-.298,.51-.395Zm-54.222,15.19c.08-.38,.245-.74,.473-1.063,.153-.216,.334-.415,.538-.592,.125-.116,.267-.232,.42-.329s.314-.178,.476-.221c.055-.015,.111-.022,.167-.025,.007,0,.015-.003,.022-.003,.009,0,.016,.006,.025,.006,.042,.002,.079,.012,.114,.028,.014,.007,.028,.012,.041,.022,.043,.031,.079,.072,.097,.14,.118,.444-.754,.878-.527,1.732,.003,.013,.011,.021,.015,.034,.034,.112,.085,.206,.146,.286,.021,.027,.047,.048,.071,.072,.055,.054,.115,.1,.182,.136,.031,.016,.062,.032,.095,.045,.077,.029,.159,.046,.244,.054,.027,.003,.052,.01,.08,.011,.009,0,.016,.003,.025,.003,.112,0,.228-.016,.344-.047,.566-.151,1.049-.561,1.451-1.058,.458-.568,.809-1.251,1.037-1.819,.145-.35,.29-.699,.682-.804,.091-.024,.192-.039,.293-.045,.017,0,.034-.008,.051-.008,.012,0,.021,.007,.033,.007,.058,.003,.11,.017,.16,.036,.025,.009,.05,.015,.072,.029,.065,.042,.119,.102,.146,.2,.054,.205-.002,.403-.038,.614-.104,.507-.13,.942-.128,1.359,.006,.824,.173,1.554,.415,2.461l.091,.342c.046,.171,.091,.344,.132,.519,.084,.35,.154,.707,.19,1.064,.018,.179,.027,.358,.024,.537l.112,.007c.816-1.765,1.285-3.571,1.719-5.431,.053-.229,.109-.456,.162-.687,.077-.331,.194-.784,.586-.888,.063-.017,.126-.025,.188-.025l.011,.003c.115,.002,.228,.033,.336,.081,.018,.008,.035,.014,.053,.023,.104,.052,.201,.121,.29,.202,.016,.014,.03,.028,.045,.044,.087,.085,.165,.179,.228,.278,.009,.013,.014,.026,.022,.04,.063,.106,.115,.215,.143,.321,.02,.073,.025,.151,.034,.227,.011,.083,.025,.165,.038,.248,.029,.312,.052,.624,.077,.934,.073,.931,.154,1.849,.393,2.745,.018,.068,.036,.136,.054,.205l.028,.103,.122,.388,.073-.002c.059-.327,.131-.679,.213-1.049,.083-.37,.177-.758,.281-1.156,.209-.797,.461-1.636,.749-2.46,.04-.114,.085-.223,.127-.336,.555-1.523,1.227-2.966,1.988-3.944,.165-.209,.346-.421,.619-.494,.049-.013,.096-.019,.14-.019,.027,0,.047,.013,.072,.018,.031,.005,.061,.011,.089,.022,.043,.018,.082,.042,.119,.072,.022,.018,.045,.033,.065,.054,.036,.039,.065,.084,.093,.131,.013,.021,.028,.039,.039,.062,.035,.072,.064,.147,.084,.222v.002c.054,.201,.078,.383,.074,.553-.007,.339-.123,.627-.324,.909-.101,.141-.222,.279-.363,.422-.233,.243-.45,.508-.653,.793-.203,.284-.391,.587-.565,.905-.006,.012-.012,.025-.018,.037-.34,.625-.629,1.303-.868,2.003-.447,1.305-.722,2.676-.876,3.911-.005,.037-.011,.076-.015,.113-.009,.077-.023,.159-.031,.236-.047,.405-.071,.814-.085,1.225-.014,.411-.018,.823-.027,1.237,.001,.21-.02,.422-.099,.596-.04,.087-.094,.165-.167,.229-.073,.064-.165,.114-.28,.144h0c-.093,.025-.187,.026-.28,.02-.037-.002-.072-.008-.109-.015-.064-.011-.127-.027-.189-.048-.035-.012-.07-.024-.104-.039-.065-.028-.128-.06-.191-.096-.028-.016-.055-.029-.082-.046-.085-.053-.167-.109-.244-.166l-.003-.002c-.201-.152-.388-.362-.56-.605s-.329-.521-.468-.808-.262-.586-.365-.87-.187-.556-.25-.791c-.146-.546-.241-1.107-.297-1.659-.359,1.193-.855,2.351-1.296,3.511-.415,1.118-1.206,3.231-2.469,3.568-.057,.015-.113,.023-.166,.024-.006,0-.011-.003-.017-.003-.061-.002-.115-.019-.164-.047-.014-.008-.027-.017-.04-.028-.049-.041-.091-.095-.114-.179-.06-.222-.002-.42,.041-.669,.108-.587,.11-1.145,.053-1.702-.057-.557-.173-1.111-.3-1.69-.29-1.294-.783-2.663-.753-3.988-.363,.901-1.144,1.749-2.117,2.009-.157,.042-.307,.058-.453,.062h-.003c-.031,0-.061-.005-.092-.006-.184-.007-.358-.038-.519-.099-.012-.005-.026-.006-.038-.011-.165-.068-.313-.168-.45-.286-.025-.022-.051-.043-.076-.066-.127-.122-.239-.263-.335-.421-.017-.028-.032-.059-.048-.089-.051-.094-.085-.201-.124-.304-.032-.085-.078-.16-.102-.25-.099-.372-.105-.74-.043-1.094,.005-.03,.006-.061,.012-.09Zm-7.778,5.994c-.068-.195-.139-.389-.196-.604-.417-1.572,.226-3.425,1.93-3.877,.224-.059,.446-.092,.658-.094,.025,0,.049,.002,.074,.003,.101,.003,.198,.015,.292,.035,.029,.006,.059,.011,.088,.02,.111,.032,.216,.076,.311,.139,.015,.01,.027,.024,.041,.034,.079,.059,.15,.132,.213,.217,.02,.027,.04,.054,.058,.084,.068,.11,.127,.233,.168,.384h0c.036,.138,.048,.276,.039,.415-.009,.139-.038,.278-.083,.416-.272,.83-1.129,1.629-1.693,2.11,.754,1.04,1.838,2.258,3.006,2.852,.096-.274,.148-.562,.157-.854s-.025-.589-.102-.878c-.029-.108-.069-.213-.117-.312-.015-.031-.035-.055-.053-.084-.038-.064-.078-.124-.126-.175-.026-.028-.057-.048-.087-.071-.049-.039-.101-.071-.159-.093-.037-.014-.077-.022-.118-.028-.032-.005-.058-.022-.092-.022-.061,0-.126,.009-.195,.027-.314,.084-.369,.346-.518,.385-.059,.016-.099-.005-.138-.026-.014-.008-.032-.008-.044-.02-.037-.037-.066-.088-.082-.149-.013-.05-.014-.12-.011-.175,.075-.782,.569-1.462,1.363-1.672,.149-.04,.303-.062,.444-.065,.643-.046,1.274-.071,1.886-.234,.713-.189,.841-.531,.935-.794,.059-.164,.104-.297,.269-.341,.033-.009,.061-.006,.089-.004,.057,.004,.105,.026,.143,.063,.007,.007,.012,.015,.018,.022,.035,.043,.063,.094,.078,.15,.018,.066,.023,.153,.023,.224-.004,.1-.014,.201-.026,.301-.043,.359-.137,.714-.303,1.02-.16,.293-.385,.54-.693,.7-.103,.053-.215,.097-.337,.129-.158,.042-.314,.062-.47,.073-.069,.005-.136,.004-.204,.006-.095,.002-.191,.006-.285,.006h-.091c-.061,0-.121,.004-.182,.005-.07,.001-.139,.001-.209,.006-.149,.01-.298,.029-.446,.068h-.001c.085,.022,.165,.063,.238,.118,.218,.165,.376,.459,.452,.745,.154,.583,.128,1.125-.01,1.682-.046,.186-.105,.373-.174,.564,.181,.034,.355,.054,.525,.055l.016,.002c.157,0,.311-.017,.467-.059,.975-.259,1.486-1.209,1.736-1.735,.125-.264,.227-.344,.359-.379,.072-.019,.129,.002,.184,.025,.02,.009,.042,.009,.059,.022,.054,.042,.098,.1,.118,.177,.048,.181,.005,.353-.075,.516-.288,.687-.61,1.459-1.059,2.112-.225,.326-.481,.623-.78,.864s-.642,.427-1.039,.533c-.166,.044-.333,.06-.501,.063-.048,0-.095-.004-.143-.006-.141-.006-.281-.022-.42-.049-.051-.01-.101-.018-.151-.031-.175-.042-.347-.093-.515-.156-.556,.559-1.229,.98-1.956,1.268-.243,.096-.491,.177-.744,.244h0c-.269,.071-.53,.099-.786,.106-.09,.003-.179,.005-.267,0-.06-.003-.12-.006-.18-.013-.122-.014-.241-.039-.357-.068-.044-.011-.09-.018-.133-.031-.156-.048-.306-.109-.448-.184-.027-.014-.051-.034-.077-.049-.113-.065-.222-.138-.323-.221-.042-.034-.081-.073-.121-.111-.081-.075-.157-.155-.229-.242-.038-.046-.075-.093-.11-.142-.068-.095-.129-.198-.187-.305-.026-.049-.055-.095-.078-.146-.075-.163-.142-.334-.191-.521-.438-1.655,.542-2.907,1.677-3.969Zm-5.896-.616c.126-.703,.256-1.407,.424-2.107,.015-.063,.033-.133,.056-.203,.059-.181,.158-.354,.321-.439,.027-.014,.047-.036,.078-.044,.042-.011,.086-.017,.13-.017,.016,0,.033,.007,.049,.008h.002c.03,.003,.061,.009,.092,.016,.04,.01,.08,.022,.12,.038,.031,.013,.062,.027,.093,.044,.04,.022,.08,.046,.119,.073,.03,.021,.06,.041,.09,.065,.039,.031,.077,.065,.114,.1,.028,.026,.055,.05,.081,.078,.037,.038,.072,.079,.106,.119,.024,.028,.048,.055,.07,.083,.033,.043,.063,.086,.092,.129,.019,.028,.039,.055,.057,.083,.029,.046,.052,.091,.076,.136,.012,.023,.027,.047,.037,.069,.031,.065,.055,.128,.07,.183,.073,.272,.064,.512,.013,.799-.236,1.502-.575,2.957-.908,4.431-.05,.223-.169,.783-.263,1.334-.047,.275-.088,.549-.11,.776-.011,.114-.018,.216-.019,.302s.004,.155,.017,.201c.017,.065,.053,.094,.097,.101,.005,0,.006,.012,.011,.012,.009,0,.019-.001,.03-.004h0c.047-.013,.095-.04,.144-.079s.098-.092,.148-.154c.2-.248,.408-.655,.601-1.065,.096-.205,.189-.411,.276-.598,.031-.054,.073-.102,.12-.139s.099-.065,.15-.079l.051-.014c.044,0,.086,.018,.13,.029,.028,.008,.059,.005,.085,.02,.064,.037,.117,.1,.145,.201,.036,.136-.018,.277-.07,.42-.295,.727-.831,1.804-1.506,2.593-.304,.355-.636,.653-.988,.834-.117,.06-.236,.108-.358,.14h0c-.154,.041-.295,.054-.428,.049-.038-.001-.071-.012-.108-.017-.089-.013-.174-.034-.251-.07-.037-.017-.071-.037-.105-.059-.069-.045-.131-.103-.187-.169-.025-.03-.052-.055-.074-.089-.071-.108-.132-.232-.172-.383-.037-.136-.055-.276-.058-.421h0c-.064,.101-.132,.206-.203,.313-.215,.321-.464,.659-.747,.958-.189,.2-.393,.382-.613,.532-.11,.075-.224,.141-.341,.197-.118,.056-.239,.102-.365,.136h0c-.085,.023-.161,.027-.238,.033-.065,.002-.129-.001-.19-.008-.056-.006-.108-.017-.159-.032-.085-.025-.164-.06-.236-.106-.042-.027-.085-.052-.123-.086-.07-.062-.13-.138-.186-.219-.026-.038-.056-.069-.078-.11-.071-.129-.131-.27-.173-.426l-.002-.004c-.039-.144-.06-.29-.067-.44-.007-.15,.002-.303,.024-.462-.195,.414-.426,.853-.686,1.267-.13,.207-.267,.408-.411,.596-.144,.188-.294,.364-.45,.52-.136,.137-.284,.249-.446,.34-.162,.091-.339,.161-.534,.214-.17,.046-.329,.06-.479,.056-.041-.001-.077-.012-.117-.018-.102-.013-.198-.037-.286-.077-.042-.018-.08-.04-.119-.065-.079-.05-.15-.114-.214-.188-.028-.033-.059-.061-.085-.099-.081-.121-.151-.26-.197-.43-.224-.839,.314-2.124,.715-3.099,.16-.39,.299-.73,.357-.972,.029-.121,.039-.218,.021-.283-.017-.063-.062-.086-.112-.096-.009-.002-.018-.006-.028-.006-.007,0-.013-.005-.02-.005-.043,0-.087,.009-.12,.018-.153,.041-.279,.111-.432,.152-.068,.018-.154,.041-.226,.042-.295,.735-.641,1.483-.908,2.12-.086,.201-.171,.394-.252,.575-.081,.181-.158,.349-.229,.499-.066,.152-.138,.313-.216,.479-.313,.664-.727,1.405-1.231,1.974-.189,.213-.391,.403-.604,.554-.214,.152-.44,.266-.677,.33-.152,.041-.292,.052-.424,.046-.041-.002-.077-.012-.116-.018-.088-.014-.171-.036-.247-.072-.038-.018-.073-.038-.108-.061-.07-.046-.132-.105-.188-.173-.025-.03-.053-.056-.075-.09-.072-.11-.133-.235-.174-.387-.037-.136-.055-.276-.058-.421h0c-.128,.202-.272,.421-.431,.638-.239,.326-.513,.651-.817,.918-.203,.178-.42,.331-.65,.442-.115,.055-.233,.1-.354,.133-.088,.024-.168,.029-.248,.035-.066,.002-.13,0-.191-.007-.056-.006-.108-.017-.16-.032-.086-.024-.166-.059-.24-.106-.043-.027-.085-.052-.123-.086-.071-.062-.132-.137-.188-.219-.026-.037-.055-.068-.078-.109-.072-.13-.132-.272-.174-.429-.076-.284-.085-.574-.043-.886-.229,.357-.533,.632-.915,.812-.127,.06-.263,.11-.407,.148-.076,.02-.153,.023-.228,.034-.075,.011-.147,.03-.228,.034-.125,.265-.27,.527-.435,.775-.331,.497-.746,.939-1.246,1.249-.25,.155-.521,.276-.814,.355h0c-.151,.041-.295,.056-.433,.06-.034,0-.067-.003-.101-.004-.168-.006-.329-.031-.475-.087l-.007-.002c-.148-.058-.278-.146-.399-.249-.022-.019-.045-.036-.066-.056-.111-.106-.209-.229-.293-.369-.016-.026-.029-.055-.044-.082-.081-.151-.152-.312-.2-.492-.036-.134-.053-.274-.067-.414-.051,.076-.105,.149-.167,.222-.145,.175-.298,.316-.468,.428s-.358,.194-.571,.251c-.153,.041-.293,.06-.438,.062-.546,1.02-1.391,2.084-2.53,2.389-.22,.059-.427,.077-.622,.07-.056-.002-.106-.017-.16-.024-.132-.018-.257-.05-.372-.101-.055-.025-.107-.053-.158-.086-.104-.065-.197-.149-.281-.246-.038-.043-.079-.08-.112-.129-.107-.158-.199-.339-.258-.56-.174-.65-.085-1.351,.085-2.006,.057-.218,.123-.432,.191-.637l-.073-.072c-.085,.211-.183,.456-.287,.709-.104,.253-.213,.514-.32,.758l-.002,.007c-.176,.431-.395,.908-.685,1.387-.756,1.257-1.795,2.209-3.137,2.568-.25,.067-.49,.1-.717,.103-.011,0-.022,.002-.033,.002-.161,0-.312-.025-.455-.062-.035-.009-.069-.021-.104-.032-.135-.045-.262-.104-.376-.188-.006-.005-.014-.007-.02-.012-.117-.089-.217-.207-.308-.34-.022-.033-.043-.067-.064-.103-.085-.146-.16-.308-.212-.504-.038-.143-.063-.288-.077-.432-.472,.968-1.098,1.873-1.735,2.447-.223,.187-.501,.371-.79,.448-.117,.031-.236,.044-.35,.042-.025,0-.047-.007-.072-.009-.083-.007-.163-.023-.238-.05-.032-.011-.061-.026-.091-.041-.065-.033-.123-.075-.176-.126-.023-.022-.047-.041-.068-.067-.066-.082-.123-.178-.155-.298-.049-.183-.076-.364-.088-.545-.012-.181-.01-.362,0-.542,.02-.36,.069-.72,.09-1.081,0-.072,.003-.127-.006-.161-.014-.055-.038-.088-.066-.11-.009-.007-.021-.008-.031-.012-.014-.005-.025-.016-.042-.016-.018,0-.037,.003-.058,.009h0c-.077,.02-.159,.115-.242,.251-.207,.338-.414,.927-.526,1.229-.022,.061-.041,.11-.055,.143l-.454,1.16c-.051,.132-.114,.266-.19,.396-.226,.388-.56,.734-1.006,.853-.075,.02-.16,.031-.247,.032-.02,0-.04-.004-.06-.005-.081-.003-.156-.02-.228-.049-.025-.01-.049-.021-.071-.034-.081-.05-.15-.116-.179-.225-.037-.137,0-.273,.019-.406,.269-1.237,.561-2.462,.813-3.696l-.091-.067-.999,2.253c-.007,.012-.017,.018-.024,.029-.538,1.207-1.449,2.842-2.655,3.165-.152,.041-.292,.052-.424,.046-.041-.002-.077-.012-.116-.018-.088-.014-.171-.036-.247-.072-.038-.018-.074-.038-.108-.061-.07-.046-.131-.105-.187-.172-.025-.03-.053-.056-.075-.091-.071-.109-.132-.234-.173-.385v-.002c-.038-.136-.056-.276-.059-.42-.064,.101-.132,.207-.204,.314-.36,.536-.818,1.118-1.36,1.49-.108,.074-.22,.14-.335,.196-.115,.055-.233,.1-.354,.133h0c-.088,.024-.168,.029-.249,.035-.066,.002-.129,0-.191-.007-.056-.006-.108-.017-.16-.032-.086-.024-.167-.059-.24-.106-.043-.027-.085-.052-.123-.086-.071-.062-.131-.137-.187-.219-.026-.037-.055-.068-.078-.109-.072-.13-.132-.272-.174-.429-.043-.161-.068-.324-.074-.491-.006-.167,.007-.339,.041-.521h0c-.045,.008-.09,.012-.135,.011-.064,0-.123-.016-.178-.045-.013-.007-.026-.016-.038-.025-.053-.038-.1-.09-.13-.177l-.006-.018-.004-.017c-.032-.119-.031-.248,.089-.48,.327-.688,.912-1.901,1.075-2.181,.635-1.099,1.412-2.345,2.754-2.704,.133-.036,.274-.054,.414-.06,.04-.002,.079-.001,.119,0,.085,.004,.167,.02,.247,.044,.037,.011,.076,.018,.112,.034,.111,.05,.216,.118,.303,.226,.066-.436,.131-1.619,.658-1.76,.058-.016,.119-.014,.179-.009,.031,.003,.062,.009,.093,.016,.04,.009,.079,.021,.119,.037,.031,.013,.062,.027,.093,.043,.039,.021,.078,.044,.116,.071,.03,.021,.059,.041,.089,.064,.038,.03,.075,.063,.111,.097,.027,.026,.054,.05,.08,.077,.036,.037,.069,.076,.102,.116,.024,.028,.048,.055,.07,.084,.032,.042,.061,.085,.09,.127,.019,.028,.039,.055,.055,.082,.029,.047,.053,.093,.076,.139,.011,.022,.025,.045,.035,.066,.03,.066,.055,.13,.07,.187,.068,.255,.064,.512,.013,.798-.058,.311-.124,.622-.192,.932-.136,.62-.279,1.238-.377,1.861-.049,.312-.087,.625-.107,.94h0c0,.073,.002,.145,.016,.196,.017,.065,.053,.094,.097,.101,.005,0,.006,.012,.011,.012,.009,0,.019-.001,.03-.004,.34-.091,.871-1.308,1.139-1.87l.008-.012c.157-.342,.314-.681,.464-1.018,.15-.337,.293-.673,.421-1.011,.184-.468,.351-.94,.506-1.415,.465-1.424,.818-2.874,1.178-4.336,.06-.253,.166-.608,.454-.686,.058-.015,.118-.014,.178-.008,.031,.003,.063,.009,.095,.016,.04,.01,.079,.022,.119,.038,.032,.013,.064,.028,.096,.045,.039,.021,.079,.045,.117,.072,.031,.021,.061,.042,.091,.066,.039,.031,.076,.065,.114,.099,.028,.026,.056,.051,.083,.079,.036,.038,.071,.077,.105,.117,.024,.029,.049,.056,.072,.085,.033,.042,.062,.085,.091,.128,.019,.028,.04,.056,.058,.084,.03,.048,.054,.093,.078,.139,.011,.022,.025,.044,.035,.065,.031,.066,.055,.128,.07,.183,.036,.136,.052,.264,.053,.393,0,.13-.015,.261-.04,.405-.251,1.578-.593,3.09-.964,4.628,.55-1.076,1.865-3.304,3.055-3.622,.114-.03,.224-.043,.328-.041,.021,0,.04,.007,.061,.009,.076,.007,.148,.022,.214,.049,.028,.011,.053,.026,.079,.04,.057,.032,.108,.074,.155,.124,.02,.022,.041,.04,.059,.066,.059,.082,.109,.176,.141,.296,.172,.646-.238,1.63-.901,1.807-.094,.025-.17,.02-.243,.007-.019-.003-.041-.005-.059-.01-.072-.02-.14-.047-.21-.076-.059-.025-.125-.045-.195-.06-.024-.005-.05-.008-.076-.011-.025-.003-.045-.01-.072-.01-.069,0-.146,.01-.235,.033-.357,.096-.582,.411-.77,.734,.142-.038,.301-.059,.461-.064,.115-.004,.231-.003,.34,.021,.008,.002,.014,.006,.021,.008,.106,.026,.2,.074,.285,.136,.024,.017,.045,.036,.067,.057,.083,.081,.155,.178,.192,.316,.035,.132,.049,.263,.052,.395,.006,.264-.031,.528-.026,.791,.003,.132,.017,.264,.052,.395,.014,.055,.043,.091,.077,.116,.011,.008,.024,.009,.036,.013,.018,.007,.033,.02,.053,.02,.017,0,.035-.002,.053-.007,.3-.08,.646-.749,.902-1.315,.004-.012,.007-.027,.011-.039l.206-.456c.096-.21,.197-.432,.304-.66,.214-.456,.45-.937,.714-1.402,.662-1.162,1.503-2.219,2.619-2.517,.187-.05,.368-.074,.539-.073,.022,0,.04,.007,.061,.008,.134,.007,.259,.033,.376,.076,.042,.016,.08,.038,.119,.058,.092,.048,.174,.112,.249,.19,.031,.032,.064,.061,.092,.099,.092,.124,.171,.269,.221,.454,.432,1.615-1.513,3.538-2.659,4.426-.003,.056,.016,.124,.038,.209,.021,.079,.05,.151,.085,.217,.011,.021,.025,.037,.038,.056,.027,.042,.057,.081,.091,.113,.019,.017,.04,.03,.061,.044,.036,.024,.075,.042,.118,.055,.026,.008,.053,.014,.081,.017,.018,.002,.032,.011,.051,.011,.053,0,.109-.008,.17-.024,.866-.232,1.608-1.269,2.043-2.095,.068-.119,.137-.25,.203-.381,.216-.475,.449-1.071,.546-1.314,.238-.556,.453-1.111,.65-1.669,.591-1.674,1.026-3.368,1.484-5.13,.076-.258,.185-.596,.475-.674,.056-.015,.115-.013,.173-.008,.031,.003,.061,.008,.092,.016,.039,.009,.078,.021,.117,.037,.031,.013,.061,.027,.092,.043,.039,.021,.078,.045,.116,.071,.03,.02,.059,.041,.089,.064,.038,.03,.075,.063,.112,.097,.027,.025,.054,.05,.081,.077,.036,.037,.07,.076,.104,.116,.024,.028,.048,.055,.071,.084,.033,.042,.062,.085,.091,.127,.019,.028,.039,.054,.056,.082,.029,.047,.053,.093,.077,.138,.012,.022,.026,.045,.036,.067,.031,.066,.055,.13,.071,.187,.073,.272,.064,.511,.014,.798-.04,.293-.097,.576-.158,.857-.062,.281-.128,.558-.19,.839-.193,.88-.394,1.744-.582,2.607-.188,.863-.362,1.725-.502,2.6-.013,.085-.024,.165-.025,.248s.008,.167,.033,.261c.027,.101,.073,.172,.129,.229,.012,.013,.025,.026,.038,.036,.061,.046,.132,.074,.22,.076l.009,.003c.055,0,.115-.009,.18-.026h0c.14-.038,.268-.108,.385-.201,.233-.185,.419-.459,.565-.73,.073-.136,.136-.271,.189-.394h0c-.063-.059-.1-.131-.152-.196-.093-.116-.174-.238-.24-.366-.067-.128-.12-.262-.157-.402-.088-.331-.125-.672-.121-1.014s.048-.687,.122-1.026c.167-.736,.635-1.918,1.451-2.136,.1-.027,.184-.018,.265-.005,.038,.006,.074,.013,.108,.026,.053,.021,.1,.05,.144,.085,.027,.021,.054,.039,.078,.065,.042,.046,.078,.101,.111,.158,.015,.026,.034,.048,.047,.076,.042,.088,.077,.182,.103,.277,.278,1.037-.066,2.75-.421,3.737,.007,.004,.015,.006,.025,.006,.02,0,.047-.007,.081-.016,.304-.081,.497-.386,.652-.698,.362-.821,.723-1.658,1.144-2.459,.416-.794,1.032-1.683,1.83-2.216,.266-.178,.552-.316,.858-.398,.15-.04,.287-.055,.42-.059,.033,0,.065,0,.097,.001,.145,.005,.282,.026,.405,.073,.01,.004,.018,.01,.027,.014,.116,.048,.22,.117,.314,.2,.018,.016,.037,.03,.055,.047,.093,.092,.175,.201,.246,.326,.014,.025,.027,.053,.041,.079,.068,.135,.129,.281,.173,.446,.053,.197,.077,.405,.095,.614,.003,.038,.015,.074,.017,.113,.015,.249,.008,.502-.015,.754-.045,.504-.153,1.002-.28,1.446,.014,0,.03,.002,.046,.002,.047,0,.103-.005,.167-.022,.459-.123,.633-.528,.772-.807,.004-.009,.003-.013,.008-.022,.204-.43,.509-1.065,.749-1.549,.072-.145,.138-.277,.194-.386,.056-.108,.101-.194,.132-.246,.159-.275,.326-.559,.509-.836,.183-.277,.382-.547,.602-.794,.221-.247,.464-.471,.735-.655,.136-.092,.279-.175,.43-.245,.151-.071,.31-.129,.478-.174h0c.133-.036,.273-.054,.414-.06,.04-.002,.079-.001,.118,0,.086,.004,.167,.02,.248,.044,.037,.011,.076,.018,.111,.034,.112,.05,.216,.118,.303,.226,.025-.164,.049-.432,.098-.712,.033-.186,.076-.377,.138-.545,.046-.126,.102-.239,.172-.327,.069-.088,.152-.151,.251-.177h0c.058-.016,.118-.014,.178-.009,.031,.003,.062,.009,.093,.016,.039,.009,.079,.021,.118,.037,.031,.013,.062,.027,.093,.043,.039,.021,.077,.044,.116,.07,.03,.021,.06,.041,.089,.064,.038,.03,.074,.063,.111,.096,.028,.026,.055,.05,.081,.078,.036,.037,.069,.076,.102,.115,.024,.028,.048,.055,.07,.084,.033,.043,.062,.086,.091,.129,.018,.027,.037,.053,.054,.08,.029,.048,.054,.095,.077,.141,.011,.022,.025,.044,.034,.065,.03,.066,.055,.13,.07,.187,.034,.128,.05,.255,.051,.387,.001,.132-.013,.267-.038,.41-.058,.311-.124,.622-.192,.932-.204,.93-.424,1.856-.484,2.801,0,.073,.002,.145,.016,.196h0c.017,.064,.053,.094,.097,.101,.005,0,.006,.012,.011,.012,.01,0,.02-.001,.031-.004,.037-.01,.077-.033,.118-.068,.082-.069,.171-.183,.263-.323,.137-.21,.278-.478,.408-.741,.086-.176,.168-.349,.239-.502,.387-.893,.806-1.809,1.202-2.768-.309-.063-.493-.341-.565-.613-.046-.17-.054-.363-.03-.559s.08-.396,.164-.58c.084-.184,.195-.353,.329-.487,.134-.134,.291-.234,.465-.281,.089-.024,.169-.026,.245-.02,.029,.002,.056,.009,.083,.015,.049,.011,.095,.028,.138,.052,.024,.013,.047,.026,.068,.043,.041,.031,.076,.071,.109,.114,.015,.02,.032,.036,.045,.059,.042,.069,.077,.147,.101,.236v.002c.044,.161,.059,.321,.049,.479-.01,.157-.046,.312-.105,.465h.052c.05,0,.094-.001,.144-.015,.34-.091,.608-.331,.876-.572,.268-.24,.536-.48,.876-.571,.075-.02,.149-.018,.221-.011,.031,.003,.06,.008,.089,.016,.049,.012,.095,.03,.14,.053,.027,.014,.052,.026,.077,.043,.044,.031,.083,.069,.119,.111,.017,.02,.037,.036,.052,.057,.047,.067,.086,.142,.108,.225,.117,.435-.255,1.599-.549,2.682-.088,.325-.169,.642-.228,.93s-.095,.547-.094,.755c-.004,.056-.002,.128,.021,.213,.01,.039,.03,.073,.057,.099,.008,.008,.022,.008,.032,.013,.018,.01,.032,.024,.057,.024,.016,0,.033-.002,.052-.007,.291-.078,.754-1.033,1.017-1.599,.003-.008,.003-.014,.006-.023,.192-.47,.435-.958,.653-1.37,.109-.206,.212-.392,.299-.547,.087-.155,.159-.279,.205-.359,.238-.412,.5-.843,.802-1.239,.202-.264,.422-.513,.665-.731,.366-.326,.785-.582,1.276-.713h0c.131-.035,.267-.053,.403-.059,.039-.002,.078,0,.117,.001,.085,.004,.166,.021,.246,.045,.037,.011,.074,.019,.109,.035,.11,.05,.214,.119,.302,.228,.151-.696,.272-1.398,.398-2.101Zm-59.743,23.842c-.395,.661-.882,1.223-1.478,1.383-.057,.015-.113,.023-.167,.024h-.006l-.013-.003c-.06-.002-.113-.019-.162-.046-.014-.008-.027-.017-.04-.028-.049-.041-.091-.094-.113-.178-.03-.111-.03-.215-.018-.323s.037-.219,.058-.344c.016-.089,.015-.173,.027-.261,.065-.489,.074-.964,.026-1.433-.057-.554-.173-1.106-.299-1.682-.073-.322-.158-.649-.244-.978-.086-.329-.174-.661-.252-.995-.156-.666-.271-1.336-.256-1.996-.068,.168-.15,.335-.245,.496-.191,.322-.434,.623-.718,.874-.142,.126-.294,.239-.455,.336-.215,.13-.444,.231-.686,.296-.157,.042-.307,.059-.453,.062-.033,0-.063-.005-.096-.006-.183-.007-.357-.038-.517-.099-.012-.005-.025-.006-.037-.011-.165-.068-.312-.168-.447-.284-.025-.022-.051-.043-.076-.066-.127-.122-.238-.261-.333-.419-.017-.028-.031-.058-.047-.088-.093-.17-.173-.352-.226-.55-.024-.091-.036-.181-.05-.271-.15-.974,.28-1.908,1.023-2.557,.124-.116,.267-.231,.418-.328,.151-.097,.312-.177,.474-.22h0c.055-.015,.111-.022,.166-.025,.007,0,.015-.003,.022-.003,.009,0,.016,.006,.024,.006,.041,.002,.079,.012,.114,.028,.014,.006,.028,.012,.041,.021,.042,.031,.078,.072,.096,.139,.015,.055,.014,.11,.002,.166-.036,.167-.174,.341-.305,.543-.174,.27-.335,.59-.221,1.015,.008,.028,.024,.048,.033,.074,.033,.093,.075,.176,.128,.245,.021,.027,.047,.048,.071,.072,.055,.054,.114,.1,.181,.135,.031,.017,.062,.032,.095,.045,.076,.029,.158,.046,.242,.054,.027,.003,.052,.01,.08,.011,.009,0,.016,.003,.025,.003,.111,0,.227-.016,.343-.047,.754-.202,1.366-.857,1.822-1.578,.156-.247,.29-.5,.409-.747,.09-.187,.174-.37,.242-.541,.144-.348,.288-.696,.679-.8,.09-.024,.193-.039,.292-.045,.017,0,.034-.008,.051-.008,.012,0,.021,.007,.032,.007,.057,.003,.108,.017,.158,.036,.025,.009,.05,.015,.072,.029,.065,.042,.118,.101,.144,.198,.029,.105,.027,.209,.014,.313-.012,.098-.033,.197-.05,.298-.077,.376-.12,.716-.136,1.037-.032,.641,.046,1.203,.183,1.809,.068,.303,.151,.616,.242,.956l.092,.34c.181,.68,.355,1.398,.346,2.111l.111,.007h0c.228-.494,.428-.99,.609-1.49s.341-1.003,.487-1.51c.293-1.014,.532-2.044,.771-3.091,.057-.247,.136-.562,.337-.748,.067-.062,.148-.11,.246-.136,.066-.018,.133-.023,.199-.022,.115,.002,.227,.033,.335,.08,.017,.008,.035,.014,.052,.023,.103,.052,.2,.12,.289,.201,.016,.014,.031,.029,.046,.044,.086,.085,.164,.177,.227,.276,.009,.013,.015,.027,.023,.04,.063,.105,.114,.213,.142,.317h0c.02,.077,.026,.158,.035,.237s.024,.158,.035,.236c.115,1.244,.153,2.474,.471,3.662,.019,.068,.036,.136,.055,.204l.028,.102,.12,.386h.073c.059-.327,.129-.677,.211-1.045,.184-.827,.43-1.744,.72-2.668,.226-.722,.477-1.449,.758-2.142,.321-.789,.674-1.534,1.055-2.175,.19-.321,.388-.615,.591-.877,.019-.024,.043-.045,.062-.069,.064-.079,.128-.16,.204-.228,.099-.088,.213-.159,.349-.196,.049-.013,.095-.019,.139-.019,.026,0,.046,.013,.071,.018,.031,.005,.061,.011,.089,.022,.036,.015,.069,.034,.1,.057h-.004c.007,.006,.015,.009,.021,.014,.022,.018,.045,.033,.065,.054,.035,.038,.065,.083,.092,.13,.013,.022,.028,.04,.039,.062,.035,.072,.064,.148,.085,.223,.214,.798-.052,1.307-.61,1.874-.463,.484-.864,1.059-1.211,1.691s-.638,1.321-.881,2.031c-.121,.355-.23,.716-.328,1.077-.113,.417-.206,.834-.289,1.247-.133,.661-.233,1.31-.298,1.915-.093,.808-.093,1.628-.108,2.452,0,.105-.004,.209-.019,.31-.03,.201-.1,.384-.245,.511-.073,.064-.164,.113-.279,.144-.093,.025-.187,.026-.279,.02-.036-.002-.072-.008-.108-.015-.063-.011-.126-.026-.187-.048-.035-.012-.07-.024-.104-.039-.064-.028-.127-.06-.189-.095-.028-.016-.056-.029-.082-.046-.084-.052-.166-.108-.243-.165l-.004-.002c-.2-.152-.387-.36-.558-.602-.514-.726-.892-1.756-1.08-2.457-.146-.544-.241-1.101-.297-1.651-.356,1.188-.848,2.34-1.286,3.496-.217,.584-.54,1.437-.976,2.169Zm127.931-33.914c-.137,.137-.301,.259-.476,.358-.175,.099-.36,.176-.539,.224h0c-.156,.042-.295,.056-.423,.052-.034-.001-.064-.011-.096-.016-.086-.012-.167-.033-.239-.068-.034-.016-.065-.036-.096-.058-.064-.044-.12-.101-.172-.167-.023-.029-.047-.055-.067-.088-.065-.107-.121-.23-.161-.382-.004-.015-.004-.034-.007-.049-.022-.098-.036-.209-.041-.329-.017-.361,.034-.806,.115-1.257,.056-.312,.126-.626,.195-.913,.069-.287,.138-.548,.192-.755l-.069-.056c-.311,.688-.528,1.313-.894,2.069-.005,.009-.012,.014-.017,.022-.041,.09-.091,.177-.134,.266-.216,.444-.458,.878-.726,1.269-.241,.351-.498,.653-.758,.924-.089,.092-.177,.195-.266,.276-.112,.094-.238,.187-.372,.267-.134,.079-.277,.145-.422,.184-.118,.031-.236,.044-.351,.042-.026,0-.048-.007-.073-.01-.083-.007-.162-.024-.237-.05-.032-.012-.061-.026-.091-.041-.065-.033-.123-.076-.176-.126-.023-.022-.048-.041-.068-.067-.067-.083-.123-.179-.155-.3-.196-.734-.041-1.453,.004-2.177,0-.074,.002-.13-.007-.163-.014-.055-.038-.088-.067-.11-.009-.007-.021-.008-.032-.012-.014-.005-.025-.016-.042-.016-.018,0-.038,.003-.059,.009h0c-.077,.02-.16,.116-.243,.251-.25,.407-.5,1.177-.584,1.378l-.458,1.165c-.206,.53-.605,1.095-1.202,1.254-.075,.02-.161,.031-.248,.033-.02,0-.04-.004-.06-.005-.081-.003-.157-.02-.229-.05-.025-.01-.049-.021-.071-.035-.081-.05-.151-.117-.18-.226-.036-.136,0-.275,.019-.407,.272-1.244,.566-2.474,.821-3.714l-.09-.067h0l-1.006,2.263c-.004,.007-.009,.009-.013,.015-.033,.061-.074,.113-.112,.17-.037,.057-.071,.12-.112,.17-.109,.139-.222,.247-.338,.335-.116,.088-.235,.156-.356,.216,0,.307-.05,.591-.14,.849-.09,.258-.221,.49-.387,.693-.248,.305-.573,.543-.95,.705-.126,.054-.257,.099-.394,.136-.131,.035-.267,.062-.405,.083-.043,.007-.086,.009-.13,.014-.097,.011-.192,.019-.289,.022-.046,.001-.092,0-.138-.001-.124-.003-.244-.016-.362-.038-.032-.006-.065-.009-.097-.016-.142-.034-.275-.085-.398-.153-.028-.016-.052-.037-.078-.055-.094-.062-.179-.137-.254-.225-.027-.031-.054-.063-.078-.098-.086-.125-.161-.264-.208-.439-.08-.301-.054-.571,.048-.801,.068-.154,.17-.289,.298-.405,.064-.058,.134-.111,.209-.158,.15-.095,.322-.168,.506-.217,.171-.045,.345-.078,.519-.104,.174-.026,.347-.045,.516-.062-.008-.08-.023-.177-.044-.287-.042-.219-.105-.486-.17-.767-.032-.141-.065-.284-.096-.427-.092-.428-.164-.846-.149-1.133,.005-.096,.02-.177,.047-.239h0c-.533,.746-.874,1.386-1.285,2.245-.036,.074-.078,.164-.123,.262-.091,.196-.195,.427-.293,.64-.049,.106-.097,.208-.141,.299-.099,.232-.212,.481-.338,.735s-.266,.515-.416,.77c-.301,.51-.646,.997-1.023,1.375-.274,.274-.593,.451-.986,.556-.171,.046-.33,.06-.48,.055-.042-.001-.079-.013-.119-.018-.102-.014-.198-.038-.287-.077-.042-.019-.081-.041-.119-.065-.079-.05-.15-.114-.214-.189-.029-.033-.06-.062-.085-.1-.081-.122-.151-.261-.197-.432-.18-.675,.131-1.636,.469-2.495,.145-.368,.289-.707,.407-1.007,.089-.225,.166-.432,.204-.588,.03-.122,.039-.218,.021-.285h0c-.017-.063-.062-.086-.112-.096-.01-.002-.019-.006-.029-.006-.007,0-.013-.005-.02-.005-.043,0-.086,.009-.118,.017h0c-.153,.041-.282,.112-.435,.153-.068,.018-.153,.041-.226,.042-.297,.738-.645,1.49-.914,2.128-.2,.469-.404,.92-.557,1.236-.129,.275-.271,.556-.445,.842-.143,.238-.299,.46-.466,.669s-.343,.405-.527,.592c-.305,.309-.635,.583-.993,.807-.359,.224-.747,.399-1.168,.512h-.001c-.25,.067-.49,.1-.716,.103-.011,0-.024,.002-.035,.002-.162,0-.313-.025-.458-.062-.035-.009-.07-.021-.104-.032-.135-.046-.263-.105-.377-.189-.007-.005-.014-.007-.021-.012-.118-.089-.218-.208-.309-.342-.022-.033-.044-.068-.064-.104-.085-.147-.16-.309-.213-.506-.037-.139-.061-.279-.075-.418h0c-.044,.092-.098,.184-.147,.276-.048,.092-.09,.185-.147,.276-.078,.135-.161,.27-.248,.403s-.179,.265-.274,.393c-.191,.257-.397,.501-.617,.719-.439,.437-.93,.774-1.451,.913-.171,.046-.33,.067-.478,.065-.02,0-.037-.007-.057-.008-.114-.007-.219-.03-.316-.069-.036-.014-.068-.035-.101-.054-.076-.044-.145-.102-.207-.172-.026-.029-.054-.056-.077-.09-.077-.112-.143-.243-.187-.409-.232-.871,.346-2.543,.624-3.422l-.077-.016c-.208,.574-.437,1.141-.685,1.713l-.004,.015-.003,.011c-.062,.152-.133,.316-.21,.489-.544,1.208-1.453,2.809-2.649,3.128-.153,.041-.293,.052-.426,.046-.041-.002-.077-.012-.116-.018-.088-.014-.171-.037-.247-.072-.038-.018-.074-.038-.109-.062-.07-.046-.132-.106-.188-.173-.025-.031-.053-.056-.076-.091-.072-.11-.133-.236-.174-.389-.036-.136-.056-.277-.057-.423h0c-.129,.203-.274,.423-.434,.641-.08,.109-.164,.218-.252,.325-.176,.214-.366,.418-.57,.597-.102,.089-.208,.173-.317,.247-.109,.075-.221,.141-.337,.196-.115,.056-.234,.101-.356,.133h0c-.088,.024-.167,.029-.248,.035-.066,.002-.13,0-.192-.007-.057-.006-.109-.017-.161-.032-.087-.025-.167-.06-.241-.107-.043-.027-.086-.052-.124-.086-.071-.062-.132-.138-.188-.22-.026-.038-.056-.069-.078-.11-.072-.131-.133-.274-.175-.432-.087-.324-.1-.649-.033-1.015h0c-.045,.008-.092,.012-.137,.012-.064,0-.123-.017-.178-.045-.013-.007-.026-.016-.038-.025-.053-.039-.101-.091-.131-.179l-.005-.017-.005-.018c-.011-.042-.009-.091-.008-.14,0-.02-.007-.036-.003-.058,.002-.013,.015-.036,.018-.05,.015-.067,.035-.137,.084-.233,.123-.259,.283-.593,.443-.923,.067-.138,.134-.275,.198-.406,.193-.393,.363-.731,.439-.863,.239-.414,.499-.848,.801-1.248,.201-.267,.422-.519,.668-.739,.369-.331,.795-.591,1.301-.726,.133-.036,.274-.054,.415-.06,.04-.002,.08-.001,.119,0,.086,.004,.168,.021,.249,.044,.038,.011,.076,.018,.112,.034,.112,.05,.217,.118,.305,.227h0c.025-.164,.05-.434,.099-.715,.082-.468,.233-.965,.564-1.053,.058-.016,.119-.014,.179-.009,.031,.003,.062,.009,.094,.016,.039,.009,.079,.021,.118,.037,.031,.013,.062,.027,.093,.044,.039,.021,.078,.045,.116,.071,.03,.021,.06,.041,.09,.065,.038,.03,.074,.062,.11,.096,.028,.026,.056,.052,.083,.08,.035,.037,.068,.075,.101,.114,.024,.029,.048,.056,.071,.085,.032,.042,.061,.085,.09,.128,.019,.028,.039,.055,.056,.083,.029,.047,.052,.093,.075,.139,.012,.023,.026,.046,.036,.068,.03,.067,.055,.13,.07,.188,.034,.128,.05,.256,.051,.388,.001,.132-.013,.269-.038,.413-.116,.626-.267,1.247-.398,1.869-.066,.311-.127,.623-.176,.936-.05,.313-.088,.627-.109,.944,.002,.074,.003,.146,.017,.197,.017,.066,.053,.095,.097,.102,.005,0,.006,.012,.011,.012,.01,0,.02-.001,.03-.004,.329-.088,.835-1.219,1.113-1.809,.402-.9,.847-1.845,1.223-2.82l-.222,.059c-.064,.017-.129,.026-.192,.026h-.003c-.081,0-.154-.023-.22-.058-.017-.009-.032-.019-.047-.031-.062-.046-.114-.106-.138-.198-.014-.052-.023-.086-.02-.142,0-.067,.021-.114,.033-.169,.033-.148,.093-.269,.194-.351,.139-.113,.328-.177,.524-.229l.564-.151c.13-.35,.246-.705,.363-1.062,.161-.492,.32-.987,.493-1.49,.084-.168,.145-.349,.333-.4,.034-.009,.07-.013,.106-.013,.008,0,.017,.008,.026,.008,.099,.005,.203,.039,.307,.096,.018,.01,.034,.019,.051,.03,.105,.064,.207,.143,.301,.236,.014,.014,.025,.026,.039,.04,.095,.097,.181,.2,.249,.302l.017,.028c.069,.107,.123,.211,.146,.297,.046,.17,.049,.347,.038,.524-.003,.045,0,.09-.006,.135-.026,.222-.077,.441-.123,.645l.786-.21c.044-.012,.087-.011,.131-.009,.079,.003,.152,.027,.215,.069,.012,.008,.022,.018,.032,.027,.062,.051,.114,.114,.136,.197,.068,.256-.061,.545-.266,.709-.069,.055-.146,.096-.227,.118l-1.042,.278-.028,.141c-.033,.168-.083,.416-.14,.706-.038,.193-.079,.406-.122,.627s-.086,.451-.127,.679c-.042,.228-.082,.453-.117,.667-.027,.16-.052,.313-.073,.454-.064,.424-.097,.744-.071,.84h0c.015,.055,.043,.091,.078,.115,.011,.007,.025,.009,.037,.013,.018,.006,.033,.019,.054,.019,.021,0,.043-.003,.067-.01,.3-.08,.597-.461,.853-.896,.103-.174,.199-.356,.287-.531,.044-.088,.086-.173,.125-.255,.005-.016,.008-.034,.013-.049l.207-.458c.291-.633,.626-1.371,1.026-2.071,.533-.933,1.181-1.799,1.993-2.261,.203-.116,.416-.206,.64-.266,.187-.05,.369-.074,.54-.072,.023,0,.042,.008,.065,.009,.133,.007,.258,.033,.374,.076,.043,.016,.081,.038,.121,.059,.092,.049,.175,.113,.25,.191,.032,.033,.065,.062,.093,.1,.093,.125,.172,.27,.222,.456,.054,.203,.071,.41,.057,.62-.029,.42-.181,.848-.409,1.264-.455,.832-1.207,1.615-1.859,2.18-.163,.141-.32,.269-.464,.381-.003,.055,.015,.123,.038,.208,.021,.079,.051,.152,.085,.218,.011,.021,.026,.037,.038,.057,.027,.042,.057,.08,.091,.113,.019,.017,.04,.031,.062,.045,.036,.024,.076,.043,.119,.055,.026,.008,.053,.014,.081,.017,.018,.002,.033,.011,.052,.011,.052,0,.109-.008,.17-.024,.218-.058,.428-.167,.627-.31,.199-.143,.388-.321,.563-.518s.337-.412,.482-.63c.145-.218,.274-.439,.383-.646,.066-.113,.131-.239,.196-.365,.201-.466,.413-.939,.625-1.421s.427-.973,.635-1.474c-.155-.032-.278-.118-.372-.23s-.158-.25-.194-.387c-.044-.165-.052-.352-.03-.542,.034-.301,.143-.612,.313-.865,.083-.124,.18-.233,.29-.32,.109-.087,.231-.152,.362-.187h0c.071-.019,.139-.028,.202-.028,.016,0,.029,.007,.045,.008,.029,.002,.056,.009,.083,.015,.049,.011,.095,.028,.138,.052,.024,.013,.047,.026,.069,.043,.041,.032,.076,.071,.109,.114,.015,.02,.032,.036,.045,.058,.042,.07,.078,.149,.102,.24,.05,.188,.053,.372,.032,.555h0c-.015,.133-.039,.264-.089,.393,.073,0,.128,.003,.197-.016,.171-.045,.323-.128,.467-.23,.138-.098,.268-.214,.397-.33h0c.14-.125,.28-.25,.429-.356,.144-.102,.297-.185,.468-.23,.055-.015,.109-.022,.163-.022,.02,0,.039,.009,.059,.011,.031,.003,.06,.009,.09,.016,.049,.012,.095,.03,.14,.054,.027,.014,.052,.026,.077,.043,.045,.031,.083,.07,.12,.111,.017,.02,.037,.036,.052,.057l.013,.014h-.005c.042,.065,.08,.133,.1,.21v.002c.024,.088,.028,.204,.017,.344-.079,.977-.898,3.068-.894,4.043-.004,.056-.002,.129,.02,.214,.011,.039,.031,.074,.058,.099,.008,.008,.022,.008,.032,.014,.018,.01,.033,.025,.057,.025,.016,0,.033-.002,.052-.007,.075-.02,.162-.101,.254-.216,.019-.023,.038-.051,.057-.077,.083-.114,.169-.249,.253-.399,.1-.177,.198-.368,.286-.549s.168-.351,.23-.487c.003-.008,.005-.019,.008-.026,.113-.263,.251-.568,.405-.891,.077-.161,.158-.327,.242-.495,.167-.335,.345-.677,.525-1.003,.179-.326,.359-.635,.53-.905,.085-.135,.169-.261,.248-.373,.01-.014,.023-.028,.034-.042,.479-.647,1.108-1.306,1.91-1.52,.131-.035,.262-.054,.387-.054h.011c.11,.002,.212,.023,.309,.056,.03,.01,.056,.026,.085,.039,.07,.034,.132,.078,.189,.134,.023,.023,.048,.043,.068,.07,.07,.089,.129,.192,.165,.328,.021,.08,.018,.16,.015,.239-.005,.132-.03,.261-.092,.373-.101,.18-.269,.321-.482,.378-.103,.027-.211,.034-.319,.04-.108,.006-.216,.012-.319,.039-.29,.077-.395,.233-.326,.489,.03,.111,.079,.212,.137,.309s.123,.189,.185,.283c.193,.278,.382,.556,.553,.847s.325,.593,.448,.917c.238-.112,.373-.305,.499-.532v-.004c.186-.406,.372-.803,.55-1.198,.178-.395,.348-.788,.498-1.185,.155-.392,.292-.789,.426-1.186,.254-.753,.476-1.513,.682-2.279,.207-.766,.397-1.537,.589-2.312,.06-.254,.166-.612,.456-.689,.042-.011,.086-.017,.129-.017,.016,0,.033,.007,.05,.009,.031,.003,.063,.009,.095,.016,.04,.01,.08,.022,.12,.039,.032,.013,.063,.028,.095,.045,.04,.022,.08,.046,.119,.074,.031,.021,.061,.042,.09,.066,.039,.031,.077,.065,.115,.1,.028,.026,.056,.051,.082,.079,.037,.038,.071,.078,.106,.119,.024,.029,.049,.056,.071,.085,.033,.043,.063,.086,.092,.129,.019,.028,.039,.055,.057,.083,.03,.048,.054,.094,.078,.14,.011,.022,.025,.044,.035,.065,.031,.066,.055,.128,.07,.184,.037,.137,.053,.265,.053,.396,0,.13-.015,.263-.04,.407-.138,.86-.305,1.7-.486,2.535-.153,.705-.316,1.407-.487,2.115h0c.138-.27,.325-.612,.546-.979,.287-.476,.634-.987,1.005-1.439,.058-.07,.113-.145,.171-.212,.146-.166,.295-.319,.445-.455,.301-.271,.608-.471,.907-.551h0c.107-.029,.212-.044,.311-.044l.017,.002c.022,0,.04,.007,.061,.009,.076,.007,.148,.022,.215,.049,.028,.011,.053,.026,.08,.04,.057,.032,.108,.074,.155,.124,.02,.022,.042,.041,.06,.066,.036,.05,.063,.111,.089,.175l-.006,.002c.018,.042,.044,.071,.057,.12,.173,.649-.24,1.638-.906,1.816-.095,.025-.171,.019-.243,.007-.02-.004-.041-.005-.06-.01-.072-.02-.141-.047-.212-.077-.06-.025-.125-.045-.196-.061-.024-.005-.05-.008-.076-.011-.025-.003-.046-.01-.073-.01-.069,0-.147,.01-.235,.033-.09,.024-.171,.062-.246,.11-.075,.048-.142,.107-.205,.173-.125,.132-.229,.292-.323,.454h0c.142-.038,.301-.058,.461-.064,.116-.004,.233-.002,.342,.022,.009,.002,.016,.007,.025,.009,.105,.026,.199,.073,.283,.135,.024,.018,.046,.037,.068,.058,.084,.081,.155,.179,.192,.317,.071,.264,.054,.529,.038,.794-.008,.132-.016,.265-.013,.397,.003,.132,.016,.265,.052,.397,.015,.056,.043,.092,.077,.117,.011,.008,.024,.009,.036,.013,.018,.007,.034,.02,.054,.02,.017,0,.035-.002,.053-.007,.359-.096,.785-1.033,1.046-1.632l.01-.013c.252-.562,.489-1.102,.742-1.706,.236-.557,.46-1.1,.697-1.644,.041-.094,.081-.187,.122-.281h0c.039-.088,.074-.176,.115-.264,.104-.228,.225-.389,.448-.448,.046-.012,.093-.018,.142-.018,.014,0,.029,.005,.043,.006,.032,.002,.064,.008,.096,.014,.042,.008,.083,.017,.126,.032,.034,.011,.067,.024,.101,.039,.043,.019,.085,.04,.128,.063,.033,.019,.066,.037,.099,.058,.014,.009,.028,.016,.042,.025l-.004,.002c.029,.02,.059,.04,.088,.061,.031,.024,.062,.046,.092,.072,.041,.034,.08,.071,.118,.108,.027,.026,.054,.051,.08,.078,.038,.04,.072,.081,.105,.122,.022,.026,.044,.051,.064,.078,.034,.045,.061,.09,.088,.135,.013,.022,.03,.044,.041,.066,.035,.066,.062,.13,.078,.189,.073,.273,.034,.54-.017,.828-.089,.454-.19,.901-.272,1.348-.082,.447-.146,.894-.163,1.346-.008,.039-.002,.13,.017,.197,.008,.031,.022,.06,.04,.082,.006,.006,.016,.007,.023,.011,.013,.009,.024,.021,.042,.021,.01,0,.021-.001,.032-.005,.224-.06,.55-.625,.808-1.138,.103-.205,.196-.402,.266-.554,.035-.076,.065-.141,.089-.191,.063-.108,.134-.182,.237-.209,.082-.022,.151-.003,.217,.02,.024,.008,.048,.009,.069,.023,.065,.043,.119,.104,.142,.19h0c.018,.069,.024,.141,.013,.219-.011,.078-.039,.164-.087,.259-.447,.998-1.102,2.178-1.832,2.94Zm2.549-7.444c-.667,.283-1.345,.531-2.018,.793-.114-.111-.236-.214-.367-.306,.062-.011,.126-.008,.187-.025,.606-.161,1.158-.577,1.514-1.139,.377-.595,.495-1.302,.326-1.938-.141-.528-.505-.935-.962-1.185,.517-.361,1.041-.774,1.57-1.263,0,0,.667,1.651,3.93,2.108,1.511,.211-3.774,2.786-4.18,2.957Zm4.034-24.257c-1.376,4.094-2.679,8.538-5.254,12.068-.688,.943-2.012,1.943-3.138,1.082-1.24-.94-.969-3.18-.803-4.485,.741-5.996,5.056-13.444,5.056-13.444,1.876-3.045,3.512-2.998,3.512-2.998,3.69-.666,1.095,6.383,.626,7.777Z" fill="#a32036"/>
    <path d="M121.399,29.553c1.97-.068,3.898-2.205,3.95-6.28,.031-2.707-1.407-4.215-3.846-4.121-1.97,.075-3.388,2.808-3.69,5.498-.333,2.98,.928,4.994,3.586,4.903Z" fill="#a32035"/>
    <path d="M115.243,83.83c-.027-.101-.074-.167-.133-.211-.018-.014-.044-.016-.065-.025-.031-.012-.055-.035-.093-.035-.037,0-.078,.006-.122,.018l-.051,.013c-.1,.034-.201,.112-.3,.225s-.196,.26-.289,.431c-.093,.171-.183,.367-.267,.576-.084,.209-.162,.432-.232,.659s-.133,.457-.186,.68c-.053,.223-.096,.439-.127,.639s-.051,.381-.056,.536,.002,.281,.026,.371h0c.019,.071,.05,.119,.088,.151,.012,.01,.028,.011,.042,.017,.021,.01,.04,.027,.064,.027,.018,0,.037-.003,.056-.008,.098-.026,.2-.096,.303-.199,.207-.207,.419-.55,.612-.95,.097-.2,.189-.415,.274-.635,.085-.22,.162-.444,.228-.664,.067-.22,.123-.434,.165-.634,.085-.4,.117-.742,.071-.949l-.009-.033Z" fill="#a32035"/>
    <path d="M82.639,92.063c-.017-.063-.047-.106-.085-.137-.012-.009-.027-.01-.04-.016-.021-.009-.039-.025-.063-.025-.018,0-.038,.003-.058,.008-.612,.164-1.232,2.879-1.292,3.476,.674-.617,1.788-2.371,1.538-3.307Z" fill="#a32035"/>
    <path d="M95.55,88.826c-.006-.014-.014-.025-.021-.038-.015-.029-.031-.057-.051-.082-.011-.013-.024-.023-.036-.034-.02-.019-.041-.035-.065-.047-.016-.008-.033-.011-.051-.014-.015-.003-.028-.013-.045-.013-.022,0-.046,.003-.07,.01-.679,.182-1.037,2.044-1.147,2.657-.079,.417-.194,1.007-.189,1.492,.002,.162,.017,.311,.051,.439,.019,.071,.053,.131,.096,.181,.008,.009,.014,.019,.022,.027,.045,.043,.103,.068,.172,.073,.007,0,.01,.007,.017,.007,.03,0,.061-.004,.095-.013,.204-.055,.368-.24,.498-.454s.223-.458,.286-.63c-.246-.17-.42-.415-.498-.705-.078-.293-.037-.598,.161-.778,.066-.06,.149-.106,.251-.134,.073-.02,.142-.017,.211-.008,.02,.003,.041,.006,.061,.011,.071,.02,.141,.05,.212,.104h0c.028-.135,.056-.289,.08-.453,.024-.164,.045-.338,.058-.511,.026-.346,.02-.691-.05-.955-.012-.044-.028-.089-.047-.133Z" fill="#a32035"/>
    <path d="M67.78,96.292c-.021-.015-.049-.018-.073-.026-.033-.011-.057-.035-.097-.035-.046,0-.096,.007-.152,.022-.764,.205-1.621,3.402-1.43,4.116,.019,.071,.051,.119,.089,.151,.012,.01,.028,.011,.042,.017,.021,.01,.04,.027,.064,.027,.018,0,.036-.003,.056-.008,.195-.052,.409-.284,.616-.613,.155-.247,.307-.549,.445-.872s.262-.667,.363-.997c.067-.22,.123-.435,.165-.633,.021-.099,.039-.194,.053-.284,.028-.18,.04-.338,.034-.466-.003-.064-.01-.12-.023-.166-.031-.116-.085-.186-.152-.234Z" fill="#a32035"/>
    <path d="M170.327,72.491c-.232,.013-.467,.026-.71,.091-.068,.018-.134,.042-.193,.074-.088,.047-.16,.109-.202,.191-.042,.081-.054,.181-.022,.303h0c.025,.093,.084,.159,.154,.212,.014,.01,.027,.022,.042,.031,.073,.042,.157,.067,.246,.07,.005,0,.009,.004,.014,.004,.051,0,.102-.007,.152-.02,.231-.062,.397-.193,.516-.365,.06-.086,.107-.181,.145-.283,.038-.102,.067-.21,.087-.321h0c-.076,.007-.154,.011-.232,.015Z" fill="#a32035"/>
    <path d="M148.595,74.581c-.021-.015-.049-.018-.074-.027-.033-.011-.058-.035-.098-.035-.046,0-.097,.007-.152,.022-.144,.038-.291,.182-.434,.396-.048,.071-.095,.15-.141,.235-.558,1.023-1.007,2.965-.864,3.504,.019,.071,.051,.119,.089,.152,.012,.01,.028,.011,.042,.018,.021,.01,.04,.027,.065,.027,.018,0,.036-.003,.056-.008,.786-.21,1.865-3.297,1.665-4.048-.031-.116-.085-.188-.152-.236Z" fill="#a32035"/>
    <path d="M123.297,79.846c.553-.519,.939-1.064,.734-1.842-.019-.073-.046-.145-.078-.212-.01-.021-.024-.038-.035-.057-.025-.044-.052-.085-.084-.121-.018-.019-.039-.033-.059-.049-.033-.027-.069-.049-.109-.064-.026-.01-.054-.015-.082-.02-.022-.003-.039-.015-.062-.015-.044,0-.091,.006-.142,.02-.149,.04-.26,.122-.341,.231-.161,.218-.202,.541-.184,.835,.009,.147,.033,.287,.064,.403,.084,.314,.228,.595,.378,.892Z" fill="#a32035"/>
    <path d="M122.121,84.313c.021,.036,.04,.074,.063,.109,.116,.18,.252,.339,.407,.473,.029,.025,.061,.047,.091,.071,.165,.128,.342,.237,.539,.309l.01,.005c.198,.071,.415,.101,.639,.109,.026,0,.048,.013,.074,.013,.021,0,.044-.008,.065-.009,.187-.005,.38-.025,.579-.078,.231-.061,.454-.156,.669-.284-1.26-.746-2.357-1.872-3.093-3.112-.337,.532-.478,1.136-.316,1.749,.063,.238,.161,.45,.273,.646Z" fill="#a32035"/>
  </g>
</svg>