<?xml version="1.0" encoding="utf-8"?>
<!-- Generator: Adobe Illustrator 27.0.0, SVG Export Plug-In . SVG Version: 6.00 Build 0)  -->
<svg version="1.1" id="Layer_1" xmlns="http://www.w3.org/2000/svg" xmlns:xlink="http://www.w3.org/1999/xlink" x="0px" y="0px"
	 viewBox="0 0 225 110.016" style="enable-background:new 0 0 225 110.016;" xml:space="preserve">
<style type="text/css">
	.st0{fill:#102C4F;}
	.st1{fill:#1A459C;}
	.st2{fill:#69AEE0;}
</style>
<g>
	<polygon class="st0" points="82.396,72.815 82.406,72.815 84.585,67.484 85.596,67.484 85.596,73.925 84.933,73.925 84.933,68.332 
		84.916,68.332 82.562,73.925 82.213,73.925 79.86,68.332 79.841,68.332 79.841,73.925 79.178,73.925 79.178,67.484 80.19,67.484 	
		"/>
	<rect x="89.161" y="67.486" class="st0" width="0.663" height="6.44"/>
	<path class="st0" d="M98.871,72.879c-0.11,0.163-0.244,0.317-0.402,0.464c-0.155,0.145-0.333,0.275-0.54,0.385
		c-0.207,0.112-0.435,0.198-0.682,0.262c-0.247,0.065-0.518,0.098-0.813,0.098c-0.49,0-0.942-0.084-1.361-0.255
		c-0.416-0.17-0.773-0.402-1.074-0.706c-0.301-0.296-0.535-0.655-0.705-1.068c-0.167-0.412-0.253-0.865-0.253-1.357
		c0-0.489,0.087-0.943,0.257-1.357c0.172-0.41,0.41-0.766,0.714-1.065c0.304-0.301,0.661-0.535,1.074-0.708
		c0.416-0.167,0.863-0.253,1.347-0.253c0.239,0,0.474,0.023,0.703,0.074c0.23,0.05,0.446,0.118,0.647,0.208
		c0.203,0.089,0.386,0.196,0.553,0.321c0.167,0.124,0.301,0.266,0.413,0.424l-0.551,0.401c-0.065-0.104-0.157-0.205-0.27-0.309
		c-0.114-0.103-0.247-0.195-0.401-0.275c-0.154-0.078-0.32-0.142-0.501-0.189c-0.18-0.048-0.376-0.073-0.585-0.073
		c-0.422,0-0.799,0.073-1.133,0.225c-0.334,0.154-0.618,0.355-0.851,0.615c-0.233,0.256-0.41,0.553-0.534,0.891
		c-0.123,0.338-0.183,0.697-0.183,1.07c0,0.377,0.062,0.731,0.188,1.071c0.127,0.34,0.304,0.637,0.539,0.892
		c0.231,0.258,0.515,0.461,0.849,0.614c0.335,0.152,0.709,0.225,1.125,0.225c0.376,0,0.731-0.073,1.068-0.227
		c0.337-0.152,0.618-0.394,0.846-0.728L98.871,72.879z"/>
	<polygon class="st0" points="101.85,67.484 102.511,67.484 102.511,70.277 106.059,70.277 106.059,67.484 106.722,67.484 
		106.722,73.925 106.059,73.925 106.059,70.878 102.511,70.878 102.511,73.925 101.85,73.925 	"/>
	<rect x="110.286" y="67.486" class="st0" width="0.664" height="6.44"/>
	<path class="st0" d="M119.454,68.648c-0.227-0.236-0.497-0.419-0.81-0.551c-0.312-0.129-0.67-0.194-1.076-0.194
		c-0.416,0-0.79,0.073-1.125,0.227c-0.332,0.151-0.616,0.355-0.849,0.612c-0.235,0.259-0.413,0.557-0.539,0.894
		c-0.127,0.341-0.189,0.697-0.189,1.073c0,0.377,0.062,0.734,0.189,1.073c0.126,0.34,0.304,0.635,0.539,0.891
		c0.233,0.255,0.517,0.457,0.849,0.609c0.335,0.151,0.709,0.227,1.125,0.227c0.369,0,0.706-0.039,1.014-0.118
		c0.304-0.079,0.552-0.178,0.745-0.301v-1.956h-1.518V70.55h2.179v2.909c-0.358,0.213-0.739,0.371-1.15,0.475
		c-0.41,0.104-0.835,0.156-1.279,0.156c-0.489,0-0.944-0.086-1.36-0.255c-0.418-0.171-0.775-0.404-1.076-0.706
		c-0.301-0.298-0.535-0.653-0.703-1.067c-0.169-0.413-0.253-0.866-0.253-1.358c0-0.489,0.088-0.942,0.258-1.355
		c0.17-0.412,0.41-0.767,0.714-1.068c0.303-0.301,0.661-0.535,1.074-0.706c0.413-0.169,0.863-0.255,1.346-0.255
		c0.522,0,0.976,0.078,1.362,0.233c0.386,0.153,0.719,0.368,0.992,0.641L119.454,68.648z"/>
	<path class="st0" d="M123.471,73.925h-0.725l2.811-6.44h0.646l2.794,6.44h-0.736l-0.717-1.692h-3.363L123.471,73.925z
		 M124.429,71.632h2.867l-1.435-3.421L124.429,71.632z"/>
	<polygon class="st0" points="136.407,72.969 136.425,72.969 136.425,67.485 137.087,67.485 137.087,73.925 136.259,73.925 
		132.471,68.383 132.453,68.383 132.453,73.925 131.789,73.925 131.789,67.485 132.618,67.485 	"/>
	<path class="st0" d="M144.579,73.925h-0.727l2.813-6.44h0.643l2.797,6.44h-0.736l-0.718-1.692h-3.364L144.579,73.925z
		 M145.534,71.632h2.868l-1.431-3.421L145.534,71.632z"/>
	<path class="st0" d="M156.052,68.52c-0.14-0.192-0.32-0.349-0.542-0.469c-0.222-0.117-0.487-0.177-0.801-0.177
		c-0.16,0-0.322,0.025-0.486,0.075c-0.166,0.048-0.318,0.123-0.45,0.222c-0.135,0.1-0.247,0.225-0.329,0.379
		c-0.082,0.151-0.123,0.329-0.123,0.536c0,0.206,0.04,0.375,0.12,0.509c0.081,0.135,0.184,0.248,0.316,0.341
		c0.132,0.095,0.28,0.172,0.449,0.231c0.167,0.064,0.343,0.123,0.526,0.182c0.228,0.074,0.456,0.154,0.684,0.236
		c0.227,0.089,0.435,0.197,0.618,0.332c0.184,0.138,0.333,0.312,0.45,0.521c0.115,0.208,0.174,0.472,0.174,0.793
		c0,0.323-0.064,0.601-0.186,0.834c-0.124,0.234-0.286,0.425-0.483,0.577c-0.198,0.153-0.424,0.266-0.676,0.337
		c-0.255,0.073-0.511,0.11-0.769,0.11c-0.197,0-0.394-0.021-0.588-0.06c-0.197-0.037-0.385-0.098-0.562-0.177
		c-0.178-0.078-0.343-0.178-0.496-0.3c-0.154-0.123-0.287-0.263-0.405-0.418l0.573-0.421c0.138,0.231,0.338,0.425,0.593,0.579
		c0.253,0.154,0.552,0.231,0.894,0.231c0.167,0,0.333-0.025,0.507-0.078c0.17-0.05,0.326-0.131,0.463-0.238
		c0.138-0.104,0.25-0.234,0.34-0.389c0.09-0.156,0.135-0.335,0.135-0.54c0-0.225-0.045-0.411-0.135-0.562
		c-0.09-0.148-0.205-0.274-0.352-0.371c-0.148-0.102-0.315-0.184-0.506-0.251c-0.191-0.065-0.388-0.134-0.599-0.199
		c-0.213-0.068-0.424-0.143-0.632-0.228c-0.209-0.085-0.397-0.197-0.562-0.332c-0.166-0.135-0.298-0.305-0.401-0.506
		c-0.099-0.199-0.151-0.446-0.151-0.736c0-0.311,0.061-0.577,0.188-0.801c0.124-0.223,0.29-0.41,0.49-0.554
		c0.203-0.148,0.427-0.253,0.674-0.318c0.245-0.068,0.487-0.101,0.726-0.101c0.44,0,0.815,0.077,1.128,0.233
		c0.312,0.155,0.55,0.338,0.708,0.551L156.052,68.52z"/>
	<path class="st0" d="M163.075,68.52c-0.14-0.192-0.32-0.349-0.542-0.469c-0.22-0.117-0.486-0.177-0.799-0.177
		c-0.16,0-0.323,0.025-0.487,0.075c-0.163,0.048-0.317,0.123-0.449,0.222c-0.137,0.1-0.245,0.225-0.329,0.379
		c-0.082,0.151-0.123,0.329-0.123,0.536c0,0.206,0.037,0.375,0.118,0.509c0.079,0.135,0.184,0.248,0.316,0.341
		c0.132,0.095,0.281,0.172,0.45,0.231c0.167,0.064,0.343,0.123,0.526,0.182c0.225,0.074,0.453,0.154,0.683,0.236
		c0.23,0.089,0.435,0.197,0.62,0.332c0.183,0.138,0.332,0.312,0.449,0.521c0.115,0.208,0.175,0.472,0.175,0.793
		c0,0.323-0.062,0.601-0.186,0.834c-0.124,0.234-0.284,0.425-0.482,0.577c-0.199,0.153-0.426,0.266-0.68,0.337
		c-0.253,0.073-0.507,0.11-0.765,0.11c-0.197,0-0.393-0.021-0.59-0.06c-0.196-0.037-0.382-0.098-0.562-0.177
		c-0.177-0.078-0.343-0.178-0.495-0.3c-0.156-0.123-0.289-0.263-0.405-0.418l0.57-0.421c0.143,0.231,0.338,0.425,0.595,0.579
		c0.253,0.154,0.551,0.231,0.894,0.231c0.167,0,0.335-0.025,0.506-0.078c0.172-0.05,0.326-0.131,0.466-0.238
		c0.138-0.104,0.252-0.234,0.34-0.389c0.087-0.156,0.134-0.335,0.134-0.54c0-0.225-0.046-0.411-0.134-0.562
		c-0.088-0.148-0.205-0.274-0.354-0.371c-0.146-0.102-0.317-0.184-0.506-0.251c-0.189-0.065-0.39-0.134-0.599-0.199
		c-0.211-0.068-0.424-0.143-0.631-0.228c-0.212-0.085-0.397-0.197-0.563-0.332c-0.166-0.135-0.3-0.305-0.399-0.506
		c-0.101-0.199-0.152-0.446-0.152-0.736c0-0.311,0.064-0.577,0.189-0.801c0.126-0.223,0.289-0.41,0.49-0.554
		c0.202-0.148,0.426-0.253,0.671-0.318c0.245-0.068,0.487-0.101,0.726-0.101c0.443,0,0.818,0.077,1.131,0.233
		c0.314,0.155,0.548,0.338,0.708,0.551L163.075,68.52z"/>
	<path class="st0" d="M173.38,70.704c0,0.49-0.084,0.944-0.258,1.357c-0.17,0.413-0.407,0.77-0.711,1.068
		c-0.303,0.303-0.661,0.536-1.074,0.706c-0.415,0.169-0.865,0.253-1.347,0.253c-0.484,0-0.933-0.084-1.348-0.253
		c-0.413-0.17-0.773-0.403-1.076-0.706c-0.303-0.298-0.54-0.655-0.712-1.068c-0.171-0.413-0.258-0.866-0.258-1.357
		s0.087-0.943,0.258-1.357c0.172-0.412,0.41-0.766,0.712-1.065c0.303-0.303,0.663-0.537,1.076-0.708
		c0.415-0.167,0.863-0.255,1.348-0.255c0.482,0,0.933,0.087,1.347,0.255c0.413,0.171,0.772,0.405,1.074,0.708
		c0.304,0.3,0.54,0.653,0.711,1.065C173.296,69.761,173.38,70.213,173.38,70.704 M172.683,70.708c0-0.376-0.06-0.733-0.183-1.073
		c-0.124-0.338-0.301-0.637-0.534-0.893c-0.233-0.258-0.515-0.461-0.85-0.615c-0.334-0.152-0.71-0.227-1.125-0.227
		c-0.418,0-0.792,0.075-1.127,0.227c-0.335,0.154-0.617,0.357-0.851,0.615c-0.233,0.256-0.411,0.554-0.532,0.893
		c-0.124,0.34-0.183,0.697-0.183,1.073c0,0.376,0.059,0.733,0.183,1.073c0.121,0.338,0.3,0.634,0.532,0.891
		c0.234,0.253,0.515,0.456,0.851,0.607c0.335,0.153,0.709,0.227,1.127,0.227c0.416,0,0.792-0.074,1.125-0.227
		c0.335-0.151,0.618-0.354,0.85-0.607c0.233-0.258,0.41-0.553,0.534-0.891C172.622,71.441,172.683,71.084,172.683,70.708"/>
	<path class="st0" d="M182.079,72.879c-0.112,0.163-0.245,0.317-0.401,0.464c-0.155,0.145-0.336,0.275-0.543,0.385
		c-0.204,0.112-0.432,0.198-0.68,0.262c-0.248,0.065-0.518,0.098-0.813,0.098c-0.489,0-0.944-0.084-1.362-0.255
		c-0.416-0.17-0.776-0.402-1.076-0.706c-0.3-0.296-0.532-0.655-0.703-1.068c-0.167-0.412-0.251-0.865-0.251-1.357
		c0-0.489,0.084-0.943,0.256-1.357c0.174-0.41,0.41-0.766,0.713-1.065c0.304-0.301,0.661-0.535,1.076-0.708
		c0.415-0.167,0.863-0.253,1.348-0.253c0.239,0,0.472,0.023,0.704,0.074c0.228,0.05,0.444,0.118,0.646,0.208
		c0.203,0.089,0.386,0.196,0.553,0.321c0.166,0.124,0.301,0.266,0.413,0.424l-0.549,0.401c-0.067-0.104-0.16-0.205-0.273-0.309
		c-0.114-0.103-0.246-0.195-0.399-0.275c-0.155-0.078-0.32-0.142-0.501-0.189c-0.18-0.048-0.376-0.073-0.584-0.073
		c-0.424,0-0.801,0.073-1.138,0.225c-0.332,0.154-0.618,0.355-0.849,0.615c-0.23,0.256-0.411,0.553-0.532,0.891
		s-0.182,0.697-0.182,1.07c0,0.377,0.061,0.731,0.186,1.071s0.304,0.637,0.537,0.892c0.236,0.258,0.517,0.461,0.85,0.614
		c0.334,0.152,0.711,0.225,1.127,0.225c0.373,0,0.73-0.073,1.067-0.227c0.337-0.152,0.619-0.394,0.847-0.728L182.079,72.879z"/>
	<rect x="185.058" y="67.486" class="st0" width="0.66" height="6.44"/>
	<path class="st0" d="M189.241,73.925h-0.728l2.814-6.44h0.643l2.794,6.44h-0.737l-0.714-1.692h-3.367L189.241,73.925z
		 M190.196,71.632h2.87l-1.436-3.421L190.196,71.632z"/>
	<polygon class="st0" points="199.095,73.925 198.432,73.925 198.432,68.067 196.255,68.067 196.255,67.485 201.275,67.485 
		201.275,68.067 199.095,68.067 	"/>
	<rect x="204.088" y="67.486" class="st0" width="0.661" height="6.44"/>
	<path class="st0" d="M214.75,70.704c0,0.49-0.085,0.944-0.256,1.357c-0.173,0.413-0.41,0.77-0.712,1.068
		c-0.303,0.303-0.663,0.536-1.076,0.706c-0.413,0.169-0.862,0.253-1.346,0.253c-0.486,0-0.936-0.084-1.349-0.253
		c-0.414-0.17-0.773-0.403-1.076-0.706c-0.303-0.298-0.539-0.655-0.711-1.068c-0.174-0.413-0.258-0.866-0.258-1.357
		s0.084-0.943,0.258-1.357c0.172-0.412,0.408-0.766,0.711-1.065c0.303-0.303,0.661-0.537,1.076-0.708
		c0.413-0.167,0.863-0.255,1.349-0.255c0.484,0,0.933,0.087,1.346,0.255c0.413,0.171,0.773,0.405,1.076,0.708
		c0.303,0.3,0.539,0.653,0.712,1.065C214.665,69.761,214.75,70.213,214.75,70.704 M214.053,70.708c0-0.376-0.062-0.733-0.185-1.073
		c-0.123-0.338-0.301-0.637-0.532-0.893c-0.234-0.258-0.518-0.461-0.852-0.615c-0.333-0.152-0.708-0.227-1.123-0.227
		c-0.419,0-0.795,0.075-1.128,0.227c-0.334,0.154-0.617,0.357-0.849,0.615c-0.233,0.256-0.41,0.554-0.532,0.893
		c-0.124,0.34-0.186,0.697-0.186,1.073c0,0.376,0.062,0.733,0.186,1.073c0.123,0.338,0.3,0.634,0.532,0.891
		c0.233,0.253,0.515,0.456,0.849,0.607c0.333,0.153,0.709,0.227,1.128,0.227c0.416,0,0.79-0.074,1.123-0.227
		c0.334-0.151,0.618-0.354,0.852-0.607c0.231-0.258,0.41-0.553,0.532-0.891C213.991,71.441,214.053,71.084,214.053,70.708"/>
	<polygon class="st0" points="222.584,72.969 222.601,72.969 222.601,67.485 223.263,67.485 223.263,73.925 222.437,73.925 
		218.648,68.383 218.629,68.383 218.629,73.925 217.968,73.925 217.968,67.485 218.794,67.485 	"/>
	<path class="st0" d="M87.075,82.149c0,0.59-0.104,1.131-0.311,1.626c-0.203,0.497-0.49,0.924-0.854,1.282
		c-0.365,0.358-0.795,0.642-1.291,0.846c-0.495,0.205-1.034,0.308-1.616,0.308c-0.582,0-1.119-0.103-1.617-0.308
		c-0.495-0.203-0.924-0.487-1.29-0.846c-0.365-0.359-0.649-0.786-0.852-1.282c-0.208-0.495-0.311-1.037-0.311-1.626
		c0-0.59,0.103-1.132,0.311-1.627c0.203-0.495,0.487-0.922,0.852-1.282c0.366-0.36,0.795-0.642,1.29-0.846
		c0.498-0.205,1.035-0.308,1.617-0.308c0.582,0,1.12,0.103,1.616,0.308c0.496,0.203,0.927,0.486,1.291,0.846
		c0.363,0.36,0.65,0.787,0.854,1.282C86.97,81.017,87.075,81.559,87.075,82.149 M86.236,82.155c0-0.45-0.075-0.88-0.22-1.287
		c-0.148-0.407-0.362-0.765-0.641-1.074c-0.279-0.308-0.619-0.554-1.021-0.734c-0.399-0.181-0.85-0.273-1.35-0.273
		c-0.5,0-0.952,0.092-1.351,0.273c-0.4,0.18-0.742,0.427-1.021,0.734c-0.279,0.309-0.492,0.667-0.638,1.074
		c-0.149,0.407-0.222,0.837-0.222,1.287c0,0.45,0.073,0.879,0.222,1.285c0.146,0.408,0.359,0.762,0.638,1.07
		c0.28,0.304,0.621,0.548,1.021,0.728c0.399,0.182,0.851,0.275,1.351,0.275c0.5,0,0.952-0.093,1.35-0.275
		c0.402-0.18,0.742-0.424,1.021-0.728c0.28-0.308,0.494-0.661,0.641-1.07C86.161,83.034,86.236,82.605,86.236,82.155"/>
	<polygon class="st0" points="91.729,86.014 90.934,86.014 90.934,78.285 95.645,78.285 95.645,78.982 91.729,78.982 91.729,81.658 
		95.369,81.658 95.369,82.355 91.729,82.355 	"/>
	<path class="st0" d="M108.089,79.529c-0.169-0.234-0.385-0.421-0.649-0.562c-0.267-0.142-0.585-0.213-0.961-0.213
		c-0.191,0-0.386,0.028-0.585,0.087c-0.198,0.059-0.379,0.148-0.542,0.267c-0.159,0.123-0.29,0.272-0.391,0.453
		c-0.1,0.182-0.149,0.398-0.149,0.644s0.049,0.45,0.144,0.61c0.095,0.161,0.222,0.298,0.377,0.41c0.159,0.113,0.34,0.206,0.542,0.28
		c0.202,0.073,0.413,0.144,0.634,0.219c0.268,0.085,0.543,0.18,0.818,0.282c0.275,0.103,0.521,0.236,0.742,0.401
		c0.22,0.163,0.402,0.371,0.54,0.623c0.138,0.248,0.21,0.568,0.21,0.953c0,0.386-0.075,0.719-0.222,1
		c-0.152,0.281-0.343,0.512-0.582,0.692c-0.237,0.183-0.507,0.317-0.813,0.405c-0.305,0.089-0.614,0.132-0.921,0.132
		c-0.236,0-0.472-0.026-0.706-0.073c-0.235-0.048-0.46-0.118-0.672-0.213c-0.214-0.095-0.413-0.216-0.595-0.358
		c-0.186-0.148-0.347-0.314-0.485-0.503l0.683-0.504c0.167,0.279,0.405,0.509,0.712,0.695c0.303,0.186,0.663,0.278,1.073,0.278
		c0.2,0,0.404-0.031,0.609-0.091c0.205-0.061,0.391-0.157,0.559-0.286c0.163-0.127,0.3-0.284,0.407-0.469s0.16-0.402,0.16-0.65
		c0-0.269-0.053-0.493-0.16-0.669c-0.107-0.178-0.248-0.329-0.424-0.449c-0.177-0.121-0.379-0.219-0.609-0.301
		c-0.23-0.079-0.467-0.16-0.715-0.239c-0.259-0.082-0.512-0.171-0.764-0.272c-0.248-0.104-0.474-0.236-0.672-0.401
		c-0.196-0.163-0.358-0.366-0.479-0.605c-0.121-0.241-0.182-0.536-0.182-0.885c0-0.371,0.076-0.691,0.225-0.961
		c0.151-0.269,0.351-0.489,0.591-0.666c0.242-0.174,0.509-0.301,0.806-0.382c0.293-0.079,0.585-0.12,0.872-0.12
		c0.528,0,0.979,0.093,1.357,0.276c0.372,0.186,0.658,0.407,0.849,0.663L108.089,79.529z"/>
	<path class="st0" d="M119.31,84.759c-0.134,0.197-0.294,0.379-0.481,0.556c-0.186,0.175-0.403,0.33-0.65,0.461
		c-0.247,0.135-0.519,0.239-0.815,0.318c-0.3,0.079-0.626,0.117-0.978,0.117c-0.59,0-1.132-0.103-1.632-0.306
		c-0.499-0.203-0.931-0.487-1.291-0.847c-0.36-0.358-0.642-0.786-0.844-1.28c-0.202-0.497-0.301-1.039-0.301-1.628
		c0-0.589,0.101-1.13,0.306-1.625c0.208-0.497,0.494-0.922,0.855-1.284c0.366-0.358,0.795-0.641,1.29-0.846
		c0.497-0.203,1.037-0.306,1.618-0.306c0.289,0,0.569,0.031,0.844,0.088c0.275,0.061,0.537,0.145,0.778,0.25
		c0.242,0.107,0.463,0.234,0.661,0.386c0.198,0.151,0.365,0.32,0.498,0.509l-0.664,0.481c-0.08-0.126-0.189-0.248-0.324-0.372
		c-0.137-0.123-0.295-0.231-0.48-0.326c-0.184-0.095-0.385-0.172-0.602-0.23c-0.216-0.059-0.449-0.089-0.698-0.089
		c-0.508,0-0.964,0.092-1.362,0.275c-0.403,0.178-0.744,0.424-1.023,0.733c-0.28,0.308-0.492,0.666-0.641,1.073
		c-0.146,0.405-0.219,0.834-0.219,1.282c0,0.45,0.077,0.878,0.225,1.283c0.151,0.407,0.368,0.766,0.646,1.073
		c0.278,0.308,0.621,0.553,1.023,0.734c0.399,0.182,0.851,0.273,1.351,0.273c0.447,0,0.875-0.091,1.279-0.273
		c0.405-0.181,0.742-0.473,1.013-0.872L119.31,84.759z"/>
	<polygon class="st0" points="122.883,78.284 123.678,78.284 123.678,81.637 127.937,81.637 127.937,78.284 128.729,78.284 
		128.729,86.014 127.937,86.014 127.937,82.356 123.678,82.356 123.678,86.014 122.883,86.014 	"/>
	<path class="st0" d="M140.732,82.149c0,0.59-0.103,1.131-0.309,1.626c-0.205,0.497-0.49,0.924-0.855,1.282
		c-0.362,0.358-0.792,0.642-1.29,0.846c-0.497,0.205-1.034,0.308-1.616,0.308c-0.581,0-1.119-0.103-1.616-0.308
		c-0.497-0.203-0.928-0.487-1.291-0.846c-0.363-0.359-0.647-0.786-0.854-1.282c-0.206-0.495-0.311-1.037-0.311-1.626
		c0-0.59,0.104-1.132,0.311-1.627c0.206-0.495,0.49-0.922,0.854-1.282c0.363-0.36,0.795-0.642,1.291-0.846
		c0.497-0.205,1.035-0.308,1.616-0.308c0.582,0,1.119,0.103,1.616,0.308c0.498,0.203,0.928,0.486,1.29,0.846
		c0.365,0.36,0.65,0.787,0.855,1.282C140.629,81.017,140.732,81.559,140.732,82.149 M139.894,82.155c0-0.45-0.075-0.88-0.219-1.287
		c-0.148-0.407-0.362-0.765-0.641-1.074c-0.28-0.308-0.62-0.554-1.02-0.734c-0.402-0.181-0.852-0.273-1.352-0.273
		c-0.501,0-0.95,0.092-1.354,0.273c-0.399,0.18-0.739,0.427-1.018,0.734c-0.279,0.309-0.492,0.667-0.639,1.074
		c-0.148,0.407-0.22,0.837-0.22,1.287c0,0.45,0.073,0.879,0.22,1.285c0.148,0.408,0.36,0.762,0.639,1.07
		c0.28,0.304,0.62,0.548,1.018,0.728c0.404,0.182,0.852,0.275,1.354,0.275c0.5,0,0.95-0.093,1.352-0.275
		c0.401-0.18,0.741-0.424,1.02-0.728c0.279-0.308,0.493-0.661,0.641-1.07C139.819,83.034,139.894,82.605,139.894,82.155"/>
	<path class="st0" d="M152.316,82.149c0,0.59-0.104,1.131-0.311,1.626c-0.205,0.497-0.489,0.924-0.852,1.282
		c-0.366,0.358-0.795,0.642-1.293,0.846c-0.495,0.205-1.035,0.308-1.617,0.308c-0.579,0-1.116-0.103-1.616-0.308
		c-0.494-0.203-0.925-0.487-1.29-0.846c-0.362-0.359-0.649-0.786-0.854-1.282c-0.205-0.495-0.308-1.037-0.308-1.626
		c0-0.59,0.103-1.132,0.308-1.627c0.205-0.495,0.492-0.922,0.854-1.282c0.365-0.36,0.796-0.642,1.29-0.846
		c0.5-0.205,1.037-0.308,1.616-0.308c0.582,0,1.122,0.103,1.617,0.308c0.498,0.203,0.927,0.486,1.293,0.846
		c0.363,0.36,0.647,0.787,0.852,1.282C152.212,81.017,152.316,81.559,152.316,82.149 M151.476,82.155c0-0.45-0.071-0.88-0.22-1.287
		c-0.146-0.407-0.36-0.765-0.638-1.074c-0.281-0.308-0.621-0.554-1.022-0.734c-0.402-0.181-0.852-0.273-1.353-0.273
		c-0.498,0-0.95,0.092-1.347,0.273c-0.402,0.18-0.744,0.427-1.023,0.734c-0.278,0.309-0.493,0.667-0.639,1.074
		c-0.148,0.407-0.22,0.837-0.22,1.287c0,0.45,0.073,0.879,0.22,1.285c0.146,0.408,0.362,0.762,0.639,1.07
		c0.28,0.304,0.621,0.548,1.023,0.728c0.397,0.182,0.849,0.275,1.347,0.275c0.501,0,0.952-0.093,1.353-0.275
		c0.401-0.18,0.741-0.424,1.022-0.728c0.278-0.308,0.492-0.661,0.638-1.07C151.405,83.034,151.476,82.605,151.476,82.155"/>
	<polygon class="st0" points="156.971,85.314 160.611,85.314 160.611,86.015 156.176,86.015 156.176,78.284 156.971,78.284 	"/>
	<path class="st0" d="M168.712,78.284h2.327c0.292,0,0.588,0.029,0.891,0.093c0.301,0.062,0.573,0.167,0.81,0.317
		c0.241,0.151,0.435,0.352,0.585,0.605c0.153,0.256,0.228,0.576,0.228,0.961c0,0.408-0.127,0.764-0.379,1.065
		c-0.25,0.301-0.587,0.501-1.009,0.594v0.02c0.506,0.059,0.927,0.255,1.261,0.585c0.335,0.332,0.501,0.783,0.501,1.347
		c0,0.321-0.067,0.615-0.203,0.88c-0.137,0.267-0.329,0.492-0.578,0.677c-0.251,0.185-0.557,0.327-0.916,0.432
		c-0.36,0.101-0.762,0.154-1.209,0.154h-2.31V78.284z M169.504,81.668h1.598c0.192,0,0.386-0.02,0.582-0.064
		c0.196-0.045,0.373-0.12,0.534-0.226c0.16-0.104,0.293-0.242,0.391-0.418c0.099-0.177,0.149-0.39,0.149-0.646
		c0-0.245-0.05-0.455-0.149-0.627c-0.098-0.171-0.233-0.311-0.401-0.421c-0.17-0.109-0.371-0.186-0.598-0.233
		c-0.228-0.047-0.471-0.073-0.728-0.073h-1.378V81.668z M169.504,85.336h1.478c0.287,0,0.56-0.026,0.822-0.082
		c0.261-0.054,0.489-0.141,0.685-0.261c0.194-0.121,0.349-0.278,0.469-0.469c0.117-0.194,0.177-0.425,0.177-0.692
		c0-0.512-0.177-0.892-0.526-1.142c-0.348-0.251-0.843-0.376-1.484-0.376h-1.62V85.336z"/>
	<path class="st0" d="M185.654,82.149c0,0.59-0.103,1.131-0.308,1.626c-0.208,0.497-0.493,0.924-0.855,1.282
		c-0.365,0.358-0.795,0.642-1.293,0.846c-0.495,0.205-1.034,0.308-1.614,0.308c-0.582,0-1.119-0.103-1.616-0.308
		c-0.497-0.203-0.927-0.487-1.29-0.846c-0.365-0.359-0.652-0.786-0.857-1.282c-0.206-0.495-0.309-1.037-0.309-1.626
		c0-0.59,0.103-1.132,0.309-1.627c0.205-0.495,0.492-0.922,0.857-1.282c0.363-0.36,0.793-0.642,1.29-0.846
		c0.497-0.205,1.034-0.308,1.616-0.308c0.581,0,1.119,0.103,1.614,0.308c0.498,0.203,0.928,0.486,1.293,0.846
		c0.362,0.36,0.647,0.787,0.855,1.282C185.551,81.017,185.654,81.559,185.654,82.149 M184.814,82.155c0-0.45-0.071-0.88-0.219-1.287
		s-0.362-0.765-0.641-1.074c-0.28-0.308-0.62-0.554-1.018-0.734c-0.401-0.181-0.851-0.273-1.352-0.273s-0.952,0.092-1.35,0.273
		c-0.402,0.18-0.742,0.427-1.023,0.734c-0.278,0.309-0.493,0.667-0.638,1.074c-0.148,0.407-0.22,0.837-0.22,1.287
		c0,0.45,0.073,0.879,0.22,1.285c0.145,0.408,0.36,0.762,0.638,1.07c0.281,0.304,0.621,0.548,1.023,0.728
		c0.399,0.182,0.849,0.275,1.35,0.275s0.952-0.093,1.352-0.275c0.399-0.18,0.739-0.424,1.018-0.728
		c0.279-0.308,0.493-0.661,0.641-1.07C184.743,83.034,184.814,82.605,184.814,82.155"/>
	<path class="st0" d="M189.262,86.015h-0.872l3.378-7.731h0.77l3.355,7.731h-0.882l-0.862-2.032h-4.037L189.262,86.015z
		 M190.409,83.262h3.441l-1.72-4.104L190.409,83.262z"/>
	<path class="st0" d="M200.041,86.015h-0.797v-7.73h2.296c0.382,0,0.738,0.037,1.064,0.109c0.327,0.074,0.612,0.192,0.849,0.355
		c0.241,0.164,0.427,0.377,0.559,0.638c0.132,0.262,0.197,0.584,0.197,0.962c0,0.283-0.051,0.542-0.154,0.775
		c-0.104,0.231-0.244,0.435-0.419,0.605c-0.175,0.171-0.385,0.309-0.629,0.41c-0.243,0.102-0.507,0.166-0.793,0.195l2.283,3.68
		h-0.971l-2.163-3.615h-1.322V86.015z M200.041,81.724h1.377c0.639,0,1.133-0.117,1.481-0.346c0.346-0.228,0.517-0.573,0.517-1.029
		c0-0.256-0.049-0.472-0.143-0.644c-0.098-0.175-0.228-0.318-0.397-0.427c-0.169-0.107-0.376-0.188-0.618-0.239
		c-0.242-0.051-0.512-0.077-0.805-0.077h-1.411V81.724z"/>
	<path class="st0" d="M208.061,78.283h2.592c0.484,0,0.973,0.081,1.462,0.241c0.489,0.161,0.928,0.404,1.321,0.726
		c0.394,0.324,0.713,0.728,0.955,1.213c0.244,0.481,0.366,1.046,0.366,1.686c0,0.649-0.123,1.211-0.366,1.694
		c-0.242,0.479-0.561,0.882-0.955,1.206c-0.393,0.323-0.832,0.565-1.321,0.727c-0.489,0.159-0.978,0.239-1.462,0.239h-2.592V78.283z
		 M208.854,85.315h1.579c0.587,0,1.101-0.092,1.539-0.275c0.439-0.178,0.801-0.419,1.087-0.714c0.289-0.295,0.503-0.63,0.645-1.009
		c0.143-0.377,0.214-0.769,0.214-1.169c0-0.401-0.071-0.79-0.214-1.167c-0.143-0.379-0.357-0.714-0.645-1.011
		c-0.286-0.293-0.647-0.532-1.087-0.715c-0.438-0.18-0.952-0.272-1.539-0.272h-1.579V85.315z"/>
	<path class="st0" d="M222.402,79.529c-0.167-0.234-0.387-0.421-0.652-0.562c-0.262-0.142-0.585-0.213-0.959-0.213
		c-0.192,0-0.385,0.028-0.584,0.087c-0.2,0.059-0.379,0.148-0.542,0.267c-0.161,0.123-0.292,0.272-0.389,0.453
		c-0.101,0.182-0.149,0.398-0.149,0.644s0.046,0.45,0.143,0.61c0.095,0.161,0.222,0.298,0.377,0.41
		c0.158,0.113,0.338,0.206,0.54,0.28c0.203,0.073,0.411,0.144,0.633,0.219c0.27,0.085,0.545,0.18,0.82,0.282
		c0.275,0.103,0.52,0.236,0.744,0.401c0.217,0.163,0.399,0.371,0.538,0.623c0.137,0.248,0.21,0.568,0.21,0.953
		c0,0.386-0.076,0.719-0.224,1c-0.149,0.281-0.344,0.512-0.579,0.692c-0.238,0.183-0.511,0.317-0.815,0.405
		c-0.306,0.089-0.614,0.132-0.922,0.132c-0.235,0-0.471-0.026-0.705-0.073c-0.236-0.048-0.461-0.118-0.674-0.213
		c-0.213-0.095-0.411-0.216-0.596-0.358c-0.183-0.148-0.346-0.314-0.486-0.503l0.685-0.504c0.17,0.279,0.407,0.509,0.712,0.695
		c0.306,0.186,0.663,0.278,1.076,0.278c0.197,0,0.4-0.031,0.605-0.091c0.206-0.061,0.391-0.157,0.557-0.286
		c0.166-0.127,0.303-0.284,0.408-0.469c0.107-0.185,0.16-0.402,0.16-0.65c0-0.269-0.053-0.493-0.16-0.669
		c-0.106-0.178-0.248-0.329-0.425-0.449c-0.175-0.121-0.379-0.219-0.606-0.301c-0.228-0.079-0.469-0.16-0.715-0.239
		c-0.259-0.082-0.511-0.171-0.764-0.272c-0.248-0.104-0.472-0.236-0.672-0.401c-0.199-0.163-0.357-0.366-0.48-0.605
		c-0.121-0.241-0.182-0.536-0.182-0.885c0-0.371,0.075-0.691,0.225-0.961c0.152-0.269,0.347-0.489,0.591-0.666
		c0.241-0.174,0.511-0.301,0.806-0.382c0.293-0.079,0.585-0.12,0.869-0.12c0.529,0,0.982,0.093,1.358,0.276
		c0.374,0.186,0.658,0.407,0.849,0.663L222.402,79.529z"/>
	<polygon class="st0" points="114.186,58.55 114.186,29.03 99.066,58.55 96.964,58.55 81.793,29.03 81.793,58.55 79.178,58.55 
		79.178,24.158 82.151,24.158 97.989,55.051 113.879,24.158 116.8,24.158 116.8,58.55 	"/>
	<path class="st0" d="M139.199,27.914l-8.356,17.397h16.352L139.199,27.914z M153.242,58.55l-4.972-10.803h-18.555l-5.074,10.803
		h-2.973l16.3-34.391h2.407l15.736,34.391H153.242z"/>
	<path class="st0" d="M174.667,58.904c-4.478,0-8.064-0.793-10.765-2.385c-3.382-1.926-5.073-4.953-5.073-9.078v-1.219h2.612v1.017
		c0,6.186,4.427,9.279,13.275,9.279c3.039,0,5.587-0.455,7.637-1.369c2.631-1.183,3.948-3.009,3.948-5.477
		c0-1.726-0.478-3.042-1.436-3.957c-0.787-0.744-2.134-1.402-4.05-1.978c-1.025-0.27-3.449-0.812-7.277-1.625
		c-4.409-0.913-7.381-1.756-8.92-2.535c-3.108-1.552-4.663-3.871-4.663-6.948c0-5.883,4.578-8.826,13.736-8.826
		c9.567,0,14.402,3.687,14.506,11.057h-2.564c-0.203-3.55-1.433-5.933-3.69-7.151c-1.846-1.014-4.597-1.521-8.252-1.521
		c-7.417,0-11.122,2.148-11.122,6.442c0,2.097,1.006,3.67,3.024,4.718c1.4,0.709,3.775,1.37,7.125,1.977
		c6.219,1.084,10.37,2.249,12.456,3.499c2.493,1.49,3.739,3.822,3.739,7.001c0,3.18-1.658,5.579-4.97,7.203
		C181.381,58.281,178.289,58.904,174.667,58.904"/>
	<path class="st0" d="M212.032,41.861h-14.453v14.304h14.658c2.836,0,5.158-0.54,6.972-1.623c2.151-1.25,3.227-3.094,3.227-5.528
		c0-2.603-1.145-4.514-3.432-5.73C217.226,42.336,214.904,41.861,212.032,41.861 M212.184,26.543h-14.605v12.935h14.556
		c2.529,0,4.612-0.489,6.254-1.47c1.914-1.152,2.869-2.839,2.869-5.073c0-2.231-0.992-3.906-2.973-5.022
		C216.678,27.003,214.645,26.543,212.184,26.543 M211.621,58.55h-16.656V24.158h17.322c3.247,0,5.912,0.695,7.997,2.081
		c2.392,1.59,3.587,3.904,3.587,6.948c0,3.28-1.88,5.716-5.636,7.302c4.509,1.287,6.765,4.111,6.765,8.472
		c0,3.379-1.453,5.902-4.359,7.557C218.285,57.874,215.279,58.55,211.621,58.55"/>
	<polygon class="st1" points="32.614,43.039 0,24.093 0,50.791 20.236,62.547 20.236,51.606 	"/>
	<polygon class="st2" points="20.234,62.546 20.234,78.212 32.614,71.022 	"/>
	<polygon class="st0" points="32.614,43.039 20.236,51.606 20.236,62.547 32.614,71.024 	"/>
	<polygon class="st2" points="34.681,43.039 67.295,24.093 67.295,50.791 47.059,62.547 47.059,51.606 	"/>
	<polygon class="st1" points="47.061,62.546 47.061,78.212 34.681,71.022 	"/>
	<polygon class="st0" points="34.681,43.039 47.059,51.606 47.059,62.547 34.681,71.024 	"/>
	<rect x="20.773" y="85.418" class="st0" width="25.749" height="0.793"/>
</g>
</svg>
