<?xml version="1.0" encoding="UTF-8"?>
<svg id="Layer_1" data-name="Layer 1" xmlns="http://www.w3.org/2000/svg" width="3.125in" height="1.528in" viewBox="0 0 225 110">
  <g>
    <g>
      <polygon points="4.224 25.937 4.224 84.37 21.485 67.71 36.056 81.194 18.626 98.014 76.079 98.014 58.688 81.406 73.206 67.405 90.21 83.818 90.209 26.423 73.206 42.654 58.82 28.778 76.148 11.999 18.799 11.995 36.116 28.712 21.74 42.72 4.224 25.937" fill="#8d734a"/>
      <path d="M94.467,93.795V16.051l-21.261,20.739-8.307-8.013L86.586,7.766H8.338L30.055,28.724l-8.339,8.128L0,16.051V94.315l21.547-20.798,8.363,7.74-21.729,20.976H86.606l-21.824-20.844,8.424-8.118,21.261,20.524Zm-18.388,4.219H18.626l17.429-16.821-14.571-13.483L4.224,84.37V25.937l17.516,16.783,14.376-14.009L18.797,11.999h57.351l-17.328,16.779,14.386,13.876,17.003-16.231v57.395l-17.003-16.412-14.518,14.001,17.391,16.608Z" fill="#1a1a1a"/>
      <polygon points="40.049 18.33 42.384 21.856 39.995 25.692 44.78 25.715 47.169 29.456 49.368 25.715 54.248 25.717 51.796 21.856 53.887 18.33 49.727 18.33 47.169 14.69 44.78 18.33 40.049 18.33" fill="#fff"/>
      <path d="M64.557,55.997c-.111-.634,.059-.708,.117-.832,.065-.124,2.685-2.158,.077-3.129-.48-.083-2.623-.197-3.443,1.384-.306,.518-.136,1.078-.148,1.556-.012,.495-.39,1.112-.957,1.269-3.123,.666-4.275,1.944-5.401,2.742-1.4,1.146-5.154,3.161-8.402,4.836-2.987-1.632-5.972-3.271-6.625-3.684-1.358-.847-2.501-1.655-5.219-2.651-.557-.149-.915-.749-.932-1.227-.009-.469,.152-1.012-.145-1.524-.796-1.54-2.866-1.424-3.333-1.342-2.512,.964,.024,2.94,.081,3.055,.059,.114,.224,.19,.117,.807-.105,.618-2.295,.873-1.732,1.96,.627,1.201,2.331,1.829,2.974,1.301,.428-.224,.829-.592,1.501-.724,.674-.134,3.995,1.604,4.386,1.821,.157,.083,2.999,1.637,6.363,3.514-1.541,.778-2.666,1.34-2.85,1.457-.602,.397-3.654,2.388-4.117,2.38-.909-.026-1.504-.494-2.285-.446-1.346,.092-3.211,1.452-3.211,2.842,0,1.259,2.613,.56,3.19,1.194,.572,.634-.175,1.169-.244,1.96-.074,.799,.755,1.548,2.142,1.449,1.054-.082,2.143-.52,2.143-2.306,0-.526-.672-.586-.466-1.151,.208-.561,.1-.66,.736-1.517,.283-.378,3.582-2.384,7.314-4.545,4.32,2.428,8.684,4.944,8.993,5.36,.62,.834,.516,.923,.717,1.475,.199,.545-.448,.607-.448,1.121,.004,1.738,1.058,2.164,2.078,2.24,1.34,.089,2.14-.643,2.066-1.409-.071-.782-.796-1.291-.24-1.909,.554-.628,3.075,.049,3.071-1.18-.004-1.349-1.806-2.676-3.108-2.756-.747-.042-1.318,.411-2.202,.437-.446,.014-3.398-1.93-3.976-2.309-.233-.145-2.17-1.203-4.504-2.473,3.97-2.257,7.803-4.337,8.555-4.559,1.628-.477,3.836-2.018,4.532-1.885,.699,.138,1.113,.518,1.555,.747,.673,.537,2.433-.114,3.078-1.349,.58-1.111-1.695-1.367-1.799-2.001Z" fill="#fff"/>
      <path d="M57.668,46.885h-.013l.009-.116-.004-.313,.02-.057c.008-1.615-.83-3.011-2.1-4.025-.56-.461-1.273-1.172-1.273-2.012,.083,.873,.907,1.228,1.552,1.705,1.141,.939,1.944,2.015,2.075,3.48,3.453-11.8-6.605-13.215-10.6-13.445v-.024s-.291-.016-.788-.008c-.495-.009-.788,.008-.788,.008v.024c-3.993,.231-14.049,1.654-10.595,13.446,.124-1.507,.954-2.616,2.135-3.562,.635-.454,1.42-.799,1.505-1.664-.009,.897-.81,1.62-1.388,2.106-1.25,1.03-1.862,2.793-1.998,3.972l.016,.057-.004,.272,.008,.115h-.008l-.037,3.088s-1.808,2.644,.615,4.052c0,0,.442,1.63,1.983,1.194,0,0,4.361-2.734,3.437,.041,0,0-.431,.585-.108,1.286l.434,.246,.145,.487c.289-.552,.445-.644,.57-.644l.291,.529,.229,.469,.606-.57,.234,.053,.165,.089,.351,.429,.393-.31,.368,.178,.614-.593c.284,0,.557,.214,.828,.651,.269-.437,.542-.651,.83-.651l.729,.536,.368-.181,.345,.37,.283-.429,.16-.089,.238-.053,.697,.57,.137-.469,.288-.529c.123,0,.4,.101,.684,.653l.029-.496,.433-.246c.324-.701-.106-1.286-.106-1.286-.925-2.775,3.439-.041,3.439-.041,1.539,.436,1.986-1.194,1.986-1.194,2.419-1.408,.615-4.052,.615-4.052l-.037-3.046Zm-16.291,3.993c-2.047,.199-6.074,.767-3.71-4.709,0,0,1.152-1.73,2.941-.132,0,0,4.022,.766,3.961,2.799,0,0-1.146,1.853-3.192,2.042Zm7.272,3.682s-1.209,.658-2.05-.939c-.839,1.598-2.043,.939-2.043,.939-1.56-1.128,.591-3.335,.941-4.521,.33-1.145,1.058-1.087,1.101-1.079,.049-.008,.779-.066,1.109,1.079,.351,1.186,2.501,3.393,.941,4.521Zm3.804-3.913c-2.054,.124-3.478-1.523-3.478-1.523-.373-2.001,3.485-3.385,3.485-3.385,1.521-1.844,2.92-.321,2.92-.321,3.185,5.056-.882,5.106-2.928,5.229Z" fill="#fff" fill-rule="evenodd"/>
      <g>
        <path d="M41.673,58.02c.004-.619-.217-.701-.379-.701,.16-.3-.907,1.193-.438,1.797l.57,.049c.177-.51,.246-.88,.246-1.144Z" fill="#fff" fill-rule="evenodd"/>
        <path d="M46.679,60.175c0-.451-.05-1.185-.022-1.582l-.021-.284,.003-.022,.004-.013c-.224-.391-.44-.545-.63-.545l-.545,.432c-.354,.587-.532,1.214-.597,1.548l-.022,.113c.036,.041,.884,.885,1.829,.354Z" fill="#fff" fill-rule="evenodd"/>
        <path d="M44.682,59.856c-.005-.642,.636-1.631,.636-1.631l.033-.189-.331-.164-.802,.584-.55,.839c.42-.855,.527-1.252,.527-1.433l-.087-.148-.024,.01-.397-.133-.824,.782-.219,.349,.073-.734-.014-.345-.172-.396c-.177,0-.446,.419-.68,.848l-.358,.749-.066,.132s.31,.445,.971,.354c0,0,.306,.569,1.022,.305,0,0,.358,.701,1.276,.355l-.013-.132Z" fill="#fff" fill-rule="evenodd"/>
        <path d="M48.558,59.709c-.067-.334-.244-.961-.598-1.548l-.541-.432c-.193,0-.406,.154-.632,.545l.006,.013v.022l-.017,.284c.024,.397,.065,1.131,.065,1.582,.936,.523,1.687-.292,1.74-.354l-.023-.113Z" fill="#fff" fill-rule="evenodd"/>
        <path d="M51.56,57.714c0,.265,.078,.634,.274,1.146l-.054-.133-.349-.747c-.224-.431-.487-.849-.657-.849l-.166,.397-.015,.345,.067,.733-.202-.349-.933-.708-.242,.06-.019-.01-.082,.148c0,.181,.096,.579,.5,1.433l-.523-.838-.777-.584-.317,.164,.038,.188s.609,.989,.609,1.632l-.018,.132c.885,.354,1.226-.356,1.226-.356,.693,.264,.983-.305,.983-.305,.645,.092,.932-.352,.932-.352l.645-.049c.339-.397-.498-1.798-.498-1.798-.173,0-.421,.076-.421,.701Z" fill="#fff" fill-rule="evenodd"/>
      </g>
    </g>
    <path d="M21.747,53.339c0,.547-.123,1.066-.37,1.558-.249,.492-.604,.933-1.066,1.323-.462,.39-1.027,.717-1.694,.98-.665,.263-1.42,.438-2.265,.527,.005,.288,.028,.533,.067,.733,.036,.202,.116,.367,.239,.492,.123,.128,.3,.223,.537,.288,.236,.065,.551,.1,.947,.108v.942h-6.005v-.942c.382-.008,.693-.04,.924-.098,.234-.059,.414-.148,.537-.273,.126-.121,.211-.284,.255-.487,.043-.201,.069-.455,.074-.764-.927-.089-1.728-.279-2.406-.574-.678-.292-1.238-.643-1.679-1.05-.444-.406-.773-.851-.989-1.332-.213-.482-.321-.962-.321-1.44,0-.533,.12-1.044,.362-1.533,.241-.488,.591-.927,1.05-1.317,.459-.389,1.024-.717,1.694-.984,.67-.266,1.433-.441,2.288-.523,0-.355-.041-.639-.123-.851-.083-.212-.198-.376-.352-.492-.157-.116-.345-.192-.565-.231-.221-.037-.47-.059-.75-.066v-.943h6.005v.943c-.385,.014-.693,.05-.924,.107-.234,.058-.414,.151-.542,.277-.128,.127-.213,.291-.257,.492-.044,.202-.067,.456-.067,.764,1.035,.102,1.901,.314,2.593,.635,.693,.322,1.246,.694,1.659,1.117,.413,.424,.706,.868,.88,1.333,.175,.465,.262,.891,.262,1.281Zm-10.388-.021c0,.266,.026,.573,.075,.918,.049,.345,.161,.681,.336,1.01,.174,.328,.431,.627,.772,.897,.342,.269,.801,.467,1.384,.589v-6.785c-.514,.103-.935,.266-1.266,.492-.331,.226-.593,.491-.785,.795-.193,.304-.326,.635-.403,.994-.075,.359-.114,.722-.114,1.092Zm7.562,0c0-.376-.041-.743-.124-1.102-.082-.359-.22-.69-.418-.994-.197-.304-.462-.567-.79-.79-.329-.222-.739-.384-1.235-.487v6.795c.4-.088,.745-.213,1.03-.373,.285-.161,.524-.342,.711-.544,.19-.201,.339-.415,.45-.641,.11-.225,.195-.451,.249-.676,.057-.225,.09-.441,.106-.646,.015-.205,.023-.386,.023-.543Z" fill="#fff"/>
    <path d="M77.862,57.183c-.429,.58-.645,1.021-.645,1.322,0,.204,.056,.363,.169,.475,.113,.114,.295,.171,.547,.171h2.434c.17,0,.349-.009,.542-.027,.192-.017,.385-.062,.575-.132,.192-.072,.383-.181,.573-.323,.189-.143,.364-.344,.529-.601,.161-.256,.305-.574,.43-.957,.126-.383,.227-.848,.301-1.395h.821l-.095,4.571h-10.476v-.942c.184-.008,.363-.027,.532-.063,.169-.033,.325-.078,.473-.132,.157-.062,.313-.149,.474-.263,.16-.112,.337-.268,.529-.465,.189-.199,.403-.443,.637-.733,.231-.291,.498-.641,.793-1.051l2.105-2.901-2.855-4.408c-.215-.328-.4-.603-.555-.825-.154-.222-.282-.391-.379-.507-.1-.123-.201-.225-.306-.308-.105-.082-.225-.15-.361-.205-.136-.054-.296-.094-.473-.118-.177-.024-.382-.035-.614-.035v-.943h10.228l.16,3.608h-.805c-.187-.806-.395-1.377-.629-1.712-.123-.178-.243-.316-.367-.415-.12-.099-.261-.175-.424-.226-.159-.051-.346-.083-.557-.097-.213-.014-.467-.021-.765-.021h-1.448c-.151,0-.254,.027-.305,.082-.054,.055-.08,.13-.08,.225,0,.055,.005,.11,.013,.164,.01,.055,.033,.125,.069,.21,.039,.086,.092,.192,.161,.318,.072,.127,.167,.282,.29,.467l2.235,3.444-3.484,4.747Z" fill="#fff"/>
    <path d="M54.231,93.302h-6.572v-.943h.532c.454,0,.763-.032,.93-.097,.166-.064,.249-.18,.249-.343,0-.24-.238-.752-.717-1.537l-2.539-4.213-1.502,1.548v3.003c0,.609,.118,1.034,.357,1.276,.239,.242,.693,.364,1.363,.364v.943h-5.918v-.943c.506,0,.878-.061,1.119-.184,.242-.123,.401-.297,.472-.523,.073-.225,.111-.536,.111-.933v-8.733c0-.396-.036-.705-.103-.928-.067-.222-.223-.396-.47-.523-.249-.127-.624-.189-1.129-.189v-.943h5.918v.943c-.729,0-1.196,.123-1.407,.369-.207,.246-.313,.67-.313,1.271v4.182l3.684-3.783c.254-.259,.441-.483,.557-.671,.119-.187,.175-.399,.175-.63,0-.492-.399-.738-1.194-.738v-.943h5.402v.943c-.419,.041-.76,.098-1.025,.174-.266,.076-.523,.198-.773,.369-.251,.172-.524,.397-.821,.676-.295,.281-.765,.748-1.404,1.404l-1.24,1.261,3.491,5.843c.373,.621,.678,1.085,.918,1.389,.238,.304,.494,.524,.767,.661,.274,.137,.634,.216,1.083,.236v.943Z" fill="#fff"/>
  </g>
  <g>
    <path d="M109.98,30.34c-.006,.605-.016,1.154-.027,1.634-.003,.071-.007,.168-.239,.239l-2.548,.767,.131,1.427,.34-.009c1.556-.037,3.075-.055,4.558-.055,1.458,0,3.077,.018,4.853,.055l.388,.009-.067-1.437-2.78-.847c-.203-.064-.223-.151-.226-.234-.013-.465-.021-.991-.028-1.576-.006-.59-.009-1.251-.009-1.985v-4.842c.834,.082,1.626,.124,2.361,.124,3.156,0,5.652-.766,7.418-2.278,1.781-1.526,2.685-3.688,2.685-6.425,0-2.355-.794-4.158-2.361-5.361-1.538-1.181-3.814-1.779-6.766-1.779-.759,0-1.629,.026-2.588,.074-2.292,.124-4.909,.084-7.508,0l-.392-.013,.064,1.438,2.517,.793c.119,.041,.19,.104,.198,.291,.011,.404,.021,.856,.027,1.357s.01,1.064,.01,1.688v14.932c0,.735-.004,1.406-.01,2.012Zm4.346-9.098V10.113c.708-.071,1.42-.108,2.122-.108,1.988,0,3.452,.46,4.353,1.367,.901,.908,1.359,2.329,1.359,4.224,0,1.98-.482,3.459-1.43,4.398-.949,.939-2.372,1.415-4.227,1.415-.713,0-1.444-.057-2.177-.168Z" fill="#1a1a1a"/>
    <path d="M130.76,31.974c-.003,.071-.007,.168-.239,.239l-2.548,.767,.131,1.427,.34-.009c3.163-.074,6.017-.074,8.931,0l.399,.01-.098-1.438-2.292-.723c-.134-.037-.206-.094-.213-.284-.026-.979-.037-2.191-.037-3.635v-6.725h12.675v6.725c0,1.444-.013,2.656-.037,3.631-.007,.195-.081,.253-.223,.291l-2.362,.733,.132,1.424,.341-.009c2.804-.074,5.689-.074,8.911,0l.391,.009-.068-1.437-2.471-.757c-.233-.071-.237-.168-.24-.23-.024-.993-.037-2.21-.037-3.655V13.396c0-1.222,.013-2.237,.037-3.041,.007-.193,.078-.254,.186-.291l2.601-.807-.134-1.427-.341,.011c-3.014,.099-5.957,.099-8.906,0l-.394-.013,.068,1.438,2.309,.729c.165,.04,.195,.104,.2,.226,.024,.881,.037,1.916,.037,3.102v5.876h-12.675v-5.876c0-1.187,.011-2.221,.037-3.098,.004-.128,.034-.19,.222-.236l2.388-.735-.165-1.425-.335,.011c-2.815,.098-5.777,.101-8.905,0l-.392-.013,.064,1.438,2.517,.793c.119,.041,.19,.104,.198,.293,.024,.807,.037,1.822,.037,3.044v14.932c0,1.445-.013,2.662-.037,3.647Z" fill="#1a1a1a"/>
    <path d="M160.469,30.34c-.006,.605-.016,1.154-.026,1.62-.011,.124-.051,.2-.24,.253l-2.548,.767,.131,1.427,.34-.009c3.087-.072,5.929-.074,9.115,0l.391,.009-.068-1.435-2.339-.726c-.365-.095-.371-.229-.372-.283-.013-.489-.021-1.033-.028-1.631-.006-.601-.009-1.269-.009-2.004V13.323c0-.6,.003-1.154,.009-1.661,.007-.507,.016-.975,.027-1.386,.013-.151,.061-.21,.22-.25l2.568-.767-.132-1.428-.342,.01c-3.075,.098-5.979,.098-9.108,0l-.392-.013,.064,1.438,2.517,.793c.119,.041,.19,.104,.198,.291,.011,.404,.021,.856,.027,1.357s.01,1.064,.01,1.688v14.932c0,.735-.004,1.406-.01,2.012Z" fill="#1a1a1a"/>
    <path d="M130.408,68.004l.394,.014-.064-1.442-1.927-.593c-.5-.144-.907-.347-1.211-.601-.324-.271-.658-.632-.993-1.074l-8.194-10.804,7.161-7.879c.453-.502,.89-.946,1.293-1.32,.372-.344,.819-.603,1.326-.767l2.14-.678-.134-1.427-.344,.013c-1.242,.05-2.601,.074-4.036,.074-1.496,0-2.861-.024-4.055-.074l-.395-.016,.065,1.509,1.769,.475c.226,.058,.226,.124,.226,.145,0,.084-.044,.333-.455,.85-.354,.445-.816,.989-1.387,1.631l-7.262,8.093v-7.205c0-.6,.003-1.157,.009-1.67,.007-.514,.016-.992,.027-1.414,.013-.151,.063-.21,.223-.25l2.388-.735-.165-1.425-.335,.011c-2.849,.099-5.791,.099-8.905,0l-.392-.013,.064,1.438,2.517,.793c.119,.041,.19,.104,.198,.291,.011,.404,.021,.856,.027,1.357s.01,1.064,.01,1.688v14.932c0,.735-.004,1.406-.01,2.012-.006,.605-.016,1.154-.027,1.634-.003,.071-.007,.168-.239,.239l-2.548,.767,.131,1.427,.34-.009c3.087-.072,5.993-.075,8.931,0l.399,.01-.098-1.438-2.28-.719c-.161-.051-.22-.128-.226-.288-.013-.489-.021-1.033-.028-1.631-.006-.601-.009-1.269-.009-2.004v-6.931l5.919,7.849c1.819,2.416,2.952,4.074,3.368,4.93l.102,.212,.236-.007c.428-.013,.856-.021,1.282-.028,.428-.006,.85-.009,1.266-.009,1.572,0,2.886,.018,3.908,.055Z" fill="#1a1a1a"/>
    <path d="M146.858,41.02l-2.392,.348-9.488,22.652c-.259,.621-.493,1.08-.698,1.364-.172,.24-.456,.424-.841,.544l-2.149,.661,.163,1.423,.334-.009c1.359-.037,2.589-.055,3.691-.055s2.524,.018,4.265,.055l.388,.009-.065-1.478-1.956-.567c-.229-.072-.338-.144-.392-.192-.044-.04-.053-.129-.053-.198,0-.129,.034-.379,.198-.833,.148-.405,.35-.949,.605-1.63l1.842-4.686h8.369l1.644,4.691c.233,.659,.412,1.187,.54,1.585,.117,.36,.176,.647,.176,.854,0,.134-.027,.207-.051,.232-.03,.03-.125,.108-.368,.192l-2.037,.601,.132,1.427,.338-.007c1.9-.037,3.547-.055,4.946-.055,1.371,0,2.859,.018,4.465,.055l.391,.009-.068-1.438-1.973-.588c-.398-.126-.703-.314-.908-.56-.152-.18-.411-.608-.773-1.61l-8.174-22.517-.102-.279Zm.958,15.006h-6.537l3.443-8.742,3.094,8.742Z" fill="#1a1a1a"/>
    <path d="M160.909,41.445l-.392-.013,.064,1.438,2.517,.793c.119,.041,.19,.104,.198,.291,.011,.404,.021,.856,.027,1.357s.01,1.064,.01,1.688v14.932c0,.735-.004,1.406-.01,2.012-.006,.605-.016,1.154-.027,1.634-.003,.071-.007,.168-.239,.239l-2.548,.767,.131,1.427,.34-.009c1.556-.037,3.075-.055,4.558-.055,1.458,0,3.077,.018,4.853,.055l.388,.009-.067-1.437-2.78-.847c-.203-.064-.223-.151-.226-.234-.013-.465-.021-.991-.028-1.576-.006-.59-.009-1.251-.009-1.985v-4.842c.834,.082,1.626,.124,2.361,.124,3.156,0,5.652-.766,7.418-2.278,1.781-1.526,2.685-3.688,2.685-6.425,0-2.355-.794-4.158-2.361-5.361-1.538-1.181-3.814-1.779-6.766-1.779-.759,0-1.629,.026-2.588,.074-2.294,.124-4.909,.082-7.508,0Zm6.759,13.402v-11.129c.708-.071,1.42-.108,2.122-.108,1.988,0,3.452,.46,4.353,1.367,.901,.908,1.359,2.329,1.359,4.224,0,1.98-.482,3.459-1.43,4.398-.949,.939-2.372,1.415-4.227,1.415-.713,0-1.444-.057-2.177-.168Z" fill="#1a1a1a"/>
    <path d="M184.129,63.945c-.006,.605-.016,1.154-.027,1.634-.003,.071-.007,.168-.239,.239l-2.548,.767,.131,1.427,.34-.009c1.556-.037,3.075-.055,4.558-.055,1.458,0,3.077,.018,4.853,.055l.388,.009-.067-1.437-2.78-.847c-.203-.064-.223-.151-.226-.234-.013-.465-.021-.991-.028-1.576-.006-.59-.009-1.251-.009-1.985v-4.842c.834,.082,1.626,.124,2.361,.124,3.156,0,5.652-.766,7.418-2.278,1.781-1.526,2.685-3.688,2.685-6.425,0-2.355-.794-4.158-2.361-5.361-1.538-1.181-3.814-1.779-6.766-1.779-.759,0-1.629,.026-2.588,.074-2.294,.124-4.907,.082-7.508,0l-.392-.013,.064,1.438,2.517,.793c.119,.041,.19,.104,.198,.291,.011,.404,.021,.856,.027,1.357s.01,1.064,.01,1.688v14.932c0,.735-.004,1.406-.01,2.012Zm4.346-9.098v-11.129c.708-.071,1.42-.108,2.122-.108,1.988,0,3.452,.46,4.353,1.367,.901,.908,1.359,2.329,1.359,4.224,0,1.98-.482,3.459-1.43,4.398-.949,.939-2.372,1.415-4.227,1.415-.713,0-1.444-.057-2.177-.168Z" fill="#1a1a1a"/>
    <path d="M224.932,66.574l-1.973-.588c-.398-.126-.703-.314-.908-.56-.152-.18-.411-.608-.773-1.61l-8.174-22.517-.102-.279-2.392,.348-9.488,22.652c-.259,.621-.493,1.08-.698,1.364-.172,.24-.456,.424-.841,.544l-2.149,.661,.163,1.423,.334-.009c1.359-.037,2.589-.055,3.691-.055s2.524,.018,4.265,.055l.388,.009-.065-1.478-1.956-.567c-.229-.072-.338-.144-.392-.192-.044-.04-.053-.129-.053-.198,0-.129,.034-.379,.198-.833,.148-.405,.35-.949,.605-1.63l1.842-4.686h8.369l1.644,4.691c.233,.659,.412,1.187,.54,1.585,.117,.36,.176,.647,.176,.854,0,.134-.027,.207-.051,.232-.03,.03-.125,.108-.368,.192l-2.037,.601,.132,1.427,.338-.007c1.9-.037,3.547-.055,4.946-.055,1.371,0,2.859,.018,4.465,.055l.391,.009-.068-1.438Zm-10.973-10.548h-6.537l3.443-8.742,3.094,8.742Z" fill="#1a1a1a"/>
    <path d="M121.793,89.193c-.665-.568-1.417-1.07-2.233-1.491-.807-.415-1.644-.811-2.486-1.177-.77-.342-1.514-.689-2.234-1.043-.695-.34-1.326-.735-1.876-1.171-.533-.425-.961-.922-1.272-1.478-.306-.543-.46-1.188-.46-1.919,0-1.293,.429-2.272,1.312-2.992,1.468-1.197,3.901-1.485,6.898-.532l1.231,4.717,1.315-.232,1.167-6.185-.337-.344-.107-.023c-2.14-.465-4.217-.699-6.171-.699-2.815,0-5.115,.637-6.834,1.893-1.754,1.282-2.643,3.115-2.643,5.449,0,1.154,.21,2.183,.624,3.057,.414,.871,.973,1.616,1.664,2.216,.675,.587,1.438,1.107,2.268,1.548,.807,.429,1.66,.837,2.524,1.207,.757,.342,1.492,.688,2.2,1.036,.684,.335,1.303,.716,1.843,1.131,.516,.397,.932,.875,1.239,1.425,.298,.537,.451,1.175,.451,1.894,0,1.393-.458,2.432-1.398,3.176-.954,.755-2.318,1.137-4.055,1.137-1.249,0-2.488-.229-3.686-.682l-1.325-5.368-1.423,.222-.964,6.677,.277,.365,.118,.033c2.386,.669,4.6,1.009,6.579,1.009,3.098,0,5.565-.675,7.335-2.004,1.801-1.354,2.713-3.334,2.713-5.885,0-1.082-.207-2.046-.618-2.866-.406-.813-.956-1.519-1.636-2.102Z" fill="#1a1a1a"/>
    <path d="M133.186,78.871c.007-.507,.016-.975,.027-1.386,.013-.151,.061-.21,.22-.25l2.568-.767-.132-1.428-.342,.01c-3.075,.098-5.979,.099-9.108,0l-.392-.013,.064,1.438,2.517,.793c.119,.041,.19,.104,.198,.291,.011,.404,.021,.856,.027,1.357s.01,1.064,.01,1.688v14.932c0,.735-.004,1.406-.01,2.012-.006,.605-.016,1.154-.026,1.62-.011,.124-.051,.2-.24,.253l-2.548,.767,.131,1.427,.34-.009c3.087-.072,5.929-.075,9.115,0l.391,.009-.068-1.435-2.339-.726c-.365-.095-.371-.229-.372-.283-.013-.489-.021-1.033-.028-1.631-.006-.601-.009-1.269-.009-2.004v-15.005c0-.6,.003-1.154,.009-1.661Z" fill="#1a1a1a"/>
    <path d="M161.672,89.484c-2.723,.074-5.609,.074-8.801,0l-.391-.009,.068,1.435,2.528,.794c.114,.034,.178,.09,.185,.27,.011,.415,.021,.873,.027,1.374s.01,1.059,.01,1.671v4.632c-.911,.216-1.848,.325-2.785,.325-3.054,0-5.513-1.057-7.309-3.141-1.811-2.099-2.729-4.984-2.729-8.572,0-3.554,.838-6.372,2.493-8.376,2.318-2.8,6.067-3.659,10.819-2.463l1.299,4.931,1.315-.198,1.221-6.357-.287-.382-.129-.03c-2.19-.507-4.312-.765-6.306-.765-4.651,0-8.375,1.275-11.065,3.79-2.696,2.52-4.063,6.044-4.063,10.474,0,4.177,1.326,7.482,3.941,9.827,2.604,2.334,6.145,3.516,10.525,3.516,2.119,0,4.471-.307,6.989-.911l.114-.027,.276-.321v-6.027c0-.587,.003-1.136,.009-1.643s.016-1.006,.027-1.474c.01-.117,.051-.198,.217-.253l2.302-.675-.166-1.427-.333,.009Z" fill="#1a1a1a"/>
    <path d="M191.984,77.564c.007-.192,.078-.254,.186-.291l2.602-.807-.132-1.427-.342,.011c-1.531,.05-2.747,.074-3.652,.074-.935,0-1.983-.024-3.114-.074l-.253-.01-8.288,19.636-8.305-19.636-.253,.01c-1.12,.05-2.224,.074-3.28,.074-.917,0-2.164-.024-3.743-.074l-.394-.013,.068,1.438,2.514,.793c.119,.041,.19,.102,.198,.293,.024,.807,.037,1.822,.037,3.044v14.932c0,1.445-.013,2.662-.037,3.647-.003,.071-.007,.168-.239,.239l-2.548,.767,.132,1.425,.34-.007c1.579-.037,2.848-.055,3.802-.055,.979,0,2.197,.018,3.655,.055l.391,.01-.068-1.437-2.315-.725c-.132-.036-.205-.095-.212-.303-.026-.966-.037-2.173-.037-3.617v-14.148l8.592,20.338,1.826-.2,8.516-20.139v14.149c0,1.444-.011,2.65-.037,3.615-.007,.232-.097,.277-.202,.307l-2.4,.732,.132,1.425,.341-.009c2.838-.074,5.705-.072,8.911,0l.391,.009-.068-1.437-2.457-.757c-.249-.074-.253-.173-.256-.23-.024-.993-.036-2.21-.036-3.655v-14.932c0-1.222,.011-2.237,.036-3.041Z" fill="#1a1a1a"/>
    <path d="M221.566,99.59c-.398-.126-.703-.314-.908-.56-.152-.18-.411-.608-.773-1.61l-8.174-22.517-.102-.279-2.392,.348-9.488,22.652c-.259,.621-.493,1.08-.698,1.364-.172,.24-.456,.424-.841,.544l-2.149,.661,.163,1.423,.334-.009c1.359-.037,2.589-.055,3.691-.055s2.524,.018,4.265,.055l.388,.009-.065-1.478-1.956-.567c-.229-.072-.338-.144-.392-.192-.044-.04-.053-.129-.053-.198,0-.129,.034-.379,.198-.833,.148-.405,.35-.949,.605-1.63l1.842-4.686h8.369l1.644,4.691c.233,.659,.412,1.187,.54,1.585,.117,.36,.176,.647,.176,.854,0,.134-.027,.207-.051,.232-.03,.03-.125,.108-.368,.192l-2.037,.601,.132,1.427,.338-.007c1.9-.037,3.547-.055,4.946-.055,1.371,0,2.859,.018,4.465,.055l.391,.009-.068-1.438-1.973-.588Zm-9-9.959h-6.537l3.443-8.742,3.094,8.742Z" fill="#1a1a1a"/>
  </g>
</svg>