<?xml version="1.0" encoding="utf-8"?>
<!-- Generator: Adobe Illustrator 26.3.1, SVG Export Plug-In . SVG Version: 6.00 Build 0)  -->
<svg version="1.1" id="Layer_1" xmlns="http://www.w3.org/2000/svg" xmlns:xlink="http://www.w3.org/1999/xlink" x="0px" y="0px"
	 viewBox="0 0 448 512" style="enable-background:new 0 0 448 512;" xml:space="preserve">
<style type="text/css">
	.st0{fill:#E93825;}
</style>
<path class="st0" d="M384,272H64v32h320V272z M64,176h320v-32H64V176z M32,64h32v48h320V64h32c17.7,0,32-14.3,32-32S433.7,0,416,0
	H32C14.3,0,0,14.3,0,32S14.3,64,32,64z M432,208H64v32h368c8.8,0,16-7.2,16-16S440.8,208,432,208z M416,448h-32v-48H64v48H32
	c-17.7,0-32,14.3-32,32s14.3,32,32,32h384c17.7,0,32-14.3,32-32S433.7,448,416,448z M64,368h320v-32H64V368z"/>
</svg>
