<?xml version="1.0" encoding="utf-8"?>
<!-- Generator: Adobe Illustrator 27.2.0, SVG Export Plug-In . SVG Version: 6.00 Build 0)  -->
<svg version="1.1" id="Layer_1" xmlns="http://www.w3.org/2000/svg" xmlns:xlink="http://www.w3.org/1999/xlink" x="0px" y="0px"
	 viewBox="0 0 225 178.134" style="enable-background:new 0 0 225 178.134;" xml:space="preserve">
<style type="text/css">
	.st0{fill:#5D9380;}
	.st1{fill:#CA813C;}
	.st2{fill:#BB8A74;}
</style>
<g>
	<g>
		<g>
			<g>
				<g>
					<path class="st0" d="M42.601,44.525c-1.655,2.208-2.447,3.819,0.622,5.648l12.309,7.319c1.461,0.768,1.262,2.78-0.505,3.236
						c-2.205,0.542-6.69,1.615-10.169,2.421l8.958,5.331c1.461,0.768,1.268,2.742-0.5,3.199c-3.578,0.944-16.128,3.802-17.771,4.201
						c0.351,1.944,2.341,3.025,4.009,1.975c2.694-1.7,5.141,0.649,4.688,3.546c-0.752,4.817-11.403,3.654-9.75-6.919l0.969-6.209
						c0.059-0.376,0.522-0.381,0.782-0.07c0.837,1.056,1.714,1.116,3.151,0.801c0.156-0.014,6.347-1.399,9.746-2.178l-5.72-3.36
						l-3.279,0.76c-1.437,0.315-2.35,0.481-3.592,2.022c-0.383,0.48-0.799,0.183-0.741-0.193l1.369-8.768
						c0.024-0.151,0.11-0.214,0.198-0.278c0.119-0.02,0.237-0.04,0.338,0.053c0.076,0.012,0.177,0.105,0.24,0.192
						c0.837,1.056,1.715,1.116,3.157,0.763c0.156-0.014,6.347-1.398,9.746-2.178l-7.811-4.535c-3.748-2.166-6.788-4.414-6.318-7.424
						C37.421,39.437,44.263,42.279,42.601,44.525z"/>
				</g>
			</g>
			<path class="st1" d="M58.909,38.238c3.419,1.843,4.594,6.326,2.607,10.014c-2.005,3.722-6.396,5.206-9.815,3.363
				c-3.42-1.842-4.594-6.326-2.589-10.047C51.099,37.879,55.489,36.395,58.909,38.238z M56.343,42.998
				c-2.916-1.572-5.733-1.965-6.293-0.925c-0.578,1.073,1.299,3.209,4.216,4.781c2.883,1.554,5.733,1.965,6.312,0.892
				C61.138,46.706,59.227,44.552,56.343,42.998z"/>
			<g>
				<g>
					<path class="st0" d="M83.336,23.304l-5.794,4.886c-0.611,0.516-0.975,0.025-0.905-0.482c0.44-3.26-6.345-9.112-8.124-7.445
						c-0.694,0.651-0.214,2.445,0.853,4.42c0.448,0.311,0.84,0.674,1.231,1.091l1.719,1.834c0.964,1.028,1.704,1.483,3.354,1.294
						c0.486-0.038,0.714,0.428,0.436,0.688l-5.531,5.183c-0.584,0.547-0.972,0.076-0.929-0.434c0.269-3.279-6.302-9.232-8.108-7.539
						c-0.556,0.521,0.117,2.187,0.927,3.83c2.644,3.212,4.983,5.068,6.293,4.82c0.507-0.104,0.986,0.333,0.446,0.924l-5.009,5.484
						c-0.257,0.281-0.725,0.06-0.693-0.427c0.168-1.652-0.67-3.001-1.634-4.03l-2.187-2.334c-0.964-1.028-1.703-1.483-3.379-1.322
						c-0.487,0.038-0.688-0.4-0.41-0.66c2.669-2.5,2.087-5.349,2.935-6.561c0.48-0.658,0.619,0.047,0.901,0.46l0.696,0.966
						c-0.305-1.384-0.289-2.704,0.628-3.564c1.751-1.641,4.263-1.802,6.6-0.755c-0.804-1.805-1.291-4.219,0.265-5.677
						c2.557-2.396,6.683-1.669,9.548,1.388l1.719,1.834c0.963,1.028,2.098,1.522,3.727,1.444
						C83.424,22.581,83.627,23.058,83.336,23.304z"/>
				</g>
			</g>
			<path class="st2" d="M94.01,15.226c-0.239,2.564-1.94,5.025-4.623,6.213c-3.866,1.712-8.246,0.194-9.819-3.359
				c-1.573-3.553,0.212-7.801,4.392-9.651c2.716-1.203,6.459-0.653,7.477,1.646c1.003,2.264-0.409,5.097-3.126,6.3
				c-0.905,0.401-1.799,0.547-2.669,0.557c0.857,0.995,2.055,1.631,3.634,1.432c1.443-0.222,3.367-1.616,3.771-3.336
				C93.196,14.42,94.05,14.75,94.01,15.226z M83.977,13.545c0.817,1.846,2.197,2.61,3.033,2.239c0.94-0.416,0.969-2.137,0.214-3.844
				c-0.772-1.741-2.065-2.876-3.006-2.46C83.661,9.727,82.989,11.316,83.977,13.545z"/>
			<path class="st1" d="M113.236,16.418l-7.564,0.479c-0.798,0.051-0.799-0.56-0.44-0.926c2.293-2.359-0.028-11.243-2.637-10.933
				c-0.756,0.09-1.378,1.314-1.851,2.828c0.154,4.853,0.977,7.747,2.244,8.431c0.462,0.234,0.565,0.874-0.225,1l-7.333,1.177
				c-0.376,0.06-0.605-0.404-0.277-0.766c1.159-1.189,1.326-2.165,1.16-3.564l-0.378-3.177c-0.166-1.4-0.491-2.205-1.936-3.069
				c-0.415-0.258-0.317-0.73,0.061-0.774c3.631-0.431,4.852-3.069,6.254-3.542c0.776-0.245,0.47,0.405,0.453,0.905l-0.019,0.808
				c0.64-1.073,1.529-1.984,2.739-2.128c4.085-0.485,7.09,2.534,7.583,6.694l0.297,2.496c0.166,1.4,0.58,2.347,1.973,3.251
				C113.737,15.89,113.616,16.394,113.236,16.418z"/>
			<g>
				<g>
					<path class="st0" d="M121.937,17.267c-0.366-0.106-0.375-0.624,0.076-0.811c1.556-0.581,2.008-0.838,2.4-2.192l0.889-3.074
						c0.392-1.354,0.405-2.222-0.59-3.581c-0.281-0.399-0.008-0.795,0.358-0.689c2.744,0.794,4.667-0.236,6.098-0.655
						c1.493-0.638,2.299-2.19,2.067-3.446c-0.118-0.55-0.363-0.938-0.785-1.258c0.192,0.571,0.121,1.225-0.226,1.878
						c-0.752,1.368-2.565,2.152-4.066,1.719c-1.464-0.424-2.065-1.906-1.313-3.274c0.585-1.06,1.738-1.758,2.952-1.842
						c2.905-0.31,4.234,1.264,4.481,2.604c0.236,1.377-0.407,3.054-1.776,4.086L132.274,7.1c-2.872,6.227-3.629,10.005-2.571,11.421
						c0.318,0.409,0.138,1.031-0.63,0.809L121.937,17.267z"/>
				</g>
			</g>
			<path class="st2" d="M146.084,28.812l-6.518-3.866c-0.687-0.408-0.344-0.913,0.158-1.013c3.223-0.656,6.956-9.113,4.696-10.454
				c-0.655-0.389-1.893,0.205-3.188,1.12c-2.828,3.946-3.943,6.871-3.407,8.207c0.205,0.476-0.126,1.033-0.813,0.624l-6.388-3.789
				c-0.327-0.194-0.205-0.698,0.277-0.765c1.651-0.171,2.275-0.775,2.994-1.987l1.632-2.752c0.719-1.212,0.95-2.049,0.328-3.613
				c-0.172-0.456,0.192-0.772,0.52-0.577c3.144,1.865,5.717,0.513,7.117,0.99c0.765,0.277,0.127,0.607-0.191,0.994l-0.507,0.629
				c1.16-0.463,2.42-0.646,3.468-0.024c3.537,2.099,4.087,6.321,1.95,9.924l-1.282,2.162c-0.719,1.212-0.95,2.049-0.309,3.581
				C146.795,28.659,146.411,29.006,146.084,28.812z"/>
			<g>
				<g>
					<path class="st0" d="M166.395,45.317c-0.212,0.161-2.781,1.437-3.67,1.967c-0.653,0.399-1.057,0.37-1.471-0.176l-8.575-11.326
						c-0.23-0.304,0.073-0.724,0.568-0.574c1.571,0.435,2.4,0.142,3.524-0.709l11.416-8.644c-1.632-2.156-4.646-1.594-5.123,0.679
						c-0.648,3.118-4.037,3.248-5.807,0.91c-2.943-3.887,5.291-10.742,11.751-2.209l3.908,5.162
						c0.506,0.668-0.003,1.006-0.476,0.886c-1.754-0.487-5.801,2.433-7.926,4.043c-2.034,1.54-5.761,4.505-6.042,6.342l0.735,0.972
						c1.426,1.883,5.166,1.965,6.849,1.98C166.545,44.631,166.729,45.064,166.395,45.317z"/>
				</g>
			</g>
			<path class="st1" d="M166.609,63.365L165.32,59.7c-0.683-1.94,0.777-3.301,0.777-3.301c-1.32-0.424-2.458-1.478-2.963-2.915
				c-0.847-2.407,0.362-5.053,2.698-5.874c2.335-0.821,4.934,0.485,5.78,2.892c0.506,1.437,0.278,2.971-0.486,4.128l1.077-0.379
				c2.084-0.733,4.177-2.357,3.722-3.651c-0.189-0.539-1.051-0.236-1.834,0.524c-1.495,1.374-4.109-3.763-2.025-4.496
				c1.545-0.543,3.829,0.672,4.991,3.977c1.352,3.844-0.283,7.689-4.163,9.054l-2.946,1.036c-1.329,0.468-2.044,0.961-2.536,2.547
				C167.253,63.704,166.748,63.76,166.609,63.365z M168.561,55.371c1.257-0.442,2.021-1.599,1.668-2.605
				c-0.341-0.97-1.661-1.394-2.918-0.952c-1.257,0.442-2.021,1.599-1.681,2.569C165.984,55.389,167.304,55.813,168.561,55.371z"/>
			<path class="st2" d="M182.369,84.492c-0.885-1.255-1.987-1.57-3.429-1.854l-8.858-1.794c-0.783-0.193-1.461-0.473-1.54-1.307
				l-0.239-2.502c-0.112-1.176,0.304-1.636,1.294-2.075l4.932-2.04l0.813-0.307l-6.168-1.286c-0.78-0.155-1.457-0.435-1.537-1.269
				l-0.239-2.503c-0.112-1.176,0.3-1.674,1.294-2.075c0.957-0.397,3.801-1.473,6.843-2.873c8.655-3.926,11.015-6.064,10.884-7.429
				c-0.141-1.479-3.546-0.273-4.504-3.09c-1.586-4.593,3.068-5.535,4.71-2.363c3.374,6.489-0.605,14.101-11.537,18.626
				c-1.911,0.833-4.388,2.141-4.532,2.231c0,0,4.701,0.738,7.855,0.513c1.413-0.824,2-1.492,2.315-2.211
				c0.26-0.484,0.882-0.773,0.959,0.023l0.782,8.19c0.036,0.379-0.393,0.688-0.76,0.455c-2.557-1.937-9.921,2.287-10.245,2.509
				c0,0,8.855,1.374,10.463-0.234c0.316-0.298,0.782-0.227,0.832,0.303l0.417,4.361C183.216,84.947,182.72,84.956,182.369,84.492z"
				/>
		</g>
	</g>
	<path class="st2" d="M77.885,87.384c-7.555-0.444-8.717-1.605-9.161-9.161c-0.012-0.196-0.299-0.196-0.311,0
		c-0.444,7.555-1.605,8.717-9.161,9.161c-0.196,0.012-0.196,0.299,0,0.311c7.555,0.444,8.717,1.605,9.161,9.161
		c0.012,0.196,0.299,0.196,0.311,0c0.444-7.555,1.605-8.717,9.161-9.161C78.081,87.683,78.081,87.396,77.885,87.384z"/>
	<path class="st0" d="M59.692,129.257c-6.413-0.377-7.399-1.363-7.775-7.775c-0.01-0.167-0.254-0.167-0.264,0
		c-0.377,6.413-1.363,7.399-7.775,7.775c-0.167,0.01-0.167,0.254,0,0.264c6.413,0.377,7.399,1.363,7.775,7.775
		c0.01,0.167,0.254,0.167,0.264,0c0.377-6.413,1.363-7.399,7.775-7.775C59.859,129.51,59.859,129.266,59.692,129.257z"/>
	<path class="st1" d="M53.375,99.349c-4.216-0.248-4.864-0.896-5.111-5.111c-0.006-0.109-0.167-0.109-0.173,0
		c-0.248,4.216-0.896,4.864-5.111,5.111c-0.109,0.006-0.109,0.167,0,0.173c4.216,0.248,4.864,0.896,5.111,5.111
		c0.006,0.109,0.167,0.109,0.173,0c0.248-4.216,0.896-4.864,5.111-5.111C53.484,99.516,53.484,99.356,53.375,99.349z"/>
	<path class="st1" d="M76.565,116.052c-4.216-0.248-4.864-0.896-5.111-5.111c-0.006-0.109-0.167-0.109-0.173,0
		c-0.248,4.216-0.896,4.864-5.111,5.111c-0.109,0.006-0.109,0.167,0,0.173c4.216,0.248,4.864,0.896,5.111,5.111
		c0.006,0.109,0.167,0.109,0.173,0c0.248-4.216,0.896-4.864,5.111-5.111C76.675,116.219,76.675,116.059,76.565,116.052z"/>
	<path class="st0" d="M186.118,125.415c-7.734-0.441-8.874-1.58-9.314-9.314c-0.011-0.186-0.283-0.186-0.294,0
		c-0.441,7.734-1.58,8.874-9.314,9.314c-0.186,0.011-0.186,0.283,0,0.294c7.734,0.441,8.874,1.58,9.314,9.314
		c0.011,0.186,0.283,0.186,0.294,0c0.441-7.734,1.58-8.874,9.314-9.314C186.304,125.699,186.304,125.426,186.118,125.415z"/>
	<path class="st0" d="M166.693,94.649c-7.734-0.441-8.874-1.58-9.314-9.314c-0.011-0.186-0.283-0.186-0.294,0
		c-0.441,7.734-1.58,8.874-9.314,9.314c-0.186,0.011-0.186,0.283,0,0.294c7.734,0.441,8.873,1.58,9.314,9.314
		c0.011,0.186,0.283,0.186,0.294,0c0.441-7.734,1.58-8.874,9.314-9.314C166.879,94.932,166.879,94.66,166.693,94.649z"/>
	<path class="st2" d="M147.243,79.707c-3.393-0.193-3.893-0.693-4.086-4.086c-0.005-0.082-0.124-0.082-0.129,0
		c-0.193,3.393-0.693,3.893-4.086,4.086c-0.082,0.005-0.082,0.124,0,0.129c3.393,0.193,3.893,0.693,4.086,4.086
		c0.005,0.082,0.124,0.082,0.129,0c0.193-3.393,0.693-3.893,4.086-4.086C147.324,79.831,147.324,79.711,147.243,79.707z"/>
	<path class="st2" d="M152.415,115.424c-5.564-0.317-6.383-1.137-6.7-6.7c-0.008-0.134-0.204-0.134-0.211,0
		c-0.317,5.564-1.137,6.383-6.7,6.7c-0.134,0.008-0.134,0.204,0,0.211c5.564,0.317,6.383,1.137,6.7,6.7
		c0.008,0.134,0.204,0.134,0.211,0c0.317-5.564,1.137-6.383,6.7-6.7C152.549,115.628,152.549,115.432,152.415,115.424z"/>
	<path class="st1" d="M182,101.296c-3.143-0.179-3.606-0.642-3.785-3.785c-0.004-0.076-0.115-0.076-0.119,0
		c-0.179,3.143-0.642,3.606-3.785,3.785c-0.076,0.004-0.076,0.115,0,0.119c3.143,0.179,3.606,0.642,3.785,3.785
		c0.004,0.076,0.115,0.076,0.119,0c0.179-3.143,0.642-3.606,3.785-3.785C182.076,101.411,182.076,101.301,182,101.296z"/>
	<path class="st1" d="M160.141,133.733c-3.143-0.179-3.606-0.642-3.785-3.785c-0.004-0.076-0.115-0.076-0.119,0
		c-0.179,3.143-0.642,3.606-3.785,3.785c-0.076,0.004-0.076,0.115,0,0.119c3.143,0.179,3.606,0.642,3.785,3.785
		c0.004,0.076,0.115,0.076,0.119,0c0.179-3.143,0.642-3.606,3.785-3.785C160.217,133.848,160.217,133.737,160.141,133.733z"/>
	<path class="st0" d="M91.172,98.032c-3.143-0.179-3.606-0.642-3.785-3.785c-0.004-0.076-0.115-0.076-0.119,0
		c-0.179,3.143-0.642,3.606-3.785,3.785c-0.076,0.004-0.076,0.115,0,0.119c3.143,0.179,3.606,0.642,3.785,3.785
		c0.004,0.076,0.115,0.076,0.119,0c0.179-3.143,0.642-3.606,3.785-3.785C91.248,98.148,91.248,98.037,91.172,98.032z"/>
	<path class="st2" d="M88.826,131.064c-3.143-0.179-3.606-0.642-3.785-3.785c-0.004-0.076-0.115-0.076-0.119,0
		c-0.179,3.143-0.642,3.606-3.785,3.785c-0.076,0.004-0.076,0.115,0,0.119c3.143,0.179,3.606,0.642,3.785,3.785
		c0.004,0.076,0.115,0.076,0.119,0c0.179-3.143,0.642-3.606,3.785-3.785C88.901,131.179,88.901,131.068,88.826,131.064z"/>
	<g>
		<g>
			<path class="st1" d="M95.428,36.235l-0.005-0.004l0,0l0.001,0c0,0,0,0,0,0c-0.02-0.022-0.039-0.046-0.058-0.069
				c0.056-0.083,0.121-0.157,0.216-0.216c0.098-0.061,0.198-0.123,0.287-0.196c0.091-0.075,0.24-0.255,0.24-0.255
				s0.132-0.191,0.178-0.294c0.089-0.201,0.001-0.442-0.05-0.466c0.024-0.03,0.051-0.059,0.073-0.09
				c0.007-0.01,0.001-0.025-0.012-0.028c-0.127-0.024-0.235,0.045-0.335,0.109c-0.062,0.039-0.123,0.079-0.184,0.118
				c-0.047,0.03-0.094,0.062-0.133,0.101c-0.044,0.044-0.077,0.096-0.083,0.156c-0.001,0.008,0.01,0.009,0.016,0.015
				c-0.081,0.06-0.197,0.144-0.308,0.222c0,0,0,0,0,0c-0.092,0.16-0.197,0.285-0.214,0.306c-0.002,0.002-0.007,0.008-0.007,0.008
				c-0.007,0.021-0.011,0.041-0.014,0.06c0,0.004-0.002,0.008-0.003,0.011c-0.009,0.073,0.007,0.126,0.007,0.126l-0.056-0.193
				l0.187-0.247l0.021-0.028c0.044-0.062,0.09-0.122,0.137-0.181c0.071-0.088,0.142-0.177,0.2-0.273
				c0.059-0.099,0.104-0.205,0.134-0.314c0.03-0.108,0.045-0.22,0.045-0.331c0-0.056-0.004-0.112-0.012-0.168
				c-0.008-0.056-0.019-0.113-0.048-0.163c-0.03-0.052-0.084-0.085-0.141-0.092c0.012-0.036,0.026-0.071,0.036-0.107
				c0.003-0.011-0.008-0.024-0.021-0.022c-0.128,0.017-0.205,0.116-0.276,0.207c-0.044,0.056-0.088,0.112-0.131,0.168
				c-0.033,0.043-0.066,0.088-0.089,0.136c-0.025,0.055-0.038,0.114-0.021,0.172c0.002,0.008,0.013,0.006,0.021,0.009
				c-0.116,0.174-0.233,0.348-0.357,0.517c-0.017,0.024-0.035,0.047-0.052,0.07l-0.542,1.112c-0.008,0.024-0.014,0.048-0.021,0.072
				l1.402,0.062L95.428,36.235z"/>
			<path class="st1" d="M139.935,34.923l-0.854,0.155c-1.054,1.87-6.205,11.005-9.53,16.899c0.128,0.213,0.254,0.413,0.379,0.599
				c1.401-2.475,2.801-4.95,4.203-7.424c1.911-3.374,3.822-6.748,5.736-10.121C139.889,34.995,139.913,34.959,139.935,34.923z"/>
			<path class="st1" d="M153.118,57.885c-0.254-0.111-0.302-0.09-0.302-0.09s-0.485-1.111-0.654-1.454
				c-1.554-3.159-3.109-6.318-4.665-9.476c-1.05-2.13-2.104-4.258-3.153-6.389c-0.942-1.913-1.945-3.955-2.886-5.873
				c0.106-0.007,0.229-0.011,0.255-0.14c0.026-0.132-0.078-0.282-0.142-0.393c-0.052-0.091-0.108-0.18-0.17-0.266
				c-0.119-0.163-0.261-0.309-0.43-0.419c-0.471-0.306-1.079-0.322-1.622-0.292c-0.036,0.002-0.072,0.004-0.108,0.007l-2.042,0.156
				c-9.52,0.72-37.752,2.842-37.752,2.842l-0.436,0.031c-0.039-0.116-0.076-0.232-0.12-0.346c-0.073-0.188-0.155-0.374-0.258-0.56
				c-0.021-0.057-0.041-0.115-0.068-0.17c-0.024-0.048-0.053-0.096-0.102-0.125c-0.041-0.024-0.091-0.035-0.139-0.031
				c-0.099,0.009-0.206,0.096-0.171,0.206c0,0.012,0.002,0.024,0.002,0.036c-0.095,0.108-0.119,0.265-0.126,0.397
				c-0.004,0.08,0,0.16,0.009,0.24c0.016,0.141,0.05,0.279,0.092,0.425c0.098,0.274,0.344,1.029,0.334,1.647
				c-0.002,0.124-0.014,0.243-0.04,0.351c0,0-0.034-0.137-0.091-0.341c-0.042-0.152-0.097-0.342-0.16-0.544
				c-0.122-0.389-0.273-0.818-0.423-1.095l-0.992,0.07c0.034-0.039,0.066-0.08,0.084-0.128c0.018-0.049,0.008-0.102-0.022-0.14
				c0.032-0.015,0.065-0.028,0.096-0.045c0.01-0.005,0.011-0.02,0.003-0.026c-0.089-0.065-0.204-0.05-0.31-0.036
				c-0.065,0.009-0.13,0.017-0.196,0.026c-0.05,0.007-0.1,0.015-0.148,0.032c-0.053,0.019-0.102,0.048-0.126,0.111
				c-0.181,0.037-0.47,0.078-0.626,0.115c-0.005,0.013-0.003,0.034,0.009,0.061c0,0,1.019,0.045,1.016,0.045
				c0,0-0.929,0.07-0.939,0.071c0,0-14.475,1.1-15.689,1.184c-0.377,0.026-0.714,0.234-0.91,0.557
				c-0.132,0.218-0.295,0.439-0.359,0.689c-0.011,0.044-0.02,0.075,0.009,0.11c0.042,0.051,0.198,0.101,0.198,0.101l0.363,0.112
				c-1.797,3.1-13.039,22.466-13.039,22.466s-0.125-0.018-0.272,0.034c-0.323,0.114-0.453,0.417-0.369,0.786
				c0.065,0.286,0.242,0.445,0.532,0.435c0.235-0.009,0.444,0.118,0.504,0.345c0.244,0.913,0.662,1.747,1.226,2.507
				c1.312,1.769,3.076,2.937,5.062,3.811c0.281,0.124,0.667,0.133,0.821,0.385c0.155,0.254-0.022,0.601-0.04,0.908
				c-0.02,0.352,0.126,0.545,0.478,0.578l0.531,0.049c0.991,0.092,1.986,0.113,2.982,0.11c1.992-0.006,3.982,0.097,5.974,0.124
				c0.428,0.006,0.578-0.162,0.584-0.59c0.002-0.131-0.008-0.263-0.027-0.392c-0.076-0.509-0.067-0.519,0.426-0.681
				c1.288-0.422,2.515-0.97,3.627-1.754c1.577-1.112,2.835-2.482,3.472-4.343c0.104-0.305,0.314-0.314,0.561-0.313
				c0.257,0.002,0.459-0.113,0.504-0.368c0.049-0.279,0.102-0.632-0.21-0.769c-0.294-0.13-0.289-0.149-0.289-0.149
				s-0.528-1.096-0.686-1.417c-1.919-3.885-3.839-7.769-5.757-11.654c-1.46-2.957-4.442-9.016-4.917-9.981l-0.573,0.304
				c1.032,1.987,1.912,3.849,2.902,5.856c1.921,3.895,3.844,7.789,5.766,11.683c0.771,1.562,2.313,4.687,2.313,4.687l0.228,0.54
				c0,0-2.833-0.068-3.979-0.107c-1.766-0.049-3.532-0.096-5.298-0.148c-2.231-0.066-4.462-0.141-6.693-0.204
				c-2.1-0.06-4.201-0.11-6.301-0.164c-0.67-0.017-2.451-0.055-2.451-0.055L79.81,39.434l-0.076-0.159l1.123-0.098
				c0,0,14.311-1.1,14.311-1.1s0.203,0.26,0.284,0.362c0.191,0.241,0.379,0.486,0.604,0.701c0.228,0.219,0.49,0.403,0.735,0.605
				c0.438,0.362,0.82,0.786,1.137,1.242c0.261,0.376,0.562,0.681,0.715,1.075c0.152,1.491,2.444,8.357,3.59,10.833
				c1.17,2.528,2.819,5.797,4.65,7.905c0.92,1.058,1.797,2.156,2.53,3.356c0,0-1.617,1.491-1.821,1.658
				c-1.265,1.028-1.971,3.18-1.517,4.747c1.755,6.063,0.283,14.454,0.336,16.333c0.088,0.443,0.183,0.891,0.296,1.333
				c0.298,1.211,0.691,2.355,1.011,3.163c0.324,0.806,0.827,1.907,1.444,2.99c0.608,1.09,1.339,2.147,1.909,3.011
				c-3.337-2.792-4.392-6.968-4.472-7.199c0.34,4.999,0.801,11.31-0.623,14.735c-2.112,5.082-3.442,15.244-3.693,17.461
				c-0.03,0.266,0.184,0.491,0.451,0.477c1.205-0.062,4.053-0.104,2.821,0.978c-0.832,0.731,0.691,0.53,1.075,0.469
				c1.232-0.195,2.422-0.636,3.659-0.781c0,0,0.107-0.012,0.28-0.025c0.015-0.001,0.025-0.002,0.041-0.003
				c0.135-0.012,0.271-0.013,0.407-0.019c0.193-0.006,0.409-0.008,0.646-0.001c0.162,0.006,0.325,0.008,0.486,0.027
				c0.003,0,0.005,0,0.008,0c0,0-0.002,0-0.002,0c-0.016,0.003-0.854,0.168-1.542,0.355c0.194,1.607,0.387,3.974,0.043,5.917
				c-0.268,1.512-2.865,5.495-5.343,6.376c-0.515,0.183-0.866,0.486-0.916,1.066c-0.024,0.278,0.011,0.533,0.175,0.754
				c-0.172,0.006-0.336,0.013-0.506,0.019c-1.659,0.072-7.104,0.39-9.996,1.572c0,0,0.542-0.641,2.143-1.102
				c-3.635,0.332-5.847,0.768-5.847,1.246c0,1.042,10.482,1.886,23.413,1.886c2.384,0,4.684-0.029,6.852-0.082
				c0.2-0.008,8.239-0.335,10.803-1.863c0,0-0.476,0.849-1.904,1.454c4.708-0.345,7.663-0.842,7.663-1.396
				c0-0.805-6.264-1.492-15.078-1.763c0.083-0.839,0.416-4.056,0.775-5.167c0.37-1.142,0.028-2.566-1.048-3.409
				c-0.573-0.45-1.079-4.884-1.216-6.576c-0.023-0.284,0.741-1.21,2.723,0.511c1.992,1.729,0.933-13.798,1.137-16.146
				c0.068-0.78,0.156-0.961,0.174-1.743c0.064-2.871,0.005-5.74-0.28-8.588c-0.062,0.853-0.193,1.741-0.398,2.605
				c-0.433,1.853-1.205,3.563-1.864,4.721c-0.651,1.162-1.716,2.709-3.087,4.031c-0.35,0.322-0.691,0.656-1.067,0.945
				c-0.366,0.299-0.732,0.588-1.124,0.834c-0.768,0.502-1.63,0.832-2.387,0.817c1.481-0.361,2.791-1.792,4.039-3.113
				c1.226-1.358,2.212-2.847,2.836-3.959c0.63-1.109,1.394-2.723,1.934-4.473c0.345-1.109,0.604-2.262,0.795-3.338
				c0.003-0.441,0.008-1.142,0.011-1.583c-0.31-1.974-0.716-3.93-1.281-5.85c-0.442-1.501-2.246-5.067-2.616-9.81
				c-0.289-3.708,1.476-6.353,2.262-7.335c0.09-0.196,0.181-0.373,0.264-0.516c0.32-0.606,1.04-1.612,1.677-2.082
				c-0.404,0.672-1.052,1.663-1.364,2.254c-0.058,0.1-0.122,0.219-0.188,0.345c0.064,1.25,0.516,6.067,0.645,6.992
				c0.029,0.095,0.059,0.185,0.088,0.265c0.11,0.334,0.286,0.792,0.526,1.229c0.238,0.44,0.548,0.849,0.85,1.139
				c-0.389-0.161-0.804-0.545-1.1-0.985c-0.053-0.077-0.099-0.156-0.146-0.235c0.23,1.347,0.515,2.686,0.834,4.019
				c0.605,2.53,2.611,9.231,3.62,10.785c0.152,0.286,0.301,0.583,0.381,0.899c0.04,0.157,0.063,0.319,0.061,0.481
				c-0.002,0.177-0.039,0.351-0.071,0.525c-0.03,0.165-0.052,0.33-0.047,0.498c0.005,0.156,0.028,0.312,0.064,0.464
				c0.072,0.312,0.188,0.612,0.289,0.916c0.055,0.166,0.102,0.333,0.146,0.502c0.043,0.169,0.083,0.338,0.123,0.508
				c0.041,0.172,0.083,0.344,0.132,0.513c0.05,0.17,0.107,0.337,0.18,0.506c0.014,0.051,0.027,0.103,0.046,0.153
				c0.017,0.044,0.038,0.087,0.076,0.116c0.032,0.024,0.072,0.036,0.112,0.035c0.08-0.003,0.172-0.073,0.149-0.171
				c0.001-0.01,0-0.021,0-0.031c0.083-0.089,0.11-0.226,0.122-0.342c0.007-0.07,0.008-0.141,0.005-0.211
				c-0.01-0.211-0.059-0.42-0.106-0.624c-0.02-0.086-0.035-0.174-0.052-0.261c-0.081-0.273-0.071-0.637-0.067-0.848
				c0.007-0.254,0.067-0.671-0.087-0.927c0.132,0.073,0.228,0.266,0.253,0.449c0.024,0.148,0.02,0.28,0.017,0.393
				c0.124,0.01,0.249,0.02,0.372,0.044c0.155,0.031,0.3,0.086,0.43,0.176c0.139,0.097,0.259,0.22,0.378,0.338
				c0,0,0.301,0.294,0.567,0.555c-0.028,0.003-0.056,0.004-0.083,0.009c-0.086,0.017-0.169,0.046-0.247,0.084
				c-0.078,0.038-0.151,0.086-0.216,0.142c-0.033,0.028-0.065,0.059-0.094,0.091c-0.029,0.033-0.058,0.067-0.074,0.108
				c-0.017,0.042-0.012,0.089,0.01,0.124c-0.027,0.011-0.054,0.021-0.084,0.057c0.069,0.062,0.163,0.055,0.249,0.048
				c0.053-0.004,0.106-0.008,0.16-0.012c0.041-0.003,0.082-0.008,0.121-0.02c0.044-0.013,0.085-0.036,0.108-0.091
				c0.149-0.022,0.385-0.042,0.514-0.066c0.012-0.026,0.005-0.085-0.114-0.214c0,0,0.176,0.179,0.185,0.194
				c0.016,0.022,0.028,0.046,0.043,0.068c-0.049,0.067-0.105,0.127-0.182,0.172c-0.083,0.049-0.166,0.097-0.242,0.156
				c-0.078,0.061-0.208,0.21-0.208,0.21s-0.117,0.16-0.159,0.248c-0.082,0.172-0.024,0.388,0.016,0.412
				c-0.021,0.025-0.044,0.049-0.064,0.075c-0.006,0.008-0.002,0.022,0.008,0.025c0.101,0.028,0.193-0.027,0.277-0.077
				c0.052-0.031,0.104-0.062,0.156-0.094c0.04-0.024,0.079-0.049,0.113-0.081c0.038-0.036,0.068-0.08,0.063-0.147
				c0.069-0.048,0.167-0.115,0.261-0.178c0.083-0.136,0.174-0.239,0.195-0.264c0.007-0.018,0.011-0.035,0.017-0.062
				c0.011-0.064,0.001-0.111,0.001-0.111l0.035,0.173l-0.165,0.207l-0.018,0.023c-0.038,0.052-0.079,0.103-0.12,0.151
				c-0.062,0.074-0.124,0.147-0.176,0.229c-0.053,0.083-0.095,0.174-0.125,0.268c-0.03,0.093-0.047,0.19-0.053,0.288
				c-0.003,0.049-0.002,0.099,0.001,0.148c0.004,0.049,0.01,0.1,0.031,0.145c0.021,0.047,0.064,0.079,0.11,0.089
				c-0.012,0.031-0.025,0.061-0.035,0.092c-0.003,0.01,0.006,0.021,0.016,0.021c0.105-0.008,0.172-0.09,0.235-0.166
				c0.038-0.047,0.077-0.094,0.115-0.141c0.029-0.036,0.058-0.073,0.079-0.115c0.023-0.046,0.037-0.098,0.01-0.159
				c0.103-0.146,0.206-0.292,0.316-0.434c0.015-0.02,0.03-0.039,0.046-0.059c0.024,0.061,0.048,0.123,0.071,0.185
				c0.055,0.147,0.11,0.297,0.192,0.432c0.077,0.127,0.18,0.241,0.318,0.301c0.029,0.013,0.062,0.027,0.094,0.018
				c0.021-0.006,0.035-0.022,0.046-0.039c0.007,0.015,0.013,0.03,0.02,0.045c0.009,0.019,0.02,0.038,0.023,0.058
				c0.003,0.019,0.028,0.014,0.033,0c0.008-0.023,0.01-0.05,0.012-0.074c0.003-0.024,0.005-0.049,0.006-0.073
				c0.003-0.05,0-0.1-0.006-0.149c-0.012-0.1-0.041-0.198-0.084-0.289c-0.012-0.025-0.024-0.049-0.038-0.072
				c-0.007-0.013-0.015-0.025-0.023-0.037c-0.008-0.012-0.016-0.021-0.035-0.033l-0.015-0.047c-0.055-0.17-0.109-0.339-0.164-0.509
				c-0.033-0.1-0.064-0.201-0.097-0.302c-0.192-0.533-0.424-1.028-0.778-1.471c0,0,0.41,0.274,0.845,1.3
				c0.025-0.063,0.05-0.125,0.075-0.188c0.039-0.101-0.705-1.653-0.997-2.11c-0.142-0.222-0.283-0.447-0.454-0.649
				c-0.174-0.205-0.377-0.381-0.565-0.572c-0.337-0.342-0.625-0.735-0.858-1.154c-0.234-0.42-0.411-0.87-0.524-1.338
				c-0.014-0.058-0.028-0.117-0.042-0.175c-0.003-0.015-0.015-0.02-0.026-0.018c-0.009-0.007-0.021-0.007-0.031-0.011
				c-0.394-1.407-1.106-4.232-1.051-6.062c0.052-1.752,0.154-3.502,0.183-5.255c0.021-1.256-0.092-2.512-0.359-3.74
				c-0.193-0.887-0.39-1.773-0.516-2.673c-0.274-1.97-0.106-5.818,0.181-6.725c0.031-0.156,0.057-0.316,0.095-0.466
				c0.038-0.15,0.082-0.298,0.132-0.442c0.057-0.152,0.113-0.282,0.161-0.396c0.095-0.241,0.164-0.473,0.21-0.688
				c0.089-0.408,0.129-0.91,0.043-1.44c-0.004-0.026-0.005-0.052-0.01-0.078c-0.104-0.553-0.37-1.137-0.756-1.634
				c-0.387-0.499-0.903-0.909-1.455-1.19c-0.552-0.283-1.136-0.435-1.663-0.488c0.528-0.045,1.152,0.031,1.76,0.273
				c0.15,0.059,0.299,0.128,0.444,0.206c0.008,0.004,0.016,0.009,0.024,0.014c0.436,0.238,0.845,0.559,1.179,0.948
				c0.282,0.33,0.503,0.702,0.667,1.087c0.097,0.229,0.18,0.462,0.229,0.697c0.02,0.098,0.029,0.192,0.041,0.288
				c0.949,0.182,1.919-0.018,1.919-0.018c-0.688-0.197-1.474-2.358-1.474-2.358c0.557,0.753,1.801,1.081,1.801,1.081
				c-0.613-0.6-0.916-1.134-1.127-1.637c-0.221-0.526-0.343-1.018-0.609-1.512c-0.333-0.335-0.697-0.622-0.965-0.835
				c-0.286-0.228-0.699-0.548-1.062-0.956c-0.024-0.026-0.043-0.056-0.065-0.082c-0.03-0.036-0.056-0.074-0.085-0.111
				c-0.239-0.309-0.418-0.661-0.48-0.987c-0.012-0.062-0.03-0.125-0.033-0.184c0.055,0.096,0.126,0.194,0.196,0.292
				c0.132,0.186,0.279,0.372,0.453,0.548c0.089,0.091,0.183,0.178,0.28,0.262c0.317,0.279,0.649,0.53,0.919,0.74
				c0.054,0.042,0.11,0.085,0.158,0.124c0.29,0.231,0.699,0.57,1.031,1.011c0.167,0.212,0.3,0.458,0.388,0.705
				c0.129,0.137,0.258,0.276,0.385,0.406c0.095-0.53-0.085-1.208-0.408-1.768c-0.321-0.563-0.746-1.019-1.06-1.317
				c-0.054-0.051-0.118-0.107-0.179-0.162c0.67,0.338,1.362,0.52,1.952,0.593c-0.453-0.482-1.102-0.941-1.644-1.425
				c-0.077-0.036-0.155-0.073-0.227-0.113c-0.416-0.23-0.775-0.527-1.016-0.757c-0.132-0.122-0.283-0.29-0.431-0.479
				c-0.018-0.023-0.036-0.041-0.053-0.065c-0.046-0.062-0.092-0.123-0.136-0.19c-0.014-0.021-0.026-0.044-0.039-0.065
				c-0.044-0.068-0.088-0.136-0.127-0.209c-0.04-0.071-0.075-0.148-0.107-0.225c-0.036-0.087-0.065-0.176-0.089-0.266
				c-0.063-0.235-0.082-0.473-0.032-0.674c0.014-0.055,0.032-0.109,0.056-0.158c0.012,0.165,0.061,0.332,0.13,0.498
				c0.005,0.011,0.011,0.022,0.016,0.034c0.03,0.071,0.063,0.141,0.101,0.21c0.076,0.138,0.173,0.267,0.267,0.396
				c0.171,0.235,0.354,0.457,0.529,0.637c-0.023-0.042-0.042-0.083-0.051-0.111c0.07,0.075,0.149,0.142,0.225,0.212
				c0.467,0.435,1.018,0.777,1.532,0.884c-0.162-0.273-0.342-0.561-0.525-0.854c-0.166-0.266-0.333-0.537-0.491-0.809
				c-0.079-0.134-0.542-0.902-0.542-0.902s0.986,0.336,1.223,0.299c-0.311-0.399-0.719-0.593-0.959-1.016
				c-0.055-0.097-0.116-0.191-0.168-0.289c-0.098-0.053-0.186-0.121-0.278-0.184c-0.208-0.144-0.404-0.302-0.557-0.486
				c-0.011-0.014-0.021-0.027-0.032-0.041c-0.195-0.24-0.338-0.484-0.443-0.699c-0.008-0.017-0.018-0.035-0.026-0.052
				c-0.011-0.023-0.021-0.051-0.032-0.075c-0.051-0.109-0.101-0.224-0.149-0.349c-0.011-0.027-0.021-0.058-0.032-0.086
				c-0.115-0.304-0.23-0.638-0.357-0.982c-0.039-0.107-0.078-0.213-0.121-0.32c-0.252-0.664-0.581-1.304-0.939-1.768
				c0.372,0.241,0.728,0.659,1.016,1.132c0.096,0.157,0.185,0.32,0.264,0.484c0.331,0.658,0.546,1.338,0.758,1.767
				c0.112,0.244,0.276,0.517,0.494,0.776c0.103,0.122,0.221,0.238,0.35,0.348c0.095,0.082,0.194,0.161,0.308,0.231
				c0.041,0.029,0.085,0.054,0.128,0.079c0.028,0.013,0.056,0.021,0.084,0.032c0.518,0.22,1.067,0.326,1.525,0.209
				c-0.422-0.276-0.742-0.648-1.043-1.059c-0.067-0.091-0.133-0.182-0.199-0.276c-0.065-0.097-0.126-0.202-0.19-0.302
				c-0.283-0.443-0.555-0.906-0.809-1.382c-0.311-0.584-0.598-1.176-0.858-1.73c-0.128-0.279-0.251-0.546-0.366-0.796
				c-0.039-0.092-0.165-0.337-0.258-0.491c-0.099-0.143-0.195-0.299-0.291-0.411c-0.749-0.953-2.041-1.923-3.608-2.346
				c-0.776-0.207-1.599-0.258-2.344-0.15c-0.684,0.083-3.035,0.764-3.874,1.606c-0.307,0.308-2.432,2.293-2.831,5.483
				c-0.399,3.19,0.376,6.23,1.739,7.148c1.972,0.833,3.798-0.418,3.798-0.418s-1.497,1.739-2.846,2.08
				c-0.215,0.054-1.958,0.224-3.196-0.46c-1.257-1.198-2.438-2.466-3.486-3.854c-0.537-0.711-1.016-1.462-1.498-2.212
				c-0.694-1.08-1.651-1.939-2.621-2.78c-0.074-0.064-0.145-0.144-0.214-0.227c0.054,0.457,0.069,0.928-0.011,1.301
				c-0.236-0.747-0.527-1.899-0.682-2.513c-0.593-1.36-1.037-3.161-1.596-4.061c-0.825-1.331-1.822-3.207-2.455-4.437
				c-0.04-0.086-0.099-0.199-0.166-0.324c-0.285-0.559-0.464-0.923-0.477-0.923c-0.029-0.065-0.055-0.126-0.072-0.177
				c-0.06-0.175-0.1-0.357-0.109-0.541c-0.01-0.201,0.022-0.401,0.049-0.601c0.025-0.189,0.04-0.378,0.022-0.568
				c-0.017-0.177-0.057-0.352-0.111-0.522c-0.081-0.254-0.19-0.498-0.299-0.743l37.42-2.858l1.13-0.075l1.103-0.073l0.809-0.054
				l0.709-0.047c0,0,0.187-0.012,0.365-0.024l-0.31,0.135c0.593,1.22,1.19,2.437,1.79,3.654c1.418,2.878,2.839,5.755,4.258,8.632
				c1.688,3.424,5.314,10.763,5.314,10.763s-6.922-0.222-9.964-0.312c-2.291-0.068-4.582-0.122-6.873-0.187
				c-1.625-0.046-3.25-0.095-4.874-0.144c0.083,0.134,0.169,0.271,0.245,0.4l0.684,1.314l1.259,2.011l-1.501-0.376
				c0.294,0.658,0.557,1.566,0.454,2.144l-0.155,0.86c0.139,0.196,0.312,0.399,0.533,0.615l0.224,0.219
				c0.522,0.28,1.063,0.536,1.627,0.76c0.512,0.203,0.516,0.191,0.433,0.72c-0.024,0.153-0.044,0.309-0.043,0.463
				c0,0.013,0.004,0.021,0.004,0.034l0.006,0.006l-0.006-0.001c0.014,0.366,0.175,0.514,0.568,0.525
				c1.981,0.056,3.962,0.11,5.943,0.169c1.074,0.032,2.149,0.05,3.221,0.115c0.667,0.041,0.922-0.27,0.809-0.831
				c-0.017-0.081-0.001-0.169-0.019-0.25c-0.084-0.371,0.097-0.54,0.436-0.629c0.753-0.199,1.468-0.504,2.157-0.862
				c2.203-1.145,3.993-2.696,4.89-5.092c0.113-0.301,0.238-0.461,0.581-0.43c0.258,0.023,0.463-0.095,0.521-0.382
				C153.423,58.36,153.45,58.03,153.118,57.885z M89.476,63.333c0.427,0.004,0.895,0.009,1.397,0.014
				c-0.084,0.253-0.244,0.561-0.391,0.855l-0.161,0.283l-0.145,0.236c-0.4,0.629-0.908,1.26-1.502,1.819
				c-0.593,0.559-1.277,1.036-1.98,1.373c-0.704,0.342-1.431,0.503-2.058,0.586c0.598-0.222,1.263-0.483,1.894-0.886
				c0.63-0.398,1.235-0.897,1.762-1.456c0.528-0.559,0.984-1.171,1.345-1.77l0.131-0.224l0.095-0.174l-0.003-0.005
				c-0.136,0.002-0.263,0.004-0.379,0.005c-2.22,0.026-6.203-0.082-8.701-0.608C84.67,63.36,87.576,63.343,89.476,63.333z
				 M124.763,51.065c0.097,0.074,0.191,0.153,0.278,0.242c0.291,0.29,0.498,0.642,0.614,0.906c0.127,0.263,0.213,0.664,0.297,1.013
				c0.088,0.35,0.246,0.677,0.511,0.871c-0.121,0.001-0.245-0.046-0.362-0.121c-0.214-0.138-0.402-0.375-0.501-0.623
				c-0.164-0.386-0.249-0.728-0.361-0.957c-0.103-0.233-0.27-0.548-0.485-0.849c-0.212-0.304-0.469-0.592-0.678-0.841
				C124.297,50.765,124.539,50.894,124.763,51.065z M120.671,134.372c0.404-0.208,0.692-0.043,0.682,0.409
				c-0.011,0.513-0.058,1.024-0.092,1.536c-0.031,0.463-0.058,1.287-0.068,1.609c-0.74-0.02-1.063-0.037-1.833-0.051
				c-0.535,0.412-1.317,0.874-2.281,0.874c0.338-0.098,0.65-0.295,0.929-0.536c0.126-0.109,0.245-0.227,0.356-0.348
				c0.613-0.667,0.992-1.44,0.992-1.44l-0.001,0.004C119.827,135.504,120.385,134.52,120.671,134.372z M118.695,115.225
				c0.827-0.851,1.512-1.785,1.962-2.482c0.45-0.698,1.013-1.711,1.491-2.802c0.485-1.088,0.882-2.249,1.2-3.16
				c-0.127,0.956-0.421,2.167-0.855,3.301c-0.427,1.137-0.992,2.189-1.455,2.907c-0.463,0.717-1.186,1.674-2.083,2.503
				c-0.888,0.838-1.954,1.512-2.839,1.894C116.907,116.832,117.876,116.085,118.695,115.225z M114.172,135.519
				c0.685-0.624,0.975-1.237,0.975-1.237s0.296-1.12,0.42-1.504c0.37-1.142,0.372-2.445-0.704-3.289
				c-0.276-0.216-0.398-3.429-0.447-5.572c1.499,0.19,2.092,0.002,2.092,0.002s0.726-0.37,1.327-0.441c0,0-0.728,0.355-1.223,0.751
				c0.305,0.927,1.188,3.725,1.193,5.079c0.003,0.78-0.463,2.745-1.68,4.403l0.002,0.003c0,0-0.492,0.696-1.158,1.27
				c-0.257,0.222-0.538,0.427-0.83,0.564C114.137,135.55,114.158,135.531,114.172,135.519z M112.733,134.559
				c0.404-0.208,0.692-0.043,0.682,0.409c-0.003,0.155-0.02,0.52-0.041,0.951c-0.042,0.017-0.08,0.039-0.123,0.055
				c-0.511,0.193-0.866,0.486-0.916,1.066c-0.025,0.293,0.012,0.563,0.202,0.792c-0.608,0.003-0.748,0.007-1.344,0.014
				c-0.947,0.904-2.141,0.904-2.141,0.904s0.211-0.09,0.508-0.305c0.258-0.187,0.48-0.393,0.667-0.594
				c0.337-0.363,0.544-0.674,0.567-0.71c0.061-0.104,0.125-0.214,0.198-0.348C111.688,135.523,112.315,134.774,112.733,134.559z
				 M151.236,59.479l-0.161,0.283l-0.145,0.236c-0.4,0.629-0.908,1.26-1.502,1.819c-0.593,0.559-1.277,1.036-1.98,1.373
				c-0.704,0.342-1.431,0.503-2.058,0.586c0.598-0.222,1.263-0.483,1.894-0.886c0.631-0.398,1.235-0.897,1.762-1.456
				c0.528-0.559,0.984-1.171,1.345-1.77l0.131-0.224l0.095-0.174l-0.003-0.005c-0.136,0.002-0.263,0.004-0.379,0.005
				c-2.22,0.026-6.203-0.082-8.701-0.608c3.891-0.022,6.797-0.038,8.697-0.049c0.427,0.004,0.895,0.009,1.397,0.014
				C151.543,58.877,151.383,59.185,151.236,59.479z"/>
		</g>
	</g>
	<g>
		<path class="st2" d="M37.995,155.447l2.333-4.396c0.27-0.597,0.54-1.696-0.964-1.696l0.771-1.6h7.673l0.771,1.6
			c-1.504,0-1.253,1.041-0.983,1.639l2.352,4.453c0.366,0.597,1.214,1.619,2.506,1.619l-0.771,1.619h-5.687l-0.771-1.619
			c1.388,0,1.215-0.983,0.983-1.581H40.27c-0.251,0.597-0.424,1.581,0.983,1.581l-0.771,1.619h-4.222l-0.771-1.619
			C36.781,157.066,37.629,156.044,37.995,155.447z M45.379,153.865l-2.14-4.029l-2.14,4.029H45.379z"/>
		<path class="st1" d="M57.675,155.138v-5.764h-2.757c-0.887,0-1.754,0.251-2.275,1.022l-1.542-0.771l0.81-2.063
			c0,0,0.713,0.193,2.834,0.193h9.273c2.101,0,2.815-0.193,2.815-0.193l0.81,2.063l-1.542,0.771
			c-0.52-0.771-1.369-1.022-2.256-1.022h-2.622v5.764c0,0.598,0.27,1.928,1.735,1.928l-0.771,1.619h-5.475l-0.771-1.619
			C57.405,157.066,57.675,155.736,57.675,155.138z"/>
		<path class="st0" d="M79.781,155.138v-3.836c0-0.617-0.27-1.947-1.735-1.947l0.771-1.6h5.456l0.771,1.6
			c-1.465,0-1.735,1.33-1.735,1.947v3.836c0,0.598,0.27,1.928,1.735,1.928l-0.771,1.619h-5.456l-0.771-1.619
			C79.511,157.066,79.781,155.736,79.781,155.138z"/>
		<path class="st1" d="M88.744,155.138v-3.836c-0.039-0.617-0.27-1.947-1.735-1.947l0.771-1.6h4.955l8.54,6.477v-2.93
			c-0.038-0.617-0.269-1.947-1.735-1.947l0.771-1.6h3.933l0.771,1.6c-1.465,0-1.697,1.33-1.735,1.947v3.836
			c0.038,0.617,0.27,1.947,1.735,1.947l-0.771,1.6h-3.297l-10.198-8.039v4.492c0.039,0.617,0.27,1.947,1.735,1.947l-0.771,1.6H87.78
			l-0.771-1.6C88.474,157.085,88.705,155.755,88.744,155.138z"/>
		<path class="st0" d="M108.769,155.022v-3.759c-0.039-0.636-0.289-1.908-1.735-1.908l0.771-1.6h6.439
			c5.513,0,10.082,0.964,10.082,5.456c0,4.511-4.569,5.475-10.082,5.475h-6.439l-0.829-1.6
			C108.556,157.085,108.749,155.581,108.769,155.022z M114.244,157.085c3.855,0,5.899-0.655,5.899-3.875
			c0-3.2-2.044-3.855-5.899-3.855h-1.928v7.73H114.244z"/>
		<path class="st1" d="M127.503,155.138v-3.836c0-0.617-0.27-1.947-1.735-1.947l0.772-1.6h5.456l0.771,1.6
			c-1.465,0-1.735,1.33-1.735,1.947v3.836c0,0.598,0.27,1.928,1.735,1.928l-0.771,1.619h-5.456l-0.772-1.619
			C127.233,157.066,127.503,155.736,127.503,155.138z"/>
		<path class="st2" d="M136.812,155.447l2.333-4.396c0.27-0.597,0.54-1.696-0.964-1.696l0.771-1.6h7.673l0.771,1.6
			c-1.504,0-1.253,1.041-0.983,1.639l2.352,4.453c0.366,0.597,1.215,1.619,2.506,1.619l-0.771,1.619h-5.687l-0.771-1.619
			c1.388,0,1.214-0.983,0.983-1.581h-5.938c-0.251,0.597-0.424,1.581,0.983,1.581l-0.771,1.619h-4.222l-0.771-1.619
			C135.598,157.066,136.446,156.044,136.812,155.447z M144.195,153.865l-2.139-4.029l-2.14,4.029H144.195z"/>
		<path class="st0" d="M154.737,155.138v-3.836c-0.039-0.617-0.27-1.947-1.735-1.947l0.772-1.6h4.954l8.54,6.477v-2.93
			c-0.038-0.617-0.269-1.947-1.735-1.947l0.771-1.6h3.933l0.771,1.6c-1.465,0-1.697,1.33-1.735,1.947v3.836
			c0.038,0.617,0.27,1.947,1.735,1.947l-0.771,1.6h-3.297l-10.198-8.039v4.492c0.038,0.617,0.27,1.947,1.735,1.947l-0.771,1.6
			h-3.932l-0.772-1.6C154.467,157.085,154.698,155.755,154.737,155.138z"/>
		<path class="st1" d="M175.052,155.447l2.333-4.396c0.27-0.597,0.54-1.696-0.964-1.696l0.771-1.6h7.673l0.771,1.6
			c-1.504,0-1.253,1.041-0.983,1.639l2.352,4.453c0.366,0.597,1.215,1.619,2.506,1.619l-0.771,1.619h-5.687l-0.771-1.619
			c1.388,0,1.214-0.983,0.983-1.581h-5.938c-0.251,0.597-0.424,1.581,0.983,1.581l-0.771,1.619h-4.222l-0.771-1.619
			C173.837,157.066,174.685,156.044,175.052,155.447z M182.435,153.865l-2.139-4.029l-2.14,4.029H182.435z"/>
		<path class="st0" d="M32.753,172.775v-2.179c-0.019-0.501-0.193-2.082-1.754-2.082l0.771-1.6h5.456l0.771,1.6
			c-1.446,0-1.697,1.272-1.735,1.909v2.718c0,2.448,1.735,3.277,3.971,3.277c2.256,0,3.971-0.829,3.971-3.277v-2.545
			c-0.019-0.52-0.193-2.082-1.716-2.082l0.752-1.6h5.437l0.771,1.6c-1.427,0-1.677,1.253-1.716,1.889v2.371
			c0,4.029-3.142,5.359-7.499,5.359C35.818,178.134,32.753,176.804,32.753,172.775z"/>
		<path class="st2" d="M52.913,174.317v-3.836c-0.039-0.617-0.27-1.947-1.735-1.947l0.771-1.6h4.955l8.54,6.477v-2.93
			c-0.039-0.617-0.27-1.947-1.735-1.947l0.771-1.6h3.933l0.771,1.6c-1.465,0-1.696,1.33-1.735,1.947v3.836
			c0.039,0.617,0.27,1.947,1.735,1.947l-0.771,1.6h-3.297l-10.198-8.039v4.492c0.039,0.617,0.27,1.947,1.735,1.947l-0.771,1.6H51.95
			l-0.771-1.6C52.643,176.264,52.875,174.934,52.913,174.317z"/>
		<path class="st1" d="M72.881,174.317v-3.836c0-0.617-0.27-1.947-1.735-1.947l0.771-1.6h5.456l0.771,1.6
			c-1.465,0-1.735,1.33-1.735,1.947v3.836c0,0.598,0.27,1.928,1.735,1.928l-0.771,1.619h-5.456l-0.771-1.619
			C72.611,176.245,72.881,174.915,72.881,174.317z"/>
		<path class="st0" d="M83.675,176.245c1.465,0,1.273-0.983,1.021-1.6l-2.255-4.357c-0.347-0.578-1.195-1.735-2.564-1.735
			l0.752-1.619h5.687l0.771,1.619c-1.619,0-1.06,1.465-0.848,1.909l2.757,5.282l2.776-5.302c0.212-0.463,0.79-1.889-0.867-1.889
			c0.617-1.272,0.328-0.675,0.771-1.619h4.222l0.752,1.619c-1.311,0-2.102,1.022-2.468,1.62l-0.232,0.443l-2.159,4.106
			c-0.231,0.617-0.328,1.523,1.06,1.523l-0.771,1.619h-7.615C84.465,177.864,84.176,177.247,83.675,176.245z"/>
		<path class="st2" d="M110.39,177.864H99.151l-0.772-1.6c1.446,0,1.735-1.272,1.735-1.908v-3.914c0-0.636-0.289-1.908-1.735-1.908
			l0.772-1.6h10.603c2.14,0,2.834-0.193,2.834-0.193l0.849,2.063l-1.543,0.771c-0.559-0.81-1.504-1.041-2.448-1.041h-5.803v2.776
			h2.892c0.385,0,1.542-0.135,1.542-1.157l1.677,0.848v2.217l-1.677,0.848c0-1.022-1.157-1.157-1.542-1.157h-2.892v3.354h5.147
			c1.292,0,3.027-0.135,3.855-1.793l1.562,0.752l-0.926,2.834C113.281,178.057,112.472,177.864,110.39,177.864z"/>
		<path class="st1" d="M117.481,174.317v-3.836c0-0.598-0.27-1.928-1.735-1.928l0.772-1.619h10.005c5.687,0,5.552,3.393,5.552,3.393
			s0.077,2.063-2.545,2.988l1.022,1.909c0.405,0.52,1.099,1.041,2.198,1.041l-0.771,1.6h-5.687l-0.772-1.6
			c1.562,0,1.253-1.156,0.945-1.716l-0.424-0.809h-5.013v0.578c0,0.617,0.27,1.947,1.735,1.947l-0.772,1.6h-5.474l-0.772-1.6
			C117.211,176.264,117.481,174.934,117.481,174.317z M125.905,172.119c0,0,2.005,0,2.005-1.793s-2.005-1.774-2.005-1.774h-4.878
			v3.566H125.905z"/>
		<path class="st0" d="M137.449,177.44c-1.176-0.328-1.504,0.463-1.504,0.463l-1.427-0.79v-2.044l1.427-0.675
			c0,0,1.696,2.043,5.552,2.043c0,0,3.547,0.154,3.547-1.388c0-1.118-2.429-1.215-4.588-1.523c-2.429-0.366-5.977-0.694-5.977-3.508
			c0-2.468,3.47-3.277,6.458-3.277c1.369,0,2.988,0.193,4.164,0.482c0.636,0.154,1.022-0.27,1.022-0.27l1.369,0.732v1.581
			l-1.369,0.675c0,0-1.118-1.6-5.186-1.6c0,0-3.335-0.039-3.335,1.041c0,0.848,2.294,1.003,4.376,1.33
			c2.314,0.366,6.419,0.617,6.419,3.817c0,2.699-3.663,3.528-6.901,3.528C140.34,178.057,138.624,177.768,137.449,177.44z"/>
		<path class="st1" d="M151.962,174.317v-3.836c0-0.617-0.27-1.947-1.735-1.947l0.772-1.6h5.456l0.771,1.6
			c-1.465,0-1.735,1.33-1.735,1.947v3.836c0,0.598,0.27,1.928,1.735,1.928l-0.771,1.619h-5.456l-0.772-1.619
			C151.692,176.245,151.962,174.915,151.962,174.317z"/>
		<path class="st2" d="M165.435,174.317v-5.764h-2.757c-0.887,0-1.754,0.251-2.275,1.022l-1.543-0.771l0.81-2.063
			c0,0,0.713,0.193,2.834,0.193h9.273c2.101,0,2.815-0.193,2.815-0.193l0.81,2.063l-1.543,0.771
			c-0.52-0.771-1.368-1.022-2.255-1.022h-2.622v5.764c0,0.598,0.27,1.928,1.735,1.928l-0.771,1.619h-5.475l-0.772-1.619
			C165.165,176.245,165.435,174.915,165.435,174.317z"/>
		<path class="st1" d="M183.9,174.298v-1.619l-2.487-2.391c-0.656-0.578-2.217-1.735-4.28-1.735l0.772-1.619h6.824l0.79,1.619
			c-1.484,0-0.694,0.983-0.212,1.465l1.156,1.08l1.022-0.964c0.482-0.482,1.407-1.581-0.096-1.581l0.771-1.619h5.07l0.771,1.619
			c-2.024,0-3.663,1.292-4.261,1.832l-2.294,2.294v1.619c0.039,0.617,0.27,1.947,1.735,1.947l-0.772,1.619h-5.474l-0.772-1.619
			C183.63,176.245,183.861,174.915,183.9,174.298z"/>
	</g>
</g>
</svg>
