<?xml version="1.0" encoding="UTF-8"?>
<svg id="Layer_1" data-name="Layer 1" xmlns="http://www.w3.org/2000/svg" width="183.457" height="200.488" viewBox="0 0 183.457 200.488">
  <g>
    <path d="m13.059,50.113c-1.863,2.485-2.754,4.299.7,6.356l13.854,8.238c1.644.864,1.42,3.129-.569,3.642-2.482.61-7.529,1.818-11.445,2.724l10.082,6c1.644.865,1.427,3.086-.562,3.6-4.027,1.063-18.152,4.28-20.001,4.729.396,2.188,2.635,3.405,4.512,2.223,3.032-1.913,5.786.73,5.277,3.991-.847,5.421-12.833,4.113-10.974-7.788l1.091-6.988c.066-.423.588-.429.881-.079.942,1.188,1.929,1.256,3.547.901.176-.016,7.144-1.574,10.969-2.452l-6.438-3.782-3.691.855c-1.617.355-2.644.542-4.043,2.275-.431.54-.9.206-.834-.217l1.541-9.868c.027-.17.124-.241.223-.313.134-.023.267-.045.381.06.085.013.199.118.27.216.942,1.188,1.93,1.256,3.554.859.176-.016,7.144-1.574,10.969-2.452l-8.791-5.104c-4.218-2.437-7.64-4.968-7.111-8.356.78-4.998,8.48-1.799,6.61.729Z" fill="#5d9380"/>
    <path d="m31.413,43.036c3.848,2.074,5.171,7.12,2.934,11.27-2.257,4.189-7.199,5.859-11.047,3.785-3.849-2.074-5.171-7.12-2.914-11.308,2.237-4.15,7.178-5.821,11.027-3.747Zm-2.888,5.358c-3.282-1.769-6.453-2.211-7.083-1.041-.65,1.207,1.462,3.612,4.745,5.381,3.245,1.749,6.453,2.211,7.104,1.004.63-1.17-1.52-3.594-4.765-5.343Z" fill="#ca813c"/>
    <path d="m58.904,26.228l-6.522,5.499c-.688.58-1.097.028-1.019-.543.495-3.669-7.141-10.255-9.143-8.38-.781.733-.241,2.752.961,4.975.504.35.946.758,1.386,1.228l1.934,2.065c1.085,1.157,1.918,1.669,3.774,1.457.547-.043.803.481.49.774l-6.225,5.833c-.657.615-1.094.086-1.046-.489.303-3.691-7.093-10.391-9.126-8.486-.626.586.132,2.461,1.043,4.31,2.976,3.615,5.608,5.704,7.083,5.425.571-.117,1.109.375.502,1.039l-5.638,6.172c-.289.317-.816.067-.78-.48.189-1.86-.754-3.378-1.839-4.536l-2.462-2.627c-1.085-1.157-1.917-1.669-3.803-1.488-.548.043-.775-.45-.462-.743,3.003-2.814,2.349-6.02,3.303-7.384.54-.741.696.053,1.014.518l.783,1.087c-.343-1.558-.325-3.043.707-4.011,1.971-1.846,4.798-2.028,7.428-.85-.905-2.031-1.453-4.748.298-6.39,2.878-2.697,7.522-1.879,10.746,1.563l1.935,2.065c1.084,1.157,2.362,1.713,4.194,1.625.582-.042.81.495.482.771Z" fill="#5d9380"/>
    <path d="m70.919,17.136c-.269,2.886-2.184,5.656-5.203,6.992-4.351,1.927-9.281.218-11.051-3.78-1.77-3.998.238-8.779,4.943-10.862,3.057-1.354,7.27-.735,8.416,1.852,1.128,2.548-.46,5.736-3.518,7.09-1.019.452-2.025.615-3.004.627.965,1.12,2.313,1.836,4.09,1.612,1.624-.25,3.789-1.819,4.245-3.755.166-.683,1.127-.312,1.083.223Zm-11.293-1.892c.92,2.078,2.473,2.937,3.414,2.521,1.058-.469,1.091-2.405.241-4.326-.868-1.96-2.324-3.237-3.383-2.769-.627.278-1.382,2.066-.271,4.575Z" fill="#bb8a74"/>
    <path d="m92.557,18.478l-8.514.54c-.898.057-.899-.63-.496-1.042,2.581-2.655-.031-12.654-2.968-12.305-.851.101-1.551,1.479-2.083,3.183.174,5.462,1.099,8.72,2.525,9.489.52.264.635.983-.253,1.126l-8.254,1.325c-.424.068-.681-.455-.312-.862,1.305-1.338,1.492-2.436,1.305-4.011l-.425-3.576c-.187-1.575-.553-2.481-2.179-3.454-.467-.29-.356-.821.069-.871,4.087-.485,5.461-3.454,7.039-3.987.874-.276.529.456.509,1.019l-.022.909c.72-1.208,1.72-2.233,3.083-2.395,4.598-.546,7.979,2.852,8.535,7.534l.334,2.81c.187,1.575.653,2.642,2.221,3.659.449.315.314.882-.114.909Z" fill="#ca813c"/>
    <path d="m102.35,19.434c-.412-.119-.422-.702.085-.913,1.751-.654,2.26-.944,2.701-2.467l1.001-3.459c.441-1.524.456-2.501-.664-4.03-.316-.449-.009-.895.403-.776,3.089.893,5.253-.266,6.863-.738,1.68-.718,2.587-2.465,2.326-3.879-.133-.619-.409-1.055-.884-1.416.216.642.136,1.378-.255,2.113-.847,1.54-2.887,2.422-4.576,1.934-1.647-.477-2.324-2.145-1.478-3.685.658-1.194,1.956-1.978,3.322-2.074,3.269-.349,4.765,1.423,5.043,2.931.266,1.55-.458,3.438-1.999,4.599l-.255.417c-3.232,7.009-4.084,11.261-2.894,12.855.358.461.156,1.161-.709.911l-8.031-2.323Z" fill="#5d9380"/>
    <path d="m129.527,32.428l-7.336-4.352c-.774-.459-.387-1.028.178-1.141,3.628-.738,7.829-10.257,5.285-11.765-.737-.438-2.131.231-3.588,1.26-3.182,4.441-4.438,7.733-3.834,9.237.23.535-.142,1.162-.915.703l-7.189-4.264c-.369-.219-.231-.785.312-.861,1.859-.193,2.561-.873,3.37-2.237l1.837-3.097c.809-1.364,1.069-2.306.369-4.067-.194-.514.216-.868.585-.65,3.539,2.099,6.435.578,8.011,1.114.861.312.143.683-.215,1.118l-.57.708c1.306-.521,2.723-.727,3.903-.027,3.981,2.362,4.6,7.115,2.195,11.17l-1.443,2.433c-.809,1.364-1.069,2.306-.348,4.03.194.514-.238.905-.607.687Z" fill="#bb8a74"/>
    <path d="m152.386,51.004c-.239.181-3.13,1.617-4.13,2.214-.735.449-1.19.417-1.656-.198l-9.651-12.747c-.259-.342.082-.815.64-.646,1.768.489,2.701.16,3.966-.798l12.849-9.729c-1.837-2.426-5.229-1.794-5.766.764-.729,3.51-4.544,3.656-6.536,1.024-3.312-4.374,5.955-12.09,13.225-2.487l4.399,5.809c.569.752-.003,1.132-.535.997-1.974-.549-6.529,2.739-8.921,4.55-2.29,1.734-6.484,5.071-6.8,7.138l.828,1.094c1.605,2.119,5.815,2.211,7.709,2.228.549.015.757.502.381.787Z" fill="#5d9380"/>
    <path d="m152.628,71.316l-1.451-4.125c-.768-2.183.875-3.715.875-3.715-1.486-.477-2.766-1.663-3.335-3.28-.953-2.709.408-5.687,3.036-6.611,2.628-.924,5.553.546,6.506,3.255.569,1.618.313,3.343-.547,4.646l1.213-.427c2.345-.825,4.701-2.653,4.189-4.109-.213-.606-1.183-.265-2.064.59-1.683,1.546-4.625-4.235-2.279-5.06,1.739-.612,4.309.756,5.617,4.476,1.522,4.326-.318,8.654-4.685,10.19l-3.315,1.166c-1.496.526-2.3,1.082-2.854,2.867-.182.518-.75.582-.906.137Zm2.197-8.997c1.415-.498,2.275-1.8,1.877-2.932-.383-1.092-1.869-1.569-3.284-1.071s-2.275,1.8-1.892,2.892c.398,1.132,1.884,1.609,3.299,1.111Z" fill="#ca813c"/>
    <path d="m170.365,95.095c-.996-1.412-2.236-1.767-3.86-2.086l-9.969-2.019c-.881-.217-1.644-.532-1.733-1.471l-.269-2.817c-.126-1.323.342-1.841,1.457-2.335l5.551-2.296.914-.346-6.942-1.447c-.878-.175-1.64-.489-1.73-1.428l-.269-2.817c-.126-1.323.337-1.884,1.457-2.335,1.077-.447,4.278-1.657,7.702-3.233,9.741-4.418,12.397-6.825,12.25-8.362-.159-1.664-3.991-.308-5.069-3.478-1.786-5.17,3.453-6.23,5.301-2.659,3.798,7.303-.681,15.87-12.985,20.964-2.151.938-4.938,2.409-5.101,2.511,0,0,5.291.83,8.841.577,1.591-.927,2.251-1.679,2.605-2.488.292-.545.993-.87,1.079.026l.88,9.218c.041.427-.442.775-.855.512-2.878-2.18-11.166,2.574-11.53,2.823,0,0,9.966,1.546,11.775-.263.356-.336.88-.256.936.341l.469,4.908c.049.512-.51.522-.905,0Z" fill="#bb8a74"/>
  </g>
  <path d="m52.77,98.35c-8.503-.5-9.81-1.807-10.31-10.31-.013-.221-.337-.221-.35,0-.5,8.503-1.807,9.81-10.31,10.31-.221.013-.221.337,0,.35,8.503.5,9.81,1.807,10.31,10.31.013.221.337.221.35,0,.5-8.503,1.807-9.81,10.31-10.31.221-.013.221-.337,0-.35Z" fill="#bb8a74"/>
  <path d="m32.294,145.477c-7.217-.424-8.327-1.534-8.751-8.751-.011-.187-.286-.187-.297,0-.424,7.217-1.534,8.327-8.751,8.751-.187.011-.187.286,0,.297,7.217.424,8.327,1.534,8.751,8.751.011.187.286.187.297,0,.424-7.217,1.534-8.327,8.751-8.751.187-.011.187-.286,0-.297Z" fill="#5d9380"/>
  <path d="m25.184,111.816c-4.745-.279-5.474-1.008-5.753-5.753-.007-.123-.188-.123-.195,0-.279,4.745-1.008,5.474-5.753,5.753-.123.007-.123.188,0,.195,4.745.279,5.474,1.008,5.753,5.753.007.123.188.123.195,0,.279-4.745,1.008-5.474,5.753-5.753.123-.007.123-.188,0-.195Z" fill="#ca813c"/>
  <path d="m51.285,130.615c-4.745-.279-5.474-1.008-5.753-5.753-.007-.123-.188-.123-.195,0-.279,4.745-1.008,5.474-5.753,5.753-.123.007-.123.188,0,.195,4.745.279,5.474,1.008,5.753,5.753.007.123.188.123.195,0,.279-4.745,1.008-5.474,5.753-5.753.123-.007.123-.188,0-.195Z" fill="#ca813c"/>
  <path d="m174.585,141.153c-8.705-.496-9.987-1.778-10.483-10.483-.012-.209-.319-.209-.331,0-.496,8.705-1.778,9.987-10.483,10.483-.209.012-.209.319,0,.331,8.705.496,9.987,1.778,10.483,10.483.012.209.319.209.331,0,.496-8.705,1.778-9.987,10.483-10.483.209-.012.209-.319,0-.331Z" fill="#5d9380"/>
  <path d="m152.722,106.526c-8.705-.496-9.987-1.778-10.483-10.483-.012-.209-.319-.209-.331,0-.496,8.705-1.778,9.987-10.483,10.483-.209.012-.209.319,0,.331,8.705.496,9.987,1.778,10.483,10.483.012.209.319.209.331,0,.496-8.705,1.778-9.987,10.483-10.483.209-.012.209-.319,0-.331Z" fill="#5d9380"/>
  <path d="m130.831,89.709c-3.819-.218-4.381-.78-4.599-4.599-.005-.092-.14-.092-.145,0-.218,3.819-.78,4.381-4.599,4.599-.092.005-.092.14,0,.145,3.819.218,4.381.78,4.599,4.599.005.092.14.092.145,0,.218-3.819.78-4.381,4.599-4.599.092-.005.092-.14,0-.145Z" fill="#bb8a74"/>
  <path d="m136.652,129.908c-6.262-.357-7.184-1.279-7.541-7.541-.009-.151-.229-.151-.238,0-.357,6.262-1.279,7.184-7.541,7.541-.151.009-.151.229,0,.238,6.262.357,7.184,1.279,7.541,7.541.009.151.229.151.238,0,.357-6.262,1.279-7.184,7.541-7.541.151-.009.151-.229,0-.238Z" fill="#bb8a74"/>
  <path d="m169.95,114.008c-3.538-.202-4.059-.723-4.26-4.26-.005-.085-.13-.085-.134,0-.202,3.538-.723,4.059-4.26,4.26-.085.005-.085.13,0,.134,3.538.202,4.059.723,4.26,4.26.005.085.13.085.134,0,.202-3.538.723-4.059,4.26-4.26.085-.005.085-.13,0-.134Z" fill="#ca813c"/>
  <path d="m145.348,150.514c-3.538-.202-4.059-.723-4.26-4.26-.005-.085-.13-.085-.134,0-.202,3.538-.723,4.059-4.26,4.26-.085.005-.085.13,0,.134,3.538.202,4.059.723,4.26,4.26.005.085.13.085.134,0,.202-3.538.723-4.059,4.26-4.26.085-.005.085-.13,0-.134Z" fill="#ca813c"/>
  <path d="m67.724,110.334c-3.538-.202-4.059-.723-4.26-4.26-.005-.085-.13-.085-.134,0-.202,3.538-.723,4.059-4.26,4.26-.085.005-.085.13,0,.134,3.538.202,4.059.723,4.26,4.26.005.085.13.085.134,0,.202-3.538.723-4.059,4.26-4.26.085-.005.085-.13,0-.134Z" fill="#5d9380"/>
  <path d="m65.084,147.511c-3.538-.202-4.059-.723-4.26-4.26-.005-.085-.13-.085-.134,0-.202,3.538-.723,4.059-4.26,4.26-.085.005-.085.13,0,.134,3.538.202,4.059.723,4.26,4.26.005.085.13.085.134,0,.202-3.538.723-4.059,4.26-4.26.085-.005.085-.13,0-.134Z" fill="#bb8a74"/>
  <g>
    <path d="m72.515,40.782l-.006-.005h0s.001,0,.001,0c0,0,0,0,0,0-.022-.025-.044-.052-.065-.077.063-.093.136-.177.243-.243.111-.069.223-.138.323-.22.103-.084.27-.287.27-.287,0,0,.149-.214.2-.331.1-.226.001-.497-.056-.525.028-.034.057-.066.082-.102.008-.011,0-.028-.013-.031-.143-.027-.264.051-.377.123-.069.044-.139.088-.208.133-.053.034-.106.07-.15.114-.049.049-.087.108-.093.176,0,.009.011.011.018.017-.091.067-.222.162-.346.25,0,0,0,0,0,0-.103.18-.221.321-.241.344-.002.002-.008.009-.008.009-.008.024-.012.046-.015.067,0,.004-.002.009-.003.013-.01.082.007.142.007.142l-.063-.217.211-.278.024-.032c.049-.07.102-.138.154-.204.079-.1.16-.199.225-.307.066-.111.117-.23.151-.353.033-.122.05-.247.05-.372,0-.063-.005-.126-.014-.189-.009-.063-.021-.127-.054-.183-.034-.058-.095-.095-.159-.103.014-.04.029-.08.04-.121.003-.013-.009-.027-.024-.025-.144.019-.231.13-.311.233-.049.063-.099.126-.148.19-.037.049-.074.099-.1.153-.029.061-.043.128-.024.194.003.009.015.007.023.011-.131.195-.262.391-.401.582-.02.027-.039.053-.059.079l-.61,1.251c-.009.027-.015.054-.024.082l1.578.07-.031-.026Z" fill="#ca813c"/>
    <path d="m122.606,39.306l-.961.174c-1.186,2.104-6.983,12.386-10.726,19.02.144.239.286.464.426.675,1.577-2.785,3.153-5.571,4.73-8.356,2.151-3.798,4.302-7.595,6.456-11.391.024-.041.051-.081.075-.122Z" fill="#ca813c"/>
    <path d="m137.444,65.149c-.285-.125-.34-.101-.34-.101,0,0-.546-1.25-.736-1.636-1.749-3.556-3.499-7.111-5.251-10.665-1.182-2.397-2.368-4.793-3.549-7.19-1.06-2.153-2.189-4.451-3.248-6.61.119-.008.258-.013.286-.158.029-.149-.088-.317-.16-.442-.059-.103-.122-.203-.191-.299-.134-.184-.293-.347-.484-.472-.53-.345-1.215-.362-1.825-.329-.04.002-.081.004-.121.008l-2.299.176c-10.714.81-42.489,3.199-42.489,3.199l-.49.035c-.044-.13-.086-.261-.136-.389-.082-.212-.174-.421-.29-.631-.024-.064-.046-.129-.076-.191-.027-.055-.059-.108-.115-.141-.046-.027-.103-.04-.157-.035-.111.01-.232.107-.192.231,0,.013.002.027.002.04-.107.121-.134.298-.141.447-.004.091,0,.181.01.27.018.158.056.314.103.479.11.309.388,1.158.375,1.853-.002.14-.016.274-.045.395,0,0-.039-.155-.102-.384-.047-.172-.109-.385-.18-.612-.137-.438-.307-.921-.476-1.233l-1.116.079c.038-.044.075-.09.094-.144.02-.056.009-.114-.024-.157.036-.017.073-.032.108-.051.011-.006.013-.022.003-.029-.1-.073-.23-.056-.348-.04-.073.01-.147.019-.22.03-.056.008-.113.017-.166.036-.06.021-.114.054-.142.125-.204.041-.529.088-.705.129-.006.014-.003.038.01.069,0,0,1.146.051,1.143.051,0,0-1.045.079-1.057.08,0,0-16.292,1.239-17.658,1.332-.425.029-.804.263-1.024.627-.148.245-.332.494-.404.775-.013.05-.022.085.01.124.047.057.223.113.223.113l.409.126c-2.023,3.489-14.676,25.285-14.676,25.285,0,0-.14-.02-.306.039-.363.128-.51.47-.416.884.073.321.273.501.598.489.265-.01.499.133.568.389.274,1.028.745,1.966,1.38,2.821,1.477,1.991,3.462,3.305,5.697,4.289.316.139.751.149.925.434.174.286-.025.677-.045,1.022-.023.397.142.613.538.651l.598.056c1.115.104,2.236.128,3.356.124,2.242-.007,4.482.109,6.724.14.482.007.651-.182.657-.664.002-.147-.009-.296-.031-.441-.086-.573-.076-.584.48-.766,1.449-.475,2.831-1.092,4.082-1.975,1.774-1.252,3.191-2.794,3.907-4.888.117-.343.353-.354.631-.352.289.002.517-.127.567-.414.055-.314.115-.711-.236-.866-.331-.146-.325-.168-.325-.168,0,0-.594-1.233-.772-1.595-2.159-4.372-4.321-8.744-6.48-13.117-1.643-3.329-5-10.147-5.533-11.234l-.645.342c1.161,2.236,2.152,4.332,3.266,6.591,2.162,4.384,4.327,8.766,6.49,13.149.868,1.758,2.603,5.275,2.603,5.275l.256.608s-3.189-.077-4.478-.121c-1.987-.055-3.975-.108-5.962-.167-2.511-.074-5.022-.159-7.532-.23-2.364-.067-4.728-.123-7.092-.184-.754-.02-2.759-.061-2.759-.061l14.638-25.003-.086-.179,1.263-.11s16.107-1.239,16.107-1.239c0,0,.228.293.319.408.215.271.427.547.68.789.257.246.552.454.827.681.493.407.923.884,1.28,1.398.294.423.632.766.805,1.21.171,1.678,2.751,9.406,4.04,12.192,1.317,2.845,3.173,6.525,5.234,8.897,1.035,1.191,2.022,2.427,2.847,3.778,0,0-1.819,1.678-2.05,1.866-1.424,1.157-2.219,3.579-1.708,5.343,1.976,6.823.318,16.268.379,18.383.099.499.205,1.003.333,1.501.336,1.362.778,2.651,1.137,3.56.365.907.931,2.146,1.626,3.365.684,1.226,1.507,2.417,2.148,3.388-3.755-3.142-4.943-7.842-5.033-8.103.382,5.627.901,12.729-.701,16.584-2.377,5.72-3.874,17.157-4.156,19.652-.034.299.207.552.508.537,1.356-.069,4.562-.117,3.175,1.1-.936.822.777.596,1.21.528,1.387-.22,2.726-.716,4.118-.879,0,0,.121-.014.315-.028.017-.001.029-.002.046-.004.152-.013.306-.014.458-.021.217-.007.46-.009.727,0,.183.007.366.009.547.031.003,0,.006,0,.009,0,0,0-.002,0-.002,0-.017.003-.961.19-1.735.4.218,1.809.436,4.472.048,6.659-.302,1.701-3.224,6.184-6.014,7.176-.579.206-.975.547-1.031,1.199-.027.313.012.6.197.849-.193.007-.378.015-.569.022-1.867.081-7.995.439-11.251,1.769,0,0,.611-.721,2.412-1.24-4.092.374-6.581.864-6.581,1.402,0,1.172,11.798,2.123,26.351,2.123,2.683,0,5.272-.033,7.712-.093.226-.009,9.272-.377,12.158-2.096,0,0-.536.955-2.143,1.637,5.299-.388,8.625-.948,8.625-1.571,0-.906-7.05-1.679-16.97-1.984.093-.945.468-4.565.872-5.815.416-1.285.032-2.888-1.179-3.837-.645-.506-1.215-5.497-1.368-7.401-.026-.319.834-1.362,3.065.575,2.242,1.946,1.05-15.529,1.28-18.172.076-.878.176-1.081.195-1.962.072-3.231.006-6.461-.315-9.666-.07.96-.217,1.959-.448,2.932-.488,2.085-1.356,4.01-2.098,5.313-.733,1.308-1.932,3.049-3.475,4.537-.394.362-.777.739-1.201,1.063-.412.336-.824.662-1.265.938-.864.565-1.834.936-2.686.919,1.667-.407,3.141-2.016,4.546-3.503,1.379-1.529,2.489-3.204,3.192-4.456.709-1.248,1.569-3.065,2.176-5.034.389-1.248.68-2.546.895-3.756.003-.496.009-1.286.012-1.782-.349-2.222-.806-4.423-1.442-6.584-.498-1.689-2.528-5.702-2.944-11.041-.326-4.173,1.661-7.151,2.546-8.256.102-.22.204-.419.297-.581.36-.682,1.17-1.815,1.887-2.343-.455.757-1.183,1.872-1.535,2.537-.065.113-.137.247-.211.388.072,1.407.58,6.828.726,7.87.033.107.066.208.099.298.124.376.321.891.592,1.384.268.495.617.956.956,1.282-.438-.181-.905-.614-1.238-1.109-.06-.087-.111-.176-.164-.265.259,1.516.579,3.023.938,4.524.681,2.847,2.939,10.389,4.075,12.139.171.322.339.657.429,1.011.045.177.071.359.068.541-.003.2-.044.395-.079.591-.034.186-.058.371-.053.56.006.176.032.351.072.523.081.352.211.689.325,1.031.062.187.115.375.164.565.049.19.094.381.139.572.046.193.093.387.149.578.056.191.12.379.203.57.016.058.03.116.052.172.019.049.042.098.086.13.036.027.081.041.126.039.09-.003.193-.082.168-.192,0-.012,0-.024,0-.035.093-.1.124-.254.138-.385.008-.079.009-.159.006-.238-.011-.237-.066-.472-.119-.703-.022-.097-.039-.196-.059-.294-.092-.307-.08-.717-.076-.955.008-.286.076-.756-.098-1.043.149.082.256.299.285.506.027.166.023.315.019.442.14.011.28.023.418.05.174.035.337.096.484.198.156.109.291.247.426.381,0,0,.339.331.638.624-.031.004-.063.004-.094.01-.096.019-.19.051-.278.094-.087.043-.17.097-.244.16-.037.032-.073.066-.105.102-.033.037-.065.075-.084.122-.019.048-.013.1.012.14-.03.013-.061.024-.094.064.078.07.183.062.28.055.06-.004.12-.009.18-.014.046-.004.092-.009.137-.022.049-.015.096-.041.121-.102.168-.025.433-.048.578-.074.013-.03.006-.096-.128-.241,0,0,.198.202.208.218.018.024.031.051.048.076-.055.076-.118.143-.205.194-.093.055-.187.109-.273.176-.088.068-.234.237-.234.237,0,0-.132.18-.179.279-.092.193-.027.436.018.464-.024.028-.05.055-.072.085-.007.009-.002.025.009.028.114.031.217-.03.312-.087.058-.035.117-.07.175-.105.045-.027.089-.056.127-.092.042-.04.076-.09.071-.165.077-.054.188-.13.294-.201.093-.153.196-.27.22-.297.008-.02.012-.039.019-.069.013-.072.001-.125.001-.125l.04.194-.185.233-.021.026c-.043.058-.089.115-.136.171-.07.083-.14.166-.198.258-.06.094-.107.196-.14.302-.033.105-.053.214-.06.324-.003.055-.003.111.001.166.004.056.011.112.034.164.024.053.072.089.123.1-.013.035-.028.069-.039.104-.003.011.006.024.018.023.118-.009.194-.102.264-.187.043-.053.086-.105.129-.158.033-.041.065-.082.089-.129.026-.052.041-.11.011-.179.116-.164.232-.329.355-.488.017-.022.034-.044.052-.066.028.069.054.138.08.208.062.166.124.334.216.486.086.143.202.271.357.339.033.014.07.031.106.02.023-.007.039-.024.052-.044.007.017.015.034.023.05.01.021.023.042.026.065.003.021.031.016.037,0,.009-.026.011-.057.014-.084.003-.027.006-.055.007-.083.003-.056,0-.112-.006-.168-.013-.112-.046-.223-.095-.326-.013-.028-.027-.055-.043-.081-.008-.014-.017-.028-.026-.042-.009-.013-.018-.023-.039-.038l-.017-.053c-.062-.191-.123-.382-.185-.573-.037-.113-.072-.227-.109-.34-.216-.6-.477-1.157-.875-1.655,0,0,.462.309.952,1.463.028-.07.057-.141.084-.211.044-.114-.793-1.86-1.123-2.375-.16-.25-.318-.503-.511-.73-.196-.23-.424-.429-.636-.644-.379-.385-.703-.828-.966-1.299-.264-.473-.463-.98-.59-1.506-.016-.066-.032-.131-.047-.197-.004-.016-.017-.022-.03-.02-.01-.008-.024-.007-.035-.012-.444-1.584-1.244-4.763-1.183-6.822.059-1.972.173-3.942.206-5.914.024-1.414-.103-2.828-.404-4.21-.217-.998-.439-1.996-.58-3.008-.309-2.217-.12-6.548.204-7.569.035-.175.064-.356.106-.525.043-.169.093-.336.148-.498.065-.171.128-.318.181-.446.107-.271.184-.533.236-.774.1-.459.145-1.025.048-1.62-.005-.03-.006-.058-.011-.088-.117-.622-.416-1.28-.851-1.839-.435-.561-1.016-1.023-1.637-1.339-.621-.319-1.279-.489-1.872-.549.594-.051,1.297.035,1.981.307.169.066.336.144.5.232.009.005.018.011.027.015.491.268.951.629,1.326,1.067.318.371.566.79.75,1.224.11.258.202.52.258.785.023.11.033.216.047.324,1.068.205,2.16-.021,2.16-.021-.774-.221-1.659-2.654-1.659-2.654.627.848,2.027,1.216,2.027,1.216-.69-.675-1.031-1.276-1.269-1.842-.249-.592-.386-1.146-.685-1.702-.375-.377-.785-.701-1.086-.94-.322-.257-.787-.616-1.195-1.076-.026-.029-.048-.063-.074-.093-.034-.04-.063-.084-.095-.125-.269-.348-.47-.743-.541-1.111-.013-.069-.034-.141-.037-.207.062.109.142.218.22.328.149.21.314.418.51.616.1.102.206.201.315.295.356.314.73.596,1.035.832.061.047.124.096.178.139.327.26.787.642,1.161,1.138.187.239.338.516.437.793.145.154.291.31.433.457.107-.597-.095-1.36-.459-1.99-.361-.634-.839-1.147-1.193-1.482-.061-.058-.132-.121-.202-.183.754.381,1.533.585,2.197.667-.509-.542-1.24-1.059-1.85-1.604-.087-.041-.174-.082-.256-.127-.469-.259-.872-.593-1.144-.852-.148-.138-.318-.326-.485-.539-.02-.026-.04-.047-.06-.073-.052-.069-.104-.138-.153-.214-.015-.023-.029-.049-.044-.073-.049-.077-.099-.153-.143-.236-.045-.08-.084-.166-.12-.253-.04-.098-.073-.198-.1-.3-.071-.264-.092-.532-.036-.758.016-.062.036-.122.063-.177.013.186.069.374.146.56.005.013.013.025.018.038.034.079.071.158.114.236.085.156.194.3.301.446.193.264.398.514.596.717-.026-.048-.047-.093-.058-.125.079.084.168.159.253.239.526.489,1.146.875,1.724.995-.182-.308-.385-.631-.591-.961-.186-.299-.375-.604-.552-.91-.088-.15-.61-1.016-.61-1.016,0,0,1.109.378,1.376.336-.35-.449-.809-.667-1.08-1.144-.062-.109-.13-.215-.189-.325-.11-.06-.21-.136-.313-.207-.235-.162-.455-.34-.627-.546-.013-.015-.023-.031-.035-.046-.22-.27-.38-.545-.498-.786-.009-.019-.02-.039-.029-.058-.013-.026-.024-.057-.036-.084-.057-.123-.113-.252-.168-.393-.012-.031-.024-.065-.036-.096-.129-.342-.259-.718-.402-1.105-.044-.12-.088-.24-.136-.361-.284-.747-.654-1.468-1.057-1.99.418.271.819.742,1.144,1.274.108.177.208.36.297.545.373.74.614,1.506.854,1.989.126.275.311.582.556.874.116.137.249.268.394.392.107.092.219.182.346.26.046.033.096.06.144.089.031.014.064.023.095.036.583.247,1.201.367,1.716.235-.475-.311-.835-.729-1.174-1.192-.075-.102-.15-.205-.223-.311-.074-.109-.142-.228-.214-.34-.318-.498-.625-1.019-.91-1.556-.35-.657-.674-1.324-.966-1.947-.144-.314-.282-.614-.412-.896-.044-.104-.186-.38-.291-.553-.111-.161-.219-.337-.328-.462-.843-1.073-2.298-2.164-4.06-2.64-.874-.233-1.799-.29-2.638-.168-.769.093-3.416.86-4.361,1.807-.345.346-2.737,2.581-3.186,6.172-.449,3.591.423,7.011,1.957,8.045,2.219.937,4.275-.47,4.275-.47,0,0-1.685,1.957-3.204,2.341-.242.061-2.204.252-3.598-.517-1.415-1.348-2.744-2.775-3.924-4.338-.604-.8-1.144-1.646-1.686-2.489-.782-1.216-1.858-2.182-2.95-3.129-.084-.072-.163-.162-.241-.256.061.515.077,1.044-.012,1.464-.265-.841-.593-2.137-.768-2.828-.667-1.53-1.167-3.557-1.796-4.571-.929-1.498-2.05-3.61-2.763-4.993-.045-.097-.112-.224-.187-.365-.321-.629-.522-1.039-.537-1.038-.033-.073-.062-.141-.081-.199-.068-.197-.113-.401-.123-.609-.011-.227.025-.451.055-.676.029-.213.045-.426.025-.64-.019-.199-.064-.396-.125-.587-.091-.286-.213-.561-.337-.836l42.116-3.216,1.271-.085,1.241-.082.91-.061.798-.053s.211-.014.41-.027l-.349.152c.667,1.373,1.34,2.743,2.014,4.112,1.596,3.239,3.195,6.477,4.792,9.716,1.9,3.853,5.981,12.114,5.981,12.114,0,0-7.79-.25-11.214-.351-2.579-.076-5.157-.138-7.736-.211-1.829-.052-3.657-.107-5.486-.162.093.151.19.305.276.45l.77,1.479,1.417,2.264-1.69-.424c.33.74.627,1.763.511,2.413l-.174.968c.157.221.351.449.6.692l.253.247c.588.315,1.196.603,1.832.856.576.229.581.215.487.811-.027.172-.05.347-.048.521,0,.015.004.024.005.038l.007.007-.006-.002c.016.412.197.578.639.591,2.23.063,4.459.124,6.689.19,1.209.036,2.419.056,3.625.13.751.046,1.038-.304.911-.936-.019-.091,0-.19-.021-.281-.095-.418.109-.607.49-.708.848-.224,1.652-.567,2.428-.97,2.479-1.289,4.494-3.034,5.504-5.731.127-.339.267-.518.654-.484.29.026.521-.107.586-.43.069-.346.099-.718-.274-.881Zm-71.629,6.132c.48.005,1.007.01,1.572.015-.094.285-.274.632-.44.962l-.182.319-.164.265c-.45.708-1.022,1.419-1.69,2.047-.667.629-1.437,1.166-2.229,1.545-.792.385-1.61.566-2.316.659.673-.249,1.422-.544,2.132-.997.71-.448,1.39-1.01,1.983-1.639.594-.629,1.107-1.318,1.514-1.992l.148-.252.107-.195-.004-.005c-.153.002-.296.004-.427.006-2.498.029-6.981-.092-9.793-.684,4.379-.025,7.65-.043,9.788-.055Zm39.715-13.807c.109.083.215.172.312.272.327.326.56.723.691,1.02.143.296.24.748.335,1.14.099.394.277.762.576.98-.137,0-.276-.052-.407-.136-.24-.155-.452-.422-.564-.701-.184-.435-.28-.819-.406-1.077-.116-.262-.304-.617-.546-.956-.239-.342-.527-.666-.763-.947.247.066.519.212.771.404Zm-4.606,93.76c.454-.235.779-.048.768.461-.013.577-.065,1.153-.104,1.729-.035.521-.065,1.448-.076,1.811-.833-.022-1.196-.041-2.064-.057-.602.464-1.482.984-2.567.984.38-.11.732-.332,1.046-.603.142-.123.276-.255.401-.392.69-.751,1.117-1.62,1.117-1.62v.005c.529-1.043,1.157-2.151,1.479-2.317Zm-2.224-21.549c.931-.958,1.701-2.009,2.209-2.793.507-.785,1.14-1.926,1.678-3.154.545-1.225.993-2.531,1.351-3.556-.143,1.076-.474,2.439-.962,3.715-.481,1.28-1.116,2.464-1.638,3.271-.521.806-1.334,1.885-2.344,2.817-.999.943-2.2,1.701-3.196,2.131.889-.623,1.981-1.464,2.902-2.432Zm-5.091,22.841c.771-.703,1.098-1.392,1.098-1.392,0,0,.333-1.261.472-1.693.416-1.285.418-2.752-.793-3.701-.31-.243-.448-3.859-.503-6.271,1.687.214,2.354.002,2.354.002,0,0,.817-.417,1.493-.496,0,0-.82.4-1.377.845.343,1.043,1.337,4.193,1.342,5.716.003.878-.521,3.09-1.891,4.956l.002.003s-.554.783-1.303,1.429c-.29.25-.606.481-.935.635,0,0,.024-.021.039-.034Zm-1.62-1.081c.454-.235.779-.048.768.461-.004.175-.022.586-.046,1.071-.047.019-.09.043-.138.062-.575.217-.975.547-1.031,1.199-.029.33.013.633.228.892-.685.003-.842.008-1.512.015-1.066,1.018-2.409,1.018-2.409,1.018,0,0,.237-.101.571-.343.29-.21.54-.442.75-.669.379-.409.612-.758.638-.799.069-.117.14-.241.223-.392.783-1.429,1.488-2.272,1.959-2.515Zm43.335-84.502l-.182.319-.164.265c-.45.708-1.022,1.419-1.691,2.047-.667.629-1.437,1.166-2.229,1.545-.792.385-1.61.566-2.316.659.673-.249,1.422-.544,2.132-.997.71-.448,1.39-1.009,1.983-1.639.594-.629,1.107-1.318,1.514-1.992l.148-.252.107-.195-.004-.005c-.153.002-.296.004-.427.006-2.498.029-6.981-.092-9.793-.684,4.379-.025,7.65-.043,9.788-.055.48.005,1.007.01,1.572.015-.094.285-.274.632-.44.962Z" fill="#ca813c"/>
  </g>
  <g>
    <path d="m7.875,174.953l2.625-4.947c.304-.672.608-1.909-1.085-1.909l.868-1.801h8.636l.868,1.801c-1.692,0-1.41,1.172-1.107,1.844l2.647,5.012c.412.672,1.367,1.822,2.821,1.822l-.868,1.822h-6.401l-.868-1.822c1.562,0,1.367-1.107,1.107-1.779h-6.683c-.282.672-.478,1.779,1.106,1.779l-.868,1.822h-4.752l-.868-1.822c1.454,0,2.408-1.15,2.821-1.822Zm8.31-1.779l-2.409-4.535-2.408,4.535h4.817Z" fill="#bb8a74"/>
    <path d="m30.024,174.606v-6.487h-3.103c-.998,0-1.974.282-2.56,1.15l-1.736-.868.911-2.322s.803.217,3.19.217h10.436c2.365,0,3.168-.217,3.168-.217l.911,2.322-1.736.868c-.586-.868-1.541-1.15-2.539-1.15h-2.951v6.487c0,.673.304,2.17,1.953,2.17l-.868,1.822h-6.162l-.868-1.822c1.649,0,1.953-1.497,1.953-2.17Z" fill="#ca813c"/>
    <path d="m54.904,174.606v-4.317c0-.694-.304-2.191-1.953-2.191l.868-1.801h6.14l.868,1.801c-1.649,0-1.953,1.497-1.953,2.191v4.317c0,.673.304,2.17,1.953,2.17l-.868,1.822h-6.14l-.868-1.822c1.649,0,1.953-1.497,1.953-2.17Z" fill="#5d9380"/>
    <path d="m64.991,174.606v-4.317c-.044-.694-.304-2.191-1.953-2.191l.868-1.801h5.576l9.611,7.29v-3.298c-.043-.694-.303-2.191-1.953-2.191l.868-1.801h4.427l.868,1.801c-1.649,0-1.91,1.497-1.953,2.191v4.317c.043.694.304,2.191,1.953,2.191l-.868,1.801h-3.71l-11.478-9.048v5.055c.044.694.304,2.191,1.953,2.191l-.868,1.801h-4.426l-.868-1.801c1.649,0,1.909-1.497,1.953-2.191Z" fill="#ca813c"/>
    <path d="m87.529,174.475v-4.231c-.044-.716-.326-2.148-1.953-2.148l.868-1.801h7.247c6.205,0,11.347,1.085,11.347,6.14s-5.142,6.162-11.347,6.162h-7.247l-.933-1.801c1.779,0,1.996-1.692,2.018-2.322Zm6.162,2.322c4.339,0,6.639-.738,6.639-4.361,0-3.602-2.3-4.339-6.639-4.339h-2.17v8.7h2.17Z" fill="#5d9380"/>
    <path d="m108.614,174.606v-4.317c0-.694-.304-2.191-1.953-2.191l.868-1.801h6.14l.868,1.801c-1.649,0-1.953,1.497-1.953,2.191v4.317c0,.673.304,2.17,1.953,2.17l-.868,1.822h-6.14l-.868-1.822c1.649,0,1.953-1.497,1.953-2.17Z" fill="#ca813c"/>
    <path d="m119.091,174.953l2.626-4.947c.304-.672.608-1.909-1.085-1.909l.868-1.801h8.636l.868,1.801c-1.692,0-1.41,1.172-1.107,1.844l2.647,5.012c.412.672,1.367,1.822,2.821,1.822l-.868,1.822h-6.401l-.868-1.822c1.562,0,1.367-1.107,1.107-1.779h-6.683c-.282.672-.477,1.779,1.107,1.779l-.868,1.822h-4.752l-.868-1.822c1.453,0,2.408-1.15,2.82-1.822Zm8.31-1.779l-2.408-4.535-2.409,4.535h4.816Z" fill="#bb8a74"/>
    <path d="m139.265,174.606v-4.317c-.044-.694-.304-2.191-1.953-2.191l.868-1.801h5.576l9.612,7.29v-3.298c-.043-.694-.303-2.191-1.953-2.191l.868-1.801h4.427l.868,1.801c-1.649,0-1.91,1.497-1.953,2.191v4.317c.043.694.304,2.191,1.953,2.191l-.868,1.801h-3.71l-11.478-9.048v5.055c.043.694.304,2.191,1.953,2.191l-.868,1.801h-4.426l-.868-1.801c1.649,0,1.91-1.497,1.953-2.191Z" fill="#5d9380"/>
    <path d="m162.13,174.953l2.626-4.947c.304-.672.608-1.909-1.085-1.909l.868-1.801h8.636l.868,1.801c-1.692,0-1.41,1.172-1.107,1.844l2.647,5.012c.412.672,1.367,1.822,2.821,1.822l-.868,1.822h-6.401l-.868-1.822c1.562,0,1.367-1.107,1.107-1.779h-6.683c-.282.672-.477,1.779,1.107,1.779l-.868,1.822h-4.752l-.868-1.822c1.453,0,2.408-1.15,2.82-1.822Zm8.31-1.779l-2.408-4.535-2.409,4.535h4.816Z" fill="#ca813c"/>
    <path d="m1.974,194.456v-2.452c-.022-.564-.217-2.343-1.974-2.343l.868-1.801h6.14l.868,1.801c-1.627,0-1.91,1.432-1.953,2.148v3.059c0,2.756,1.953,3.689,4.47,3.689,2.539,0,4.47-.933,4.47-3.689v-2.864c-.022-.586-.217-2.343-1.931-2.343l.846-1.801h6.119l.868,1.801c-1.606,0-1.888,1.41-1.931,2.126v2.669c0,4.535-3.537,6.032-8.44,6.032-4.969,0-8.418-1.497-8.418-6.032Z" fill="#5d9380"/>
    <path d="m24.665,196.191v-4.317c-.043-.694-.304-2.191-1.953-2.191l.868-1.801h5.576l9.612,7.29v-3.298c-.043-.694-.304-2.191-1.953-2.191l.868-1.801h4.426l.868,1.801c-1.649,0-1.909,1.497-1.953,2.191v4.317c.044.694.304,2.191,1.953,2.191l-.868,1.801h-3.71l-11.478-9.048v5.055c.043.694.304,2.191,1.953,2.191l-.868,1.801h-4.426l-.868-1.801c1.649,0,1.909-1.497,1.953-2.191Z" fill="#bb8a74"/>
    <path d="m47.138,196.191v-4.317c0-.694-.304-2.191-1.953-2.191l.868-1.801h6.14l.868,1.801c-1.649,0-1.953,1.497-1.953,2.191v4.317c0,.673.304,2.17,1.953,2.17l-.868,1.822h-6.14l-.868-1.822c1.649,0,1.953-1.497,1.953-2.17Z" fill="#ca813c"/>
    <path d="m59.286,198.361c1.649,0,1.432-1.107,1.15-1.801l-2.538-4.904c-.391-.651-1.345-1.953-2.886-1.953l.847-1.822h6.4l.868,1.822c-1.822,0-1.193,1.649-.954,2.148l3.103,5.945,3.124-5.967c.239-.521.89-2.126-.976-2.126.694-1.432.369-.759.868-1.822h4.752l.847,1.822c-1.476,0-2.366,1.15-2.777,1.823l-.261.499-2.43,4.622c-.26.694-.369,1.714,1.193,1.714l-.868,1.822h-8.571s-.326-.694-.89-1.822Z" fill="#5d9380"/>
    <path d="m89.354,200.184h-12.649l-.868-1.801c1.628,0,1.953-1.432,1.953-2.148v-4.405c0-.716-.326-2.148-1.953-2.148l.868-1.801h11.933c2.409,0,3.19-.217,3.19-.217l.955,2.322-1.736.868c-.629-.911-1.692-1.172-2.755-1.172h-6.531v3.124h3.254c.434,0,1.735-.152,1.735-1.302l1.888.955v2.495l-1.888.955c0-1.15-1.302-1.302-1.735-1.302h-3.254v3.775h5.793c1.454,0,3.407-.152,4.339-2.018l1.758.846-1.042,3.19s-.911-.217-3.254-.217Z" fill="#bb8a74"/>
    <path d="m97.335,196.191v-4.317c0-.673-.304-2.17-1.953-2.17l.868-1.822h11.261c6.401,0,6.249,3.819,6.249,3.819,0,0,.087,2.322-2.864,3.363l1.15,2.148c.456.586,1.237,1.172,2.473,1.172l-.868,1.801h-6.4l-.868-1.801c1.758,0,1.41-1.302,1.064-1.931l-.477-.911h-5.642v.651c0,.694.304,2.191,1.953,2.191l-.868,1.801h-6.161l-.868-1.801c1.649,0,1.953-1.497,1.953-2.191Zm9.481-2.473s2.256,0,2.256-2.018-2.256-1.996-2.256-1.996h-5.49v4.014h5.49Z" fill="#ca813c"/>
    <path d="m119.808,199.707c-1.324-.369-1.692.521-1.692.521l-1.606-.89v-2.3l1.606-.759s1.909,2.3,6.249,2.3c0,0,3.992.174,3.992-1.562,0-1.259-2.734-1.367-5.163-1.714-2.734-.412-6.727-.781-6.727-3.949,0-2.777,3.906-3.689,7.269-3.689,1.541,0,3.363.217,4.687.543.716.173,1.15-.304,1.15-.304l1.541.824v1.779l-1.541.76s-1.258-1.801-5.836-1.801c0,0-3.754-.043-3.754,1.172,0,.955,2.582,1.128,4.925,1.497,2.604.412,7.225.694,7.225,4.296,0,3.037-4.122,3.971-7.767,3.971-1.302,0-3.233-.326-4.556-.694Z" fill="#5d9380"/>
    <path d="m136.142,196.191v-4.317c0-.694-.304-2.191-1.953-2.191l.868-1.801h6.14l.868,1.801c-1.649,0-1.953,1.497-1.953,2.191v4.317c0,.673.304,2.17,1.953,2.17l-.868,1.822h-6.14l-.868-1.822c1.649,0,1.953-1.497,1.953-2.17Z" fill="#ca813c"/>
    <path d="m151.306,196.191v-6.487h-3.103c-.998,0-1.974.282-2.56,1.15l-1.736-.868.911-2.322s.803.217,3.19.217h10.436c2.365,0,3.168-.217,3.168-.217l.911,2.322-1.736.868c-.586-.868-1.54-1.15-2.538-1.15h-2.951v6.487c0,.673.304,2.17,1.953,2.17l-.868,1.822h-6.162l-.868-1.822c1.649,0,1.953-1.497,1.953-2.17Z" fill="#bb8a74"/>
    <path d="m172.088,196.17v-1.822l-2.799-2.691c-.738-.651-2.495-1.953-4.817-1.953l.868-1.822h7.68l.89,1.822c-1.671,0-.781,1.107-.238,1.649l1.301,1.215,1.15-1.085c.542-.542,1.584-1.779-.109-1.779l.868-1.822h5.707l.868,1.822c-2.278,0-4.122,1.454-4.795,2.061l-2.582,2.582v1.822c.044.694.304,2.191,1.953,2.191l-.868,1.822h-6.161l-.868-1.822c1.649,0,1.91-1.497,1.953-2.191Z" fill="#ca813c"/>
  </g>
</svg>