<?xml version="1.0" encoding="utf-8"?>
<!-- Generator: Adobe Illustrator 27.0.0, SVG Export Plug-In . SVG Version: 6.00 Build 0)  -->
<svg version="1.1" id="Layer_1" xmlns="http://www.w3.org/2000/svg" xmlns:xlink="http://www.w3.org/1999/xlink" x="0px" y="0px"
	 viewBox="0 0 253 73.629" style="enable-background:new 0 0 253 73.629;" xml:space="preserve">
<style type="text/css">
	.st0{fill:#FFFFFF;}
</style>
<g>
	<g>
		<path class="st0" d="M38.083,63.944c0.082-0.062,0.122-0.169,0.119-0.321c-0.002-0.148-0.046-0.252-0.129-0.314
			c-0.084-0.061-0.209-0.091-0.374-0.088l-0.605,0.01l0.014,0.819l0.604-0.01C37.877,64.038,38.001,64.006,38.083,63.944z"/>
		<polygon class="st0" points="25.918,14.048 25.9,14.057 26.069,14.81 26.222,15.541 26.877,15.227 26.407,14.648 		"/>
		<path class="st0" d="M28.314,62.279c0.119-0.031,0.209-0.119,0.268-0.264c0.059-0.145,0.058-0.27-0.005-0.376
			c-0.063-0.106-0.173-0.191-0.331-0.256l-0.491-0.202l-0.347,0.845l0.491,0.202C28.057,62.293,28.195,62.31,28.314,62.279z"/>
		<path class="st0" d="M40.507,11.518l-0.601-0.061l-0.083,0.815l0.601,0.061c0.165,0.017,0.291-0.001,0.38-0.052
			c0.088-0.052,0.14-0.153,0.155-0.305c0.015-0.147-0.015-0.256-0.091-0.327C40.792,11.578,40.671,11.535,40.507,11.518z"/>
		<path class="st0" d="M23.755,59.952c0.123-0.007,0.228-0.075,0.315-0.205c0.087-0.13,0.11-0.253,0.07-0.37
			c-0.041-0.116-0.132-0.222-0.273-0.316l-0.441-0.295l-0.508,0.759l0.441,0.295C23.5,59.914,23.632,59.958,23.755,59.952z"/>
		<path class="st0" d="M14.098,25.86c-0.132-0.067-0.245-0.078-0.338-0.032c-0.093,0.046-0.177,0.142-0.253,0.29l-0.274,0.539
			l0.731,0.371l0.274-0.539c0.075-0.148,0.104-0.272,0.088-0.373C14.309,26.015,14.233,25.929,14.098,25.86z"/>
		<path class="st0" d="M9.441,47.954c0.427-0.114,0.733-0.35,0.902-0.666c0.066-0.005,0.131-0.014,0.193-0.03
			c0.233-0.062,0.475-0.174,0.694-0.361c0.212,0.293,0.569,0.425,0.991,0.313c0.529-0.142,0.941-0.476,1.242-0.906
			c0.262,0.275,0.627,0.405,1.088,0.281c0.44-0.118,0.7-0.378,0.835-0.65c0.196,0.213,0.502,0.289,0.859,0.196
			c0.706-0.193,1.188-0.712,1.475-1.361l0,0c0.102-0.232,0.181-0.479,0.234-0.736l-0.474-0.097l0,0l-0.376-0.077
			c-0.137,0.626-0.361,1.061-0.73,1.16c-0.278,0.074-0.431-0.199-0.369-0.607c0.018-0.119,0.496-3.275,0.66-4.355l-1.027,0.275
			l-0.335,2.207c-0.181-0.088-0.432-0.125-0.735-0.044c-1.238,0.332-1.71,1.725-1.548,2.804c-0.139,0.423-0.339,0.71-0.629,0.788
			c-0.278,0.074-0.429-0.154-0.384-0.503c0.015-0.12,0.215-1.424,0.379-2.503l0.64-0.172c0.008-0.057,0.134-0.883,0.134-0.883
			l-0.641,0.172c0.094-0.616,0.163-1.073,0.163-1.073L11.655,41.4l-0.163,1.073l-0.577,0.155l-0.134,0.883l0.578-0.155l-0.285,1.877
			c-0.01,0.081-0.022,0.166-0.033,0.253l-0.003-0.001c-0.095,0.444-0.304,0.797-0.569,0.851c-0.01-0.059-0.023-0.118-0.039-0.177
			c-0.205-0.764-0.766-1.525-0.721-2.361c-0.069,0.019-1.033,0.277-1.033,0.277c-0.564,0.899-0.762,1.802-0.91,2.287l0.206,0.042
			c-0.043,0.112-0.097,0.218-0.158,0.321c-0.181,0.305-0.444,0.563-0.794,0.739c-0.126,0.064-0.262,0.119-0.411,0.159
			c-0.212,0.057-0.395,0.051-0.551,0.007c-0.57-0.16-0.747-0.874-0.357-1.339c0.128-0.153,0.315-0.28,0.573-0.349
			c0.101-0.027,0.217-0.043,0.33-0.051c0.13-0.009,0.256-0.008,0.353,0.005l0.103-0.986c-0.331-0.021-0.576-0.161-0.745-0.351
			c-0.291-0.325-0.348-0.798-0.195-1.087c0.062-0.116,0.155-0.204,0.283-0.238c0.424-0.113,0.545,0.669,0.472,1.144l0.371-0.099
			l0.73-0.196c0.119-0.844-0.273-1.743-1.055-1.919c-0.207-0.047-0.441-0.046-0.701,0.024c-0.093,0.025-0.176,0.056-0.258,0.087
			c-0.425,0.164-0.713,0.412-0.886,0.701c-0.447,0.745-0.156,1.74,0.361,2.171c0.017,0.014,0.033,0.031,0.05,0.044
			c-0.013,0.006-0.023,0.014-0.035,0.02c-0.878,0.421-1.208,1.35-0.984,2.186c0.228,0.851,0.95,1.444,1.93,1.341
			c0.118-0.012,0.237-0.03,0.362-0.063c0.207-0.056,0.394-0.129,0.571-0.212c0.32-0.15,0.59-0.35,0.817-0.598
			c0.062-0.068,0.128-0.132,0.183-0.208C8.549,47.93,8.935,48.09,9.441,47.954z M14.857,43.423c0.118-0.031,0.222-0.009,0.304,0.045
			l-0.086,0.562c-0.073,0.447-0.259,1.331-0.669,1.441C13.847,45.62,13.905,43.678,14.857,43.423z M9.122,44.895
			c0.095,0.315,0.237,0.675,0.351,1.009c-0.201-0.011-0.53,0.039-0.733,0.175C8.854,45.672,8.982,45.254,9.122,44.895z
			 M9.271,46.648c0.165-0.044,0.323-0.06,0.474-0.055c-0.011,0.367-0.19,0.565-0.53,0.656C8.771,47.368,8.651,46.814,9.271,46.648z"
			/>
		<path class="st0" d="M57.313,56.794c0.123-0.018,0.236-0.084,0.338-0.196c0.103-0.112,0.157-0.231,0.164-0.355
			c0.007-0.124-0.035-0.257-0.125-0.401c-0.091-0.143-0.23-0.301-0.419-0.473c-0.192-0.175-0.362-0.3-0.512-0.376
			c-0.149-0.076-0.285-0.105-0.408-0.086c-0.123,0.018-0.236,0.083-0.338,0.196c-0.103,0.112-0.157,0.231-0.164,0.355
			c-0.007,0.124,0.033,0.257,0.12,0.401c0.088,0.144,0.227,0.302,0.419,0.478c0.189,0.172,0.359,0.296,0.512,0.372
			C57.053,56.784,57.19,56.813,57.313,56.794z"/>
		<path class="st0" d="M59.845,51.136c0.096-0.167,0.147-0.334,0.15-0.499c0.003-0.166-0.037-0.319-0.12-0.461
			c-0.084-0.142-0.208-0.26-0.373-0.356c-0.167-0.097-0.333-0.145-0.496-0.147c-0.164-0.001-0.316,0.041-0.458,0.127
			c-0.142,0.086-0.26,0.212-0.357,0.379c-0.096,0.167-0.147,0.333-0.15,0.499c-0.003,0.165,0.036,0.319,0.119,0.459
			c0.083,0.142,0.208,0.26,0.375,0.357c0.165,0.095,0.33,0.144,0.495,0.145c0.165,0.002,0.318-0.04,0.459-0.126
			C59.629,51.43,59.749,51.303,59.845,51.136z M59.55,51.092l-0.243,0.421l-1.221-0.705l0.374-0.648
			c0.046-0.079,0.105-0.14,0.178-0.182c0.073-0.042,0.15-0.065,0.234-0.068s0.164,0.018,0.243,0.064
			c0.131,0.076,0.207,0.178,0.227,0.307c0.007,0.048,0,0.098-0.007,0.149l0.608-0.019l-0.297,0.515l-0.496-0.065l0,0.001
			L59.55,51.092z"/>
		<path class="st0" d="M58.907,50.427c-0.036-0.021-0.068-0.023-0.093-0.007c-0.026,0.017-0.05,0.043-0.071,0.079l-0.055,0.095
			l0.183,0.106l0.055-0.095c0.021-0.036,0.032-0.069,0.034-0.101C58.961,50.474,58.943,50.448,58.907,50.427z"/>
		<polygon class="st0" points="19.561,56.546 19.967,55.887 19.953,55.873 19.296,56.279 18.656,56.664 19.168,57.179 		"/>
		<path class="st0" d="M66.083,26.591c-0.077,0.218-0.245,0.488-0.483,0.767c-0.316,0.369-0.76,0.753-1.32,1.051l0.677,0.77
			c0.295-0.144,0.569-0.329,0.817-0.539l-0.665,4.405l1.018-0.273l0.243-1.606l0.411-2.719l0.249-1.649l-0.946-0.208
			C66.084,26.589,66.084,26.59,66.083,26.591z"/>
		<path class="st0" d="M60.59,29.379c-0.194-0.724-0.823-1.098-1.528-0.909c-0.442,0.118-0.836,0.458-1.11,0.957
			c-0.238,0.432-0.35,0.928-0.328,1.404l1.041,0.093c0.024-0.906,0.398-1.413,0.671-1.486c0.114-0.031,0.231,0.007,0.284,0.202
			c0.074,0.278-0.068,0.967-0.689,2.068c-0.319,0.566-0.73,1.174-1.155,1.721c-0.225,0.289-0.453,0.562-0.674,0.8l0.498,0.827
			l0.486-0.13l2.212-0.593l0.164-1.085l-1.618,0.434c0.356-0.485,0.69-0.997,0.963-1.48C60.499,30.973,60.763,30.023,60.59,29.379z"
			/>
		<path class="st0" d="M63.763,27.69c-0.262-0.24-0.603-0.319-0.958-0.224c-1.041,0.279-1.557,1.572-1.773,2.318
			c-0.305,1.058-0.369,2.238-0.164,3.005c0.093,0.346,0.24,0.613,0.437,0.793c0.262,0.239,0.602,0.319,0.958,0.224c0,0,0,0,0,0
			c1.041-0.279,1.557-1.572,1.773-2.318c0.305-1.058,0.369-2.238,0.164-3.006C64.108,28.137,63.96,27.87,63.763,27.69z
			 M63.247,30.397c-0.001,0.005-0.002,0.009-0.002,0.014c-0.034,0.213-0.069,0.409-0.107,0.587c-0.005,0.023-0.01,0.046-0.015,0.07
			c-0.002,0.008-0.003,0.015-0.005,0.023c-0.268,1.206-0.624,1.612-0.902,1.687c-0.019,0.005-0.037,0.008-0.056,0.009
			c-0.279,0.01-0.557-0.482-0.337-1.91c0.001-0.005,0.001-0.009,0.002-0.014c0.033-0.214,0.069-0.409,0.107-0.588
			c0.005-0.023,0.01-0.046,0.015-0.069c0.002-0.007,0.003-0.015,0.005-0.023c0.268-1.206,0.624-1.613,0.901-1.687
			c0.019-0.005,0.037-0.008,0.056-0.008C63.189,28.477,63.467,28.969,63.247,30.397z"/>
		<path class="st0" d="M68.702,28.048c-0.002,0.001-0.005,0.002-0.007,0.003c-0.067,0.018-0.134,0.042-0.201,0.072l0.071-0.455
			l0.114-0.732l1.372-0.368l0.164-1.084l-1.37,0.367l0-0.002l-0.875,0.235l-0.184,0.049l-0.237,1.565l-0.203,1.34l0.727,0.256
			l0.137,0.048c0,0,0.168-0.244,0.445-0.318c0.148-0.04,0.27-0.004,0.371,0.07c0.155,0.114,0.256,0.323,0.306,0.508
			c0.054,0.2,0.064,0.441,0.029,0.677c-0.065,0.432-0.287,0.847-0.716,0.962c-0.019,0.005-0.037,0.005-0.056,0.008
			c-0.285,0.04-0.529-0.2-0.472-0.638c0.029-0.226,0.068-0.401,0.068-0.401l-0.794,0.213l-0.264,0.071
			c-0.112,0.761,0.153,1.415,0.686,1.679c0.269,0.133,0.604,0.169,0.996,0.065c0.002-0.001,0.005-0.001,0.007-0.001
			c0.362-0.097,0.654-0.27,0.885-0.491C71.018,30.482,70.291,27.622,68.702,28.048z"/>
		<path class="st0" d="M74.761,32.668l-0.833-9.518c-0.151-1.727-1.55-3.029-3.255-3.029c-0.294,0-0.59,0.039-0.882,0.117
			l-1.76,0.472c-0.951-1.628-2.018-3.178-3.189-4.604c-0.123-0.149-0.25-0.295-0.376-0.441l-0.147-0.169
			c-0.14-0.163-0.301-0.3-0.475-0.416c-0.029-0.441-0.103-0.928-0.274-1.355c-0.39-0.97-1.305-1.597-2.33-1.597
			c-0.069,0-0.146,0.005-0.222,0.012c-2.115-1.882-4.448-3.507-6.95-4.831c-0.13-0.069-0.265-0.12-0.402-0.162
			c-0.143-0.431-0.33-0.925-0.624-1.506c-0.342-0.677-0.778-1.369-1.333-2.115c-0.614-0.827-1.367-1.711-2.308-2.711
			c-0.235-0.248-0.512-0.445-0.807-0.578c-0.13-0.06-0.275-0.11-0.419-0.147c-0.139-0.038-0.337-0.08-0.597-0.088
			C47.559,0,47.533,0,47.514,0c-0.248,0-0.493,0.035-0.728,0.104c-0.066,0.02-0.134,0.043-0.199,0.068
			c-0.175,0.067-0.344,0.153-0.513,0.264c-0.03,0.02-0.078,0.053-0.106,0.074c-0.019,0.014-0.036,0.027-0.054,0.041
			c-0.135,0.106-0.26,0.224-0.372,0.353c-0.018,0.02-0.035,0.041-0.051,0.06c-0.035,0.042-0.068,0.086-0.1,0.13
			c-0.156,0.219-0.277,0.46-0.356,0.71C45,1.908,44.978,1.989,44.96,2.095c-0.039,0.198-0.055,0.402-0.047,0.61
			c0.003,0.083,0.012,0.184,0.024,0.266c0.043,0.291,0.132,0.569,0.272,0.841c0.048,0.092,0.096,0.186,0.144,0.28
			c-2.523-0.565-5.108-0.853-7.717-0.853c-0.162,0-0.323,0.005-0.484,0.01L36.93,3.255c-9.253,0.183-17.922,3.923-24.411,10.53
			C6.052,20.371,2.479,29.071,2.444,38.298c-1.546,0.561-2.576,2.148-2.431,3.816l0.833,9.516c0.15,1.728,1.549,3.031,3.255,3.031
			c0.293,0,0.588-0.039,0.882-0.117l1.2-0.322c5.943,11.812,18.204,19.406,31.453,19.406c19.407,0,35.195-15.789,35.195-35.195
			c0-0.668-0.025-1.374-0.074-2.14C74.061,35.615,74.892,34.176,74.761,32.668z M62.194,18.117c0.152-0.365,0.269-0.733,0.35-1.094
			c0.163,0.19,0.33,0.376,0.489,0.569c1.223,1.488,2.312,3.09,3.262,4.78l-0.977,0.262L64.6,22.825l-0.249,0.067
			c-0.787-1.348-1.672-2.632-2.647-3.841C61.9,18.749,62.061,18.435,62.194,18.117z M60.411,16.145
			c0.266-0.341,0.411-0.647,0.497-0.9c0.154-0.45,0.128-0.737,0.294-0.772c0.013-0.003,0.025-0.004,0.037-0.004
			c0.074,0,0.127,0.052,0.158,0.129c0.08,0.201,0.147,0.678,0.112,1.278c-0.022,0.37-0.085,0.786-0.206,1.214
			c-0.095,0.334-0.229,0.674-0.407,1.004c-0.395,0.732-1.013,1.413-1.976,1.856c-2.207,1.014-3.32,2.774-3.872,3.649
			c-0.041,0.065-0.105,0.094-0.168,0.094c-0.101,0-0.2-0.074-0.203-0.195c-0.041-1.693,0.536-4.141,3.211-5.482
			c0.814-0.408,1.409-0.805,1.848-1.178C60.023,16.595,60.242,16.363,60.411,16.145z M59.934,14.312
			c-0.032,0.1-0.053,0.189-0.067,0.248c-0.039,0.174-0.099,0.428-0.314,0.744c-0.141,0.207-0.349,0.442-0.665,0.7
			c-1.758-1.666-3.709-3.127-5.819-4.348c0.022-0.365,0.021-0.737,0.005-1.111c-0.016-0.385-0.048-0.774-0.103-1.166
			C55.507,10.72,57.846,12.381,59.934,14.312z M53.006,16.707c1.345-0.456,1.684-1.244,2.096-1.743
			c0.081-0.098,0.238-0.043,0.236,0.084c-0.023,1.065-0.979,3.093-2.503,3.565c-1.329,0.411-1.558,1.44-1.919,1.762
			c-0.093,0.083-0.243,0.003-0.241-0.122C50.686,19.404,51.494,17.22,53.006,16.707z M47.258,2.545
			c0.002-0.007,0.002-0.014,0.004-0.02c0.008-0.025,0.02-0.049,0.035-0.07c0.003-0.004,0.006-0.007,0.009-0.01
			c0.014-0.017,0.03-0.033,0.047-0.046c0.006-0.005,0.013-0.009,0.019-0.013c0.018-0.012,0.037-0.021,0.057-0.028
			c0.005-0.002,0.01-0.004,0.015-0.006c0.025-0.007,0.051-0.01,0.077-0.009c0.02,0.001,0.041,0.007,0.061,0.013
			c0.011,0.003,0.022,0.003,0.032,0.008c0.031,0.014,0.06,0.034,0.087,0.063c0.923,0.981,1.61,1.8,2.128,2.497
			c0.519,0.698,0.87,1.275,1.122,1.773c0.303,0.599,0.463,1.085,0.601,1.532c0.042,0.164,0.077,0.329,0.113,0.494
			c0.084,0.392,0.146,0.786,0.188,1.18c0.012,0.11,0.027,0.221,0.035,0.331c0.02,0.263,0.027,0.525,0.027,0.786
			c0,0.848-0.105,1.683-0.337,2.48c-0.259,0.865-0.532,1.551-0.854,2.26c-0.161,0.354-0.335,0.714-0.525,1.105
			c-0.19,0.391-0.398,0.812-0.627,1.289c-0.083,0.176-0.17,0.352-0.26,0.528c-0.179,0.352-0.367,0.706-0.553,1.063
			c-0.137,0.264-0.27,0.531-0.399,0.799c-0.045,0.095-0.092,0.189-0.136,0.284c-0.096,0.209-0.184,0.421-0.267,0.634
			c-0.062,0.16-0.123,0.32-0.176,0.483c-0.053,0.161-0.097,0.324-0.139,0.488c-0.007,0.029-0.018,0.058-0.025,0.088
			c-0.324,1.286,0.062,2.679,1.191,3.75c0.05-0.275,0.132-0.605,0.25-0.967c0.078-0.241,0.172-0.496,0.282-0.759
			c0.091-0.218,0.197-0.442,0.311-0.666c0.134-0.264,0.284-0.528,0.451-0.789c0.016-0.025,0.031-0.05,0.047-0.075
			c0.104-0.16,0.213-0.318,0.33-0.473c0.084-0.111,0.173-0.22,0.264-0.327c0.225-0.266,0.47-0.518,0.737-0.748
			c0.376-0.322,0.795-0.601,1.258-0.814c0.035-0.016,0.069-0.022,0.102-0.023c0.02-0.001,0.04,0.002,0.059,0.006
			c0.006,0.001,0.012,0.001,0.017,0.003c0.025,0.007,0.048,0.018,0.07,0.032c0.005,0.003,0.01,0.008,0.015,0.012
			c0.015,0.012,0.03,0.024,0.042,0.039c0.006,0.007,0.011,0.015,0.016,0.022c0.009,0.014,0.018,0.028,0.025,0.043
			c0.004,0.009,0.007,0.018,0.01,0.027c0.005,0.015,0.008,0.031,0.011,0.048c0.001,0.01,0.003,0.019,0.003,0.029
			c0,0.018-0.003,0.036-0.007,0.054c-0.002,0.009-0.002,0.017-0.005,0.026c-0.009,0.026-0.021,0.053-0.04,0.078
			c-0.268,0.355-0.485,0.695-0.649,1.046c-0.026,0.056-0.051,0.112-0.074,0.169c-0.043,0.103-0.082,0.206-0.115,0.312
			c-0.025,0.079-0.047,0.16-0.066,0.241c-0.031,0.125-0.056,0.254-0.074,0.387c-0.008,0.056-0.013,0.114-0.019,0.172
			c-0.024,0.244-0.029,0.503-0.012,0.785c0.01,0.174,0.028,0.356,0.053,0.548c0.006,0.047,0.015,0.097,0.022,0.145
			c0.022,0.148,0.047,0.3,0.079,0.461c0.048,0.246,0.108,0.51,0.178,0.788c0.046,0.184,0.096,0.374,0.152,0.573
			c0.025,0.089,0.052,0.181,0.079,0.273c0.028,0.097,0.057,0.195,0.088,0.296c0,0,0,0,0,0c0.328,1.085,0.782,2.388,1.372,3.994
			c0.416,1.106,0.631,2.126,0.683,3.064c0.005,0.097,0.005,0.19,0.006,0.283c0.002,0.109,0.004,0.218,0.002,0.324
			c-0.004,0.145-0.012,0.285-0.023,0.422c-0.005,0.059-0.009,0.118-0.015,0.177c-0.013,0.132-0.03,0.26-0.049,0.385
			c-0.016,0.104-0.034,0.208-0.055,0.31c-0.012,0.063-0.024,0.127-0.037,0.187c-0.045,0.193-0.096,0.382-0.156,0.566
			c-0.213,0.596-0.476,1.165-0.783,1.701c-0.1,0.174-0.206,0.344-0.316,0.512v0c-0.058,0.089-0.116,0.179-0.177,0.266
			c-0.039,0.056-0.08,0.11-0.12,0.165c-0.081,0.111-0.164,0.221-0.249,0.329c-0.014,0.017-0.027,0.034-0.041,0.051
			c-0.208,0.261-0.427,0.511-0.657,0.749c-2.106,2.182-5.111,3.418-8.288,3.211c-0.374-0.024-0.75-0.066-1.128-0.132
			c-0.034-0.011-0.077-0.031-0.072-0.063c0.01-0.053,0.078-0.069,0.078-0.069c1.446-0.272,2.604-0.749,3.515-1.368
			c0.403-0.274,0.757-0.575,1.067-0.899c0.237-0.249,0.447-0.51,0.632-0.783c0.189-0.278,0.351-0.568,0.489-0.866
			c0.085-0.185,0.161-0.372,0.228-0.563c0.066-0.188,0.123-0.378,0.171-0.571c0.064-0.253,0.112-0.51,0.147-0.769
			c0.001-0.006,0.002-0.012,0.003-0.019c0.035-0.26,0.056-0.522,0.064-0.786V37.05c0.007-0.256,0.002-0.514-0.015-0.771
			c-0.001-0.019-0.002-0.039-0.004-0.058c-0.018-0.258-0.047-0.515-0.088-0.771c-0.064-0.379-0.179-0.766-0.332-1.158
			c-0.102-0.261-0.22-0.524-0.35-0.788c-0.325-0.659-0.726-1.325-1.135-1.98c-0.164-0.262-0.329-0.523-0.49-0.78
			c-0.162-0.258-0.321-0.513-0.472-0.765c-0.152-0.252-0.296-0.5-0.428-0.743c-0.018-0.034-0.034-0.064-0.052-0.098
			c-0.099-0.185-0.195-0.365-0.286-0.537c-0.099-0.187-0.191-0.364-0.281-0.538c-0.029-0.057-0.062-0.118-0.091-0.174
			c-0.11-0.216-0.214-0.423-0.311-0.627c-0.293-0.61-0.533-1.179-0.742-1.791c-0.055-0.161-0.109-0.323-0.16-0.492
			c-0.062-0.205-0.121-0.416-0.178-0.638c-0.078-0.275-0.135-0.579-0.165-0.904c-0.031-0.325-0.036-0.67-0.011-1.025
			c0.041-0.594,0.17-1.217,0.392-1.825c0.044-0.12,0.085-0.24,0.137-0.358c0.015-0.035,0.023-0.069,0.027-0.103
			c0.001-0.011,0.001-0.021,0.001-0.031c0-0.023-0.001-0.046-0.005-0.068c-0.002-0.011-0.005-0.021-0.008-0.032
			c-0.006-0.022-0.015-0.042-0.025-0.062c-0.004-0.008-0.008-0.017-0.013-0.025c-0.017-0.026-0.036-0.051-0.059-0.072
			c-0.001-0.001-0.003-0.002-0.004-0.003c-0.022-0.019-0.046-0.035-0.072-0.048c-0.009-0.004-0.018-0.007-0.027-0.011
			c-0.02-0.008-0.041-0.014-0.062-0.018c-0.011-0.002-0.021-0.003-0.032-0.004c-0.022-0.002-0.045,0-0.067,0.003
			c-0.01,0.001-0.021,0.002-0.031,0.004c-0.033,0.008-0.066,0.02-0.098,0.04c0,0,0,0,0,0c-0.249,0.152-0.486,0.305-0.715,0.458
			c-0.957,0.644-1.736,1.304-2.362,1.967c-0.31,0.328-0.583,0.658-0.822,0.986c-0.063,0.087-0.118,0.174-0.176,0.26
			c-0.7,1.037-1.077,2.065-1.234,3.041c-0.029,0.178-0.052,0.356-0.067,0.53c-0.087,1.028,0.055,1.984,0.286,2.817
			c0.007,0.024,0.013,0.05,0.02,0.074c0.049,0.17,0.102,0.333,0.157,0.492c0.023,0.068,0.046,0.136,0.071,0.202
			c0.045,0.123,0.092,0.241,0.14,0.355c0.08,0.193,0.161,0.375,0.241,0.543c0.128,0.269,0.253,0.505,0.364,0.704
			c0.074,0.133,0.141,0.249,0.199,0.347c0.064,0.107,0.136,0.223,0.212,0.343c0.01,0.016,0.019,0.031,0.029,0.047
			c0.065,0.103,0.135,0.212,0.207,0.324c0.559,0.868,1.287,1.979,1.83,3.18c0,0,0,0.001,0,0.001
			c0.105,0.232,0.203,0.467,0.291,0.705c0.084,0.226,0.16,0.454,0.224,0.684c0.412,1.462,0.382,2.968-0.67,4.269
			c-0.054,0.072-0.115,0.141-0.175,0.21c-0.241,0.272-0.515,0.508-0.685,0.644c-0.223,0.187-0.445,0.145-0.546,0.11
			c-0.193-0.084-0.385-0.171-0.576-0.269c-0.004-0.002-0.009-0.004-0.013-0.006c-0.084-0.038-0.165-0.098-0.249-0.136
			c-0.164-0.098-0.351-0.201-0.516-0.299c-0.103-0.065-0.183-0.125-0.285-0.189c-0.165-0.098-0.307-0.193-0.446-0.309
			c-0.103-0.064-0.183-0.124-0.281-0.211c-0.142-0.12-0.261-0.235-0.406-0.355c-0.079-0.073-0.158-0.147-0.236-0.22
			c-0.121-0.12-0.271-0.243-0.392-0.387c-0.097-0.104-0.194-0.209-0.29-0.313c-0.092-0.1-0.297-0.347-0.382-0.454
			c-0.041-0.051-0.084-0.102-0.119-0.152c-0.167-0.213-0.311-0.421-0.452-0.652L35.57,39.06c-0.158-0.257-0.317-0.513-0.45-0.788
			c-0.137-0.253-0.251-0.502-0.362-0.772l-0.036-0.052c-0.284-0.686-0.494-1.404-0.631-2.154c-0.001-0.005-0.002-0.009-0.003-0.014
			c-0.039-0.238-0.053-0.47-0.059-0.62c-0.004-0.102-0.004-0.167-0.004-0.167c-0.009-0.155-0.025-0.309-0.045-0.463
			c-0.073-0.568-0.222-1.127-0.46-1.65c-0.084-0.184-0.179-0.363-0.285-0.537c-0.004-0.006-0.008-0.013-0.012-0.019
			c-0.008-0.013-0.016-0.027-0.024-0.04c-0.097-0.153-0.204-0.302-0.319-0.445c-0.003-0.004-0.006-0.007-0.009-0.011
			c-0.013-0.016-0.026-0.032-0.039-0.047c-0.116-0.139-0.24-0.272-0.375-0.4c-0.02-0.019-0.04-0.037-0.061-0.055
			c-0.138-0.127-0.285-0.248-0.444-0.361c-0.017-0.012-0.036-0.024-0.053-0.036c-0.168-0.117-0.345-0.228-0.536-0.328
			c0,0,0,0-0.001,0c-0.045-0.023-0.078-0.055-0.101-0.091c-0.023-0.036-0.035-0.076-0.038-0.117
			c-0.007-0.109,0.053-0.221,0.163-0.263c0.028-0.011,0.058-0.017,0.092-0.017c0.121-0.002,0.238,0.005,0.356,0.009
			c0.089,0.003,0.179,0.005,0.266,0.012c0.096,0.008,0.189,0.021,0.283,0.033c0.085,0.011,0.172,0.02,0.255,0.034
			c0.092,0.016,0.181,0.036,0.27,0.056c0.082,0.018,0.165,0.034,0.245,0.055c0.087,0.023,0.171,0.05,0.257,0.076
			c0.078,0.024,0.158,0.046,0.234,0.073c0.083,0.029,0.162,0.062,0.242,0.094c0.074,0.03,0.15,0.057,0.223,0.089
			c0.078,0.034,0.152,0.072,0.228,0.109c0.07,0.034,0.142,0.067,0.209,0.103c0.073,0.039,0.142,0.08,0.212,0.121
			c0.066,0.038,0.134,0.075,0.198,0.115c0.065,0.041,0.127,0.084,0.19,0.127c0.002,0.001,0.003,0.002,0.005,0.003
			c0.062,0.042,0.126,0.083,0.185,0.126c0.062,0.045,0.12,0.092,0.179,0.138c0.057,0.044,0.115,0.087,0.169,0.132
			c0.021,0.018,0.04,0.036,0.061,0.054c0.035,0.03,0.069,0.06,0.103,0.091c0.051,0.045,0.104,0.091,0.153,0.137
			c0.052,0.049,0.098,0.099,0.147,0.148c0.034,0.034,0.07,0.069,0.102,0.103c0.011,0.012,0.022,0.023,0.033,0.034
			c0.047,0.051,0.089,0.102,0.132,0.153c0.038,0.045,0.079,0.089,0.115,0.134c0.042,0.052,0.078,0.104,0.116,0.156
			c0.031,0.042,0.066,0.085,0.094,0.127c0.037,0.054,0.068,0.106,0.1,0.158c0.024,0.038,0.051,0.078,0.073,0.115
			c0.033,0.058,0.06,0.114,0.088,0.17c0.015,0.03,0.033,0.061,0.046,0.09c0.038,0.084-0.249-0.613-0.41-0.998
			c-0.031-0.074-0.059-0.146-0.089-0.219c-0.076-0.186-0.15-0.371-0.221-0.554c-0.047-0.122-0.095-0.245-0.139-0.366
			c-0.024-0.064-0.045-0.128-0.067-0.192c-0.044-0.123-0.088-0.246-0.129-0.368c-0.124-0.371-0.234-0.739-0.328-1.104
			c-0.423-1.643-0.522-3.24-0.117-4.911c0.249-0.933,0.742-1.795,1.376-2.6c0.181-0.23,0.374-0.455,0.575-0.676
			c0.101-0.11,0.204-0.22,0.309-0.328c0.294-0.303,0.603-0.597,0.92-0.885c0.342-0.31,0.694-0.611,1.048-0.905
			c0.022-0.018,0.044-0.037,0.066-0.055c0.234-0.177,0.47-0.353,0.707-0.53c0.118-0.088,0.236-0.176,0.354-0.264
			c0.355-0.264,0.71-0.529,1.063-0.795c0.47-0.354,0.936-0.711,1.39-1.074c0.682-0.544,1.338-1.102,1.948-1.684
			c0.117-0.111,0.229-0.222,0.335-0.333c0.359-0.372,0.659-0.739,0.914-1.1c0.085-0.12,0.165-0.24,0.241-0.359
			c0.151-0.238,0.284-0.474,0.403-0.708c0.119-0.234,0.224-0.465,0.319-0.694c0.085-0.204,0.161-0.406,0.233-0.606
			c0.138-0.383,0.257-0.761,0.379-1.132c0.005-0.016,0.011-0.033,0.016-0.05c0.096-0.305,0.17-0.6,0.227-0.888
			c0.006-0.032,0.015-0.065,0.021-0.097c0.057-0.304,0.092-0.599,0.111-0.886c0.001-0.017,0.003-0.035,0.004-0.052
			c0.017-0.296,0.015-0.583-0.004-0.862c-0.019-0.283-0.055-0.559-0.106-0.828c-0.076-0.403-0.183-0.791-0.314-1.167
			c-0.174-0.501-0.389-0.982-0.623-1.449c-0.058-0.117-0.118-0.233-0.179-0.348c-0.016-0.03-0.024-0.06-0.028-0.089
			c-0.001-0.008-0.001-0.016-0.002-0.025C47.251,2.586,47.253,2.565,47.258,2.545z M46.509,46.401
			c-0.135-0.138-0.287-0.303-0.462-0.471C46.222,46.098,46.375,46.263,46.509,46.401z M42.47,15.052l-1.691-0.172l-0.631-1.542
			l-0.43-0.044l-0.149,1.463l-1.524-0.155l0.448-4.41l2.392,0.243c0.574,0.058,1.003,0.231,1.284,0.519
			c0.281,0.287,0.4,0.643,0.358,1.066c-0.049,0.486-0.237,0.836-0.562,1.05c-0.118,0.077-0.257,0.131-0.407,0.173L42.47,15.052z
			 M36.976,5.596c0.22-0.004,0.439-0.017,0.66-0.017c3.381,0,6.642,0.512,9.712,1.461c-0.004,0.32-0.037,0.649-0.098,0.99
			c-0.053,0.295-0.125,0.598-0.225,0.914l-0.009,0.027c-2.96-0.944-6.11-1.458-9.379-1.458c-0.968,0-1.924,0.051-2.87,0.138
			C19.09,9.1,6.768,22.298,6.718,38.335l-0.965,0.258l-0.96,0.257c-0.002-0.14-0.011-0.277-0.011-0.417
			C4.783,20.51,19.138,5.949,36.976,5.596z M35.042,12.061l1.7-0.141l0.088,1.057l-1.7,0.141l0.044,0.522l2.188-0.182l0.095,1.144
			l-3.748,0.312l-0.368-4.417l3.668-0.305l0.095,1.145l-2.108,0.175L35.042,12.061z M32.023,15.338l-1.508,0.418l-0.741-2.671
			l-0.137-0.494l-1.339,0.372l-0.307-1.107l3.743-1.038l0.437-0.121l0.307,1.107l-1.333,0.37L32.023,15.338z M26.569,17.193
			l0.038,0.182l-0.264,0.127l-1.141,0.548l-0.624-4.618l1.695-0.814l2.101,2.198l1.12,1.172l-1.441,0.692l-0.548-0.676l-0.082,0.04
			l-0.996,0.479L26.569,17.193z M21.572,18.729l0.777,1.513l-1.34,1.078l-3.756-2.667l1.314-1.056l2.41,2.172l-1.521-2.888
			l1.047-0.842l2.508,2.068l-1.602-2.796l1.267-1.018l1.794,4.245l-1.292,1.04l-1.316-1.079l-0.847-0.775l-0.016,0.013
			L21.572,18.729z M16.191,28.159l-0.693,1.365l-3.952-2.007l1.089-2.144c0.262-0.515,0.577-0.852,0.946-1.011
			c0.37-0.159,0.744-0.142,1.123,0.051c0.435,0.221,0.694,0.522,0.777,0.903c0.03,0.138,0.029,0.287,0.014,0.442l2.016-0.198
			l-0.769,1.515l-1.666,0.033l-0.196,0.385L16.191,28.159z M11.603,33.765l0.312-1.677l1.129,0.21l-0.312,1.677l1.492,0.277
			l-0.286,1.539l-4.358-0.81l0.672-3.612l1.129,0.21l-0.386,2.073L11.603,33.765z M10.612,30.296l0.494-1.485l4.206,1.4
			l-0.494,1.485L10.612,30.296z M14.218,22.628l2.25-2.912l0.909,0.702l-1.294,1.674l0.436,0.337l1.043-1.35l0.839,0.649
			l-1.043,1.35l0.415,0.32l1.343-1.738l0.909,0.702l-2.299,2.976L14.218,22.628z M4.377,52.282C4.283,52.308,4.19,52.32,4.101,52.32
			c-0.485,0-0.875-0.356-0.922-0.893L2.346,41.91c-0.056-0.635,0.391-1.281,0.997-1.443l1.481-0.397l0.96-0.257l0.96-0.257
			l10.102-2.707c0.016-0.21,0.03-0.42,0.052-0.628c0.022-0.213,0.052-0.424,0.081-0.635c0.504-3.691,1.973-7.074,4.146-9.887
			c3.814-4.938,9.79-8.122,16.512-8.122c0.526,0,1.046,0.026,1.563,0.064c-0.022,0.016-0.044,0.033-0.066,0.049l-0.021,0.016
			l-0.02,0.017c-0.336,0.278-0.67,0.563-0.997,0.854c-0.36,0.321-0.711,0.65-1.046,0.991c-8.985,0.276-16.405,6.856-17.98,15.459
			c-0.039,0.213-0.078,0.427-0.11,0.643c-0.031,0.211-0.057,0.423-0.081,0.635c-0.079,0.7-0.123,1.409-0.123,2.13
			c0,3.393,0.904,6.578,2.478,9.333c0.102,0.178,0.203,0.356,0.311,0.53c0.109,0.177,0.222,0.351,0.336,0.523
			c0.559,0.846,1.184,1.645,1.868,2.388c1.633-0.753,3.266-1.504,4.901-2.252c1.051-0.481,2.103-0.961,3.156-1.44
			c0.125-0.057,0.25-0.114,0.375-0.171c0.166-0.075,0.198-0.131,0.317,0.011c0.157,0.188,0.307,0.384,0.444,0.588
			c0.316,0.468,0.569,0.979,0.725,1.523c0.183,0.64,0.255,1.287,0.504,1.912c0.238,0.599,0.56,1.161,0.929,1.688
			c0.62,0.885,1.379,1.651,2.154,2.399c0.624,0.577,1.211,1.197,1.821,1.789c0.415-0.031,0.826-0.074,1.233-0.132
			c-0.899-0.886-1.792-1.78-2.7-2.657c-0.665-0.643-1.302-1.32-1.818-2.092c-0.294-0.441-0.548-0.91-0.734-1.407
			c-0.205-0.545-0.277-1.11-0.429-1.668c-0.276-1.017-0.832-1.928-1.523-2.715c-0.19-0.216-0.396-0.414-0.605-0.609
			c-0.171-0.159-0.342-0.317-0.513-0.476c-0.168-0.156-0.334-0.315-0.492-0.482c-0.012-0.012-0.024-0.024-0.036-0.036
			c-1.471-1.578-2.911-3.188-4.306-4.834c-0.568-0.671-1.137-1.346-1.657-2.056c-0.51-0.697-0.92-1.463-1.458-2.141
			c-0.1-0.126-0.248-0.357-0.418-0.399c-0.153-0.038-0.314,0.079-0.484,0.027c-0.163-0.051-0.27-0.179-0.362-0.317
			c-0.034-0.05-0.066-0.102-0.098-0.152c-0.078-0.123-0.15-0.25-0.223-0.376c-0.103-0.176-0.205-0.353-0.302-0.532
			c-0.062-0.113-0.125-0.226-0.186-0.34c-0.069,0.071-0.138,0.143-0.207,0.215c-0.106,0.11-0.087,0.143-0.206,0.067
			c-0.266-0.171-0.499-0.654-0.571-0.947c-0.157-0.64,0.46-1.199,0.858-1.617c0.462-0.485,0.927-0.98,1.422-1.43
			c0.393-0.358,0.799-0.716,1.353-0.596c0.366,0.079,0.625,0.291,0.903,0.509l-0.001,0c0,0,0.144,0.118,0.113,0.151
			c-0.101,0.104-0.201,0.209-0.302,0.313c0.412,0.214,0.822,0.437,1.215,0.685c0.31,0.196,0.57,0.385,0.474,0.797
			c-0.041,0.177-0.027,0.218,0.102,0.352c0.14,0.146,0.31,0.266,0.475,0.383c0.017,0.012,0.034,0.025,0.052,0.037
			c0.198,0.14,0.401,0.271,0.606,0.4c0.228,0.144,0.457,0.286,0.685,0.43c0.21,0.133,0.418,0.268,0.62,0.412
			c1.465,1.049,2.829,2.25,4.187,3.431c0.335,0.877,0.775,1.713,1.308,2.484c0.894,1.29,2.051,2.388,3.379,3.222
			c0.236,0.148,0.478,0.289,0.724,0.419c0.062,0.033,0.123,0.07,0.186,0.102c0.207,0.105,0.418,0.201,0.63,0.293
			c0.715,0.309,1.461,0.547,2.224,0.708c0.599,0.126,1.209,0.201,1.821,0.225c0.175,0.007,0.666-0.023,0.666-0.023
			c0.101,0.004,0.193,0.016,0.261,0.048c0.184,0.087,0.386,0.348,0.538,0.486c0.589,0.535,1.121,1.136,1.694,1.689
			c0.625,0.603,1.24,1.217,1.855,1.83c0.019,0.019,0.037,0.037,0.056,0.056c0.778,0.776,1.553,1.556,2.33,2.335
			c0.974-1.041,1.832-2.191,2.553-3.431c-0.221,0.113-0.441,0.227-0.662,0.339c-0.602,0.308-1.194,0.619-1.826,0.86
			c-0.128,0.049-0.256,0.1-0.382,0.153c-0.057,0.024-0.131,0.081-0.191,0.084c-0.091,0.004-0.049-0.001-0.128-0.057
			c-0.209-0.149-0.392-0.393-0.573-0.575c-0.06-0.06-0.12-0.12-0.18-0.18c-0.145-0.146-0.291-0.291-0.436-0.437
			c-0.146-0.146-0.291-0.292-0.437-0.437l0,0c-0.241-0.242-0.483-0.483-0.724-0.725c-0.725-0.727-1.45-1.453-2.188-2.164
			c0.577-0.087,1.146-0.219,1.702-0.393c0.556-0.174,1.099-0.39,1.623-0.646c0.175-0.085,0.347-0.175,0.517-0.269
			c0.17-0.094,0.338-0.192,0.503-0.294c0.285-0.176,0.562-0.365,0.83-0.565c0.268-0.2,0.528-0.412,0.778-0.635
			c0.261-0.233,0.511-0.477,0.75-0.733c0.109-0.117,0.216-0.237,0.321-0.359c0.035-0.04,0.067-0.073,0.1-0.101
			c0.098-0.084,0.195-0.123,0.346-0.178c0.916-0.336,1.838-0.671,2.768-0.974c0.334-0.109,0.669-0.212,1.006-0.31
			c0.156-0.046,0.312-0.095,0.469-0.138c0.174-0.048,0.35-0.088,0.526-0.127c0.12-0.027,0.241-0.052,0.362-0.077
			c0.298-0.061,0.596-0.118,0.892-0.186c0.381-0.087,0.806-0.161,1.156-0.346c0.045-0.024,0.092-0.054,0.132-0.091
			c0.019-0.018,0.041-0.034,0.052-0.058c0.067-0.148,0.002-0.294,0.122-0.443c0.06-0.075,0.137-0.13,0.223-0.169
			c0.257-0.116,0.559-0.178,0.866-0.217c0.307-0.04,0.619-0.058,0.894-0.089c-0.028-0.064-0.056-0.128-0.083-0.192
			c-0.024-0.055-0.048-0.11-0.071-0.165l0,0c0,0,0.002-0.005,0.007-0.014c0.009-0.017,0.028-0.048,0.057-0.074
			c0.014-0.013,0.032-0.025,0.051-0.033c0.001-0.001,0.001-0.002,0.002-0.002c0.09-0.036,0.187-0.086,0.246-0.104
			c0.056-0.016,0.111-0.031,0.168-0.044c0.082-0.018,0.168-0.031,0.255-0.04c0.025-0.003,0.05-0.003,0.076-0.005
			c0.083-0.005,0.167-0.007,0.248,0.001c0.132,0.015,0.246,0.048,0.347,0.098c0.004,0.002,0.008,0.005,0.012,0.007
			c0.096,0.049,0.18,0.11,0.255,0.184c0.078,0.077,0.148,0.166,0.212,0.263c0.007,0.011,0.014,0.024,0.022,0.035
			c0.056,0.088,0.109,0.18,0.162,0.278c0.145,0.271,0.278,0.55,0.406,0.831c0.128,0.281,0.252,0.564,0.379,0.844
			c0.075,0.167,0.163,0.347,0.245,0.533c0.08,0.179,0.154,0.364,0.21,0.551c0.063,0.212,0.102,0.425,0.093,0.631
			c-0.026,0.304-0.237,0.559-0.464,0.744c-0.171,0.139-0.369,0.208-0.555,0.306c-0.002,0.001-0.003,0-0.005,0.001
			c-0.096,0.049-0.19-0.034-0.19-0.034c-0.047-0.109-0.095-0.218-0.142-0.327c-0.362,0.332-0.737,0.655-1.133,0.946
			c-0.166,0.122-0.341,0.261-0.556,0.254c-0.187-0.006-0.304-0.193-0.478-0.19c-0.202,0.003-0.447,0.198-0.606,0.299
			c-0.661,0.418-1.259,0.924-1.904,1.363c-0.625,0.426-1.284,0.804-1.942,1.177c-0.516,0.293-1.037,0.578-1.56,0.86
			c-0.533,1.301-1.192,2.536-1.965,3.69c-0.019,0.029-0.038,0.058-0.057,0.087c-0.165,0.243-0.336,0.482-0.51,0.718
			c-0.041,0.055-0.083,0.111-0.124,0.166c-0.179,0.237-0.361,0.471-0.55,0.7c-0.002,0.002-0.004,0.005-0.006,0.007
			c-0.187,0.227-0.381,0.448-0.578,0.667c-0.046,0.051-0.092,0.103-0.139,0.153c-0.064,0.07-0.131,0.136-0.195,0.205
			c0.001,0.001,0.002,0.002,0.003,0.003c-0.136,0.144-0.273,0.287-0.413,0.427c-0.027,0.027-0.054,0.053-0.081,0.079
			c-0.189,0.187-0.381,0.37-0.577,0.55c-0.048,0.044-0.095,0.088-0.143,0.131c-0.216,0.195-0.435,0.385-0.659,0.571
			c-0.042,0.035-0.086,0.069-0.129,0.104c-0.201,0.164-0.405,0.325-0.613,0.482c-0.043,0.033-0.086,0.066-0.129,0.098
			c-0.234,0.174-0.472,0.343-0.713,0.507c-0.054,0.036-0.108,0.072-0.162,0.108c-0.224,0.149-0.45,0.295-0.68,0.436
			c-0.03,0.019-0.06,0.038-0.09,0.056c-0.252,0.153-0.508,0.299-0.766,0.441c-0.061,0.033-0.122,0.066-0.183,0.099
			c-0.263,0.141-0.529,0.279-0.799,0.409c-0.003,0.001-0.005,0.002-0.008,0.004c-0.268,0.129-0.54,0.25-0.814,0.368
			c-0.064,0.028-0.129,0.055-0.193,0.082c-0.274,0.114-0.55,0.224-0.83,0.327c-0.036,0.013-0.072,0.025-0.107,0.038
			c-0.256,0.092-0.514,0.179-0.775,0.262c-0.063,0.02-0.125,0.04-0.188,0.06c-0.285,0.088-0.573,0.17-0.863,0.245
			c-0.054,0.014-0.109,0.027-0.164,0.041c-0.23,0.058-0.462,0.112-0.695,0.162c0,0-0.001-0.001-0.001-0.001
			c-0.03,0.006-0.059,0.014-0.089,0.02c-0.056,0.012-0.111,0.024-0.167,0.036c-0.296,0.06-0.595,0.113-0.895,0.16
			c-0.066,0.01-0.132,0.02-0.199,0.029c-0.278,0.041-0.557,0.077-0.838,0.107c-0.038,0.004-0.075,0.009-0.113,0.013
			c-0.308,0.031-0.618,0.053-0.93,0.071c-0.073,0.004-0.145,0.007-0.218,0.011c-0.317,0.014-0.636,0.024-0.957,0.024
			c-0.887,0-1.759-0.062-2.617-0.169c-0.883-0.111-1.75-0.27-2.595-0.487c-1.666-0.429-3.251-1.058-4.729-1.861
			c-0.606-0.329-1.187-0.697-1.754-1.083c-0.166-0.113-0.337-0.22-0.5-0.338c-0.028-0.02-0.054-0.043-0.081-0.063
			c-0.688-0.503-1.346-1.046-1.967-1.627c0,0,0,0,0,0c-0.657-0.614-1.277-1.267-1.85-1.961c-0.61-0.739-1.168-1.522-1.673-2.342
			c-0.107-0.174-0.21-0.352-0.312-0.53c-0.102-0.177-0.205-0.353-0.301-0.533h0L9.37,50.945l-0.946,0.253L7.47,51.454L4.377,52.282z
			 M52.25,59.067c0.055,0.162,0.157,0.346,0.308,0.553c0.148,0.202,0.29,0.356,0.425,0.463c0.136,0.106,0.27,0.159,0.403,0.159
			c0.133,0,0.272-0.053,0.416-0.159c0.13-0.095,0.208-0.212,0.235-0.35c0.026-0.139-0.012-0.301-0.114-0.486l1.327-0.529
			c0.138,0.326,0.191,0.631,0.158,0.916c-0.033,0.285-0.135,0.546-0.305,0.784c-0.17,0.238-0.393,0.457-0.667,0.658
			c-0.376,0.275-0.753,0.439-1.132,0.494c-0.378,0.055-0.741-0.002-1.088-0.169c-0.347-0.168-0.664-0.447-0.949-0.838
			c-0.285-0.39-0.455-0.776-0.509-1.158c-0.054-0.382,0.002-0.745,0.169-1.089c0.167-0.344,0.439-0.653,0.815-0.928
			c0.264-0.193,0.537-0.335,0.819-0.427c0.282-0.093,0.56-0.117,0.833-0.072c0.274,0.044,0.529,0.176,0.768,0.396L53.386,58.5
			c-0.201-0.214-0.37-0.323-0.509-0.327c-0.139-0.004-0.275,0.043-0.409,0.14c-0.123,0.09-0.204,0.198-0.242,0.323
			C52.187,58.761,52.195,58.905,52.25,59.067z M55.311,57.518c-0.357-0.326-0.6-0.671-0.729-1.034
			c-0.129-0.363-0.146-0.73-0.05-1.101s0.301-0.728,0.615-1.071c0.317-0.347,0.655-0.584,1.013-0.712
			c0.359-0.127,0.724-0.142,1.096-0.045c0.372,0.097,0.736,0.309,1.094,0.635c0.357,0.326,0.601,0.67,0.731,1.031
			c0.13,0.362,0.149,0.727,0.054,1.096c-0.094,0.369-0.3,0.727-0.616,1.074c-0.314,0.344-0.651,0.58-1.011,0.709
			c-0.36,0.129-0.727,0.146-1.101,0.05C56.034,58.054,55.668,57.844,55.311,57.518z M59.034,52.029
			c-0.232,0.002-0.463-0.064-0.693-0.197c-0.233-0.134-0.406-0.302-0.519-0.503c-0.113-0.201-0.166-0.418-0.16-0.651
			c0.007-0.233,0.074-0.461,0.204-0.685c0.13-0.226,0.295-0.4,0.493-0.52c0.198-0.121,0.412-0.182,0.642-0.185
			c0.231-0.002,0.462,0.064,0.695,0.198c0.23,0.133,0.403,0.301,0.517,0.502c0.114,0.201,0.169,0.418,0.163,0.65
			c-0.006,0.232-0.074,0.461-0.204,0.687c-0.129,0.224-0.293,0.397-0.492,0.519C59.481,51.965,59.265,52.027,59.034,52.029z
			 M59.867,53.341c0.148-0.219,0.314-0.352,0.498-0.401c0.184-0.049,0.371-0.009,0.56,0.119c0.189,0.128,0.296,0.287,0.319,0.475
			c0.024,0.189-0.039,0.393-0.187,0.612c-0.145,0.215-0.311,0.348-0.496,0.398c-0.185,0.05-0.373,0.012-0.562-0.117
			c-0.189-0.128-0.295-0.287-0.318-0.478C59.661,53.759,59.722,53.556,59.867,53.341z M42.184,63.402l1.676-0.316l0.196,1.043
			l-1.676,0.316l0.097,0.515l2.158-0.407l0.213,1.128l-3.696,0.696l-0.82-4.356l3.616-0.681l0.213,1.129l-2.079,0.392L42.184,63.402
			z M44.477,61.173l1.463-0.555l1.165,3.071l1.877-0.712l0.407,1.074l-3.341,1.267L44.477,61.173z M37.148,66.548l-1.531,0.025
			l-0.072-4.432l2.404-0.039c0.578-0.009,1.023,0.112,1.336,0.365c0.313,0.252,0.473,0.591,0.48,1.017
			c0.008,0.488-0.137,0.858-0.436,1.109c-0.108,0.091-0.24,0.16-0.384,0.219l1.117,1.69l-1.699,0.027l-0.807-1.458l-0.432,0.007
			L37.148,66.548z M17.796,57.18L17.05,57.63l-1.098-1.106l4.158-2.104l1.325,1.334l-2.127,4.148l-1.127-1.134l0.459-0.739
			L17.796,57.18z M22.742,56.974l1.953,1.307c0.331,0.222,0.578,0.46,0.742,0.715c0.163,0.255,0.24,0.519,0.23,0.792
			c-0.011,0.273-0.109,0.549-0.296,0.828c-0.187,0.279-0.404,0.475-0.653,0.589c-0.248,0.114-0.522,0.144-0.819,0.09
			c-0.298-0.054-0.613-0.192-0.944-0.414l-0.653-0.437l-0.725,1.083l-1.301-0.871L22.742,56.974z M26.73,59.562l2.174,0.893
			c0.368,0.152,0.658,0.336,0.869,0.553c0.211,0.217,0.338,0.461,0.382,0.731c0.044,0.27,0.002,0.56-0.125,0.871
			c-0.128,0.311-0.302,0.546-0.523,0.707c-0.221,0.161-0.483,0.245-0.785,0.251c-0.303,0.007-0.638-0.066-1.007-0.218l-0.727-0.299
			l-0.495,1.205l-1.448-0.595L26.73,59.562z M31.953,61.444l1.843,0.374l0.533,4.631l-1.566-0.318l-0.029-0.869l-1.173-0.238
			l-0.372,0.788l-1.527-0.31L31.953,61.444z M37.636,71.287c-13.091,0-24.392-7.659-29.672-18.739l0.958-0.257l0.954-0.256
			c5.042,10.247,15.589,17.318,27.76,17.318c17.05,0,30.921-13.871,30.921-30.921c0-0.706-0.032-1.405-0.079-2.1l0.949-0.254
			l0.95-0.255c0.068,0.862,0.113,1.73,0.113,2.609C70.49,56.578,55.781,71.287,37.636,71.287z M71.431,34.315l-1.167,0.313
			l-0.943,0.253l-0.942,0.252l-1.214,0.325l-1.824,0.489c-0.277-0.21-0.63-0.378-1.083-0.428c-0.09-0.01-0.183-0.015-0.277-0.015
			c-0.219,0-0.449,0.027-0.685,0.079c-0.082,0.018-0.16,0.039-0.239,0.062c-0.116,0.034-0.211,0.077-0.288,0.112
			c-0.02,0.009-0.041,0.019-0.062,0.028l-0.062,0.025l-0.059,0.032l-0.38,0.203L62.14,36.21c-0.021,0.027-0.041,0.053-0.059,0.079
			c-0.378,0.052-0.779,0.137-1.15,0.306c-0.259,0.117-0.479,0.286-0.653,0.503c-0.068,0.084-0.118,0.168-0.161,0.25l-1.625,0.435
			l0,0c0,0-0.01,0.002-0.016,0.004c-0.066,0.016-0.473,0.114-0.981,0.261c-0.033,0.01-0.1,0.029-0.1,0.029
			c-0.268,0.079-2.445,0.655-2.445,0.655c0.426-0.767,1.236-2.639,0.9-5.263c-0.104-0.816-0.313-1.7-0.687-2.65
			c-0.586-1.594-1.025-2.856-1.338-3.879v0c-0.001-0.002-0.001-0.004-0.002-0.006c-0.06-0.197-0.115-0.383-0.165-0.563
			c-0.057-0.2-0.108-0.392-0.154-0.572c-0.111-0.441-0.189-0.825-0.236-1.166c0.288,0.326,0.566,0.662,0.833,1.006
			c0.131,0.168,0.26,0.338,0.386,0.51c0.124,0.17,0.247,0.341,0.366,0.515L64.9,23.972v0l0.049-0.013l0.954-0.256l0.965-0.259
			l3.529-0.945c0.094-0.025,0.187-0.037,0.276-0.037c0.485,0,0.875,0.356,0.922,0.893l0.833,9.518
			C72.483,33.507,72.037,34.153,71.431,34.315z"/>
		<polygon class="st0" points="32.677,63.517 32.649,62.744 32.629,62.74 32.309,63.442 31.99,64.117 32.702,64.262 		"/>
	</g>
	<g>
		<g>
			<path class="st0" d="M128.665,38.637v-1.304c-0.131-0.147-0.428-0.355-1.083-0.434c-0.339-0.041-0.601-0.12-0.811-0.215v1.364
				c0.176,0.115,0.445,0.225,0.868,0.277C128.109,38.381,128.431,38.501,128.665,38.637L128.665,38.637z"/>
			<path class="st0" d="M128.665,40.533v-1.304c-0.131-0.147-0.428-0.355-1.083-0.434c-0.339-0.041-0.601-0.12-0.811-0.215v1.364
				c0.176,0.115,0.445,0.225,0.868,0.277C128.109,40.277,128.431,40.397,128.665,40.533L128.665,40.533z"/>
			<path class="st0" d="M128.665,44.326v-1.304c-0.131-0.147-0.428-0.355-1.083-0.434c-0.339-0.041-0.601-0.12-0.811-0.215v1.364
				c0.176,0.115,0.445,0.225,0.868,0.277C128.109,44.07,128.431,44.19,128.665,44.326L128.665,44.326z"/>
			<path class="st0" d="M128.665,36.74v-1.304c-0.131-0.147-0.428-0.355-1.083-0.434c-0.339-0.041-0.601-0.12-0.811-0.215v1.364
				c0.176,0.115,0.445,0.225,0.868,0.277C128.109,36.484,128.431,36.604,128.665,36.74L128.665,36.74z"/>
			<path class="st0" d="M128.665,42.429v-1.304c-0.131-0.147-0.428-0.355-1.083-0.434c-0.339-0.041-0.601-0.12-0.811-0.215v1.364
				c0.176,0.115,0.445,0.225,0.868,0.277C128.109,42.174,128.431,42.293,128.665,42.429L128.665,42.429z"/>
			<path class="st0" d="M128.665,46.215v-1.297c-0.131-0.147-0.428-0.355-1.083-0.434c-0.339-0.041-0.601-0.12-0.811-0.215v1.364
				c0.176,0.115,0.445,0.225,0.868,0.277C128.102,45.966,128.431,46.082,128.665,46.215L128.665,46.215z"/>
			<path class="st0" d="M128.665,34.843v-1.304c-0.131-0.147-0.428-0.355-1.083-0.434c-0.339-0.041-0.601-0.12-0.811-0.215v1.364
				c0.176,0.115,0.445,0.225,0.868,0.277C128.109,34.588,128.431,34.707,128.665,34.843L128.665,34.843z"/>
			<path class="st0" d="M128.665,31.05v-1.304c-0.131-0.147-0.428-0.355-1.083-0.434c-0.339-0.041-0.601-0.12-0.811-0.215v1.364
				c0.176,0.115,0.445,0.225,0.868,0.277C128.109,30.795,128.431,30.914,128.665,31.05L128.665,31.05z"/>
			<path class="st0" d="M128.665,32.947v-1.304c-0.131-0.147-0.428-0.355-1.083-0.434c-0.339-0.041-0.601-0.12-0.811-0.215v1.364
				c0.176,0.115,0.445,0.225,0.868,0.277C128.109,32.691,128.431,32.811,128.665,32.947L128.665,32.947z"/>
			<path class="st0" d="M251.105,37.332v1.304c0.234-0.135,0.557-0.255,1.027-0.311c0.423-0.051,0.693-0.161,0.868-0.277v-1.364
				c-0.21,0.094-0.473,0.173-0.811,0.215C251.533,36.978,251.236,37.186,251.105,37.332L251.105,37.332z"/>
			<path class="st0" d="M251.105,39.229v1.304c0.234-0.135,0.557-0.255,1.027-0.311c0.423-0.051,0.693-0.161,0.868-0.277v-1.364
				c-0.21,0.094-0.473,0.173-0.811,0.215C251.533,38.875,251.236,39.083,251.105,39.229L251.105,39.229z"/>
			<path class="st0" d="M251.105,43.022v1.304c0.234-0.135,0.557-0.255,1.027-0.311c0.423-0.051,0.693-0.161,0.868-0.277v-1.364
				c-0.21,0.094-0.473,0.173-0.811,0.215C251.533,42.667,251.236,42.876,251.105,43.022L251.105,43.022z"/>
			<path class="st0" d="M251.105,35.435v1.304c0.234-0.135,0.557-0.255,1.027-0.311c0.423-0.051,0.693-0.161,0.868-0.277v-1.364
				c-0.21,0.094-0.473,0.173-0.811,0.215C251.533,35.081,251.236,35.289,251.105,35.435L251.105,35.435z"/>
			<path class="st0" d="M251.105,41.125v1.304c0.234-0.135,0.557-0.255,1.027-0.311c0.423-0.051,0.693-0.161,0.868-0.277v-1.364
				c-0.21,0.094-0.473,0.173-0.811,0.215C251.533,40.771,251.236,40.979,251.105,41.125L251.105,41.125z"/>
			<path class="st0" d="M251.105,44.919v1.297c0.234-0.133,0.563-0.248,1.027-0.304c0.423-0.051,0.693-0.161,0.868-0.277V44.27
				c-0.21,0.094-0.473,0.173-0.811,0.215C251.533,44.565,251.236,44.773,251.105,44.919L251.105,44.919z"/>
			<path class="st0" d="M251.105,33.539v1.304c0.234-0.135,0.557-0.255,1.027-0.311c0.423-0.051,0.693-0.161,0.868-0.277v-1.364
				c-0.21,0.094-0.473,0.173-0.811,0.215C251.533,33.185,251.236,33.393,251.105,33.539L251.105,33.539z"/>
			<path class="st0" d="M251.105,29.746v1.304c0.234-0.135,0.557-0.255,1.027-0.311c0.423-0.051,0.693-0.161,0.868-0.277v-1.364
				c-0.21,0.094-0.473,0.173-0.811,0.215C251.533,29.392,251.236,29.6,251.105,29.746L251.105,29.746z"/>
			<path class="st0" d="M252.324,26.991c-0.415-0.236-0.929-0.231-1.339,0.014c-10.622,6.345-13.761,8.849-14.69,10.015h-92.82
				c-0.93-1.166-4.069-3.671-14.69-10.015c-0.41-0.244-0.924-0.25-1.339-0.014c-0.417,0.236-0.675,0.682-0.675,1.162v0.412
				c0.176,0.115,0.445,0.225,0.868,0.277c0.47,0.057,0.792,0.176,1.027,0.311v-0.011c6.863,4.128,12.041,7.602,13.169,8.825
				c-1.127,1.223-6.306,4.697-13.169,8.825c-0.136-0.146-0.446-0.335-1.084-0.412c-0.339-0.041-0.601-0.12-0.811-0.215v1.617
				c0,0.48,0.259,0.925,0.675,1.162c0.203,0.116,0.43,0.173,0.657,0.173c0.236,0,0.473-0.063,0.683-0.188
				c10.621-6.344,13.76-8.848,14.689-10.015h92.819c0.93,1.166,4.069,3.671,14.689,10.015c0.21,0.125,0.447,0.188,0.683,0.188
				c0.227,0,0.454-0.057,0.657-0.173c0.417-0.236,0.675-0.682,0.675-1.162v-1.617c-0.21,0.094-0.473,0.173-0.811,0.215
				c-0.638,0.077-0.947,0.266-1.083,0.412c-6.863-4.128-12.041-7.602-13.169-8.825c1.127-1.223,6.306-4.697,13.169-8.825v0.011
				c0.234-0.135,0.557-0.255,1.027-0.311c0.423-0.051,0.693-0.161,0.868-0.277v-0.412C253,27.673,252.741,27.227,252.324,26.991
				L252.324,26.991z"/>
			<path class="st0" d="M251.105,31.643v1.304c0.234-0.135,0.557-0.255,1.027-0.311c0.423-0.051,0.693-0.161,0.868-0.277v-1.364
				c-0.21,0.094-0.473,0.173-0.811,0.215C251.533,31.288,251.236,31.496,251.105,31.643L251.105,31.643z"/>
		</g>
		<g>
			<path class="st0" d="M185.904,7.382v26.693h-5.893V19.148l0.204-5.781l-1.115,5.781L173.022,34l-6.227-14.852l-1.023-5.781
				l0.204,5.781v14.927h-8.253v-1.152l2.361-1.655v-21.08l-2.361-1.691V7.382h11.599l3.123,9.815l0.539,4.573l0.539-4.573
				l3.086-9.815H185.904z"/>
			<path class="st0" d="M200.219,7.363l3.755,3.048v4.22h-5.818v-2.268h-9.295l4.499,1.488v4.034l7.008,0.055l3.606,2.845v10.353
				l-3.68,2.937h-8.885l-3.83-3.067v-4.703h5.781v2.528h4.796v-5.818h-7.194l-3.383-2.807v-9.871l3.216-2.974L200.219,7.363
				L200.219,7.363z"/>
			<path class="st0" d="M221.636,7.363v23.645l-2.937,3.067h-9.74l-2.975-3.067V10.132l-2.267-1.654V7.363h7.882v21.804h4.424V7.363
				H221.636z"/>
		</g>
		<g>
			<path class="st0" d="M177.368,41.861l-3.848,26.711h-7.658l-2.287-15.02l-0.52-5.874l-0.502,5.874l-2.231,15.02h-7.714
				l-3.346-23.904h-0.037l-2.361-1.691v-1.115h7.473l1.933,14.703l0.502,6.636l0.409-6.636l2.361-14.703h7.138l2.231,14.703
				l0.502,6.636l0.446-6.636l1.896-14.703L177.368,41.861L177.368,41.861z"/>
			<path class="st0" d="M190.291,41.88l5.409,26.693h-6.524l-0.948-5.372h-4.61l-0.948,5.372h-6.32l4.629-23.812l-2.49-1.765V41.88
				L190.291,41.88L190.291,41.88z M183.822,58.182h4.164l-1.766-11.153l-1.078-0.038C185.141,46.991,183.822,58.182,183.822,58.182z
				"/>
			<path class="st0" d="M213.418,41.88l-6.022,12.212l5.484,12.25l2.063,1.078v1.152h-7.138l-5.037-12.826v12.826h-5.725V44.686
				l-2.361-1.691v-1.115h8.086V52.4l4.368-10.521L213.418,41.88L213.418,41.88z"/>
			<path class="st0" d="M232.905,41.88v1.115l-2.658,4.294h-12.77l4.536,1.189v3.755h7.379v4.777h-7.379v6.041h8.234l2.658,4.369
				v1.152L216.1,68.536l-0.037-26.656L232.905,41.88L232.905,41.88z"/>
		</g>
	</g>
	<g>
		<path class="st0" d="M102.059,37.054l-0.005-0.027l-0.005-0.026c-0.05,0.046-0.088,0.098-0.116,0.159
			c-0.028,0.06-0.059,0.102-0.092,0.126l0.028-0.005l0.126-0.106c0.026,0.032,0.016,0.08-0.03,0.143
			c-0.046,0.063-0.088,0.099-0.126,0.106c-0.046,0.063-0.088,0.099-0.126,0.106l0.029-0.005c-0.088,0.053-0.144,0.072-0.166,0.057
			c-0.022-0.014-0.02-0.005,0.005,0.027l0.029-0.005c0.003,0.017,0.014,0.024,0.033,0.021l0.034,0.022l0.086-0.016
			c0.053-0.028,0.126-0.106,0.218-0.232c0.039-0.099,0.076-0.16,0.11-0.185l0.005,0.027l0.34-0.364
			c0.058-0.102,0.131-0.179,0.218-0.232l0.096,0.037c-0.171,0.232-0.353,0.472-0.549,0.718c-0.197,0.246-0.393,0.461-0.593,0.643
			l0.229,0.561c0.231,0.268,0.47,0.585,0.72,0.95c0.249,0.366,0.47,0.687,0.663,0.962c0.113-0.021,0.148,0.001,0.101,0.064
			c0.074,0.078,0.158,0.181,0.253,0.309c0.094,0.13,0.169,0.234,0.225,0.316c0.088,0.148,0.209,0.291,0.364,0.426
			c0.155,0.137,0.298,0.284,0.427,0.443l-0.029,0.005l0.151,0.164c0.004,0.018,0.015,0.03,0.036,0.035
			c0.02,0.005,0.014,0.021-0.02,0.045l0.174,0.434l0.094,0.613l0.028-0.005l1.447,1.352l0.12,0.005l-0.031,0.143l0.034,0.022
			l0.011,0.053l0.057-0.01l-0.251,0.513c-0.038,0.007-0.058,0.002-0.062-0.016l0.05,0.101l-0.005-0.027
			c0.055,0.081,0.117,0.17,0.185,0.267c0.069,0.098,0.173,0.151,0.313,0.162c-0.031,0.043-0.048,0.086-0.048,0.133
			c-0.001,0.045,0.019,0.073,0.061,0.085c-0.047,0.154-0.09,0.24-0.125,0.255c-0.036,0.017-0.073,0.028-0.112,0.035l-0.19,0.227
			c-0.146,0.356-0.341,0.556-0.587,0.601c-0.224,0.059-0.444-0.01-0.66-0.208l-0.401-0.09l-0.124-0.032
			c-0.083-0.021-0.158-0.054-0.225-0.096l-0.522-0.398c-0.585-0.477-1.123-0.935-1.614-1.376c-0.49-0.44-0.952-0.912-1.386-1.418
			l0.028-0.005c-0.358-0.318-0.638-0.591-0.84-0.818c-0.202-0.228-0.406-0.461-0.61-0.697l-0.626-0.626
			c-0.038,0.007-0.056,0.015-0.054,0.023c0.002,0.01-0.006,0.025-0.021,0.045l0.029-0.005c-0.039,0.099-0.116,0.159-0.229,0.179
			l-0.008,0.111c-0.039,0.1-0.119,0.141-0.239,0.127l0.042,0.212c-0.039,0.099-0.125,0.16-0.258,0.185
			c-0.018,0.003-0.026,0.014-0.023,0.031l0.021,0.107l-0.141-0.111c-0.035,0.024-0.07,0.068-0.106,0.129
			c-0.037,0.061-0.073,0.105-0.107,0.129l0.057-0.01l-0.265,0.295l0.142-0.026c-0.024,0.078-0.055,0.166-0.094,0.265
			s-0.085,0.162-0.139,0.19l0.016,0.08l-0.142,0.026c-0.031,0.043-0.044,0.076-0.038,0.103c0.005,0.026-0.007,0.06-0.038,0.103
			c-0.038,0.007-0.07,0.017-0.097,0.031c-0.026,0.015-0.049,0.022-0.068,0.026c-0.02,0.004-0.027,0.015-0.024,0.032l0.011,0.053
			c-0.119,0.095-0.191,0.15-0.218,0.164c-0.026,0.014-0.038,0.029-0.035,0.048c-0.031,0.043-0.078,0.101-0.141,0.177
			c-0.064,0.075-0.113,0.126-0.147,0.15l-0.251,0.211c0.034-0.024,0.089-0.044,0.164-0.058l-0.122,0.269
			c-0.055,0.121-0.105,0.211-0.151,0.275c-0.067,0.158-0.119,0.268-0.156,0.33c-0.037,0.061-0.067,0.132-0.09,0.208l0.167-0.195
			c-0.053,0.228-0.096,0.36-0.128,0.393c-0.033,0.034-0.079,0.047-0.139,0.04l-0.025,0.169c-0.126,0.06-0.245,0.154-0.355,0.285
			c-0.112,0.13-0.193,0.264-0.245,0.401c-0.046,0.063-0.079,0.097-0.097,0.1l-0.057,0.01c-0.046,0.063-0.097,0.1-0.155,0.111
			c-0.038,0.007-0.054,0.001-0.047-0.019c0.006-0.019-0.007-0.008-0.037,0.035l-0.247,0.237c-0.05,0.046-0.093,0.072-0.132,0.079
			s-0.079,0.143-0.125,0.407L94.13,47.78l-0.005-0.027l-0.126,0.106l-0.119-0.006c0.102-0.274,0.241-0.533,0.419-0.777
			c0.177-0.242,0.348-0.442,0.513-0.601l-0.005-0.027c-0.05,0.046-0.101,0.083-0.154,0.111c-0.053,0.028-0.097,0.055-0.132,0.079
			l-0.005-0.026l-0.232,0.316c-0.011,0.039-0.047,0.082-0.106,0.13c-0.06,0.048-0.105,0.092-0.136,0.134
			c0.02-0.004,0.001,0.054-0.053,0.174l-0.147,0c0.008-0.056-0.016-0.08-0.073-0.069c-0.042,0.081-0.092,0.182-0.146,0.301
			c-0.055,0.119-0.114,0.222-0.175,0.307c-0.085,0.162-0.164,0.308-0.236,0.441c-0.072,0.132-0.205,0.252-0.4,0.361l-0.078-0.095
			c0.089-0.053,0.106-0.112,0.054-0.175l0.191-0.227c0.149-0.137,0.221-0.269,0.215-0.395l-0.41,0.597l-0.634,0.802
			c-0.216,0.003-0.347,0.031-0.396,0.086c-0.048,0.055-0.086,0.103-0.117,0.145l-0.121,0.132l-0.387,0.428l-0.005-0.027
			l-0.172,0.169c-0.11,0.038-0.202,0.068-0.275,0.092c-0.075,0.023-0.13,0.037-0.168,0.044c-0.113,0.021-0.226-0.004-0.338-0.075
			c-0.042-0.01-0.079-0.022-0.11-0.034c-0.032-0.012-0.095-0.009-0.19,0.008c-0.011-0.054-0.027-0.088-0.049-0.101l-0.132-0.36
			c-0.003-0.017,0.006-0.047,0.027-0.088c0.022-0.041,0.031-0.069,0.027-0.086l0.06-0.286c0.058-0.011,0.086-0.035,0.089-0.071
			c0.003-0.037,0.001-0.074-0.006-0.108c-0.097,0.108-0.138,0.144-0.126,0.105s0.05-0.114,0.116-0.227
			c0.066-0.113,0.145-0.232,0.237-0.359c0.092-0.126,0.162-0.222,0.208-0.285c0.032-0.133,0.074-0.247,0.124-0.339
			c0.051-0.091,0.088-0.176,0.111-0.253c0.302-0.458,0.576-0.924,0.825-1.4c0.249-0.474,0.511-0.958,0.786-1.447
			c0.455-0.668,0.896-1.34,1.32-2.011c0.425-0.672,0.874-1.399,1.346-2.181c0.062-0.084,0.124-0.163,0.188-0.24
			c0.063-0.075,0.108-0.144,0.136-0.203c0.176-0.196,0.327-0.403,0.452-0.618c0.124-0.215,0.251-0.434,0.384-0.66
			c0.061-0.085,0.139-0.209,0.235-0.372c0.094-0.164,0.182-0.29,0.263-0.377l-1.733-2.706l-0.757-1.287
			c-0.056-0.081-0.086-0.139-0.094-0.175s-0.044-0.075-0.112-0.117c-0.094-0.275-0.221-0.522-0.382-0.739
			c-0.161-0.217-0.316-0.448-0.462-0.696c-0.119-0.198-0.251-0.392-0.397-0.585s-0.282-0.405-0.406-0.638
			c-0.066-0.134-0.149-0.278-0.25-0.434c-0.099-0.156-0.18-0.292-0.243-0.408l-0.484-0.953l-0.327-0.899l0.026-0.306
			c0.038-0.007,0.071-0.017,0.097-0.031c0.027-0.014,0.049-0.024,0.069-0.027l0.028-0.005l-0.037-0.185
			c-0.007-0.034,0.006-0.074,0.037-0.116c-0.02,0.004-0.011-0.053,0.025-0.169c-0.011-0.054-0.004-0.119,0.02-0.196
			c0.023-0.078,0.064-0.122,0.121-0.133c0.212-0.02,0.412-0.048,0.602-0.083c0.188-0.035,0.378-0.069,0.567-0.104
			c0.284-0.052,0.583-0.103,0.897-0.152c0.315-0.048,0.611-0.062,0.891-0.04l0.241,0.174L94.42,27.18
			c0.165,0.042,0.334,0.052,0.507,0.03c0.172-0.022,0.291,0.034,0.357,0.168c-0.011,0.039-0.007,0.062,0.013,0.067
			c0.02,0.005,0.079,0.008,0.179,0.008c-0.085,0.07-0.105,0.115-0.062,0.134c0.044,0.02,0.088,0.053,0.137,0.099
			c0.022,0.014,0.039,0.02,0.048,0.018s0.013,0.043,0.013,0.135l-0.002,0.138c-0.01,0.148,0.055,0.251,0.194,0.307
			c0.138,0.057,0.229,0.137,0.268,0.239c0.018,0.089,0.037,0.163,0.059,0.222c0.023,0.061,0.041,0.125,0.055,0.196
			c0.003,0.017,0.014,0.024,0.033,0.021c0.004,0.018,0.01,0.026,0.02,0.024c0.009-0.002,0.017,0.015,0.024,0.05
			c0.105,0.035,0.18,0.067,0.225,0.096c0.025,0.124,0.07,0.257,0.138,0.4s0.148,0.297,0.24,0.463
			c0.088,0.241,0.177,0.444,0.269,0.609l1.386,2.441l0.904,1.726c0.319-0.37,0.599-0.709,0.843-1.019
			c0.241-0.31,0.485-0.615,0.73-0.916c0.243-0.3,0.5-0.609,0.772-0.923c0.271-0.315,0.592-0.671,0.964-1.069
			c0.573-0.672,1.15-1.345,1.732-2.019c0.582-0.673,1.161-1.337,1.737-1.992l-0.029,0.005c0.104-0.366,0.36-0.66,0.767-0.881
			c0.018-0.003,0.045-0.017,0.079-0.042c0.035-0.024,0.062-0.039,0.08-0.043c0.133-0.024,0.252-0.064,0.359-0.121
			c0.03-0.041,0.079-0.065,0.148-0.069c0.068-0.002,0.159-0.015,0.272-0.036l0.686,0.779l-0.029,0.005l0.244,0.339
			c0.041,0.102,0.133,0.176,0.28,0.223c0.052,0.063,0.097,0.146,0.138,0.248c0.04,0.103,0.124,0.179,0.252,0.228
			c-0.031,0.043-0.031,0.093,0,0.151c0.031,0.059,0.069,0.102,0.115,0.13l0.109,0.254c-0.011,0.039-0.011,0.071,0.005,0.095
			c0.015,0.025,0.025,0.056,0.032,0.09c0.004,0.018,0.004,0.045,0.002,0.082c-0.003,0.037,0.01,0.072,0.035,0.103l-0.017,0.36
			c-0.001,0.092,0.008,0.162,0.028,0.214s0.018,0.116-0.006,0.193l-0.046,0.064l-0.046,0.063c-0.049,0.247-0.163,0.464-0.341,0.652
			c-0.179,0.188-0.371,0.356-0.576,0.503c-0.078,0.107-0.196,0.225-0.357,0.354c-0.161,0.131-0.256,0.217-0.286,0.259
			c-0.038,0.007-0.08,0.042-0.126,0.106c-0.085,0.07-0.143,0.122-0.175,0.155c-0.033,0.034-0.094,0.076-0.18,0.129l0.028-0.005
			l-1.384,1.325c-0.246,0.246-0.441,0.442-0.589,0.588c-0.147,0.145-0.278,0.28-0.391,0.401c-0.114,0.121-0.222,0.246-0.323,0.374
			c-0.102,0.129-0.249,0.302-0.441,0.52l-0.575,0.655c-0.174,0.215-0.371,0.43-0.593,0.643c-0.223,0.215-0.462,0.418-0.718,0.612
			l-0.191,0.227l-0.149,0.138l-0.005-0.027L102.059,37.054z M93.272,47.609l0.03-0.143l0.092-0.127l-0.149,0.138L93.272,47.609z
			 M95.835,45.849l0.028-0.005l-0.005-0.027L95.835,45.849z M95.971,45.055l0.113-0.021c0.057-0.01-0.016-0.024-0.214-0.042
			L95.971,45.055z M96.156,44.802l0.029-0.005c0.018-0.003,0.027-0.009,0.025-0.018c-0.002-0.009,0.006-0.016,0.026-0.019
			C96.179,44.77,96.152,44.785,96.156,44.802z M96.264,44.755l-0.005-0.026l-0.023,0.031L96.264,44.755z M101.765,37.354
			c0.045,0.029,0.069,0.029,0.073,0c0.004-0.028,0.005-0.051,0.002-0.068L101.765,37.354z M104.693,43.178
			c-0.003-0.017,0.004-0.033,0.021-0.045c0.017-0.012,0.039-0.049,0.067-0.108c-0.066-0.134-0.139-0.253-0.219-0.358
			c-0.079-0.104-0.156-0.194-0.232-0.272C104.457,42.535,104.578,42.798,104.693,43.178z M104.762,43.22
			c0.018-0.003,0.026-0.014,0.022-0.032l-0.028,0.005L104.762,43.22z"/>
	</g>
</g>
</svg>
